%TF.GenerationSoftware,KiCad,Pcbnew,(5.1.8)-1*%
%TF.CreationDate,2021-03-06T21:23:55+09:00*%
%TF.ProjectId,line_sensor,6c696e65-5f73-4656-9e73-6f722e6b6963,rev?*%
%TF.SameCoordinates,PX94c5f00PY876bf80*%
%TF.FileFunction,Soldermask,Bot*%
%TF.FilePolarity,Negative*%
%FSLAX46Y46*%
G04 Gerber Fmt 4.6, Leading zero omitted, Abs format (unit mm)*
G04 Created by KiCad (PCBNEW (5.1.8)-1) date 2021-03-06 21:23:55*
%MOMM*%
%LPD*%
G01*
G04 APERTURE LIST*
%ADD10C,1.700000*%
%ADD11O,1.700000X1.700000*%
%ADD12C,1.800000*%
G04 APERTURE END LIST*
D10*
%TO.C,J8*%
X56320000Y12280000D03*
D11*
X56320000Y14820000D03*
X56320000Y17360000D03*
X56320000Y19900000D03*
X56320000Y22440000D03*
%TD*%
D10*
%TO.C,J7*%
X46160000Y12280000D03*
D11*
X46160000Y14820000D03*
X46160000Y17360000D03*
X46160000Y19900000D03*
X46160000Y22440000D03*
%TD*%
D10*
%TO.C,J1*%
X36000000Y9740000D03*
%TD*%
%TO.C,J6*%
X36000000Y12280000D03*
D11*
X36000000Y14820000D03*
X36000000Y17360000D03*
X36000000Y19900000D03*
X36000000Y22440000D03*
%TD*%
%TO.C,J5*%
X25840000Y22440000D03*
X25840000Y19900000D03*
X25840000Y17360000D03*
X25840000Y14820000D03*
D10*
X25840000Y12280000D03*
%TD*%
%TO.C,J2*%
X15680000Y12280000D03*
D11*
X15680000Y14820000D03*
X15680000Y17360000D03*
X15680000Y19900000D03*
X15680000Y22440000D03*
%TD*%
D10*
%TO.C,J3*%
X66480000Y35140000D03*
D11*
X66480000Y37680000D03*
X66480000Y40220000D03*
X66480000Y42760000D03*
%TD*%
%TO.C,J4*%
X5520000Y35140000D03*
X5520000Y37680000D03*
X5520000Y40220000D03*
D10*
X5520000Y42760000D03*
%TD*%
D11*
%TO.C,J9*%
X5520000Y73240000D03*
X5520000Y75780000D03*
D10*
X5520000Y78320000D03*
%TD*%
%TO.C,Q1*%
X14410000Y78320000D03*
X16950000Y78320000D03*
%TD*%
%TO.C,Q2*%
X14410000Y68160000D03*
X16950000Y68160000D03*
%TD*%
%TO.C,Q3*%
X14410000Y58000000D03*
X16950000Y58000000D03*
%TD*%
%TO.C,Q4*%
X14410000Y47840000D03*
X16950000Y47840000D03*
%TD*%
%TO.C,Q5*%
X14410000Y37680000D03*
X16950000Y37680000D03*
%TD*%
%TO.C,Q6*%
X24570000Y78320000D03*
X27110000Y78320000D03*
%TD*%
%TO.C,Q7*%
X24570000Y68160000D03*
X27110000Y68160000D03*
%TD*%
%TO.C,Q8*%
X24570000Y58000000D03*
X27110000Y58000000D03*
%TD*%
%TO.C,Q9*%
X24570000Y47840000D03*
X27110000Y47840000D03*
%TD*%
%TO.C,Q10*%
X24570000Y37680000D03*
X27110000Y37680000D03*
%TD*%
%TO.C,Q11*%
X34730000Y78320000D03*
X37270000Y78320000D03*
%TD*%
%TO.C,Q12*%
X34730000Y68160000D03*
X37270000Y68160000D03*
%TD*%
%TO.C,Q13*%
X34730000Y58000000D03*
X37270000Y58000000D03*
%TD*%
%TO.C,Q14*%
X34730000Y47840000D03*
X37270000Y47840000D03*
%TD*%
%TO.C,Q15*%
X34730000Y37680000D03*
X37270000Y37680000D03*
%TD*%
%TO.C,Q16*%
X44890000Y78320000D03*
X47430000Y78320000D03*
%TD*%
%TO.C,Q17*%
X44890000Y68160000D03*
X47430000Y68160000D03*
%TD*%
%TO.C,Q18*%
X44890000Y58000000D03*
X47430000Y58000000D03*
%TD*%
%TO.C,Q19*%
X44890000Y47840000D03*
X47430000Y47840000D03*
%TD*%
%TO.C,Q20*%
X44890000Y37680000D03*
X47430000Y37680000D03*
%TD*%
%TO.C,Q21*%
X55050000Y78320000D03*
X57590000Y78320000D03*
%TD*%
%TO.C,Q22*%
X55050000Y68160000D03*
X57590000Y68160000D03*
%TD*%
%TO.C,Q23*%
X55050000Y58000000D03*
X57590000Y58000000D03*
%TD*%
%TO.C,Q24*%
X55050000Y47840000D03*
X57590000Y47840000D03*
%TD*%
%TO.C,Q25*%
X55050000Y37680000D03*
X57590000Y37680000D03*
%TD*%
%TO.C,J10*%
X66480000Y78320000D03*
D11*
X66480000Y75780000D03*
X66480000Y73240000D03*
%TD*%
D10*
%TO.C,D1*%
X19490000Y73240000D03*
X22030000Y73240000D03*
%TD*%
%TO.C,D2*%
X22030000Y63080000D03*
X19490000Y63080000D03*
%TD*%
%TO.C,D3*%
X22030000Y52920000D03*
X19490000Y52920000D03*
%TD*%
%TO.C,D4*%
X19490000Y42760000D03*
X22030000Y42760000D03*
%TD*%
%TO.C,D5*%
X29650000Y73240000D03*
X32190000Y73240000D03*
%TD*%
%TO.C,D6*%
X32190000Y63080000D03*
X29650000Y63080000D03*
%TD*%
%TO.C,D7*%
X29650000Y52920000D03*
X32190000Y52920000D03*
%TD*%
%TO.C,D8*%
X32190000Y42760000D03*
X29650000Y42760000D03*
%TD*%
%TO.C,D9*%
X39810000Y73240000D03*
X42350000Y73240000D03*
%TD*%
%TO.C,D10*%
X39810000Y63080000D03*
X42350000Y63080000D03*
%TD*%
%TO.C,D11*%
X42350000Y52920000D03*
X39810000Y52920000D03*
%TD*%
%TO.C,D12*%
X39810000Y42760000D03*
X42350000Y42760000D03*
%TD*%
%TO.C,D13*%
X52510000Y73240000D03*
X49970000Y73240000D03*
%TD*%
%TO.C,D14*%
X49970000Y63080000D03*
X52510000Y63080000D03*
%TD*%
%TO.C,D15*%
X52510000Y52920000D03*
X49970000Y52920000D03*
%TD*%
%TO.C,D16*%
X49970000Y42760000D03*
X52510000Y42760000D03*
%TD*%
%TO.C,D17*%
X16950000Y83400000D03*
X14410000Y83400000D03*
%TD*%
%TO.C,D18*%
X55050000Y83400000D03*
X57590000Y83400000D03*
%TD*%
%TO.C,D19*%
X55050000Y32600000D03*
X57590000Y32600000D03*
%TD*%
%TO.C,D20*%
X14410000Y32600000D03*
X16950000Y32600000D03*
%TD*%
%TO.C,D21*%
X22030000Y78320000D03*
X19490000Y78320000D03*
%TD*%
%TO.C,D22*%
X52510000Y78320000D03*
X49970000Y78320000D03*
%TD*%
%TO.C,D23*%
X49970000Y37680000D03*
X52510000Y37680000D03*
%TD*%
D12*
%TO.C,D24*%
X22030000Y37680000D03*
D10*
X19490000Y37680000D03*
%TD*%
%TO.C,D25*%
X11870000Y78320000D03*
X9330000Y78320000D03*
%TD*%
%TO.C,D26*%
X60130000Y78320000D03*
X62670000Y78320000D03*
%TD*%
%TO.C,D27*%
X62670000Y37680000D03*
X60130000Y37680000D03*
%TD*%
%TO.C,D28*%
X11870000Y37680000D03*
X9330000Y37680000D03*
%TD*%
M02*
