%TF.GenerationSoftware,KiCad,Pcbnew,(5.1.8)-1*%
%TF.CreationDate,2021-03-06T21:23:55+09:00*%
%TF.ProjectId,line_sensor,6c696e65-5f73-4656-9e73-6f722e6b6963,rev?*%
%TF.SameCoordinates,PX94c5f00PY876bf80*%
%TF.FileFunction,Legend,Bot*%
%TF.FilePolarity,Positive*%
%FSLAX46Y46*%
G04 Gerber Fmt 4.6, Leading zero omitted, Abs format (unit mm)*
G04 Created by KiCad (PCBNEW (5.1.8)-1) date 2021-03-06 21:23:55*
%MOMM*%
%LPD*%
G01*
G04 APERTURE LIST*
%ADD10C,0.254000*%
%ADD11C,0.120000*%
%ADD12C,1.700000*%
%ADD13O,1.700000X1.700000*%
%ADD14C,1.800000*%
G04 APERTURE END LIST*
D10*
%TO.C,Q1*%
X18504870Y78321000D02*
G75*
G03*
X18504870Y78321000I-57870J0D01*
G01*
X17930000Y78320000D02*
G75*
G03*
X17930000Y78320000I-2250000J0D01*
G01*
%TO.C,Q2*%
X18504870Y68161000D02*
G75*
G03*
X18504870Y68161000I-57870J0D01*
G01*
X17930000Y68160000D02*
G75*
G03*
X17930000Y68160000I-2250000J0D01*
G01*
%TO.C,Q3*%
X18504870Y58001000D02*
G75*
G03*
X18504870Y58001000I-57870J0D01*
G01*
X17930000Y58000000D02*
G75*
G03*
X17930000Y58000000I-2250000J0D01*
G01*
%TO.C,Q4*%
X18504870Y47841000D02*
G75*
G03*
X18504870Y47841000I-57870J0D01*
G01*
X17930000Y47840000D02*
G75*
G03*
X17930000Y47840000I-2250000J0D01*
G01*
%TO.C,Q5*%
X18504870Y37681000D02*
G75*
G03*
X18504870Y37681000I-57870J0D01*
G01*
X17930000Y37680000D02*
G75*
G03*
X17930000Y37680000I-2250000J0D01*
G01*
%TO.C,Q6*%
X28664870Y78321000D02*
G75*
G03*
X28664870Y78321000I-57870J0D01*
G01*
X28090000Y78320000D02*
G75*
G03*
X28090000Y78320000I-2250000J0D01*
G01*
%TO.C,Q7*%
X28664870Y68161000D02*
G75*
G03*
X28664870Y68161000I-57870J0D01*
G01*
X28090000Y68160000D02*
G75*
G03*
X28090000Y68160000I-2250000J0D01*
G01*
%TO.C,Q8*%
X28664870Y58001000D02*
G75*
G03*
X28664870Y58001000I-57870J0D01*
G01*
X28090000Y58000000D02*
G75*
G03*
X28090000Y58000000I-2250000J0D01*
G01*
%TO.C,Q9*%
X28664870Y47841000D02*
G75*
G03*
X28664870Y47841000I-57870J0D01*
G01*
X28090000Y47840000D02*
G75*
G03*
X28090000Y47840000I-2250000J0D01*
G01*
%TO.C,Q10*%
X28664870Y37681000D02*
G75*
G03*
X28664870Y37681000I-57870J0D01*
G01*
X28090000Y37680000D02*
G75*
G03*
X28090000Y37680000I-2250000J0D01*
G01*
%TO.C,Q11*%
X38824870Y78321000D02*
G75*
G03*
X38824870Y78321000I-57870J0D01*
G01*
X38250000Y78320000D02*
G75*
G03*
X38250000Y78320000I-2250000J0D01*
G01*
%TO.C,Q12*%
X38824870Y68161000D02*
G75*
G03*
X38824870Y68161000I-57870J0D01*
G01*
X38250000Y68160000D02*
G75*
G03*
X38250000Y68160000I-2250000J0D01*
G01*
%TO.C,Q13*%
X38824870Y58001000D02*
G75*
G03*
X38824870Y58001000I-57870J0D01*
G01*
X38250000Y58000000D02*
G75*
G03*
X38250000Y58000000I-2250000J0D01*
G01*
%TO.C,Q14*%
X38824870Y47841000D02*
G75*
G03*
X38824870Y47841000I-57870J0D01*
G01*
X38250000Y47840000D02*
G75*
G03*
X38250000Y47840000I-2250000J0D01*
G01*
%TO.C,Q15*%
X38824870Y37681000D02*
G75*
G03*
X38824870Y37681000I-57870J0D01*
G01*
X38250000Y37680000D02*
G75*
G03*
X38250000Y37680000I-2250000J0D01*
G01*
%TO.C,Q16*%
X48984870Y78321000D02*
G75*
G03*
X48984870Y78321000I-57870J0D01*
G01*
X48410000Y78320000D02*
G75*
G03*
X48410000Y78320000I-2250000J0D01*
G01*
%TO.C,Q17*%
X48984870Y68161000D02*
G75*
G03*
X48984870Y68161000I-57870J0D01*
G01*
X48410000Y68160000D02*
G75*
G03*
X48410000Y68160000I-2250000J0D01*
G01*
%TO.C,Q18*%
X48984870Y58001000D02*
G75*
G03*
X48984870Y58001000I-57870J0D01*
G01*
X48410000Y58000000D02*
G75*
G03*
X48410000Y58000000I-2250000J0D01*
G01*
%TO.C,Q19*%
X48984870Y47841000D02*
G75*
G03*
X48984870Y47841000I-57870J0D01*
G01*
X48410000Y47840000D02*
G75*
G03*
X48410000Y47840000I-2250000J0D01*
G01*
%TO.C,Q20*%
X48984870Y37681000D02*
G75*
G03*
X48984870Y37681000I-57870J0D01*
G01*
X48410000Y37680000D02*
G75*
G03*
X48410000Y37680000I-2250000J0D01*
G01*
%TO.C,Q21*%
X59144870Y78321000D02*
G75*
G03*
X59144870Y78321000I-57870J0D01*
G01*
X58570000Y78320000D02*
G75*
G03*
X58570000Y78320000I-2250000J0D01*
G01*
%TO.C,Q22*%
X59144870Y68161000D02*
G75*
G03*
X59144870Y68161000I-57870J0D01*
G01*
X58570000Y68160000D02*
G75*
G03*
X58570000Y68160000I-2250000J0D01*
G01*
%TO.C,Q23*%
X59144870Y58001000D02*
G75*
G03*
X59144870Y58001000I-57870J0D01*
G01*
X58570000Y58000000D02*
G75*
G03*
X58570000Y58000000I-2250000J0D01*
G01*
%TO.C,Q24*%
X59144870Y47841000D02*
G75*
G03*
X59144870Y47841000I-57870J0D01*
G01*
X58570000Y47840000D02*
G75*
G03*
X58570000Y47840000I-2250000J0D01*
G01*
%TO.C,Q25*%
X59144870Y37681000D02*
G75*
G03*
X59144870Y37681000I-57870J0D01*
G01*
X58570000Y37680000D02*
G75*
G03*
X58570000Y37680000I-2250000J0D01*
G01*
D11*
%TO.C,D1*%
X19200000Y74320000D02*
X19200000Y74476000D01*
X19200000Y72004000D02*
X19200000Y72160000D01*
X22432335Y72161392D02*
G75*
G02*
X19200000Y72004484I-1672335J1078608D01*
G01*
X22432335Y74318608D02*
G75*
G03*
X19200000Y74475516I-1672335J-1078608D01*
G01*
X21801130Y72160163D02*
G75*
G02*
X19719039Y72160000I-1041130J1079837D01*
G01*
X21801130Y74319837D02*
G75*
G03*
X19719039Y74320000I-1041130J-1079837D01*
G01*
%TO.C,D2*%
X19200000Y61844000D02*
X19200000Y62000000D01*
X19200000Y64160000D02*
X19200000Y64316000D01*
X21801130Y64159837D02*
G75*
G03*
X19719039Y64160000I-1041130J-1079837D01*
G01*
X21801130Y62000163D02*
G75*
G02*
X19719039Y62000000I-1041130J1079837D01*
G01*
X22432335Y64158608D02*
G75*
G03*
X19200000Y64315516I-1672335J-1078608D01*
G01*
X22432335Y62001392D02*
G75*
G02*
X19200000Y61844484I-1672335J1078608D01*
G01*
%TO.C,D3*%
X19200000Y51684000D02*
X19200000Y51840000D01*
X19200000Y54000000D02*
X19200000Y54156000D01*
X21801130Y53999837D02*
G75*
G03*
X19719039Y54000000I-1041130J-1079837D01*
G01*
X21801130Y51840163D02*
G75*
G02*
X19719039Y51840000I-1041130J1079837D01*
G01*
X22432335Y53998608D02*
G75*
G03*
X19200000Y54155516I-1672335J-1078608D01*
G01*
X22432335Y51841392D02*
G75*
G02*
X19200000Y51684484I-1672335J1078608D01*
G01*
%TO.C,D4*%
X19200000Y43840000D02*
X19200000Y43996000D01*
X19200000Y41524000D02*
X19200000Y41680000D01*
X22432335Y41681392D02*
G75*
G02*
X19200000Y41524484I-1672335J1078608D01*
G01*
X22432335Y43838608D02*
G75*
G03*
X19200000Y43995516I-1672335J-1078608D01*
G01*
X21801130Y41680163D02*
G75*
G02*
X19719039Y41680000I-1041130J1079837D01*
G01*
X21801130Y43839837D02*
G75*
G03*
X19719039Y43840000I-1041130J-1079837D01*
G01*
%TO.C,D5*%
X29360000Y74320000D02*
X29360000Y74476000D01*
X29360000Y72004000D02*
X29360000Y72160000D01*
X32592335Y72161392D02*
G75*
G02*
X29360000Y72004484I-1672335J1078608D01*
G01*
X32592335Y74318608D02*
G75*
G03*
X29360000Y74475516I-1672335J-1078608D01*
G01*
X31961130Y72160163D02*
G75*
G02*
X29879039Y72160000I-1041130J1079837D01*
G01*
X31961130Y74319837D02*
G75*
G03*
X29879039Y74320000I-1041130J-1079837D01*
G01*
%TO.C,D6*%
X29360000Y61844000D02*
X29360000Y62000000D01*
X29360000Y64160000D02*
X29360000Y64316000D01*
X31961130Y64159837D02*
G75*
G03*
X29879039Y64160000I-1041130J-1079837D01*
G01*
X31961130Y62000163D02*
G75*
G02*
X29879039Y62000000I-1041130J1079837D01*
G01*
X32592335Y64158608D02*
G75*
G03*
X29360000Y64315516I-1672335J-1078608D01*
G01*
X32592335Y62001392D02*
G75*
G02*
X29360000Y61844484I-1672335J1078608D01*
G01*
%TO.C,D7*%
X29360000Y54000000D02*
X29360000Y54156000D01*
X29360000Y51684000D02*
X29360000Y51840000D01*
X32592335Y51841392D02*
G75*
G02*
X29360000Y51684484I-1672335J1078608D01*
G01*
X32592335Y53998608D02*
G75*
G03*
X29360000Y54155516I-1672335J-1078608D01*
G01*
X31961130Y51840163D02*
G75*
G02*
X29879039Y51840000I-1041130J1079837D01*
G01*
X31961130Y53999837D02*
G75*
G03*
X29879039Y54000000I-1041130J-1079837D01*
G01*
%TO.C,D8*%
X29360000Y41524000D02*
X29360000Y41680000D01*
X29360000Y43840000D02*
X29360000Y43996000D01*
X31961130Y43839837D02*
G75*
G03*
X29879039Y43840000I-1041130J-1079837D01*
G01*
X31961130Y41680163D02*
G75*
G02*
X29879039Y41680000I-1041130J1079837D01*
G01*
X32592335Y43838608D02*
G75*
G03*
X29360000Y43995516I-1672335J-1078608D01*
G01*
X32592335Y41681392D02*
G75*
G02*
X29360000Y41524484I-1672335J1078608D01*
G01*
%TO.C,D9*%
X39520000Y74320000D02*
X39520000Y74476000D01*
X39520000Y72004000D02*
X39520000Y72160000D01*
X42752335Y72161392D02*
G75*
G02*
X39520000Y72004484I-1672335J1078608D01*
G01*
X42752335Y74318608D02*
G75*
G03*
X39520000Y74475516I-1672335J-1078608D01*
G01*
X42121130Y72160163D02*
G75*
G02*
X40039039Y72160000I-1041130J1079837D01*
G01*
X42121130Y74319837D02*
G75*
G03*
X40039039Y74320000I-1041130J-1079837D01*
G01*
%TO.C,D10*%
X39520000Y64160000D02*
X39520000Y64316000D01*
X39520000Y61844000D02*
X39520000Y62000000D01*
X42752335Y62001392D02*
G75*
G02*
X39520000Y61844484I-1672335J1078608D01*
G01*
X42752335Y64158608D02*
G75*
G03*
X39520000Y64315516I-1672335J-1078608D01*
G01*
X42121130Y62000163D02*
G75*
G02*
X40039039Y62000000I-1041130J1079837D01*
G01*
X42121130Y64159837D02*
G75*
G03*
X40039039Y64160000I-1041130J-1079837D01*
G01*
%TO.C,D11*%
X39520000Y51684000D02*
X39520000Y51840000D01*
X39520000Y54000000D02*
X39520000Y54156000D01*
X42121130Y53999837D02*
G75*
G03*
X40039039Y54000000I-1041130J-1079837D01*
G01*
X42121130Y51840163D02*
G75*
G02*
X40039039Y51840000I-1041130J1079837D01*
G01*
X42752335Y53998608D02*
G75*
G03*
X39520000Y54155516I-1672335J-1078608D01*
G01*
X42752335Y51841392D02*
G75*
G02*
X39520000Y51684484I-1672335J1078608D01*
G01*
%TO.C,D12*%
X39520000Y43840000D02*
X39520000Y43996000D01*
X39520000Y41524000D02*
X39520000Y41680000D01*
X42752335Y41681392D02*
G75*
G02*
X39520000Y41524484I-1672335J1078608D01*
G01*
X42752335Y43838608D02*
G75*
G03*
X39520000Y43995516I-1672335J-1078608D01*
G01*
X42121130Y41680163D02*
G75*
G02*
X40039039Y41680000I-1041130J1079837D01*
G01*
X42121130Y43839837D02*
G75*
G03*
X40039039Y43840000I-1041130J-1079837D01*
G01*
%TO.C,D13*%
X49680000Y72004000D02*
X49680000Y72160000D01*
X49680000Y74320000D02*
X49680000Y74476000D01*
X52281130Y74319837D02*
G75*
G03*
X50199039Y74320000I-1041130J-1079837D01*
G01*
X52281130Y72160163D02*
G75*
G02*
X50199039Y72160000I-1041130J1079837D01*
G01*
X52912335Y74318608D02*
G75*
G03*
X49680000Y74475516I-1672335J-1078608D01*
G01*
X52912335Y72161392D02*
G75*
G02*
X49680000Y72004484I-1672335J1078608D01*
G01*
%TO.C,D14*%
X49680000Y64160000D02*
X49680000Y64316000D01*
X49680000Y61844000D02*
X49680000Y62000000D01*
X52912335Y62001392D02*
G75*
G02*
X49680000Y61844484I-1672335J1078608D01*
G01*
X52912335Y64158608D02*
G75*
G03*
X49680000Y64315516I-1672335J-1078608D01*
G01*
X52281130Y62000163D02*
G75*
G02*
X50199039Y62000000I-1041130J1079837D01*
G01*
X52281130Y64159837D02*
G75*
G03*
X50199039Y64160000I-1041130J-1079837D01*
G01*
%TO.C,D15*%
X49680000Y51684000D02*
X49680000Y51840000D01*
X49680000Y54000000D02*
X49680000Y54156000D01*
X52281130Y53999837D02*
G75*
G03*
X50199039Y54000000I-1041130J-1079837D01*
G01*
X52281130Y51840163D02*
G75*
G02*
X50199039Y51840000I-1041130J1079837D01*
G01*
X52912335Y53998608D02*
G75*
G03*
X49680000Y54155516I-1672335J-1078608D01*
G01*
X52912335Y51841392D02*
G75*
G02*
X49680000Y51684484I-1672335J1078608D01*
G01*
%TO.C,D16*%
X49680000Y43840000D02*
X49680000Y43996000D01*
X49680000Y41524000D02*
X49680000Y41680000D01*
X52912335Y41681392D02*
G75*
G02*
X49680000Y41524484I-1672335J1078608D01*
G01*
X52912335Y43838608D02*
G75*
G03*
X49680000Y43995516I-1672335J-1078608D01*
G01*
X52281130Y41680163D02*
G75*
G02*
X50199039Y41680000I-1041130J1079837D01*
G01*
X52281130Y43839837D02*
G75*
G03*
X50199039Y43840000I-1041130J-1079837D01*
G01*
%TO.C,D17*%
X14120000Y82164000D02*
X14120000Y82320000D01*
X14120000Y84480000D02*
X14120000Y84636000D01*
X16721130Y84479837D02*
G75*
G03*
X14639039Y84480000I-1041130J-1079837D01*
G01*
X16721130Y82320163D02*
G75*
G02*
X14639039Y82320000I-1041130J1079837D01*
G01*
X17352335Y84478608D02*
G75*
G03*
X14120000Y84635516I-1672335J-1078608D01*
G01*
X17352335Y82321392D02*
G75*
G02*
X14120000Y82164484I-1672335J1078608D01*
G01*
%TO.C,D18*%
X54760000Y84480000D02*
X54760000Y84636000D01*
X54760000Y82164000D02*
X54760000Y82320000D01*
X57992335Y82321392D02*
G75*
G02*
X54760000Y82164484I-1672335J1078608D01*
G01*
X57992335Y84478608D02*
G75*
G03*
X54760000Y84635516I-1672335J-1078608D01*
G01*
X57361130Y82320163D02*
G75*
G02*
X55279039Y82320000I-1041130J1079837D01*
G01*
X57361130Y84479837D02*
G75*
G03*
X55279039Y84480000I-1041130J-1079837D01*
G01*
%TO.C,D19*%
X54760000Y33680000D02*
X54760000Y33836000D01*
X54760000Y31364000D02*
X54760000Y31520000D01*
X57992335Y31521392D02*
G75*
G02*
X54760000Y31364484I-1672335J1078608D01*
G01*
X57992335Y33678608D02*
G75*
G03*
X54760000Y33835516I-1672335J-1078608D01*
G01*
X57361130Y31520163D02*
G75*
G02*
X55279039Y31520000I-1041130J1079837D01*
G01*
X57361130Y33679837D02*
G75*
G03*
X55279039Y33680000I-1041130J-1079837D01*
G01*
%TO.C,D20*%
X14120000Y33680000D02*
X14120000Y33836000D01*
X14120000Y31364000D02*
X14120000Y31520000D01*
X17352335Y31521392D02*
G75*
G02*
X14120000Y31364484I-1672335J1078608D01*
G01*
X17352335Y33678608D02*
G75*
G03*
X14120000Y33835516I-1672335J-1078608D01*
G01*
X16721130Y31520163D02*
G75*
G02*
X14639039Y31520000I-1041130J1079837D01*
G01*
X16721130Y33679837D02*
G75*
G03*
X14639039Y33680000I-1041130J-1079837D01*
G01*
%TO.C,D21*%
X19200000Y77084000D02*
X19200000Y77240000D01*
X19200000Y79400000D02*
X19200000Y79556000D01*
X21801130Y79399837D02*
G75*
G03*
X19719039Y79400000I-1041130J-1079837D01*
G01*
X21801130Y77240163D02*
G75*
G02*
X19719039Y77240000I-1041130J1079837D01*
G01*
X22432335Y79398608D02*
G75*
G03*
X19200000Y79555516I-1672335J-1078608D01*
G01*
X22432335Y77241392D02*
G75*
G02*
X19200000Y77084484I-1672335J1078608D01*
G01*
%TO.C,D22*%
X49680000Y77084000D02*
X49680000Y77240000D01*
X49680000Y79400000D02*
X49680000Y79556000D01*
X52281130Y79399837D02*
G75*
G03*
X50199039Y79400000I-1041130J-1079837D01*
G01*
X52281130Y77240163D02*
G75*
G02*
X50199039Y77240000I-1041130J1079837D01*
G01*
X52912335Y79398608D02*
G75*
G03*
X49680000Y79555516I-1672335J-1078608D01*
G01*
X52912335Y77241392D02*
G75*
G02*
X49680000Y77084484I-1672335J1078608D01*
G01*
%TO.C,D23*%
X49680000Y38760000D02*
X49680000Y38916000D01*
X49680000Y36444000D02*
X49680000Y36600000D01*
X52912335Y36601392D02*
G75*
G02*
X49680000Y36444484I-1672335J1078608D01*
G01*
X52912335Y38758608D02*
G75*
G03*
X49680000Y38915516I-1672335J-1078608D01*
G01*
X52281130Y36600163D02*
G75*
G02*
X50199039Y36600000I-1041130J1079837D01*
G01*
X52281130Y38759837D02*
G75*
G03*
X50199039Y38760000I-1041130J-1079837D01*
G01*
%TO.C,D24*%
X19200000Y36444000D02*
X19200000Y36600000D01*
X19200000Y38760000D02*
X19200000Y38916000D01*
X21801130Y38759837D02*
G75*
G03*
X19719039Y38760000I-1041130J-1079837D01*
G01*
X21801130Y36600163D02*
G75*
G02*
X19719039Y36600000I-1041130J1079837D01*
G01*
X22432335Y38758608D02*
G75*
G03*
X19200000Y38915516I-1672335J-1078608D01*
G01*
X22432335Y36601392D02*
G75*
G02*
X19200000Y36444484I-1672335J1078608D01*
G01*
%TO.C,D25*%
X9040000Y77084000D02*
X9040000Y77240000D01*
X9040000Y79400000D02*
X9040000Y79556000D01*
X11641130Y79399837D02*
G75*
G03*
X9559039Y79400000I-1041130J-1079837D01*
G01*
X11641130Y77240163D02*
G75*
G02*
X9559039Y77240000I-1041130J1079837D01*
G01*
X12272335Y79398608D02*
G75*
G03*
X9040000Y79555516I-1672335J-1078608D01*
G01*
X12272335Y77241392D02*
G75*
G02*
X9040000Y77084484I-1672335J1078608D01*
G01*
%TO.C,D26*%
X59840000Y79400000D02*
X59840000Y79556000D01*
X59840000Y77084000D02*
X59840000Y77240000D01*
X63072335Y77241392D02*
G75*
G02*
X59840000Y77084484I-1672335J1078608D01*
G01*
X63072335Y79398608D02*
G75*
G03*
X59840000Y79555516I-1672335J-1078608D01*
G01*
X62441130Y77240163D02*
G75*
G02*
X60359039Y77240000I-1041130J1079837D01*
G01*
X62441130Y79399837D02*
G75*
G03*
X60359039Y79400000I-1041130J-1079837D01*
G01*
%TO.C,D27*%
X59840000Y36444000D02*
X59840000Y36600000D01*
X59840000Y38760000D02*
X59840000Y38916000D01*
X62441130Y38759837D02*
G75*
G03*
X60359039Y38760000I-1041130J-1079837D01*
G01*
X62441130Y36600163D02*
G75*
G02*
X60359039Y36600000I-1041130J1079837D01*
G01*
X63072335Y38758608D02*
G75*
G03*
X59840000Y38915516I-1672335J-1078608D01*
G01*
X63072335Y36601392D02*
G75*
G02*
X59840000Y36444484I-1672335J1078608D01*
G01*
%TO.C,D28*%
X9040000Y36444000D02*
X9040000Y36600000D01*
X9040000Y38760000D02*
X9040000Y38916000D01*
X11641130Y38759837D02*
G75*
G03*
X9559039Y38760000I-1041130J-1079837D01*
G01*
X11641130Y36600163D02*
G75*
G02*
X9559039Y36600000I-1041130J1079837D01*
G01*
X12272335Y38758608D02*
G75*
G03*
X9040000Y38915516I-1672335J-1078608D01*
G01*
X12272335Y36601392D02*
G75*
G02*
X9040000Y36444484I-1672335J1078608D01*
G01*
%TO.C,Q22*%
D10*
X56713714Y67415524D02*
X56834666Y67476000D01*
X56955619Y67596953D01*
X57137047Y67778381D01*
X57258000Y67838858D01*
X57378952Y67838858D01*
X57318476Y67536477D02*
X57439428Y67596953D01*
X57560380Y67717905D01*
X57620857Y67959810D01*
X57620857Y68383143D01*
X57560380Y68625048D01*
X57439428Y68746000D01*
X57318476Y68806477D01*
X57076571Y68806477D01*
X56955619Y68746000D01*
X56834666Y68625048D01*
X56774190Y68383143D01*
X56774190Y67959810D01*
X56834666Y67717905D01*
X56955619Y67596953D01*
X57076571Y67536477D01*
X57318476Y67536477D01*
X56290380Y68685524D02*
X56229904Y68746000D01*
X56108952Y68806477D01*
X55806571Y68806477D01*
X55685619Y68746000D01*
X55625142Y68685524D01*
X55564666Y68564572D01*
X55564666Y68443620D01*
X55625142Y68262191D01*
X56350857Y67536477D01*
X55564666Y67536477D01*
X55080857Y68685524D02*
X55020380Y68746000D01*
X54899428Y68806477D01*
X54597047Y68806477D01*
X54476095Y68746000D01*
X54415619Y68685524D01*
X54355142Y68564572D01*
X54355142Y68443620D01*
X54415619Y68262191D01*
X55141333Y67536477D01*
X54355142Y67536477D01*
%TD*%
%LPC*%
D12*
%TO.C,J8*%
X56320000Y12280000D03*
D13*
X56320000Y14820000D03*
X56320000Y17360000D03*
X56320000Y19900000D03*
X56320000Y22440000D03*
%TD*%
D12*
%TO.C,J7*%
X46160000Y12280000D03*
D13*
X46160000Y14820000D03*
X46160000Y17360000D03*
X46160000Y19900000D03*
X46160000Y22440000D03*
%TD*%
D12*
%TO.C,J1*%
X36000000Y9740000D03*
%TD*%
%TO.C,J6*%
X36000000Y12280000D03*
D13*
X36000000Y14820000D03*
X36000000Y17360000D03*
X36000000Y19900000D03*
X36000000Y22440000D03*
%TD*%
%TO.C,J5*%
X25840000Y22440000D03*
X25840000Y19900000D03*
X25840000Y17360000D03*
X25840000Y14820000D03*
D12*
X25840000Y12280000D03*
%TD*%
%TO.C,J2*%
X15680000Y12280000D03*
D13*
X15680000Y14820000D03*
X15680000Y17360000D03*
X15680000Y19900000D03*
X15680000Y22440000D03*
%TD*%
D12*
%TO.C,J3*%
X66480000Y35140000D03*
D13*
X66480000Y37680000D03*
X66480000Y40220000D03*
X66480000Y42760000D03*
%TD*%
%TO.C,J4*%
X5520000Y35140000D03*
X5520000Y37680000D03*
X5520000Y40220000D03*
D12*
X5520000Y42760000D03*
%TD*%
D13*
%TO.C,J9*%
X5520000Y73240000D03*
X5520000Y75780000D03*
D12*
X5520000Y78320000D03*
%TD*%
%TO.C,Q1*%
X14410000Y78320000D03*
X16950000Y78320000D03*
%TD*%
%TO.C,Q2*%
X14410000Y68160000D03*
X16950000Y68160000D03*
%TD*%
%TO.C,Q3*%
X14410000Y58000000D03*
X16950000Y58000000D03*
%TD*%
%TO.C,Q4*%
X14410000Y47840000D03*
X16950000Y47840000D03*
%TD*%
%TO.C,Q5*%
X14410000Y37680000D03*
X16950000Y37680000D03*
%TD*%
%TO.C,Q6*%
X24570000Y78320000D03*
X27110000Y78320000D03*
%TD*%
%TO.C,Q7*%
X24570000Y68160000D03*
X27110000Y68160000D03*
%TD*%
%TO.C,Q8*%
X24570000Y58000000D03*
X27110000Y58000000D03*
%TD*%
%TO.C,Q9*%
X24570000Y47840000D03*
X27110000Y47840000D03*
%TD*%
%TO.C,Q10*%
X24570000Y37680000D03*
X27110000Y37680000D03*
%TD*%
%TO.C,Q11*%
X34730000Y78320000D03*
X37270000Y78320000D03*
%TD*%
%TO.C,Q12*%
X34730000Y68160000D03*
X37270000Y68160000D03*
%TD*%
%TO.C,Q13*%
X34730000Y58000000D03*
X37270000Y58000000D03*
%TD*%
%TO.C,Q14*%
X34730000Y47840000D03*
X37270000Y47840000D03*
%TD*%
%TO.C,Q15*%
X34730000Y37680000D03*
X37270000Y37680000D03*
%TD*%
%TO.C,Q16*%
X44890000Y78320000D03*
X47430000Y78320000D03*
%TD*%
%TO.C,Q17*%
X44890000Y68160000D03*
X47430000Y68160000D03*
%TD*%
%TO.C,Q18*%
X44890000Y58000000D03*
X47430000Y58000000D03*
%TD*%
%TO.C,Q19*%
X44890000Y47840000D03*
X47430000Y47840000D03*
%TD*%
%TO.C,Q20*%
X44890000Y37680000D03*
X47430000Y37680000D03*
%TD*%
%TO.C,Q21*%
X55050000Y78320000D03*
X57590000Y78320000D03*
%TD*%
%TO.C,Q22*%
X55050000Y68160000D03*
X57590000Y68160000D03*
%TD*%
%TO.C,Q23*%
X55050000Y58000000D03*
X57590000Y58000000D03*
%TD*%
%TO.C,Q24*%
X55050000Y47840000D03*
X57590000Y47840000D03*
%TD*%
%TO.C,Q25*%
X55050000Y37680000D03*
X57590000Y37680000D03*
%TD*%
%TO.C,J10*%
X66480000Y78320000D03*
D13*
X66480000Y75780000D03*
X66480000Y73240000D03*
%TD*%
D12*
%TO.C,D1*%
X19490000Y73240000D03*
X22030000Y73240000D03*
%TD*%
%TO.C,D2*%
X22030000Y63080000D03*
X19490000Y63080000D03*
%TD*%
%TO.C,D3*%
X22030000Y52920000D03*
X19490000Y52920000D03*
%TD*%
%TO.C,D4*%
X19490000Y42760000D03*
X22030000Y42760000D03*
%TD*%
%TO.C,D5*%
X29650000Y73240000D03*
X32190000Y73240000D03*
%TD*%
%TO.C,D6*%
X32190000Y63080000D03*
X29650000Y63080000D03*
%TD*%
%TO.C,D7*%
X29650000Y52920000D03*
X32190000Y52920000D03*
%TD*%
%TO.C,D8*%
X32190000Y42760000D03*
X29650000Y42760000D03*
%TD*%
%TO.C,D9*%
X39810000Y73240000D03*
X42350000Y73240000D03*
%TD*%
%TO.C,D10*%
X39810000Y63080000D03*
X42350000Y63080000D03*
%TD*%
%TO.C,D11*%
X42350000Y52920000D03*
X39810000Y52920000D03*
%TD*%
%TO.C,D12*%
X39810000Y42760000D03*
X42350000Y42760000D03*
%TD*%
%TO.C,D13*%
X52510000Y73240000D03*
X49970000Y73240000D03*
%TD*%
%TO.C,D14*%
X49970000Y63080000D03*
X52510000Y63080000D03*
%TD*%
%TO.C,D15*%
X52510000Y52920000D03*
X49970000Y52920000D03*
%TD*%
%TO.C,D16*%
X49970000Y42760000D03*
X52510000Y42760000D03*
%TD*%
%TO.C,D17*%
X16950000Y83400000D03*
X14410000Y83400000D03*
%TD*%
%TO.C,D18*%
X55050000Y83400000D03*
X57590000Y83400000D03*
%TD*%
%TO.C,D19*%
X55050000Y32600000D03*
X57590000Y32600000D03*
%TD*%
%TO.C,D20*%
X14410000Y32600000D03*
X16950000Y32600000D03*
%TD*%
%TO.C,D21*%
X22030000Y78320000D03*
X19490000Y78320000D03*
%TD*%
%TO.C,D22*%
X52510000Y78320000D03*
X49970000Y78320000D03*
%TD*%
%TO.C,D23*%
X49970000Y37680000D03*
X52510000Y37680000D03*
%TD*%
D14*
%TO.C,D24*%
X22030000Y37680000D03*
D12*
X19490000Y37680000D03*
%TD*%
%TO.C,D25*%
X11870000Y78320000D03*
X9330000Y78320000D03*
%TD*%
%TO.C,D26*%
X60130000Y78320000D03*
X62670000Y78320000D03*
%TD*%
%TO.C,D27*%
X62670000Y37680000D03*
X60130000Y37680000D03*
%TD*%
%TO.C,D28*%
X11870000Y37680000D03*
X9330000Y37680000D03*
%TD*%
M02*
