M48
; DRILL file {KiCad (5.1.8)-1} date 03/06/21 21:23:58
; FORMAT={-:-/ absolute / metric / decimal}
; #@! TF.CreationDate,2021-03-06T21:23:58+09:00
; #@! TF.GenerationSoftware,Kicad,Pcbnew,(5.1.8)-1
FMAT,2
METRIC
T1C0.400
T2C0.900
T3C1.000
T4C1.100
%
G90
G05
T1
X5.238Y53.604
X5.52Y68.16
X8.06Y24.98
X10.409Y80.554
X10.6Y4.66
X13.635Y25.3
X18.305Y43.909
X20.76Y32.6
X20.76Y76.752
X30.517Y44.94
X31.105Y51.944
X34.95Y75.945
X36.0Y85.94
X36.0Y4.66
X38.703Y50.231
X39.53Y46.842
X41.08Y37.68
X41.08Y32.6
X46.14Y75.628
X51.171Y48.081
X51.24Y46.042
X56.32Y73.24
X56.32Y63.08
X56.32Y52.92
X60.853Y40.098
X61.4Y19.9
X61.4Y4.66
X63.94Y63.08
T2
X22.03Y37.68
T3
X15.68Y22.44
X15.68Y19.9
X15.68Y17.36
X15.68Y14.82
X15.68Y12.28
X39.81Y42.76
X42.35Y42.76
X57.59Y58.0
X56.32Y22.44
X56.32Y19.9
X56.32Y17.36
X56.32Y14.82
X56.32Y12.28
X55.05Y32.6
X57.59Y32.6
X37.27Y37.68
X47.43Y58.0
X39.81Y52.92
X42.35Y52.92
X57.59Y37.68
X16.95Y78.32
X14.41Y83.4
X16.95Y83.4
X49.97Y42.76
X52.51Y42.76
X27.11Y78.32
X57.59Y68.16
X37.27Y47.84
X29.65Y73.24
X32.19Y73.24
X25.84Y22.44
X25.84Y19.9
X25.84Y17.36
X25.84Y14.82
X25.84Y12.28
X29.65Y52.92
X32.19Y52.92
X16.95Y47.84
X19.49Y73.24
X22.03Y73.24
X9.33Y78.32
X11.87Y78.32
X55.05Y83.4
X57.59Y83.4
X57.59Y78.32
X27.11Y37.68
X47.43Y78.32
X49.97Y73.24
X52.51Y73.24
X36.0Y22.44
X36.0Y19.9
X36.0Y17.36
X36.0Y14.82
X36.0Y12.28
X19.49Y52.92
X22.03Y52.92
X16.95Y58.0
X39.81Y63.08
X42.35Y63.08
X49.97Y37.68
X52.51Y37.68
X14.41Y32.6
X16.95Y32.6
X9.33Y37.68
X11.87Y37.68
X16.95Y37.68
X47.43Y37.68
X37.27Y68.16
X39.81Y73.24
X42.35Y73.24
X46.16Y22.44
X46.16Y19.9
X46.16Y17.36
X46.16Y14.82
X46.16Y12.28
X19.49Y42.76
X22.03Y42.76
X16.95Y68.16
X66.48Y78.32
X66.48Y75.78
X66.48Y73.24
X49.97Y78.32
X52.51Y78.32
X60.13Y37.68
X62.67Y37.68
X37.27Y78.32
X47.43Y47.84
X66.48Y42.76
X66.48Y40.22
X66.48Y37.68
X66.48Y35.14
X37.27Y58.0
X19.49Y63.08
X22.03Y63.08
X29.65Y63.08
X32.19Y63.08
X5.52Y78.32
X5.52Y75.78
X5.52Y73.24
X29.65Y42.76
X32.19Y42.76
X49.97Y52.92
X52.51Y52.92
X19.49Y37.68
X60.13Y78.32
X62.67Y78.32
X47.43Y68.16
X27.11Y47.84
X5.52Y42.76
X5.52Y40.22
X5.52Y37.68
X5.52Y35.14
X49.97Y63.08
X52.51Y63.08
X36.0Y9.74
X57.59Y47.84
X19.49Y78.32
X22.03Y78.32
X27.11Y58.0
X27.11Y68.16
T4
X14.41Y37.68
X44.89Y37.68
X34.73Y68.16
X14.41Y68.16
X34.73Y78.32
X44.89Y47.84
X34.73Y58.0
X44.89Y68.16
X24.57Y47.84
X55.05Y47.84
X24.57Y58.0
X24.57Y68.16
X55.05Y58.0
X34.73Y37.68
X44.89Y58.0
X55.05Y37.68
X14.41Y78.32
X24.57Y78.32
X55.05Y68.16
X34.73Y47.84
X14.41Y47.84
X55.05Y78.32
X24.57Y37.68
X44.89Y78.32
X14.41Y58.0
T0
M30
