%TF.GenerationSoftware,KiCad,Pcbnew,(5.1.8)-1*%
%TF.CreationDate,2021-03-06T21:23:55+09:00*%
%TF.ProjectId,line_sensor,6c696e65-5f73-4656-9e73-6f722e6b6963,rev?*%
%TF.SameCoordinates,PX94c5f00PY876bf80*%
%TF.FileFunction,Legend,Top*%
%TF.FilePolarity,Positive*%
%FSLAX46Y46*%
G04 Gerber Fmt 4.6, Leading zero omitted, Abs format (unit mm)*
G04 Created by KiCad (PCBNEW (5.1.8)-1) date 2021-03-06 21:23:55*
%MOMM*%
%LPD*%
G01*
G04 APERTURE LIST*
%ADD10C,0.120000*%
%ADD11C,0.200000*%
%ADD12C,1.700000*%
%ADD13O,1.700000X1.700000*%
%ADD14C,1.800000*%
%ADD15R,1.050000X1.800000*%
G04 APERTURE END LIST*
D10*
X6790000Y79590000D02*
X4250000Y79590000D01*
X6790000Y71970000D02*
X6790000Y79590000D01*
X4250000Y71970000D02*
X6790000Y71970000D01*
X4250000Y79590000D02*
X4250000Y71970000D01*
X6790000Y44030000D02*
X4250000Y44030000D01*
X6790000Y33870000D02*
X6790000Y44030000D01*
X4250000Y33870000D02*
X6790000Y33870000D01*
X4250000Y44030000D02*
X4250000Y33870000D01*
X67750000Y44030000D02*
X65210000Y44030000D01*
X67750000Y33870000D02*
X67750000Y44030000D01*
X65210000Y33870000D02*
X67750000Y33870000D01*
X65210000Y44030000D02*
X65210000Y33870000D01*
X57590000Y23710000D02*
X55050000Y23710000D01*
X57590000Y11010000D02*
X57590000Y23710000D01*
X55050000Y11010000D02*
X57590000Y11010000D01*
X55050000Y23710000D02*
X55050000Y11010000D01*
X47430000Y23710000D02*
X44890000Y23710000D01*
X47430000Y11010000D02*
X47430000Y23710000D01*
X44890000Y11010000D02*
X47430000Y11010000D01*
X44890000Y23710000D02*
X44890000Y11010000D01*
X37270000Y23710000D02*
X34730000Y23710000D01*
X37270000Y8470000D02*
X37270000Y23710000D01*
X34730000Y8470000D02*
X37270000Y8470000D01*
X34730000Y23710000D02*
X34730000Y8470000D01*
X27110000Y23710000D02*
X24570000Y23710000D01*
X27110000Y11010000D02*
X27110000Y23710000D01*
X24570000Y11010000D02*
X27110000Y11010000D01*
X24570000Y23710000D02*
X24570000Y11010000D01*
X16950000Y23710000D02*
X14410000Y23710000D01*
X16950000Y11010000D02*
X16950000Y23710000D01*
X14410000Y11010000D02*
X16950000Y11010000D01*
X14410000Y23710000D02*
X14410000Y11010000D01*
X67750000Y79590000D02*
X65210000Y79590000D01*
X67750000Y71970000D02*
X67750000Y79590000D01*
X65210000Y71970000D02*
X67750000Y71970000D01*
X65210000Y79590000D02*
X65210000Y71970000D01*
D11*
%TO.C,R1*%
X20760000Y76480000D02*
X20760000Y75080000D01*
%TO.C,R2*%
X20760000Y66320000D02*
X20760000Y64920000D01*
%TO.C,R3*%
X20760000Y56160000D02*
X20760000Y54760000D01*
%TO.C,R4*%
X20760000Y46000000D02*
X20760000Y44600000D01*
%TO.C,R5*%
X30920000Y76480000D02*
X30920000Y75080000D01*
%TO.C,R6*%
X30920000Y66320000D02*
X30920000Y64920000D01*
%TO.C,R7*%
X30920000Y56160000D02*
X30920000Y54760000D01*
%TO.C,R8*%
X30920000Y46000000D02*
X30920000Y44600000D01*
%TO.C,R9*%
X41080000Y76480000D02*
X41080000Y75080000D01*
%TO.C,R10*%
X41080000Y66320000D02*
X41080000Y64920000D01*
%TO.C,R11*%
X41080000Y56160000D02*
X41080000Y54760000D01*
%TO.C,R12*%
X41080000Y46000000D02*
X41080000Y44600000D01*
%TO.C,R13*%
X51240000Y76480000D02*
X51240000Y75080000D01*
%TO.C,R14*%
X51240000Y66320000D02*
X51240000Y64920000D01*
%TO.C,R15*%
X51240000Y56160000D02*
X51240000Y54760000D01*
%TO.C,R16*%
X51240000Y46000000D02*
X51240000Y44600000D01*
%TO.C,R17*%
X15680000Y86640000D02*
X15680000Y85240000D01*
%TO.C,R18*%
X56320000Y86640000D02*
X56320000Y85240000D01*
%TO.C,R19*%
X56320000Y30760000D02*
X56320000Y29360000D01*
%TO.C,R20*%
X15680000Y30760000D02*
X15680000Y29360000D01*
%TO.C,R21*%
X20760000Y81560000D02*
X20760000Y80160000D01*
%TO.C,R22*%
X51240000Y81560000D02*
X51240000Y80160000D01*
%TO.C,R23*%
X51240000Y35840000D02*
X51240000Y34440000D01*
%TO.C,R24*%
X20760000Y35840000D02*
X20760000Y34440000D01*
%TO.C,R25*%
X10600000Y81560000D02*
X10600000Y80160000D01*
%TO.C,R26*%
X61400000Y81560000D02*
X61400000Y80160000D01*
%TO.C,R27*%
X61400000Y35840000D02*
X61400000Y34440000D01*
%TO.C,R28*%
X10600000Y35840000D02*
X10600000Y34440000D01*
%TO.C,R29*%
X15680000Y76480000D02*
X15680000Y75080000D01*
%TO.C,R30*%
X15680000Y71400000D02*
X15680000Y70000000D01*
%TO.C,R31*%
X15680000Y61240000D02*
X15680000Y59840000D01*
%TO.C,R32*%
X15680000Y51080000D02*
X15680000Y49680000D01*
%TO.C,R33*%
X15680000Y40920000D02*
X15680000Y39520000D01*
%TO.C,R34*%
X25840000Y81560000D02*
X25840000Y80160000D01*
%TO.C,R35*%
X25840000Y71400000D02*
X25840000Y70000000D01*
%TO.C,R36*%
X25840000Y61240000D02*
X25840000Y59840000D01*
%TO.C,R37*%
X25840000Y51080000D02*
X25840000Y49680000D01*
%TO.C,R38*%
X25840000Y40920000D02*
X25840000Y39520000D01*
%TO.C,R39*%
X36000000Y81560000D02*
X36000000Y80160000D01*
%TO.C,R40*%
X36000000Y71400000D02*
X36000000Y70000000D01*
%TO.C,R41*%
X36000000Y61240000D02*
X36000000Y59840000D01*
%TO.C,R42*%
X36000000Y51080000D02*
X36000000Y49680000D01*
%TO.C,R43*%
X36000000Y40920000D02*
X36000000Y39520000D01*
%TO.C,R44*%
X46160000Y81560000D02*
X46160000Y80160000D01*
%TO.C,R45*%
X46160000Y71400000D02*
X46160000Y70000000D01*
%TO.C,R46*%
X46160000Y61240000D02*
X46160000Y59840000D01*
%TO.C,R47*%
X46160000Y51080000D02*
X46160000Y49680000D01*
%TO.C,R48*%
X46160000Y40920000D02*
X46160000Y39520000D01*
%TO.C,R49*%
X56320000Y76480000D02*
X56320000Y75080000D01*
%TO.C,R50*%
X56320000Y71400000D02*
X56320000Y70000000D01*
%TO.C,R51*%
X56320000Y61240000D02*
X56320000Y59840000D01*
%TO.C,R52*%
X56320000Y51080000D02*
X56320000Y49680000D01*
%TO.C,R53*%
X56320000Y40920000D02*
X56320000Y39520000D01*
%TD*%
%LPC*%
D12*
%TO.C,J8*%
X56320000Y12280000D03*
D13*
X56320000Y14820000D03*
X56320000Y17360000D03*
X56320000Y19900000D03*
X56320000Y22440000D03*
%TD*%
D12*
%TO.C,J7*%
X46160000Y12280000D03*
D13*
X46160000Y14820000D03*
X46160000Y17360000D03*
X46160000Y19900000D03*
X46160000Y22440000D03*
%TD*%
D12*
%TO.C,J1*%
X36000000Y9740000D03*
%TD*%
%TO.C,J6*%
X36000000Y12280000D03*
D13*
X36000000Y14820000D03*
X36000000Y17360000D03*
X36000000Y19900000D03*
X36000000Y22440000D03*
%TD*%
%TO.C,J5*%
X25840000Y22440000D03*
X25840000Y19900000D03*
X25840000Y17360000D03*
X25840000Y14820000D03*
D12*
X25840000Y12280000D03*
%TD*%
%TO.C,J2*%
X15680000Y12280000D03*
D13*
X15680000Y14820000D03*
X15680000Y17360000D03*
X15680000Y19900000D03*
X15680000Y22440000D03*
%TD*%
D12*
%TO.C,J3*%
X66480000Y35140000D03*
D13*
X66480000Y37680000D03*
X66480000Y40220000D03*
X66480000Y42760000D03*
%TD*%
%TO.C,J4*%
X5520000Y35140000D03*
X5520000Y37680000D03*
X5520000Y40220000D03*
D12*
X5520000Y42760000D03*
%TD*%
D13*
%TO.C,J9*%
X5520000Y73240000D03*
X5520000Y75780000D03*
D12*
X5520000Y78320000D03*
%TD*%
%TO.C,Q1*%
X14410000Y78320000D03*
X16950000Y78320000D03*
%TD*%
%TO.C,Q2*%
X14410000Y68160000D03*
X16950000Y68160000D03*
%TD*%
%TO.C,Q3*%
X14410000Y58000000D03*
X16950000Y58000000D03*
%TD*%
%TO.C,Q4*%
X14410000Y47840000D03*
X16950000Y47840000D03*
%TD*%
%TO.C,Q5*%
X14410000Y37680000D03*
X16950000Y37680000D03*
%TD*%
%TO.C,Q6*%
X24570000Y78320000D03*
X27110000Y78320000D03*
%TD*%
%TO.C,Q7*%
X24570000Y68160000D03*
X27110000Y68160000D03*
%TD*%
%TO.C,Q8*%
X24570000Y58000000D03*
X27110000Y58000000D03*
%TD*%
%TO.C,Q9*%
X24570000Y47840000D03*
X27110000Y47840000D03*
%TD*%
%TO.C,Q10*%
X24570000Y37680000D03*
X27110000Y37680000D03*
%TD*%
%TO.C,Q11*%
X34730000Y78320000D03*
X37270000Y78320000D03*
%TD*%
%TO.C,Q12*%
X34730000Y68160000D03*
X37270000Y68160000D03*
%TD*%
%TO.C,Q13*%
X34730000Y58000000D03*
X37270000Y58000000D03*
%TD*%
%TO.C,Q14*%
X34730000Y47840000D03*
X37270000Y47840000D03*
%TD*%
%TO.C,Q15*%
X34730000Y37680000D03*
X37270000Y37680000D03*
%TD*%
%TO.C,Q16*%
X44890000Y78320000D03*
X47430000Y78320000D03*
%TD*%
%TO.C,Q17*%
X44890000Y68160000D03*
X47430000Y68160000D03*
%TD*%
%TO.C,Q18*%
X44890000Y58000000D03*
X47430000Y58000000D03*
%TD*%
%TO.C,Q19*%
X44890000Y47840000D03*
X47430000Y47840000D03*
%TD*%
%TO.C,Q20*%
X44890000Y37680000D03*
X47430000Y37680000D03*
%TD*%
%TO.C,Q21*%
X55050000Y78320000D03*
X57590000Y78320000D03*
%TD*%
%TO.C,Q22*%
X55050000Y68160000D03*
X57590000Y68160000D03*
%TD*%
%TO.C,Q23*%
X55050000Y58000000D03*
X57590000Y58000000D03*
%TD*%
%TO.C,Q24*%
X55050000Y47840000D03*
X57590000Y47840000D03*
%TD*%
%TO.C,Q25*%
X55050000Y37680000D03*
X57590000Y37680000D03*
%TD*%
%TO.C,J10*%
X66480000Y78320000D03*
D13*
X66480000Y75780000D03*
X66480000Y73240000D03*
%TD*%
D12*
%TO.C,D1*%
X19490000Y73240000D03*
X22030000Y73240000D03*
%TD*%
%TO.C,D2*%
X22030000Y63080000D03*
X19490000Y63080000D03*
%TD*%
%TO.C,D3*%
X22030000Y52920000D03*
X19490000Y52920000D03*
%TD*%
%TO.C,D4*%
X19490000Y42760000D03*
X22030000Y42760000D03*
%TD*%
%TO.C,D5*%
X29650000Y73240000D03*
X32190000Y73240000D03*
%TD*%
%TO.C,D6*%
X32190000Y63080000D03*
X29650000Y63080000D03*
%TD*%
%TO.C,D7*%
X29650000Y52920000D03*
X32190000Y52920000D03*
%TD*%
%TO.C,D8*%
X32190000Y42760000D03*
X29650000Y42760000D03*
%TD*%
%TO.C,D9*%
X39810000Y73240000D03*
X42350000Y73240000D03*
%TD*%
%TO.C,D10*%
X39810000Y63080000D03*
X42350000Y63080000D03*
%TD*%
%TO.C,D11*%
X42350000Y52920000D03*
X39810000Y52920000D03*
%TD*%
%TO.C,D12*%
X39810000Y42760000D03*
X42350000Y42760000D03*
%TD*%
%TO.C,D13*%
X52510000Y73240000D03*
X49970000Y73240000D03*
%TD*%
%TO.C,D14*%
X49970000Y63080000D03*
X52510000Y63080000D03*
%TD*%
%TO.C,D15*%
X52510000Y52920000D03*
X49970000Y52920000D03*
%TD*%
%TO.C,D16*%
X49970000Y42760000D03*
X52510000Y42760000D03*
%TD*%
%TO.C,D17*%
X16950000Y83400000D03*
X14410000Y83400000D03*
%TD*%
%TO.C,D18*%
X55050000Y83400000D03*
X57590000Y83400000D03*
%TD*%
%TO.C,D19*%
X55050000Y32600000D03*
X57590000Y32600000D03*
%TD*%
%TO.C,D20*%
X14410000Y32600000D03*
X16950000Y32600000D03*
%TD*%
%TO.C,D21*%
X22030000Y78320000D03*
X19490000Y78320000D03*
%TD*%
%TO.C,D22*%
X52510000Y78320000D03*
X49970000Y78320000D03*
%TD*%
%TO.C,D23*%
X49970000Y37680000D03*
X52510000Y37680000D03*
%TD*%
D14*
%TO.C,D24*%
X22030000Y37680000D03*
D12*
X19490000Y37680000D03*
%TD*%
%TO.C,D25*%
X11870000Y78320000D03*
X9330000Y78320000D03*
%TD*%
%TO.C,D26*%
X60130000Y78320000D03*
X62670000Y78320000D03*
%TD*%
%TO.C,D27*%
X62670000Y37680000D03*
X60130000Y37680000D03*
%TD*%
%TO.C,D28*%
X11870000Y37680000D03*
X9330000Y37680000D03*
%TD*%
D15*
%TO.C,R1*%
X22310000Y75780000D03*
X19210000Y75780000D03*
%TD*%
%TO.C,R2*%
X19210000Y65620000D03*
X22310000Y65620000D03*
%TD*%
%TO.C,R3*%
X22310000Y55460000D03*
X19210000Y55460000D03*
%TD*%
%TO.C,R4*%
X19210000Y45300000D03*
X22310000Y45300000D03*
%TD*%
%TO.C,R5*%
X32470000Y75780000D03*
X29370000Y75780000D03*
%TD*%
%TO.C,R6*%
X29370000Y65620000D03*
X32470000Y65620000D03*
%TD*%
%TO.C,R7*%
X32470000Y55460000D03*
X29370000Y55460000D03*
%TD*%
%TO.C,R8*%
X29370000Y45300000D03*
X32470000Y45300000D03*
%TD*%
%TO.C,R9*%
X42630000Y75780000D03*
X39530000Y75780000D03*
%TD*%
%TO.C,R10*%
X39530000Y65620000D03*
X42630000Y65620000D03*
%TD*%
%TO.C,R11*%
X42630000Y55460000D03*
X39530000Y55460000D03*
%TD*%
%TO.C,R12*%
X39530000Y45300000D03*
X42630000Y45300000D03*
%TD*%
%TO.C,R13*%
X52790000Y75780000D03*
X49690000Y75780000D03*
%TD*%
%TO.C,R14*%
X49690000Y65620000D03*
X52790000Y65620000D03*
%TD*%
%TO.C,R15*%
X49690000Y55460000D03*
X52790000Y55460000D03*
%TD*%
%TO.C,R16*%
X52790000Y45300000D03*
X49690000Y45300000D03*
%TD*%
%TO.C,R17*%
X14130000Y85940000D03*
X17230000Y85940000D03*
%TD*%
%TO.C,R18*%
X57870000Y85940000D03*
X54770000Y85940000D03*
%TD*%
%TO.C,R19*%
X54770000Y30060000D03*
X57870000Y30060000D03*
%TD*%
%TO.C,R20*%
X17230000Y30060000D03*
X14130000Y30060000D03*
%TD*%
%TO.C,R21*%
X19210000Y80860000D03*
X22310000Y80860000D03*
%TD*%
%TO.C,R22*%
X52790000Y80860000D03*
X49690000Y80860000D03*
%TD*%
%TO.C,R23*%
X49690000Y35140000D03*
X52790000Y35140000D03*
%TD*%
%TO.C,R24*%
X22310000Y35140000D03*
X19210000Y35140000D03*
%TD*%
%TO.C,R25*%
X9050000Y80860000D03*
X12150000Y80860000D03*
%TD*%
%TO.C,R26*%
X62950000Y80860000D03*
X59850000Y80860000D03*
%TD*%
%TO.C,R27*%
X59850000Y35140000D03*
X62950000Y35140000D03*
%TD*%
%TO.C,R28*%
X12150000Y35140000D03*
X9050000Y35140000D03*
%TD*%
%TO.C,R29*%
X17230000Y75780000D03*
X14130000Y75780000D03*
%TD*%
%TO.C,R30*%
X14130000Y70700000D03*
X17230000Y70700000D03*
%TD*%
%TO.C,R31*%
X14130000Y60540000D03*
X17230000Y60540000D03*
%TD*%
%TO.C,R32*%
X17230000Y50380000D03*
X14130000Y50380000D03*
%TD*%
%TO.C,R33*%
X14130000Y40220000D03*
X17230000Y40220000D03*
%TD*%
%TO.C,R34*%
X24290000Y80860000D03*
X27390000Y80860000D03*
%TD*%
%TO.C,R35*%
X24290000Y70700000D03*
X27390000Y70700000D03*
%TD*%
%TO.C,R36*%
X27390000Y60540000D03*
X24290000Y60540000D03*
%TD*%
%TO.C,R37*%
X27390000Y50380000D03*
X24290000Y50380000D03*
%TD*%
%TO.C,R38*%
X24290000Y40220000D03*
X27390000Y40220000D03*
%TD*%
%TO.C,R39*%
X37550000Y80860000D03*
X34450000Y80860000D03*
%TD*%
%TO.C,R40*%
X34450000Y70700000D03*
X37550000Y70700000D03*
%TD*%
%TO.C,R41*%
X37550000Y60540000D03*
X34450000Y60540000D03*
%TD*%
%TO.C,R42*%
X34450000Y50380000D03*
X37550000Y50380000D03*
%TD*%
%TO.C,R43*%
X37550000Y40220000D03*
X34450000Y40220000D03*
%TD*%
%TO.C,R44*%
X44610000Y80860000D03*
X47710000Y80860000D03*
%TD*%
%TO.C,R45*%
X47710000Y70700000D03*
X44610000Y70700000D03*
%TD*%
%TO.C,R46*%
X44610000Y60540000D03*
X47710000Y60540000D03*
%TD*%
%TO.C,R47*%
X47710000Y50380000D03*
X44610000Y50380000D03*
%TD*%
%TO.C,R48*%
X44610000Y40220000D03*
X47710000Y40220000D03*
%TD*%
%TO.C,R49*%
X57870000Y75780000D03*
X54770000Y75780000D03*
%TD*%
%TO.C,R50*%
X54770000Y70700000D03*
X57870000Y70700000D03*
%TD*%
%TO.C,R51*%
X57870000Y60540000D03*
X54770000Y60540000D03*
%TD*%
%TO.C,R52*%
X54770000Y50380000D03*
X57870000Y50380000D03*
%TD*%
%TO.C,R53*%
X57870000Y40220000D03*
X54770000Y40220000D03*
%TD*%
M02*
