G04 #@! TF.GenerationSoftware,KiCad,Pcbnew,(5.1.8)-1*
G04 #@! TF.CreationDate,2021-05-15T16:38:38+09:00*
G04 #@! TF.ProjectId,test,74657374-2e6b-4696-9361-645f70636258,rev?*
G04 #@! TF.SameCoordinates,PX4c4b400PY8954400*
G04 #@! TF.FileFunction,Soldermask,Top*
G04 #@! TF.FilePolarity,Negative*
%FSLAX46Y46*%
G04 Gerber Fmt 4.6, Leading zero omitted, Abs format (unit mm)*
G04 Created by KiCad (PCBNEW (5.1.8)-1) date 2021-05-15 16:38:38*
%MOMM*%
%LPD*%
G01*
G04 APERTURE LIST*
%ADD10C,2.550000*%
%ADD11O,1.700000X2.000000*%
%ADD12R,2.000000X2.500000*%
%ADD13R,6.000000X6.000000*%
%ADD14O,1.700000X1.700000*%
%ADD15R,1.700000X1.700000*%
%ADD16O,2.000000X1.700000*%
%ADD17O,2.400000X2.400000*%
%ADD18R,2.400000X2.400000*%
%ADD19C,1.635000*%
%ADD20C,1.700000*%
%ADD21O,1.700000X1.950000*%
%ADD22C,1.400000*%
%ADD23O,1.950000X1.700000*%
%ADD24C,1.800000*%
%ADD25R,1.800000X1.800000*%
%ADD26O,1.600000X1.600000*%
%ADD27C,1.600000*%
G04 APERTURE END LIST*
D10*
X93145000Y28525000D03*
X93145000Y35225000D03*
D11*
X91915000Y22810000D03*
G36*
G01*
X95265000Y23560000D02*
X95265000Y22060000D01*
G75*
G02*
X95015000Y21810000I-250000J0D01*
G01*
X93815000Y21810000D01*
G75*
G02*
X93565000Y22060000I0J250000D01*
G01*
X93565000Y23560000D01*
G75*
G02*
X93815000Y23810000I250000J0D01*
G01*
X95015000Y23810000D01*
G75*
G02*
X95265000Y23560000I0J-250000D01*
G01*
G37*
D12*
X83225000Y36535000D03*
X87825000Y36535000D03*
D13*
X85525000Y30335000D03*
D14*
X77905000Y24080000D03*
D15*
X77905000Y21540000D03*
G36*
G01*
X86250000Y50154000D02*
X84750000Y50154000D01*
G75*
G02*
X84500000Y50404000I0J250000D01*
G01*
X84500000Y51604000D01*
G75*
G02*
X84750000Y51854000I250000J0D01*
G01*
X86250000Y51854000D01*
G75*
G02*
X86500000Y51604000I0J-250000D01*
G01*
X86500000Y50404000D01*
G75*
G02*
X86250000Y50154000I-250000J0D01*
G01*
G37*
D16*
X85500000Y53504000D03*
D17*
X79175000Y49480000D03*
D18*
X79175000Y34240000D03*
D10*
X93145000Y55195000D03*
X93145000Y48495000D03*
D19*
X86795000Y22810000D03*
X84255000Y22810000D03*
X81715000Y22810000D03*
D16*
X85525000Y44360000D03*
G36*
G01*
X86275000Y41010000D02*
X84775000Y41010000D01*
G75*
G02*
X84525000Y41260000I0J250000D01*
G01*
X84525000Y42460000D01*
G75*
G02*
X84775000Y42710000I250000J0D01*
G01*
X86275000Y42710000D01*
G75*
G02*
X86525000Y42460000I0J-250000D01*
G01*
X86525000Y41260000D01*
G75*
G02*
X86275000Y41010000I-250000J0D01*
G01*
G37*
D10*
X93145000Y69525000D03*
X93145000Y76225000D03*
D11*
X91915000Y63810000D03*
G36*
G01*
X95265000Y64560000D02*
X95265000Y63060000D01*
G75*
G02*
X95015000Y62810000I-250000J0D01*
G01*
X93815000Y62810000D01*
G75*
G02*
X93565000Y63060000I0J250000D01*
G01*
X93565000Y64560000D01*
G75*
G02*
X93815000Y64810000I250000J0D01*
G01*
X95015000Y64810000D01*
G75*
G02*
X95265000Y64560000I0J-250000D01*
G01*
G37*
D12*
X83225000Y77535000D03*
X87825000Y77535000D03*
D13*
X85525000Y71335000D03*
D14*
X77905000Y65080000D03*
D15*
X77905000Y62540000D03*
G36*
G01*
X86250000Y91154000D02*
X84750000Y91154000D01*
G75*
G02*
X84500000Y91404000I0J250000D01*
G01*
X84500000Y92604000D01*
G75*
G02*
X84750000Y92854000I250000J0D01*
G01*
X86250000Y92854000D01*
G75*
G02*
X86500000Y92604000I0J-250000D01*
G01*
X86500000Y91404000D01*
G75*
G02*
X86250000Y91154000I-250000J0D01*
G01*
G37*
D16*
X85500000Y94504000D03*
D17*
X79175000Y90480000D03*
D18*
X79175000Y75240000D03*
D10*
X93145000Y96195000D03*
X93145000Y89495000D03*
D19*
X86795000Y63810000D03*
X84255000Y63810000D03*
X81715000Y63810000D03*
D16*
X85525000Y85360000D03*
G36*
G01*
X86275000Y82010000D02*
X84775000Y82010000D01*
G75*
G02*
X84525000Y82260000I0J250000D01*
G01*
X84525000Y83460000D01*
G75*
G02*
X84775000Y83710000I250000J0D01*
G01*
X86275000Y83710000D01*
G75*
G02*
X86525000Y83460000I0J-250000D01*
G01*
X86525000Y82260000D01*
G75*
G02*
X86275000Y82010000I-250000J0D01*
G01*
G37*
D20*
X52300000Y52000000D03*
X49700000Y52000000D03*
X44000000Y64050000D03*
X51620000Y64050000D03*
X49900000Y68050000D03*
X52500000Y68050000D03*
X49700000Y36000000D03*
X52300000Y36000000D03*
X46540000Y68050000D03*
X44000000Y68050000D03*
X44000000Y60000000D03*
X46540000Y60000000D03*
X46540000Y52000000D03*
X44000000Y52000000D03*
X51620000Y56000000D03*
X44000000Y56000000D03*
X44000000Y36000000D03*
X46540000Y36000000D03*
X52600000Y60050000D03*
X50000000Y60050000D03*
G36*
G01*
X51350000Y88725000D02*
X51350000Y87275000D01*
G75*
G02*
X51100000Y87025000I-250000J0D01*
G01*
X49900000Y87025000D01*
G75*
G02*
X49650000Y87275000I0J250000D01*
G01*
X49650000Y88725000D01*
G75*
G02*
X49900000Y88975000I250000J0D01*
G01*
X51100000Y88975000D01*
G75*
G02*
X51350000Y88725000I0J-250000D01*
G01*
G37*
D21*
X48000000Y88000000D03*
X45500000Y88000000D03*
X45500000Y81000000D03*
X48000000Y81000000D03*
G36*
G01*
X51350000Y81725000D02*
X51350000Y80275000D01*
G75*
G02*
X51100000Y80025000I-250000J0D01*
G01*
X49900000Y80025000D01*
G75*
G02*
X49650000Y80275000I0J250000D01*
G01*
X49650000Y81725000D01*
G75*
G02*
X49900000Y81975000I250000J0D01*
G01*
X51100000Y81975000D01*
G75*
G02*
X51350000Y81725000I0J-250000D01*
G01*
G37*
D20*
X44000000Y32000000D03*
X51620000Y32000000D03*
X44000000Y28000000D03*
X46540000Y28000000D03*
X44000000Y24000000D03*
X51620000Y24000000D03*
X52300000Y28000000D03*
X49700000Y28000000D03*
X51620000Y48000000D03*
X44000000Y48000000D03*
D22*
X45460000Y74530000D03*
X48000000Y77070000D03*
X50540000Y74530000D03*
X50540000Y42530000D03*
X48000000Y45070000D03*
X45460000Y42530000D03*
D20*
X44000000Y7700000D03*
X44000000Y10300000D03*
X38000000Y2000000D03*
X38000000Y9620000D03*
X34000000Y2000000D03*
X34000000Y4540000D03*
X24000000Y4540000D03*
X24000000Y2000000D03*
D23*
X11000000Y3500000D03*
X11000000Y6000000D03*
G36*
G01*
X10275000Y9350000D02*
X11725000Y9350000D01*
G75*
G02*
X11975000Y9100000I0J-250000D01*
G01*
X11975000Y7900000D01*
G75*
G02*
X11725000Y7650000I-250000J0D01*
G01*
X10275000Y7650000D01*
G75*
G02*
X10025000Y7900000I0J250000D01*
G01*
X10025000Y9100000D01*
G75*
G02*
X10275000Y9350000I250000J0D01*
G01*
G37*
D20*
X48000000Y9620000D03*
X48000000Y2000000D03*
X28000000Y9620000D03*
X28000000Y2000000D03*
X34000000Y10300000D03*
X34000000Y7700000D03*
X24000000Y7700000D03*
X24000000Y10300000D03*
X44000000Y4540000D03*
X44000000Y2000000D03*
D22*
X17470000Y3460000D03*
X14930000Y6000000D03*
X17470000Y8540000D03*
D24*
X65440000Y62500000D03*
D25*
X62900000Y62500000D03*
X62900000Y33500000D03*
D24*
X65440000Y33500000D03*
D23*
X70000000Y86000000D03*
X70000000Y83500000D03*
G36*
G01*
X70725000Y80150000D02*
X69275000Y80150000D01*
G75*
G02*
X69025000Y80400000I0J250000D01*
G01*
X69025000Y81600000D01*
G75*
G02*
X69275000Y81850000I250000J0D01*
G01*
X70725000Y81850000D01*
G75*
G02*
X70975000Y81600000I0J-250000D01*
G01*
X70975000Y80400000D01*
G75*
G02*
X70725000Y80150000I-250000J0D01*
G01*
G37*
D24*
X65440000Y81500000D03*
D25*
X62900000Y81500000D03*
D24*
X65440000Y38500000D03*
D25*
X62900000Y38500000D03*
X62900000Y86500000D03*
D24*
X65440000Y86500000D03*
D25*
X62900000Y57500000D03*
D24*
X65440000Y57500000D03*
D20*
X57600000Y62500000D03*
X60200000Y62500000D03*
X60200000Y81500000D03*
X57600000Y81500000D03*
X57600000Y86500000D03*
X60200000Y86500000D03*
D23*
X70000000Y38000000D03*
X70000000Y35500000D03*
G36*
G01*
X70725000Y32150000D02*
X69275000Y32150000D01*
G75*
G02*
X69025000Y32400000I0J250000D01*
G01*
X69025000Y33600000D01*
G75*
G02*
X69275000Y33850000I250000J0D01*
G01*
X70725000Y33850000D01*
G75*
G02*
X70975000Y33600000I0J-250000D01*
G01*
X70975000Y32400000D01*
G75*
G02*
X70725000Y32150000I-250000J0D01*
G01*
G37*
G36*
G01*
X70725000Y56150000D02*
X69275000Y56150000D01*
G75*
G02*
X69025000Y56400000I0J250000D01*
G01*
X69025000Y57600000D01*
G75*
G02*
X69275000Y57850000I250000J0D01*
G01*
X70725000Y57850000D01*
G75*
G02*
X70975000Y57600000I0J-250000D01*
G01*
X70975000Y56400000D01*
G75*
G02*
X70725000Y56150000I-250000J0D01*
G01*
G37*
X70000000Y59500000D03*
X70000000Y62000000D03*
D26*
X65400000Y45880000D03*
D27*
X65400000Y53500000D03*
D20*
X57600000Y38500000D03*
X60200000Y38500000D03*
D26*
X65400000Y22380000D03*
D27*
X65400000Y30000000D03*
D22*
X62440000Y26030000D03*
X59900000Y28570000D03*
X57360000Y26030000D03*
D20*
X60200000Y33500000D03*
X57600000Y33500000D03*
D22*
X62440000Y49530000D03*
X59900000Y52070000D03*
X57360000Y49530000D03*
X57360000Y73530000D03*
X59900000Y76070000D03*
X62440000Y73530000D03*
D26*
X58280000Y43000000D03*
D27*
X65900000Y43000000D03*
X65400000Y77500000D03*
D26*
X65400000Y69880000D03*
D27*
X65900000Y67000000D03*
D26*
X58280000Y67000000D03*
D27*
X65900000Y90500000D03*
D26*
X58280000Y90500000D03*
D20*
X60200000Y57500000D03*
X57600000Y57500000D03*
X30000000Y52000000D03*
X32540000Y52000000D03*
X36000000Y60050000D03*
X38600000Y60050000D03*
X30000000Y68050000D03*
X32540000Y68050000D03*
X38500000Y68050000D03*
X35900000Y68050000D03*
X32540000Y36000000D03*
X30000000Y36000000D03*
X30000000Y56000000D03*
X37620000Y56000000D03*
X32540000Y60000000D03*
X30000000Y60000000D03*
X37620000Y64050000D03*
X30000000Y64050000D03*
X35700000Y52000000D03*
X38300000Y52000000D03*
X38300000Y36000000D03*
X35700000Y36000000D03*
X30000000Y48000000D03*
X37620000Y48000000D03*
G36*
G01*
X37350000Y81725000D02*
X37350000Y80275000D01*
G75*
G02*
X37100000Y80025000I-250000J0D01*
G01*
X35900000Y80025000D01*
G75*
G02*
X35650000Y80275000I0J250000D01*
G01*
X35650000Y81725000D01*
G75*
G02*
X35900000Y81975000I250000J0D01*
G01*
X37100000Y81975000D01*
G75*
G02*
X37350000Y81725000I0J-250000D01*
G01*
G37*
D21*
X34000000Y81000000D03*
X31500000Y81000000D03*
D22*
X36540000Y74530000D03*
X34000000Y77070000D03*
X31460000Y74530000D03*
D20*
X35700000Y28000000D03*
X38300000Y28000000D03*
D22*
X31460000Y42530000D03*
X34000000Y45070000D03*
X36540000Y42530000D03*
D21*
X31500000Y88000000D03*
X34000000Y88000000D03*
G36*
G01*
X37350000Y88725000D02*
X37350000Y87275000D01*
G75*
G02*
X37100000Y87025000I-250000J0D01*
G01*
X35900000Y87025000D01*
G75*
G02*
X35650000Y87275000I0J250000D01*
G01*
X35650000Y88725000D01*
G75*
G02*
X35900000Y88975000I250000J0D01*
G01*
X37100000Y88975000D01*
G75*
G02*
X37350000Y88725000I0J-250000D01*
G01*
G37*
D20*
X37620000Y24000000D03*
X30000000Y24000000D03*
X32540000Y28000000D03*
X30000000Y28000000D03*
X37620000Y32000000D03*
X30000000Y32000000D03*
X16000000Y52000000D03*
X18540000Y52000000D03*
X22000000Y60050000D03*
X24600000Y60050000D03*
X16000000Y68050000D03*
X18540000Y68050000D03*
X24500000Y68050000D03*
X21900000Y68050000D03*
X18540000Y36000000D03*
X16000000Y36000000D03*
X16000000Y56000000D03*
X23620000Y56000000D03*
X18540000Y60000000D03*
X16000000Y60000000D03*
X23620000Y64050000D03*
X16000000Y64050000D03*
X21700000Y52000000D03*
X24300000Y52000000D03*
X24300000Y36000000D03*
X21700000Y36000000D03*
X16000000Y48000000D03*
X23620000Y48000000D03*
G36*
G01*
X23350000Y81725000D02*
X23350000Y80275000D01*
G75*
G02*
X23100000Y80025000I-250000J0D01*
G01*
X21900000Y80025000D01*
G75*
G02*
X21650000Y80275000I0J250000D01*
G01*
X21650000Y81725000D01*
G75*
G02*
X21900000Y81975000I250000J0D01*
G01*
X23100000Y81975000D01*
G75*
G02*
X23350000Y81725000I0J-250000D01*
G01*
G37*
D21*
X20000000Y81000000D03*
X17500000Y81000000D03*
D22*
X22540000Y74530000D03*
X20000000Y77070000D03*
X17460000Y74530000D03*
D20*
X21700000Y28000000D03*
X24300000Y28000000D03*
D22*
X17460000Y42530000D03*
X20000000Y45070000D03*
X22540000Y42530000D03*
D21*
X17500000Y88000000D03*
X20000000Y88000000D03*
G36*
G01*
X23350000Y88725000D02*
X23350000Y87275000D01*
G75*
G02*
X23100000Y87025000I-250000J0D01*
G01*
X21900000Y87025000D01*
G75*
G02*
X21650000Y87275000I0J250000D01*
G01*
X21650000Y88725000D01*
G75*
G02*
X21900000Y88975000I250000J0D01*
G01*
X23100000Y88975000D01*
G75*
G02*
X23350000Y88725000I0J-250000D01*
G01*
G37*
D20*
X23620000Y24000000D03*
X16000000Y24000000D03*
X18540000Y28000000D03*
X16000000Y28000000D03*
X23620000Y32000000D03*
X16000000Y32000000D03*
X2000000Y52000000D03*
X4540000Y52000000D03*
X8000000Y60050000D03*
X10600000Y60050000D03*
X2000000Y68050000D03*
X4540000Y68050000D03*
X10500000Y68050000D03*
X7900000Y68050000D03*
X4540000Y36000000D03*
X2000000Y36000000D03*
X2000000Y56000000D03*
X9620000Y56000000D03*
X4540000Y60000000D03*
X2000000Y60000000D03*
X9620000Y64050000D03*
X2000000Y64050000D03*
X7700000Y52000000D03*
X10300000Y52000000D03*
X10300000Y36000000D03*
X7700000Y36000000D03*
X2000000Y48000000D03*
X9620000Y48000000D03*
G36*
G01*
X9350000Y81725000D02*
X9350000Y80275000D01*
G75*
G02*
X9100000Y80025000I-250000J0D01*
G01*
X7900000Y80025000D01*
G75*
G02*
X7650000Y80275000I0J250000D01*
G01*
X7650000Y81725000D01*
G75*
G02*
X7900000Y81975000I250000J0D01*
G01*
X9100000Y81975000D01*
G75*
G02*
X9350000Y81725000I0J-250000D01*
G01*
G37*
D21*
X6000000Y81000000D03*
X3500000Y81000000D03*
D22*
X8540000Y74530000D03*
X6000000Y77070000D03*
X3460000Y74530000D03*
D20*
X7700000Y28000000D03*
X10300000Y28000000D03*
D22*
X3460000Y42530000D03*
X6000000Y45070000D03*
X8540000Y42530000D03*
D21*
X3500000Y88000000D03*
X6000000Y88000000D03*
G36*
G01*
X9350000Y88725000D02*
X9350000Y87275000D01*
G75*
G02*
X9100000Y87025000I-250000J0D01*
G01*
X7900000Y87025000D01*
G75*
G02*
X7650000Y87275000I0J250000D01*
G01*
X7650000Y88725000D01*
G75*
G02*
X7900000Y88975000I250000J0D01*
G01*
X9100000Y88975000D01*
G75*
G02*
X9350000Y88725000I0J-250000D01*
G01*
G37*
D20*
X9620000Y24000000D03*
X2000000Y24000000D03*
X4540000Y28000000D03*
X2000000Y28000000D03*
X9620000Y32000000D03*
X2000000Y32000000D03*
M02*
