G04 #@! TF.GenerationSoftware,KiCad,Pcbnew,(5.1.8)-1*
G04 #@! TF.CreationDate,2021-05-15T16:38:38+09:00*
G04 #@! TF.ProjectId,test,74657374-2e6b-4696-9361-645f70636258,rev?*
G04 #@! TF.SameCoordinates,PX4c4b400PY8954400*
G04 #@! TF.FileFunction,Legend,Top*
G04 #@! TF.FilePolarity,Positive*
%FSLAX46Y46*%
G04 Gerber Fmt 4.6, Leading zero omitted, Abs format (unit mm)*
G04 Created by KiCad (PCBNEW (5.1.8)-1) date 2021-05-15 16:38:38*
%MOMM*%
%LPD*%
G01*
G04 APERTURE LIST*
%ADD10C,0.100000*%
%ADD11C,0.120000*%
%ADD12C,0.200000*%
%ADD13C,0.150000*%
%ADD14C,0.254000*%
%ADD15C,2.550000*%
%ADD16O,1.700000X2.000000*%
%ADD17R,2.000000X2.500000*%
%ADD18R,6.000000X6.000000*%
%ADD19O,1.700000X1.700000*%
%ADD20R,1.700000X1.700000*%
%ADD21O,2.000000X1.700000*%
%ADD22O,2.400000X2.400000*%
%ADD23R,2.400000X2.400000*%
%ADD24C,1.635000*%
%ADD25C,1.700000*%
%ADD26O,1.700000X1.950000*%
%ADD27C,1.400000*%
%ADD28O,1.950000X1.700000*%
%ADD29C,1.800000*%
%ADD30R,1.800000X1.800000*%
%ADD31O,1.600000X1.600000*%
%ADD32C,1.600000*%
G04 APERTURE END LIST*
D10*
X96345000Y35025000D02*
X95145000Y35025000D01*
X96345000Y28725000D02*
X96345000Y35025000D01*
X95145000Y28725000D02*
X96345000Y28725000D01*
X89945000Y35025000D02*
X91145000Y35025000D01*
X89945000Y28725000D02*
X89945000Y35025000D01*
X91145000Y28725000D02*
X89945000Y28725000D01*
D11*
X96975000Y20350000D02*
X96975000Y26320000D01*
X96975000Y26320000D02*
X89355000Y26320000D01*
X89355000Y26320000D02*
X89355000Y20350000D01*
X89355000Y20350000D02*
X96975000Y20350000D01*
X93665000Y20360000D02*
X93665000Y21110000D01*
X93665000Y21110000D02*
X92665000Y21110000D01*
X92665000Y21110000D02*
X92665000Y20360000D01*
X92665000Y20360000D02*
X93665000Y20360000D01*
X96965000Y20360000D02*
X96965000Y21110000D01*
X96965000Y21110000D02*
X95165000Y21110000D01*
X95165000Y21110000D02*
X95165000Y20360000D01*
X95165000Y20360000D02*
X96965000Y20360000D01*
X91165000Y20360000D02*
X91165000Y21110000D01*
X91165000Y21110000D02*
X89365000Y21110000D01*
X89365000Y21110000D02*
X89365000Y20360000D01*
X89365000Y20360000D02*
X91165000Y20360000D01*
X96965000Y22610000D02*
X96215000Y22610000D01*
X96215000Y22610000D02*
X96215000Y25560000D01*
X96215000Y25560000D02*
X93165000Y25560000D01*
X89365000Y22610000D02*
X90115000Y22610000D01*
X90115000Y22610000D02*
X90115000Y25560000D01*
X90115000Y25560000D02*
X93165000Y25560000D01*
X96015000Y20060000D02*
X97265000Y20060000D01*
X97265000Y20060000D02*
X97265000Y21310000D01*
X82025000Y38335000D02*
X82025000Y26835000D01*
X89025000Y38335000D02*
X82025000Y38335000D01*
X89025000Y26835000D02*
X89025000Y38335000D01*
X89025000Y26835000D02*
X82025000Y26835000D01*
X79235000Y25410000D02*
X76575000Y25410000D01*
X79235000Y22810000D02*
X79235000Y25410000D01*
X76575000Y22810000D02*
X76575000Y25410000D01*
X79235000Y22810000D02*
X76575000Y22810000D01*
X79235000Y21540000D02*
X79235000Y20210000D01*
X79235000Y20210000D02*
X77905000Y20210000D01*
X82750000Y48154000D02*
X84000000Y48154000D01*
X82750000Y49404000D02*
X82750000Y48154000D01*
X88250000Y55304000D02*
X88250000Y52254000D01*
X85300000Y55304000D02*
X88250000Y55304000D01*
X85300000Y56054000D02*
X85300000Y55304000D01*
X88250000Y49204000D02*
X88250000Y52254000D01*
X85300000Y49204000D02*
X88250000Y49204000D01*
X85300000Y48454000D02*
X85300000Y49204000D01*
X83050000Y56054000D02*
X83050000Y54254000D01*
X83800000Y56054000D02*
X83050000Y56054000D01*
X83800000Y54254000D02*
X83800000Y56054000D01*
X83050000Y54254000D02*
X83800000Y54254000D01*
X83050000Y50254000D02*
X83050000Y48454000D01*
X83800000Y50254000D02*
X83050000Y50254000D01*
X83800000Y48454000D02*
X83800000Y50254000D01*
X83050000Y48454000D02*
X83800000Y48454000D01*
X83050000Y52754000D02*
X83050000Y51754000D01*
X83800000Y52754000D02*
X83050000Y52754000D01*
X83800000Y51754000D02*
X83800000Y52754000D01*
X83050000Y51754000D02*
X83800000Y51754000D01*
X83040000Y56064000D02*
X83040000Y48444000D01*
X89010000Y56064000D02*
X83040000Y56064000D01*
X89010000Y48444000D02*
X89010000Y56064000D01*
X83040000Y48444000D02*
X89010000Y48444000D01*
X77255000Y37940000D02*
X81095000Y37940000D01*
X81095000Y37940000D02*
X81095000Y45780000D01*
X81095000Y45780000D02*
X77255000Y45780000D01*
X77255000Y45780000D02*
X77255000Y37940000D01*
X79175000Y35680000D02*
X79175000Y37940000D01*
X79175000Y48040000D02*
X79175000Y45780000D01*
X77255000Y39200000D02*
X81095000Y39200000D01*
X77255000Y39320000D02*
X81095000Y39320000D01*
X77255000Y39080000D02*
X81095000Y39080000D01*
D10*
X91145000Y48695000D02*
X89945000Y48695000D01*
X89945000Y48695000D02*
X89945000Y54995000D01*
X89945000Y54995000D02*
X91145000Y54995000D01*
X95145000Y48695000D02*
X96345000Y48695000D01*
X96345000Y48695000D02*
X96345000Y54995000D01*
X96345000Y54995000D02*
X95145000Y54995000D01*
X80190000Y25350000D02*
X80190000Y20270000D01*
X80190000Y20270000D02*
X88320000Y20270000D01*
X88320000Y20270000D02*
X88320000Y25350000D01*
X88320000Y25350000D02*
X80190000Y25350000D01*
D12*
X79515000Y22810000D02*
X79515000Y22810000D01*
X79615000Y22810000D02*
X79615000Y22810000D01*
X79515000Y22810000D02*
X79515000Y22810000D01*
X79615000Y22810000D02*
G75*
G02*
X79515000Y22810000I-50000J0D01*
G01*
X79515000Y22810000D02*
G75*
G02*
X79615000Y22810000I50000J0D01*
G01*
X79615000Y22810000D02*
G75*
G02*
X79515000Y22810000I-50000J0D01*
G01*
D11*
X83065000Y39300000D02*
X89035000Y39300000D01*
X89035000Y39300000D02*
X89035000Y46920000D01*
X89035000Y46920000D02*
X83065000Y46920000D01*
X83065000Y46920000D02*
X83065000Y39300000D01*
X83075000Y42610000D02*
X83825000Y42610000D01*
X83825000Y42610000D02*
X83825000Y43610000D01*
X83825000Y43610000D02*
X83075000Y43610000D01*
X83075000Y43610000D02*
X83075000Y42610000D01*
X83075000Y39310000D02*
X83825000Y39310000D01*
X83825000Y39310000D02*
X83825000Y41110000D01*
X83825000Y41110000D02*
X83075000Y41110000D01*
X83075000Y41110000D02*
X83075000Y39310000D01*
X83075000Y45110000D02*
X83825000Y45110000D01*
X83825000Y45110000D02*
X83825000Y46910000D01*
X83825000Y46910000D02*
X83075000Y46910000D01*
X83075000Y46910000D02*
X83075000Y45110000D01*
X85325000Y39310000D02*
X85325000Y40060000D01*
X85325000Y40060000D02*
X88275000Y40060000D01*
X88275000Y40060000D02*
X88275000Y43110000D01*
X85325000Y46910000D02*
X85325000Y46160000D01*
X85325000Y46160000D02*
X88275000Y46160000D01*
X88275000Y46160000D02*
X88275000Y43110000D01*
X82775000Y40260000D02*
X82775000Y39010000D01*
X82775000Y39010000D02*
X84025000Y39010000D01*
D10*
X96345000Y76025000D02*
X95145000Y76025000D01*
X96345000Y69725000D02*
X96345000Y76025000D01*
X95145000Y69725000D02*
X96345000Y69725000D01*
X89945000Y76025000D02*
X91145000Y76025000D01*
X89945000Y69725000D02*
X89945000Y76025000D01*
X91145000Y69725000D02*
X89945000Y69725000D01*
D11*
X96975000Y61350000D02*
X96975000Y67320000D01*
X96975000Y67320000D02*
X89355000Y67320000D01*
X89355000Y67320000D02*
X89355000Y61350000D01*
X89355000Y61350000D02*
X96975000Y61350000D01*
X93665000Y61360000D02*
X93665000Y62110000D01*
X93665000Y62110000D02*
X92665000Y62110000D01*
X92665000Y62110000D02*
X92665000Y61360000D01*
X92665000Y61360000D02*
X93665000Y61360000D01*
X96965000Y61360000D02*
X96965000Y62110000D01*
X96965000Y62110000D02*
X95165000Y62110000D01*
X95165000Y62110000D02*
X95165000Y61360000D01*
X95165000Y61360000D02*
X96965000Y61360000D01*
X91165000Y61360000D02*
X91165000Y62110000D01*
X91165000Y62110000D02*
X89365000Y62110000D01*
X89365000Y62110000D02*
X89365000Y61360000D01*
X89365000Y61360000D02*
X91165000Y61360000D01*
X96965000Y63610000D02*
X96215000Y63610000D01*
X96215000Y63610000D02*
X96215000Y66560000D01*
X96215000Y66560000D02*
X93165000Y66560000D01*
X89365000Y63610000D02*
X90115000Y63610000D01*
X90115000Y63610000D02*
X90115000Y66560000D01*
X90115000Y66560000D02*
X93165000Y66560000D01*
X96015000Y61060000D02*
X97265000Y61060000D01*
X97265000Y61060000D02*
X97265000Y62310000D01*
X82025000Y79335000D02*
X82025000Y67835000D01*
X89025000Y79335000D02*
X82025000Y79335000D01*
X89025000Y67835000D02*
X89025000Y79335000D01*
X89025000Y67835000D02*
X82025000Y67835000D01*
X79235000Y66410000D02*
X76575000Y66410000D01*
X79235000Y63810000D02*
X79235000Y66410000D01*
X76575000Y63810000D02*
X76575000Y66410000D01*
X79235000Y63810000D02*
X76575000Y63810000D01*
X79235000Y62540000D02*
X79235000Y61210000D01*
X79235000Y61210000D02*
X77905000Y61210000D01*
X82750000Y89154000D02*
X84000000Y89154000D01*
X82750000Y90404000D02*
X82750000Y89154000D01*
X88250000Y96304000D02*
X88250000Y93254000D01*
X85300000Y96304000D02*
X88250000Y96304000D01*
X85300000Y97054000D02*
X85300000Y96304000D01*
X88250000Y90204000D02*
X88250000Y93254000D01*
X85300000Y90204000D02*
X88250000Y90204000D01*
X85300000Y89454000D02*
X85300000Y90204000D01*
X83050000Y97054000D02*
X83050000Y95254000D01*
X83800000Y97054000D02*
X83050000Y97054000D01*
X83800000Y95254000D02*
X83800000Y97054000D01*
X83050000Y95254000D02*
X83800000Y95254000D01*
X83050000Y91254000D02*
X83050000Y89454000D01*
X83800000Y91254000D02*
X83050000Y91254000D01*
X83800000Y89454000D02*
X83800000Y91254000D01*
X83050000Y89454000D02*
X83800000Y89454000D01*
X83050000Y93754000D02*
X83050000Y92754000D01*
X83800000Y93754000D02*
X83050000Y93754000D01*
X83800000Y92754000D02*
X83800000Y93754000D01*
X83050000Y92754000D02*
X83800000Y92754000D01*
X83040000Y97064000D02*
X83040000Y89444000D01*
X89010000Y97064000D02*
X83040000Y97064000D01*
X89010000Y89444000D02*
X89010000Y97064000D01*
X83040000Y89444000D02*
X89010000Y89444000D01*
X77255000Y78940000D02*
X81095000Y78940000D01*
X81095000Y78940000D02*
X81095000Y86780000D01*
X81095000Y86780000D02*
X77255000Y86780000D01*
X77255000Y86780000D02*
X77255000Y78940000D01*
X79175000Y76680000D02*
X79175000Y78940000D01*
X79175000Y89040000D02*
X79175000Y86780000D01*
X77255000Y80200000D02*
X81095000Y80200000D01*
X77255000Y80320000D02*
X81095000Y80320000D01*
X77255000Y80080000D02*
X81095000Y80080000D01*
D10*
X91145000Y89695000D02*
X89945000Y89695000D01*
X89945000Y89695000D02*
X89945000Y95995000D01*
X89945000Y95995000D02*
X91145000Y95995000D01*
X95145000Y89695000D02*
X96345000Y89695000D01*
X96345000Y89695000D02*
X96345000Y95995000D01*
X96345000Y95995000D02*
X95145000Y95995000D01*
X80190000Y66350000D02*
X80190000Y61270000D01*
X80190000Y61270000D02*
X88320000Y61270000D01*
X88320000Y61270000D02*
X88320000Y66350000D01*
X88320000Y66350000D02*
X80190000Y66350000D01*
D12*
X79515000Y63810000D02*
X79515000Y63810000D01*
X79615000Y63810000D02*
X79615000Y63810000D01*
X79515000Y63810000D02*
X79515000Y63810000D01*
X79615000Y63810000D02*
G75*
G02*
X79515000Y63810000I-50000J0D01*
G01*
X79515000Y63810000D02*
G75*
G02*
X79615000Y63810000I50000J0D01*
G01*
X79615000Y63810000D02*
G75*
G02*
X79515000Y63810000I-50000J0D01*
G01*
D11*
X83065000Y80300000D02*
X89035000Y80300000D01*
X89035000Y80300000D02*
X89035000Y87920000D01*
X89035000Y87920000D02*
X83065000Y87920000D01*
X83065000Y87920000D02*
X83065000Y80300000D01*
X83075000Y83610000D02*
X83825000Y83610000D01*
X83825000Y83610000D02*
X83825000Y84610000D01*
X83825000Y84610000D02*
X83075000Y84610000D01*
X83075000Y84610000D02*
X83075000Y83610000D01*
X83075000Y80310000D02*
X83825000Y80310000D01*
X83825000Y80310000D02*
X83825000Y82110000D01*
X83825000Y82110000D02*
X83075000Y82110000D01*
X83075000Y82110000D02*
X83075000Y80310000D01*
X83075000Y86110000D02*
X83825000Y86110000D01*
X83825000Y86110000D02*
X83825000Y87910000D01*
X83825000Y87910000D02*
X83075000Y87910000D01*
X83075000Y87910000D02*
X83075000Y86110000D01*
X85325000Y80310000D02*
X85325000Y81060000D01*
X85325000Y81060000D02*
X88275000Y81060000D01*
X88275000Y81060000D02*
X88275000Y84110000D01*
X85325000Y87910000D02*
X85325000Y87160000D01*
X85325000Y87160000D02*
X88275000Y87160000D01*
X88275000Y87160000D02*
X88275000Y84110000D01*
X82775000Y81260000D02*
X82775000Y80010000D01*
X82775000Y80010000D02*
X84025000Y80010000D01*
X44540000Y65090000D02*
X44540000Y65420000D01*
X44540000Y65420000D02*
X51080000Y65420000D01*
X51080000Y65420000D02*
X51080000Y65090000D01*
X44540000Y63010000D02*
X44540000Y62680000D01*
X44540000Y62680000D02*
X51080000Y62680000D01*
X51080000Y62680000D02*
X51080000Y63010000D01*
X51080000Y54630000D02*
X51080000Y54960000D01*
X44540000Y54630000D02*
X51080000Y54630000D01*
X44540000Y54960000D02*
X44540000Y54630000D01*
X51080000Y57370000D02*
X51080000Y57040000D01*
X44540000Y57370000D02*
X51080000Y57370000D01*
X44540000Y57040000D02*
X44540000Y57370000D01*
X53060000Y85540000D02*
X53060000Y91510000D01*
X53060000Y91510000D02*
X42940000Y91510000D01*
X42940000Y91510000D02*
X42940000Y85540000D01*
X42940000Y85540000D02*
X53060000Y85540000D01*
X49750000Y85550000D02*
X49750000Y86300000D01*
X49750000Y86300000D02*
X46250000Y86300000D01*
X46250000Y86300000D02*
X46250000Y85550000D01*
X46250000Y85550000D02*
X49750000Y85550000D01*
X53050000Y85550000D02*
X53050000Y86300000D01*
X53050000Y86300000D02*
X51250000Y86300000D01*
X51250000Y86300000D02*
X51250000Y85550000D01*
X51250000Y85550000D02*
X53050000Y85550000D01*
X44750000Y85550000D02*
X44750000Y86300000D01*
X44750000Y86300000D02*
X42950000Y86300000D01*
X42950000Y86300000D02*
X42950000Y85550000D01*
X42950000Y85550000D02*
X44750000Y85550000D01*
X53050000Y87800000D02*
X52300000Y87800000D01*
X52300000Y87800000D02*
X52300000Y90750000D01*
X52300000Y90750000D02*
X48000000Y90750000D01*
X42950000Y87800000D02*
X43700000Y87800000D01*
X43700000Y87800000D02*
X43700000Y90750000D01*
X43700000Y90750000D02*
X48000000Y90750000D01*
X52100000Y85250000D02*
X53350000Y85250000D01*
X53350000Y85250000D02*
X53350000Y86500000D01*
X53350000Y78250000D02*
X53350000Y79500000D01*
X52100000Y78250000D02*
X53350000Y78250000D01*
X43700000Y83750000D02*
X48000000Y83750000D01*
X43700000Y80800000D02*
X43700000Y83750000D01*
X42950000Y80800000D02*
X43700000Y80800000D01*
X52300000Y83750000D02*
X48000000Y83750000D01*
X52300000Y80800000D02*
X52300000Y83750000D01*
X53050000Y80800000D02*
X52300000Y80800000D01*
X42950000Y78550000D02*
X44750000Y78550000D01*
X42950000Y79300000D02*
X42950000Y78550000D01*
X44750000Y79300000D02*
X42950000Y79300000D01*
X44750000Y78550000D02*
X44750000Y79300000D01*
X51250000Y78550000D02*
X53050000Y78550000D01*
X51250000Y79300000D02*
X51250000Y78550000D01*
X53050000Y79300000D02*
X51250000Y79300000D01*
X53050000Y78550000D02*
X53050000Y79300000D01*
X46250000Y78550000D02*
X49750000Y78550000D01*
X46250000Y79300000D02*
X46250000Y78550000D01*
X49750000Y79300000D02*
X46250000Y79300000D01*
X49750000Y78550000D02*
X49750000Y79300000D01*
X42940000Y78540000D02*
X53060000Y78540000D01*
X42940000Y84510000D02*
X42940000Y78540000D01*
X53060000Y84510000D02*
X42940000Y84510000D01*
X53060000Y78540000D02*
X53060000Y84510000D01*
X44540000Y33040000D02*
X44540000Y33370000D01*
X44540000Y33370000D02*
X51080000Y33370000D01*
X51080000Y33370000D02*
X51080000Y33040000D01*
X44540000Y30960000D02*
X44540000Y30630000D01*
X44540000Y30630000D02*
X51080000Y30630000D01*
X51080000Y30630000D02*
X51080000Y30960000D01*
X44540000Y25040000D02*
X44540000Y25370000D01*
X44540000Y25370000D02*
X51080000Y25370000D01*
X51080000Y25370000D02*
X51080000Y25040000D01*
X44540000Y22960000D02*
X44540000Y22630000D01*
X44540000Y22630000D02*
X51080000Y22630000D01*
X51080000Y22630000D02*
X51080000Y22960000D01*
X51080000Y46630000D02*
X51080000Y46960000D01*
X44540000Y46630000D02*
X51080000Y46630000D01*
X44540000Y46960000D02*
X44540000Y46630000D01*
X51080000Y49370000D02*
X51080000Y49040000D01*
X44540000Y49370000D02*
X51080000Y49370000D01*
X44540000Y49040000D02*
X44540000Y49370000D01*
X39370000Y9080000D02*
X39040000Y9080000D01*
X39370000Y2540000D02*
X39370000Y9080000D01*
X39040000Y2540000D02*
X39370000Y2540000D01*
X36630000Y9080000D02*
X36960000Y9080000D01*
X36630000Y2540000D02*
X36630000Y9080000D01*
X36960000Y2540000D02*
X36630000Y2540000D01*
X13460000Y11060000D02*
X7490000Y11060000D01*
X7490000Y11060000D02*
X7490000Y940000D01*
X7490000Y940000D02*
X13460000Y940000D01*
X13460000Y940000D02*
X13460000Y11060000D01*
X13450000Y7750000D02*
X12700000Y7750000D01*
X12700000Y7750000D02*
X12700000Y4250000D01*
X12700000Y4250000D02*
X13450000Y4250000D01*
X13450000Y4250000D02*
X13450000Y7750000D01*
X13450000Y11050000D02*
X12700000Y11050000D01*
X12700000Y11050000D02*
X12700000Y9250000D01*
X12700000Y9250000D02*
X13450000Y9250000D01*
X13450000Y9250000D02*
X13450000Y11050000D01*
X13450000Y2750000D02*
X12700000Y2750000D01*
X12700000Y2750000D02*
X12700000Y950000D01*
X12700000Y950000D02*
X13450000Y950000D01*
X13450000Y950000D02*
X13450000Y2750000D01*
X11200000Y11050000D02*
X11200000Y10300000D01*
X11200000Y10300000D02*
X8250000Y10300000D01*
X8250000Y10300000D02*
X8250000Y6000000D01*
X11200000Y950000D02*
X11200000Y1700000D01*
X11200000Y1700000D02*
X8250000Y1700000D01*
X8250000Y1700000D02*
X8250000Y6000000D01*
X13750000Y10100000D02*
X13750000Y11350000D01*
X13750000Y11350000D02*
X12500000Y11350000D01*
X46960000Y2540000D02*
X46630000Y2540000D01*
X46630000Y2540000D02*
X46630000Y9080000D01*
X46630000Y9080000D02*
X46960000Y9080000D01*
X49040000Y2540000D02*
X49370000Y2540000D01*
X49370000Y2540000D02*
X49370000Y9080000D01*
X49370000Y9080000D02*
X49040000Y9080000D01*
X26960000Y2540000D02*
X26630000Y2540000D01*
X26630000Y2540000D02*
X26630000Y9080000D01*
X26630000Y9080000D02*
X26960000Y9080000D01*
X29040000Y2540000D02*
X29370000Y2540000D01*
X29370000Y2540000D02*
X29370000Y9080000D01*
X29370000Y9080000D02*
X29040000Y9080000D01*
X67540000Y78440000D02*
X73510000Y78440000D01*
X73510000Y78440000D02*
X73510000Y88560000D01*
X73510000Y88560000D02*
X67540000Y88560000D01*
X67540000Y88560000D02*
X67540000Y78440000D01*
X67550000Y81750000D02*
X68300000Y81750000D01*
X68300000Y81750000D02*
X68300000Y85250000D01*
X68300000Y85250000D02*
X67550000Y85250000D01*
X67550000Y85250000D02*
X67550000Y81750000D01*
X67550000Y78450000D02*
X68300000Y78450000D01*
X68300000Y78450000D02*
X68300000Y80250000D01*
X68300000Y80250000D02*
X67550000Y80250000D01*
X67550000Y80250000D02*
X67550000Y78450000D01*
X67550000Y86750000D02*
X68300000Y86750000D01*
X68300000Y86750000D02*
X68300000Y88550000D01*
X68300000Y88550000D02*
X67550000Y88550000D01*
X67550000Y88550000D02*
X67550000Y86750000D01*
X69800000Y78450000D02*
X69800000Y79200000D01*
X69800000Y79200000D02*
X72750000Y79200000D01*
X72750000Y79200000D02*
X72750000Y83500000D01*
X69800000Y88550000D02*
X69800000Y87800000D01*
X69800000Y87800000D02*
X72750000Y87800000D01*
X72750000Y87800000D02*
X72750000Y83500000D01*
X67250000Y79400000D02*
X67250000Y78150000D01*
X67250000Y78150000D02*
X68500000Y78150000D01*
X67540000Y30440000D02*
X73510000Y30440000D01*
X73510000Y30440000D02*
X73510000Y40560000D01*
X73510000Y40560000D02*
X67540000Y40560000D01*
X67540000Y40560000D02*
X67540000Y30440000D01*
X67550000Y33750000D02*
X68300000Y33750000D01*
X68300000Y33750000D02*
X68300000Y37250000D01*
X68300000Y37250000D02*
X67550000Y37250000D01*
X67550000Y37250000D02*
X67550000Y33750000D01*
X67550000Y30450000D02*
X68300000Y30450000D01*
X68300000Y30450000D02*
X68300000Y32250000D01*
X68300000Y32250000D02*
X67550000Y32250000D01*
X67550000Y32250000D02*
X67550000Y30450000D01*
X67550000Y38750000D02*
X68300000Y38750000D01*
X68300000Y38750000D02*
X68300000Y40550000D01*
X68300000Y40550000D02*
X67550000Y40550000D01*
X67550000Y40550000D02*
X67550000Y38750000D01*
X69800000Y30450000D02*
X69800000Y31200000D01*
X69800000Y31200000D02*
X72750000Y31200000D01*
X72750000Y31200000D02*
X72750000Y35500000D01*
X69800000Y40550000D02*
X69800000Y39800000D01*
X69800000Y39800000D02*
X72750000Y39800000D01*
X72750000Y39800000D02*
X72750000Y35500000D01*
X67250000Y31400000D02*
X67250000Y30150000D01*
X67250000Y30150000D02*
X68500000Y30150000D01*
X67250000Y54150000D02*
X68500000Y54150000D01*
X67250000Y55400000D02*
X67250000Y54150000D01*
X72750000Y63800000D02*
X72750000Y59500000D01*
X69800000Y63800000D02*
X72750000Y63800000D01*
X69800000Y64550000D02*
X69800000Y63800000D01*
X72750000Y55200000D02*
X72750000Y59500000D01*
X69800000Y55200000D02*
X72750000Y55200000D01*
X69800000Y54450000D02*
X69800000Y55200000D01*
X67550000Y64550000D02*
X67550000Y62750000D01*
X68300000Y64550000D02*
X67550000Y64550000D01*
X68300000Y62750000D02*
X68300000Y64550000D01*
X67550000Y62750000D02*
X68300000Y62750000D01*
X67550000Y56250000D02*
X67550000Y54450000D01*
X68300000Y56250000D02*
X67550000Y56250000D01*
X68300000Y54450000D02*
X68300000Y56250000D01*
X67550000Y54450000D02*
X68300000Y54450000D01*
X67550000Y61250000D02*
X67550000Y57750000D01*
X68300000Y61250000D02*
X67550000Y61250000D01*
X68300000Y57750000D02*
X68300000Y61250000D01*
X67550000Y57750000D02*
X68300000Y57750000D01*
X67540000Y64560000D02*
X67540000Y54440000D01*
X73510000Y64560000D02*
X67540000Y64560000D01*
X73510000Y54440000D02*
X73510000Y64560000D01*
X67540000Y54440000D02*
X73510000Y54440000D01*
X66440000Y52960000D02*
X66770000Y52960000D01*
X66770000Y52960000D02*
X66770000Y46420000D01*
X66770000Y46420000D02*
X66440000Y46420000D01*
X64360000Y52960000D02*
X64030000Y52960000D01*
X64030000Y52960000D02*
X64030000Y46420000D01*
X64030000Y46420000D02*
X64360000Y46420000D01*
X66440000Y29460000D02*
X66770000Y29460000D01*
X66770000Y29460000D02*
X66770000Y22920000D01*
X66770000Y22920000D02*
X66440000Y22920000D01*
X64360000Y29460000D02*
X64030000Y29460000D01*
X64030000Y29460000D02*
X64030000Y22920000D01*
X64030000Y22920000D02*
X64360000Y22920000D01*
D12*
X56600000Y29490000D02*
X56600000Y22500000D01*
X56600000Y22500000D02*
X63200000Y22500000D01*
X63200000Y22500000D02*
X63200000Y29490000D01*
X63200000Y29490000D02*
X56600000Y29490000D01*
X56235000Y26032000D02*
G75*
G03*
X56235000Y26032000I-57000J0D01*
G01*
X56600000Y52990000D02*
X56600000Y46000000D01*
X56600000Y46000000D02*
X63200000Y46000000D01*
X63200000Y46000000D02*
X63200000Y52990000D01*
X63200000Y52990000D02*
X56600000Y52990000D01*
X56235000Y49532000D02*
G75*
G03*
X56235000Y49532000I-57000J0D01*
G01*
X56235000Y73532000D02*
G75*
G03*
X56235000Y73532000I-57000J0D01*
G01*
X63200000Y76990000D02*
X56600000Y76990000D01*
X63200000Y70000000D02*
X63200000Y76990000D01*
X56600000Y70000000D02*
X63200000Y70000000D01*
X56600000Y76990000D02*
X56600000Y70000000D01*
D11*
X65360000Y41960000D02*
X65360000Y41630000D01*
X65360000Y41630000D02*
X58820000Y41630000D01*
X58820000Y41630000D02*
X58820000Y41960000D01*
X65360000Y44040000D02*
X65360000Y44370000D01*
X65360000Y44370000D02*
X58820000Y44370000D01*
X58820000Y44370000D02*
X58820000Y44040000D01*
X64030000Y70420000D02*
X64360000Y70420000D01*
X64030000Y76960000D02*
X64030000Y70420000D01*
X64360000Y76960000D02*
X64030000Y76960000D01*
X66770000Y70420000D02*
X66440000Y70420000D01*
X66770000Y76960000D02*
X66770000Y70420000D01*
X66440000Y76960000D02*
X66770000Y76960000D01*
X58820000Y68370000D02*
X58820000Y68040000D01*
X65360000Y68370000D02*
X58820000Y68370000D01*
X65360000Y68040000D02*
X65360000Y68370000D01*
X58820000Y65630000D02*
X58820000Y65960000D01*
X65360000Y65630000D02*
X58820000Y65630000D01*
X65360000Y65960000D02*
X65360000Y65630000D01*
X58820000Y91870000D02*
X58820000Y91540000D01*
X65360000Y91870000D02*
X58820000Y91870000D01*
X65360000Y91540000D02*
X65360000Y91870000D01*
X58820000Y89130000D02*
X58820000Y89460000D01*
X65360000Y89130000D02*
X58820000Y89130000D01*
X65360000Y89460000D02*
X65360000Y89130000D01*
X37080000Y54630000D02*
X37080000Y54960000D01*
X30540000Y54630000D02*
X37080000Y54630000D01*
X30540000Y54960000D02*
X30540000Y54630000D01*
X37080000Y57370000D02*
X37080000Y57040000D01*
X30540000Y57370000D02*
X37080000Y57370000D01*
X30540000Y57040000D02*
X30540000Y57370000D01*
X30540000Y65090000D02*
X30540000Y65420000D01*
X30540000Y65420000D02*
X37080000Y65420000D01*
X37080000Y65420000D02*
X37080000Y65090000D01*
X30540000Y63010000D02*
X30540000Y62680000D01*
X30540000Y62680000D02*
X37080000Y62680000D01*
X37080000Y62680000D02*
X37080000Y63010000D01*
X37080000Y46630000D02*
X37080000Y46960000D01*
X30540000Y46630000D02*
X37080000Y46630000D01*
X30540000Y46960000D02*
X30540000Y46630000D01*
X37080000Y49370000D02*
X37080000Y49040000D01*
X30540000Y49370000D02*
X37080000Y49370000D01*
X30540000Y49040000D02*
X30540000Y49370000D01*
X39350000Y78250000D02*
X39350000Y79500000D01*
X38100000Y78250000D02*
X39350000Y78250000D01*
X29700000Y83750000D02*
X34000000Y83750000D01*
X29700000Y80800000D02*
X29700000Y83750000D01*
X28950000Y80800000D02*
X29700000Y80800000D01*
X38300000Y83750000D02*
X34000000Y83750000D01*
X38300000Y80800000D02*
X38300000Y83750000D01*
X39050000Y80800000D02*
X38300000Y80800000D01*
X28950000Y78550000D02*
X30750000Y78550000D01*
X28950000Y79300000D02*
X28950000Y78550000D01*
X30750000Y79300000D02*
X28950000Y79300000D01*
X30750000Y78550000D02*
X30750000Y79300000D01*
X37250000Y78550000D02*
X39050000Y78550000D01*
X37250000Y79300000D02*
X37250000Y78550000D01*
X39050000Y79300000D02*
X37250000Y79300000D01*
X39050000Y78550000D02*
X39050000Y79300000D01*
X32250000Y78550000D02*
X35750000Y78550000D01*
X32250000Y79300000D02*
X32250000Y78550000D01*
X35750000Y79300000D02*
X32250000Y79300000D01*
X35750000Y78550000D02*
X35750000Y79300000D01*
X28940000Y78540000D02*
X39060000Y78540000D01*
X28940000Y84510000D02*
X28940000Y78540000D01*
X39060000Y84510000D02*
X28940000Y84510000D01*
X39060000Y78540000D02*
X39060000Y84510000D01*
X39060000Y85540000D02*
X39060000Y91510000D01*
X39060000Y91510000D02*
X28940000Y91510000D01*
X28940000Y91510000D02*
X28940000Y85540000D01*
X28940000Y85540000D02*
X39060000Y85540000D01*
X35750000Y85550000D02*
X35750000Y86300000D01*
X35750000Y86300000D02*
X32250000Y86300000D01*
X32250000Y86300000D02*
X32250000Y85550000D01*
X32250000Y85550000D02*
X35750000Y85550000D01*
X39050000Y85550000D02*
X39050000Y86300000D01*
X39050000Y86300000D02*
X37250000Y86300000D01*
X37250000Y86300000D02*
X37250000Y85550000D01*
X37250000Y85550000D02*
X39050000Y85550000D01*
X30750000Y85550000D02*
X30750000Y86300000D01*
X30750000Y86300000D02*
X28950000Y86300000D01*
X28950000Y86300000D02*
X28950000Y85550000D01*
X28950000Y85550000D02*
X30750000Y85550000D01*
X39050000Y87800000D02*
X38300000Y87800000D01*
X38300000Y87800000D02*
X38300000Y90750000D01*
X38300000Y90750000D02*
X34000000Y90750000D01*
X28950000Y87800000D02*
X29700000Y87800000D01*
X29700000Y87800000D02*
X29700000Y90750000D01*
X29700000Y90750000D02*
X34000000Y90750000D01*
X38100000Y85250000D02*
X39350000Y85250000D01*
X39350000Y85250000D02*
X39350000Y86500000D01*
X30540000Y25040000D02*
X30540000Y25370000D01*
X30540000Y25370000D02*
X37080000Y25370000D01*
X37080000Y25370000D02*
X37080000Y25040000D01*
X30540000Y22960000D02*
X30540000Y22630000D01*
X30540000Y22630000D02*
X37080000Y22630000D01*
X37080000Y22630000D02*
X37080000Y22960000D01*
X30540000Y33040000D02*
X30540000Y33370000D01*
X30540000Y33370000D02*
X37080000Y33370000D01*
X37080000Y33370000D02*
X37080000Y33040000D01*
X30540000Y30960000D02*
X30540000Y30630000D01*
X30540000Y30630000D02*
X37080000Y30630000D01*
X37080000Y30630000D02*
X37080000Y30960000D01*
X23080000Y54630000D02*
X23080000Y54960000D01*
X16540000Y54630000D02*
X23080000Y54630000D01*
X16540000Y54960000D02*
X16540000Y54630000D01*
X23080000Y57370000D02*
X23080000Y57040000D01*
X16540000Y57370000D02*
X23080000Y57370000D01*
X16540000Y57040000D02*
X16540000Y57370000D01*
X16540000Y65090000D02*
X16540000Y65420000D01*
X16540000Y65420000D02*
X23080000Y65420000D01*
X23080000Y65420000D02*
X23080000Y65090000D01*
X16540000Y63010000D02*
X16540000Y62680000D01*
X16540000Y62680000D02*
X23080000Y62680000D01*
X23080000Y62680000D02*
X23080000Y63010000D01*
X23080000Y46630000D02*
X23080000Y46960000D01*
X16540000Y46630000D02*
X23080000Y46630000D01*
X16540000Y46960000D02*
X16540000Y46630000D01*
X23080000Y49370000D02*
X23080000Y49040000D01*
X16540000Y49370000D02*
X23080000Y49370000D01*
X16540000Y49040000D02*
X16540000Y49370000D01*
X25350000Y78250000D02*
X25350000Y79500000D01*
X24100000Y78250000D02*
X25350000Y78250000D01*
X15700000Y83750000D02*
X20000000Y83750000D01*
X15700000Y80800000D02*
X15700000Y83750000D01*
X14950000Y80800000D02*
X15700000Y80800000D01*
X24300000Y83750000D02*
X20000000Y83750000D01*
X24300000Y80800000D02*
X24300000Y83750000D01*
X25050000Y80800000D02*
X24300000Y80800000D01*
X14950000Y78550000D02*
X16750000Y78550000D01*
X14950000Y79300000D02*
X14950000Y78550000D01*
X16750000Y79300000D02*
X14950000Y79300000D01*
X16750000Y78550000D02*
X16750000Y79300000D01*
X23250000Y78550000D02*
X25050000Y78550000D01*
X23250000Y79300000D02*
X23250000Y78550000D01*
X25050000Y79300000D02*
X23250000Y79300000D01*
X25050000Y78550000D02*
X25050000Y79300000D01*
X18250000Y78550000D02*
X21750000Y78550000D01*
X18250000Y79300000D02*
X18250000Y78550000D01*
X21750000Y79300000D02*
X18250000Y79300000D01*
X21750000Y78550000D02*
X21750000Y79300000D01*
X14940000Y78540000D02*
X25060000Y78540000D01*
X14940000Y84510000D02*
X14940000Y78540000D01*
X25060000Y84510000D02*
X14940000Y84510000D01*
X25060000Y78540000D02*
X25060000Y84510000D01*
X25060000Y85540000D02*
X25060000Y91510000D01*
X25060000Y91510000D02*
X14940000Y91510000D01*
X14940000Y91510000D02*
X14940000Y85540000D01*
X14940000Y85540000D02*
X25060000Y85540000D01*
X21750000Y85550000D02*
X21750000Y86300000D01*
X21750000Y86300000D02*
X18250000Y86300000D01*
X18250000Y86300000D02*
X18250000Y85550000D01*
X18250000Y85550000D02*
X21750000Y85550000D01*
X25050000Y85550000D02*
X25050000Y86300000D01*
X25050000Y86300000D02*
X23250000Y86300000D01*
X23250000Y86300000D02*
X23250000Y85550000D01*
X23250000Y85550000D02*
X25050000Y85550000D01*
X16750000Y85550000D02*
X16750000Y86300000D01*
X16750000Y86300000D02*
X14950000Y86300000D01*
X14950000Y86300000D02*
X14950000Y85550000D01*
X14950000Y85550000D02*
X16750000Y85550000D01*
X25050000Y87800000D02*
X24300000Y87800000D01*
X24300000Y87800000D02*
X24300000Y90750000D01*
X24300000Y90750000D02*
X20000000Y90750000D01*
X14950000Y87800000D02*
X15700000Y87800000D01*
X15700000Y87800000D02*
X15700000Y90750000D01*
X15700000Y90750000D02*
X20000000Y90750000D01*
X24100000Y85250000D02*
X25350000Y85250000D01*
X25350000Y85250000D02*
X25350000Y86500000D01*
X16540000Y25040000D02*
X16540000Y25370000D01*
X16540000Y25370000D02*
X23080000Y25370000D01*
X23080000Y25370000D02*
X23080000Y25040000D01*
X16540000Y22960000D02*
X16540000Y22630000D01*
X16540000Y22630000D02*
X23080000Y22630000D01*
X23080000Y22630000D02*
X23080000Y22960000D01*
X16540000Y33040000D02*
X16540000Y33370000D01*
X16540000Y33370000D02*
X23080000Y33370000D01*
X23080000Y33370000D02*
X23080000Y33040000D01*
X16540000Y30960000D02*
X16540000Y30630000D01*
X16540000Y30630000D02*
X23080000Y30630000D01*
X23080000Y30630000D02*
X23080000Y30960000D01*
X9080000Y54630000D02*
X9080000Y54960000D01*
X2540000Y54630000D02*
X9080000Y54630000D01*
X2540000Y54960000D02*
X2540000Y54630000D01*
X9080000Y57370000D02*
X9080000Y57040000D01*
X2540000Y57370000D02*
X9080000Y57370000D01*
X2540000Y57040000D02*
X2540000Y57370000D01*
X2540000Y65090000D02*
X2540000Y65420000D01*
X2540000Y65420000D02*
X9080000Y65420000D01*
X9080000Y65420000D02*
X9080000Y65090000D01*
X2540000Y63010000D02*
X2540000Y62680000D01*
X2540000Y62680000D02*
X9080000Y62680000D01*
X9080000Y62680000D02*
X9080000Y63010000D01*
X9080000Y46630000D02*
X9080000Y46960000D01*
X2540000Y46630000D02*
X9080000Y46630000D01*
X2540000Y46960000D02*
X2540000Y46630000D01*
X9080000Y49370000D02*
X9080000Y49040000D01*
X2540000Y49370000D02*
X9080000Y49370000D01*
X2540000Y49040000D02*
X2540000Y49370000D01*
X11350000Y78250000D02*
X11350000Y79500000D01*
X10100000Y78250000D02*
X11350000Y78250000D01*
X1700000Y83750000D02*
X6000000Y83750000D01*
X1700000Y80800000D02*
X1700000Y83750000D01*
X950000Y80800000D02*
X1700000Y80800000D01*
X10300000Y83750000D02*
X6000000Y83750000D01*
X10300000Y80800000D02*
X10300000Y83750000D01*
X11050000Y80800000D02*
X10300000Y80800000D01*
X950000Y78550000D02*
X2750000Y78550000D01*
X950000Y79300000D02*
X950000Y78550000D01*
X2750000Y79300000D02*
X950000Y79300000D01*
X2750000Y78550000D02*
X2750000Y79300000D01*
X9250000Y78550000D02*
X11050000Y78550000D01*
X9250000Y79300000D02*
X9250000Y78550000D01*
X11050000Y79300000D02*
X9250000Y79300000D01*
X11050000Y78550000D02*
X11050000Y79300000D01*
X4250000Y78550000D02*
X7750000Y78550000D01*
X4250000Y79300000D02*
X4250000Y78550000D01*
X7750000Y79300000D02*
X4250000Y79300000D01*
X7750000Y78550000D02*
X7750000Y79300000D01*
X940000Y78540000D02*
X11060000Y78540000D01*
X940000Y84510000D02*
X940000Y78540000D01*
X11060000Y84510000D02*
X940000Y84510000D01*
X11060000Y78540000D02*
X11060000Y84510000D01*
X11060000Y85540000D02*
X11060000Y91510000D01*
X11060000Y91510000D02*
X940000Y91510000D01*
X940000Y91510000D02*
X940000Y85540000D01*
X940000Y85540000D02*
X11060000Y85540000D01*
X7750000Y85550000D02*
X7750000Y86300000D01*
X7750000Y86300000D02*
X4250000Y86300000D01*
X4250000Y86300000D02*
X4250000Y85550000D01*
X4250000Y85550000D02*
X7750000Y85550000D01*
X11050000Y85550000D02*
X11050000Y86300000D01*
X11050000Y86300000D02*
X9250000Y86300000D01*
X9250000Y86300000D02*
X9250000Y85550000D01*
X9250000Y85550000D02*
X11050000Y85550000D01*
X2750000Y85550000D02*
X2750000Y86300000D01*
X2750000Y86300000D02*
X950000Y86300000D01*
X950000Y86300000D02*
X950000Y85550000D01*
X950000Y85550000D02*
X2750000Y85550000D01*
X11050000Y87800000D02*
X10300000Y87800000D01*
X10300000Y87800000D02*
X10300000Y90750000D01*
X10300000Y90750000D02*
X6000000Y90750000D01*
X950000Y87800000D02*
X1700000Y87800000D01*
X1700000Y87800000D02*
X1700000Y90750000D01*
X1700000Y90750000D02*
X6000000Y90750000D01*
X10100000Y85250000D02*
X11350000Y85250000D01*
X11350000Y85250000D02*
X11350000Y86500000D01*
X2540000Y25040000D02*
X2540000Y25370000D01*
X2540000Y25370000D02*
X9080000Y25370000D01*
X9080000Y25370000D02*
X9080000Y25040000D01*
X2540000Y22960000D02*
X2540000Y22630000D01*
X2540000Y22630000D02*
X9080000Y22630000D01*
X9080000Y22630000D02*
X9080000Y22960000D01*
X2540000Y33040000D02*
X2540000Y33370000D01*
X2540000Y33370000D02*
X9080000Y33370000D01*
X9080000Y33370000D02*
X9080000Y33040000D01*
X2540000Y30960000D02*
X2540000Y30630000D01*
X2540000Y30630000D02*
X9080000Y30630000D01*
X9080000Y30630000D02*
X9080000Y30960000D01*
D13*
X65902380Y83166667D02*
X66616666Y83166667D01*
X66759523Y83119048D01*
X66854761Y83023810D01*
X66902380Y82880953D01*
X66902380Y82785715D01*
X66902380Y84166667D02*
X66902380Y83595239D01*
X66902380Y83880953D02*
X65902380Y83880953D01*
X66045238Y83785715D01*
X66140476Y83690477D01*
X66188095Y83595239D01*
X65902380Y35166667D02*
X66616666Y35166667D01*
X66759523Y35119048D01*
X66854761Y35023810D01*
X66902380Y34880953D01*
X66902380Y34785715D01*
X65902380Y35547620D02*
X65902380Y36166667D01*
X66283333Y35833334D01*
X66283333Y35976191D01*
X66330952Y36071429D01*
X66378571Y36119048D01*
X66473809Y36166667D01*
X66711904Y36166667D01*
X66807142Y36119048D01*
X66854761Y36071429D01*
X66902380Y35976191D01*
X66902380Y35690477D01*
X66854761Y35595239D01*
X66807142Y35547620D01*
X65902380Y59166667D02*
X66616666Y59166667D01*
X66759523Y59119048D01*
X66854761Y59023810D01*
X66902380Y58880953D01*
X66902380Y58785715D01*
X65997619Y59595239D02*
X65950000Y59642858D01*
X65902380Y59738096D01*
X65902380Y59976191D01*
X65950000Y60071429D01*
X65997619Y60119048D01*
X66092857Y60166667D01*
X66188095Y60166667D01*
X66330952Y60119048D01*
X66902380Y59547620D01*
X66902380Y60166667D01*
X68222380Y49523334D02*
X67746190Y49190000D01*
X68222380Y48951905D02*
X67222380Y48951905D01*
X67222380Y49332858D01*
X67270000Y49428096D01*
X67317619Y49475715D01*
X67412857Y49523334D01*
X67555714Y49523334D01*
X67650952Y49475715D01*
X67698571Y49428096D01*
X67746190Y49332858D01*
X67746190Y48951905D01*
X67555714Y50380477D02*
X68222380Y50380477D01*
X67174761Y50142381D02*
X67889047Y49904286D01*
X67889047Y50523334D01*
X68222380Y26023334D02*
X67746190Y25690000D01*
X68222380Y25451905D02*
X67222380Y25451905D01*
X67222380Y25832858D01*
X67270000Y25928096D01*
X67317619Y25975715D01*
X67412857Y26023334D01*
X67555714Y26023334D01*
X67650952Y25975715D01*
X67698571Y25928096D01*
X67746190Y25832858D01*
X67746190Y25451905D01*
X67222380Y26880477D02*
X67222380Y26690000D01*
X67270000Y26594762D01*
X67317619Y26547143D01*
X67460476Y26451905D01*
X67650952Y26404286D01*
X68031904Y26404286D01*
X68127142Y26451905D01*
X68174761Y26499524D01*
X68222380Y26594762D01*
X68222380Y26785239D01*
X68174761Y26880477D01*
X68127142Y26928096D01*
X68031904Y26975715D01*
X67793809Y26975715D01*
X67698571Y26928096D01*
X67650952Y26880477D01*
X67603333Y26785239D01*
X67603333Y26594762D01*
X67650952Y26499524D01*
X67698571Y26451905D01*
X67793809Y26404286D01*
D14*
X59320123Y24675107D02*
X58896790Y25279869D01*
X58594409Y24675107D02*
X58594409Y25945107D01*
X59078218Y25945107D01*
X59199170Y25884630D01*
X59259647Y25824154D01*
X59320123Y25703202D01*
X59320123Y25521773D01*
X59259647Y25400821D01*
X59199170Y25340345D01*
X59078218Y25279869D01*
X58594409Y25279869D01*
X59924885Y24675107D02*
X60166790Y24675107D01*
X60287742Y24735583D01*
X60348218Y24796059D01*
X60469170Y24977488D01*
X60529647Y25219392D01*
X60529647Y25703202D01*
X60469170Y25824154D01*
X60408694Y25884630D01*
X60287742Y25945107D01*
X60045837Y25945107D01*
X59924885Y25884630D01*
X59864409Y25824154D01*
X59803932Y25703202D01*
X59803932Y25400821D01*
X59864409Y25279869D01*
X59924885Y25219392D01*
X60045837Y25158916D01*
X60287742Y25158916D01*
X60408694Y25219392D01*
X60469170Y25279869D01*
X60529647Y25400821D01*
X59320123Y48175107D02*
X58896790Y48779869D01*
X58594409Y48175107D02*
X58594409Y49445107D01*
X59078218Y49445107D01*
X59199170Y49384630D01*
X59259647Y49324154D01*
X59320123Y49203202D01*
X59320123Y49021773D01*
X59259647Y48900821D01*
X59199170Y48840345D01*
X59078218Y48779869D01*
X58594409Y48779869D01*
X60045837Y48900821D02*
X59924885Y48961297D01*
X59864409Y49021773D01*
X59803932Y49142726D01*
X59803932Y49203202D01*
X59864409Y49324154D01*
X59924885Y49384630D01*
X60045837Y49445107D01*
X60287742Y49445107D01*
X60408694Y49384630D01*
X60469170Y49324154D01*
X60529647Y49203202D01*
X60529647Y49142726D01*
X60469170Y49021773D01*
X60408694Y48961297D01*
X60287742Y48900821D01*
X60045837Y48900821D01*
X59924885Y48840345D01*
X59864409Y48779869D01*
X59803932Y48658916D01*
X59803932Y48417011D01*
X59864409Y48296059D01*
X59924885Y48235583D01*
X60045837Y48175107D01*
X60287742Y48175107D01*
X60408694Y48235583D01*
X60469170Y48296059D01*
X60529647Y48417011D01*
X60529647Y48658916D01*
X60469170Y48779869D01*
X60408694Y48840345D01*
X60287742Y48900821D01*
X59320123Y72175107D02*
X58896790Y72779869D01*
X58594409Y72175107D02*
X58594409Y73445107D01*
X59078218Y73445107D01*
X59199170Y73384630D01*
X59259647Y73324154D01*
X59320123Y73203202D01*
X59320123Y73021773D01*
X59259647Y72900821D01*
X59199170Y72840345D01*
X59078218Y72779869D01*
X58594409Y72779869D01*
X59743456Y73445107D02*
X60590123Y73445107D01*
X60045837Y72175107D01*
D13*
X61923333Y40177620D02*
X61590000Y40653810D01*
X61351904Y40177620D02*
X61351904Y41177620D01*
X61732857Y41177620D01*
X61828095Y41130000D01*
X61875714Y41082381D01*
X61923333Y40987143D01*
X61923333Y40844286D01*
X61875714Y40749048D01*
X61828095Y40701429D01*
X61732857Y40653810D01*
X61351904Y40653810D01*
X62828095Y41177620D02*
X62351904Y41177620D01*
X62304285Y40701429D01*
X62351904Y40749048D01*
X62447142Y40796667D01*
X62685238Y40796667D01*
X62780476Y40749048D01*
X62828095Y40701429D01*
X62875714Y40606191D01*
X62875714Y40368096D01*
X62828095Y40272858D01*
X62780476Y40225239D01*
X62685238Y40177620D01*
X62447142Y40177620D01*
X62351904Y40225239D01*
X62304285Y40272858D01*
X68222380Y73523334D02*
X67746190Y73190000D01*
X68222380Y72951905D02*
X67222380Y72951905D01*
X67222380Y73332858D01*
X67270000Y73428096D01*
X67317619Y73475715D01*
X67412857Y73523334D01*
X67555714Y73523334D01*
X67650952Y73475715D01*
X67698571Y73428096D01*
X67746190Y73332858D01*
X67746190Y72951905D01*
X67317619Y73904286D02*
X67270000Y73951905D01*
X67222380Y74047143D01*
X67222380Y74285239D01*
X67270000Y74380477D01*
X67317619Y74428096D01*
X67412857Y74475715D01*
X67508095Y74475715D01*
X67650952Y74428096D01*
X68222380Y73856667D01*
X68222380Y74475715D01*
X61923333Y64177620D02*
X61590000Y64653810D01*
X61351904Y64177620D02*
X61351904Y65177620D01*
X61732857Y65177620D01*
X61828095Y65130000D01*
X61875714Y65082381D01*
X61923333Y64987143D01*
X61923333Y64844286D01*
X61875714Y64749048D01*
X61828095Y64701429D01*
X61732857Y64653810D01*
X61351904Y64653810D01*
X62256666Y65177620D02*
X62875714Y65177620D01*
X62542380Y64796667D01*
X62685238Y64796667D01*
X62780476Y64749048D01*
X62828095Y64701429D01*
X62875714Y64606191D01*
X62875714Y64368096D01*
X62828095Y64272858D01*
X62780476Y64225239D01*
X62685238Y64177620D01*
X62399523Y64177620D01*
X62304285Y64225239D01*
X62256666Y64272858D01*
X61923333Y87677620D02*
X61590000Y88153810D01*
X61351904Y87677620D02*
X61351904Y88677620D01*
X61732857Y88677620D01*
X61828095Y88630000D01*
X61875714Y88582381D01*
X61923333Y88487143D01*
X61923333Y88344286D01*
X61875714Y88249048D01*
X61828095Y88201429D01*
X61732857Y88153810D01*
X61351904Y88153810D01*
X62875714Y87677620D02*
X62304285Y87677620D01*
X62590000Y87677620D02*
X62590000Y88677620D01*
X62494761Y88534762D01*
X62399523Y88439524D01*
X62304285Y88391905D01*
%LPC*%
D15*
X93145000Y28525000D03*
X93145000Y35225000D03*
D16*
X91915000Y22810000D03*
G36*
G01*
X95265000Y23560000D02*
X95265000Y22060000D01*
G75*
G02*
X95015000Y21810000I-250000J0D01*
G01*
X93815000Y21810000D01*
G75*
G02*
X93565000Y22060000I0J250000D01*
G01*
X93565000Y23560000D01*
G75*
G02*
X93815000Y23810000I250000J0D01*
G01*
X95015000Y23810000D01*
G75*
G02*
X95265000Y23560000I0J-250000D01*
G01*
G37*
D17*
X83225000Y36535000D03*
X87825000Y36535000D03*
D18*
X85525000Y30335000D03*
D19*
X77905000Y24080000D03*
D20*
X77905000Y21540000D03*
G36*
G01*
X86250000Y50154000D02*
X84750000Y50154000D01*
G75*
G02*
X84500000Y50404000I0J250000D01*
G01*
X84500000Y51604000D01*
G75*
G02*
X84750000Y51854000I250000J0D01*
G01*
X86250000Y51854000D01*
G75*
G02*
X86500000Y51604000I0J-250000D01*
G01*
X86500000Y50404000D01*
G75*
G02*
X86250000Y50154000I-250000J0D01*
G01*
G37*
D21*
X85500000Y53504000D03*
D22*
X79175000Y49480000D03*
D23*
X79175000Y34240000D03*
D15*
X93145000Y55195000D03*
X93145000Y48495000D03*
D24*
X86795000Y22810000D03*
X84255000Y22810000D03*
X81715000Y22810000D03*
D21*
X85525000Y44360000D03*
G36*
G01*
X86275000Y41010000D02*
X84775000Y41010000D01*
G75*
G02*
X84525000Y41260000I0J250000D01*
G01*
X84525000Y42460000D01*
G75*
G02*
X84775000Y42710000I250000J0D01*
G01*
X86275000Y42710000D01*
G75*
G02*
X86525000Y42460000I0J-250000D01*
G01*
X86525000Y41260000D01*
G75*
G02*
X86275000Y41010000I-250000J0D01*
G01*
G37*
D15*
X93145000Y69525000D03*
X93145000Y76225000D03*
D16*
X91915000Y63810000D03*
G36*
G01*
X95265000Y64560000D02*
X95265000Y63060000D01*
G75*
G02*
X95015000Y62810000I-250000J0D01*
G01*
X93815000Y62810000D01*
G75*
G02*
X93565000Y63060000I0J250000D01*
G01*
X93565000Y64560000D01*
G75*
G02*
X93815000Y64810000I250000J0D01*
G01*
X95015000Y64810000D01*
G75*
G02*
X95265000Y64560000I0J-250000D01*
G01*
G37*
D17*
X83225000Y77535000D03*
X87825000Y77535000D03*
D18*
X85525000Y71335000D03*
D19*
X77905000Y65080000D03*
D20*
X77905000Y62540000D03*
G36*
G01*
X86250000Y91154000D02*
X84750000Y91154000D01*
G75*
G02*
X84500000Y91404000I0J250000D01*
G01*
X84500000Y92604000D01*
G75*
G02*
X84750000Y92854000I250000J0D01*
G01*
X86250000Y92854000D01*
G75*
G02*
X86500000Y92604000I0J-250000D01*
G01*
X86500000Y91404000D01*
G75*
G02*
X86250000Y91154000I-250000J0D01*
G01*
G37*
D21*
X85500000Y94504000D03*
D22*
X79175000Y90480000D03*
D23*
X79175000Y75240000D03*
D15*
X93145000Y96195000D03*
X93145000Y89495000D03*
D24*
X86795000Y63810000D03*
X84255000Y63810000D03*
X81715000Y63810000D03*
D21*
X85525000Y85360000D03*
G36*
G01*
X86275000Y82010000D02*
X84775000Y82010000D01*
G75*
G02*
X84525000Y82260000I0J250000D01*
G01*
X84525000Y83460000D01*
G75*
G02*
X84775000Y83710000I250000J0D01*
G01*
X86275000Y83710000D01*
G75*
G02*
X86525000Y83460000I0J-250000D01*
G01*
X86525000Y82260000D01*
G75*
G02*
X86275000Y82010000I-250000J0D01*
G01*
G37*
D25*
X52300000Y52000000D03*
X49700000Y52000000D03*
X44000000Y64050000D03*
X51620000Y64050000D03*
X49900000Y68050000D03*
X52500000Y68050000D03*
X49700000Y36000000D03*
X52300000Y36000000D03*
X46540000Y68050000D03*
X44000000Y68050000D03*
X44000000Y60000000D03*
X46540000Y60000000D03*
X46540000Y52000000D03*
X44000000Y52000000D03*
X51620000Y56000000D03*
X44000000Y56000000D03*
X44000000Y36000000D03*
X46540000Y36000000D03*
X52600000Y60050000D03*
X50000000Y60050000D03*
G36*
G01*
X51350000Y88725000D02*
X51350000Y87275000D01*
G75*
G02*
X51100000Y87025000I-250000J0D01*
G01*
X49900000Y87025000D01*
G75*
G02*
X49650000Y87275000I0J250000D01*
G01*
X49650000Y88725000D01*
G75*
G02*
X49900000Y88975000I250000J0D01*
G01*
X51100000Y88975000D01*
G75*
G02*
X51350000Y88725000I0J-250000D01*
G01*
G37*
D26*
X48000000Y88000000D03*
X45500000Y88000000D03*
X45500000Y81000000D03*
X48000000Y81000000D03*
G36*
G01*
X51350000Y81725000D02*
X51350000Y80275000D01*
G75*
G02*
X51100000Y80025000I-250000J0D01*
G01*
X49900000Y80025000D01*
G75*
G02*
X49650000Y80275000I0J250000D01*
G01*
X49650000Y81725000D01*
G75*
G02*
X49900000Y81975000I250000J0D01*
G01*
X51100000Y81975000D01*
G75*
G02*
X51350000Y81725000I0J-250000D01*
G01*
G37*
D25*
X44000000Y32000000D03*
X51620000Y32000000D03*
X44000000Y28000000D03*
X46540000Y28000000D03*
X44000000Y24000000D03*
X51620000Y24000000D03*
X52300000Y28000000D03*
X49700000Y28000000D03*
X51620000Y48000000D03*
X44000000Y48000000D03*
D27*
X45460000Y74530000D03*
X48000000Y77070000D03*
X50540000Y74530000D03*
X50540000Y42530000D03*
X48000000Y45070000D03*
X45460000Y42530000D03*
D25*
X44000000Y7700000D03*
X44000000Y10300000D03*
X38000000Y2000000D03*
X38000000Y9620000D03*
X34000000Y2000000D03*
X34000000Y4540000D03*
X24000000Y4540000D03*
X24000000Y2000000D03*
D28*
X11000000Y3500000D03*
X11000000Y6000000D03*
G36*
G01*
X10275000Y9350000D02*
X11725000Y9350000D01*
G75*
G02*
X11975000Y9100000I0J-250000D01*
G01*
X11975000Y7900000D01*
G75*
G02*
X11725000Y7650000I-250000J0D01*
G01*
X10275000Y7650000D01*
G75*
G02*
X10025000Y7900000I0J250000D01*
G01*
X10025000Y9100000D01*
G75*
G02*
X10275000Y9350000I250000J0D01*
G01*
G37*
D25*
X48000000Y9620000D03*
X48000000Y2000000D03*
X28000000Y9620000D03*
X28000000Y2000000D03*
X34000000Y10300000D03*
X34000000Y7700000D03*
X24000000Y7700000D03*
X24000000Y10300000D03*
X44000000Y4540000D03*
X44000000Y2000000D03*
D27*
X17470000Y3460000D03*
X14930000Y6000000D03*
X17470000Y8540000D03*
D29*
X65440000Y62500000D03*
D30*
X62900000Y62500000D03*
X62900000Y33500000D03*
D29*
X65440000Y33500000D03*
D28*
X70000000Y86000000D03*
X70000000Y83500000D03*
G36*
G01*
X70725000Y80150000D02*
X69275000Y80150000D01*
G75*
G02*
X69025000Y80400000I0J250000D01*
G01*
X69025000Y81600000D01*
G75*
G02*
X69275000Y81850000I250000J0D01*
G01*
X70725000Y81850000D01*
G75*
G02*
X70975000Y81600000I0J-250000D01*
G01*
X70975000Y80400000D01*
G75*
G02*
X70725000Y80150000I-250000J0D01*
G01*
G37*
D29*
X65440000Y81500000D03*
D30*
X62900000Y81500000D03*
D29*
X65440000Y38500000D03*
D30*
X62900000Y38500000D03*
X62900000Y86500000D03*
D29*
X65440000Y86500000D03*
D30*
X62900000Y57500000D03*
D29*
X65440000Y57500000D03*
D25*
X57600000Y62500000D03*
X60200000Y62500000D03*
X60200000Y81500000D03*
X57600000Y81500000D03*
X57600000Y86500000D03*
X60200000Y86500000D03*
D28*
X70000000Y38000000D03*
X70000000Y35500000D03*
G36*
G01*
X70725000Y32150000D02*
X69275000Y32150000D01*
G75*
G02*
X69025000Y32400000I0J250000D01*
G01*
X69025000Y33600000D01*
G75*
G02*
X69275000Y33850000I250000J0D01*
G01*
X70725000Y33850000D01*
G75*
G02*
X70975000Y33600000I0J-250000D01*
G01*
X70975000Y32400000D01*
G75*
G02*
X70725000Y32150000I-250000J0D01*
G01*
G37*
G36*
G01*
X70725000Y56150000D02*
X69275000Y56150000D01*
G75*
G02*
X69025000Y56400000I0J250000D01*
G01*
X69025000Y57600000D01*
G75*
G02*
X69275000Y57850000I250000J0D01*
G01*
X70725000Y57850000D01*
G75*
G02*
X70975000Y57600000I0J-250000D01*
G01*
X70975000Y56400000D01*
G75*
G02*
X70725000Y56150000I-250000J0D01*
G01*
G37*
X70000000Y59500000D03*
X70000000Y62000000D03*
D31*
X65400000Y45880000D03*
D32*
X65400000Y53500000D03*
D25*
X57600000Y38500000D03*
X60200000Y38500000D03*
D31*
X65400000Y22380000D03*
D32*
X65400000Y30000000D03*
D27*
X62440000Y26030000D03*
X59900000Y28570000D03*
X57360000Y26030000D03*
D25*
X60200000Y33500000D03*
X57600000Y33500000D03*
D27*
X62440000Y49530000D03*
X59900000Y52070000D03*
X57360000Y49530000D03*
X57360000Y73530000D03*
X59900000Y76070000D03*
X62440000Y73530000D03*
D31*
X58280000Y43000000D03*
D32*
X65900000Y43000000D03*
X65400000Y77500000D03*
D31*
X65400000Y69880000D03*
D32*
X65900000Y67000000D03*
D31*
X58280000Y67000000D03*
D32*
X65900000Y90500000D03*
D31*
X58280000Y90500000D03*
D25*
X60200000Y57500000D03*
X57600000Y57500000D03*
X30000000Y52000000D03*
X32540000Y52000000D03*
X36000000Y60050000D03*
X38600000Y60050000D03*
X30000000Y68050000D03*
X32540000Y68050000D03*
X38500000Y68050000D03*
X35900000Y68050000D03*
X32540000Y36000000D03*
X30000000Y36000000D03*
X30000000Y56000000D03*
X37620000Y56000000D03*
X32540000Y60000000D03*
X30000000Y60000000D03*
X37620000Y64050000D03*
X30000000Y64050000D03*
X35700000Y52000000D03*
X38300000Y52000000D03*
X38300000Y36000000D03*
X35700000Y36000000D03*
X30000000Y48000000D03*
X37620000Y48000000D03*
G36*
G01*
X37350000Y81725000D02*
X37350000Y80275000D01*
G75*
G02*
X37100000Y80025000I-250000J0D01*
G01*
X35900000Y80025000D01*
G75*
G02*
X35650000Y80275000I0J250000D01*
G01*
X35650000Y81725000D01*
G75*
G02*
X35900000Y81975000I250000J0D01*
G01*
X37100000Y81975000D01*
G75*
G02*
X37350000Y81725000I0J-250000D01*
G01*
G37*
D26*
X34000000Y81000000D03*
X31500000Y81000000D03*
D27*
X36540000Y74530000D03*
X34000000Y77070000D03*
X31460000Y74530000D03*
D25*
X35700000Y28000000D03*
X38300000Y28000000D03*
D27*
X31460000Y42530000D03*
X34000000Y45070000D03*
X36540000Y42530000D03*
D26*
X31500000Y88000000D03*
X34000000Y88000000D03*
G36*
G01*
X37350000Y88725000D02*
X37350000Y87275000D01*
G75*
G02*
X37100000Y87025000I-250000J0D01*
G01*
X35900000Y87025000D01*
G75*
G02*
X35650000Y87275000I0J250000D01*
G01*
X35650000Y88725000D01*
G75*
G02*
X35900000Y88975000I250000J0D01*
G01*
X37100000Y88975000D01*
G75*
G02*
X37350000Y88725000I0J-250000D01*
G01*
G37*
D25*
X37620000Y24000000D03*
X30000000Y24000000D03*
X32540000Y28000000D03*
X30000000Y28000000D03*
X37620000Y32000000D03*
X30000000Y32000000D03*
X16000000Y52000000D03*
X18540000Y52000000D03*
X22000000Y60050000D03*
X24600000Y60050000D03*
X16000000Y68050000D03*
X18540000Y68050000D03*
X24500000Y68050000D03*
X21900000Y68050000D03*
X18540000Y36000000D03*
X16000000Y36000000D03*
X16000000Y56000000D03*
X23620000Y56000000D03*
X18540000Y60000000D03*
X16000000Y60000000D03*
X23620000Y64050000D03*
X16000000Y64050000D03*
X21700000Y52000000D03*
X24300000Y52000000D03*
X24300000Y36000000D03*
X21700000Y36000000D03*
X16000000Y48000000D03*
X23620000Y48000000D03*
G36*
G01*
X23350000Y81725000D02*
X23350000Y80275000D01*
G75*
G02*
X23100000Y80025000I-250000J0D01*
G01*
X21900000Y80025000D01*
G75*
G02*
X21650000Y80275000I0J250000D01*
G01*
X21650000Y81725000D01*
G75*
G02*
X21900000Y81975000I250000J0D01*
G01*
X23100000Y81975000D01*
G75*
G02*
X23350000Y81725000I0J-250000D01*
G01*
G37*
D26*
X20000000Y81000000D03*
X17500000Y81000000D03*
D27*
X22540000Y74530000D03*
X20000000Y77070000D03*
X17460000Y74530000D03*
D25*
X21700000Y28000000D03*
X24300000Y28000000D03*
D27*
X17460000Y42530000D03*
X20000000Y45070000D03*
X22540000Y42530000D03*
D26*
X17500000Y88000000D03*
X20000000Y88000000D03*
G36*
G01*
X23350000Y88725000D02*
X23350000Y87275000D01*
G75*
G02*
X23100000Y87025000I-250000J0D01*
G01*
X21900000Y87025000D01*
G75*
G02*
X21650000Y87275000I0J250000D01*
G01*
X21650000Y88725000D01*
G75*
G02*
X21900000Y88975000I250000J0D01*
G01*
X23100000Y88975000D01*
G75*
G02*
X23350000Y88725000I0J-250000D01*
G01*
G37*
D25*
X23620000Y24000000D03*
X16000000Y24000000D03*
X18540000Y28000000D03*
X16000000Y28000000D03*
X23620000Y32000000D03*
X16000000Y32000000D03*
X2000000Y52000000D03*
X4540000Y52000000D03*
X8000000Y60050000D03*
X10600000Y60050000D03*
X2000000Y68050000D03*
X4540000Y68050000D03*
X10500000Y68050000D03*
X7900000Y68050000D03*
X4540000Y36000000D03*
X2000000Y36000000D03*
X2000000Y56000000D03*
X9620000Y56000000D03*
X4540000Y60000000D03*
X2000000Y60000000D03*
X9620000Y64050000D03*
X2000000Y64050000D03*
X7700000Y52000000D03*
X10300000Y52000000D03*
X10300000Y36000000D03*
X7700000Y36000000D03*
X2000000Y48000000D03*
X9620000Y48000000D03*
G36*
G01*
X9350000Y81725000D02*
X9350000Y80275000D01*
G75*
G02*
X9100000Y80025000I-250000J0D01*
G01*
X7900000Y80025000D01*
G75*
G02*
X7650000Y80275000I0J250000D01*
G01*
X7650000Y81725000D01*
G75*
G02*
X7900000Y81975000I250000J0D01*
G01*
X9100000Y81975000D01*
G75*
G02*
X9350000Y81725000I0J-250000D01*
G01*
G37*
D26*
X6000000Y81000000D03*
X3500000Y81000000D03*
D27*
X8540000Y74530000D03*
X6000000Y77070000D03*
X3460000Y74530000D03*
D25*
X7700000Y28000000D03*
X10300000Y28000000D03*
D27*
X3460000Y42530000D03*
X6000000Y45070000D03*
X8540000Y42530000D03*
D26*
X3500000Y88000000D03*
X6000000Y88000000D03*
G36*
G01*
X9350000Y88725000D02*
X9350000Y87275000D01*
G75*
G02*
X9100000Y87025000I-250000J0D01*
G01*
X7900000Y87025000D01*
G75*
G02*
X7650000Y87275000I0J250000D01*
G01*
X7650000Y88725000D01*
G75*
G02*
X7900000Y88975000I250000J0D01*
G01*
X9100000Y88975000D01*
G75*
G02*
X9350000Y88725000I0J-250000D01*
G01*
G37*
D25*
X9620000Y24000000D03*
X2000000Y24000000D03*
X4540000Y28000000D03*
X2000000Y28000000D03*
X9620000Y32000000D03*
X2000000Y32000000D03*
M02*
