M48
; DRILL file {KiCad (5.1.8)-1} date 05/15/21 16:40:04
; FORMAT={-:-/ absolute / metric / decimal}
; #@! TF.CreationDate,2021-05-15T16:40:04+09:00
; #@! TF.GenerationSoftware,Kicad,Pcbnew,(5.1.8)-1
FMAT,2
METRIC
T1C0.400
T2C0.700
T3C0.800
T4C0.870
T5C0.900
T6C0.950
T7C1.000
T8C1.090
T9C1.200
T10C1.700
%
G90
G05
T1
X10.0Y45.0
X14.0Y9.0
X24.0Y45.0
X38.0Y45.0
X52.0Y45.0
X68.0Y77.0
X68.0Y53.0
X68.0Y29.0
T2
X45.46Y42.53
X48.0Y45.07
X50.54Y42.53
X57.36Y49.53
X59.9Y52.07
X62.44Y49.53
X17.46Y42.53
X20.0Y45.07
X22.54Y42.53
X3.46Y42.53
X6.0Y45.07
X8.54Y42.53
X17.46Y74.53
X20.0Y77.07
X22.54Y74.53
X31.46Y42.53
X34.0Y45.07
X36.54Y42.53
X57.36Y26.03
X59.9Y28.57
X62.44Y26.03
X14.93Y6.0
X17.47Y8.54
X17.47Y3.46
X57.36Y73.53
X59.9Y76.07
X62.44Y73.53
X45.46Y74.53
X48.0Y77.07
X50.54Y74.53
X3.46Y74.53
X6.0Y77.07
X8.54Y74.53
X31.46Y74.53
X34.0Y77.07
X36.54Y74.53
T3
X65.4Y77.5
X65.4Y69.88
X65.4Y30.0
X65.4Y22.38
X58.28Y43.0
X65.9Y43.0
X58.28Y67.0
X65.9Y67.0
X65.4Y53.5
X65.4Y45.88
X58.28Y90.5
X65.9Y90.5
T4
X37.62Y24.0
X51.62Y24.0
X9.62Y24.0
X23.62Y24.0
T5
X62.9Y86.5
X65.44Y86.5
X62.9Y33.5
X65.44Y33.5
X62.9Y57.5
X65.44Y57.5
X62.9Y81.5
X65.44Y81.5
X62.9Y62.5
X65.44Y62.5
X62.9Y38.5
X65.44Y38.5
T6
X45.5Y81.0
X48.0Y81.0
X50.5Y81.0
X31.5Y88.0
X34.0Y88.0
X36.5Y88.0
X17.5Y81.0
X20.0Y81.0
X22.5Y81.0
X45.5Y88.0
X48.0Y88.0
X50.5Y88.0
X11.0Y8.5
X11.0Y6.0
X11.0Y3.5
X3.5Y88.0
X6.0Y88.0
X8.5Y88.0
X70.0Y38.0
X70.0Y35.5
X70.0Y33.0
X70.0Y62.0
X70.0Y59.5
X70.0Y57.0
X31.5Y81.0
X34.0Y81.0
X36.5Y81.0
X3.5Y81.0
X6.0Y81.0
X8.5Y81.0
X70.0Y86.0
X70.0Y83.5
X70.0Y81.0
X17.5Y88.0
X20.0Y88.0
X22.5Y88.0
T7
X91.915Y63.81
X94.415Y63.81
X16.0Y36.0
X18.54Y36.0
X35.9Y68.05
X38.5Y68.05
X2.0Y24.0
X34.0Y4.54
X34.0Y2.0
X35.7Y52.0
X38.3Y52.0
X7.7Y52.0
X10.3Y52.0
X16.0Y28.0
X18.54Y28.0
X50.0Y60.05
X52.6Y60.05
X85.525Y85.36
X85.525Y82.86
X48.0Y9.62
X48.0Y2.0
X16.0Y48.0
X23.62Y48.0
X21.9Y68.05
X24.5Y68.05
X44.0Y48.0
X51.62Y48.0
X30.0Y68.05
X32.54Y68.05
X2.0Y60.0
X4.54Y60.0
X16.0Y24.0
X44.0Y56.0
X51.62Y56.0
X49.7Y52.0
X52.3Y52.0
X35.7Y28.0
X38.3Y28.0
X85.5Y53.504
X85.5Y51.004
X21.7Y36.0
X24.3Y36.0
X44.0Y28.0
X46.54Y28.0
X77.905Y24.08
X77.905Y21.54
X30.0Y28.0
X32.54Y28.0
X30.0Y36.0
X32.54Y36.0
X34.0Y10.3
X34.0Y7.7
X57.6Y57.5
X60.2Y57.5
X30.0Y52.0
X32.54Y52.0
X2.0Y56.0
X9.62Y56.0
X21.7Y28.0
X24.3Y28.0
X44.0Y60.0
X46.54Y60.0
X49.7Y28.0
X52.3Y28.0
X21.7Y52.0
X24.3Y52.0
X2.0Y28.0
X4.54Y28.0
X44.0Y32.0
X51.62Y32.0
X16.0Y68.05
X18.54Y68.05
X38.0Y9.62
X38.0Y2.0
X30.0Y64.05
X37.62Y64.05
X2.0Y32.0
X9.62Y32.0
X16.0Y32.0
X23.62Y32.0
X2.0Y36.0
X4.54Y36.0
X49.9Y68.05
X52.5Y68.05
X16.0Y60.0
X18.54Y60.0
X44.0Y10.3
X44.0Y7.7
X22.0Y60.05
X24.6Y60.05
X2.0Y48.0
X9.62Y48.0
X91.915Y22.81
X94.415Y22.81
X30.0Y32.0
X37.62Y32.0
X30.0Y48.0
X37.62Y48.0
X28.0Y9.62
X28.0Y2.0
X30.0Y60.0
X32.54Y60.0
X57.6Y86.5
X60.2Y86.5
X7.9Y68.05
X10.5Y68.05
X2.0Y68.05
X4.54Y68.05
X2.0Y52.0
X4.54Y52.0
X44.0Y36.0
X46.54Y36.0
X44.0Y68.05
X46.54Y68.05
X44.0Y52.0
X46.54Y52.0
X16.0Y52.0
X18.54Y52.0
X24.0Y4.54
X24.0Y2.0
X16.0Y64.05
X23.62Y64.05
X7.7Y28.0
X10.3Y28.0
X44.0Y4.54
X44.0Y2.0
X36.0Y60.05
X38.6Y60.05
X57.6Y81.5
X60.2Y81.5
X57.6Y62.5
X60.2Y62.5
X7.7Y36.0
X10.3Y36.0
X8.0Y60.05
X10.6Y60.05
X77.905Y65.08
X77.905Y62.54
X85.5Y94.504
X85.5Y92.004
X44.0Y64.05
X51.62Y64.05
X30.0Y24.0
X44.0Y24.0
X85.525Y44.36
X85.525Y41.86
X16.0Y56.0
X23.62Y56.0
X24.0Y10.3
X24.0Y7.7
X35.7Y36.0
X38.3Y36.0
X30.0Y56.0
X37.62Y56.0
X57.6Y33.5
X60.2Y33.5
X57.6Y38.5
X60.2Y38.5
X2.0Y64.05
X9.62Y64.05
X49.7Y36.0
X52.3Y36.0
T8
X81.715Y22.81
X84.255Y22.81
X86.795Y22.81
X81.715Y63.81
X84.255Y63.81
X86.795Y63.81
T9
X79.175Y90.48
X79.175Y75.24
X79.175Y49.48
X79.175Y34.24
T10
X93.145Y96.195
X93.145Y89.495
X93.145Y35.225
X93.145Y28.525
X93.145Y76.225
X93.145Y69.525
X93.145Y55.195
X93.145Y48.495
T0
M30
