G04 #@! TF.GenerationSoftware,KiCad,Pcbnew,(5.1.8)-1*
G04 #@! TF.CreationDate,2021-05-15T16:38:38+09:00*
G04 #@! TF.ProjectId,test,74657374-2e6b-4696-9361-645f70636258,rev?*
G04 #@! TF.SameCoordinates,PX4c4b400PY8954400*
G04 #@! TF.FileFunction,Profile,NP*
%FSLAX46Y46*%
G04 Gerber Fmt 4.6, Leading zero omitted, Abs format (unit mm)*
G04 Created by KiCad (PCBNEW (5.1.8)-1) date 2021-05-15 16:38:38*
%MOMM*%
%LPD*%
G01*
G04 APERTURE LIST*
G04 #@! TA.AperFunction,Profile*
%ADD10C,0.050000*%
G04 #@! TD*
G04 APERTURE END LIST*
D10*
X56000000Y21000000D02*
G75*
G02*
X54000000Y21000000I-1000000J0D01*
G01*
X56000000Y21000000D02*
X56000000Y57000000D01*
X56000000Y60000000D02*
G75*
G02*
X54000000Y60000000I-1000000J0D01*
G01*
X56000000Y60000000D02*
X56000000Y92000000D01*
X54000000Y57000000D02*
G75*
G02*
X56000000Y57000000I1000000J0D01*
G01*
X54000000Y21000000D02*
X54000000Y57000000D01*
X54000000Y92000000D02*
X54000000Y60000000D01*
X54000000Y92000000D02*
G75*
G02*
X56000000Y92000000I1000000J0D01*
G01*
X42000000Y21000000D02*
G75*
G02*
X40000000Y21000000I-1000000J0D01*
G01*
X42000000Y21000000D02*
X42000000Y57000000D01*
X42000000Y60000000D02*
G75*
G02*
X40000000Y60000000I-1000000J0D01*
G01*
X42000000Y60000000D02*
X42000000Y92000000D01*
X40000000Y57000000D02*
G75*
G02*
X42000000Y57000000I1000000J0D01*
G01*
X40000000Y21000000D02*
X40000000Y57000000D01*
X40000000Y92000000D02*
X40000000Y60000000D01*
X40000000Y92000000D02*
G75*
G02*
X42000000Y92000000I1000000J0D01*
G01*
X28000000Y21000000D02*
G75*
G02*
X26000000Y21000000I-1000000J0D01*
G01*
X28000000Y21000000D02*
X28000000Y57000000D01*
X28000000Y60000000D02*
G75*
G02*
X26000000Y60000000I-1000000J0D01*
G01*
X28000000Y60000000D02*
X28000000Y92000000D01*
X26000000Y57000000D02*
G75*
G02*
X28000000Y57000000I1000000J0D01*
G01*
X26000000Y21000000D02*
X26000000Y57000000D01*
X26000000Y92000000D02*
X26000000Y60000000D01*
X26000000Y92000000D02*
G75*
G02*
X28000000Y92000000I1000000J0D01*
G01*
X14000000Y21000000D02*
X14000000Y57000000D01*
X12000000Y21000000D02*
X12000000Y57000000D01*
X14000000Y60000000D02*
X14000000Y92000000D01*
X12000000Y92000000D02*
X12000000Y60000000D01*
X12000000Y92000000D02*
G75*
G02*
X14000000Y92000000I1000000J0D01*
G01*
X14000000Y21000000D02*
G75*
G02*
X12000000Y21000000I-1000000J0D01*
G01*
X12000000Y57000000D02*
G75*
G02*
X14000000Y57000000I1000000J0D01*
G01*
X14000000Y60000000D02*
G75*
G02*
X12000000Y60000000I-1000000J0D01*
G01*
X56000000Y18000000D02*
X56000000Y14000000D01*
X54000000Y18000000D02*
G75*
G02*
X56000000Y18000000I1000000J0D01*
G01*
X54000000Y14000000D02*
X54000000Y18000000D01*
X42000000Y18000000D02*
X42000000Y14000000D01*
X40000000Y18000000D02*
G75*
G02*
X42000000Y18000000I1000000J0D01*
G01*
X40000000Y14000000D02*
X40000000Y18000000D01*
X28000000Y18000000D02*
X28000000Y14000000D01*
X26000000Y18000000D02*
G75*
G02*
X28000000Y18000000I1000000J0D01*
G01*
X26000000Y14000000D02*
X26000000Y18000000D01*
X14000000Y18000000D02*
X14000000Y14000000D01*
X12000000Y18000000D02*
G75*
G02*
X14000000Y18000000I1000000J0D01*
G01*
X12000000Y14000000D02*
X12000000Y18000000D01*
X12000000Y12000000D02*
X14000000Y12000000D01*
X26000000Y12000000D02*
X28000000Y12000000D01*
X40000000Y12000000D02*
X42000000Y12000000D01*
X54000000Y12000000D02*
X57000000Y12000000D01*
X47000000Y14000000D02*
X49000000Y14000000D01*
X52000000Y14000000D02*
X54000000Y14000000D01*
X52000000Y12000000D02*
G75*
G02*
X52000000Y14000000I0J1000000D01*
G01*
X52000000Y12000000D02*
X54000000Y12000000D01*
X49000000Y14000000D02*
G75*
G02*
X49000000Y12000000I0J-1000000D01*
G01*
X47000000Y12000000D02*
G75*
G02*
X47000000Y14000000I0J1000000D01*
G01*
X42000000Y12000000D02*
X44000000Y12000000D01*
X44000000Y14000000D02*
G75*
G02*
X44000000Y12000000I0J-1000000D01*
G01*
X42000000Y14000000D02*
X44000000Y14000000D01*
X47000000Y12000000D02*
X49000000Y12000000D01*
X33000000Y14000000D02*
X35000000Y14000000D01*
X38000000Y14000000D02*
X40000000Y14000000D01*
X38000000Y12000000D02*
G75*
G02*
X38000000Y14000000I0J1000000D01*
G01*
X38000000Y12000000D02*
X40000000Y12000000D01*
X35000000Y14000000D02*
G75*
G02*
X35000000Y12000000I0J-1000000D01*
G01*
X33000000Y12000000D02*
G75*
G02*
X33000000Y14000000I0J1000000D01*
G01*
X28000000Y12000000D02*
X30000000Y12000000D01*
X30000000Y14000000D02*
G75*
G02*
X30000000Y12000000I0J-1000000D01*
G01*
X28000000Y14000000D02*
X30000000Y14000000D01*
X33000000Y12000000D02*
X35000000Y12000000D01*
X19000000Y14000000D02*
X21000000Y14000000D01*
X24000000Y14000000D02*
X26000000Y14000000D01*
X24000000Y12000000D02*
G75*
G02*
X24000000Y14000000I0J1000000D01*
G01*
X24000000Y12000000D02*
X26000000Y12000000D01*
X21000000Y14000000D02*
G75*
G02*
X21000000Y12000000I0J-1000000D01*
G01*
X19000000Y12000000D02*
G75*
G02*
X19000000Y14000000I0J1000000D01*
G01*
X14000000Y12000000D02*
X16000000Y12000000D01*
X16000000Y14000000D02*
G75*
G02*
X16000000Y12000000I0J-1000000D01*
G01*
X14000000Y14000000D02*
X16000000Y14000000D01*
X19000000Y12000000D02*
X21000000Y12000000D01*
X10000000Y12000000D02*
X12000000Y12000000D01*
X5000000Y12000000D02*
X7000000Y12000000D01*
X5000000Y14000000D02*
X7000000Y14000000D01*
X7000000Y14000000D02*
G75*
G02*
X7000000Y12000000I0J-1000000D01*
G01*
X5000000Y12000000D02*
G75*
G02*
X5000000Y14000000I0J1000000D01*
G01*
X10000000Y14000000D02*
X12000000Y14000000D01*
X0Y12000000D02*
X2000000Y12000000D01*
X0Y14000000D02*
X2000000Y14000000D01*
X10000000Y12000000D02*
G75*
G02*
X10000000Y14000000I0J1000000D01*
G01*
X2000000Y14000000D02*
G75*
G02*
X2000000Y12000000I0J-1000000D01*
G01*
X76000000Y67000000D02*
X76000000Y92000000D01*
X74000000Y67000000D02*
X74000000Y92000000D01*
X74000000Y92000000D02*
G75*
G02*
X76000000Y92000000I1000000J0D01*
G01*
X76000000Y95000000D02*
G75*
G02*
X74000000Y95000000I-1000000J0D01*
G01*
X74000000Y99000000D02*
X74000000Y95000000D01*
X76000000Y95000000D02*
X76000000Y99000000D01*
X56000000Y95000000D02*
G75*
G02*
X54000000Y95000000I-1000000J0D01*
G01*
X54000000Y99000000D02*
X54000000Y95000000D01*
X56000000Y95000000D02*
X56000000Y99000000D01*
X42000000Y95000000D02*
G75*
G02*
X40000000Y95000000I-1000000J0D01*
G01*
X40000000Y99000000D02*
X40000000Y95000000D01*
X42000000Y95000000D02*
X42000000Y99000000D01*
X28000000Y95000000D02*
G75*
G02*
X26000000Y95000000I-1000000J0D01*
G01*
X26000000Y99000000D02*
X26000000Y95000000D01*
X28000000Y95000000D02*
X28000000Y99000000D01*
X14000000Y95000000D02*
X14000000Y99000000D01*
X14000000Y95000000D02*
G75*
G02*
X12000000Y95000000I-1000000J0D01*
G01*
X12000000Y99000000D02*
X12000000Y95000000D01*
X74000000Y54000000D02*
X74000000Y64000000D01*
X76000000Y60000000D02*
X80000000Y60000000D01*
X76000000Y60000000D02*
X76000000Y64000000D01*
X76000000Y67000000D02*
G75*
G02*
X74000000Y67000000I-1000000J0D01*
G01*
X74000000Y64000000D02*
G75*
G02*
X76000000Y64000000I1000000J0D01*
G01*
X83000000Y58000000D02*
X91000000Y58000000D01*
X83000000Y60000000D02*
X91000000Y60000000D01*
X91000000Y60000000D02*
G75*
G02*
X91000000Y58000000I0J-1000000D01*
G01*
X83000000Y58000000D02*
G75*
G02*
X83000000Y60000000I0J1000000D01*
G01*
X94000000Y58000000D02*
X98000000Y58000000D01*
X94000000Y60000000D02*
X98000000Y60000000D01*
X94000000Y58000000D02*
G75*
G02*
X94000000Y60000000I0J1000000D01*
G01*
X80000000Y60000000D02*
G75*
G02*
X80000000Y58000000I0J-1000000D01*
G01*
X76000000Y58000000D02*
X80000000Y58000000D01*
X76000000Y54000000D02*
X76000000Y58000000D01*
X76000000Y26000000D02*
X76000000Y51000000D01*
X74000000Y51000000D02*
X74000000Y26000000D01*
X74000000Y51000000D02*
G75*
G02*
X76000000Y51000000I1000000J0D01*
G01*
X76000000Y54000000D02*
G75*
G02*
X74000000Y54000000I-1000000J0D01*
G01*
X76000000Y19000000D02*
X76000000Y23000000D01*
X74000000Y14000000D02*
X74000000Y23000000D01*
X76000000Y26000000D02*
G75*
G02*
X74000000Y26000000I-1000000J0D01*
G01*
X74000000Y23000000D02*
G75*
G02*
X76000000Y23000000I1000000J0D01*
G01*
X56000000Y14000000D02*
X74000000Y14000000D01*
X57000000Y0D02*
X57000000Y12000000D01*
X0Y0D02*
X57000000Y0D01*
X0Y12000000D02*
X0Y0D01*
X0Y99000000D02*
X0Y14000000D01*
X80600000Y54100000D02*
G75*
G03*
X80600000Y54100000I-1600000J0D01*
G01*
X76000000Y19000000D02*
X98000000Y19000000D01*
X80603122Y30100000D02*
G75*
G03*
X80603122Y30100000I-1603122J0D01*
G01*
X98000000Y19000000D02*
X98000000Y58000000D01*
X80600000Y95100000D02*
G75*
G03*
X80600000Y95100000I-1600000J0D01*
G01*
X80603122Y71100000D02*
G75*
G03*
X80603122Y71100000I-1603122J0D01*
G01*
X98000000Y60000000D02*
X98000000Y99000000D01*
X98000000Y99000000D02*
X76000000Y99000000D01*
X56000000Y99000000D02*
X74000000Y99000000D01*
X42000000Y99000000D02*
X54000000Y99000000D01*
X28000000Y99000000D02*
X40000000Y99000000D01*
X14000000Y99000000D02*
X26000000Y99000000D01*
X0Y99000000D02*
X12000000Y99000000D01*
X49600000Y95000000D02*
G75*
G03*
X49600000Y95000000I-1600000J0D01*
G01*
X49603122Y18000000D02*
G75*
G03*
X49603122Y18000000I-1603122J0D01*
G01*
X5600000Y6000000D02*
G75*
G03*
X5600000Y6000000I-1600000J0D01*
G01*
X54600000Y6000000D02*
G75*
G03*
X54600000Y6000000I-1600000J0D01*
G01*
X66600000Y18000000D02*
G75*
G03*
X66600000Y18000000I-1600000J0D01*
G01*
X66600000Y95000000D02*
G75*
G03*
X66600000Y95000000I-1600000J0D01*
G01*
X35603122Y18000000D02*
G75*
G03*
X35603122Y18000000I-1603122J0D01*
G01*
X35600000Y95000000D02*
G75*
G03*
X35600000Y95000000I-1600000J0D01*
G01*
X21603122Y18000000D02*
G75*
G03*
X21603122Y18000000I-1603122J0D01*
G01*
X21600000Y95000000D02*
G75*
G03*
X21600000Y95000000I-1600000J0D01*
G01*
X7603122Y18000000D02*
G75*
G03*
X7603122Y18000000I-1603122J0D01*
G01*
X7600000Y95000000D02*
G75*
G03*
X7600000Y95000000I-1600000J0D01*
G01*
M02*
