M48
; DRILL file {KiCad (5.1.8)-1} date 03/06/21 21:25:49
; FORMAT={-:-/ absolute / metric / decimal}
; #@! TF.CreationDate,2021-03-06T21:25:49+09:00
; #@! TF.GenerationSoftware,Kicad,Pcbnew,(5.1.8)-1
FMAT,2
METRIC
T1C0.400
T2C0.950
T3C1.000
%
G90
G05
T1
X1.475Y89.755
X1.475Y82.135
X1.475Y74.515
X1.475Y66.895
X1.58Y59.38
X1.58Y51.76
X1.58Y44.14
X1.58Y36.52
X1.58Y28.9
X1.58Y21.28
X1.58Y13.66
X1.58Y6.04
X6.025Y92.4
X11.105Y13.66
X12.0Y84.0
X12.375Y93.035
X12.375Y58.11
X12.375Y54.935
X13.0Y81.0
X13.645Y92.23
X13.645Y91.23
X13.645Y90.23
X13.645Y89.23
X13.645Y12.39
X17.455Y86.685
X18.0Y111.0
X18.455Y86.685
X18.725Y94.305
X19.455Y86.685
X20.63Y86.685
X21.9Y86.685
X23.17Y96.845
X23.17Y95.845
X26.41Y35.885
X26.41Y33.345
X26.41Y30.805
X26.41Y28.265
X26.41Y25.725
X26.98Y44.775
X26.98Y43.505
X26.98Y40.965
X28.0Y80.0
X28.25Y74.62
X29.0Y111.0
X29.52Y93.035
X29.52Y63.19
X30.79Y63.19
X30.79Y23.185
X32.06Y63.19
X32.695Y20.645
X33.33Y84.145
X33.33Y63.19
X33.965Y18.105
X34.6Y51.76
X34.6Y44.14
X34.6Y3.5
X35.235Y68.27
X35.596Y63.27
X35.87Y45.41
X36.505Y68.905
X38.791Y6.04
X39.68Y70.175
X39.68Y68.905
X40.0Y111.0
X40.0Y93.0
X40.315Y75.255
X40.315Y73.985
X40.315Y72.715
X40.95Y68.905
X40.95Y6.635
X41.585Y42.87
X41.585Y40.965
X42.22Y51.76
X42.22Y44.14
X42.22Y18.105
X42.474Y5.278
X42.64Y67.635
X43.49Y84.78
X43.49Y76.525
X43.49Y18.105
X43.49Y14.93
X43.49Y13.66
X44.76Y76.525
X49.84Y51.76
X51.11Y16.835
X51.11Y15.66
X51.11Y14.66
X51.11Y13.66
X52.0Y111.0
X56.19Y72.715
X57.46Y51.76
X57.46Y44.14
X57.46Y21.28
X60.0Y71.445
X61.27Y71.445
X62.0Y111.0
X62.468Y84.073
X62.54Y71.445
X62.54Y5.405
X63.175Y84.78
X63.595Y71.445
X63.683Y12.39
X64.445Y87.32
X65.0Y18.0
X65.08Y51.76
X65.08Y44.14
X65.715Y89.86
X65.715Y84.78
X66.35Y6.04
X66.985Y90.495
X66.985Y86.47
X66.985Y83.51
X66.985Y82.24
X66.985Y77.795
X66.985Y39.06
X66.985Y33.345
X68.255Y79.7
X68.255Y78.43
X68.255Y71.445
X69.457Y1.595
X70.0Y6.0
X71.43Y88.59
X72.0Y95.0
X72.065Y83.51
X72.065Y80.335
X72.7Y51.76
X72.7Y44.14
X73.0Y111.0
X73.335Y68.905
X74.605Y61.285
X75.24Y3.5
X76.51Y6.04
X79.685Y67.0
X80.32Y51.76
X80.32Y41.6
X80.32Y40.33
X80.32Y39.06
X80.32Y37.79
X80.955Y61.285
X80.955Y36.52
X83.0Y111.0
X83.495Y7.31
X84.13Y73.07
X86.67Y88.59
X86.67Y87.32
X86.67Y84.78
X86.67Y82.24
X86.67Y72.08
X87.305Y12.39
X87.94Y51.76
X87.94Y28.9
X87.94Y21.28
X88.575Y12.39
X89.845Y12.39
X90.0Y1.0
X91.0Y6.0
X91.115Y12.39
X92.385Y77.795
X93.0Y111.0
X93.02Y89.225
X95.0Y95.0
X96.195Y61.285
X96.83Y68.905
X98.735Y89.225
X101.91Y56.205
X102.0Y83.0
X103.0Y111.0
X103.18Y92.4
X103.18Y51.76
X103.18Y44.14
X103.18Y36.52
X103.18Y28.9
X103.18Y21.28
X103.18Y13.66
X108.895Y66.365
X109.53Y62.555
X110.0Y74.0
X110.165Y67.635
X110.8Y51.76
X110.8Y44.14
X110.8Y36.52
X110.8Y28.9
X110.8Y21.28
X110.8Y13.66
X111.084Y68.621
X112.07Y66.365
X113.34Y66.365
X115.245Y56.205
X115.39Y58.745
X116.19Y73.35
X118.42Y51.76
X118.42Y44.14
X118.42Y36.52
X118.42Y28.9
X118.42Y21.28
X118.42Y13.66
X118.42Y6.04
T2
X2.85Y103.035
X2.85Y100.535
X2.85Y98.035
X2.85Y95.535
X2.85Y93.035
X98.22Y3.5
X100.72Y3.5
X103.22Y3.5
X105.72Y3.5
X37.34Y3.5
X39.84Y3.5
X42.34Y3.5
X44.84Y3.5
X47.34Y3.5
X49.84Y3.5
X57.66Y3.5
X60.16Y3.5
X62.66Y3.5
X65.16Y3.5
X67.66Y3.5
X70.16Y3.5
X17.02Y3.5
X19.52Y3.5
X22.02Y3.5
X24.52Y3.5
X27.02Y3.5
X29.52Y3.5
X77.98Y3.5
X80.48Y3.5
X82.98Y3.5
X85.48Y3.5
X87.98Y3.5
X90.48Y3.5
T3
X11.105Y110.815
X13.605Y110.815
X70.16Y31.44
X70.16Y28.9
X70.16Y26.36
X70.16Y23.82
X70.16Y21.28
X33.37Y110.815
X35.87Y110.815
X86.71Y110.815
X89.21Y110.815
X9.2Y54.3
X9.2Y51.76
X9.2Y49.22
X9.2Y46.68
X9.2Y44.14
X9.2Y41.6
X9.2Y39.06
X9.2Y36.52
X9.2Y33.98
X9.2Y31.44
X9.2Y28.9
X9.2Y26.36
X9.2Y23.82
X56.19Y110.815
X58.69Y110.815
X90.48Y51.76
X90.48Y49.22
X90.48Y46.68
X90.48Y44.14
X21.9Y110.815
X24.4Y110.815
X76.51Y110.815
X79.01Y110.815
X6.66Y59.38
X6.66Y56.84
X6.66Y54.3
X6.66Y51.76
X6.66Y49.22
X9.835Y103.83
X9.835Y101.29
X9.835Y98.75
X19.995Y103.83
X19.995Y91.13
X22.535Y103.83
X22.535Y91.13
X32.695Y103.83
X32.695Y91.13
X35.235Y103.83
X35.235Y91.13
X45.395Y103.83
X45.395Y91.13
X47.935Y103.83
X47.935Y91.13
X58.095Y103.83
X58.095Y91.13
X60.635Y103.83
X60.635Y91.13
X29.52Y87.32
X29.52Y84.78
X29.52Y82.24
X66.39Y110.815
X68.89Y110.815
X6.66Y72.08
X6.66Y69.54
X6.66Y67.0
X6.66Y64.46
X6.66Y61.92
X44.76Y110.815
X47.26Y110.815
X49.84Y31.44
X49.84Y28.9
X49.84Y26.36
X49.84Y23.82
X49.84Y21.28
X39.68Y31.44
X39.68Y28.9
X39.68Y26.36
X39.68Y23.82
X39.68Y21.28
X6.66Y21.28
X9.2Y21.28
X15.55Y78.43
X18.09Y78.43
X33.33Y65.73
X35.87Y65.73
X38.41Y65.73
X40.95Y65.73
X29.52Y51.76
X29.52Y49.22
X29.52Y46.68
X29.52Y44.14
X9.2Y84.78
X9.2Y82.24
X9.2Y79.7
X9.2Y77.16
X9.2Y74.62
X9.2Y72.08
X9.2Y69.54
X9.2Y67.0
X9.2Y64.46
X9.2Y61.92
X9.2Y59.38
X9.2Y56.84
X90.48Y87.32
X90.48Y84.78
X90.48Y82.24
X77.78Y79.7
X77.78Y64.46
X80.32Y79.7
X80.32Y64.46
X82.86Y79.7
X82.86Y64.46
X85.4Y79.7
X85.4Y64.46
X87.94Y79.7
X87.94Y64.46
X90.48Y79.7
X90.48Y64.46
X93.02Y79.7
X93.02Y64.46
X95.56Y79.7
X95.56Y64.46
X98.1Y79.7
X98.1Y64.46
X100.64Y79.7
X100.64Y64.46
X103.18Y79.7
X103.18Y64.46
X105.72Y79.7
X105.72Y64.46
X108.26Y79.7
X108.26Y64.46
X110.8Y79.7
X110.8Y64.46
X113.34Y79.7
X113.34Y64.46
X6.66Y46.68
X6.66Y44.14
X6.66Y41.6
X6.66Y39.06
X6.66Y36.52
X60.0Y18.74
X47.3Y78.43
X47.3Y65.73
X49.84Y78.43
X49.84Y65.73
X52.38Y78.43
X52.38Y65.73
X54.92Y78.43
X54.92Y65.73
X57.46Y78.43
X57.46Y65.73
X67.62Y65.73
X70.16Y65.73
X96.83Y110.815
X99.33Y110.815
X6.66Y84.78
X6.66Y82.24
X6.66Y79.7
X6.66Y77.16
X6.66Y74.62
X6.66Y33.98
X6.66Y31.44
X6.66Y28.9
X6.66Y26.36
X6.66Y23.82
X80.32Y31.44
X80.32Y28.9
X80.32Y26.36
X80.32Y23.82
X80.32Y21.28
X7.0Y14.255
X7.0Y11.755
X107.03Y110.815
X109.53Y110.815
X66.985Y103.83
X66.985Y101.29
X66.985Y98.75
X69.525Y91.13
X72.065Y91.13
X74.605Y103.83
X74.605Y91.13
X77.145Y103.83
X77.145Y91.13
X79.685Y103.83
X79.685Y91.13
X82.225Y103.83
X82.225Y91.13
X87.305Y91.13
X89.845Y91.13
X92.385Y103.83
X92.385Y91.13
X94.925Y103.83
X94.925Y91.13
X97.465Y103.83
X97.465Y91.13
X100.005Y103.83
X100.005Y91.13
X105.085Y91.13
X107.625Y91.13
X110.165Y103.83
X110.165Y91.13
X112.705Y103.83
X112.705Y91.13
X115.245Y103.83
X115.245Y91.13
X117.785Y103.83
X117.785Y91.13
X16.82Y58.745
X16.82Y56.205
X16.82Y53.665
X16.82Y51.125
X16.82Y48.585
X16.82Y46.045
X16.82Y43.505
X16.82Y40.965
X16.82Y38.425
X16.82Y35.885
X16.82Y33.345
X16.82Y30.805
X16.82Y28.265
X16.82Y25.725
X16.82Y23.185
X16.82Y20.645
X16.82Y18.105
X16.82Y15.565
X19.36Y58.745
X19.36Y56.205
X19.36Y53.665
X19.36Y51.125
X19.36Y48.585
X19.36Y46.045
X19.36Y43.505
X19.36Y40.965
X19.36Y38.425
X19.36Y35.885
X19.36Y33.345
X19.36Y30.805
X19.36Y28.265
X19.36Y25.725
X19.36Y23.185
X19.36Y20.645
X19.36Y18.105
X19.36Y15.565
X21.9Y10.485
X24.44Y10.485
X26.98Y58.745
X26.98Y10.485
X29.52Y58.745
X29.52Y10.485
X32.06Y58.745
X32.06Y10.485
X34.6Y58.745
X34.6Y10.485
X37.14Y58.745
X37.14Y10.485
X39.68Y58.745
X39.68Y10.485
X42.22Y58.745
X44.76Y58.745
X44.76Y10.485
X47.3Y10.485
X49.84Y58.745
X49.84Y10.485
X52.38Y58.745
X52.38Y10.485
X54.92Y58.745
X54.92Y10.485
X57.46Y58.745
X57.46Y10.485
X60.0Y58.745
X60.0Y10.485
X62.54Y58.745
X62.54Y10.485
X65.08Y58.745
X67.62Y58.745
X67.62Y10.485
X70.16Y10.485
X71.684Y58.745
X72.7Y10.485
X74.224Y58.745
X75.24Y10.485
X76.764Y58.745
X77.78Y10.485
X79.304Y58.745
X80.32Y10.485
X81.844Y58.745
X82.86Y10.485
X84.384Y58.745
X85.4Y10.485
X86.924Y58.745
X89.464Y58.745
X92.004Y58.745
X94.544Y58.745
X60.0Y31.44
X60.0Y28.9
X60.0Y26.36
X60.0Y23.82
X60.0Y21.28
T0
M30
