%TF.GenerationSoftware,KiCad,Pcbnew,(5.1.8)-1*%
%TF.CreationDate,2021-03-06T21:20:45+09:00*%
%TF.ProjectId,power module,706f7765-7220-46d6-9f64-756c652e6b69,rev?*%
%TF.SameCoordinates,PX525bfc0PY59a0560*%
%TF.FileFunction,Copper,L2,Bot*%
%TF.FilePolarity,Positive*%
%FSLAX46Y46*%
G04 Gerber Fmt 4.6, Leading zero omitted, Abs format (unit mm)*
G04 Created by KiCad (PCBNEW (5.1.8)-1) date 2021-03-06 21:20:45*
%MOMM*%
%LPD*%
G01*
G04 APERTURE LIST*
%TA.AperFunction,ComponentPad*%
%ADD10R,1.700000X1.700000*%
%TD*%
%TA.AperFunction,ComponentPad*%
%ADD11O,1.700000X1.700000*%
%TD*%
%TA.AperFunction,ComponentPad*%
%ADD12C,1.120000*%
%TD*%
%TA.AperFunction,ComponentPad*%
%ADD13R,2.300000X1.500000*%
%TD*%
%TA.AperFunction,ComponentPad*%
%ADD14O,2.300000X1.500000*%
%TD*%
%TA.AperFunction,ViaPad*%
%ADD15C,0.800000*%
%TD*%
%TA.AperFunction,Conductor*%
%ADD16C,1.000000*%
%TD*%
%TA.AperFunction,Conductor*%
%ADD17C,0.500000*%
%TD*%
%TA.AperFunction,Conductor*%
%ADD18C,0.254000*%
%TD*%
%TA.AperFunction,Conductor*%
%ADD19C,0.100000*%
%TD*%
G04 APERTURE END LIST*
D10*
%TO.P,J2,1*%
%TO.N,Net-(C1-Pad1)*%
X27940000Y2540000D03*
D11*
%TO.P,J2,2*%
%TO.N,Net-(C2-Pad1)*%
X25400000Y2540000D03*
%TO.P,J2,3*%
%TO.N,Net-(J2-Pad3)*%
X22860000Y2540000D03*
%TO.P,J2,4*%
%TO.N,Net-(C1-Pad2)*%
X20320000Y2540000D03*
%TD*%
D10*
%TO.P,J1,1*%
%TO.N,Net-(C1-Pad1)*%
X2540000Y15240000D03*
D11*
%TO.P,J1,2*%
%TO.N,Net-(C1-Pad2)*%
X5080000Y15240000D03*
%TD*%
D12*
%TO.P,R3,1*%
%TO.N,Net-(PS1-Pad6)*%
X26315000Y5080000D03*
%TO.P,R3,2*%
%TO.N,Net-(R3-Pad2)*%
X23775000Y7620000D03*
%TO.P,R3,3*%
X26315000Y10160000D03*
%TD*%
D13*
%TO.P,U1,1*%
%TO.N,Net-(C1-Pad1)*%
X6985000Y4445000D03*
D14*
%TO.P,U1,2*%
%TO.N,Net-(C1-Pad2)*%
X6985000Y6985000D03*
%TO.P,U1,3*%
%TO.N,Net-(J2-Pad3)*%
X6985000Y9525000D03*
%TD*%
D15*
%TO.N,Net-(C1-Pad2)*%
X8890000Y11430000D03*
X22860000Y13970000D03*
X9525000Y16510000D03*
X13970000Y8890000D03*
X1270000Y1270000D03*
X1270000Y4445000D03*
X4445000Y1270000D03*
X15240000Y2540000D03*
X29210000Y10160000D03*
%TO.N,Net-(C2-Pad1)*%
X17145000Y5080000D03*
X19050000Y11430000D03*
X27940000Y10795000D03*
X23495000Y17145000D03*
%TO.N,Net-(PS1-Pad1)*%
X15875000Y5080000D03*
X13970000Y11430000D03*
%TD*%
D16*
%TO.N,Net-(C1-Pad1)*%
X27940000Y5319802D02*
X27940000Y2540000D01*
X20629793Y12630009D02*
X27940000Y5319802D01*
X13472939Y12630009D02*
X20629793Y12630009D01*
X8835010Y7992080D02*
X13472939Y12630009D01*
X8835010Y6295010D02*
X8835010Y7992080D01*
X6985000Y4445000D02*
X8835010Y6295010D01*
%TO.N,Net-(C2-Pad1)*%
X17145000Y9525000D02*
X19050000Y11430000D01*
X17145000Y5080000D02*
X17145000Y9525000D01*
D17*
X23495000Y15240000D02*
X23495000Y17145000D01*
X27940000Y10795000D02*
X23495000Y15240000D01*
D16*
%TO.N,Net-(J2-Pad3)*%
X21309999Y989999D02*
X22860000Y2540000D01*
X7279999Y989999D02*
X21309999Y989999D01*
X5134999Y3134999D02*
X7279999Y989999D01*
X5134999Y7674999D02*
X5134999Y3134999D01*
X6985000Y9525000D02*
X5134999Y7674999D01*
%TO.N,Net-(PS1-Pad1)*%
X15875000Y9525000D02*
X13970000Y11430000D01*
X15875000Y5080000D02*
X15875000Y9525000D01*
%TD*%
D18*
%TO.N,Net-(C1-Pad2)*%
X22460000Y17043061D02*
X22499774Y16843102D01*
X22577795Y16654744D01*
X22610001Y16606545D01*
X22610000Y15283469D01*
X22605719Y15240000D01*
X22610000Y15196531D01*
X22610000Y15196524D01*
X22622805Y15066511D01*
X22673411Y14899688D01*
X22755589Y14745942D01*
X22866183Y14611183D01*
X22899956Y14583466D01*
X26139849Y11343572D01*
X25966431Y11309077D01*
X25748955Y11218995D01*
X25553232Y11088217D01*
X25386783Y10921768D01*
X25256005Y10726045D01*
X25165923Y10508569D01*
X25120000Y10277697D01*
X25120000Y10042303D01*
X25165923Y9811431D01*
X25245417Y9619516D01*
X21471789Y13393144D01*
X21436242Y13436458D01*
X21263416Y13578293D01*
X21066240Y13683685D01*
X20852292Y13748586D01*
X20685545Y13765009D01*
X20685544Y13765009D01*
X20629793Y13770500D01*
X20574042Y13765009D01*
X13528690Y13765009D01*
X13472938Y13770500D01*
X13417187Y13765009D01*
X13250440Y13748586D01*
X13036492Y13683685D01*
X12839316Y13578293D01*
X12666490Y13436458D01*
X12630948Y13393150D01*
X8775455Y9537656D01*
X8749960Y9796507D01*
X8670764Y10057581D01*
X8542157Y10298188D01*
X8369081Y10509081D01*
X8158188Y10682157D01*
X7917581Y10810764D01*
X7656507Y10889960D01*
X7453037Y10910000D01*
X6516963Y10910000D01*
X6313493Y10889960D01*
X6052419Y10810764D01*
X5811812Y10682157D01*
X5600919Y10509081D01*
X5427843Y10298188D01*
X5299236Y10057581D01*
X5220040Y9796507D01*
X5193299Y9525000D01*
X5210027Y9355159D01*
X4371863Y8516994D01*
X4328550Y8481448D01*
X4186715Y8308622D01*
X4096586Y8140000D01*
X4081323Y8111445D01*
X4016422Y7897497D01*
X3994508Y7674999D01*
X3999999Y7619247D01*
X4000000Y3190760D01*
X3994508Y3134999D01*
X4016422Y2912501D01*
X4081323Y2698553D01*
X4130383Y2606769D01*
X4186716Y2501376D01*
X4328551Y2328550D01*
X4371859Y2293008D01*
X6004866Y660000D01*
X660000Y660000D01*
X660000Y16090000D01*
X1051928Y16090000D01*
X1051928Y14390000D01*
X1064188Y14265518D01*
X1100498Y14145820D01*
X1159463Y14035506D01*
X1238815Y13938815D01*
X1335506Y13859463D01*
X1445820Y13800498D01*
X1565518Y13764188D01*
X1690000Y13751928D01*
X3390000Y13751928D01*
X3514482Y13764188D01*
X3634180Y13800498D01*
X3744494Y13859463D01*
X3841185Y13938815D01*
X3920537Y14035506D01*
X3979502Y14145820D01*
X4003966Y14226466D01*
X4079731Y14142412D01*
X4313080Y13968359D01*
X4575901Y13843175D01*
X4723110Y13798524D01*
X4953000Y13919845D01*
X4953000Y15113000D01*
X5207000Y15113000D01*
X5207000Y13919845D01*
X5436890Y13798524D01*
X5584099Y13843175D01*
X5846920Y13968359D01*
X6080269Y14142412D01*
X6275178Y14358645D01*
X6424157Y14608748D01*
X6521481Y14883109D01*
X6400814Y15113000D01*
X5207000Y15113000D01*
X4953000Y15113000D01*
X4933000Y15113000D01*
X4933000Y15367000D01*
X4953000Y15367000D01*
X4953000Y16560155D01*
X5207000Y16560155D01*
X5207000Y15367000D01*
X6400814Y15367000D01*
X6521481Y15596891D01*
X6424157Y15871252D01*
X6275178Y16121355D01*
X6080269Y16337588D01*
X5846920Y16511641D01*
X5584099Y16636825D01*
X5436890Y16681476D01*
X5207000Y16560155D01*
X4953000Y16560155D01*
X4723110Y16681476D01*
X4575901Y16636825D01*
X4313080Y16511641D01*
X4079731Y16337588D01*
X4003966Y16253534D01*
X3979502Y16334180D01*
X3920537Y16444494D01*
X3841185Y16541185D01*
X3744494Y16620537D01*
X3634180Y16679502D01*
X3514482Y16715812D01*
X3390000Y16728072D01*
X1690000Y16728072D01*
X1565518Y16715812D01*
X1445820Y16679502D01*
X1335506Y16620537D01*
X1238815Y16541185D01*
X1159463Y16444494D01*
X1100498Y16334180D01*
X1064188Y16214482D01*
X1051928Y16090000D01*
X660000Y16090000D01*
X660000Y17120000D01*
X22460000Y17120000D01*
X22460000Y17043061D01*
%TA.AperFunction,Conductor*%
D19*
G36*
X22460000Y17043061D02*
G01*
X22499774Y16843102D01*
X22577795Y16654744D01*
X22610001Y16606545D01*
X22610000Y15283469D01*
X22605719Y15240000D01*
X22610000Y15196531D01*
X22610000Y15196524D01*
X22622805Y15066511D01*
X22673411Y14899688D01*
X22755589Y14745942D01*
X22866183Y14611183D01*
X22899956Y14583466D01*
X26139849Y11343572D01*
X25966431Y11309077D01*
X25748955Y11218995D01*
X25553232Y11088217D01*
X25386783Y10921768D01*
X25256005Y10726045D01*
X25165923Y10508569D01*
X25120000Y10277697D01*
X25120000Y10042303D01*
X25165923Y9811431D01*
X25245417Y9619516D01*
X21471789Y13393144D01*
X21436242Y13436458D01*
X21263416Y13578293D01*
X21066240Y13683685D01*
X20852292Y13748586D01*
X20685545Y13765009D01*
X20685544Y13765009D01*
X20629793Y13770500D01*
X20574042Y13765009D01*
X13528690Y13765009D01*
X13472938Y13770500D01*
X13417187Y13765009D01*
X13250440Y13748586D01*
X13036492Y13683685D01*
X12839316Y13578293D01*
X12666490Y13436458D01*
X12630948Y13393150D01*
X8775455Y9537656D01*
X8749960Y9796507D01*
X8670764Y10057581D01*
X8542157Y10298188D01*
X8369081Y10509081D01*
X8158188Y10682157D01*
X7917581Y10810764D01*
X7656507Y10889960D01*
X7453037Y10910000D01*
X6516963Y10910000D01*
X6313493Y10889960D01*
X6052419Y10810764D01*
X5811812Y10682157D01*
X5600919Y10509081D01*
X5427843Y10298188D01*
X5299236Y10057581D01*
X5220040Y9796507D01*
X5193299Y9525000D01*
X5210027Y9355159D01*
X4371863Y8516994D01*
X4328550Y8481448D01*
X4186715Y8308622D01*
X4096586Y8140000D01*
X4081323Y8111445D01*
X4016422Y7897497D01*
X3994508Y7674999D01*
X3999999Y7619247D01*
X4000000Y3190760D01*
X3994508Y3134999D01*
X4016422Y2912501D01*
X4081323Y2698553D01*
X4130383Y2606769D01*
X4186716Y2501376D01*
X4328551Y2328550D01*
X4371859Y2293008D01*
X6004866Y660000D01*
X660000Y660000D01*
X660000Y16090000D01*
X1051928Y16090000D01*
X1051928Y14390000D01*
X1064188Y14265518D01*
X1100498Y14145820D01*
X1159463Y14035506D01*
X1238815Y13938815D01*
X1335506Y13859463D01*
X1445820Y13800498D01*
X1565518Y13764188D01*
X1690000Y13751928D01*
X3390000Y13751928D01*
X3514482Y13764188D01*
X3634180Y13800498D01*
X3744494Y13859463D01*
X3841185Y13938815D01*
X3920537Y14035506D01*
X3979502Y14145820D01*
X4003966Y14226466D01*
X4079731Y14142412D01*
X4313080Y13968359D01*
X4575901Y13843175D01*
X4723110Y13798524D01*
X4953000Y13919845D01*
X4953000Y15113000D01*
X5207000Y15113000D01*
X5207000Y13919845D01*
X5436890Y13798524D01*
X5584099Y13843175D01*
X5846920Y13968359D01*
X6080269Y14142412D01*
X6275178Y14358645D01*
X6424157Y14608748D01*
X6521481Y14883109D01*
X6400814Y15113000D01*
X5207000Y15113000D01*
X4953000Y15113000D01*
X4933000Y15113000D01*
X4933000Y15367000D01*
X4953000Y15367000D01*
X4953000Y16560155D01*
X5207000Y16560155D01*
X5207000Y15367000D01*
X6400814Y15367000D01*
X6521481Y15596891D01*
X6424157Y15871252D01*
X6275178Y16121355D01*
X6080269Y16337588D01*
X5846920Y16511641D01*
X5584099Y16636825D01*
X5436890Y16681476D01*
X5207000Y16560155D01*
X4953000Y16560155D01*
X4723110Y16681476D01*
X4575901Y16636825D01*
X4313080Y16511641D01*
X4079731Y16337588D01*
X4003966Y16253534D01*
X3979502Y16334180D01*
X3920537Y16444494D01*
X3841185Y16541185D01*
X3744494Y16620537D01*
X3634180Y16679502D01*
X3514482Y16715812D01*
X3390000Y16728072D01*
X1690000Y16728072D01*
X1565518Y16715812D01*
X1445820Y16679502D01*
X1335506Y16620537D01*
X1238815Y16541185D01*
X1159463Y16444494D01*
X1100498Y16334180D01*
X1064188Y16214482D01*
X1051928Y16090000D01*
X660000Y16090000D01*
X660000Y17120000D01*
X22460000Y17120000D01*
X22460000Y17043061D01*
G37*
%TD.AperFunction*%
D18*
X29820001Y660000D02*
X22585131Y660000D01*
X22980132Y1055000D01*
X23006260Y1055000D01*
X23293158Y1112068D01*
X23563411Y1224010D01*
X23806632Y1386525D01*
X24013475Y1593368D01*
X24130000Y1767760D01*
X24246525Y1593368D01*
X24453368Y1386525D01*
X24696589Y1224010D01*
X24966842Y1112068D01*
X25253740Y1055000D01*
X25546260Y1055000D01*
X25833158Y1112068D01*
X26103411Y1224010D01*
X26346632Y1386525D01*
X26478487Y1518380D01*
X26500498Y1445820D01*
X26559463Y1335506D01*
X26638815Y1238815D01*
X26735506Y1159463D01*
X26845820Y1100498D01*
X26965518Y1064188D01*
X27090000Y1051928D01*
X28790000Y1051928D01*
X28914482Y1064188D01*
X29034180Y1100498D01*
X29144494Y1159463D01*
X29241185Y1238815D01*
X29320537Y1335506D01*
X29379502Y1445820D01*
X29415812Y1565518D01*
X29428072Y1690000D01*
X29428072Y3390000D01*
X29415812Y3514482D01*
X29379502Y3634180D01*
X29320537Y3744494D01*
X29241185Y3841185D01*
X29144494Y3920537D01*
X29075000Y3957683D01*
X29075000Y5264050D01*
X29080491Y5319802D01*
X29058577Y5542301D01*
X28993676Y5756249D01*
X28888284Y5953425D01*
X28746449Y6126251D01*
X28703141Y6161793D01*
X25774517Y9090417D01*
X25966431Y9010923D01*
X26197303Y8965000D01*
X26432697Y8965000D01*
X26663569Y9010923D01*
X26881045Y9101005D01*
X27076768Y9231783D01*
X27243217Y9398232D01*
X27373995Y9593955D01*
X27464077Y9811431D01*
X27475182Y9867258D01*
X27638102Y9799774D01*
X27838061Y9760000D01*
X28041939Y9760000D01*
X28241898Y9799774D01*
X28430256Y9877795D01*
X28599774Y9991063D01*
X28743937Y10135226D01*
X28857205Y10304744D01*
X28935226Y10493102D01*
X28975000Y10693061D01*
X28975000Y10896939D01*
X28935226Y11096898D01*
X28857205Y11285256D01*
X28743937Y11454774D01*
X28599774Y11598937D01*
X28430256Y11712205D01*
X28241898Y11790226D01*
X28185044Y11801535D01*
X24380000Y15606578D01*
X24380000Y16606546D01*
X24412205Y16654744D01*
X24490226Y16843102D01*
X24530000Y17043061D01*
X24530000Y17120000D01*
X29820000Y17120000D01*
X29820001Y660000D01*
%TA.AperFunction,Conductor*%
D19*
G36*
X29820001Y660000D02*
G01*
X22585131Y660000D01*
X22980132Y1055000D01*
X23006260Y1055000D01*
X23293158Y1112068D01*
X23563411Y1224010D01*
X23806632Y1386525D01*
X24013475Y1593368D01*
X24130000Y1767760D01*
X24246525Y1593368D01*
X24453368Y1386525D01*
X24696589Y1224010D01*
X24966842Y1112068D01*
X25253740Y1055000D01*
X25546260Y1055000D01*
X25833158Y1112068D01*
X26103411Y1224010D01*
X26346632Y1386525D01*
X26478487Y1518380D01*
X26500498Y1445820D01*
X26559463Y1335506D01*
X26638815Y1238815D01*
X26735506Y1159463D01*
X26845820Y1100498D01*
X26965518Y1064188D01*
X27090000Y1051928D01*
X28790000Y1051928D01*
X28914482Y1064188D01*
X29034180Y1100498D01*
X29144494Y1159463D01*
X29241185Y1238815D01*
X29320537Y1335506D01*
X29379502Y1445820D01*
X29415812Y1565518D01*
X29428072Y1690000D01*
X29428072Y3390000D01*
X29415812Y3514482D01*
X29379502Y3634180D01*
X29320537Y3744494D01*
X29241185Y3841185D01*
X29144494Y3920537D01*
X29075000Y3957683D01*
X29075000Y5264050D01*
X29080491Y5319802D01*
X29058577Y5542301D01*
X28993676Y5756249D01*
X28888284Y5953425D01*
X28746449Y6126251D01*
X28703141Y6161793D01*
X25774517Y9090417D01*
X25966431Y9010923D01*
X26197303Y8965000D01*
X26432697Y8965000D01*
X26663569Y9010923D01*
X26881045Y9101005D01*
X27076768Y9231783D01*
X27243217Y9398232D01*
X27373995Y9593955D01*
X27464077Y9811431D01*
X27475182Y9867258D01*
X27638102Y9799774D01*
X27838061Y9760000D01*
X28041939Y9760000D01*
X28241898Y9799774D01*
X28430256Y9877795D01*
X28599774Y9991063D01*
X28743937Y10135226D01*
X28857205Y10304744D01*
X28935226Y10493102D01*
X28975000Y10693061D01*
X28975000Y10896939D01*
X28935226Y11096898D01*
X28857205Y11285256D01*
X28743937Y11454774D01*
X28599774Y11598937D01*
X28430256Y11712205D01*
X28241898Y11790226D01*
X28185044Y11801535D01*
X24380000Y15606578D01*
X24380000Y16606546D01*
X24412205Y16654744D01*
X24490226Y16843102D01*
X24530000Y17043061D01*
X24530000Y17120000D01*
X29820000Y17120000D01*
X29820001Y660000D01*
G37*
%TD.AperFunction*%
D18*
X23069114Y8585556D02*
X23013232Y8548217D01*
X22846783Y8381768D01*
X22716005Y8186045D01*
X22625923Y7968569D01*
X22580000Y7737697D01*
X22580000Y7502303D01*
X22625923Y7271431D01*
X22716005Y7053955D01*
X22846783Y6858232D01*
X23013232Y6691783D01*
X23208955Y6561005D01*
X23426431Y6470923D01*
X23657303Y6425000D01*
X23892697Y6425000D01*
X24123569Y6470923D01*
X24341045Y6561005D01*
X24536768Y6691783D01*
X24703217Y6858232D01*
X24740556Y6914114D01*
X25609114Y6045556D01*
X25553232Y6008217D01*
X25386783Y5841768D01*
X25256005Y5646045D01*
X25165923Y5428569D01*
X25120000Y5197697D01*
X25120000Y4962303D01*
X25165923Y4731431D01*
X25256005Y4513955D01*
X25386783Y4318232D01*
X25553232Y4151783D01*
X25748955Y4021005D01*
X25966431Y3930923D01*
X26197303Y3885000D01*
X26432697Y3885000D01*
X26663569Y3930923D01*
X26805000Y3989506D01*
X26805000Y3957683D01*
X26735506Y3920537D01*
X26638815Y3841185D01*
X26559463Y3744494D01*
X26500498Y3634180D01*
X26478487Y3561620D01*
X26346632Y3693475D01*
X26103411Y3855990D01*
X25833158Y3967932D01*
X25546260Y4025000D01*
X25253740Y4025000D01*
X24966842Y3967932D01*
X24696589Y3855990D01*
X24453368Y3693475D01*
X24246525Y3486632D01*
X24130000Y3312240D01*
X24013475Y3486632D01*
X23806632Y3693475D01*
X23563411Y3855990D01*
X23293158Y3967932D01*
X23006260Y4025000D01*
X22713740Y4025000D01*
X22426842Y3967932D01*
X22156589Y3855990D01*
X21913368Y3693475D01*
X21706525Y3486632D01*
X21584805Y3304466D01*
X21515178Y3421355D01*
X21320269Y3637588D01*
X21086920Y3811641D01*
X20824099Y3936825D01*
X20676890Y3981476D01*
X20447000Y3860155D01*
X20447000Y2667000D01*
X20467000Y2667000D01*
X20467000Y2413000D01*
X20447000Y2413000D01*
X20447000Y2393000D01*
X20193000Y2393000D01*
X20193000Y2413000D01*
X18999186Y2413000D01*
X18878519Y2183109D01*
X18899132Y2124999D01*
X7750131Y2124999D01*
X6978239Y2896891D01*
X18878519Y2896891D01*
X18999186Y2667000D01*
X20193000Y2667000D01*
X20193000Y3860155D01*
X19963110Y3981476D01*
X19815901Y3936825D01*
X19553080Y3811641D01*
X19319731Y3637588D01*
X19124822Y3421355D01*
X18975843Y3171252D01*
X18878519Y2896891D01*
X6978239Y2896891D01*
X6818201Y3056928D01*
X8135000Y3056928D01*
X8259482Y3069188D01*
X8379180Y3105498D01*
X8489494Y3164463D01*
X8586185Y3243815D01*
X8665537Y3340506D01*
X8724502Y3450820D01*
X8760812Y3570518D01*
X8773072Y3695000D01*
X8773072Y4627940D01*
X9598150Y5453019D01*
X9641459Y5488561D01*
X9783294Y5661387D01*
X9888686Y5858563D01*
X9953587Y6072511D01*
X9970010Y6239258D01*
X9970010Y6239265D01*
X9975500Y6295009D01*
X9970010Y6350753D01*
X9970010Y7521949D01*
X13122110Y10674048D01*
X13128012Y10666857D01*
X14740001Y9054867D01*
X14740000Y5024249D01*
X14756423Y4857502D01*
X14821324Y4643554D01*
X14926716Y4446377D01*
X15068551Y4273551D01*
X15241377Y4131716D01*
X15438553Y4026324D01*
X15652501Y3961423D01*
X15875000Y3939509D01*
X16097498Y3961423D01*
X16311446Y4026324D01*
X16508623Y4131716D01*
X16510000Y4132846D01*
X16511377Y4131716D01*
X16708553Y4026324D01*
X16922501Y3961423D01*
X17145000Y3939509D01*
X17367498Y3961423D01*
X17581446Y4026324D01*
X17778623Y4131716D01*
X17951449Y4273551D01*
X18093284Y4446377D01*
X18198676Y4643553D01*
X18263577Y4857501D01*
X18280000Y5024248D01*
X18280000Y9054869D01*
X19891988Y10666856D01*
X19998284Y10796377D01*
X20103676Y10993553D01*
X20168577Y11207501D01*
X20190491Y11430000D01*
X20186757Y11467914D01*
X23069114Y8585556D01*
%TA.AperFunction,Conductor*%
D19*
G36*
X23069114Y8585556D02*
G01*
X23013232Y8548217D01*
X22846783Y8381768D01*
X22716005Y8186045D01*
X22625923Y7968569D01*
X22580000Y7737697D01*
X22580000Y7502303D01*
X22625923Y7271431D01*
X22716005Y7053955D01*
X22846783Y6858232D01*
X23013232Y6691783D01*
X23208955Y6561005D01*
X23426431Y6470923D01*
X23657303Y6425000D01*
X23892697Y6425000D01*
X24123569Y6470923D01*
X24341045Y6561005D01*
X24536768Y6691783D01*
X24703217Y6858232D01*
X24740556Y6914114D01*
X25609114Y6045556D01*
X25553232Y6008217D01*
X25386783Y5841768D01*
X25256005Y5646045D01*
X25165923Y5428569D01*
X25120000Y5197697D01*
X25120000Y4962303D01*
X25165923Y4731431D01*
X25256005Y4513955D01*
X25386783Y4318232D01*
X25553232Y4151783D01*
X25748955Y4021005D01*
X25966431Y3930923D01*
X26197303Y3885000D01*
X26432697Y3885000D01*
X26663569Y3930923D01*
X26805000Y3989506D01*
X26805000Y3957683D01*
X26735506Y3920537D01*
X26638815Y3841185D01*
X26559463Y3744494D01*
X26500498Y3634180D01*
X26478487Y3561620D01*
X26346632Y3693475D01*
X26103411Y3855990D01*
X25833158Y3967932D01*
X25546260Y4025000D01*
X25253740Y4025000D01*
X24966842Y3967932D01*
X24696589Y3855990D01*
X24453368Y3693475D01*
X24246525Y3486632D01*
X24130000Y3312240D01*
X24013475Y3486632D01*
X23806632Y3693475D01*
X23563411Y3855990D01*
X23293158Y3967932D01*
X23006260Y4025000D01*
X22713740Y4025000D01*
X22426842Y3967932D01*
X22156589Y3855990D01*
X21913368Y3693475D01*
X21706525Y3486632D01*
X21584805Y3304466D01*
X21515178Y3421355D01*
X21320269Y3637588D01*
X21086920Y3811641D01*
X20824099Y3936825D01*
X20676890Y3981476D01*
X20447000Y3860155D01*
X20447000Y2667000D01*
X20467000Y2667000D01*
X20467000Y2413000D01*
X20447000Y2413000D01*
X20447000Y2393000D01*
X20193000Y2393000D01*
X20193000Y2413000D01*
X18999186Y2413000D01*
X18878519Y2183109D01*
X18899132Y2124999D01*
X7750131Y2124999D01*
X6978239Y2896891D01*
X18878519Y2896891D01*
X18999186Y2667000D01*
X20193000Y2667000D01*
X20193000Y3860155D01*
X19963110Y3981476D01*
X19815901Y3936825D01*
X19553080Y3811641D01*
X19319731Y3637588D01*
X19124822Y3421355D01*
X18975843Y3171252D01*
X18878519Y2896891D01*
X6978239Y2896891D01*
X6818201Y3056928D01*
X8135000Y3056928D01*
X8259482Y3069188D01*
X8379180Y3105498D01*
X8489494Y3164463D01*
X8586185Y3243815D01*
X8665537Y3340506D01*
X8724502Y3450820D01*
X8760812Y3570518D01*
X8773072Y3695000D01*
X8773072Y4627940D01*
X9598150Y5453019D01*
X9641459Y5488561D01*
X9783294Y5661387D01*
X9888686Y5858563D01*
X9953587Y6072511D01*
X9970010Y6239258D01*
X9970010Y6239265D01*
X9975500Y6295009D01*
X9970010Y6350753D01*
X9970010Y7521949D01*
X13122110Y10674048D01*
X13128012Y10666857D01*
X14740001Y9054867D01*
X14740000Y5024249D01*
X14756423Y4857502D01*
X14821324Y4643554D01*
X14926716Y4446377D01*
X15068551Y4273551D01*
X15241377Y4131716D01*
X15438553Y4026324D01*
X15652501Y3961423D01*
X15875000Y3939509D01*
X16097498Y3961423D01*
X16311446Y4026324D01*
X16508623Y4131716D01*
X16510000Y4132846D01*
X16511377Y4131716D01*
X16708553Y4026324D01*
X16922501Y3961423D01*
X17145000Y3939509D01*
X17367498Y3961423D01*
X17581446Y4026324D01*
X17778623Y4131716D01*
X17951449Y4273551D01*
X18093284Y4446377D01*
X18198676Y4643553D01*
X18263577Y4857501D01*
X18280000Y5024248D01*
X18280000Y9054869D01*
X19891988Y10666856D01*
X19998284Y10796377D01*
X20103676Y10993553D01*
X20168577Y11207501D01*
X20190491Y11430000D01*
X20186757Y11467914D01*
X23069114Y8585556D01*
G37*
%TD.AperFunction*%
D18*
X7112000Y7112000D02*
X7132000Y7112000D01*
X7132000Y6858000D01*
X7112000Y6858000D01*
X7112000Y6838000D01*
X6858000Y6838000D01*
X6858000Y6858000D01*
X6838000Y6858000D01*
X6838000Y7112000D01*
X6858000Y7112000D01*
X6858000Y7132000D01*
X7112000Y7132000D01*
X7112000Y7112000D01*
%TA.AperFunction,Conductor*%
D19*
G36*
X7112000Y7112000D02*
G01*
X7132000Y7112000D01*
X7132000Y6858000D01*
X7112000Y6858000D01*
X7112000Y6838000D01*
X6858000Y6838000D01*
X6858000Y6858000D01*
X6838000Y6858000D01*
X6838000Y7112000D01*
X6858000Y7112000D01*
X6858000Y7132000D01*
X7112000Y7132000D01*
X7112000Y7112000D01*
G37*
%TD.AperFunction*%
%TD*%
M02*
