%TF.GenerationSoftware,KiCad,Pcbnew,(5.1.8)-1*%
%TF.CreationDate,2021-03-06T21:20:45+09:00*%
%TF.ProjectId,power module,706f7765-7220-46d6-9f64-756c652e6b69,rev?*%
%TF.SameCoordinates,PX525bfc0PY59a0560*%
%TF.FileFunction,Legend,Top*%
%TF.FilePolarity,Positive*%
%FSLAX46Y46*%
G04 Gerber Fmt 4.6, Leading zero omitted, Abs format (unit mm)*
G04 Created by KiCad (PCBNEW (5.1.8)-1) date 2021-03-06 21:20:45*
%MOMM*%
%LPD*%
G01*
G04 APERTURE LIST*
%ADD10C,0.120000*%
%ADD11C,0.100000*%
%ADD12C,0.200000*%
%ADD13R,1.700000X1.700000*%
%ADD14O,1.700000X1.700000*%
%ADD15R,1.470000X0.970000*%
%ADD16R,0.800000X0.800000*%
%ADD17R,1.145000X1.145000*%
%ADD18R,4.190000X1.905000*%
%ADD19R,1.905000X4.190000*%
%ADD20R,1.800000X1.050000*%
%ADD21C,1.120000*%
%ADD22R,2.300000X1.500000*%
%ADD23O,2.300000X1.500000*%
G04 APERTURE END LIST*
D10*
X27432000Y16510000D02*
X27432000Y17526000D01*
X26162000Y16510000D02*
X27432000Y16510000D01*
D11*
%TO.C,LED1*%
X25835000Y17545000D02*
X26235000Y17545000D01*
X25835000Y16745000D02*
X26235000Y16745000D01*
D12*
%TO.C,PS1*%
X9075000Y11430000D02*
X9075000Y11430000D01*
X9175000Y11430000D02*
X9175000Y11430000D01*
X9075000Y11430000D02*
X9075000Y11430000D01*
D11*
X9780000Y5335000D02*
X9780000Y17525000D01*
X21970000Y5335000D02*
X9780000Y5335000D01*
X21970000Y17525000D02*
X21970000Y5335000D01*
X9780000Y17525000D02*
X21970000Y17525000D01*
D12*
X9175000Y11430000D02*
G75*
G02*
X9075000Y11430000I-50000J0D01*
G01*
X9075000Y11430000D02*
G75*
G02*
X9175000Y11430000I50000J0D01*
G01*
X9175000Y11430000D02*
G75*
G02*
X9075000Y11430000I-50000J0D01*
G01*
%TO.C,R1*%
X11495000Y2540000D02*
X10095000Y2540000D01*
%TO.C,R2*%
X29275000Y13970000D02*
X27875000Y13970000D01*
%TO.C,R3*%
X26370000Y3898000D02*
G75*
G03*
X26370000Y3898000I-57000J0D01*
G01*
X22855000Y10920000D02*
X22855000Y4320000D01*
X29845000Y10920000D02*
X22855000Y10920000D01*
X29845000Y4320000D02*
X29845000Y10920000D01*
X22855000Y4320000D02*
X29845000Y4320000D01*
%TO.C,R4*%
X25335000Y13970000D02*
X26735000Y13970000D01*
%TO.C,R5*%
X12635000Y2540000D02*
X14035000Y2540000D01*
%TO.C,R6*%
X24195000Y13970000D02*
X22795000Y13970000D01*
D10*
%TO.C,U1*%
X9285000Y834000D02*
X9285000Y2074000D01*
X8045000Y834000D02*
X9285000Y834000D01*
X425000Y12795000D02*
X9045000Y12795000D01*
X425000Y1074000D02*
X9045000Y1074000D01*
X9045000Y1074000D02*
X9045000Y12795000D01*
X425000Y1074000D02*
X425000Y12795000D01*
%TD*%
%LPC*%
D13*
%TO.C,J2*%
X27940000Y2540000D03*
D14*
X25400000Y2540000D03*
X22860000Y2540000D03*
X20320000Y2540000D03*
%TD*%
D13*
%TO.C,J1*%
X2540000Y15240000D03*
D14*
X5080000Y15240000D03*
%TD*%
D15*
%TO.C,C1*%
X7620000Y16070000D03*
X7620000Y14410000D03*
%TD*%
%TO.C,C2*%
X17145000Y3370000D03*
X17145000Y1710000D03*
%TD*%
D16*
%TO.C,LED1*%
X25285000Y17145000D03*
X26785000Y17145000D03*
%TD*%
D17*
%TO.C,PS1*%
X11305000Y11430000D03*
D18*
X12445000Y16000000D03*
X17015000Y16000000D03*
D19*
X20445000Y14860000D03*
D17*
X20445000Y11430000D03*
X20445000Y6860000D03*
X15875000Y6860000D03*
X13585000Y6860000D03*
X11305000Y6860000D03*
X11305000Y9140000D03*
X20445000Y9140000D03*
X18165000Y6860000D03*
%TD*%
D20*
%TO.C,R1*%
X10795000Y4090000D03*
X10795000Y990000D03*
%TD*%
%TO.C,R2*%
X28575000Y15520000D03*
X28575000Y12420000D03*
%TD*%
D21*
%TO.C,R3*%
X26315000Y5080000D03*
X23775000Y7620000D03*
X26315000Y10160000D03*
%TD*%
D20*
%TO.C,R4*%
X26035000Y12420000D03*
X26035000Y15520000D03*
%TD*%
%TO.C,R5*%
X13335000Y4090000D03*
X13335000Y990000D03*
%TD*%
%TO.C,R6*%
X23495000Y12420000D03*
X23495000Y15520000D03*
%TD*%
D22*
%TO.C,U1*%
X6985000Y4445000D03*
D23*
X6985000Y6985000D03*
X6985000Y9525000D03*
%TD*%
M02*
