G04 #@! TF.GenerationSoftware,KiCad,Pcbnew,(6.0.0)*
G04 #@! TF.CreationDate,2022-01-28T16:52:25+09:00*
G04 #@! TF.ProjectId,power_module_new_clube_member,706f7765-725f-46d6-9f64-756c655f6e65,rev?*
G04 #@! TF.SameCoordinates,Original*
G04 #@! TF.FileFunction,Legend,Top*
G04 #@! TF.FilePolarity,Positive*
%FSLAX46Y46*%
G04 Gerber Fmt 4.6, Leading zero omitted, Abs format (unit mm)*
G04 Created by KiCad (PCBNEW (6.0.0)) date 2022-01-28 16:52:25*
%MOMM*%
%LPD*%
G01*
G04 APERTURE LIST*
G04 Aperture macros list*
%AMRoundRect*
0 Rectangle with rounded corners*
0 $1 Rounding radius*
0 $2 $3 $4 $5 $6 $7 $8 $9 X,Y pos of 4 corners*
0 Add a 4 corners polygon primitive as box body*
4,1,4,$2,$3,$4,$5,$6,$7,$8,$9,$2,$3,0*
0 Add four circle primitives for the rounded corners*
1,1,$1+$1,$2,$3*
1,1,$1+$1,$4,$5*
1,1,$1+$1,$6,$7*
1,1,$1+$1,$8,$9*
0 Add four rect primitives between the rounded corners*
20,1,$1+$1,$2,$3,$4,$5,0*
20,1,$1+$1,$4,$5,$6,$7,0*
20,1,$1+$1,$6,$7,$8,$9,0*
20,1,$1+$1,$8,$9,$2,$3,0*%
G04 Aperture macros list end*
%ADD10C,0.150000*%
G04 #@! TA.AperFunction,Profile*
%ADD11C,0.050000*%
G04 #@! TD*
%ADD12C,0.120000*%
%ADD13C,0.100000*%
%ADD14C,0.200000*%
%ADD15RoundRect,0.250000X0.600000X0.750000X-0.600000X0.750000X-0.600000X-0.750000X0.600000X-0.750000X0*%
%ADD16O,1.700000X2.000000*%
%ADD17RoundRect,0.250000X-0.600000X-0.750000X0.600000X-0.750000X0.600000X0.750000X-0.600000X0.750000X0*%
%ADD18C,1.635000*%
%ADD19C,2.550000*%
%ADD20R,6.000000X6.000000*%
%ADD21R,2.500000X2.000000*%
%ADD22R,1.700000X1.700000*%
%ADD23O,1.700000X1.700000*%
G04 APERTURE END LIST*
D10*
X126178571Y-84369047D02*
X126178571Y-85130952D01*
X125869047Y-90571428D02*
X126630952Y-90571428D01*
X126250000Y-90952380D02*
X126250000Y-90190476D01*
X117773809Y-68797619D02*
X117773809Y-69797619D01*
X117297619Y-68797619D02*
X117297619Y-69797619D01*
X116726190Y-68797619D01*
X116726190Y-69797619D01*
X110250000Y-69797619D02*
X110059523Y-69797619D01*
X109964285Y-69750000D01*
X109869047Y-69654761D01*
X109821428Y-69464285D01*
X109821428Y-69130952D01*
X109869047Y-68940476D01*
X109964285Y-68845238D01*
X110059523Y-68797619D01*
X110250000Y-68797619D01*
X110345238Y-68845238D01*
X110440476Y-68940476D01*
X110488095Y-69130952D01*
X110488095Y-69464285D01*
X110440476Y-69654761D01*
X110345238Y-69750000D01*
X110250000Y-69797619D01*
X109392857Y-69797619D02*
X109392857Y-68988095D01*
X109345238Y-68892857D01*
X109297619Y-68845238D01*
X109202380Y-68797619D01*
X109011904Y-68797619D01*
X108916666Y-68845238D01*
X108869047Y-68892857D01*
X108821428Y-68988095D01*
X108821428Y-69797619D01*
X108488095Y-69797619D02*
X107916666Y-69797619D01*
X108202380Y-68797619D02*
X108202380Y-69797619D01*
X101440476Y-69797619D02*
X101916666Y-69797619D01*
X101964285Y-69321428D01*
X101916666Y-69369047D01*
X101821428Y-69416666D01*
X101583333Y-69416666D01*
X101488095Y-69369047D01*
X101440476Y-69321428D01*
X101392857Y-69226190D01*
X101392857Y-68988095D01*
X101440476Y-68892857D01*
X101488095Y-68845238D01*
X101583333Y-68797619D01*
X101821428Y-68797619D01*
X101916666Y-68845238D01*
X101964285Y-68892857D01*
X101107142Y-69797619D02*
X100773809Y-68797619D01*
X100440476Y-69797619D01*
X103119047Y-69071428D02*
X103880952Y-69071428D01*
X98619047Y-69071428D02*
X99380952Y-69071428D01*
X99000000Y-69452380D02*
X99000000Y-68690476D01*
X111119047Y-69071428D02*
X111880952Y-69071428D01*
X106619047Y-69071428D02*
X107380952Y-69071428D01*
X107000000Y-69452380D02*
X107000000Y-68690476D01*
X114619047Y-69071428D02*
X115380952Y-69071428D01*
X119119047Y-69071428D02*
X119880952Y-69071428D01*
X119500000Y-69452380D02*
X119500000Y-68690476D01*
D11*
X96000000Y-68500000D02*
X96000000Y-69500000D01*
X127000000Y-68500000D02*
X96000000Y-68500000D01*
X127000000Y-69500000D02*
X127000000Y-68500000D01*
X96000000Y-69500000D02*
X96000000Y-91500000D01*
X127000000Y-91500000D02*
X127000000Y-69500000D01*
X96000000Y-91500000D02*
X127000000Y-91500000D01*
X125500000Y-72500000D02*
G75*
G03*
X125500000Y-72500000I-1500000J0D01*
G01*
X100500000Y-87500000D02*
G75*
G03*
X100500000Y-87500000I-1500000J0D01*
G01*
D12*
X121060000Y-75960000D02*
X121060000Y-69990000D01*
X121060000Y-69990000D02*
X113440000Y-69990000D01*
X113440000Y-69990000D02*
X113440000Y-75960000D01*
X113440000Y-75960000D02*
X121060000Y-75960000D01*
X117750000Y-75950000D02*
X117750000Y-75200000D01*
X117750000Y-75200000D02*
X116750000Y-75200000D01*
X116750000Y-75200000D02*
X116750000Y-75950000D01*
X116750000Y-75950000D02*
X117750000Y-75950000D01*
X121050000Y-75950000D02*
X121050000Y-75200000D01*
X121050000Y-75200000D02*
X119250000Y-75200000D01*
X119250000Y-75200000D02*
X119250000Y-75950000D01*
X119250000Y-75950000D02*
X121050000Y-75950000D01*
X115250000Y-75950000D02*
X115250000Y-75200000D01*
X115250000Y-75200000D02*
X113450000Y-75200000D01*
X113450000Y-75200000D02*
X113450000Y-75950000D01*
X113450000Y-75950000D02*
X115250000Y-75950000D01*
X121050000Y-73700000D02*
X120300000Y-73700000D01*
X120300000Y-73700000D02*
X120300000Y-70750000D01*
X120300000Y-70750000D02*
X117250000Y-70750000D01*
X113450000Y-73700000D02*
X114200000Y-73700000D01*
X114200000Y-73700000D02*
X114200000Y-70750000D01*
X114200000Y-70750000D02*
X117250000Y-70750000D01*
X120100000Y-76250000D02*
X121350000Y-76250000D01*
X121350000Y-76250000D02*
X121350000Y-75000000D01*
X97150000Y-69750000D02*
X97150000Y-71000000D01*
X98400000Y-69750000D02*
X97150000Y-69750000D01*
X104300000Y-75250000D02*
X101250000Y-75250000D01*
X104300000Y-72300000D02*
X104300000Y-75250000D01*
X105050000Y-72300000D02*
X104300000Y-72300000D01*
X98200000Y-75250000D02*
X101250000Y-75250000D01*
X98200000Y-72300000D02*
X98200000Y-75250000D01*
X97450000Y-72300000D02*
X98200000Y-72300000D01*
X105050000Y-70050000D02*
X103250000Y-70050000D01*
X105050000Y-70800000D02*
X105050000Y-70050000D01*
X103250000Y-70800000D02*
X105050000Y-70800000D01*
X103250000Y-70050000D02*
X103250000Y-70800000D01*
X99250000Y-70050000D02*
X97450000Y-70050000D01*
X99250000Y-70800000D02*
X99250000Y-70050000D01*
X97450000Y-70800000D02*
X99250000Y-70800000D01*
X97450000Y-70050000D02*
X97450000Y-70800000D01*
X101750000Y-70050000D02*
X100750000Y-70050000D01*
X101750000Y-70800000D02*
X101750000Y-70050000D01*
X100750000Y-70800000D02*
X101750000Y-70800000D01*
X100750000Y-70050000D02*
X100750000Y-70800000D01*
X105060000Y-70040000D02*
X97440000Y-70040000D01*
X105060000Y-76010000D02*
X105060000Y-70040000D01*
X97440000Y-76010000D02*
X105060000Y-76010000D01*
X97440000Y-70040000D02*
X97440000Y-76010000D01*
X105440000Y-70040000D02*
X105440000Y-76010000D01*
X105440000Y-76010000D02*
X113060000Y-76010000D01*
X113060000Y-76010000D02*
X113060000Y-70040000D01*
X113060000Y-70040000D02*
X105440000Y-70040000D01*
X108750000Y-70050000D02*
X108750000Y-70800000D01*
X108750000Y-70800000D02*
X109750000Y-70800000D01*
X109750000Y-70800000D02*
X109750000Y-70050000D01*
X109750000Y-70050000D02*
X108750000Y-70050000D01*
X105450000Y-70050000D02*
X105450000Y-70800000D01*
X105450000Y-70800000D02*
X107250000Y-70800000D01*
X107250000Y-70800000D02*
X107250000Y-70050000D01*
X107250000Y-70050000D02*
X105450000Y-70050000D01*
X111250000Y-70050000D02*
X111250000Y-70800000D01*
X111250000Y-70800000D02*
X113050000Y-70800000D01*
X113050000Y-70800000D02*
X113050000Y-70050000D01*
X113050000Y-70050000D02*
X111250000Y-70050000D01*
X105450000Y-72300000D02*
X106200000Y-72300000D01*
X106200000Y-72300000D02*
X106200000Y-75250000D01*
X106200000Y-75250000D02*
X109250000Y-75250000D01*
X113050000Y-72300000D02*
X112300000Y-72300000D01*
X112300000Y-72300000D02*
X112300000Y-75250000D01*
X112300000Y-75250000D02*
X109250000Y-75250000D01*
X106400000Y-69750000D02*
X105150000Y-69750000D01*
X105150000Y-69750000D02*
X105150000Y-71000000D01*
D13*
X109727500Y-90170000D02*
X109727500Y-85090000D01*
X109727500Y-85090000D02*
X101597500Y-85090000D01*
X101597500Y-85090000D02*
X101597500Y-90170000D01*
X101597500Y-90170000D02*
X109727500Y-90170000D01*
D14*
X110402500Y-87630000D02*
X110402500Y-87630000D01*
X110302500Y-87630000D02*
X110302500Y-87630000D01*
X110402500Y-87630000D02*
X110402500Y-87630000D01*
X110402500Y-87630000D02*
G75*
G03*
X110302500Y-87630000I-50000J0D01*
G01*
X110302500Y-87630000D02*
G75*
G03*
X110402500Y-87630000I50000J0D01*
G01*
X110402500Y-87630000D02*
G75*
G03*
X110302500Y-87630000I-50000J0D01*
G01*
D13*
X105835000Y-83345000D02*
X105835000Y-82145000D01*
X99535000Y-83345000D02*
X105835000Y-83345000D01*
X99535000Y-82145000D02*
X99535000Y-83345000D01*
X105835000Y-76945000D02*
X105835000Y-78145000D01*
X99535000Y-76945000D02*
X105835000Y-76945000D01*
X99535000Y-78145000D02*
X99535000Y-76945000D01*
X117850000Y-78145000D02*
X117850000Y-76945000D01*
X117850000Y-76945000D02*
X124150000Y-76945000D01*
X124150000Y-76945000D02*
X124150000Y-78145000D01*
X117850000Y-82145000D02*
X117850000Y-83345000D01*
X117850000Y-83345000D02*
X124150000Y-83345000D01*
X124150000Y-83345000D02*
X124150000Y-82145000D01*
D12*
X122880000Y-84130000D02*
X111380000Y-84130000D01*
X122880000Y-91130000D02*
X122880000Y-84130000D01*
X111380000Y-91130000D02*
X122880000Y-91130000D01*
X111380000Y-91130000D02*
X111380000Y-84130000D01*
X125830000Y-85035000D02*
X123170000Y-85035000D01*
X125830000Y-87635000D02*
X125830000Y-85035000D01*
X123170000Y-87635000D02*
X123170000Y-85035000D01*
X125830000Y-87635000D02*
X123170000Y-87635000D01*
X125830000Y-88905000D02*
X125830000Y-90235000D01*
X125830000Y-90235000D02*
X124500000Y-90235000D01*
%LPC*%
D15*
X118500000Y-73500000D03*
D16*
X116000000Y-73500000D03*
X102500000Y-72500000D03*
D17*
X100000000Y-72500000D03*
X108000000Y-72500000D03*
D16*
X110500000Y-72500000D03*
D18*
X108202500Y-87630000D03*
X105662500Y-87630000D03*
X103122500Y-87630000D03*
D19*
X106035000Y-80145000D03*
X99335000Y-80145000D03*
X117650000Y-80145000D03*
X124350000Y-80145000D03*
D20*
X114880000Y-87630000D03*
D21*
X121080000Y-89930000D03*
X121080000Y-85330000D03*
D22*
X124500000Y-88905000D03*
D23*
X124500000Y-86365000D03*
M02*
