G04 #@! TF.GenerationSoftware,KiCad,Pcbnew,(6.0.0)*
G04 #@! TF.CreationDate,2022-01-28T16:52:25+09:00*
G04 #@! TF.ProjectId,power_module_new_clube_member,706f7765-725f-46d6-9f64-756c655f6e65,rev?*
G04 #@! TF.SameCoordinates,Original*
G04 #@! TF.FileFunction,Copper,L2,Bot*
G04 #@! TF.FilePolarity,Positive*
%FSLAX46Y46*%
G04 Gerber Fmt 4.6, Leading zero omitted, Abs format (unit mm)*
G04 Created by KiCad (PCBNEW (6.0.0)) date 2022-01-28 16:52:25*
%MOMM*%
%LPD*%
G01*
G04 APERTURE LIST*
G04 Aperture macros list*
%AMRoundRect*
0 Rectangle with rounded corners*
0 $1 Rounding radius*
0 $2 $3 $4 $5 $6 $7 $8 $9 X,Y pos of 4 corners*
0 Add a 4 corners polygon primitive as box body*
4,1,4,$2,$3,$4,$5,$6,$7,$8,$9,$2,$3,0*
0 Add four circle primitives for the rounded corners*
1,1,$1+$1,$2,$3*
1,1,$1+$1,$4,$5*
1,1,$1+$1,$6,$7*
1,1,$1+$1,$8,$9*
0 Add four rect primitives between the rounded corners*
20,1,$1+$1,$2,$3,$4,$5,0*
20,1,$1+$1,$4,$5,$6,$7,0*
20,1,$1+$1,$6,$7,$8,$9,0*
20,1,$1+$1,$8,$9,$2,$3,0*%
G04 Aperture macros list end*
G04 #@! TA.AperFunction,Profile*
%ADD10C,0.050000*%
G04 #@! TD*
G04 #@! TA.AperFunction,ComponentPad*
%ADD11RoundRect,0.250000X0.600000X0.750000X-0.600000X0.750000X-0.600000X-0.750000X0.600000X-0.750000X0*%
G04 #@! TD*
G04 #@! TA.AperFunction,ComponentPad*
%ADD12O,1.700000X2.000000*%
G04 #@! TD*
G04 #@! TA.AperFunction,ComponentPad*
%ADD13RoundRect,0.250000X-0.600000X-0.750000X0.600000X-0.750000X0.600000X0.750000X-0.600000X0.750000X0*%
G04 #@! TD*
G04 #@! TA.AperFunction,ComponentPad*
%ADD14C,1.635000*%
G04 #@! TD*
G04 #@! TA.AperFunction,ComponentPad*
%ADD15C,2.550000*%
G04 #@! TD*
G04 #@! TA.AperFunction,ComponentPad*
%ADD16R,1.700000X1.700000*%
G04 #@! TD*
G04 #@! TA.AperFunction,ComponentPad*
%ADD17O,1.700000X1.700000*%
G04 #@! TD*
G04 #@! TA.AperFunction,ViaPad*
%ADD18C,0.800000*%
G04 #@! TD*
G04 #@! TA.AperFunction,Conductor*
%ADD19C,1.500000*%
G04 #@! TD*
G04 #@! TA.AperFunction,Conductor*
%ADD20C,2.000000*%
G04 #@! TD*
G04 APERTURE END LIST*
D10*
X96000000Y-68500000D02*
X96000000Y-69500000D01*
X127000000Y-68500000D02*
X96000000Y-68500000D01*
X127000000Y-69500000D02*
X127000000Y-68500000D01*
X96000000Y-69500000D02*
X96000000Y-91500000D01*
X127000000Y-91500000D02*
X127000000Y-69500000D01*
X96000000Y-91500000D02*
X127000000Y-91500000D01*
X125500000Y-72500000D02*
G75*
G03*
X125500000Y-72500000I-1500000J0D01*
G01*
X100500000Y-87500000D02*
G75*
G03*
X100500000Y-87500000I-1500000J0D01*
G01*
D11*
X118500000Y-73500000D03*
D12*
X116000000Y-73500000D03*
X102500000Y-72500000D03*
D13*
X100000000Y-72500000D03*
X108000000Y-72500000D03*
D12*
X110500000Y-72500000D03*
D14*
X108202500Y-87630000D03*
X105662500Y-87630000D03*
X103122500Y-87630000D03*
D15*
X106035000Y-80145000D03*
X99335000Y-80145000D03*
X117650000Y-80145000D03*
X124350000Y-80145000D03*
D16*
X124500000Y-88905000D03*
D17*
X124500000Y-86365000D03*
D18*
X100000000Y-84500000D03*
X123000000Y-75500000D03*
X121080000Y-85330000D03*
X113000000Y-75500000D03*
D19*
X113000000Y-78640935D02*
X119689065Y-85330000D01*
X113000000Y-75500000D02*
X113000000Y-78640935D01*
X119689065Y-85330000D02*
X121080000Y-85330000D01*
D20*
X108000000Y-73500000D02*
X108000000Y-72500000D01*
X109020000Y-86812500D02*
X109020000Y-74520000D01*
X108202500Y-87630000D02*
X109020000Y-86812500D01*
X109020000Y-74520000D02*
X108000000Y-73500000D01*
X109477500Y-88905000D02*
X108202500Y-87630000D01*
X124500000Y-88905000D02*
X109477500Y-88905000D01*
G04 #@! TA.AperFunction,Conductor*
G36*
X126434121Y-69520002D02*
G01*
X126480614Y-69573658D01*
X126492000Y-69626000D01*
X126492000Y-90866000D01*
X126471998Y-90934121D01*
X126418342Y-90980614D01*
X126366000Y-90992000D01*
X96634000Y-90992000D01*
X96565879Y-90971998D01*
X96519386Y-90918342D01*
X96508000Y-90866000D01*
X96508000Y-87478924D01*
X96987418Y-87478924D01*
X96987835Y-87486150D01*
X97003179Y-87752257D01*
X97004004Y-87756462D01*
X97004005Y-87756470D01*
X97025583Y-87866452D01*
X97055889Y-88020923D01*
X97057276Y-88024974D01*
X97142582Y-88274134D01*
X97144573Y-88279950D01*
X97196065Y-88382331D01*
X97222464Y-88434818D01*
X97267591Y-88524544D01*
X97270017Y-88528073D01*
X97270020Y-88528079D01*
X97355749Y-88652814D01*
X97422666Y-88750179D01*
X97425553Y-88753352D01*
X97425554Y-88753353D01*
X97449418Y-88779579D01*
X97606929Y-88952681D01*
X97816969Y-89128302D01*
X98048901Y-89273792D01*
X98052803Y-89275554D01*
X98052807Y-89275556D01*
X98294520Y-89384694D01*
X98294524Y-89384696D01*
X98298432Y-89386460D01*
X98302551Y-89387680D01*
X98556832Y-89463002D01*
X98556837Y-89463003D01*
X98560945Y-89464220D01*
X98565179Y-89464868D01*
X98565184Y-89464869D01*
X98827340Y-89504984D01*
X98827342Y-89504984D01*
X98831582Y-89505633D01*
X98970913Y-89507822D01*
X99101045Y-89509867D01*
X99101051Y-89509867D01*
X99105336Y-89509934D01*
X99377141Y-89477042D01*
X99641967Y-89407566D01*
X99894914Y-89302792D01*
X100131301Y-89164658D01*
X100346754Y-88995722D01*
X100391539Y-88949508D01*
X100534303Y-88802186D01*
X100537286Y-88799108D01*
X100539819Y-88795660D01*
X100539823Y-88795655D01*
X100696834Y-88581909D01*
X100699372Y-88578454D01*
X100701418Y-88574686D01*
X100827962Y-88341621D01*
X100827963Y-88341619D01*
X100830012Y-88337845D01*
X100926789Y-88081732D01*
X100987912Y-87814854D01*
X100988498Y-87808295D01*
X101004411Y-87630000D01*
X101791435Y-87630000D01*
X101811657Y-87861137D01*
X101813081Y-87866450D01*
X101813081Y-87866452D01*
X101849795Y-88003469D01*
X101871708Y-88085251D01*
X101874030Y-88090232D01*
X101874031Y-88090233D01*
X101965349Y-88286063D01*
X101969764Y-88295532D01*
X102102845Y-88485592D01*
X102266908Y-88649655D01*
X102271416Y-88652812D01*
X102271419Y-88652814D01*
X102298754Y-88671954D01*
X102456967Y-88782736D01*
X102461949Y-88785059D01*
X102461954Y-88785062D01*
X102616735Y-88857237D01*
X102667249Y-88880792D01*
X102672557Y-88882214D01*
X102672559Y-88882215D01*
X102886048Y-88939419D01*
X102886050Y-88939419D01*
X102891363Y-88940843D01*
X103122500Y-88961065D01*
X103353637Y-88940843D01*
X103358950Y-88939419D01*
X103358952Y-88939419D01*
X103572441Y-88882215D01*
X103572443Y-88882214D01*
X103577751Y-88880792D01*
X103628265Y-88857237D01*
X103783046Y-88785062D01*
X103783051Y-88785059D01*
X103788033Y-88782736D01*
X103946246Y-88671954D01*
X103973581Y-88652814D01*
X103973584Y-88652812D01*
X103978092Y-88649655D01*
X104142155Y-88485592D01*
X104275236Y-88295532D01*
X104277559Y-88290551D01*
X104277563Y-88290544D01*
X104278307Y-88288948D01*
X104278822Y-88288363D01*
X104280314Y-88285779D01*
X104280833Y-88286079D01*
X104325225Y-88235664D01*
X104393503Y-88216205D01*
X104461463Y-88236749D01*
X104504193Y-88286063D01*
X104504686Y-88285779D01*
X104506162Y-88288335D01*
X104506693Y-88288948D01*
X104507437Y-88290544D01*
X104507441Y-88290551D01*
X104509764Y-88295532D01*
X104642845Y-88485592D01*
X104806908Y-88649655D01*
X104811416Y-88652812D01*
X104811419Y-88652814D01*
X104838754Y-88671954D01*
X104996967Y-88782736D01*
X105001949Y-88785059D01*
X105001954Y-88785062D01*
X105156735Y-88857237D01*
X105207249Y-88880792D01*
X105212557Y-88882214D01*
X105212559Y-88882215D01*
X105426048Y-88939419D01*
X105426050Y-88939419D01*
X105431363Y-88940843D01*
X105662500Y-88961065D01*
X105893637Y-88940843D01*
X105898950Y-88939419D01*
X105898952Y-88939419D01*
X106112441Y-88882215D01*
X106112443Y-88882214D01*
X106117751Y-88880792D01*
X106168265Y-88857237D01*
X106323046Y-88785062D01*
X106323051Y-88785059D01*
X106328033Y-88782736D01*
X106486246Y-88671954D01*
X106513581Y-88652814D01*
X106513584Y-88652812D01*
X106518092Y-88649655D01*
X106682155Y-88485592D01*
X106717707Y-88434818D01*
X106773163Y-88390489D01*
X106843783Y-88383180D01*
X106907143Y-88415210D01*
X106923878Y-88434456D01*
X106924134Y-88434818D01*
X106953366Y-88476258D01*
X106955836Y-88479893D01*
X107003900Y-88553341D01*
X107003909Y-88553352D01*
X107006674Y-88557578D01*
X107010082Y-88561310D01*
X107010084Y-88561313D01*
X107019170Y-88571263D01*
X107029080Y-88583588D01*
X107039774Y-88598747D01*
X107059409Y-88620250D01*
X107109075Y-88669916D01*
X107113026Y-88674049D01*
X107170358Y-88736836D01*
X107174321Y-88739977D01*
X107191846Y-88753867D01*
X107202677Y-88763518D01*
X108393842Y-89954684D01*
X108396296Y-89957206D01*
X108464832Y-90029681D01*
X108468849Y-90032752D01*
X108468852Y-90032755D01*
X108527261Y-90077412D01*
X108532393Y-90081554D01*
X108567088Y-90111081D01*
X108592220Y-90132470D01*
X108596546Y-90135090D01*
X108596553Y-90135095D01*
X108620324Y-90149491D01*
X108631571Y-90157163D01*
X108657674Y-90177120D01*
X108726916Y-90214247D01*
X108732637Y-90217510D01*
X108799857Y-90258220D01*
X108830334Y-90270534D01*
X108842650Y-90276303D01*
X108871609Y-90291831D01*
X108945933Y-90317423D01*
X108952061Y-90319714D01*
X108984406Y-90332782D01*
X109020233Y-90347258D01*
X109020237Y-90347259D01*
X109024929Y-90349155D01*
X109029868Y-90350277D01*
X109029871Y-90350278D01*
X109056960Y-90356432D01*
X109070059Y-90360163D01*
X109101131Y-90370862D01*
X109178600Y-90384243D01*
X109185004Y-90385523D01*
X109261644Y-90402935D01*
X109294453Y-90404999D01*
X109307953Y-90406585D01*
X109340336Y-90412179D01*
X109344293Y-90412359D01*
X109344296Y-90412359D01*
X109368006Y-90413436D01*
X109368025Y-90413436D01*
X109369425Y-90413500D01*
X109425607Y-90413500D01*
X109433518Y-90413749D01*
X109503912Y-90418178D01*
X109545491Y-90414101D01*
X109557787Y-90413500D01*
X124561001Y-90413500D01*
X124563509Y-90413298D01*
X124563514Y-90413298D01*
X124736924Y-90399346D01*
X124736929Y-90399345D01*
X124741965Y-90398940D01*
X124746873Y-90397734D01*
X124746876Y-90397734D01*
X124972792Y-90342244D01*
X124977706Y-90341037D01*
X124982358Y-90339062D01*
X124982362Y-90339061D01*
X125136776Y-90273516D01*
X125186008Y-90263500D01*
X125398134Y-90263500D01*
X125460316Y-90256745D01*
X125596705Y-90205615D01*
X125713261Y-90118261D01*
X125800615Y-90001705D01*
X125851745Y-89865316D01*
X125858500Y-89803134D01*
X125858500Y-89598793D01*
X125866869Y-89553639D01*
X125950020Y-89337022D01*
X125950021Y-89337018D01*
X125951833Y-89332298D01*
X125964056Y-89273792D01*
X126000440Y-89099631D01*
X126000440Y-89099627D01*
X126001474Y-89094680D01*
X126012486Y-88852183D01*
X126006345Y-88799108D01*
X125985167Y-88616071D01*
X125985166Y-88616067D01*
X125984585Y-88611044D01*
X125981106Y-88598747D01*
X125924976Y-88400388D01*
X125918490Y-88377468D01*
X125916356Y-88372892D01*
X125916354Y-88372886D01*
X125870305Y-88274134D01*
X125858500Y-88220884D01*
X125858500Y-88006866D01*
X125851745Y-87944684D01*
X125800615Y-87808295D01*
X125713261Y-87691739D01*
X125596705Y-87604385D01*
X125477687Y-87559767D01*
X125420923Y-87517125D01*
X125396223Y-87450564D01*
X125411430Y-87381215D01*
X125432977Y-87352535D01*
X125534052Y-87251812D01*
X125540730Y-87243965D01*
X125665003Y-87071020D01*
X125670313Y-87062183D01*
X125764670Y-86871267D01*
X125768469Y-86861672D01*
X125830377Y-86657910D01*
X125832555Y-86647837D01*
X125833986Y-86636962D01*
X125831775Y-86622778D01*
X125818617Y-86619000D01*
X123183225Y-86619000D01*
X123169694Y-86622973D01*
X123168257Y-86632966D01*
X123198565Y-86767446D01*
X123201645Y-86777275D01*
X123281770Y-86974603D01*
X123286413Y-86983794D01*
X123397694Y-87165388D01*
X123403772Y-87173692D01*
X123416168Y-87188002D01*
X123445651Y-87252587D01*
X123435537Y-87322860D01*
X123389036Y-87376508D01*
X123320931Y-87396500D01*
X110592134Y-87396500D01*
X110524013Y-87376498D01*
X110477520Y-87322842D01*
X110467416Y-87252568D01*
X110469266Y-87242583D01*
X110471437Y-87233028D01*
X110475169Y-87219925D01*
X110484216Y-87193649D01*
X110485862Y-87188869D01*
X110486722Y-87183889D01*
X110486725Y-87183878D01*
X110499238Y-87111435D01*
X110500530Y-87104967D01*
X110516815Y-87033288D01*
X110516816Y-87033279D01*
X110517935Y-87028355D01*
X110519999Y-86995549D01*
X110521586Y-86982045D01*
X110527179Y-86949664D01*
X110528500Y-86920575D01*
X110528500Y-86864392D01*
X110528749Y-86856480D01*
X110532860Y-86791141D01*
X110533178Y-86786087D01*
X110529101Y-86744506D01*
X110528500Y-86732211D01*
X110528500Y-78588021D01*
X111737521Y-78588021D01*
X111738399Y-78606640D01*
X111741360Y-78669423D01*
X111741500Y-78675359D01*
X111741500Y-78697934D01*
X111741750Y-78700731D01*
X111743819Y-78723923D01*
X111744178Y-78729183D01*
X111748104Y-78812423D01*
X111749354Y-78817882D01*
X111749355Y-78817887D01*
X111752108Y-78829905D01*
X111754789Y-78846834D01*
X111756383Y-78864697D01*
X111757865Y-78870113D01*
X111757865Y-78870115D01*
X111778370Y-78945068D01*
X111779656Y-78950186D01*
X111798258Y-79031405D01*
X111800460Y-79036567D01*
X111805294Y-79047902D01*
X111810927Y-79064077D01*
X111815663Y-79081386D01*
X111818079Y-79086451D01*
X111851539Y-79156602D01*
X111853710Y-79161411D01*
X111886397Y-79238044D01*
X111896251Y-79253045D01*
X111904654Y-79267960D01*
X111912378Y-79284153D01*
X111915648Y-79288704D01*
X111915650Y-79288707D01*
X111960999Y-79351816D01*
X111963989Y-79356167D01*
X112007196Y-79421945D01*
X112007202Y-79421953D01*
X112009735Y-79425809D01*
X112028257Y-79446597D01*
X112036490Y-79456874D01*
X112043471Y-79466589D01*
X112047498Y-79470491D01*
X112120255Y-79540998D01*
X112121665Y-79542387D01*
X118734540Y-86155263D01*
X118745407Y-86167653D01*
X118758942Y-86185292D01*
X118811781Y-86233372D01*
X118819239Y-86240158D01*
X118823534Y-86244257D01*
X118839475Y-86260198D01*
X118859501Y-86276942D01*
X118863456Y-86280392D01*
X118925101Y-86336485D01*
X118929855Y-86339467D01*
X118940295Y-86346016D01*
X118954155Y-86356085D01*
X118967918Y-86367593D01*
X118972799Y-86370377D01*
X119040283Y-86408869D01*
X119044813Y-86411579D01*
X119115409Y-86455864D01*
X119120613Y-86457956D01*
X119132048Y-86462553D01*
X119147478Y-86470012D01*
X119158184Y-86476119D01*
X119158193Y-86476123D01*
X119163058Y-86478898D01*
X119241603Y-86506712D01*
X119246515Y-86508568D01*
X119323848Y-86539656D01*
X119341426Y-86543296D01*
X119357919Y-86547902D01*
X119374824Y-86553888D01*
X119380358Y-86554794D01*
X119380361Y-86554795D01*
X119457042Y-86567352D01*
X119462214Y-86568311D01*
X119543832Y-86585213D01*
X119559463Y-86586114D01*
X119571628Y-86586816D01*
X119584734Y-86588263D01*
X119590979Y-86589286D01*
X119590986Y-86589287D01*
X119596522Y-86590193D01*
X119602136Y-86590105D01*
X119602138Y-86590105D01*
X119703295Y-86588516D01*
X119705274Y-86588500D01*
X121136999Y-86588500D01*
X121139786Y-86588251D01*
X121139792Y-86588251D01*
X121209929Y-86581991D01*
X121303762Y-86573617D01*
X121309176Y-86572136D01*
X121309181Y-86572135D01*
X121439163Y-86536575D01*
X121520451Y-86514337D01*
X121525509Y-86511925D01*
X121525513Y-86511923D01*
X121638656Y-86457956D01*
X121723218Y-86417622D01*
X121905654Y-86286529D01*
X122061992Y-86125201D01*
X122079475Y-86099183D01*
X123164389Y-86099183D01*
X123165912Y-86107607D01*
X123178292Y-86111000D01*
X124227885Y-86111000D01*
X124243124Y-86106525D01*
X124244329Y-86105135D01*
X124246000Y-86097452D01*
X124246000Y-86092885D01*
X124754000Y-86092885D01*
X124758475Y-86108124D01*
X124759865Y-86109329D01*
X124767548Y-86111000D01*
X125818344Y-86111000D01*
X125831875Y-86107027D01*
X125833180Y-86097947D01*
X125791214Y-85930875D01*
X125787894Y-85921124D01*
X125702972Y-85725814D01*
X125698105Y-85716739D01*
X125582426Y-85537926D01*
X125576136Y-85529757D01*
X125432806Y-85372240D01*
X125425273Y-85365215D01*
X125258139Y-85233222D01*
X125249552Y-85227517D01*
X125063117Y-85124599D01*
X125053705Y-85120369D01*
X124852959Y-85049280D01*
X124842988Y-85046646D01*
X124771837Y-85033972D01*
X124758540Y-85035432D01*
X124754000Y-85049989D01*
X124754000Y-86092885D01*
X124246000Y-86092885D01*
X124246000Y-85048102D01*
X124242082Y-85034758D01*
X124227806Y-85032771D01*
X124189324Y-85038660D01*
X124179288Y-85041051D01*
X123976868Y-85107212D01*
X123967359Y-85111209D01*
X123778463Y-85209542D01*
X123769738Y-85215036D01*
X123599433Y-85342905D01*
X123591726Y-85349748D01*
X123444590Y-85503717D01*
X123438104Y-85511727D01*
X123318098Y-85687649D01*
X123313000Y-85696623D01*
X123223338Y-85889783D01*
X123219775Y-85899470D01*
X123164389Y-86099183D01*
X122079475Y-86099183D01*
X122187290Y-85938738D01*
X122277588Y-85733033D01*
X122281058Y-85718582D01*
X122328722Y-85520046D01*
X122328722Y-85520045D01*
X122330032Y-85514589D01*
X122342963Y-85290310D01*
X122315975Y-85067285D01*
X122249918Y-84852565D01*
X122146882Y-84652936D01*
X122010123Y-84474708D01*
X121843964Y-84323515D01*
X121839217Y-84320537D01*
X121839214Y-84320535D01*
X121658405Y-84207115D01*
X121653656Y-84204136D01*
X121445217Y-84120344D01*
X121225233Y-84074787D01*
X121220622Y-84074521D01*
X121220621Y-84074521D01*
X121170048Y-84071605D01*
X121170044Y-84071605D01*
X121168225Y-84071500D01*
X120262543Y-84071500D01*
X120194422Y-84051498D01*
X120173448Y-84034595D01*
X118183144Y-82044291D01*
X118149118Y-81981979D01*
X118154183Y-81911164D01*
X118196730Y-81854328D01*
X118230166Y-81836617D01*
X118232279Y-81836061D01*
X118257078Y-81825407D01*
X118471544Y-81733265D01*
X118471546Y-81733264D01*
X118475838Y-81731420D01*
X118575458Y-81669773D01*
X118697282Y-81594387D01*
X118697286Y-81594384D01*
X118701255Y-81591928D01*
X118903577Y-81420649D01*
X118939119Y-81380121D01*
X119075278Y-81224862D01*
X119075281Y-81224857D01*
X119078360Y-81221347D01*
X119221765Y-80998399D01*
X119330641Y-80756703D01*
X119402596Y-80501570D01*
X119436050Y-80238603D01*
X119438501Y-80145000D01*
X119435022Y-80098183D01*
X122562112Y-80098183D01*
X122562336Y-80102850D01*
X122562336Y-80102855D01*
X122568471Y-80230573D01*
X122574830Y-80362963D01*
X122626546Y-80622956D01*
X122628125Y-80627354D01*
X122628127Y-80627361D01*
X122672949Y-80752200D01*
X122716123Y-80872449D01*
X122841594Y-81105961D01*
X122844389Y-81109705D01*
X122844391Y-81109707D01*
X122917302Y-81207346D01*
X123000201Y-81318362D01*
X123003510Y-81321642D01*
X123003515Y-81321648D01*
X123106430Y-81423668D01*
X123188462Y-81504987D01*
X123192224Y-81507745D01*
X123192227Y-81507748D01*
X123302918Y-81588910D01*
X123402239Y-81661735D01*
X123406382Y-81663915D01*
X123406384Y-81663916D01*
X123632687Y-81782980D01*
X123632692Y-81782982D01*
X123636837Y-81785163D01*
X123641260Y-81786708D01*
X123641261Y-81786708D01*
X123785998Y-81837252D01*
X123887102Y-81872559D01*
X123891695Y-81873431D01*
X124142947Y-81921133D01*
X124142950Y-81921133D01*
X124147536Y-81922004D01*
X124273411Y-81926950D01*
X124407750Y-81932228D01*
X124407755Y-81932228D01*
X124412418Y-81932411D01*
X124515397Y-81921133D01*
X124671275Y-81904062D01*
X124671280Y-81904061D01*
X124675928Y-81903552D01*
X124799506Y-81871017D01*
X124927756Y-81837252D01*
X124927759Y-81837251D01*
X124932279Y-81836061D01*
X124936576Y-81834215D01*
X125171544Y-81733265D01*
X125171546Y-81733264D01*
X125175838Y-81731420D01*
X125275458Y-81669773D01*
X125397282Y-81594387D01*
X125397286Y-81594384D01*
X125401255Y-81591928D01*
X125603577Y-81420649D01*
X125639119Y-81380121D01*
X125775278Y-81224862D01*
X125775281Y-81224857D01*
X125778360Y-81221347D01*
X125921765Y-80998399D01*
X126030641Y-80756703D01*
X126102596Y-80501570D01*
X126136050Y-80238603D01*
X126138501Y-80145000D01*
X126118856Y-79880643D01*
X126060352Y-79622093D01*
X126058659Y-79617739D01*
X125965968Y-79379383D01*
X125965967Y-79379380D01*
X125964275Y-79375030D01*
X125832735Y-79144883D01*
X125668621Y-78936706D01*
X125475540Y-78755074D01*
X125257733Y-78603975D01*
X125253543Y-78601909D01*
X125253540Y-78601907D01*
X125024172Y-78488796D01*
X125024169Y-78488795D01*
X125019984Y-78486731D01*
X124767517Y-78405915D01*
X124623876Y-78382522D01*
X124510490Y-78364056D01*
X124510489Y-78364056D01*
X124505878Y-78363305D01*
X124373347Y-78361570D01*
X124245492Y-78359896D01*
X124245489Y-78359896D01*
X124240815Y-78359835D01*
X123978150Y-78395582D01*
X123973660Y-78396891D01*
X123973654Y-78396892D01*
X123865430Y-78428437D01*
X123723654Y-78469761D01*
X123719407Y-78471719D01*
X123719404Y-78471720D01*
X123689930Y-78485308D01*
X123482918Y-78580742D01*
X123479009Y-78583305D01*
X123265143Y-78723521D01*
X123265138Y-78723525D01*
X123261230Y-78726087D01*
X123257738Y-78729204D01*
X123082644Y-78885481D01*
X123063460Y-78902603D01*
X122893954Y-79106412D01*
X122756434Y-79333038D01*
X122754625Y-79337352D01*
X122754624Y-79337354D01*
X122656313Y-79571799D01*
X122653922Y-79577500D01*
X122652771Y-79582032D01*
X122652770Y-79582035D01*
X122589822Y-79829893D01*
X122588670Y-79834430D01*
X122562112Y-80098183D01*
X119435022Y-80098183D01*
X119418856Y-79880643D01*
X119360352Y-79622093D01*
X119358659Y-79617739D01*
X119265968Y-79379383D01*
X119265967Y-79379380D01*
X119264275Y-79375030D01*
X119132735Y-79144883D01*
X118968621Y-78936706D01*
X118775540Y-78755074D01*
X118557733Y-78603975D01*
X118553543Y-78601909D01*
X118553540Y-78601907D01*
X118324172Y-78488796D01*
X118324169Y-78488795D01*
X118319984Y-78486731D01*
X118067517Y-78405915D01*
X117923876Y-78382522D01*
X117810490Y-78364056D01*
X117810489Y-78364056D01*
X117805878Y-78363305D01*
X117673347Y-78361570D01*
X117545492Y-78359896D01*
X117545489Y-78359896D01*
X117540815Y-78359835D01*
X117278150Y-78395582D01*
X117273660Y-78396891D01*
X117273654Y-78396892D01*
X117165430Y-78428437D01*
X117023654Y-78469761D01*
X117019407Y-78471719D01*
X117019404Y-78471720D01*
X116989930Y-78485308D01*
X116782918Y-78580742D01*
X116779009Y-78583305D01*
X116565143Y-78723521D01*
X116565138Y-78723525D01*
X116561230Y-78726087D01*
X116557738Y-78729204D01*
X116382644Y-78885481D01*
X116363460Y-78902603D01*
X116193954Y-79106412D01*
X116056434Y-79333038D01*
X116054625Y-79337352D01*
X116054624Y-79337354D01*
X115956313Y-79571799D01*
X115911524Y-79626885D01*
X115844064Y-79649011D01*
X115775350Y-79631153D01*
X115751021Y-79612168D01*
X114295405Y-78156552D01*
X114261379Y-78094240D01*
X114258500Y-78067457D01*
X114258500Y-75443001D01*
X114255551Y-75409952D01*
X114244116Y-75281833D01*
X114243617Y-75276238D01*
X114184337Y-75059549D01*
X114159832Y-75008172D01*
X114135196Y-74956523D01*
X114087622Y-74856782D01*
X113956529Y-74674346D01*
X113858107Y-74578968D01*
X113799229Y-74521911D01*
X113799226Y-74521909D01*
X113795201Y-74518008D01*
X113608738Y-74392710D01*
X113403033Y-74302412D01*
X113397582Y-74301103D01*
X113397578Y-74301102D01*
X113190046Y-74251278D01*
X113190045Y-74251278D01*
X113184589Y-74249968D01*
X113100525Y-74245121D01*
X112965917Y-74237360D01*
X112965914Y-74237360D01*
X112960310Y-74237037D01*
X112737285Y-74264025D01*
X112522565Y-74330082D01*
X112517585Y-74332652D01*
X112517581Y-74332654D01*
X112372442Y-74407566D01*
X112322936Y-74433118D01*
X112144708Y-74569877D01*
X111993515Y-74736036D01*
X111990537Y-74740783D01*
X111990535Y-74740786D01*
X111917772Y-74856782D01*
X111874136Y-74926344D01*
X111790344Y-75134783D01*
X111744787Y-75354767D01*
X111741500Y-75411775D01*
X111741500Y-78549539D01*
X111740422Y-78565986D01*
X111737521Y-78588021D01*
X110528500Y-78588021D01*
X110528500Y-74544016D01*
X110528549Y-74540498D01*
X110531193Y-74445850D01*
X110531193Y-74445847D01*
X110531334Y-74440795D01*
X110520941Y-74362902D01*
X110520241Y-74356353D01*
X110514346Y-74283077D01*
X110514345Y-74283073D01*
X110513940Y-74278035D01*
X110506101Y-74246122D01*
X110503573Y-74232738D01*
X110503069Y-74228956D01*
X110499229Y-74200180D01*
X110489322Y-74167366D01*
X110488781Y-74096371D01*
X110526709Y-74036354D01*
X110591063Y-74006371D01*
X110605216Y-74005037D01*
X110660766Y-74002951D01*
X110671315Y-74001656D01*
X110886420Y-73956523D01*
X110896617Y-73953463D01*
X111101029Y-73872737D01*
X111110561Y-73868006D01*
X111271751Y-73770193D01*
X114647289Y-73770193D01*
X114656124Y-73874325D01*
X114657914Y-73884797D01*
X114713130Y-74097535D01*
X114716665Y-74107575D01*
X114806937Y-74307970D01*
X114812106Y-74317256D01*
X114934850Y-74499575D01*
X114941519Y-74507870D01*
X115093228Y-74666900D01*
X115101186Y-74673941D01*
X115277525Y-74805141D01*
X115286562Y-74810745D01*
X115482484Y-74910357D01*
X115492335Y-74914357D01*
X115702240Y-74979534D01*
X115712624Y-74981817D01*
X115728043Y-74983861D01*
X115742207Y-74981665D01*
X115746000Y-74968478D01*
X115746000Y-74966192D01*
X116254000Y-74966192D01*
X116257973Y-74979723D01*
X116268580Y-74981248D01*
X116386421Y-74956523D01*
X116396617Y-74953463D01*
X116601029Y-74872737D01*
X116610561Y-74868006D01*
X116798462Y-74753984D01*
X116807052Y-74747720D01*
X116973052Y-74603673D01*
X116980470Y-74596044D01*
X117006391Y-74564431D01*
X117065051Y-74524436D01*
X117136021Y-74522504D01*
X117196770Y-74559248D01*
X117210969Y-74578017D01*
X117301522Y-74724348D01*
X117426697Y-74849305D01*
X117432927Y-74853145D01*
X117432928Y-74853146D01*
X117570090Y-74937694D01*
X117577262Y-74942115D01*
X117620701Y-74956523D01*
X117738611Y-74995632D01*
X117738613Y-74995632D01*
X117745139Y-74997797D01*
X117751975Y-74998497D01*
X117751978Y-74998498D01*
X117795031Y-75002909D01*
X117849600Y-75008500D01*
X119150400Y-75008500D01*
X119153646Y-75008163D01*
X119153650Y-75008163D01*
X119249308Y-74998238D01*
X119249312Y-74998237D01*
X119256166Y-74997526D01*
X119262702Y-74995345D01*
X119262704Y-74995345D01*
X119394806Y-74951272D01*
X119423946Y-74941550D01*
X119574348Y-74848478D01*
X119699305Y-74723303D01*
X119703146Y-74717072D01*
X119788275Y-74578968D01*
X119788276Y-74578966D01*
X119792115Y-74572738D01*
X119837360Y-74436328D01*
X119845632Y-74411389D01*
X119845632Y-74411387D01*
X119847797Y-74404861D01*
X119849558Y-74387680D01*
X119857724Y-74307970D01*
X119858500Y-74300400D01*
X119858500Y-72699600D01*
X119856502Y-72680342D01*
X119848238Y-72600692D01*
X119848237Y-72600688D01*
X119847526Y-72593834D01*
X119817050Y-72502485D01*
X119809189Y-72478924D01*
X121987418Y-72478924D01*
X121987835Y-72486150D01*
X122003179Y-72752257D01*
X122004004Y-72756462D01*
X122004005Y-72756470D01*
X122027291Y-72875159D01*
X122055889Y-73020923D01*
X122057276Y-73024974D01*
X122131965Y-73243124D01*
X122144573Y-73279950D01*
X122146499Y-73283779D01*
X122248824Y-73487229D01*
X122267591Y-73524544D01*
X122270017Y-73528073D01*
X122270020Y-73528079D01*
X122316730Y-73596042D01*
X122422666Y-73750179D01*
X122606929Y-73952681D01*
X122816969Y-74128302D01*
X123048901Y-74273792D01*
X123052803Y-74275554D01*
X123052807Y-74275556D01*
X123294520Y-74384694D01*
X123294524Y-74384696D01*
X123298432Y-74386460D01*
X123302551Y-74387680D01*
X123556832Y-74463002D01*
X123556837Y-74463003D01*
X123560945Y-74464220D01*
X123565179Y-74464868D01*
X123565184Y-74464869D01*
X123827340Y-74504984D01*
X123827342Y-74504984D01*
X123831582Y-74505633D01*
X123970913Y-74507822D01*
X124101045Y-74509867D01*
X124101051Y-74509867D01*
X124105336Y-74509934D01*
X124377141Y-74477042D01*
X124627395Y-74411389D01*
X124637824Y-74408653D01*
X124637825Y-74408653D01*
X124641967Y-74407566D01*
X124894914Y-74302792D01*
X125061932Y-74205194D01*
X125127598Y-74166822D01*
X125127599Y-74166821D01*
X125131301Y-74164658D01*
X125346754Y-73995722D01*
X125360377Y-73981665D01*
X125494465Y-73843296D01*
X125537286Y-73799108D01*
X125539819Y-73795660D01*
X125539823Y-73795655D01*
X125696834Y-73581909D01*
X125699372Y-73578454D01*
X125725829Y-73529727D01*
X125827962Y-73341621D01*
X125827963Y-73341619D01*
X125830012Y-73337845D01*
X125926789Y-73081732D01*
X125967613Y-72903483D01*
X125986954Y-72819038D01*
X125986955Y-72819034D01*
X125987912Y-72814854D01*
X125990814Y-72782345D01*
X126012031Y-72544616D01*
X126012251Y-72542151D01*
X126012692Y-72500000D01*
X126010964Y-72474653D01*
X125994362Y-72231123D01*
X125994361Y-72231117D01*
X125994070Y-72226846D01*
X125979545Y-72156704D01*
X125956730Y-72046537D01*
X125938550Y-71958747D01*
X125847157Y-71700664D01*
X125844958Y-71696402D01*
X125723550Y-71461178D01*
X125723549Y-71461177D01*
X125721585Y-71457371D01*
X125719122Y-71453866D01*
X125566619Y-71236877D01*
X125566614Y-71236871D01*
X125564155Y-71233372D01*
X125426877Y-71085643D01*
X125380703Y-71035954D01*
X125380700Y-71035951D01*
X125377782Y-71032811D01*
X125374466Y-71030097D01*
X125374463Y-71030094D01*
X125169233Y-70862114D01*
X125169226Y-70862109D01*
X125165915Y-70859399D01*
X124932472Y-70716345D01*
X124928555Y-70714626D01*
X124928552Y-70714624D01*
X124818232Y-70666197D01*
X124681775Y-70606297D01*
X124677647Y-70605121D01*
X124677644Y-70605120D01*
X124596557Y-70582022D01*
X124418462Y-70531290D01*
X124414220Y-70530686D01*
X124414214Y-70530685D01*
X124215596Y-70502418D01*
X124147406Y-70492713D01*
X124003671Y-70491961D01*
X123877908Y-70491302D01*
X123877902Y-70491302D01*
X123873622Y-70491280D01*
X123869378Y-70491839D01*
X123869374Y-70491839D01*
X123750397Y-70507503D01*
X123602177Y-70527016D01*
X123598037Y-70528149D01*
X123598035Y-70528149D01*
X123582251Y-70532467D01*
X123338093Y-70599261D01*
X123086257Y-70706678D01*
X122851329Y-70847280D01*
X122847978Y-70849964D01*
X122847976Y-70849966D01*
X122836202Y-70859399D01*
X122637657Y-71018463D01*
X122449194Y-71217062D01*
X122289428Y-71439400D01*
X122161314Y-71681364D01*
X122067225Y-71938477D01*
X122008899Y-72205980D01*
X121987418Y-72478924D01*
X119809189Y-72478924D01*
X119793868Y-72433002D01*
X119791550Y-72426054D01*
X119698478Y-72275652D01*
X119573303Y-72150695D01*
X119537496Y-72128623D01*
X119428968Y-72061725D01*
X119428966Y-72061724D01*
X119422738Y-72057885D01*
X119303498Y-72018335D01*
X119261389Y-72004368D01*
X119261387Y-72004368D01*
X119254861Y-72002203D01*
X119248025Y-72001503D01*
X119248022Y-72001502D01*
X119204969Y-71997091D01*
X119150400Y-71991500D01*
X117849600Y-71991500D01*
X117846354Y-71991837D01*
X117846350Y-71991837D01*
X117750692Y-72001762D01*
X117750688Y-72001763D01*
X117743834Y-72002474D01*
X117737298Y-72004655D01*
X117737296Y-72004655D01*
X117605194Y-72048728D01*
X117576054Y-72058450D01*
X117425652Y-72151522D01*
X117300695Y-72276697D01*
X117296855Y-72282927D01*
X117296854Y-72282928D01*
X117210648Y-72422780D01*
X117157876Y-72470273D01*
X117087804Y-72481697D01*
X117022680Y-72453423D01*
X117012218Y-72443636D01*
X116906766Y-72333094D01*
X116898814Y-72326059D01*
X116722475Y-72194859D01*
X116713438Y-72189255D01*
X116517516Y-72089643D01*
X116507665Y-72085643D01*
X116297760Y-72020466D01*
X116287376Y-72018183D01*
X116271957Y-72016139D01*
X116257793Y-72018335D01*
X116254000Y-72031522D01*
X116254000Y-74966192D01*
X115746000Y-74966192D01*
X115746000Y-73772115D01*
X115741525Y-73756876D01*
X115740135Y-73755671D01*
X115732452Y-73754000D01*
X114664030Y-73754000D01*
X114649352Y-73758310D01*
X114647289Y-73770193D01*
X111271751Y-73770193D01*
X111298462Y-73753984D01*
X111307052Y-73747720D01*
X111473052Y-73603673D01*
X111480472Y-73596042D01*
X111619826Y-73426089D01*
X111625850Y-73417322D01*
X111732266Y-73230376D01*
X114642732Y-73230376D01*
X114646475Y-73243124D01*
X114647865Y-73244329D01*
X114655548Y-73246000D01*
X115727885Y-73246000D01*
X115743124Y-73241525D01*
X115744329Y-73240135D01*
X115746000Y-73232452D01*
X115746000Y-72033808D01*
X115742027Y-72020277D01*
X115731420Y-72018752D01*
X115613579Y-72043477D01*
X115603383Y-72046537D01*
X115398971Y-72127263D01*
X115389439Y-72131994D01*
X115201538Y-72246016D01*
X115192948Y-72252280D01*
X115026948Y-72396327D01*
X115019528Y-72403958D01*
X114880174Y-72573911D01*
X114874150Y-72582678D01*
X114765424Y-72773682D01*
X114760959Y-72783346D01*
X114685969Y-72989941D01*
X114683198Y-73000208D01*
X114643877Y-73217655D01*
X114642944Y-73225884D01*
X114642732Y-73230376D01*
X111732266Y-73230376D01*
X111734576Y-73226318D01*
X111739041Y-73216654D01*
X111814031Y-73010059D01*
X111816802Y-72999792D01*
X111856123Y-72782345D01*
X111857056Y-72774116D01*
X111857268Y-72769624D01*
X111853525Y-72756876D01*
X111852135Y-72755671D01*
X111844452Y-72754000D01*
X110372000Y-72754000D01*
X110303879Y-72733998D01*
X110257386Y-72680342D01*
X110246000Y-72628000D01*
X110246000Y-72227885D01*
X110754000Y-72227885D01*
X110758475Y-72243124D01*
X110759865Y-72244329D01*
X110767548Y-72246000D01*
X111835970Y-72246000D01*
X111850648Y-72241690D01*
X111852711Y-72229807D01*
X111843876Y-72125675D01*
X111842086Y-72115203D01*
X111786870Y-71902465D01*
X111783335Y-71892425D01*
X111693063Y-71692030D01*
X111687894Y-71682744D01*
X111565150Y-71500425D01*
X111558481Y-71492130D01*
X111406772Y-71333100D01*
X111398814Y-71326059D01*
X111222475Y-71194859D01*
X111213438Y-71189255D01*
X111017516Y-71089643D01*
X111007665Y-71085643D01*
X110797760Y-71020466D01*
X110787376Y-71018183D01*
X110771957Y-71016139D01*
X110757793Y-71018335D01*
X110754000Y-71031522D01*
X110754000Y-72227885D01*
X110246000Y-72227885D01*
X110246000Y-71033808D01*
X110242027Y-71020277D01*
X110231420Y-71018752D01*
X110113579Y-71043477D01*
X110103383Y-71046537D01*
X109898971Y-71127263D01*
X109889439Y-71131994D01*
X109701538Y-71246016D01*
X109692948Y-71252280D01*
X109526948Y-71396327D01*
X109519530Y-71403956D01*
X109493609Y-71435569D01*
X109434949Y-71475564D01*
X109363979Y-71477496D01*
X109303230Y-71440752D01*
X109289030Y-71421982D01*
X109202332Y-71281880D01*
X109198478Y-71275652D01*
X109073303Y-71150695D01*
X109042965Y-71131994D01*
X108928968Y-71061725D01*
X108928966Y-71061724D01*
X108922738Y-71057885D01*
X108803498Y-71018335D01*
X108761389Y-71004368D01*
X108761387Y-71004368D01*
X108754861Y-71002203D01*
X108748025Y-71001503D01*
X108748022Y-71001502D01*
X108704969Y-70997091D01*
X108650400Y-70991500D01*
X108037812Y-70991500D01*
X108032096Y-70991370D01*
X107947183Y-70987514D01*
X107942163Y-70988095D01*
X107942159Y-70988095D01*
X107919950Y-70990665D01*
X107905468Y-70991500D01*
X107349600Y-70991500D01*
X107346354Y-70991837D01*
X107346350Y-70991837D01*
X107250692Y-71001762D01*
X107250688Y-71001763D01*
X107243834Y-71002474D01*
X107237298Y-71004655D01*
X107237296Y-71004655D01*
X107105194Y-71048728D01*
X107076054Y-71058450D01*
X106925652Y-71151522D01*
X106800695Y-71276697D01*
X106796855Y-71282927D01*
X106796854Y-71282928D01*
X106726954Y-71396327D01*
X106707885Y-71427262D01*
X106705581Y-71434209D01*
X106675278Y-71525571D01*
X106652203Y-71595139D01*
X106641500Y-71699600D01*
X106641500Y-71809624D01*
X106626545Y-71869164D01*
X106613169Y-71894109D01*
X106534138Y-72123631D01*
X106522803Y-72189255D01*
X106504754Y-72293752D01*
X106492821Y-72362836D01*
X106491500Y-72391925D01*
X106491500Y-73475984D01*
X106491451Y-73479502D01*
X106488847Y-73572738D01*
X106488666Y-73579205D01*
X106489335Y-73584219D01*
X106499058Y-73657086D01*
X106499759Y-73663647D01*
X106504643Y-73724348D01*
X106506060Y-73741965D01*
X106513897Y-73773870D01*
X106516426Y-73787258D01*
X106520771Y-73819820D01*
X106522232Y-73824661D01*
X106522233Y-73824663D01*
X106543478Y-73895029D01*
X106545219Y-73901390D01*
X106563963Y-73977706D01*
X106572789Y-73998498D01*
X106576801Y-74007951D01*
X106581438Y-74020761D01*
X106590933Y-74052208D01*
X106593151Y-74056756D01*
X106593154Y-74056763D01*
X106625371Y-74122818D01*
X106628107Y-74128820D01*
X106642195Y-74162009D01*
X106658812Y-74201156D01*
X106661504Y-74205430D01*
X106676319Y-74228956D01*
X106682945Y-74240860D01*
X106697346Y-74270388D01*
X106700265Y-74274525D01*
X106700265Y-74274526D01*
X106742641Y-74334597D01*
X106746301Y-74340086D01*
X106788167Y-74406567D01*
X106791508Y-74410356D01*
X106791512Y-74410362D01*
X106809898Y-74431217D01*
X106818344Y-74441912D01*
X106837274Y-74468747D01*
X106856909Y-74490250D01*
X106896625Y-74529966D01*
X106902044Y-74535736D01*
X106945350Y-74584858D01*
X106945353Y-74584861D01*
X106948698Y-74588655D01*
X106952606Y-74591865D01*
X106952607Y-74591866D01*
X106980989Y-74615179D01*
X106990108Y-74623449D01*
X107474595Y-75107936D01*
X107508621Y-75170248D01*
X107511500Y-75197031D01*
X107511500Y-78793706D01*
X107491498Y-78861827D01*
X107437842Y-78908320D01*
X107367568Y-78918424D01*
X107299167Y-78885481D01*
X107163948Y-78758280D01*
X107160540Y-78755074D01*
X106942733Y-78603975D01*
X106938543Y-78601909D01*
X106938540Y-78601907D01*
X106709172Y-78488796D01*
X106709169Y-78488795D01*
X106704984Y-78486731D01*
X106452517Y-78405915D01*
X106308876Y-78382522D01*
X106195490Y-78364056D01*
X106195489Y-78364056D01*
X106190878Y-78363305D01*
X106058347Y-78361570D01*
X105930492Y-78359896D01*
X105930489Y-78359896D01*
X105925815Y-78359835D01*
X105663150Y-78395582D01*
X105658660Y-78396891D01*
X105658654Y-78396892D01*
X105550430Y-78428437D01*
X105408654Y-78469761D01*
X105404407Y-78471719D01*
X105404404Y-78471720D01*
X105374930Y-78485308D01*
X105167918Y-78580742D01*
X105164009Y-78583305D01*
X104950143Y-78723521D01*
X104950138Y-78723525D01*
X104946230Y-78726087D01*
X104942738Y-78729204D01*
X104767644Y-78885481D01*
X104748460Y-78902603D01*
X104578954Y-79106412D01*
X104441434Y-79333038D01*
X104439625Y-79337352D01*
X104439624Y-79337354D01*
X104341313Y-79571799D01*
X104338922Y-79577500D01*
X104337771Y-79582032D01*
X104337770Y-79582035D01*
X104274822Y-79829893D01*
X104273670Y-79834430D01*
X104247112Y-80098183D01*
X104247336Y-80102850D01*
X104247336Y-80102855D01*
X104253471Y-80230573D01*
X104259830Y-80362963D01*
X104311546Y-80622956D01*
X104313125Y-80627354D01*
X104313127Y-80627361D01*
X104357949Y-80752200D01*
X104401123Y-80872449D01*
X104526594Y-81105961D01*
X104529389Y-81109705D01*
X104529391Y-81109707D01*
X104602302Y-81207346D01*
X104685201Y-81318362D01*
X104688510Y-81321642D01*
X104688515Y-81321648D01*
X104791430Y-81423668D01*
X104873462Y-81504987D01*
X104877224Y-81507745D01*
X104877227Y-81507748D01*
X104987918Y-81588910D01*
X105087239Y-81661735D01*
X105091382Y-81663915D01*
X105091384Y-81663916D01*
X105317687Y-81782980D01*
X105317692Y-81782982D01*
X105321837Y-81785163D01*
X105326260Y-81786708D01*
X105326261Y-81786708D01*
X105470998Y-81837252D01*
X105572102Y-81872559D01*
X105576695Y-81873431D01*
X105827947Y-81921133D01*
X105827950Y-81921133D01*
X105832536Y-81922004D01*
X105958411Y-81926950D01*
X106092750Y-81932228D01*
X106092755Y-81932228D01*
X106097418Y-81932411D01*
X106200397Y-81921133D01*
X106356275Y-81904062D01*
X106356280Y-81904061D01*
X106360928Y-81903552D01*
X106484506Y-81871017D01*
X106612756Y-81837252D01*
X106612759Y-81837251D01*
X106617279Y-81836061D01*
X106621576Y-81834215D01*
X106856544Y-81733265D01*
X106856546Y-81733264D01*
X106860838Y-81731420D01*
X106960458Y-81669773D01*
X107082282Y-81594387D01*
X107082286Y-81594384D01*
X107086255Y-81591928D01*
X107288577Y-81420649D01*
X107291656Y-81417138D01*
X107294996Y-81413856D01*
X107295972Y-81414849D01*
X107350730Y-81380121D01*
X107421726Y-81380549D01*
X107481220Y-81419291D01*
X107510323Y-81484049D01*
X107511500Y-81501229D01*
X107511500Y-86135469D01*
X107491498Y-86203590D01*
X107474595Y-86224564D01*
X107162584Y-86536575D01*
X107158451Y-86540526D01*
X107104155Y-86590105D01*
X107095664Y-86597858D01*
X107092523Y-86601821D01*
X107092522Y-86601822D01*
X107038002Y-86670609D01*
X107035211Y-86674007D01*
X106978306Y-86740870D01*
X106978303Y-86740874D01*
X106975030Y-86744720D01*
X106965415Y-86760595D01*
X106956401Y-86773564D01*
X106944882Y-86788098D01*
X106930509Y-86813816D01*
X106879817Y-86863520D01*
X106810298Y-86877929D01*
X106744025Y-86852465D01*
X106717314Y-86824620D01*
X106682155Y-86774408D01*
X106518092Y-86610345D01*
X106513584Y-86607188D01*
X106513581Y-86607186D01*
X106383092Y-86515817D01*
X106328033Y-86477264D01*
X106323051Y-86474941D01*
X106323046Y-86474938D01*
X106122733Y-86381531D01*
X106122732Y-86381530D01*
X106117751Y-86379208D01*
X106112443Y-86377786D01*
X106112441Y-86377785D01*
X105898952Y-86320581D01*
X105898950Y-86320581D01*
X105893637Y-86319157D01*
X105662500Y-86298935D01*
X105431363Y-86319157D01*
X105426050Y-86320581D01*
X105426048Y-86320581D01*
X105212559Y-86377785D01*
X105212557Y-86377786D01*
X105207249Y-86379208D01*
X105202268Y-86381530D01*
X105202267Y-86381531D01*
X105001949Y-86474941D01*
X105001946Y-86474943D01*
X104996968Y-86477264D01*
X104806908Y-86610345D01*
X104642845Y-86774408D01*
X104509764Y-86964468D01*
X104507442Y-86969447D01*
X104507437Y-86969456D01*
X104506693Y-86971052D01*
X104506178Y-86971637D01*
X104504686Y-86974221D01*
X104504167Y-86973921D01*
X104459775Y-87024336D01*
X104391497Y-87043795D01*
X104323537Y-87023251D01*
X104280807Y-86973937D01*
X104280314Y-86974221D01*
X104278838Y-86971665D01*
X104278307Y-86971052D01*
X104277563Y-86969456D01*
X104277558Y-86969447D01*
X104275236Y-86964468D01*
X104142155Y-86774408D01*
X103978092Y-86610345D01*
X103973584Y-86607188D01*
X103973581Y-86607186D01*
X103843092Y-86515817D01*
X103788033Y-86477264D01*
X103783051Y-86474941D01*
X103783046Y-86474938D01*
X103582733Y-86381531D01*
X103582732Y-86381530D01*
X103577751Y-86379208D01*
X103572443Y-86377786D01*
X103572441Y-86377785D01*
X103358952Y-86320581D01*
X103358950Y-86320581D01*
X103353637Y-86319157D01*
X103122500Y-86298935D01*
X102891363Y-86319157D01*
X102886050Y-86320581D01*
X102886048Y-86320581D01*
X102672559Y-86377785D01*
X102672557Y-86377786D01*
X102667249Y-86379208D01*
X102662268Y-86381530D01*
X102662267Y-86381531D01*
X102461949Y-86474941D01*
X102461946Y-86474943D01*
X102456968Y-86477264D01*
X102266908Y-86610345D01*
X102102845Y-86774408D01*
X101969764Y-86964468D01*
X101967443Y-86969446D01*
X101967441Y-86969449D01*
X101876073Y-87165388D01*
X101871708Y-87174749D01*
X101870286Y-87180057D01*
X101870285Y-87180059D01*
X101817650Y-87376498D01*
X101811657Y-87398863D01*
X101791435Y-87630000D01*
X101004411Y-87630000D01*
X101012031Y-87544616D01*
X101012251Y-87542151D01*
X101012692Y-87500000D01*
X101004273Y-87376508D01*
X100994362Y-87231123D01*
X100994361Y-87231117D01*
X100994070Y-87226846D01*
X100986206Y-87188869D01*
X100956162Y-87043795D01*
X100938550Y-86958747D01*
X100847157Y-86700664D01*
X100839277Y-86685395D01*
X100723550Y-86461178D01*
X100723549Y-86461177D01*
X100721585Y-86457371D01*
X100719122Y-86453866D01*
X100566619Y-86236877D01*
X100566614Y-86236871D01*
X100564155Y-86233372D01*
X100463636Y-86125201D01*
X100380703Y-86035954D01*
X100380700Y-86035951D01*
X100377782Y-86032811D01*
X100374466Y-86030097D01*
X100374463Y-86030094D01*
X100169233Y-85862114D01*
X100169226Y-85862109D01*
X100165915Y-85859399D01*
X99932472Y-85716345D01*
X99928555Y-85714626D01*
X99928552Y-85714624D01*
X99818232Y-85666197D01*
X99681775Y-85606297D01*
X99677647Y-85605121D01*
X99677644Y-85605120D01*
X99596557Y-85582022D01*
X99418462Y-85531290D01*
X99414220Y-85530686D01*
X99414214Y-85530685D01*
X99215596Y-85502418D01*
X99147406Y-85492713D01*
X99003671Y-85491961D01*
X98877908Y-85491302D01*
X98877902Y-85491302D01*
X98873622Y-85491280D01*
X98869378Y-85491839D01*
X98869374Y-85491839D01*
X98750397Y-85507503D01*
X98602177Y-85527016D01*
X98598037Y-85528149D01*
X98598035Y-85528149D01*
X98342238Y-85598127D01*
X98338093Y-85599261D01*
X98086257Y-85706678D01*
X97851329Y-85847280D01*
X97847978Y-85849964D01*
X97847976Y-85849966D01*
X97836202Y-85859399D01*
X97637657Y-86018463D01*
X97553613Y-86107027D01*
X97479343Y-86185292D01*
X97449194Y-86217062D01*
X97289428Y-86439400D01*
X97161314Y-86681364D01*
X97132325Y-86760581D01*
X97074294Y-86919161D01*
X97067225Y-86938477D01*
X97008899Y-87205980D01*
X96987418Y-87478924D01*
X96508000Y-87478924D01*
X96508000Y-80098183D01*
X97547112Y-80098183D01*
X97547336Y-80102850D01*
X97547336Y-80102855D01*
X97553471Y-80230573D01*
X97559830Y-80362963D01*
X97611546Y-80622956D01*
X97613125Y-80627354D01*
X97613127Y-80627361D01*
X97657949Y-80752200D01*
X97701123Y-80872449D01*
X97826594Y-81105961D01*
X97829389Y-81109705D01*
X97829391Y-81109707D01*
X97902302Y-81207346D01*
X97985201Y-81318362D01*
X97988510Y-81321642D01*
X97988515Y-81321648D01*
X98091430Y-81423668D01*
X98173462Y-81504987D01*
X98177224Y-81507745D01*
X98177227Y-81507748D01*
X98287918Y-81588910D01*
X98387239Y-81661735D01*
X98391382Y-81663915D01*
X98391384Y-81663916D01*
X98617687Y-81782980D01*
X98617692Y-81782982D01*
X98621837Y-81785163D01*
X98626260Y-81786708D01*
X98626261Y-81786708D01*
X98770998Y-81837252D01*
X98872102Y-81872559D01*
X98876695Y-81873431D01*
X99127947Y-81921133D01*
X99127950Y-81921133D01*
X99132536Y-81922004D01*
X99258411Y-81926950D01*
X99392750Y-81932228D01*
X99392755Y-81932228D01*
X99397418Y-81932411D01*
X99500397Y-81921133D01*
X99656275Y-81904062D01*
X99656280Y-81904061D01*
X99660928Y-81903552D01*
X99784506Y-81871017D01*
X99912756Y-81837252D01*
X99912759Y-81837251D01*
X99917279Y-81836061D01*
X99921576Y-81834215D01*
X100156544Y-81733265D01*
X100156546Y-81733264D01*
X100160838Y-81731420D01*
X100260458Y-81669773D01*
X100382282Y-81594387D01*
X100382286Y-81594384D01*
X100386255Y-81591928D01*
X100588577Y-81420649D01*
X100624119Y-81380121D01*
X100760278Y-81224862D01*
X100760281Y-81224857D01*
X100763360Y-81221347D01*
X100906765Y-80998399D01*
X101015641Y-80756703D01*
X101087596Y-80501570D01*
X101121050Y-80238603D01*
X101123501Y-80145000D01*
X101103856Y-79880643D01*
X101045352Y-79622093D01*
X101043659Y-79617739D01*
X100950968Y-79379383D01*
X100950967Y-79379380D01*
X100949275Y-79375030D01*
X100817735Y-79144883D01*
X100653621Y-78936706D01*
X100460540Y-78755074D01*
X100242733Y-78603975D01*
X100238543Y-78601909D01*
X100238540Y-78601907D01*
X100009172Y-78488796D01*
X100009169Y-78488795D01*
X100004984Y-78486731D01*
X99752517Y-78405915D01*
X99608876Y-78382522D01*
X99495490Y-78364056D01*
X99495489Y-78364056D01*
X99490878Y-78363305D01*
X99358347Y-78361570D01*
X99230492Y-78359896D01*
X99230489Y-78359896D01*
X99225815Y-78359835D01*
X98963150Y-78395582D01*
X98958660Y-78396891D01*
X98958654Y-78396892D01*
X98850430Y-78428437D01*
X98708654Y-78469761D01*
X98704407Y-78471719D01*
X98704404Y-78471720D01*
X98674930Y-78485308D01*
X98467918Y-78580742D01*
X98464009Y-78583305D01*
X98250143Y-78723521D01*
X98250138Y-78723525D01*
X98246230Y-78726087D01*
X98242738Y-78729204D01*
X98067644Y-78885481D01*
X98048460Y-78902603D01*
X97878954Y-79106412D01*
X97741434Y-79333038D01*
X97739625Y-79337352D01*
X97739624Y-79337354D01*
X97641313Y-79571799D01*
X97638922Y-79577500D01*
X97637771Y-79582032D01*
X97637770Y-79582035D01*
X97574822Y-79829893D01*
X97573670Y-79834430D01*
X97547112Y-80098183D01*
X96508000Y-80098183D01*
X96508000Y-73300400D01*
X98641500Y-73300400D01*
X98652474Y-73406166D01*
X98654655Y-73412702D01*
X98654655Y-73412704D01*
X98693697Y-73529727D01*
X98708450Y-73573946D01*
X98801522Y-73724348D01*
X98926697Y-73849305D01*
X98932927Y-73853145D01*
X98932928Y-73853146D01*
X99070090Y-73937694D01*
X99077262Y-73942115D01*
X99117409Y-73955431D01*
X99238611Y-73995632D01*
X99238613Y-73995632D01*
X99245139Y-73997797D01*
X99251975Y-73998497D01*
X99251978Y-73998498D01*
X99295031Y-74002909D01*
X99349600Y-74008500D01*
X100650400Y-74008500D01*
X100653646Y-74008163D01*
X100653650Y-74008163D01*
X100749308Y-73998238D01*
X100749312Y-73998237D01*
X100756166Y-73997526D01*
X100762702Y-73995345D01*
X100762704Y-73995345D01*
X100900093Y-73949508D01*
X100923946Y-73941550D01*
X101074348Y-73848478D01*
X101199305Y-73723303D01*
X101289353Y-73577220D01*
X101342124Y-73529727D01*
X101412196Y-73518303D01*
X101477320Y-73546577D01*
X101487782Y-73556364D01*
X101593234Y-73666906D01*
X101601186Y-73673941D01*
X101777525Y-73805141D01*
X101786562Y-73810745D01*
X101982484Y-73910357D01*
X101992335Y-73914357D01*
X102202240Y-73979534D01*
X102212624Y-73981817D01*
X102228043Y-73983861D01*
X102242207Y-73981665D01*
X102246000Y-73968478D01*
X102246000Y-73966192D01*
X102754000Y-73966192D01*
X102757973Y-73979723D01*
X102768580Y-73981248D01*
X102886421Y-73956523D01*
X102896617Y-73953463D01*
X103101029Y-73872737D01*
X103110561Y-73868006D01*
X103298462Y-73753984D01*
X103307052Y-73747720D01*
X103473052Y-73603673D01*
X103480472Y-73596042D01*
X103619826Y-73426089D01*
X103625850Y-73417322D01*
X103734576Y-73226318D01*
X103739041Y-73216654D01*
X103814031Y-73010059D01*
X103816802Y-72999792D01*
X103856123Y-72782345D01*
X103857056Y-72774116D01*
X103857268Y-72769624D01*
X103853525Y-72756876D01*
X103852135Y-72755671D01*
X103844452Y-72754000D01*
X102772115Y-72754000D01*
X102756876Y-72758475D01*
X102755671Y-72759865D01*
X102754000Y-72767548D01*
X102754000Y-73966192D01*
X102246000Y-73966192D01*
X102246000Y-72227885D01*
X102754000Y-72227885D01*
X102758475Y-72243124D01*
X102759865Y-72244329D01*
X102767548Y-72246000D01*
X103835970Y-72246000D01*
X103850648Y-72241690D01*
X103852711Y-72229807D01*
X103843876Y-72125675D01*
X103842086Y-72115203D01*
X103786870Y-71902465D01*
X103783335Y-71892425D01*
X103693063Y-71692030D01*
X103687894Y-71682744D01*
X103565150Y-71500425D01*
X103558481Y-71492130D01*
X103406772Y-71333100D01*
X103398814Y-71326059D01*
X103222475Y-71194859D01*
X103213438Y-71189255D01*
X103017516Y-71089643D01*
X103007665Y-71085643D01*
X102797760Y-71020466D01*
X102787376Y-71018183D01*
X102771957Y-71016139D01*
X102757793Y-71018335D01*
X102754000Y-71031522D01*
X102754000Y-72227885D01*
X102246000Y-72227885D01*
X102246000Y-71033808D01*
X102242027Y-71020277D01*
X102231420Y-71018752D01*
X102113579Y-71043477D01*
X102103383Y-71046537D01*
X101898971Y-71127263D01*
X101889439Y-71131994D01*
X101701538Y-71246016D01*
X101692948Y-71252280D01*
X101526948Y-71396327D01*
X101519530Y-71403956D01*
X101493609Y-71435569D01*
X101434949Y-71475564D01*
X101363979Y-71477496D01*
X101303230Y-71440752D01*
X101289030Y-71421982D01*
X101202332Y-71281880D01*
X101198478Y-71275652D01*
X101073303Y-71150695D01*
X101042965Y-71131994D01*
X100928968Y-71061725D01*
X100928966Y-71061724D01*
X100922738Y-71057885D01*
X100803498Y-71018335D01*
X100761389Y-71004368D01*
X100761387Y-71004368D01*
X100754861Y-71002203D01*
X100748025Y-71001503D01*
X100748022Y-71001502D01*
X100704969Y-70997091D01*
X100650400Y-70991500D01*
X99349600Y-70991500D01*
X99346354Y-70991837D01*
X99346350Y-70991837D01*
X99250692Y-71001762D01*
X99250688Y-71001763D01*
X99243834Y-71002474D01*
X99237298Y-71004655D01*
X99237296Y-71004655D01*
X99105194Y-71048728D01*
X99076054Y-71058450D01*
X98925652Y-71151522D01*
X98800695Y-71276697D01*
X98796855Y-71282927D01*
X98796854Y-71282928D01*
X98726954Y-71396327D01*
X98707885Y-71427262D01*
X98705581Y-71434209D01*
X98675278Y-71525571D01*
X98652203Y-71595139D01*
X98641500Y-71699600D01*
X98641500Y-73300400D01*
X96508000Y-73300400D01*
X96508000Y-69626000D01*
X96528002Y-69557879D01*
X96581658Y-69511386D01*
X96634000Y-69500000D01*
X126366000Y-69500000D01*
X126434121Y-69520002D01*
G37*
G04 #@! TD.AperFunction*
M02*
