G04 #@! TF.GenerationSoftware,KiCad,Pcbnew,(6.0.0)*
G04 #@! TF.CreationDate,2022-01-28T16:52:25+09:00*
G04 #@! TF.ProjectId,power_module_new_clube_member,706f7765-725f-46d6-9f64-756c655f6e65,rev?*
G04 #@! TF.SameCoordinates,Original*
G04 #@! TF.FileFunction,Copper,L1,Top*
G04 #@! TF.FilePolarity,Positive*
%FSLAX46Y46*%
G04 Gerber Fmt 4.6, Leading zero omitted, Abs format (unit mm)*
G04 Created by KiCad (PCBNEW (6.0.0)) date 2022-01-28 16:52:25*
%MOMM*%
%LPD*%
G01*
G04 APERTURE LIST*
G04 Aperture macros list*
%AMRoundRect*
0 Rectangle with rounded corners*
0 $1 Rounding radius*
0 $2 $3 $4 $5 $6 $7 $8 $9 X,Y pos of 4 corners*
0 Add a 4 corners polygon primitive as box body*
4,1,4,$2,$3,$4,$5,$6,$7,$8,$9,$2,$3,0*
0 Add four circle primitives for the rounded corners*
1,1,$1+$1,$2,$3*
1,1,$1+$1,$4,$5*
1,1,$1+$1,$6,$7*
1,1,$1+$1,$8,$9*
0 Add four rect primitives between the rounded corners*
20,1,$1+$1,$2,$3,$4,$5,0*
20,1,$1+$1,$4,$5,$6,$7,0*
20,1,$1+$1,$6,$7,$8,$9,0*
20,1,$1+$1,$8,$9,$2,$3,0*%
G04 Aperture macros list end*
G04 #@! TA.AperFunction,Profile*
%ADD10C,0.050000*%
G04 #@! TD*
G04 #@! TA.AperFunction,ComponentPad*
%ADD11RoundRect,0.250000X0.600000X0.750000X-0.600000X0.750000X-0.600000X-0.750000X0.600000X-0.750000X0*%
G04 #@! TD*
G04 #@! TA.AperFunction,ComponentPad*
%ADD12O,1.700000X2.000000*%
G04 #@! TD*
G04 #@! TA.AperFunction,ComponentPad*
%ADD13RoundRect,0.250000X-0.600000X-0.750000X0.600000X-0.750000X0.600000X0.750000X-0.600000X0.750000X0*%
G04 #@! TD*
G04 #@! TA.AperFunction,ComponentPad*
%ADD14C,1.635000*%
G04 #@! TD*
G04 #@! TA.AperFunction,ComponentPad*
%ADD15C,2.550000*%
G04 #@! TD*
G04 #@! TA.AperFunction,SMDPad,CuDef*
%ADD16R,6.000000X6.000000*%
G04 #@! TD*
G04 #@! TA.AperFunction,SMDPad,CuDef*
%ADD17R,2.500000X2.000000*%
G04 #@! TD*
G04 #@! TA.AperFunction,ComponentPad*
%ADD18R,1.700000X1.700000*%
G04 #@! TD*
G04 #@! TA.AperFunction,ComponentPad*
%ADD19O,1.700000X1.700000*%
G04 #@! TD*
G04 #@! TA.AperFunction,ViaPad*
%ADD20C,0.800000*%
G04 #@! TD*
G04 #@! TA.AperFunction,Conductor*
%ADD21C,1.500000*%
G04 #@! TD*
G04 #@! TA.AperFunction,Conductor*
%ADD22C,2.000000*%
G04 #@! TD*
G04 APERTURE END LIST*
D10*
X96000000Y-68500000D02*
X96000000Y-69500000D01*
X127000000Y-68500000D02*
X96000000Y-68500000D01*
X127000000Y-69500000D02*
X127000000Y-68500000D01*
X96000000Y-69500000D02*
X96000000Y-91500000D01*
X127000000Y-91500000D02*
X127000000Y-69500000D01*
X96000000Y-91500000D02*
X127000000Y-91500000D01*
X125500000Y-72500000D02*
G75*
G03*
X125500000Y-72500000I-1500000J0D01*
G01*
X100500000Y-87500000D02*
G75*
G03*
X100500000Y-87500000I-1500000J0D01*
G01*
D11*
X118500000Y-73500000D03*
D12*
X116000000Y-73500000D03*
X102500000Y-72500000D03*
D13*
X100000000Y-72500000D03*
X108000000Y-72500000D03*
D12*
X110500000Y-72500000D03*
D14*
X108202500Y-87630000D03*
X105662500Y-87630000D03*
X103122500Y-87630000D03*
D15*
X106035000Y-80145000D03*
X99335000Y-80145000D03*
X117650000Y-80145000D03*
X124350000Y-80145000D03*
D16*
X114880000Y-87630000D03*
D17*
X121080000Y-89930000D03*
X121080000Y-85330000D03*
D18*
X124500000Y-88905000D03*
D19*
X124500000Y-86365000D03*
D20*
X100000000Y-84500000D03*
X123000000Y-75500000D03*
X121080000Y-85330000D03*
X113000000Y-75500000D03*
D21*
X102805095Y-75500000D02*
X113000000Y-75500000D01*
X100000000Y-72694905D02*
X102805095Y-75500000D01*
X100000000Y-72500000D02*
X100000000Y-72694905D01*
D22*
X118500000Y-74048458D02*
X118500000Y-73500000D01*
X107680000Y-78500000D02*
X114048458Y-78500000D01*
X114048458Y-78500000D02*
X118500000Y-74048458D01*
X106035000Y-80145000D02*
X107680000Y-78500000D01*
X122105000Y-88905000D02*
X121080000Y-89930000D01*
X124500000Y-88905000D02*
X122105000Y-88905000D01*
X105662500Y-86473881D02*
X105662500Y-87630000D01*
X109791861Y-82344520D02*
X105662500Y-86473881D01*
X115450480Y-82344520D02*
X109791861Y-82344520D01*
X117650000Y-80145000D02*
X115450480Y-82344520D01*
X117650000Y-80145000D02*
X124350000Y-80145000D01*
X106035000Y-80145000D02*
X99335000Y-80145000D01*
G04 #@! TA.AperFunction,Conductor*
G36*
X126434121Y-69520002D02*
G01*
X126480614Y-69573658D01*
X126492000Y-69626000D01*
X126492000Y-90866000D01*
X126471998Y-90934121D01*
X126418342Y-90980614D01*
X126366000Y-90992000D01*
X122964500Y-90992000D01*
X122896379Y-90971998D01*
X122849886Y-90918342D01*
X122838500Y-90866000D01*
X122838500Y-90539500D01*
X122858502Y-90471379D01*
X122912158Y-90424886D01*
X122964500Y-90413500D01*
X124561001Y-90413500D01*
X124563509Y-90413298D01*
X124563514Y-90413298D01*
X124736924Y-90399346D01*
X124736929Y-90399345D01*
X124741965Y-90398940D01*
X124746873Y-90397734D01*
X124746876Y-90397734D01*
X124972792Y-90342244D01*
X124977706Y-90341037D01*
X124982358Y-90339062D01*
X124982362Y-90339061D01*
X125136776Y-90273516D01*
X125186008Y-90263500D01*
X125398134Y-90263500D01*
X125460316Y-90256745D01*
X125596705Y-90205615D01*
X125713261Y-90118261D01*
X125800615Y-90001705D01*
X125851745Y-89865316D01*
X125858500Y-89803134D01*
X125858500Y-89598793D01*
X125866869Y-89553639D01*
X125950020Y-89337022D01*
X125950021Y-89337018D01*
X125951833Y-89332298D01*
X125964056Y-89273792D01*
X126000440Y-89099631D01*
X126000440Y-89099627D01*
X126001474Y-89094680D01*
X126012486Y-88852183D01*
X126007870Y-88812285D01*
X125985167Y-88616071D01*
X125985166Y-88616067D01*
X125984585Y-88611044D01*
X125970526Y-88561358D01*
X125919866Y-88382331D01*
X125918490Y-88377468D01*
X125916356Y-88372892D01*
X125916354Y-88372886D01*
X125870305Y-88274134D01*
X125858500Y-88220884D01*
X125858500Y-88006866D01*
X125851745Y-87944684D01*
X125800615Y-87808295D01*
X125713261Y-87691739D01*
X125596705Y-87604385D01*
X125477687Y-87559767D01*
X125420923Y-87517125D01*
X125396223Y-87450564D01*
X125411430Y-87381215D01*
X125432977Y-87352535D01*
X125534052Y-87251812D01*
X125540730Y-87243965D01*
X125665003Y-87071020D01*
X125670313Y-87062183D01*
X125764670Y-86871267D01*
X125768469Y-86861672D01*
X125830377Y-86657910D01*
X125832555Y-86647837D01*
X125833986Y-86636962D01*
X125831775Y-86622778D01*
X125818617Y-86619000D01*
X123183225Y-86619000D01*
X123169694Y-86622973D01*
X123168257Y-86632966D01*
X123198565Y-86767446D01*
X123201645Y-86777275D01*
X123281770Y-86974603D01*
X123286413Y-86983794D01*
X123397694Y-87165388D01*
X123403772Y-87173692D01*
X123416168Y-87188002D01*
X123445651Y-87252587D01*
X123435537Y-87322860D01*
X123389036Y-87376508D01*
X123320931Y-87396500D01*
X122129016Y-87396500D01*
X122125498Y-87396451D01*
X122030850Y-87393807D01*
X122030847Y-87393807D01*
X122025795Y-87393666D01*
X121947902Y-87404059D01*
X121941361Y-87404758D01*
X121912668Y-87407067D01*
X121868077Y-87410654D01*
X121868073Y-87410655D01*
X121863035Y-87411060D01*
X121831122Y-87418899D01*
X121817742Y-87421426D01*
X121785180Y-87425771D01*
X121780339Y-87427232D01*
X121780337Y-87427233D01*
X121709971Y-87448478D01*
X121703610Y-87450219D01*
X121627294Y-87468963D01*
X121622634Y-87470941D01*
X121597049Y-87481801D01*
X121584239Y-87486438D01*
X121552792Y-87495933D01*
X121548244Y-87498151D01*
X121548237Y-87498154D01*
X121482182Y-87530371D01*
X121476180Y-87533107D01*
X121449067Y-87544616D01*
X121403844Y-87563812D01*
X121379532Y-87579123D01*
X121376044Y-87581319D01*
X121364140Y-87587945D01*
X121334612Y-87602346D01*
X121330475Y-87605265D01*
X121330474Y-87605265D01*
X121270403Y-87647641D01*
X121264914Y-87651301D01*
X121209245Y-87686358D01*
X121198433Y-87693167D01*
X121194644Y-87696508D01*
X121194638Y-87696512D01*
X121173783Y-87714898D01*
X121163088Y-87723344D01*
X121136253Y-87742274D01*
X121114750Y-87761909D01*
X121075034Y-87801625D01*
X121069264Y-87807044D01*
X121020142Y-87850350D01*
X121020139Y-87850353D01*
X121016345Y-87853698D01*
X121013135Y-87857606D01*
X121013134Y-87857607D01*
X120989821Y-87885989D01*
X120981551Y-87895108D01*
X120492064Y-88384595D01*
X120429752Y-88418621D01*
X120402969Y-88421500D01*
X119781866Y-88421500D01*
X119719684Y-88428255D01*
X119583295Y-88479385D01*
X119466739Y-88566739D01*
X119379385Y-88683295D01*
X119328255Y-88819684D01*
X119321500Y-88881866D01*
X119321500Y-90866000D01*
X119301498Y-90934121D01*
X119247842Y-90980614D01*
X119195500Y-90992000D01*
X118468657Y-90992000D01*
X118400536Y-90971998D01*
X118354043Y-90918342D01*
X118343939Y-90848068D01*
X118350675Y-90821770D01*
X118378478Y-90747606D01*
X118382105Y-90732351D01*
X118387631Y-90681486D01*
X118388000Y-90674672D01*
X118388000Y-87902115D01*
X118383525Y-87886876D01*
X118382135Y-87885671D01*
X118374452Y-87884000D01*
X111390116Y-87884000D01*
X111374877Y-87888475D01*
X111373672Y-87889865D01*
X111372001Y-87897548D01*
X111372001Y-90674669D01*
X111372371Y-90681490D01*
X111377895Y-90732352D01*
X111381521Y-90747603D01*
X111409325Y-90821770D01*
X111414508Y-90892577D01*
X111380587Y-90954946D01*
X111318332Y-90989076D01*
X111291343Y-90992000D01*
X96634000Y-90992000D01*
X96565879Y-90971998D01*
X96519386Y-90918342D01*
X96508000Y-90866000D01*
X96508000Y-87478924D01*
X96987418Y-87478924D01*
X96987835Y-87486150D01*
X97003179Y-87752257D01*
X97004004Y-87756462D01*
X97004005Y-87756470D01*
X97030349Y-87890743D01*
X97055889Y-88020923D01*
X97057276Y-88024974D01*
X97142582Y-88274134D01*
X97144573Y-88279950D01*
X97195630Y-88381465D01*
X97209495Y-88409032D01*
X97267591Y-88524544D01*
X97270017Y-88528073D01*
X97270020Y-88528079D01*
X97355749Y-88652814D01*
X97422666Y-88750179D01*
X97606929Y-88952681D01*
X97816969Y-89128302D01*
X97820595Y-89130577D01*
X97820597Y-89130578D01*
X97838654Y-89141905D01*
X98048901Y-89273792D01*
X98052803Y-89275554D01*
X98052807Y-89275556D01*
X98294520Y-89384694D01*
X98294524Y-89384696D01*
X98298432Y-89386460D01*
X98302551Y-89387680D01*
X98556832Y-89463002D01*
X98556837Y-89463003D01*
X98560945Y-89464220D01*
X98565179Y-89464868D01*
X98565184Y-89464869D01*
X98827340Y-89504984D01*
X98827342Y-89504984D01*
X98831582Y-89505633D01*
X98970913Y-89507822D01*
X99101045Y-89509867D01*
X99101051Y-89509867D01*
X99105336Y-89509934D01*
X99377141Y-89477042D01*
X99641967Y-89407566D01*
X99894914Y-89302792D01*
X100131301Y-89164658D01*
X100346754Y-88995722D01*
X100350072Y-88992299D01*
X100490721Y-88847159D01*
X100537286Y-88799108D01*
X100539819Y-88795660D01*
X100539823Y-88795655D01*
X100696834Y-88581909D01*
X100699372Y-88578454D01*
X100705733Y-88566739D01*
X100827962Y-88341621D01*
X100827963Y-88341619D01*
X100830012Y-88337845D01*
X100926789Y-88081732D01*
X100968973Y-87897548D01*
X100986954Y-87819038D01*
X100986955Y-87819034D01*
X100987912Y-87814854D01*
X100988498Y-87808295D01*
X101004411Y-87630000D01*
X101791435Y-87630000D01*
X101811657Y-87861137D01*
X101813081Y-87866450D01*
X101813081Y-87866452D01*
X101849795Y-88003469D01*
X101871708Y-88085251D01*
X101874030Y-88090232D01*
X101874031Y-88090233D01*
X101960607Y-88275894D01*
X101969764Y-88295532D01*
X102102845Y-88485592D01*
X102266908Y-88649655D01*
X102271416Y-88652812D01*
X102271419Y-88652814D01*
X102350778Y-88708381D01*
X102456967Y-88782736D01*
X102461949Y-88785059D01*
X102461954Y-88785062D01*
X102655420Y-88875276D01*
X102667249Y-88880792D01*
X102672557Y-88882214D01*
X102672559Y-88882215D01*
X102886048Y-88939419D01*
X102886050Y-88939419D01*
X102891363Y-88940843D01*
X103122500Y-88961065D01*
X103353637Y-88940843D01*
X103358950Y-88939419D01*
X103358952Y-88939419D01*
X103572441Y-88882215D01*
X103572443Y-88882214D01*
X103577751Y-88880792D01*
X103589580Y-88875276D01*
X103783046Y-88785062D01*
X103783051Y-88785059D01*
X103788033Y-88782736D01*
X103894222Y-88708381D01*
X103973581Y-88652814D01*
X103973584Y-88652812D01*
X103978092Y-88649655D01*
X104142155Y-88485592D01*
X104178908Y-88433103D01*
X104234365Y-88388774D01*
X104304984Y-88381465D01*
X104368345Y-88413495D01*
X104388741Y-88438231D01*
X104447968Y-88532283D01*
X104447976Y-88532293D01*
X104450667Y-88536567D01*
X104454012Y-88540361D01*
X104607850Y-88714858D01*
X104607853Y-88714861D01*
X104611198Y-88718655D01*
X104615106Y-88721865D01*
X104615107Y-88721866D01*
X104779912Y-88857237D01*
X104798778Y-88872734D01*
X104903678Y-88933788D01*
X104916624Y-88941322D01*
X105008578Y-88994841D01*
X105013301Y-88996654D01*
X105230478Y-89080020D01*
X105230482Y-89080021D01*
X105235202Y-89081833D01*
X105240152Y-89082867D01*
X105240155Y-89082868D01*
X105467869Y-89130440D01*
X105467873Y-89130440D01*
X105472820Y-89131474D01*
X105715317Y-89142486D01*
X105720337Y-89141905D01*
X105720341Y-89141905D01*
X105951429Y-89115167D01*
X105951433Y-89115166D01*
X105956456Y-89114585D01*
X105961320Y-89113209D01*
X105961323Y-89113208D01*
X106185169Y-89049866D01*
X106185168Y-89049866D01*
X106190032Y-89048490D01*
X106194608Y-89046356D01*
X106194614Y-89046354D01*
X106405454Y-88948038D01*
X106405458Y-88948036D01*
X106410036Y-88945901D01*
X106610807Y-88809456D01*
X106787181Y-88642668D01*
X106811360Y-88611044D01*
X106931542Y-88453852D01*
X106931543Y-88453851D01*
X106934620Y-88449826D01*
X106937013Y-88445363D01*
X106939754Y-88441110D01*
X106942433Y-88442837D01*
X106981326Y-88401025D01*
X107050109Y-88383436D01*
X107117483Y-88405827D01*
X107148881Y-88437086D01*
X107182845Y-88485592D01*
X107346908Y-88649655D01*
X107351416Y-88652812D01*
X107351419Y-88652814D01*
X107430778Y-88708381D01*
X107536967Y-88782736D01*
X107541949Y-88785059D01*
X107541954Y-88785062D01*
X107735420Y-88875276D01*
X107747249Y-88880792D01*
X107752557Y-88882214D01*
X107752559Y-88882215D01*
X107966048Y-88939419D01*
X107966050Y-88939419D01*
X107971363Y-88940843D01*
X108202500Y-88961065D01*
X108433637Y-88940843D01*
X108438950Y-88939419D01*
X108438952Y-88939419D01*
X108652441Y-88882215D01*
X108652443Y-88882214D01*
X108657751Y-88880792D01*
X108669580Y-88875276D01*
X108863046Y-88785062D01*
X108863051Y-88785059D01*
X108868033Y-88782736D01*
X108974222Y-88708381D01*
X109053581Y-88652814D01*
X109053584Y-88652812D01*
X109058092Y-88649655D01*
X109222155Y-88485592D01*
X109355236Y-88295532D01*
X109364394Y-88275894D01*
X109450969Y-88090233D01*
X109450970Y-88090232D01*
X109453292Y-88085251D01*
X109475206Y-88003469D01*
X109511919Y-87866452D01*
X109511919Y-87866450D01*
X109513343Y-87861137D01*
X109533565Y-87630000D01*
X109513343Y-87398863D01*
X109506018Y-87371525D01*
X109502363Y-87357885D01*
X111372000Y-87357885D01*
X111376475Y-87373124D01*
X111377865Y-87374329D01*
X111385548Y-87376000D01*
X114607885Y-87376000D01*
X114623124Y-87371525D01*
X114624329Y-87370135D01*
X114626000Y-87362452D01*
X114626000Y-87357885D01*
X115134000Y-87357885D01*
X115138475Y-87373124D01*
X115139865Y-87374329D01*
X115147548Y-87376000D01*
X118369884Y-87376000D01*
X118385123Y-87371525D01*
X118386328Y-87370135D01*
X118387999Y-87362452D01*
X118387999Y-86378134D01*
X119321500Y-86378134D01*
X119328255Y-86440316D01*
X119379385Y-86576705D01*
X119466739Y-86693261D01*
X119583295Y-86780615D01*
X119719684Y-86831745D01*
X119781866Y-86838500D01*
X122378134Y-86838500D01*
X122440316Y-86831745D01*
X122576705Y-86780615D01*
X122693261Y-86693261D01*
X122780615Y-86576705D01*
X122831745Y-86440316D01*
X122838500Y-86378134D01*
X122838500Y-86099183D01*
X123164389Y-86099183D01*
X123165912Y-86107607D01*
X123178292Y-86111000D01*
X124227885Y-86111000D01*
X124243124Y-86106525D01*
X124244329Y-86105135D01*
X124246000Y-86097452D01*
X124246000Y-86092885D01*
X124754000Y-86092885D01*
X124758475Y-86108124D01*
X124759865Y-86109329D01*
X124767548Y-86111000D01*
X125818344Y-86111000D01*
X125831875Y-86107027D01*
X125833180Y-86097947D01*
X125791214Y-85930875D01*
X125787894Y-85921124D01*
X125702972Y-85725814D01*
X125698105Y-85716739D01*
X125582426Y-85537926D01*
X125576136Y-85529757D01*
X125432806Y-85372240D01*
X125425273Y-85365215D01*
X125258139Y-85233222D01*
X125249552Y-85227517D01*
X125063117Y-85124599D01*
X125053705Y-85120369D01*
X124852959Y-85049280D01*
X124842988Y-85046646D01*
X124771837Y-85033972D01*
X124758540Y-85035432D01*
X124754000Y-85049989D01*
X124754000Y-86092885D01*
X124246000Y-86092885D01*
X124246000Y-85048102D01*
X124242082Y-85034758D01*
X124227806Y-85032771D01*
X124189324Y-85038660D01*
X124179288Y-85041051D01*
X123976868Y-85107212D01*
X123967359Y-85111209D01*
X123778463Y-85209542D01*
X123769738Y-85215036D01*
X123599433Y-85342905D01*
X123591726Y-85349748D01*
X123444590Y-85503717D01*
X123438104Y-85511727D01*
X123318098Y-85687649D01*
X123313000Y-85696623D01*
X123223338Y-85889783D01*
X123219775Y-85899470D01*
X123164389Y-86099183D01*
X122838500Y-86099183D01*
X122838500Y-84281866D01*
X122831745Y-84219684D01*
X122780615Y-84083295D01*
X122693261Y-83966739D01*
X122576705Y-83879385D01*
X122440316Y-83828255D01*
X122378134Y-83821500D01*
X119781866Y-83821500D01*
X119719684Y-83828255D01*
X119583295Y-83879385D01*
X119466739Y-83966739D01*
X119379385Y-84083295D01*
X119328255Y-84219684D01*
X119321500Y-84281866D01*
X119321500Y-86378134D01*
X118387999Y-86378134D01*
X118387999Y-84585331D01*
X118387629Y-84578510D01*
X118382105Y-84527648D01*
X118378479Y-84512396D01*
X118333324Y-84391946D01*
X118324786Y-84376351D01*
X118248285Y-84274276D01*
X118235724Y-84261715D01*
X118133649Y-84185214D01*
X118118054Y-84176676D01*
X117997606Y-84131522D01*
X117982351Y-84127895D01*
X117931486Y-84122369D01*
X117924672Y-84122000D01*
X115152115Y-84122000D01*
X115136876Y-84126475D01*
X115135671Y-84127865D01*
X115134000Y-84135548D01*
X115134000Y-87357885D01*
X114626000Y-87357885D01*
X114626000Y-84140116D01*
X114621525Y-84124877D01*
X114620135Y-84123672D01*
X114612452Y-84122001D01*
X111835331Y-84122001D01*
X111828510Y-84122371D01*
X111777648Y-84127895D01*
X111762396Y-84131521D01*
X111641946Y-84176676D01*
X111626351Y-84185214D01*
X111524276Y-84261715D01*
X111511715Y-84274276D01*
X111435214Y-84376351D01*
X111426676Y-84391946D01*
X111381522Y-84512394D01*
X111377895Y-84527649D01*
X111372369Y-84578514D01*
X111372000Y-84585328D01*
X111372000Y-87357885D01*
X109502363Y-87357885D01*
X109454715Y-87180059D01*
X109454714Y-87180057D01*
X109453292Y-87174749D01*
X109448927Y-87165388D01*
X109357559Y-86969449D01*
X109357557Y-86969446D01*
X109355236Y-86964468D01*
X109222155Y-86774408D01*
X109058092Y-86610345D01*
X109053584Y-86607188D01*
X109053581Y-86607186D01*
X108937022Y-86525571D01*
X108868033Y-86477264D01*
X108863051Y-86474941D01*
X108863046Y-86474938D01*
X108662733Y-86381531D01*
X108662732Y-86381530D01*
X108657751Y-86379208D01*
X108652443Y-86377786D01*
X108652441Y-86377785D01*
X108438952Y-86320581D01*
X108438950Y-86320581D01*
X108433637Y-86319157D01*
X108258606Y-86303844D01*
X108192489Y-86277981D01*
X108150850Y-86220477D01*
X108146909Y-86149590D01*
X108180494Y-86089228D01*
X109219734Y-85049989D01*
X110379798Y-83889925D01*
X110442110Y-83855899D01*
X110468893Y-83853020D01*
X115426464Y-83853020D01*
X115429982Y-83853069D01*
X115524630Y-83855713D01*
X115524633Y-83855713D01*
X115529685Y-83855854D01*
X115607578Y-83845461D01*
X115614119Y-83844762D01*
X115642812Y-83842453D01*
X115687403Y-83838866D01*
X115687407Y-83838865D01*
X115692445Y-83838460D01*
X115724358Y-83830621D01*
X115737738Y-83828094D01*
X115770300Y-83823749D01*
X115775141Y-83822288D01*
X115775143Y-83822287D01*
X115845509Y-83801042D01*
X115851872Y-83799301D01*
X115928186Y-83780557D01*
X115958432Y-83767719D01*
X115971243Y-83763081D01*
X115997842Y-83755050D01*
X116002688Y-83753587D01*
X116007236Y-83751369D01*
X116007243Y-83751366D01*
X116073298Y-83719149D01*
X116079300Y-83716413D01*
X116123984Y-83697445D01*
X116151636Y-83685708D01*
X116179436Y-83668201D01*
X116191340Y-83661575D01*
X116220868Y-83647174D01*
X116285080Y-83601877D01*
X116290566Y-83598219D01*
X116352766Y-83559049D01*
X116352767Y-83559048D01*
X116357047Y-83556353D01*
X116360836Y-83553012D01*
X116360842Y-83553008D01*
X116381697Y-83534622D01*
X116392392Y-83526176D01*
X116395343Y-83524094D01*
X116419227Y-83507246D01*
X116440730Y-83487611D01*
X116480446Y-83447895D01*
X116486216Y-83442476D01*
X116535338Y-83399170D01*
X116535341Y-83399167D01*
X116539135Y-83395822D01*
X116565659Y-83363531D01*
X116573929Y-83354412D01*
X118018167Y-81910174D01*
X118075182Y-81877421D01*
X118227756Y-81837252D01*
X118227759Y-81837251D01*
X118232279Y-81836061D01*
X118236576Y-81834215D01*
X118471549Y-81733263D01*
X118471552Y-81733261D01*
X118475838Y-81731420D01*
X118479804Y-81728966D01*
X118479817Y-81728959D01*
X118571286Y-81672356D01*
X118637589Y-81653500D01*
X123355465Y-81653500D01*
X123414130Y-81667991D01*
X123636837Y-81785163D01*
X123641260Y-81786708D01*
X123641261Y-81786708D01*
X123785998Y-81837252D01*
X123887102Y-81872559D01*
X123891695Y-81873431D01*
X124142947Y-81921133D01*
X124142950Y-81921133D01*
X124147536Y-81922004D01*
X124273411Y-81926950D01*
X124407750Y-81932228D01*
X124407755Y-81932228D01*
X124412418Y-81932411D01*
X124515397Y-81921133D01*
X124671275Y-81904062D01*
X124671280Y-81904061D01*
X124675928Y-81903552D01*
X124742250Y-81886091D01*
X124927756Y-81837252D01*
X124927759Y-81837251D01*
X124932279Y-81836061D01*
X124936576Y-81834215D01*
X125171544Y-81733265D01*
X125171548Y-81733263D01*
X125175838Y-81731420D01*
X125278337Y-81667992D01*
X125397282Y-81594387D01*
X125397286Y-81594384D01*
X125401255Y-81591928D01*
X125603577Y-81420649D01*
X125623091Y-81398398D01*
X125775278Y-81224862D01*
X125775281Y-81224857D01*
X125778360Y-81221347D01*
X125803802Y-81181794D01*
X125864671Y-81087161D01*
X125921765Y-80998399D01*
X126030641Y-80756703D01*
X126102596Y-80501570D01*
X126136050Y-80238603D01*
X126138501Y-80145000D01*
X126128568Y-80011334D01*
X126119202Y-79885295D01*
X126119201Y-79885291D01*
X126118856Y-79880643D01*
X126060352Y-79622093D01*
X126050966Y-79597956D01*
X125965968Y-79379383D01*
X125965967Y-79379380D01*
X125964275Y-79375030D01*
X125832735Y-79144883D01*
X125668621Y-78936706D01*
X125475540Y-78755074D01*
X125304617Y-78636500D01*
X125261575Y-78606640D01*
X125261572Y-78606638D01*
X125257733Y-78603975D01*
X125253543Y-78601909D01*
X125253540Y-78601907D01*
X125024172Y-78488796D01*
X125024169Y-78488795D01*
X125019984Y-78486731D01*
X124973097Y-78471722D01*
X124771962Y-78407338D01*
X124771964Y-78407338D01*
X124767517Y-78405915D01*
X124594354Y-78377714D01*
X124510490Y-78364056D01*
X124510489Y-78364056D01*
X124505878Y-78363305D01*
X124373347Y-78361570D01*
X124245492Y-78359896D01*
X124245489Y-78359896D01*
X124240815Y-78359835D01*
X123978150Y-78395582D01*
X123973660Y-78396891D01*
X123973654Y-78396892D01*
X123865430Y-78428437D01*
X123723654Y-78469761D01*
X123719407Y-78471719D01*
X123719404Y-78471720D01*
X123719400Y-78471722D01*
X123482918Y-78580742D01*
X123429336Y-78615872D01*
X123360251Y-78636500D01*
X118644043Y-78636500D01*
X118572224Y-78614028D01*
X118557733Y-78603975D01*
X118553543Y-78601909D01*
X118553540Y-78601907D01*
X118324172Y-78488796D01*
X118324169Y-78488795D01*
X118319984Y-78486731D01*
X118273097Y-78471722D01*
X118071962Y-78407338D01*
X118071964Y-78407338D01*
X118067517Y-78405915D01*
X117894354Y-78377714D01*
X117810490Y-78364056D01*
X117810489Y-78364056D01*
X117805878Y-78363305D01*
X117673347Y-78361570D01*
X117545492Y-78359896D01*
X117545489Y-78359896D01*
X117540815Y-78359835D01*
X117278150Y-78395582D01*
X117273660Y-78396891D01*
X117273654Y-78396892D01*
X117165430Y-78428437D01*
X117023654Y-78469761D01*
X117019407Y-78471719D01*
X117019404Y-78471720D01*
X117019400Y-78471722D01*
X116782918Y-78580742D01*
X116779009Y-78583305D01*
X116565143Y-78723521D01*
X116565138Y-78723525D01*
X116561230Y-78726087D01*
X116363460Y-78902603D01*
X116193954Y-79106412D01*
X116056434Y-79333038D01*
X116054625Y-79337352D01*
X116054624Y-79337354D01*
X115963504Y-79554650D01*
X115953922Y-79577500D01*
X115952771Y-79582032D01*
X115918114Y-79718494D01*
X115885086Y-79776573D01*
X114862544Y-80799115D01*
X114800232Y-80833141D01*
X114773449Y-80836020D01*
X109815863Y-80836020D01*
X109812344Y-80835971D01*
X109717711Y-80833327D01*
X109717708Y-80833327D01*
X109712656Y-80833186D01*
X109634763Y-80843579D01*
X109628222Y-80844278D01*
X109599529Y-80846587D01*
X109554938Y-80850174D01*
X109554934Y-80850175D01*
X109549896Y-80850580D01*
X109517983Y-80858419D01*
X109504603Y-80860946D01*
X109472041Y-80865291D01*
X109467200Y-80866752D01*
X109467198Y-80866753D01*
X109396832Y-80887998D01*
X109390471Y-80889739D01*
X109314155Y-80908483D01*
X109309495Y-80910461D01*
X109283910Y-80921321D01*
X109271100Y-80925958D01*
X109239653Y-80935453D01*
X109235105Y-80937671D01*
X109235098Y-80937674D01*
X109169043Y-80969891D01*
X109163041Y-80972627D01*
X109118357Y-80991595D01*
X109090705Y-81003332D01*
X109066393Y-81018643D01*
X109062905Y-81020839D01*
X109051001Y-81027465D01*
X109021473Y-81041866D01*
X109017336Y-81044785D01*
X109017335Y-81044785D01*
X108957264Y-81087161D01*
X108951775Y-81090821D01*
X108921785Y-81109707D01*
X108885294Y-81132687D01*
X108881505Y-81136028D01*
X108881499Y-81136032D01*
X108860644Y-81154418D01*
X108849949Y-81162864D01*
X108823114Y-81181794D01*
X108801611Y-81201429D01*
X108761895Y-81241145D01*
X108756125Y-81246564D01*
X108707003Y-81289870D01*
X108707000Y-81289873D01*
X108703206Y-81293218D01*
X108699996Y-81297126D01*
X108699995Y-81297127D01*
X108676682Y-81325509D01*
X108668412Y-81334628D01*
X104612834Y-85390206D01*
X104610312Y-85392660D01*
X104537819Y-85461213D01*
X104490092Y-85523638D01*
X104485948Y-85528773D01*
X104435030Y-85588601D01*
X104432411Y-85592926D01*
X104432407Y-85592931D01*
X104418009Y-85616705D01*
X104410337Y-85627952D01*
X104390380Y-85654055D01*
X104356981Y-85716345D01*
X104353261Y-85723282D01*
X104349996Y-85729007D01*
X104309279Y-85796239D01*
X104307384Y-85800930D01*
X104296973Y-85826698D01*
X104291193Y-85839039D01*
X104275669Y-85867990D01*
X104274023Y-85872771D01*
X104274021Y-85872775D01*
X104250088Y-85942282D01*
X104247778Y-85948460D01*
X104218345Y-86021310D01*
X104217223Y-86026249D01*
X104211068Y-86053341D01*
X104207337Y-86066440D01*
X104196638Y-86097512D01*
X104183257Y-86174981D01*
X104181977Y-86181385D01*
X104164565Y-86258025D01*
X104162501Y-86290834D01*
X104160915Y-86304334D01*
X104155321Y-86336717D01*
X104154000Y-86365806D01*
X104154000Y-86421989D01*
X104153751Y-86429900D01*
X104150573Y-86480421D01*
X104149564Y-86496452D01*
X104125325Y-86563183D01*
X104068856Y-86606215D01*
X103998086Y-86611886D01*
X103951542Y-86591754D01*
X103792542Y-86480421D01*
X103792539Y-86480419D01*
X103788033Y-86477264D01*
X103783051Y-86474941D01*
X103783046Y-86474938D01*
X103582733Y-86381531D01*
X103582732Y-86381530D01*
X103577751Y-86379208D01*
X103572443Y-86377786D01*
X103572441Y-86377785D01*
X103358952Y-86320581D01*
X103358950Y-86320581D01*
X103353637Y-86319157D01*
X103122500Y-86298935D01*
X102891363Y-86319157D01*
X102886050Y-86320581D01*
X102886048Y-86320581D01*
X102672559Y-86377785D01*
X102672557Y-86377786D01*
X102667249Y-86379208D01*
X102662268Y-86381530D01*
X102662267Y-86381531D01*
X102461949Y-86474941D01*
X102461946Y-86474943D01*
X102456968Y-86477264D01*
X102266908Y-86610345D01*
X102102845Y-86774408D01*
X101969764Y-86964468D01*
X101967443Y-86969446D01*
X101967441Y-86969449D01*
X101876073Y-87165388D01*
X101871708Y-87174749D01*
X101870286Y-87180057D01*
X101870285Y-87180059D01*
X101818982Y-87371525D01*
X101811657Y-87398863D01*
X101791435Y-87630000D01*
X101004411Y-87630000D01*
X101012031Y-87544616D01*
X101012251Y-87542151D01*
X101012692Y-87500000D01*
X101012315Y-87494470D01*
X100994362Y-87231123D01*
X100994361Y-87231117D01*
X100994070Y-87226846D01*
X100983063Y-87173692D01*
X100943737Y-86983794D01*
X100938550Y-86958747D01*
X100847157Y-86700664D01*
X100843337Y-86693261D01*
X100723550Y-86461178D01*
X100723549Y-86461177D01*
X100721585Y-86457371D01*
X100714799Y-86447715D01*
X100566619Y-86236877D01*
X100566614Y-86236871D01*
X100564155Y-86233372D01*
X100446748Y-86107027D01*
X100380703Y-86035954D01*
X100380700Y-86035951D01*
X100377782Y-86032811D01*
X100374466Y-86030097D01*
X100374463Y-86030094D01*
X100169233Y-85862114D01*
X100169226Y-85862109D01*
X100165915Y-85859399D01*
X99932472Y-85716345D01*
X99928555Y-85714626D01*
X99928552Y-85714624D01*
X99781429Y-85650042D01*
X99681775Y-85606297D01*
X99677647Y-85605121D01*
X99677644Y-85605120D01*
X99596557Y-85582022D01*
X99418462Y-85531290D01*
X99414220Y-85530686D01*
X99414214Y-85530685D01*
X99215596Y-85502418D01*
X99147406Y-85492713D01*
X99003671Y-85491961D01*
X98877908Y-85491302D01*
X98877902Y-85491302D01*
X98873622Y-85491280D01*
X98869378Y-85491839D01*
X98869374Y-85491839D01*
X98750397Y-85507503D01*
X98602177Y-85527016D01*
X98598037Y-85528149D01*
X98598035Y-85528149D01*
X98342238Y-85598127D01*
X98338093Y-85599261D01*
X98086257Y-85706678D01*
X97851329Y-85847280D01*
X97847978Y-85849964D01*
X97847976Y-85849966D01*
X97819506Y-85872775D01*
X97637657Y-86018463D01*
X97449194Y-86217062D01*
X97289428Y-86439400D01*
X97161314Y-86681364D01*
X97067225Y-86938477D01*
X97008899Y-87205980D01*
X96987418Y-87478924D01*
X96508000Y-87478924D01*
X96508000Y-80098183D01*
X97547112Y-80098183D01*
X97547336Y-80102850D01*
X97547336Y-80102855D01*
X97553471Y-80230573D01*
X97559830Y-80362963D01*
X97560743Y-80367551D01*
X97594099Y-80535242D01*
X97611546Y-80622956D01*
X97613125Y-80627354D01*
X97613127Y-80627361D01*
X97657949Y-80752200D01*
X97701123Y-80872449D01*
X97826594Y-81105961D01*
X97985201Y-81318362D01*
X97988510Y-81321642D01*
X97988515Y-81321648D01*
X98091430Y-81423668D01*
X98173462Y-81504987D01*
X98177224Y-81507745D01*
X98177227Y-81507748D01*
X98287918Y-81588910D01*
X98387239Y-81661735D01*
X98391382Y-81663915D01*
X98391384Y-81663916D01*
X98617687Y-81782980D01*
X98617692Y-81782982D01*
X98621837Y-81785163D01*
X98626260Y-81786708D01*
X98626261Y-81786708D01*
X98770998Y-81837252D01*
X98872102Y-81872559D01*
X98876695Y-81873431D01*
X99127947Y-81921133D01*
X99127950Y-81921133D01*
X99132536Y-81922004D01*
X99258411Y-81926950D01*
X99392750Y-81932228D01*
X99392755Y-81932228D01*
X99397418Y-81932411D01*
X99500397Y-81921133D01*
X99656275Y-81904062D01*
X99656280Y-81904061D01*
X99660928Y-81903552D01*
X99727250Y-81886091D01*
X99912756Y-81837252D01*
X99912759Y-81837251D01*
X99917279Y-81836061D01*
X99921576Y-81834215D01*
X100156549Y-81733263D01*
X100156552Y-81733261D01*
X100160838Y-81731420D01*
X100164804Y-81728966D01*
X100164817Y-81728959D01*
X100256286Y-81672356D01*
X100322589Y-81653500D01*
X105040465Y-81653500D01*
X105099130Y-81667991D01*
X105321837Y-81785163D01*
X105326260Y-81786708D01*
X105326261Y-81786708D01*
X105470998Y-81837252D01*
X105572102Y-81872559D01*
X105576695Y-81873431D01*
X105827947Y-81921133D01*
X105827950Y-81921133D01*
X105832536Y-81922004D01*
X105958411Y-81926950D01*
X106092750Y-81932228D01*
X106092755Y-81932228D01*
X106097418Y-81932411D01*
X106200397Y-81921133D01*
X106356275Y-81904062D01*
X106356280Y-81904061D01*
X106360928Y-81903552D01*
X106427250Y-81886091D01*
X106612756Y-81837252D01*
X106612759Y-81837251D01*
X106617279Y-81836061D01*
X106621576Y-81834215D01*
X106856544Y-81733265D01*
X106856548Y-81733263D01*
X106860838Y-81731420D01*
X106963337Y-81667992D01*
X107082282Y-81594387D01*
X107082286Y-81594384D01*
X107086255Y-81591928D01*
X107288577Y-81420649D01*
X107308091Y-81398398D01*
X107460278Y-81224862D01*
X107460281Y-81224857D01*
X107463360Y-81221347D01*
X107488802Y-81181794D01*
X107549671Y-81087161D01*
X107606765Y-80998399D01*
X107715641Y-80756703D01*
X107769176Y-80566885D01*
X107801350Y-80511992D01*
X108267937Y-80045405D01*
X108330249Y-80011379D01*
X108357032Y-80008500D01*
X114024442Y-80008500D01*
X114027960Y-80008549D01*
X114122608Y-80011193D01*
X114122611Y-80011193D01*
X114127663Y-80011334D01*
X114205556Y-80000941D01*
X114212097Y-80000242D01*
X114240790Y-79997933D01*
X114285381Y-79994346D01*
X114285385Y-79994345D01*
X114290423Y-79993940D01*
X114322336Y-79986101D01*
X114335716Y-79983574D01*
X114368278Y-79979229D01*
X114373119Y-79977768D01*
X114373121Y-79977767D01*
X114443487Y-79956522D01*
X114449850Y-79954781D01*
X114526164Y-79936037D01*
X114556410Y-79923199D01*
X114569221Y-79918561D01*
X114595820Y-79910530D01*
X114600666Y-79909067D01*
X114605214Y-79906849D01*
X114605221Y-79906846D01*
X114671276Y-79874629D01*
X114677278Y-79871893D01*
X114721962Y-79852925D01*
X114749614Y-79841188D01*
X114777414Y-79823681D01*
X114789318Y-79817055D01*
X114818846Y-79802654D01*
X114883058Y-79757357D01*
X114888544Y-79753699D01*
X114950744Y-79714529D01*
X114950745Y-79714528D01*
X114955025Y-79711833D01*
X114958814Y-79708492D01*
X114958820Y-79708488D01*
X114979675Y-79690102D01*
X114990370Y-79681656D01*
X114993321Y-79679574D01*
X115017205Y-79662726D01*
X115038708Y-79643091D01*
X115078424Y-79603375D01*
X115084194Y-79597956D01*
X115133316Y-79554650D01*
X115133319Y-79554647D01*
X115137113Y-79551302D01*
X115163637Y-79519011D01*
X115171907Y-79509892D01*
X119549666Y-75132133D01*
X119552188Y-75129679D01*
X119621012Y-75064596D01*
X119621014Y-75064593D01*
X119624681Y-75061126D01*
X119672411Y-74998697D01*
X119676552Y-74993566D01*
X119724191Y-74937591D01*
X119724192Y-74937590D01*
X119727470Y-74933738D01*
X119730089Y-74929413D01*
X119730093Y-74929408D01*
X119744491Y-74905634D01*
X119752163Y-74894387D01*
X119772120Y-74868284D01*
X119809243Y-74799050D01*
X119812507Y-74793326D01*
X119850602Y-74730424D01*
X119853221Y-74726100D01*
X119865528Y-74695639D01*
X119871308Y-74683299D01*
X119884440Y-74658808D01*
X119886831Y-74654349D01*
X119888621Y-74649153D01*
X119912412Y-74580057D01*
X119914722Y-74573879D01*
X119942258Y-74505724D01*
X119944155Y-74501029D01*
X119951432Y-74468997D01*
X119955163Y-74455899D01*
X119965862Y-74424827D01*
X119979243Y-74347358D01*
X119980526Y-74340940D01*
X119996815Y-74269244D01*
X119996815Y-74269243D01*
X119997935Y-74264314D01*
X119999999Y-74231505D01*
X120001585Y-74218005D01*
X120007179Y-74185622D01*
X120007359Y-74181662D01*
X120008436Y-74157952D01*
X120008436Y-74157933D01*
X120008500Y-74156533D01*
X120008500Y-74100350D01*
X120008749Y-74092438D01*
X120012860Y-74027099D01*
X120013178Y-74022045D01*
X120009101Y-73980466D01*
X120008500Y-73968170D01*
X120008500Y-73438999D01*
X120007363Y-73424865D01*
X119994346Y-73263076D01*
X119994345Y-73263071D01*
X119993940Y-73258035D01*
X119989544Y-73240135D01*
X119937244Y-73027208D01*
X119936037Y-73022294D01*
X119926486Y-72999792D01*
X119868516Y-72863224D01*
X119858500Y-72813992D01*
X119858500Y-72699600D01*
X119856502Y-72680342D01*
X119848238Y-72600692D01*
X119848237Y-72600688D01*
X119847526Y-72593834D01*
X119817050Y-72502485D01*
X119809189Y-72478924D01*
X121987418Y-72478924D01*
X121987835Y-72486150D01*
X122003179Y-72752257D01*
X122004004Y-72756462D01*
X122004005Y-72756470D01*
X122031009Y-72894109D01*
X122055889Y-73020923D01*
X122057276Y-73024974D01*
X122138796Y-73263076D01*
X122144573Y-73279950D01*
X122146499Y-73283779D01*
X122209495Y-73409032D01*
X122267591Y-73524544D01*
X122270017Y-73528073D01*
X122270020Y-73528079D01*
X122365434Y-73666906D01*
X122422666Y-73750179D01*
X122606929Y-73952681D01*
X122816969Y-74128302D01*
X122820595Y-74130577D01*
X122820597Y-74130578D01*
X122859719Y-74155119D01*
X123048901Y-74273792D01*
X123052803Y-74275554D01*
X123052807Y-74275556D01*
X123294520Y-74384694D01*
X123294524Y-74384696D01*
X123298432Y-74386460D01*
X123302551Y-74387680D01*
X123556832Y-74463002D01*
X123556837Y-74463003D01*
X123560945Y-74464220D01*
X123565179Y-74464868D01*
X123565184Y-74464869D01*
X123827340Y-74504984D01*
X123827342Y-74504984D01*
X123831582Y-74505633D01*
X123970913Y-74507822D01*
X124101045Y-74509867D01*
X124101051Y-74509867D01*
X124105336Y-74509934D01*
X124377141Y-74477042D01*
X124641967Y-74407566D01*
X124894914Y-74302792D01*
X125016864Y-74231530D01*
X125127598Y-74166822D01*
X125127599Y-74166821D01*
X125131301Y-74164658D01*
X125346754Y-73995722D01*
X125351726Y-73990592D01*
X125526009Y-73810745D01*
X125537286Y-73799108D01*
X125539819Y-73795660D01*
X125539823Y-73795655D01*
X125696834Y-73581909D01*
X125699372Y-73578454D01*
X125725829Y-73529727D01*
X125827962Y-73341621D01*
X125827963Y-73341619D01*
X125830012Y-73337845D01*
X125926789Y-73081732D01*
X125976834Y-72863224D01*
X125986954Y-72819038D01*
X125986955Y-72819034D01*
X125987912Y-72814854D01*
X125990814Y-72782345D01*
X126012031Y-72544616D01*
X126012251Y-72542151D01*
X126012692Y-72500000D01*
X126010964Y-72474653D01*
X125994362Y-72231123D01*
X125994361Y-72231117D01*
X125994070Y-72226846D01*
X125979545Y-72156704D01*
X125956730Y-72046537D01*
X125938550Y-71958747D01*
X125847157Y-71700664D01*
X125844958Y-71696402D01*
X125723550Y-71461178D01*
X125723549Y-71461177D01*
X125721585Y-71457371D01*
X125719122Y-71453866D01*
X125566619Y-71236877D01*
X125566614Y-71236871D01*
X125564155Y-71233372D01*
X125426877Y-71085643D01*
X125380703Y-71035954D01*
X125380700Y-71035951D01*
X125377782Y-71032811D01*
X125374466Y-71030097D01*
X125374463Y-71030094D01*
X125169233Y-70862114D01*
X125169226Y-70862109D01*
X125165915Y-70859399D01*
X124932472Y-70716345D01*
X124928555Y-70714626D01*
X124928552Y-70714624D01*
X124818232Y-70666197D01*
X124681775Y-70606297D01*
X124677647Y-70605121D01*
X124677644Y-70605120D01*
X124596557Y-70582022D01*
X124418462Y-70531290D01*
X124414220Y-70530686D01*
X124414214Y-70530685D01*
X124215596Y-70502418D01*
X124147406Y-70492713D01*
X124003671Y-70491961D01*
X123877908Y-70491302D01*
X123877902Y-70491302D01*
X123873622Y-70491280D01*
X123869378Y-70491839D01*
X123869374Y-70491839D01*
X123750397Y-70507503D01*
X123602177Y-70527016D01*
X123598037Y-70528149D01*
X123598035Y-70528149D01*
X123582251Y-70532467D01*
X123338093Y-70599261D01*
X123086257Y-70706678D01*
X122851329Y-70847280D01*
X122847978Y-70849964D01*
X122847976Y-70849966D01*
X122836202Y-70859399D01*
X122637657Y-71018463D01*
X122449194Y-71217062D01*
X122289428Y-71439400D01*
X122161314Y-71681364D01*
X122067225Y-71938477D01*
X122008899Y-72205980D01*
X121987418Y-72478924D01*
X119809189Y-72478924D01*
X119793868Y-72433002D01*
X119791550Y-72426054D01*
X119698478Y-72275652D01*
X119573303Y-72150695D01*
X119542965Y-72131994D01*
X119428968Y-72061725D01*
X119428966Y-72061724D01*
X119422738Y-72057885D01*
X119303498Y-72018335D01*
X119261389Y-72004368D01*
X119261387Y-72004368D01*
X119254861Y-72002203D01*
X119248025Y-72001503D01*
X119248022Y-72001502D01*
X119204969Y-71997091D01*
X119150400Y-71991500D01*
X118537812Y-71991500D01*
X118532096Y-71991370D01*
X118447183Y-71987514D01*
X118442163Y-71988095D01*
X118442159Y-71988095D01*
X118419950Y-71990665D01*
X118405468Y-71991500D01*
X117849600Y-71991500D01*
X117846354Y-71991837D01*
X117846350Y-71991837D01*
X117750692Y-72001762D01*
X117750688Y-72001763D01*
X117743834Y-72002474D01*
X117737298Y-72004655D01*
X117737296Y-72004655D01*
X117605194Y-72048728D01*
X117576054Y-72058450D01*
X117425652Y-72151522D01*
X117300695Y-72276697D01*
X117296855Y-72282927D01*
X117296854Y-72282928D01*
X117210648Y-72422780D01*
X117157876Y-72470273D01*
X117087804Y-72481697D01*
X117022680Y-72453423D01*
X117012218Y-72443636D01*
X116906766Y-72333094D01*
X116898814Y-72326059D01*
X116722475Y-72194859D01*
X116713438Y-72189255D01*
X116517516Y-72089643D01*
X116507665Y-72085643D01*
X116297760Y-72020466D01*
X116287376Y-72018183D01*
X116271957Y-72016139D01*
X116257793Y-72018335D01*
X116254000Y-72031522D01*
X116254000Y-73628000D01*
X116233998Y-73696121D01*
X116180342Y-73742614D01*
X116128000Y-73754000D01*
X114664030Y-73754000D01*
X114649352Y-73758310D01*
X114647289Y-73770193D01*
X114656124Y-73874325D01*
X114657914Y-73884797D01*
X114713130Y-74097535D01*
X114716665Y-74107575D01*
X114806937Y-74307970D01*
X114812106Y-74317256D01*
X114934850Y-74499575D01*
X114941519Y-74507870D01*
X115093228Y-74666900D01*
X115101186Y-74673941D01*
X115277525Y-74805141D01*
X115286562Y-74810745D01*
X115342520Y-74839195D01*
X115394178Y-74887898D01*
X115411304Y-74956798D01*
X115388462Y-75024020D01*
X115374510Y-75040607D01*
X114414139Y-76000978D01*
X114351827Y-76035004D01*
X114281012Y-76029939D01*
X114224176Y-75987392D01*
X114199365Y-75920872D01*
X114202525Y-75882469D01*
X114248722Y-75690046D01*
X114248722Y-75690045D01*
X114250032Y-75684589D01*
X114262963Y-75460310D01*
X114235975Y-75237285D01*
X114169918Y-75022565D01*
X114156251Y-74996084D01*
X114069454Y-74827919D01*
X114069454Y-74827918D01*
X114066882Y-74822936D01*
X113930123Y-74644708D01*
X113763964Y-74493515D01*
X113759217Y-74490537D01*
X113759214Y-74490535D01*
X113578405Y-74377115D01*
X113573656Y-74374136D01*
X113365217Y-74290344D01*
X113145233Y-74244787D01*
X113140622Y-74244521D01*
X113140621Y-74244521D01*
X113090048Y-74241605D01*
X113090044Y-74241605D01*
X113088225Y-74241500D01*
X110742328Y-74241500D01*
X110674207Y-74221498D01*
X110627714Y-74167842D01*
X110617610Y-74097568D01*
X110647104Y-74032988D01*
X110706830Y-73994604D01*
X110716454Y-73992185D01*
X110886421Y-73956523D01*
X110896617Y-73953463D01*
X111101029Y-73872737D01*
X111110561Y-73868006D01*
X111298462Y-73753984D01*
X111307052Y-73747720D01*
X111473052Y-73603673D01*
X111480472Y-73596042D01*
X111619826Y-73426089D01*
X111625850Y-73417322D01*
X111732266Y-73230376D01*
X114642732Y-73230376D01*
X114646475Y-73243124D01*
X114647865Y-73244329D01*
X114655548Y-73246000D01*
X115727885Y-73246000D01*
X115743124Y-73241525D01*
X115744329Y-73240135D01*
X115746000Y-73232452D01*
X115746000Y-72033808D01*
X115742027Y-72020277D01*
X115731420Y-72018752D01*
X115613579Y-72043477D01*
X115603383Y-72046537D01*
X115398971Y-72127263D01*
X115389439Y-72131994D01*
X115201538Y-72246016D01*
X115192948Y-72252280D01*
X115026948Y-72396327D01*
X115019528Y-72403958D01*
X114880174Y-72573911D01*
X114874150Y-72582678D01*
X114765424Y-72773682D01*
X114760959Y-72783346D01*
X114685969Y-72989941D01*
X114683198Y-73000208D01*
X114643877Y-73217655D01*
X114642944Y-73225884D01*
X114642732Y-73230376D01*
X111732266Y-73230376D01*
X111734576Y-73226318D01*
X111739041Y-73216654D01*
X111814031Y-73010059D01*
X111816802Y-72999792D01*
X111856123Y-72782345D01*
X111857056Y-72774116D01*
X111857268Y-72769624D01*
X111853525Y-72756876D01*
X111852135Y-72755671D01*
X111844452Y-72754000D01*
X110372000Y-72754000D01*
X110303879Y-72733998D01*
X110257386Y-72680342D01*
X110246000Y-72628000D01*
X110246000Y-72227885D01*
X110754000Y-72227885D01*
X110758475Y-72243124D01*
X110759865Y-72244329D01*
X110767548Y-72246000D01*
X111835970Y-72246000D01*
X111850648Y-72241690D01*
X111852711Y-72229807D01*
X111843876Y-72125675D01*
X111842086Y-72115203D01*
X111786870Y-71902465D01*
X111783335Y-71892425D01*
X111693063Y-71692030D01*
X111687894Y-71682744D01*
X111565150Y-71500425D01*
X111558481Y-71492130D01*
X111406772Y-71333100D01*
X111398814Y-71326059D01*
X111222475Y-71194859D01*
X111213438Y-71189255D01*
X111017516Y-71089643D01*
X111007665Y-71085643D01*
X110797760Y-71020466D01*
X110787376Y-71018183D01*
X110771957Y-71016139D01*
X110757793Y-71018335D01*
X110754000Y-71031522D01*
X110754000Y-72227885D01*
X110246000Y-72227885D01*
X110246000Y-71033808D01*
X110242027Y-71020277D01*
X110231420Y-71018752D01*
X110113579Y-71043477D01*
X110103383Y-71046537D01*
X109898971Y-71127263D01*
X109889439Y-71131994D01*
X109701538Y-71246016D01*
X109692948Y-71252280D01*
X109526948Y-71396327D01*
X109519530Y-71403956D01*
X109493609Y-71435569D01*
X109434949Y-71475564D01*
X109363979Y-71477496D01*
X109303230Y-71440752D01*
X109289030Y-71421982D01*
X109202332Y-71281880D01*
X109198478Y-71275652D01*
X109073303Y-71150695D01*
X109042965Y-71131994D01*
X108928968Y-71061725D01*
X108928966Y-71061724D01*
X108922738Y-71057885D01*
X108803498Y-71018335D01*
X108761389Y-71004368D01*
X108761387Y-71004368D01*
X108754861Y-71002203D01*
X108748025Y-71001503D01*
X108748022Y-71001502D01*
X108704969Y-70997091D01*
X108650400Y-70991500D01*
X107349600Y-70991500D01*
X107346354Y-70991837D01*
X107346350Y-70991837D01*
X107250692Y-71001762D01*
X107250688Y-71001763D01*
X107243834Y-71002474D01*
X107237298Y-71004655D01*
X107237296Y-71004655D01*
X107105194Y-71048728D01*
X107076054Y-71058450D01*
X106925652Y-71151522D01*
X106800695Y-71276697D01*
X106796855Y-71282927D01*
X106796854Y-71282928D01*
X106726954Y-71396327D01*
X106707885Y-71427262D01*
X106705581Y-71434209D01*
X106675278Y-71525571D01*
X106652203Y-71595139D01*
X106641500Y-71699600D01*
X106641500Y-73300400D01*
X106652474Y-73406166D01*
X106654655Y-73412702D01*
X106654655Y-73412704D01*
X106693697Y-73529727D01*
X106708450Y-73573946D01*
X106801522Y-73724348D01*
X106926697Y-73849305D01*
X106932927Y-73853145D01*
X106932928Y-73853146D01*
X107070090Y-73937694D01*
X107077262Y-73942115D01*
X107238612Y-73995632D01*
X107239441Y-73995907D01*
X107297801Y-74036337D01*
X107325038Y-74101902D01*
X107312505Y-74171783D01*
X107264180Y-74223795D01*
X107199774Y-74241500D01*
X103378573Y-74241500D01*
X103310452Y-74221498D01*
X103289478Y-74204595D01*
X103125960Y-74041077D01*
X103091934Y-73978765D01*
X103096999Y-73907950D01*
X103139546Y-73851114D01*
X103149689Y-73844263D01*
X103298462Y-73753984D01*
X103307052Y-73747720D01*
X103473052Y-73603673D01*
X103480472Y-73596042D01*
X103619826Y-73426089D01*
X103625850Y-73417322D01*
X103734576Y-73226318D01*
X103739041Y-73216654D01*
X103814031Y-73010059D01*
X103816802Y-72999792D01*
X103856123Y-72782345D01*
X103857056Y-72774116D01*
X103857268Y-72769624D01*
X103853525Y-72756876D01*
X103852135Y-72755671D01*
X103844452Y-72754000D01*
X102372000Y-72754000D01*
X102303879Y-72733998D01*
X102257386Y-72680342D01*
X102246000Y-72628000D01*
X102246000Y-72227885D01*
X102754000Y-72227885D01*
X102758475Y-72243124D01*
X102759865Y-72244329D01*
X102767548Y-72246000D01*
X103835970Y-72246000D01*
X103850648Y-72241690D01*
X103852711Y-72229807D01*
X103843876Y-72125675D01*
X103842086Y-72115203D01*
X103786870Y-71902465D01*
X103783335Y-71892425D01*
X103693063Y-71692030D01*
X103687894Y-71682744D01*
X103565150Y-71500425D01*
X103558481Y-71492130D01*
X103406772Y-71333100D01*
X103398814Y-71326059D01*
X103222475Y-71194859D01*
X103213438Y-71189255D01*
X103017516Y-71089643D01*
X103007665Y-71085643D01*
X102797760Y-71020466D01*
X102787376Y-71018183D01*
X102771957Y-71016139D01*
X102757793Y-71018335D01*
X102754000Y-71031522D01*
X102754000Y-72227885D01*
X102246000Y-72227885D01*
X102246000Y-71033808D01*
X102242027Y-71020277D01*
X102231420Y-71018752D01*
X102113579Y-71043477D01*
X102103383Y-71046537D01*
X101898971Y-71127263D01*
X101889439Y-71131994D01*
X101701538Y-71246016D01*
X101692948Y-71252280D01*
X101526948Y-71396327D01*
X101519530Y-71403956D01*
X101493609Y-71435569D01*
X101434949Y-71475564D01*
X101363979Y-71477496D01*
X101303230Y-71440752D01*
X101289030Y-71421982D01*
X101202332Y-71281880D01*
X101198478Y-71275652D01*
X101073303Y-71150695D01*
X101042965Y-71131994D01*
X100928968Y-71061725D01*
X100928966Y-71061724D01*
X100922738Y-71057885D01*
X100803498Y-71018335D01*
X100761389Y-71004368D01*
X100761387Y-71004368D01*
X100754861Y-71002203D01*
X100748025Y-71001503D01*
X100748022Y-71001502D01*
X100704969Y-70997091D01*
X100650400Y-70991500D01*
X99349600Y-70991500D01*
X99346354Y-70991837D01*
X99346350Y-70991837D01*
X99250692Y-71001762D01*
X99250688Y-71001763D01*
X99243834Y-71002474D01*
X99237298Y-71004655D01*
X99237296Y-71004655D01*
X99105194Y-71048728D01*
X99076054Y-71058450D01*
X98925652Y-71151522D01*
X98800695Y-71276697D01*
X98796855Y-71282927D01*
X98796854Y-71282928D01*
X98726954Y-71396327D01*
X98707885Y-71427262D01*
X98705581Y-71434209D01*
X98675278Y-71525571D01*
X98652203Y-71595139D01*
X98641500Y-71699600D01*
X98641500Y-73300400D01*
X98652474Y-73406166D01*
X98654655Y-73412702D01*
X98654655Y-73412704D01*
X98693697Y-73529727D01*
X98708450Y-73573946D01*
X98801522Y-73724348D01*
X98926697Y-73849305D01*
X98932927Y-73853145D01*
X98932928Y-73853146D01*
X99070090Y-73937694D01*
X99077262Y-73942115D01*
X99117409Y-73955431D01*
X99238611Y-73995632D01*
X99238613Y-73995632D01*
X99245139Y-73997797D01*
X99251975Y-73998497D01*
X99251978Y-73998498D01*
X99295031Y-74002909D01*
X99349600Y-74008500D01*
X99481618Y-74008500D01*
X99549739Y-74028502D01*
X99570713Y-74045405D01*
X101850570Y-76325263D01*
X101861437Y-76337653D01*
X101874972Y-76355292D01*
X101934889Y-76409812D01*
X101935269Y-76410158D01*
X101939564Y-76414257D01*
X101955505Y-76430198D01*
X101975531Y-76446942D01*
X101979486Y-76450392D01*
X102041131Y-76506485D01*
X102045885Y-76509467D01*
X102056325Y-76516016D01*
X102070185Y-76526085D01*
X102083948Y-76537593D01*
X102088829Y-76540377D01*
X102156313Y-76578869D01*
X102160843Y-76581579D01*
X102231439Y-76625864D01*
X102236643Y-76627956D01*
X102248078Y-76632553D01*
X102263508Y-76640012D01*
X102274214Y-76646119D01*
X102274223Y-76646123D01*
X102279088Y-76648898D01*
X102357633Y-76676712D01*
X102362545Y-76678568D01*
X102439878Y-76709656D01*
X102457456Y-76713296D01*
X102473949Y-76717902D01*
X102490854Y-76723888D01*
X102496388Y-76724794D01*
X102496391Y-76724795D01*
X102573072Y-76737352D01*
X102578244Y-76738311D01*
X102659862Y-76755213D01*
X102675493Y-76756114D01*
X102687658Y-76756816D01*
X102700764Y-76758263D01*
X102707009Y-76759286D01*
X102707016Y-76759287D01*
X102712552Y-76760193D01*
X102718166Y-76760105D01*
X102718168Y-76760105D01*
X102819325Y-76758516D01*
X102821304Y-76758500D01*
X107404711Y-76758500D01*
X107472832Y-76778502D01*
X107519325Y-76832158D01*
X107529429Y-76902432D01*
X107499935Y-76967012D01*
X107434768Y-77006862D01*
X107406122Y-77013899D01*
X107392742Y-77016426D01*
X107360180Y-77020771D01*
X107355339Y-77022232D01*
X107355337Y-77022233D01*
X107284971Y-77043478D01*
X107278610Y-77045219D01*
X107202294Y-77063963D01*
X107197634Y-77065941D01*
X107172049Y-77076801D01*
X107159239Y-77081438D01*
X107127792Y-77090933D01*
X107123244Y-77093151D01*
X107123237Y-77093154D01*
X107057182Y-77125371D01*
X107051180Y-77128107D01*
X107006496Y-77147075D01*
X106978844Y-77158812D01*
X106954532Y-77174123D01*
X106951044Y-77176319D01*
X106939140Y-77182945D01*
X106909612Y-77197346D01*
X106905475Y-77200265D01*
X106905474Y-77200265D01*
X106845403Y-77242641D01*
X106839914Y-77246301D01*
X106777714Y-77285471D01*
X106773433Y-77288167D01*
X106769644Y-77291508D01*
X106769638Y-77291512D01*
X106748783Y-77309898D01*
X106738088Y-77318344D01*
X106711253Y-77337274D01*
X106689750Y-77356909D01*
X106650034Y-77396625D01*
X106644264Y-77402044D01*
X106595142Y-77445350D01*
X106595139Y-77445353D01*
X106591345Y-77448698D01*
X106588135Y-77452606D01*
X106588134Y-77452607D01*
X106564821Y-77480989D01*
X106556551Y-77490108D01*
X105668945Y-78377714D01*
X105615109Y-78409585D01*
X105408654Y-78469761D01*
X105167918Y-78580742D01*
X105114336Y-78615872D01*
X105045251Y-78636500D01*
X100329043Y-78636500D01*
X100257224Y-78614028D01*
X100242733Y-78603975D01*
X100238543Y-78601909D01*
X100238540Y-78601907D01*
X100009172Y-78488796D01*
X100009169Y-78488795D01*
X100004984Y-78486731D01*
X99958097Y-78471722D01*
X99756962Y-78407338D01*
X99756964Y-78407338D01*
X99752517Y-78405915D01*
X99579354Y-78377714D01*
X99495490Y-78364056D01*
X99495489Y-78364056D01*
X99490878Y-78363305D01*
X99358347Y-78361570D01*
X99230492Y-78359896D01*
X99230489Y-78359896D01*
X99225815Y-78359835D01*
X98963150Y-78395582D01*
X98958660Y-78396891D01*
X98958654Y-78396892D01*
X98850430Y-78428437D01*
X98708654Y-78469761D01*
X98704407Y-78471719D01*
X98704404Y-78471720D01*
X98704400Y-78471722D01*
X98467918Y-78580742D01*
X98464009Y-78583305D01*
X98250143Y-78723521D01*
X98250138Y-78723525D01*
X98246230Y-78726087D01*
X98048460Y-78902603D01*
X97878954Y-79106412D01*
X97741434Y-79333038D01*
X97739625Y-79337352D01*
X97739624Y-79337354D01*
X97648504Y-79554650D01*
X97638922Y-79577500D01*
X97637771Y-79582032D01*
X97637770Y-79582035D01*
X97588364Y-79776573D01*
X97573670Y-79834430D01*
X97573201Y-79839086D01*
X97573201Y-79839087D01*
X97572791Y-79843162D01*
X97547112Y-80098183D01*
X96508000Y-80098183D01*
X96508000Y-69626000D01*
X96528002Y-69557879D01*
X96581658Y-69511386D01*
X96634000Y-69500000D01*
X126366000Y-69500000D01*
X126434121Y-69520002D01*
G37*
G04 #@! TD.AperFunction*
M02*
