%TF.GenerationSoftware,KiCad,Pcbnew,(5.1.8)-1*%
%TF.CreationDate,2021-03-06T21:21:54+09:00*%
%TF.ProjectId,led_driver,6c65645f-6472-4697-9665-722e6b696361,rev?*%
%TF.SameCoordinates,PX7df6180PY3a22d00*%
%TF.FileFunction,Legend,Top*%
%TF.FilePolarity,Positive*%
%FSLAX46Y46*%
G04 Gerber Fmt 4.6, Leading zero omitted, Abs format (unit mm)*
G04 Created by KiCad (PCBNEW (5.1.8)-1) date 2021-03-06 21:21:54*
%MOMM*%
%LPD*%
G01*
G04 APERTURE LIST*
%ADD10C,0.120000*%
%ADD11C,0.100000*%
%ADD12C,0.200000*%
%ADD13C,1.700000*%
%ADD14O,1.700000X1.700000*%
%ADD15R,1.700000X1.700000*%
%ADD16R,0.700000X1.500000*%
%ADD17R,1.000000X1.500000*%
%ADD18R,1.800000X2.200000*%
%ADD19R,1.050000X1.800000*%
%ADD20R,0.800000X0.800000*%
G04 APERTURE END LIST*
D10*
X13462000Y17272000D02*
X13462000Y16002000D01*
X11938000Y17272000D02*
X13462000Y17272000D01*
X11938000Y16002000D02*
X11938000Y17272000D01*
D11*
%TO.C,J5*%
X23800000Y7160000D02*
X23800000Y7160000D01*
X23900000Y7160000D02*
X23900000Y7160000D01*
X23150000Y11410000D02*
X23150000Y8910000D01*
X27650000Y11410000D02*
X27650000Y8910000D01*
X23900000Y7160000D02*
G75*
G02*
X23800000Y7160000I-50000J0D01*
G01*
X23800000Y7160000D02*
G75*
G02*
X23900000Y7160000I50000J0D01*
G01*
%TO.C,J6*%
X21935000Y11410000D02*
X21935000Y8910000D01*
X17435000Y11410000D02*
X17435000Y8910000D01*
X18185000Y7160000D02*
X18185000Y7160000D01*
X18085000Y7160000D02*
X18085000Y7160000D01*
X18085000Y7160000D02*
G75*
G02*
X18185000Y7160000I50000J0D01*
G01*
X18185000Y7160000D02*
G75*
G02*
X18085000Y7160000I-50000J0D01*
G01*
%TO.C,J7*%
X12370000Y7160000D02*
X12370000Y7160000D01*
X12470000Y7160000D02*
X12470000Y7160000D01*
X11720000Y11410000D02*
X11720000Y8910000D01*
X16220000Y11410000D02*
X16220000Y8910000D01*
X12470000Y7160000D02*
G75*
G02*
X12370000Y7160000I-50000J0D01*
G01*
X12370000Y7160000D02*
G75*
G02*
X12470000Y7160000I50000J0D01*
G01*
%TO.C,J10*%
X6655000Y7160000D02*
X6655000Y7160000D01*
X6755000Y7160000D02*
X6755000Y7160000D01*
X6005000Y11410000D02*
X6005000Y8910000D01*
X10505000Y11410000D02*
X10505000Y8910000D01*
X6755000Y7160000D02*
G75*
G02*
X6655000Y7160000I-50000J0D01*
G01*
X6655000Y7160000D02*
G75*
G02*
X6755000Y7160000I50000J0D01*
G01*
%TO.C,J11*%
X4790000Y11410000D02*
X4790000Y8910000D01*
X290000Y11410000D02*
X290000Y8910000D01*
X1040000Y7160000D02*
X1040000Y7160000D01*
X940000Y7160000D02*
X940000Y7160000D01*
X940000Y7160000D02*
G75*
G02*
X1040000Y7160000I50000J0D01*
G01*
X1040000Y7160000D02*
G75*
G02*
X940000Y7160000I-50000J0D01*
G01*
D12*
%TO.C,R1*%
X25400000Y4380000D02*
X25400000Y5780000D01*
%TO.C,R2*%
X19685000Y4380000D02*
X19685000Y5780000D01*
%TO.C,R3*%
X13970000Y4380000D02*
X13970000Y5780000D01*
%TO.C,R4*%
X8255000Y4380000D02*
X8255000Y5780000D01*
%TO.C,R5*%
X2540000Y4380000D02*
X2540000Y5780000D01*
%TO.C,R6*%
X8255000Y3240000D02*
X8255000Y1840000D01*
%TO.C,R7*%
X2540000Y3240000D02*
X2540000Y1840000D01*
D11*
%TO.C,LED1*%
X12300000Y16075000D02*
X12300000Y15675000D01*
X13100000Y16075000D02*
X13100000Y15675000D01*
D12*
%TO.C,R8*%
X8610000Y16575000D02*
X8610000Y15175000D01*
%TD*%
%LPC*%
D13*
%TO.C,J2*%
X25400000Y2540000D03*
D14*
X22860000Y2540000D03*
X20320000Y2540000D03*
X17780000Y2540000D03*
X15240000Y2540000D03*
%TD*%
%TO.C,J3*%
X15240000Y15240000D03*
X17780000Y15240000D03*
X20320000Y15240000D03*
X22860000Y15240000D03*
D13*
X25400000Y15240000D03*
%TD*%
D15*
%TO.C,J1*%
X2540000Y15240000D03*
D14*
X5080000Y15240000D03*
%TD*%
D16*
%TO.C,J5*%
X23900000Y8310000D03*
D17*
X25400000Y8310000D03*
D16*
X26900000Y8310000D03*
X26900000Y12010000D03*
D17*
X25400000Y12010000D03*
D16*
X23900000Y12010000D03*
D18*
X25400000Y10160000D03*
%TD*%
%TO.C,J6*%
X19685000Y10160000D03*
D16*
X18185000Y12010000D03*
D17*
X19685000Y12010000D03*
D16*
X21185000Y12010000D03*
X21185000Y8310000D03*
D17*
X19685000Y8310000D03*
D16*
X18185000Y8310000D03*
%TD*%
%TO.C,J7*%
X12470000Y8310000D03*
D17*
X13970000Y8310000D03*
D16*
X15470000Y8310000D03*
X15470000Y12010000D03*
D17*
X13970000Y12010000D03*
D16*
X12470000Y12010000D03*
D18*
X13970000Y10160000D03*
%TD*%
D16*
%TO.C,J10*%
X6755000Y8310000D03*
D17*
X8255000Y8310000D03*
D16*
X9755000Y8310000D03*
X9755000Y12010000D03*
D17*
X8255000Y12010000D03*
D16*
X6755000Y12010000D03*
D18*
X8255000Y10160000D03*
%TD*%
%TO.C,J11*%
X2540000Y10160000D03*
D16*
X1040000Y12010000D03*
D17*
X2540000Y12010000D03*
D16*
X4040000Y12010000D03*
X4040000Y8310000D03*
D17*
X2540000Y8310000D03*
D16*
X1040000Y8310000D03*
%TD*%
D19*
%TO.C,R1*%
X26950000Y5080000D03*
X23850000Y5080000D03*
%TD*%
%TO.C,R2*%
X18135000Y5080000D03*
X21235000Y5080000D03*
%TD*%
%TO.C,R3*%
X15520000Y5080000D03*
X12420000Y5080000D03*
%TD*%
%TO.C,R4*%
X9805000Y5080000D03*
X6705000Y5080000D03*
%TD*%
%TO.C,R5*%
X4090000Y5080000D03*
X990000Y5080000D03*
%TD*%
%TO.C,R6*%
X9805000Y2540000D03*
X6705000Y2540000D03*
%TD*%
%TO.C,R7*%
X4090000Y2540000D03*
X990000Y2540000D03*
%TD*%
D20*
%TO.C,LED1*%
X12700000Y16625000D03*
X12700000Y15125000D03*
%TD*%
D19*
%TO.C,R8*%
X7060000Y15875000D03*
X10160000Y15875000D03*
%TD*%
M02*
