M48
; DRILL file {KiCad (5.1.8)-1} date 03/06/21 21:21:57
; FORMAT={-:-/ absolute / metric / decimal}
; #@! TF.CreationDate,2021-03-06T21:21:57+09:00
; #@! TF.GenerationSoftware,Kicad,Pcbnew,(5.1.8)-1
FMAT,2
METRIC
T1C0.400
T2C1.000
%
G90
G05
T1
X0.635Y10.16
X1.016Y16.764
X1.27Y6.58
X2.54Y1.143
X2.667Y6.604
X4.318Y10.16
X5.334Y6.604
X6.35Y10.16
X6.985Y6.58
X8.255Y1.143
X8.382Y6.604
X8.636Y15.875
X10.033Y10.16
X11.176Y6.858
X12.065Y10.16
X12.319Y1.143
X12.7Y6.58
X15.748Y10.16
X17.78Y10.16
X18.415Y6.58
X21.463Y10.16
X22.606Y6.858
X23.495Y10.16
X24.13Y6.58
X25.654Y6.604
X26.924Y16.764
X26.924Y1.016
X27.178Y10.16
T2
X2.54Y15.24
X5.08Y15.24
X15.24Y15.24
X17.78Y15.24
X20.32Y15.24
X22.86Y15.24
X25.4Y15.24
X15.24Y2.54
X17.78Y2.54
X20.32Y2.54
X22.86Y2.54
X25.4Y2.54
T0
M30
