%TF.GenerationSoftware,KiCad,Pcbnew,(5.1.8)-1*%
%TF.CreationDate,2021-03-06T21:29:21+09:00*%
%TF.ProjectId,sub_bord,7375625f-626f-4726-942e-6b696361645f,rev?*%
%TF.SameCoordinates,PX9896800PY660b0c0*%
%TF.FileFunction,Legend,Top*%
%TF.FilePolarity,Positive*%
%FSLAX46Y46*%
G04 Gerber Fmt 4.6, Leading zero omitted, Abs format (unit mm)*
G04 Created by KiCad (PCBNEW (5.1.8)-1) date 2021-03-06 21:29:21*
%MOMM*%
%LPD*%
G01*
G04 APERTURE LIST*
%ADD10C,0.200000*%
%ADD11C,0.100000*%
%ADD12C,0.120000*%
%ADD13C,0.254000*%
%ADD14O,1.700000X1.950000*%
%ADD15O,1.700000X2.000000*%
%ADD16O,2.000000X1.700000*%
%ADD17R,1.050000X1.800000*%
%ADD18C,1.800000*%
%ADD19C,1.300000*%
%ADD20C,1.635000*%
%ADD21C,1.700000*%
G04 APERTURE END LIST*
D10*
%TO.C,R1*%
X10180000Y13720000D02*
X10180000Y12320000D01*
%TO.C,R2*%
X10180000Y30100000D02*
X10180000Y31500000D01*
D11*
%TO.C,S1*%
X16145000Y22695000D02*
X16145000Y24695000D01*
X16145000Y24695000D02*
X28145000Y24695000D01*
X28145000Y24695000D02*
X28145000Y22695000D01*
X16145000Y14695000D02*
X16145000Y12695000D01*
X16145000Y12695000D02*
X28145000Y12695000D01*
X28145000Y12695000D02*
X28145000Y14695000D01*
D10*
X15145000Y15095000D02*
X15145000Y15095000D01*
X15145000Y14895000D02*
X15145000Y14895000D01*
X15145000Y14895000D02*
G75*
G02*
X15145000Y15095000I0J100000D01*
G01*
X15145000Y15095000D02*
G75*
G02*
X15145000Y14895000I0J-100000D01*
G01*
%TO.C,S2*%
X15145000Y32675000D02*
X15145000Y32675000D01*
X15145000Y32875000D02*
X15145000Y32875000D01*
D11*
X28145000Y30475000D02*
X28145000Y32475000D01*
X16145000Y30475000D02*
X28145000Y30475000D01*
X16145000Y32475000D02*
X16145000Y30475000D01*
X28145000Y42475000D02*
X28145000Y40475000D01*
X16145000Y42475000D02*
X28145000Y42475000D01*
X16145000Y40475000D02*
X16145000Y42475000D01*
D10*
X15145000Y32875000D02*
G75*
G02*
X15145000Y32675000I0J-100000D01*
G01*
X15145000Y32675000D02*
G75*
G02*
X15145000Y32875000I0J100000D01*
G01*
D12*
%TO.C,U1*%
X52395000Y6260000D02*
X52395000Y50260000D01*
X57395000Y55260000D02*
X101395000Y55260000D01*
X106395000Y50260000D02*
X106395000Y6260000D01*
X101395000Y1260000D02*
X57395000Y1260000D01*
X52395000Y50260000D02*
G75*
G02*
X57395000Y55260000I5000000J0D01*
G01*
X101395000Y55260000D02*
G75*
G02*
X106395000Y50260000I0J-5000000D01*
G01*
X106395000Y6260000D02*
G75*
G02*
X101395000Y1260000I-5000000J0D01*
G01*
X57395000Y1260000D02*
G75*
G02*
X52395000Y6260000I0J5000000D01*
G01*
%TO.C,R1*%
D13*
X9968333Y12445477D02*
X9545000Y13050239D01*
X9242619Y12445477D02*
X9242619Y13715477D01*
X9726428Y13715477D01*
X9847380Y13655000D01*
X9907857Y13594524D01*
X9968333Y13473572D01*
X9968333Y13292143D01*
X9907857Y13171191D01*
X9847380Y13110715D01*
X9726428Y13050239D01*
X9242619Y13050239D01*
X11177857Y12445477D02*
X10452142Y12445477D01*
X10815000Y12445477D02*
X10815000Y13715477D01*
X10694047Y13534048D01*
X10573095Y13413096D01*
X10452142Y13352620D01*
%TO.C,R2*%
X9968333Y30225477D02*
X9545000Y30830239D01*
X9242619Y30225477D02*
X9242619Y31495477D01*
X9726428Y31495477D01*
X9847380Y31435000D01*
X9907857Y31374524D01*
X9968333Y31253572D01*
X9968333Y31072143D01*
X9907857Y30951191D01*
X9847380Y30890715D01*
X9726428Y30830239D01*
X9242619Y30830239D01*
X10452142Y31374524D02*
X10512619Y31435000D01*
X10633571Y31495477D01*
X10935952Y31495477D01*
X11056904Y31435000D01*
X11117380Y31374524D01*
X11177857Y31253572D01*
X11177857Y31132620D01*
X11117380Y30951191D01*
X10391666Y30225477D01*
X11177857Y30225477D01*
%TO.C,S1*%
X21177380Y18180953D02*
X21358809Y18120477D01*
X21661190Y18120477D01*
X21782142Y18180953D01*
X21842619Y18241429D01*
X21903095Y18362381D01*
X21903095Y18483334D01*
X21842619Y18604286D01*
X21782142Y18664762D01*
X21661190Y18725239D01*
X21419285Y18785715D01*
X21298333Y18846191D01*
X21237857Y18906667D01*
X21177380Y19027620D01*
X21177380Y19148572D01*
X21237857Y19269524D01*
X21298333Y19330000D01*
X21419285Y19390477D01*
X21721666Y19390477D01*
X21903095Y19330000D01*
X23112619Y18120477D02*
X22386904Y18120477D01*
X22749761Y18120477D02*
X22749761Y19390477D01*
X22628809Y19209048D01*
X22507857Y19088096D01*
X22386904Y19027620D01*
%TO.C,S2*%
X21177380Y35960953D02*
X21358809Y35900477D01*
X21661190Y35900477D01*
X21782142Y35960953D01*
X21842619Y36021429D01*
X21903095Y36142381D01*
X21903095Y36263334D01*
X21842619Y36384286D01*
X21782142Y36444762D01*
X21661190Y36505239D01*
X21419285Y36565715D01*
X21298333Y36626191D01*
X21237857Y36686667D01*
X21177380Y36807620D01*
X21177380Y36928572D01*
X21237857Y37049524D01*
X21298333Y37110000D01*
X21419285Y37170477D01*
X21721666Y37170477D01*
X21903095Y37110000D01*
X22386904Y37049524D02*
X22447380Y37110000D01*
X22568333Y37170477D01*
X22870714Y37170477D01*
X22991666Y37110000D01*
X23052142Y37049524D01*
X23112619Y36928572D01*
X23112619Y36807620D01*
X23052142Y36626191D01*
X22326428Y35900477D01*
X23112619Y35900477D01*
%TD*%
%LPC*%
%TO.C,J2*%
G36*
G01*
X22030000Y52935000D02*
X22030000Y54385000D01*
G75*
G02*
X22280000Y54635000I250000J0D01*
G01*
X23480000Y54635000D01*
G75*
G02*
X23730000Y54385000I0J-250000D01*
G01*
X23730000Y52935000D01*
G75*
G02*
X23480000Y52685000I-250000J0D01*
G01*
X22280000Y52685000D01*
G75*
G02*
X22030000Y52935000I0J250000D01*
G01*
G37*
D14*
X25380000Y53660000D03*
X27880000Y53660000D03*
X30380000Y53660000D03*
%TD*%
%TO.C,J3*%
X48080000Y15560000D03*
X45580000Y15560000D03*
X43080000Y15560000D03*
X40580000Y15560000D03*
X38080000Y15560000D03*
G36*
G01*
X34730000Y14835000D02*
X34730000Y16285000D01*
G75*
G02*
X34980000Y16535000I250000J0D01*
G01*
X36180000Y16535000D01*
G75*
G02*
X36430000Y16285000I0J-250000D01*
G01*
X36430000Y14835000D01*
G75*
G02*
X36180000Y14585000I-250000J0D01*
G01*
X34980000Y14585000D01*
G75*
G02*
X34730000Y14835000I0J250000D01*
G01*
G37*
%TD*%
%TO.C,J4*%
G36*
G01*
X34730000Y22455000D02*
X34730000Y23905000D01*
G75*
G02*
X34980000Y24155000I250000J0D01*
G01*
X36180000Y24155000D01*
G75*
G02*
X36430000Y23905000I0J-250000D01*
G01*
X36430000Y22455000D01*
G75*
G02*
X36180000Y22205000I-250000J0D01*
G01*
X34980000Y22205000D01*
G75*
G02*
X34730000Y22455000I0J250000D01*
G01*
G37*
X38080000Y23180000D03*
X40580000Y23180000D03*
X43080000Y23180000D03*
X45580000Y23180000D03*
X48080000Y23180000D03*
%TD*%
%TO.C,J5*%
X48080000Y30800000D03*
X45580000Y30800000D03*
X43080000Y30800000D03*
X40580000Y30800000D03*
X38080000Y30800000D03*
G36*
G01*
X34730000Y30075000D02*
X34730000Y31525000D01*
G75*
G02*
X34980000Y31775000I250000J0D01*
G01*
X36180000Y31775000D01*
G75*
G02*
X36430000Y31525000I0J-250000D01*
G01*
X36430000Y30075000D01*
G75*
G02*
X36180000Y29825000I-250000J0D01*
G01*
X34980000Y29825000D01*
G75*
G02*
X34730000Y30075000I0J250000D01*
G01*
G37*
%TD*%
%TO.C,J6*%
G36*
G01*
X34730000Y37695000D02*
X34730000Y39145000D01*
G75*
G02*
X34980000Y39395000I250000J0D01*
G01*
X36180000Y39395000D01*
G75*
G02*
X36430000Y39145000I0J-250000D01*
G01*
X36430000Y37695000D01*
G75*
G02*
X36180000Y37445000I-250000J0D01*
G01*
X34980000Y37445000D01*
G75*
G02*
X34730000Y37695000I0J250000D01*
G01*
G37*
X38080000Y38420000D03*
X40580000Y38420000D03*
X43080000Y38420000D03*
X45580000Y38420000D03*
X48080000Y38420000D03*
%TD*%
%TO.C,J7*%
G36*
G01*
X37270000Y52910000D02*
X37270000Y54410000D01*
G75*
G02*
X37520000Y54660000I250000J0D01*
G01*
X38720000Y54660000D01*
G75*
G02*
X38970000Y54410000I0J-250000D01*
G01*
X38970000Y52910000D01*
G75*
G02*
X38720000Y52660000I-250000J0D01*
G01*
X37520000Y52660000D01*
G75*
G02*
X37270000Y52910000I0J250000D01*
G01*
G37*
D15*
X40620000Y53660000D03*
%TD*%
%TO.C,J8*%
X17760000Y5400000D03*
G36*
G01*
X14410000Y4650000D02*
X14410000Y6150000D01*
G75*
G02*
X14660000Y6400000I250000J0D01*
G01*
X15860000Y6400000D01*
G75*
G02*
X16110000Y6150000I0J-250000D01*
G01*
X16110000Y4650000D01*
G75*
G02*
X15860000Y4400000I-250000J0D01*
G01*
X14660000Y4400000D01*
G75*
G02*
X14410000Y4650000I0J250000D01*
G01*
G37*
%TD*%
%TO.C,J9*%
G36*
G01*
X24570000Y4650000D02*
X24570000Y6150000D01*
G75*
G02*
X24820000Y6400000I250000J0D01*
G01*
X26020000Y6400000D01*
G75*
G02*
X26270000Y6150000I0J-250000D01*
G01*
X26270000Y4650000D01*
G75*
G02*
X26020000Y4400000I-250000J0D01*
G01*
X24820000Y4400000D01*
G75*
G02*
X24570000Y4650000I0J250000D01*
G01*
G37*
X27920000Y5400000D03*
%TD*%
D16*
%TO.C,J10*%
X5100000Y38460000D03*
G36*
G01*
X4350000Y41810000D02*
X5850000Y41810000D01*
G75*
G02*
X6100000Y41560000I0J-250000D01*
G01*
X6100000Y40360000D01*
G75*
G02*
X5850000Y40110000I-250000J0D01*
G01*
X4350000Y40110000D01*
G75*
G02*
X4100000Y40360000I0J250000D01*
G01*
X4100000Y41560000D01*
G75*
G02*
X4350000Y41810000I250000J0D01*
G01*
G37*
%TD*%
%TO.C,J11*%
G36*
G01*
X47430000Y52910000D02*
X47430000Y54410000D01*
G75*
G02*
X47680000Y54660000I250000J0D01*
G01*
X48880000Y54660000D01*
G75*
G02*
X49130000Y54410000I0J-250000D01*
G01*
X49130000Y52910000D01*
G75*
G02*
X48880000Y52660000I-250000J0D01*
G01*
X47680000Y52660000D01*
G75*
G02*
X47430000Y52910000I0J250000D01*
G01*
G37*
D15*
X50780000Y53660000D03*
%TD*%
D17*
%TO.C,R1*%
X11730000Y13020000D03*
X8630000Y13020000D03*
%TD*%
%TO.C,R2*%
X11730000Y30800000D03*
X8630000Y30800000D03*
%TD*%
D18*
%TO.C,S1*%
X15895000Y16195000D03*
X28395000Y16195000D03*
X15895000Y21195000D03*
X28395000Y21195000D03*
D19*
X18335000Y13615000D03*
X25955000Y23775000D03*
%TD*%
%TO.C,S2*%
X25955000Y41555000D03*
X18335000Y31395000D03*
D18*
X28395000Y38975000D03*
X15895000Y38975000D03*
X28395000Y33975000D03*
X15895000Y33975000D03*
%TD*%
D20*
%TO.C,S3*%
X38120000Y62550000D03*
X35580000Y62550000D03*
X33040000Y62550000D03*
%TD*%
%TO.C,S4*%
X44470000Y62550000D03*
X47010000Y62550000D03*
X49550000Y62550000D03*
%TD*%
D21*
%TO.C,U1*%
X97125000Y50990000D03*
X94585000Y50990000D03*
X92045000Y50990000D03*
X89505000Y50990000D03*
X86965000Y50990000D03*
X84425000Y50990000D03*
X81885000Y50990000D03*
X79345000Y50990000D03*
X76805000Y50990000D03*
X74265000Y50990000D03*
X71725000Y50990000D03*
X69185000Y50990000D03*
X66645000Y50990000D03*
X64105000Y50990000D03*
X61565000Y50990000D03*
X97125000Y48450000D03*
X94585000Y48450000D03*
X92045000Y48450000D03*
X89505000Y48450000D03*
X86965000Y48450000D03*
X84425000Y48450000D03*
X81885000Y48450000D03*
X79345000Y48450000D03*
X76805000Y48450000D03*
X74265000Y48450000D03*
X71725000Y48450000D03*
X69185000Y48450000D03*
X66645000Y48450000D03*
X64105000Y48450000D03*
X61565000Y48450000D03*
%TD*%
%TO.C,J1*%
G36*
G01*
X4250000Y52935000D02*
X4250000Y54385000D01*
G75*
G02*
X4500000Y54635000I250000J0D01*
G01*
X5700000Y54635000D01*
G75*
G02*
X5950000Y54385000I0J-250000D01*
G01*
X5950000Y52935000D01*
G75*
G02*
X5700000Y52685000I-250000J0D01*
G01*
X4500000Y52685000D01*
G75*
G02*
X4250000Y52935000I0J250000D01*
G01*
G37*
D14*
X7600000Y53660000D03*
X10100000Y53660000D03*
X12600000Y53660000D03*
X15100000Y53660000D03*
%TD*%
M02*
