%TF.GenerationSoftware,KiCad,Pcbnew,(5.1.8)-1*%
%TF.CreationDate,2021-03-06T21:29:21+09:00*%
%TF.ProjectId,sub_bord,7375625f-626f-4726-942e-6b696361645f,rev?*%
%TF.SameCoordinates,PX9896800PY660b0c0*%
%TF.FileFunction,Legend,Bot*%
%TF.FilePolarity,Positive*%
%FSLAX46Y46*%
G04 Gerber Fmt 4.6, Leading zero omitted, Abs format (unit mm)*
G04 Created by KiCad (PCBNEW (5.1.8)-1) date 2021-03-06 21:29:21*
%MOMM*%
%LPD*%
G01*
G04 APERTURE LIST*
%ADD10C,0.120000*%
%ADD11C,0.100000*%
%ADD12C,0.200000*%
%ADD13C,0.150000*%
%ADD14C,0.254000*%
%ADD15O,1.700000X1.950000*%
%ADD16O,1.700000X2.000000*%
%ADD17O,2.000000X1.700000*%
%ADD18R,0.800000X0.800000*%
%ADD19R,1.050000X1.800000*%
%ADD20C,1.800000*%
%ADD21C,1.300000*%
%ADD22C,1.635000*%
%ADD23C,1.700000*%
G04 APERTURE END LIST*
D10*
%TO.C,J2*%
X20320000Y51200000D02*
X20320000Y57170000D01*
X20320000Y57170000D02*
X32940000Y57170000D01*
X32940000Y57170000D02*
X32940000Y51200000D01*
X32940000Y51200000D02*
X20320000Y51200000D01*
X23630000Y51210000D02*
X23630000Y51960000D01*
X23630000Y51960000D02*
X29630000Y51960000D01*
X29630000Y51960000D02*
X29630000Y51210000D01*
X29630000Y51210000D02*
X23630000Y51210000D01*
X20330000Y51210000D02*
X20330000Y51960000D01*
X20330000Y51960000D02*
X22130000Y51960000D01*
X22130000Y51960000D02*
X22130000Y51210000D01*
X22130000Y51210000D02*
X20330000Y51210000D01*
X31130000Y51210000D02*
X31130000Y51960000D01*
X31130000Y51960000D02*
X32930000Y51960000D01*
X32930000Y51960000D02*
X32930000Y51210000D01*
X32930000Y51210000D02*
X31130000Y51210000D01*
X20330000Y53460000D02*
X21080000Y53460000D01*
X21080000Y53460000D02*
X21080000Y56410000D01*
X21080000Y56410000D02*
X26630000Y56410000D01*
X32930000Y53460000D02*
X32180000Y53460000D01*
X32180000Y53460000D02*
X32180000Y56410000D01*
X32180000Y56410000D02*
X26630000Y56410000D01*
X21280000Y50910000D02*
X20030000Y50910000D01*
X20030000Y50910000D02*
X20030000Y52160000D01*
%TO.C,J3*%
X32730000Y12810000D02*
X32730000Y14060000D01*
X33980000Y12810000D02*
X32730000Y12810000D01*
X49880000Y18310000D02*
X41830000Y18310000D01*
X49880000Y15360000D02*
X49880000Y18310000D01*
X50630000Y15360000D02*
X49880000Y15360000D01*
X33780000Y18310000D02*
X41830000Y18310000D01*
X33780000Y15360000D02*
X33780000Y18310000D01*
X33030000Y15360000D02*
X33780000Y15360000D01*
X50630000Y13110000D02*
X48830000Y13110000D01*
X50630000Y13860000D02*
X50630000Y13110000D01*
X48830000Y13860000D02*
X50630000Y13860000D01*
X48830000Y13110000D02*
X48830000Y13860000D01*
X34830000Y13110000D02*
X33030000Y13110000D01*
X34830000Y13860000D02*
X34830000Y13110000D01*
X33030000Y13860000D02*
X34830000Y13860000D01*
X33030000Y13110000D02*
X33030000Y13860000D01*
X47330000Y13110000D02*
X36330000Y13110000D01*
X47330000Y13860000D02*
X47330000Y13110000D01*
X36330000Y13860000D02*
X47330000Y13860000D01*
X36330000Y13110000D02*
X36330000Y13860000D01*
X50640000Y13100000D02*
X33020000Y13100000D01*
X50640000Y19070000D02*
X50640000Y13100000D01*
X33020000Y19070000D02*
X50640000Y19070000D01*
X33020000Y13100000D02*
X33020000Y19070000D01*
%TO.C,J4*%
X33020000Y20720000D02*
X33020000Y26690000D01*
X33020000Y26690000D02*
X50640000Y26690000D01*
X50640000Y26690000D02*
X50640000Y20720000D01*
X50640000Y20720000D02*
X33020000Y20720000D01*
X36330000Y20730000D02*
X36330000Y21480000D01*
X36330000Y21480000D02*
X47330000Y21480000D01*
X47330000Y21480000D02*
X47330000Y20730000D01*
X47330000Y20730000D02*
X36330000Y20730000D01*
X33030000Y20730000D02*
X33030000Y21480000D01*
X33030000Y21480000D02*
X34830000Y21480000D01*
X34830000Y21480000D02*
X34830000Y20730000D01*
X34830000Y20730000D02*
X33030000Y20730000D01*
X48830000Y20730000D02*
X48830000Y21480000D01*
X48830000Y21480000D02*
X50630000Y21480000D01*
X50630000Y21480000D02*
X50630000Y20730000D01*
X50630000Y20730000D02*
X48830000Y20730000D01*
X33030000Y22980000D02*
X33780000Y22980000D01*
X33780000Y22980000D02*
X33780000Y25930000D01*
X33780000Y25930000D02*
X41830000Y25930000D01*
X50630000Y22980000D02*
X49880000Y22980000D01*
X49880000Y22980000D02*
X49880000Y25930000D01*
X49880000Y25930000D02*
X41830000Y25930000D01*
X33980000Y20430000D02*
X32730000Y20430000D01*
X32730000Y20430000D02*
X32730000Y21680000D01*
%TO.C,J5*%
X32730000Y28050000D02*
X32730000Y29300000D01*
X33980000Y28050000D02*
X32730000Y28050000D01*
X49880000Y33550000D02*
X41830000Y33550000D01*
X49880000Y30600000D02*
X49880000Y33550000D01*
X50630000Y30600000D02*
X49880000Y30600000D01*
X33780000Y33550000D02*
X41830000Y33550000D01*
X33780000Y30600000D02*
X33780000Y33550000D01*
X33030000Y30600000D02*
X33780000Y30600000D01*
X50630000Y28350000D02*
X48830000Y28350000D01*
X50630000Y29100000D02*
X50630000Y28350000D01*
X48830000Y29100000D02*
X50630000Y29100000D01*
X48830000Y28350000D02*
X48830000Y29100000D01*
X34830000Y28350000D02*
X33030000Y28350000D01*
X34830000Y29100000D02*
X34830000Y28350000D01*
X33030000Y29100000D02*
X34830000Y29100000D01*
X33030000Y28350000D02*
X33030000Y29100000D01*
X47330000Y28350000D02*
X36330000Y28350000D01*
X47330000Y29100000D02*
X47330000Y28350000D01*
X36330000Y29100000D02*
X47330000Y29100000D01*
X36330000Y28350000D02*
X36330000Y29100000D01*
X50640000Y28340000D02*
X33020000Y28340000D01*
X50640000Y34310000D02*
X50640000Y28340000D01*
X33020000Y34310000D02*
X50640000Y34310000D01*
X33020000Y28340000D02*
X33020000Y34310000D01*
%TO.C,J6*%
X33020000Y35960000D02*
X33020000Y41930000D01*
X33020000Y41930000D02*
X50640000Y41930000D01*
X50640000Y41930000D02*
X50640000Y35960000D01*
X50640000Y35960000D02*
X33020000Y35960000D01*
X36330000Y35970000D02*
X36330000Y36720000D01*
X36330000Y36720000D02*
X47330000Y36720000D01*
X47330000Y36720000D02*
X47330000Y35970000D01*
X47330000Y35970000D02*
X36330000Y35970000D01*
X33030000Y35970000D02*
X33030000Y36720000D01*
X33030000Y36720000D02*
X34830000Y36720000D01*
X34830000Y36720000D02*
X34830000Y35970000D01*
X34830000Y35970000D02*
X33030000Y35970000D01*
X48830000Y35970000D02*
X48830000Y36720000D01*
X48830000Y36720000D02*
X50630000Y36720000D01*
X50630000Y36720000D02*
X50630000Y35970000D01*
X50630000Y35970000D02*
X48830000Y35970000D01*
X33030000Y38220000D02*
X33780000Y38220000D01*
X33780000Y38220000D02*
X33780000Y41170000D01*
X33780000Y41170000D02*
X41830000Y41170000D01*
X50630000Y38220000D02*
X49880000Y38220000D01*
X49880000Y38220000D02*
X49880000Y41170000D01*
X49880000Y41170000D02*
X41830000Y41170000D01*
X33980000Y35670000D02*
X32730000Y35670000D01*
X32730000Y35670000D02*
X32730000Y36920000D01*
%TO.C,J7*%
X35560000Y51200000D02*
X35560000Y57170000D01*
X35560000Y57170000D02*
X43180000Y57170000D01*
X43180000Y57170000D02*
X43180000Y51200000D01*
X43180000Y51200000D02*
X35560000Y51200000D01*
X38870000Y51210000D02*
X38870000Y51960000D01*
X38870000Y51960000D02*
X39870000Y51960000D01*
X39870000Y51960000D02*
X39870000Y51210000D01*
X39870000Y51210000D02*
X38870000Y51210000D01*
X35570000Y51210000D02*
X35570000Y51960000D01*
X35570000Y51960000D02*
X37370000Y51960000D01*
X37370000Y51960000D02*
X37370000Y51210000D01*
X37370000Y51210000D02*
X35570000Y51210000D01*
X41370000Y51210000D02*
X41370000Y51960000D01*
X41370000Y51960000D02*
X43170000Y51960000D01*
X43170000Y51960000D02*
X43170000Y51210000D01*
X43170000Y51210000D02*
X41370000Y51210000D01*
X35570000Y53460000D02*
X36320000Y53460000D01*
X36320000Y53460000D02*
X36320000Y56410000D01*
X36320000Y56410000D02*
X39370000Y56410000D01*
X43170000Y53460000D02*
X42420000Y53460000D01*
X42420000Y53460000D02*
X42420000Y56410000D01*
X42420000Y56410000D02*
X39370000Y56410000D01*
X36520000Y50910000D02*
X35270000Y50910000D01*
X35270000Y50910000D02*
X35270000Y52160000D01*
%TO.C,J8*%
X12410000Y2650000D02*
X12410000Y3900000D01*
X13660000Y2650000D02*
X12410000Y2650000D01*
X19560000Y8150000D02*
X16510000Y8150000D01*
X19560000Y5200000D02*
X19560000Y8150000D01*
X20310000Y5200000D02*
X19560000Y5200000D01*
X13460000Y8150000D02*
X16510000Y8150000D01*
X13460000Y5200000D02*
X13460000Y8150000D01*
X12710000Y5200000D02*
X13460000Y5200000D01*
X20310000Y2950000D02*
X18510000Y2950000D01*
X20310000Y3700000D02*
X20310000Y2950000D01*
X18510000Y3700000D02*
X20310000Y3700000D01*
X18510000Y2950000D02*
X18510000Y3700000D01*
X14510000Y2950000D02*
X12710000Y2950000D01*
X14510000Y3700000D02*
X14510000Y2950000D01*
X12710000Y3700000D02*
X14510000Y3700000D01*
X12710000Y2950000D02*
X12710000Y3700000D01*
X17010000Y2950000D02*
X16010000Y2950000D01*
X17010000Y3700000D02*
X17010000Y2950000D01*
X16010000Y3700000D02*
X17010000Y3700000D01*
X16010000Y2950000D02*
X16010000Y3700000D01*
X20320000Y2940000D02*
X12700000Y2940000D01*
X20320000Y8910000D02*
X20320000Y2940000D01*
X12700000Y8910000D02*
X20320000Y8910000D01*
X12700000Y2940000D02*
X12700000Y8910000D01*
%TO.C,J9*%
X22860000Y2940000D02*
X22860000Y8910000D01*
X22860000Y8910000D02*
X30480000Y8910000D01*
X30480000Y8910000D02*
X30480000Y2940000D01*
X30480000Y2940000D02*
X22860000Y2940000D01*
X26170000Y2950000D02*
X26170000Y3700000D01*
X26170000Y3700000D02*
X27170000Y3700000D01*
X27170000Y3700000D02*
X27170000Y2950000D01*
X27170000Y2950000D02*
X26170000Y2950000D01*
X22870000Y2950000D02*
X22870000Y3700000D01*
X22870000Y3700000D02*
X24670000Y3700000D01*
X24670000Y3700000D02*
X24670000Y2950000D01*
X24670000Y2950000D02*
X22870000Y2950000D01*
X28670000Y2950000D02*
X28670000Y3700000D01*
X28670000Y3700000D02*
X30470000Y3700000D01*
X30470000Y3700000D02*
X30470000Y2950000D01*
X30470000Y2950000D02*
X28670000Y2950000D01*
X22870000Y5200000D02*
X23620000Y5200000D01*
X23620000Y5200000D02*
X23620000Y8150000D01*
X23620000Y8150000D02*
X26670000Y8150000D01*
X30470000Y5200000D02*
X29720000Y5200000D01*
X29720000Y5200000D02*
X29720000Y8150000D01*
X29720000Y8150000D02*
X26670000Y8150000D01*
X23820000Y2650000D02*
X22570000Y2650000D01*
X22570000Y2650000D02*
X22570000Y3900000D01*
%TO.C,J10*%
X2350000Y43810000D02*
X3600000Y43810000D01*
X2350000Y42560000D02*
X2350000Y43810000D01*
X7850000Y36660000D02*
X7850000Y39710000D01*
X4900000Y36660000D02*
X7850000Y36660000D01*
X4900000Y35910000D02*
X4900000Y36660000D01*
X7850000Y42760000D02*
X7850000Y39710000D01*
X4900000Y42760000D02*
X7850000Y42760000D01*
X4900000Y43510000D02*
X4900000Y42760000D01*
X2650000Y35910000D02*
X2650000Y37710000D01*
X3400000Y35910000D02*
X2650000Y35910000D01*
X3400000Y37710000D02*
X3400000Y35910000D01*
X2650000Y37710000D02*
X3400000Y37710000D01*
X2650000Y41710000D02*
X2650000Y43510000D01*
X3400000Y41710000D02*
X2650000Y41710000D01*
X3400000Y43510000D02*
X3400000Y41710000D01*
X2650000Y43510000D02*
X3400000Y43510000D01*
X2650000Y39210000D02*
X2650000Y40210000D01*
X3400000Y39210000D02*
X2650000Y39210000D01*
X3400000Y40210000D02*
X3400000Y39210000D01*
X2650000Y40210000D02*
X3400000Y40210000D01*
X2640000Y35900000D02*
X2640000Y43520000D01*
X8610000Y35900000D02*
X2640000Y35900000D01*
X8610000Y43520000D02*
X8610000Y35900000D01*
X2640000Y43520000D02*
X8610000Y43520000D01*
%TO.C,J11*%
X45720000Y51200000D02*
X45720000Y57170000D01*
X45720000Y57170000D02*
X53340000Y57170000D01*
X53340000Y57170000D02*
X53340000Y51200000D01*
X53340000Y51200000D02*
X45720000Y51200000D01*
X49030000Y51210000D02*
X49030000Y51960000D01*
X49030000Y51960000D02*
X50030000Y51960000D01*
X50030000Y51960000D02*
X50030000Y51210000D01*
X50030000Y51210000D02*
X49030000Y51210000D01*
X45730000Y51210000D02*
X45730000Y51960000D01*
X45730000Y51960000D02*
X47530000Y51960000D01*
X47530000Y51960000D02*
X47530000Y51210000D01*
X47530000Y51210000D02*
X45730000Y51210000D01*
X51530000Y51210000D02*
X51530000Y51960000D01*
X51530000Y51960000D02*
X53330000Y51960000D01*
X53330000Y51960000D02*
X53330000Y51210000D01*
X53330000Y51210000D02*
X51530000Y51210000D01*
X45730000Y53460000D02*
X46480000Y53460000D01*
X46480000Y53460000D02*
X46480000Y56410000D01*
X46480000Y56410000D02*
X49530000Y56410000D01*
X53330000Y53460000D02*
X52580000Y53460000D01*
X52580000Y53460000D02*
X52580000Y56410000D01*
X52580000Y56410000D02*
X49530000Y56410000D01*
X46680000Y50910000D02*
X45430000Y50910000D01*
X45430000Y50910000D02*
X45430000Y52160000D01*
D11*
%TO.C,LED1*%
X3630000Y62150000D02*
X4030000Y62150000D01*
X3630000Y62950000D02*
X4030000Y62950000D01*
%TO.C,LED2*%
X4030000Y3730000D02*
X3630000Y3730000D01*
X4030000Y4530000D02*
X3630000Y4530000D01*
%TO.C,LED3*%
X106500000Y4530000D02*
X106900000Y4530000D01*
X106500000Y3730000D02*
X106900000Y3730000D01*
%TO.C,LED4*%
X106500000Y62150000D02*
X106900000Y62150000D01*
X106500000Y62950000D02*
X106900000Y62950000D01*
D12*
%TO.C,R3*%
X3830000Y60710000D02*
X3830000Y59310000D01*
%TO.C,R4*%
X3475000Y11180000D02*
X3475000Y9780000D01*
%TO.C,R5*%
X106700000Y5970000D02*
X106700000Y7370000D01*
%TO.C,R6*%
X106700000Y60710000D02*
X106700000Y59310000D01*
%TO.C,S3*%
X30840000Y62550000D02*
X30840000Y62550000D01*
X30940000Y62550000D02*
X30940000Y62550000D01*
X30840000Y62550000D02*
X30840000Y62550000D01*
D11*
X39645000Y60010000D02*
X31515000Y60010000D01*
X39645000Y65090000D02*
X39645000Y60010000D01*
X31515000Y65090000D02*
X39645000Y65090000D01*
X31515000Y60010000D02*
X31515000Y65090000D01*
D12*
X30940000Y62550000D02*
G75*
G03*
X30840000Y62550000I-50000J0D01*
G01*
X30840000Y62550000D02*
G75*
G03*
X30940000Y62550000I50000J0D01*
G01*
X30940000Y62550000D02*
G75*
G03*
X30840000Y62550000I-50000J0D01*
G01*
D11*
%TO.C,S4*%
X42945000Y60010000D02*
X42945000Y65090000D01*
X42945000Y65090000D02*
X51075000Y65090000D01*
X51075000Y65090000D02*
X51075000Y60010000D01*
X51075000Y60010000D02*
X42945000Y60010000D01*
D12*
X42270000Y62550000D02*
X42270000Y62550000D01*
X42370000Y62550000D02*
X42370000Y62550000D01*
X42270000Y62550000D02*
X42270000Y62550000D01*
X42370000Y62550000D02*
G75*
G03*
X42270000Y62550000I-50000J0D01*
G01*
X42270000Y62550000D02*
G75*
G03*
X42370000Y62550000I50000J0D01*
G01*
X42370000Y62550000D02*
G75*
G03*
X42270000Y62550000I-50000J0D01*
G01*
D10*
%TO.C,U1*%
X60295000Y47180000D02*
X98395000Y47180000D01*
X98395000Y47180000D02*
X98395000Y52260000D01*
X98395000Y52260000D02*
X60295000Y52260000D01*
X60295000Y52260000D02*
X60295000Y47180000D01*
%TO.C,J1*%
X2540000Y51200000D02*
X2540000Y57170000D01*
X2540000Y57170000D02*
X17660000Y57170000D01*
X17660000Y57170000D02*
X17660000Y51200000D01*
X17660000Y51200000D02*
X2540000Y51200000D01*
X5850000Y51210000D02*
X5850000Y51960000D01*
X5850000Y51960000D02*
X14350000Y51960000D01*
X14350000Y51960000D02*
X14350000Y51210000D01*
X14350000Y51210000D02*
X5850000Y51210000D01*
X2550000Y51210000D02*
X2550000Y51960000D01*
X2550000Y51960000D02*
X4350000Y51960000D01*
X4350000Y51960000D02*
X4350000Y51210000D01*
X4350000Y51210000D02*
X2550000Y51210000D01*
X15850000Y51210000D02*
X15850000Y51960000D01*
X15850000Y51960000D02*
X17650000Y51960000D01*
X17650000Y51960000D02*
X17650000Y51210000D01*
X17650000Y51210000D02*
X15850000Y51210000D01*
X2550000Y53460000D02*
X3300000Y53460000D01*
X3300000Y53460000D02*
X3300000Y56410000D01*
X3300000Y56410000D02*
X10100000Y56410000D01*
X17650000Y53460000D02*
X16900000Y53460000D01*
X16900000Y53460000D02*
X16900000Y56410000D01*
X16900000Y56410000D02*
X10100000Y56410000D01*
X3500000Y50910000D02*
X2250000Y50910000D01*
X2250000Y50910000D02*
X2250000Y52160000D01*
%TO.C,J2*%
D13*
X26963333Y50657620D02*
X26963333Y49943334D01*
X27010952Y49800477D01*
X27106190Y49705239D01*
X27249047Y49657620D01*
X27344285Y49657620D01*
X26534761Y50562381D02*
X26487142Y50610000D01*
X26391904Y50657620D01*
X26153809Y50657620D01*
X26058571Y50610000D01*
X26010952Y50562381D01*
X25963333Y50467143D01*
X25963333Y50371905D01*
X26010952Y50229048D01*
X26582380Y49657620D01*
X25963333Y49657620D01*
%TO.C,J3*%
X42163333Y12557620D02*
X42163333Y11843334D01*
X42210952Y11700477D01*
X42306190Y11605239D01*
X42449047Y11557620D01*
X42544285Y11557620D01*
X41782380Y12557620D02*
X41163333Y12557620D01*
X41496666Y12176667D01*
X41353809Y12176667D01*
X41258571Y12129048D01*
X41210952Y12081429D01*
X41163333Y11986191D01*
X41163333Y11748096D01*
X41210952Y11652858D01*
X41258571Y11605239D01*
X41353809Y11557620D01*
X41639523Y11557620D01*
X41734761Y11605239D01*
X41782380Y11652858D01*
%TO.C,J4*%
X42163333Y20177620D02*
X42163333Y19463334D01*
X42210952Y19320477D01*
X42306190Y19225239D01*
X42449047Y19177620D01*
X42544285Y19177620D01*
X41258571Y19844286D02*
X41258571Y19177620D01*
X41496666Y20225239D02*
X41734761Y19510953D01*
X41115714Y19510953D01*
%TO.C,J5*%
X42163333Y27797620D02*
X42163333Y27083334D01*
X42210952Y26940477D01*
X42306190Y26845239D01*
X42449047Y26797620D01*
X42544285Y26797620D01*
X41210952Y27797620D02*
X41687142Y27797620D01*
X41734761Y27321429D01*
X41687142Y27369048D01*
X41591904Y27416667D01*
X41353809Y27416667D01*
X41258571Y27369048D01*
X41210952Y27321429D01*
X41163333Y27226191D01*
X41163333Y26988096D01*
X41210952Y26892858D01*
X41258571Y26845239D01*
X41353809Y26797620D01*
X41591904Y26797620D01*
X41687142Y26845239D01*
X41734761Y26892858D01*
%TO.C,J6*%
X42163333Y35417620D02*
X42163333Y34703334D01*
X42210952Y34560477D01*
X42306190Y34465239D01*
X42449047Y34417620D01*
X42544285Y34417620D01*
X41258571Y35417620D02*
X41449047Y35417620D01*
X41544285Y35370000D01*
X41591904Y35322381D01*
X41687142Y35179524D01*
X41734761Y34989048D01*
X41734761Y34608096D01*
X41687142Y34512858D01*
X41639523Y34465239D01*
X41544285Y34417620D01*
X41353809Y34417620D01*
X41258571Y34465239D01*
X41210952Y34512858D01*
X41163333Y34608096D01*
X41163333Y34846191D01*
X41210952Y34941429D01*
X41258571Y34989048D01*
X41353809Y35036667D01*
X41544285Y35036667D01*
X41639523Y34989048D01*
X41687142Y34941429D01*
X41734761Y34846191D01*
%TO.C,J7*%
X39703333Y50657620D02*
X39703333Y49943334D01*
X39750952Y49800477D01*
X39846190Y49705239D01*
X39989047Y49657620D01*
X40084285Y49657620D01*
X39322380Y50657620D02*
X38655714Y50657620D01*
X39084285Y49657620D01*
%TO.C,J8*%
X16843333Y2397620D02*
X16843333Y1683334D01*
X16890952Y1540477D01*
X16986190Y1445239D01*
X17129047Y1397620D01*
X17224285Y1397620D01*
X16224285Y1969048D02*
X16319523Y2016667D01*
X16367142Y2064286D01*
X16414761Y2159524D01*
X16414761Y2207143D01*
X16367142Y2302381D01*
X16319523Y2350000D01*
X16224285Y2397620D01*
X16033809Y2397620D01*
X15938571Y2350000D01*
X15890952Y2302381D01*
X15843333Y2207143D01*
X15843333Y2159524D01*
X15890952Y2064286D01*
X15938571Y2016667D01*
X16033809Y1969048D01*
X16224285Y1969048D01*
X16319523Y1921429D01*
X16367142Y1873810D01*
X16414761Y1778572D01*
X16414761Y1588096D01*
X16367142Y1492858D01*
X16319523Y1445239D01*
X16224285Y1397620D01*
X16033809Y1397620D01*
X15938571Y1445239D01*
X15890952Y1492858D01*
X15843333Y1588096D01*
X15843333Y1778572D01*
X15890952Y1873810D01*
X15938571Y1921429D01*
X16033809Y1969048D01*
%TO.C,J9*%
X27003333Y2397620D02*
X27003333Y1683334D01*
X27050952Y1540477D01*
X27146190Y1445239D01*
X27289047Y1397620D01*
X27384285Y1397620D01*
X26479523Y1397620D02*
X26289047Y1397620D01*
X26193809Y1445239D01*
X26146190Y1492858D01*
X26050952Y1635715D01*
X26003333Y1826191D01*
X26003333Y2207143D01*
X26050952Y2302381D01*
X26098571Y2350000D01*
X26193809Y2397620D01*
X26384285Y2397620D01*
X26479523Y2350000D01*
X26527142Y2302381D01*
X26574761Y2207143D01*
X26574761Y1969048D01*
X26527142Y1873810D01*
X26479523Y1826191D01*
X26384285Y1778572D01*
X26193809Y1778572D01*
X26098571Y1826191D01*
X26050952Y1873810D01*
X26003333Y1969048D01*
%TO.C,J10*%
X1002380Y40519524D02*
X1716666Y40519524D01*
X1859523Y40567143D01*
X1954761Y40662381D01*
X2002380Y40805239D01*
X2002380Y40900477D01*
X2002380Y39519524D02*
X2002380Y40090953D01*
X2002380Y39805239D02*
X1002380Y39805239D01*
X1145238Y39900477D01*
X1240476Y39995715D01*
X1288095Y40090953D01*
X1002380Y38900477D02*
X1002380Y38805239D01*
X1050000Y38710000D01*
X1097619Y38662381D01*
X1192857Y38614762D01*
X1383333Y38567143D01*
X1621428Y38567143D01*
X1811904Y38614762D01*
X1907142Y38662381D01*
X1954761Y38710000D01*
X2002380Y38805239D01*
X2002380Y38900477D01*
X1954761Y38995715D01*
X1907142Y39043334D01*
X1811904Y39090953D01*
X1621428Y39138572D01*
X1383333Y39138572D01*
X1192857Y39090953D01*
X1097619Y39043334D01*
X1050000Y38995715D01*
X1002380Y38900477D01*
%TO.C,J11*%
X50339523Y50657620D02*
X50339523Y49943334D01*
X50387142Y49800477D01*
X50482380Y49705239D01*
X50625238Y49657620D01*
X50720476Y49657620D01*
X49339523Y49657620D02*
X49910952Y49657620D01*
X49625238Y49657620D02*
X49625238Y50657620D01*
X49720476Y50514762D01*
X49815714Y50419524D01*
X49910952Y50371905D01*
X48387142Y49657620D02*
X48958571Y49657620D01*
X48672857Y49657620D02*
X48672857Y50657620D01*
X48768095Y50514762D01*
X48863333Y50419524D01*
X48958571Y50371905D01*
%TO.C,LED1*%
D14*
X5251190Y61975477D02*
X5855952Y61975477D01*
X5855952Y63245477D01*
X4827857Y62640715D02*
X4404523Y62640715D01*
X4223095Y61975477D02*
X4827857Y61975477D01*
X4827857Y63245477D01*
X4223095Y63245477D01*
X3678809Y61975477D02*
X3678809Y63245477D01*
X3376428Y63245477D01*
X3195000Y63185000D01*
X3074047Y63064048D01*
X3013571Y62943096D01*
X2953095Y62701191D01*
X2953095Y62519762D01*
X3013571Y62277858D01*
X3074047Y62156905D01*
X3195000Y62035953D01*
X3376428Y61975477D01*
X3678809Y61975477D01*
X1743571Y61975477D02*
X2469285Y61975477D01*
X2106428Y61975477D02*
X2106428Y63245477D01*
X2227380Y63064048D01*
X2348333Y62943096D01*
X2469285Y62882620D01*
%TO.C,LED2*%
X5251190Y3555477D02*
X5855952Y3555477D01*
X5855952Y4825477D01*
X4827857Y4220715D02*
X4404523Y4220715D01*
X4223095Y3555477D02*
X4827857Y3555477D01*
X4827857Y4825477D01*
X4223095Y4825477D01*
X3678809Y3555477D02*
X3678809Y4825477D01*
X3376428Y4825477D01*
X3195000Y4765000D01*
X3074047Y4644048D01*
X3013571Y4523096D01*
X2953095Y4281191D01*
X2953095Y4099762D01*
X3013571Y3857858D01*
X3074047Y3736905D01*
X3195000Y3615953D01*
X3376428Y3555477D01*
X3678809Y3555477D01*
X2469285Y4704524D02*
X2408809Y4765000D01*
X2287857Y4825477D01*
X1985476Y4825477D01*
X1864523Y4765000D01*
X1804047Y4704524D01*
X1743571Y4583572D01*
X1743571Y4462620D01*
X1804047Y4281191D01*
X2529761Y3555477D01*
X1743571Y3555477D01*
%TO.C,LED3*%
X108121190Y3555477D02*
X108725952Y3555477D01*
X108725952Y4825477D01*
X107697857Y4220715D02*
X107274523Y4220715D01*
X107093095Y3555477D02*
X107697857Y3555477D01*
X107697857Y4825477D01*
X107093095Y4825477D01*
X106548809Y3555477D02*
X106548809Y4825477D01*
X106246428Y4825477D01*
X106065000Y4765000D01*
X105944047Y4644048D01*
X105883571Y4523096D01*
X105823095Y4281191D01*
X105823095Y4099762D01*
X105883571Y3857858D01*
X105944047Y3736905D01*
X106065000Y3615953D01*
X106246428Y3555477D01*
X106548809Y3555477D01*
X105399761Y4825477D02*
X104613571Y4825477D01*
X105036904Y4341667D01*
X104855476Y4341667D01*
X104734523Y4281191D01*
X104674047Y4220715D01*
X104613571Y4099762D01*
X104613571Y3797381D01*
X104674047Y3676429D01*
X104734523Y3615953D01*
X104855476Y3555477D01*
X105218333Y3555477D01*
X105339285Y3615953D01*
X105399761Y3676429D01*
%TO.C,LED4*%
X108121190Y61975477D02*
X108725952Y61975477D01*
X108725952Y63245477D01*
X107697857Y62640715D02*
X107274523Y62640715D01*
X107093095Y61975477D02*
X107697857Y61975477D01*
X107697857Y63245477D01*
X107093095Y63245477D01*
X106548809Y61975477D02*
X106548809Y63245477D01*
X106246428Y63245477D01*
X106065000Y63185000D01*
X105944047Y63064048D01*
X105883571Y62943096D01*
X105823095Y62701191D01*
X105823095Y62519762D01*
X105883571Y62277858D01*
X105944047Y62156905D01*
X106065000Y62035953D01*
X106246428Y61975477D01*
X106548809Y61975477D01*
X104734523Y62822143D02*
X104734523Y61975477D01*
X105036904Y63305953D02*
X105339285Y62398810D01*
X104553095Y62398810D01*
%TO.C,R3*%
X4041666Y59435477D02*
X4465000Y60040239D01*
X4767380Y59435477D02*
X4767380Y60705477D01*
X4283571Y60705477D01*
X4162619Y60645000D01*
X4102142Y60584524D01*
X4041666Y60463572D01*
X4041666Y60282143D01*
X4102142Y60161191D01*
X4162619Y60100715D01*
X4283571Y60040239D01*
X4767380Y60040239D01*
X3618333Y60705477D02*
X2832142Y60705477D01*
X3255476Y60221667D01*
X3074047Y60221667D01*
X2953095Y60161191D01*
X2892619Y60100715D01*
X2832142Y59979762D01*
X2832142Y59677381D01*
X2892619Y59556429D01*
X2953095Y59495953D01*
X3074047Y59435477D01*
X3436904Y59435477D01*
X3557857Y59495953D01*
X3618333Y59556429D01*
%TO.C,R4*%
X3686666Y9905477D02*
X4110000Y10510239D01*
X4412380Y9905477D02*
X4412380Y11175477D01*
X3928571Y11175477D01*
X3807619Y11115000D01*
X3747142Y11054524D01*
X3686666Y10933572D01*
X3686666Y10752143D01*
X3747142Y10631191D01*
X3807619Y10570715D01*
X3928571Y10510239D01*
X4412380Y10510239D01*
X2598095Y10752143D02*
X2598095Y9905477D01*
X2900476Y11235953D02*
X3202857Y10328810D01*
X2416666Y10328810D01*
%TO.C,R5*%
X106911666Y6095477D02*
X107335000Y6700239D01*
X107637380Y6095477D02*
X107637380Y7365477D01*
X107153571Y7365477D01*
X107032619Y7305000D01*
X106972142Y7244524D01*
X106911666Y7123572D01*
X106911666Y6942143D01*
X106972142Y6821191D01*
X107032619Y6760715D01*
X107153571Y6700239D01*
X107637380Y6700239D01*
X105762619Y7365477D02*
X106367380Y7365477D01*
X106427857Y6760715D01*
X106367380Y6821191D01*
X106246428Y6881667D01*
X105944047Y6881667D01*
X105823095Y6821191D01*
X105762619Y6760715D01*
X105702142Y6639762D01*
X105702142Y6337381D01*
X105762619Y6216429D01*
X105823095Y6155953D01*
X105944047Y6095477D01*
X106246428Y6095477D01*
X106367380Y6155953D01*
X106427857Y6216429D01*
%TO.C,R6*%
X106911666Y59435477D02*
X107335000Y60040239D01*
X107637380Y59435477D02*
X107637380Y60705477D01*
X107153571Y60705477D01*
X107032619Y60645000D01*
X106972142Y60584524D01*
X106911666Y60463572D01*
X106911666Y60282143D01*
X106972142Y60161191D01*
X107032619Y60100715D01*
X107153571Y60040239D01*
X107637380Y60040239D01*
X105823095Y60705477D02*
X106065000Y60705477D01*
X106185952Y60645000D01*
X106246428Y60584524D01*
X106367380Y60403096D01*
X106427857Y60161191D01*
X106427857Y59677381D01*
X106367380Y59556429D01*
X106306904Y59495953D01*
X106185952Y59435477D01*
X105944047Y59435477D01*
X105823095Y59495953D01*
X105762619Y59556429D01*
X105702142Y59677381D01*
X105702142Y59979762D01*
X105762619Y60100715D01*
X105823095Y60161191D01*
X105944047Y60221667D01*
X106185952Y60221667D01*
X106306904Y60161191D01*
X106367380Y60100715D01*
X106427857Y59979762D01*
%TO.C,S3*%
X35757047Y63517620D02*
X35817523Y63336191D01*
X35817523Y63033810D01*
X35757047Y62912858D01*
X35696571Y62852381D01*
X35575619Y62791905D01*
X35454666Y62791905D01*
X35333714Y62852381D01*
X35273238Y62912858D01*
X35212761Y63033810D01*
X35152285Y63275715D01*
X35091809Y63396667D01*
X35031333Y63457143D01*
X34910380Y63517620D01*
X34789428Y63517620D01*
X34668476Y63457143D01*
X34608000Y63396667D01*
X34547523Y63275715D01*
X34547523Y62973334D01*
X34608000Y62791905D01*
X34547523Y62368572D02*
X34547523Y61582381D01*
X35031333Y62005715D01*
X35031333Y61824286D01*
X35091809Y61703334D01*
X35152285Y61642858D01*
X35273238Y61582381D01*
X35575619Y61582381D01*
X35696571Y61642858D01*
X35757047Y61703334D01*
X35817523Y61824286D01*
X35817523Y62187143D01*
X35757047Y62308096D01*
X35696571Y62368572D01*
%TO.C,S4*%
X47187047Y63517620D02*
X47247523Y63336191D01*
X47247523Y63033810D01*
X47187047Y62912858D01*
X47126571Y62852381D01*
X47005619Y62791905D01*
X46884666Y62791905D01*
X46763714Y62852381D01*
X46703238Y62912858D01*
X46642761Y63033810D01*
X46582285Y63275715D01*
X46521809Y63396667D01*
X46461333Y63457143D01*
X46340380Y63517620D01*
X46219428Y63517620D01*
X46098476Y63457143D01*
X46038000Y63396667D01*
X45977523Y63275715D01*
X45977523Y62973334D01*
X46038000Y62791905D01*
X46400857Y61703334D02*
X47247523Y61703334D01*
X45917047Y62005715D02*
X46824190Y62308096D01*
X46824190Y61521905D01*
%TO.C,J1*%
D13*
X10433333Y50657620D02*
X10433333Y49943334D01*
X10480952Y49800477D01*
X10576190Y49705239D01*
X10719047Y49657620D01*
X10814285Y49657620D01*
X9433333Y49657620D02*
X10004761Y49657620D01*
X9719047Y49657620D02*
X9719047Y50657620D01*
X9814285Y50514762D01*
X9909523Y50419524D01*
X10004761Y50371905D01*
%TD*%
%LPC*%
%TO.C,J2*%
G36*
G01*
X22030000Y52935000D02*
X22030000Y54385000D01*
G75*
G02*
X22280000Y54635000I250000J0D01*
G01*
X23480000Y54635000D01*
G75*
G02*
X23730000Y54385000I0J-250000D01*
G01*
X23730000Y52935000D01*
G75*
G02*
X23480000Y52685000I-250000J0D01*
G01*
X22280000Y52685000D01*
G75*
G02*
X22030000Y52935000I0J250000D01*
G01*
G37*
D15*
X25380000Y53660000D03*
X27880000Y53660000D03*
X30380000Y53660000D03*
%TD*%
%TO.C,J3*%
X48080000Y15560000D03*
X45580000Y15560000D03*
X43080000Y15560000D03*
X40580000Y15560000D03*
X38080000Y15560000D03*
G36*
G01*
X34730000Y14835000D02*
X34730000Y16285000D01*
G75*
G02*
X34980000Y16535000I250000J0D01*
G01*
X36180000Y16535000D01*
G75*
G02*
X36430000Y16285000I0J-250000D01*
G01*
X36430000Y14835000D01*
G75*
G02*
X36180000Y14585000I-250000J0D01*
G01*
X34980000Y14585000D01*
G75*
G02*
X34730000Y14835000I0J250000D01*
G01*
G37*
%TD*%
%TO.C,J4*%
G36*
G01*
X34730000Y22455000D02*
X34730000Y23905000D01*
G75*
G02*
X34980000Y24155000I250000J0D01*
G01*
X36180000Y24155000D01*
G75*
G02*
X36430000Y23905000I0J-250000D01*
G01*
X36430000Y22455000D01*
G75*
G02*
X36180000Y22205000I-250000J0D01*
G01*
X34980000Y22205000D01*
G75*
G02*
X34730000Y22455000I0J250000D01*
G01*
G37*
X38080000Y23180000D03*
X40580000Y23180000D03*
X43080000Y23180000D03*
X45580000Y23180000D03*
X48080000Y23180000D03*
%TD*%
%TO.C,J5*%
X48080000Y30800000D03*
X45580000Y30800000D03*
X43080000Y30800000D03*
X40580000Y30800000D03*
X38080000Y30800000D03*
G36*
G01*
X34730000Y30075000D02*
X34730000Y31525000D01*
G75*
G02*
X34980000Y31775000I250000J0D01*
G01*
X36180000Y31775000D01*
G75*
G02*
X36430000Y31525000I0J-250000D01*
G01*
X36430000Y30075000D01*
G75*
G02*
X36180000Y29825000I-250000J0D01*
G01*
X34980000Y29825000D01*
G75*
G02*
X34730000Y30075000I0J250000D01*
G01*
G37*
%TD*%
%TO.C,J6*%
G36*
G01*
X34730000Y37695000D02*
X34730000Y39145000D01*
G75*
G02*
X34980000Y39395000I250000J0D01*
G01*
X36180000Y39395000D01*
G75*
G02*
X36430000Y39145000I0J-250000D01*
G01*
X36430000Y37695000D01*
G75*
G02*
X36180000Y37445000I-250000J0D01*
G01*
X34980000Y37445000D01*
G75*
G02*
X34730000Y37695000I0J250000D01*
G01*
G37*
X38080000Y38420000D03*
X40580000Y38420000D03*
X43080000Y38420000D03*
X45580000Y38420000D03*
X48080000Y38420000D03*
%TD*%
%TO.C,J7*%
G36*
G01*
X37270000Y52910000D02*
X37270000Y54410000D01*
G75*
G02*
X37520000Y54660000I250000J0D01*
G01*
X38720000Y54660000D01*
G75*
G02*
X38970000Y54410000I0J-250000D01*
G01*
X38970000Y52910000D01*
G75*
G02*
X38720000Y52660000I-250000J0D01*
G01*
X37520000Y52660000D01*
G75*
G02*
X37270000Y52910000I0J250000D01*
G01*
G37*
D16*
X40620000Y53660000D03*
%TD*%
%TO.C,J8*%
X17760000Y5400000D03*
G36*
G01*
X14410000Y4650000D02*
X14410000Y6150000D01*
G75*
G02*
X14660000Y6400000I250000J0D01*
G01*
X15860000Y6400000D01*
G75*
G02*
X16110000Y6150000I0J-250000D01*
G01*
X16110000Y4650000D01*
G75*
G02*
X15860000Y4400000I-250000J0D01*
G01*
X14660000Y4400000D01*
G75*
G02*
X14410000Y4650000I0J250000D01*
G01*
G37*
%TD*%
%TO.C,J9*%
G36*
G01*
X24570000Y4650000D02*
X24570000Y6150000D01*
G75*
G02*
X24820000Y6400000I250000J0D01*
G01*
X26020000Y6400000D01*
G75*
G02*
X26270000Y6150000I0J-250000D01*
G01*
X26270000Y4650000D01*
G75*
G02*
X26020000Y4400000I-250000J0D01*
G01*
X24820000Y4400000D01*
G75*
G02*
X24570000Y4650000I0J250000D01*
G01*
G37*
X27920000Y5400000D03*
%TD*%
D17*
%TO.C,J10*%
X5100000Y38460000D03*
G36*
G01*
X4350000Y41810000D02*
X5850000Y41810000D01*
G75*
G02*
X6100000Y41560000I0J-250000D01*
G01*
X6100000Y40360000D01*
G75*
G02*
X5850000Y40110000I-250000J0D01*
G01*
X4350000Y40110000D01*
G75*
G02*
X4100000Y40360000I0J250000D01*
G01*
X4100000Y41560000D01*
G75*
G02*
X4350000Y41810000I250000J0D01*
G01*
G37*
%TD*%
%TO.C,J11*%
G36*
G01*
X47430000Y52910000D02*
X47430000Y54410000D01*
G75*
G02*
X47680000Y54660000I250000J0D01*
G01*
X48880000Y54660000D01*
G75*
G02*
X49130000Y54410000I0J-250000D01*
G01*
X49130000Y52910000D01*
G75*
G02*
X48880000Y52660000I-250000J0D01*
G01*
X47680000Y52660000D01*
G75*
G02*
X47430000Y52910000I0J250000D01*
G01*
G37*
D16*
X50780000Y53660000D03*
%TD*%
D18*
%TO.C,LED1*%
X4580000Y62550000D03*
X3080000Y62550000D03*
%TD*%
%TO.C,LED2*%
X4580000Y4130000D03*
X3080000Y4130000D03*
%TD*%
%TO.C,LED3*%
X105950000Y4130000D03*
X107450000Y4130000D03*
%TD*%
%TO.C,LED4*%
X107450000Y62550000D03*
X105950000Y62550000D03*
%TD*%
D19*
%TO.C,R3*%
X5380000Y60010000D03*
X2280000Y60010000D03*
%TD*%
%TO.C,R4*%
X1925000Y10480000D03*
X5025000Y10480000D03*
%TD*%
%TO.C,R5*%
X108250000Y6670000D03*
X105150000Y6670000D03*
%TD*%
%TO.C,R6*%
X108250000Y60010000D03*
X105150000Y60010000D03*
%TD*%
D20*
%TO.C,S1*%
X15895000Y16195000D03*
X28395000Y16195000D03*
X15895000Y21195000D03*
X28395000Y21195000D03*
D21*
X18335000Y13615000D03*
X25955000Y23775000D03*
%TD*%
%TO.C,S2*%
X25955000Y41555000D03*
X18335000Y31395000D03*
D20*
X28395000Y38975000D03*
X15895000Y38975000D03*
X28395000Y33975000D03*
X15895000Y33975000D03*
%TD*%
D22*
%TO.C,S3*%
X38120000Y62550000D03*
X35580000Y62550000D03*
X33040000Y62550000D03*
%TD*%
%TO.C,S4*%
X44470000Y62550000D03*
X47010000Y62550000D03*
X49550000Y62550000D03*
%TD*%
D23*
%TO.C,U1*%
X97125000Y50990000D03*
X94585000Y50990000D03*
X92045000Y50990000D03*
X89505000Y50990000D03*
X86965000Y50990000D03*
X84425000Y50990000D03*
X81885000Y50990000D03*
X79345000Y50990000D03*
X76805000Y50990000D03*
X74265000Y50990000D03*
X71725000Y50990000D03*
X69185000Y50990000D03*
X66645000Y50990000D03*
X64105000Y50990000D03*
X61565000Y50990000D03*
X97125000Y48450000D03*
X94585000Y48450000D03*
X92045000Y48450000D03*
X89505000Y48450000D03*
X86965000Y48450000D03*
X84425000Y48450000D03*
X81885000Y48450000D03*
X79345000Y48450000D03*
X76805000Y48450000D03*
X74265000Y48450000D03*
X71725000Y48450000D03*
X69185000Y48450000D03*
X66645000Y48450000D03*
X64105000Y48450000D03*
X61565000Y48450000D03*
%TD*%
%TO.C,J1*%
G36*
G01*
X4250000Y52935000D02*
X4250000Y54385000D01*
G75*
G02*
X4500000Y54635000I250000J0D01*
G01*
X5700000Y54635000D01*
G75*
G02*
X5950000Y54385000I0J-250000D01*
G01*
X5950000Y52935000D01*
G75*
G02*
X5700000Y52685000I-250000J0D01*
G01*
X4500000Y52685000D01*
G75*
G02*
X4250000Y52935000I0J250000D01*
G01*
G37*
D15*
X7600000Y53660000D03*
X10100000Y53660000D03*
X12600000Y53660000D03*
X15100000Y53660000D03*
%TD*%
M02*
