%TF.GenerationSoftware,KiCad,Pcbnew,(5.1.8)-1*%
%TF.CreationDate,2021-03-06T21:29:21+09:00*%
%TF.ProjectId,sub_bord,7375625f-626f-4726-942e-6b696361645f,rev?*%
%TF.SameCoordinates,PX9896800PY660b0c0*%
%TF.FileFunction,Copper,L2,Bot*%
%TF.FilePolarity,Positive*%
%FSLAX46Y46*%
G04 Gerber Fmt 4.6, Leading zero omitted, Abs format (unit mm)*
G04 Created by KiCad (PCBNEW (5.1.8)-1) date 2021-03-06 21:29:21*
%MOMM*%
%LPD*%
G01*
G04 APERTURE LIST*
%TA.AperFunction,ComponentPad*%
%ADD10O,1.700000X1.950000*%
%TD*%
%TA.AperFunction,ComponentPad*%
%ADD11O,1.700000X2.000000*%
%TD*%
%TA.AperFunction,ComponentPad*%
%ADD12O,2.000000X1.700000*%
%TD*%
%TA.AperFunction,SMDPad,CuDef*%
%ADD13R,0.800000X0.800000*%
%TD*%
%TA.AperFunction,SMDPad,CuDef*%
%ADD14R,1.050000X1.800000*%
%TD*%
%TA.AperFunction,ComponentPad*%
%ADD15C,1.800000*%
%TD*%
%TA.AperFunction,ComponentPad*%
%ADD16C,1.300000*%
%TD*%
%TA.AperFunction,ComponentPad*%
%ADD17C,1.635000*%
%TD*%
%TA.AperFunction,ComponentPad*%
%ADD18C,1.700000*%
%TD*%
%TA.AperFunction,ViaPad*%
%ADD19C,0.800000*%
%TD*%
%TA.AperFunction,Conductor*%
%ADD20C,1.000000*%
%TD*%
%TA.AperFunction,Conductor*%
%ADD21C,2.000000*%
%TD*%
%TA.AperFunction,Conductor*%
%ADD22C,0.254000*%
%TD*%
%TA.AperFunction,Conductor*%
%ADD23C,0.100000*%
%TD*%
G04 APERTURE END LIST*
%TO.P,J2,1*%
%TO.N,Net-(J2-Pad1)*%
%TA.AperFunction,ComponentPad*%
G36*
G01*
X22030000Y52935000D02*
X22030000Y54385000D01*
G75*
G02*
X22280000Y54635000I250000J0D01*
G01*
X23480000Y54635000D01*
G75*
G02*
X23730000Y54385000I0J-250000D01*
G01*
X23730000Y52935000D01*
G75*
G02*
X23480000Y52685000I-250000J0D01*
G01*
X22280000Y52685000D01*
G75*
G02*
X22030000Y52935000I0J250000D01*
G01*
G37*
%TD.AperFunction*%
D10*
%TO.P,J2,2*%
%TO.N,Net-(J2-Pad2)*%
X25380000Y53660000D03*
%TO.P,J2,3*%
%TO.N,Net-(J2-Pad3)*%
X27880000Y53660000D03*
%TO.P,J2,4*%
%TO.N,Net-(J2-Pad4)*%
X30380000Y53660000D03*
%TD*%
%TO.P,J3,6*%
%TO.N,N/C*%
X48080000Y15560000D03*
%TO.P,J3,5*%
%TO.N,Net-(J2-Pad1)*%
X45580000Y15560000D03*
%TO.P,J3,4*%
%TO.N,Net-(J1-Pad4)*%
X43080000Y15560000D03*
%TO.P,J3,3*%
%TO.N,Net-(J1-Pad3)*%
X40580000Y15560000D03*
%TO.P,J3,2*%
%TO.N,Net-(J1-Pad2)*%
X38080000Y15560000D03*
%TO.P,J3,1*%
%TO.N,Net-(J1-Pad1)*%
%TA.AperFunction,ComponentPad*%
G36*
G01*
X34730000Y14835000D02*
X34730000Y16285000D01*
G75*
G02*
X34980000Y16535000I250000J0D01*
G01*
X36180000Y16535000D01*
G75*
G02*
X36430000Y16285000I0J-250000D01*
G01*
X36430000Y14835000D01*
G75*
G02*
X36180000Y14585000I-250000J0D01*
G01*
X34980000Y14585000D01*
G75*
G02*
X34730000Y14835000I0J250000D01*
G01*
G37*
%TD.AperFunction*%
%TD*%
%TO.P,J4,1*%
%TO.N,Net-(J1-Pad1)*%
%TA.AperFunction,ComponentPad*%
G36*
G01*
X34730000Y22455000D02*
X34730000Y23905000D01*
G75*
G02*
X34980000Y24155000I250000J0D01*
G01*
X36180000Y24155000D01*
G75*
G02*
X36430000Y23905000I0J-250000D01*
G01*
X36430000Y22455000D01*
G75*
G02*
X36180000Y22205000I-250000J0D01*
G01*
X34980000Y22205000D01*
G75*
G02*
X34730000Y22455000I0J250000D01*
G01*
G37*
%TD.AperFunction*%
%TO.P,J4,2*%
%TO.N,Net-(J1-Pad2)*%
X38080000Y23180000D03*
%TO.P,J4,3*%
%TO.N,Net-(J1-Pad3)*%
X40580000Y23180000D03*
%TO.P,J4,4*%
%TO.N,Net-(J1-Pad4)*%
X43080000Y23180000D03*
%TO.P,J4,5*%
%TO.N,Net-(J2-Pad2)*%
X45580000Y23180000D03*
%TO.P,J4,6*%
%TO.N,N/C*%
X48080000Y23180000D03*
%TD*%
%TO.P,J5,6*%
%TO.N,N/C*%
X48080000Y30800000D03*
%TO.P,J5,5*%
%TO.N,Net-(J2-Pad3)*%
X45580000Y30800000D03*
%TO.P,J5,4*%
%TO.N,Net-(J1-Pad4)*%
X43080000Y30800000D03*
%TO.P,J5,3*%
%TO.N,Net-(J1-Pad3)*%
X40580000Y30800000D03*
%TO.P,J5,2*%
%TO.N,Net-(J1-Pad2)*%
X38080000Y30800000D03*
%TO.P,J5,1*%
%TO.N,Net-(J1-Pad1)*%
%TA.AperFunction,ComponentPad*%
G36*
G01*
X34730000Y30075000D02*
X34730000Y31525000D01*
G75*
G02*
X34980000Y31775000I250000J0D01*
G01*
X36180000Y31775000D01*
G75*
G02*
X36430000Y31525000I0J-250000D01*
G01*
X36430000Y30075000D01*
G75*
G02*
X36180000Y29825000I-250000J0D01*
G01*
X34980000Y29825000D01*
G75*
G02*
X34730000Y30075000I0J250000D01*
G01*
G37*
%TD.AperFunction*%
%TD*%
%TO.P,J6,1*%
%TO.N,Net-(J1-Pad1)*%
%TA.AperFunction,ComponentPad*%
G36*
G01*
X34730000Y37695000D02*
X34730000Y39145000D01*
G75*
G02*
X34980000Y39395000I250000J0D01*
G01*
X36180000Y39395000D01*
G75*
G02*
X36430000Y39145000I0J-250000D01*
G01*
X36430000Y37695000D01*
G75*
G02*
X36180000Y37445000I-250000J0D01*
G01*
X34980000Y37445000D01*
G75*
G02*
X34730000Y37695000I0J250000D01*
G01*
G37*
%TD.AperFunction*%
%TO.P,J6,2*%
%TO.N,Net-(J1-Pad2)*%
X38080000Y38420000D03*
%TO.P,J6,3*%
%TO.N,Net-(J1-Pad3)*%
X40580000Y38420000D03*
%TO.P,J6,4*%
%TO.N,Net-(J1-Pad4)*%
X43080000Y38420000D03*
%TO.P,J6,5*%
%TO.N,Net-(J2-Pad4)*%
X45580000Y38420000D03*
%TO.P,J6,6*%
%TO.N,N/C*%
X48080000Y38420000D03*
%TD*%
%TO.P,J7,1*%
%TO.N,Net-(J11-Pad1)*%
%TA.AperFunction,ComponentPad*%
G36*
G01*
X37270000Y52910000D02*
X37270000Y54410000D01*
G75*
G02*
X37520000Y54660000I250000J0D01*
G01*
X38720000Y54660000D01*
G75*
G02*
X38970000Y54410000I0J-250000D01*
G01*
X38970000Y52910000D01*
G75*
G02*
X38720000Y52660000I-250000J0D01*
G01*
X37520000Y52660000D01*
G75*
G02*
X37270000Y52910000I0J250000D01*
G01*
G37*
%TD.AperFunction*%
D11*
%TO.P,J7,2*%
%TO.N,Net-(J11-Pad2)*%
X40620000Y53660000D03*
%TD*%
%TO.P,J8,2*%
%TO.N,Net-(J11-Pad2)*%
X17760000Y5400000D03*
%TO.P,J8,1*%
%TO.N,Net-(J8-Pad1)*%
%TA.AperFunction,ComponentPad*%
G36*
G01*
X14410000Y4650000D02*
X14410000Y6150000D01*
G75*
G02*
X14660000Y6400000I250000J0D01*
G01*
X15860000Y6400000D01*
G75*
G02*
X16110000Y6150000I0J-250000D01*
G01*
X16110000Y4650000D01*
G75*
G02*
X15860000Y4400000I-250000J0D01*
G01*
X14660000Y4400000D01*
G75*
G02*
X14410000Y4650000I0J250000D01*
G01*
G37*
%TD.AperFunction*%
%TD*%
%TO.P,J9,1*%
%TO.N,Net-(J9-Pad1)*%
%TA.AperFunction,ComponentPad*%
G36*
G01*
X24570000Y4650000D02*
X24570000Y6150000D01*
G75*
G02*
X24820000Y6400000I250000J0D01*
G01*
X26020000Y6400000D01*
G75*
G02*
X26270000Y6150000I0J-250000D01*
G01*
X26270000Y4650000D01*
G75*
G02*
X26020000Y4400000I-250000J0D01*
G01*
X24820000Y4400000D01*
G75*
G02*
X24570000Y4650000I0J250000D01*
G01*
G37*
%TD.AperFunction*%
%TO.P,J9,2*%
%TO.N,Net-(J11-Pad2)*%
X27920000Y5400000D03*
%TD*%
D12*
%TO.P,J10,2*%
%TO.N,Net-(J10-Pad2)*%
X5100000Y38460000D03*
%TO.P,J10,1*%
%TO.N,Net-(J10-Pad1)*%
%TA.AperFunction,ComponentPad*%
G36*
G01*
X4350000Y41810000D02*
X5850000Y41810000D01*
G75*
G02*
X6100000Y41560000I0J-250000D01*
G01*
X6100000Y40360000D01*
G75*
G02*
X5850000Y40110000I-250000J0D01*
G01*
X4350000Y40110000D01*
G75*
G02*
X4100000Y40360000I0J250000D01*
G01*
X4100000Y41560000D01*
G75*
G02*
X4350000Y41810000I250000J0D01*
G01*
G37*
%TD.AperFunction*%
%TD*%
%TO.P,J11,1*%
%TO.N,Net-(J11-Pad1)*%
%TA.AperFunction,ComponentPad*%
G36*
G01*
X47430000Y52910000D02*
X47430000Y54410000D01*
G75*
G02*
X47680000Y54660000I250000J0D01*
G01*
X48880000Y54660000D01*
G75*
G02*
X49130000Y54410000I0J-250000D01*
G01*
X49130000Y52910000D01*
G75*
G02*
X48880000Y52660000I-250000J0D01*
G01*
X47680000Y52660000D01*
G75*
G02*
X47430000Y52910000I0J250000D01*
G01*
G37*
%TD.AperFunction*%
D11*
%TO.P,J11,2*%
%TO.N,Net-(J11-Pad2)*%
X50780000Y53660000D03*
%TD*%
D13*
%TO.P,LED1,2*%
%TO.N,Net-(LED1-Pad2)*%
X4580000Y62550000D03*
%TO.P,LED1,1*%
%TO.N,Net-(J1-Pad1)*%
X3080000Y62550000D03*
%TD*%
%TO.P,LED2,1*%
%TO.N,Net-(J1-Pad1)*%
X4580000Y4130000D03*
%TO.P,LED2,2*%
%TO.N,Net-(LED2-Pad2)*%
X3080000Y4130000D03*
%TD*%
%TO.P,LED3,1*%
%TO.N,Net-(J1-Pad1)*%
X105950000Y4130000D03*
%TO.P,LED3,2*%
%TO.N,Net-(LED3-Pad2)*%
X107450000Y4130000D03*
%TD*%
%TO.P,LED4,2*%
%TO.N,Net-(LED4-Pad2)*%
X107450000Y62550000D03*
%TO.P,LED4,1*%
%TO.N,Net-(J1-Pad1)*%
X105950000Y62550000D03*
%TD*%
D14*
%TO.P,R3,1*%
%TO.N,Net-(LED1-Pad2)*%
X5380000Y60010000D03*
%TO.P,R3,2*%
%TO.N,Net-(J1-Pad2)*%
X2280000Y60010000D03*
%TD*%
%TO.P,R4,2*%
%TO.N,Net-(J1-Pad2)*%
X1925000Y10480000D03*
%TO.P,R4,1*%
%TO.N,Net-(LED2-Pad2)*%
X5025000Y10480000D03*
%TD*%
%TO.P,R5,2*%
%TO.N,Net-(J1-Pad2)*%
X108250000Y6670000D03*
%TO.P,R5,1*%
%TO.N,Net-(LED3-Pad2)*%
X105150000Y6670000D03*
%TD*%
%TO.P,R6,1*%
%TO.N,Net-(LED4-Pad2)*%
X108250000Y60010000D03*
%TO.P,R6,2*%
%TO.N,Net-(J1-Pad2)*%
X105150000Y60010000D03*
%TD*%
D15*
%TO.P,S1,1*%
%TO.N,Net-(J10-Pad1)*%
X15895000Y16195000D03*
%TO.P,S1,2*%
%TO.N,N/C*%
X28395000Y16195000D03*
%TO.P,S1,3*%
X15895000Y21195000D03*
%TO.P,S1,4*%
%TO.N,Net-(J1-Pad2)*%
X28395000Y21195000D03*
D16*
%TO.P,S1,MH1*%
%TO.N,N/C*%
X18335000Y13615000D03*
%TO.P,S1,MH2*%
X25955000Y23775000D03*
%TD*%
%TO.P,S2,MH2*%
%TO.N,N/C*%
X25955000Y41555000D03*
%TO.P,S2,MH1*%
X18335000Y31395000D03*
D15*
%TO.P,S2,4*%
%TO.N,Net-(J1-Pad2)*%
X28395000Y38975000D03*
%TO.P,S2,3*%
%TO.N,N/C*%
X15895000Y38975000D03*
%TO.P,S2,2*%
X28395000Y33975000D03*
%TO.P,S2,1*%
%TO.N,Net-(J10-Pad2)*%
X15895000Y33975000D03*
%TD*%
D17*
%TO.P,S3,3*%
%TO.N,N/C*%
X38120000Y62550000D03*
%TO.P,S3,2*%
%TO.N,Net-(J11-Pad1)*%
X35580000Y62550000D03*
%TO.P,S3,1*%
%TO.N,Net-(J8-Pad1)*%
X33040000Y62550000D03*
%TD*%
%TO.P,S4,1*%
%TO.N,Net-(J9-Pad1)*%
X44470000Y62550000D03*
%TO.P,S4,2*%
%TO.N,Net-(J11-Pad1)*%
X47010000Y62550000D03*
%TO.P,S4,3*%
%TO.N,N/C*%
X49550000Y62550000D03*
%TD*%
D18*
%TO.P,U1,1*%
%TO.N,Net-(J1-Pad2)*%
X97125000Y50990000D03*
%TO.P,U1,2*%
X94585000Y50990000D03*
%TO.P,U1,3*%
X92045000Y50990000D03*
%TO.P,U1,4*%
%TO.N,N/C*%
X89505000Y50990000D03*
%TO.P,U1,5*%
X86965000Y50990000D03*
%TO.P,U1,6*%
X84425000Y50990000D03*
%TO.P,U1,7*%
X81885000Y50990000D03*
%TO.P,U1,8*%
X79345000Y50990000D03*
%TO.P,U1,9*%
%TO.N,Net-(J1-Pad3)*%
X76805000Y50990000D03*
%TO.P,U1,10*%
%TO.N,Net-(J1-Pad5)*%
X74265000Y50990000D03*
%TO.P,U1,11*%
%TO.N,N/C*%
X71725000Y50990000D03*
%TO.P,U1,12*%
X69185000Y50990000D03*
%TO.P,U1,13*%
X66645000Y50990000D03*
%TO.P,U1,14*%
X64105000Y50990000D03*
%TO.P,U1,15*%
X61565000Y50990000D03*
%TO.P,U1,16*%
X97125000Y48450000D03*
%TO.P,U1,17*%
X94585000Y48450000D03*
%TO.P,U1,18*%
X92045000Y48450000D03*
%TO.P,U1,19*%
X89505000Y48450000D03*
%TO.P,U1,20*%
X86965000Y48450000D03*
%TO.P,U1,21*%
X84425000Y48450000D03*
%TO.P,U1,22*%
X81885000Y48450000D03*
%TO.P,U1,23*%
X79345000Y48450000D03*
%TO.P,U1,24*%
%TO.N,Net-(J1-Pad4)*%
X76805000Y48450000D03*
%TO.P,U1,25*%
%TO.N,N/C*%
X74265000Y48450000D03*
%TO.P,U1,26*%
X71725000Y48450000D03*
%TO.P,U1,27*%
X69185000Y48450000D03*
%TO.P,U1,28*%
X66645000Y48450000D03*
%TO.P,U1,29*%
%TO.N,Net-(J1-Pad1)*%
X64105000Y48450000D03*
%TO.P,U1,30*%
%TO.N,N/C*%
X61565000Y48450000D03*
%TD*%
%TO.P,J1,1*%
%TO.N,Net-(J1-Pad1)*%
%TA.AperFunction,ComponentPad*%
G36*
G01*
X4250000Y52935000D02*
X4250000Y54385000D01*
G75*
G02*
X4500000Y54635000I250000J0D01*
G01*
X5700000Y54635000D01*
G75*
G02*
X5950000Y54385000I0J-250000D01*
G01*
X5950000Y52935000D01*
G75*
G02*
X5700000Y52685000I-250000J0D01*
G01*
X4500000Y52685000D01*
G75*
G02*
X4250000Y52935000I0J250000D01*
G01*
G37*
%TD.AperFunction*%
D10*
%TO.P,J1,2*%
%TO.N,Net-(J1-Pad2)*%
X7600000Y53660000D03*
%TO.P,J1,3*%
%TO.N,Net-(J1-Pad3)*%
X10100000Y53660000D03*
%TO.P,J1,4*%
%TO.N,Net-(J1-Pad4)*%
X12600000Y53660000D03*
%TO.P,J1,5*%
%TO.N,Net-(J1-Pad5)*%
X15100000Y53660000D03*
%TD*%
D19*
%TO.N,Net-(J1-Pad1)*%
X29230000Y42230000D03*
X10180000Y6670000D03*
X57170000Y11750000D03*
X99080000Y61280000D03*
X102890000Y4130000D03*
%TO.N,Net-(J1-Pad2)*%
X107000000Y65000000D03*
X38080000Y21080000D03*
X48000000Y19000000D03*
X48000000Y27000000D03*
X48000000Y35000000D03*
X48000000Y41000000D03*
X75000000Y36000000D03*
X43000000Y7000000D03*
X33000000Y10000000D03*
X6000000Y29000000D03*
X34000000Y26000000D03*
X34000000Y34000000D03*
X18000000Y61000000D03*
X28000000Y61000000D03*
X9000000Y61000000D03*
%TO.N,Net-(J1-Pad4)*%
X43200000Y44770000D03*
X48220000Y43560000D03*
%TO.N,Net-(J1-Pad5)*%
X73680000Y54930000D03*
%TO.N,Net-(J11-Pad2)*%
X55900000Y49850000D03*
X33040000Y2860000D03*
%TO.N,Net-(J8-Pad1)*%
X48280000Y58740000D03*
%TO.N,Net-(J10-Pad1)*%
X6370000Y18100000D03*
%TD*%
D20*
%TO.N,Net-(J1-Pad1)*%
X35580000Y30800000D02*
X35580000Y23180000D01*
X35580000Y23180000D02*
X35580000Y15560000D01*
X35580000Y30800000D02*
X35580000Y38420000D01*
X31770000Y42230000D02*
X35580000Y38420000D01*
X29230000Y42230000D02*
X31770000Y42230000D01*
X3080000Y63110002D02*
X3080000Y62550000D01*
X3619999Y63650001D02*
X3080000Y63110002D01*
X6605001Y62585001D02*
X5540001Y63650001D01*
X6605001Y55165001D02*
X6605001Y62585001D01*
X5540001Y63650001D02*
X3619999Y63650001D01*
X5100000Y53660000D02*
X6605001Y55165001D01*
X7640000Y4130000D02*
X10180000Y6670000D01*
X4580000Y4130000D02*
X7640000Y4130000D01*
X39390000Y11750000D02*
X35580000Y15560000D01*
X57170000Y11750000D02*
X39390000Y11750000D01*
X99080000Y61280000D02*
X99080000Y63820000D01*
X99080000Y63820000D02*
X99080000Y65090000D01*
X99080000Y65090000D02*
X99715000Y65725000D01*
X102775000Y65725000D02*
X99715000Y65725000D01*
X105950000Y62550000D02*
X102775000Y65725000D01*
X102890000Y4130000D02*
X105950000Y4130000D01*
%TO.N,Net-(J1-Pad2)*%
X38080000Y15560000D02*
X38080000Y21080000D01*
X38080000Y23180000D02*
X38080000Y30800000D01*
X38080000Y30800000D02*
X38080000Y38420000D01*
X38080000Y21080000D02*
X38080000Y23180000D01*
%TO.N,Net-(J1-Pad3)*%
X40580000Y30800000D02*
X40580000Y23180000D01*
X40580000Y23180000D02*
X40580000Y15560000D01*
X40580000Y30800000D02*
X40580000Y38420000D01*
X40580000Y38420000D02*
X40580000Y39610000D01*
X40580000Y39610000D02*
X48280000Y47310000D01*
X55764176Y47310000D02*
X58440000Y49985824D01*
X48280000Y47310000D02*
X55764176Y47310000D01*
X75254999Y52540001D02*
X76805000Y50990000D01*
X60820999Y52540001D02*
X75254999Y52540001D01*
X58440000Y50159002D02*
X60820999Y52540001D01*
X58440000Y49985824D02*
X58440000Y50159002D01*
X20329990Y43430010D02*
X10100000Y53660000D01*
X35569990Y43430010D02*
X20329990Y43430010D01*
X40580000Y38420000D02*
X35569990Y43430010D01*
%TO.N,Net-(J1-Pad4)*%
X43080000Y15560000D02*
X43080000Y23180000D01*
X43080000Y23180000D02*
X43080000Y30800000D01*
X43080000Y30800000D02*
X43080000Y38420000D01*
X74464991Y46109991D02*
X76805000Y48450000D01*
X50769991Y46109991D02*
X74464991Y46109991D01*
X12600000Y53660000D02*
X21490000Y44770000D01*
X21490000Y44770000D02*
X41930000Y44770000D01*
X41930000Y44770000D02*
X43200000Y44770000D01*
X48220000Y43560000D02*
X50769991Y46109991D01*
X43080000Y38420000D02*
X48220000Y43560000D01*
%TO.N,Net-(J1-Pad5)*%
X42475892Y60440010D02*
X68169990Y60440010D01*
X38665892Y64250010D02*
X42475892Y60440010D01*
X68169990Y60440010D02*
X73680000Y54930000D01*
X25690010Y64250010D02*
X38665892Y64250010D01*
X15100000Y53660000D02*
X25690010Y64250010D01*
D21*
%TO.N,Net-(J11-Pad1)*%
X46079990Y51459990D02*
X48280000Y53660000D01*
X39320010Y51459990D02*
X46079990Y51459990D01*
X38120000Y52660000D02*
X39320010Y51459990D01*
X38120000Y53660000D02*
X38120000Y52660000D01*
%TO.N,Net-(J11-Pad2)*%
X50780000Y54560626D02*
X50780000Y53660000D01*
X49480616Y55860010D02*
X50780000Y54560626D01*
X42820010Y55860010D02*
X49480616Y55860010D01*
X40620000Y53660000D02*
X42820010Y55860010D01*
X52090000Y53660000D02*
X55900000Y49850000D01*
X50780000Y53660000D02*
X52090000Y53660000D01*
X30460000Y2860000D02*
X27920000Y5400000D01*
X33040000Y2860000D02*
X30460000Y2860000D01*
X26620616Y7600010D02*
X27920000Y6300626D01*
X19960010Y7600010D02*
X26620616Y7600010D01*
X27920000Y6300626D02*
X27920000Y5400000D01*
X17760000Y5400000D02*
X19960010Y7600010D01*
%TO.N,Net-(J8-Pad1)*%
X33040000Y61393881D02*
X33040000Y62550000D01*
X35693881Y58740000D02*
X33040000Y61393881D01*
X48280000Y58740000D02*
X35693881Y58740000D01*
D20*
%TO.N,Net-(J10-Pad2)*%
X11410000Y38460000D02*
X15895000Y33975000D01*
X5100000Y38460000D02*
X11410000Y38460000D01*
%TO.N,Net-(J10-Pad1)*%
X8275000Y16195000D02*
X15895000Y16195000D01*
X6370000Y18100000D02*
X8275000Y16195000D01*
%TO.N,Net-(LED1-Pad2)*%
X4840009Y62449991D02*
X4580000Y62449991D01*
X5380000Y61910000D02*
X4840009Y62449991D01*
X5380000Y60010000D02*
X5380000Y61910000D01*
%TO.N,Net-(LED2-Pad2)*%
X3080000Y8535000D02*
X3080000Y4130000D01*
X5025000Y10480000D02*
X3080000Y8535000D01*
%TO.N,Net-(LED3-Pad2)*%
X105564998Y6670000D02*
X105150000Y6670000D01*
X107450000Y4784998D02*
X105564998Y6670000D01*
X107450000Y4130000D02*
X107450000Y4784998D01*
%TO.N,Net-(LED4-Pad2)*%
X108250000Y61750000D02*
X107450000Y62550000D01*
X108250000Y60010000D02*
X108250000Y61750000D01*
%TD*%
D22*
%TO.N,Net-(J1-Pad2)*%
X98316860Y65931991D02*
X98273552Y65896449D01*
X98131717Y65723623D01*
X98026324Y65526447D01*
X97961423Y65312499D01*
X97961423Y65312498D01*
X97939509Y65090000D01*
X97945000Y65034249D01*
X97945000Y63764249D01*
X97945001Y63764239D01*
X97945000Y61224249D01*
X97961423Y61057502D01*
X98026324Y60843554D01*
X98131716Y60646377D01*
X98273551Y60473551D01*
X98446377Y60331716D01*
X98643553Y60226324D01*
X98857501Y60161423D01*
X99080000Y60139509D01*
X99302498Y60161423D01*
X99516446Y60226324D01*
X99713623Y60331716D01*
X99886449Y60473551D01*
X100028284Y60646377D01*
X100133676Y60843553D01*
X100198577Y61057501D01*
X100215000Y61224248D01*
X100215000Y61587311D01*
X100237536Y61553583D01*
X100553583Y61237536D01*
X100925215Y60989220D01*
X101338151Y60818176D01*
X101776521Y60730979D01*
X102223479Y60730979D01*
X102661849Y60818176D01*
X102883531Y60910000D01*
X103986928Y60910000D01*
X103990000Y60295750D01*
X104148750Y60137000D01*
X105023000Y60137000D01*
X105023000Y61386250D01*
X104864250Y61545000D01*
X104625000Y61548072D01*
X104500518Y61535812D01*
X104380820Y61499502D01*
X104270506Y61440537D01*
X104173815Y61361185D01*
X104094463Y61264494D01*
X104035498Y61154180D01*
X103999188Y61034482D01*
X103986928Y60910000D01*
X102883531Y60910000D01*
X103074785Y60989220D01*
X103446417Y61237536D01*
X103762464Y61553583D01*
X104010780Y61925215D01*
X104181824Y62338151D01*
X104244023Y62650846D01*
X104948066Y61946802D01*
X104960498Y61905820D01*
X105019463Y61795506D01*
X105098815Y61698815D01*
X105195506Y61619463D01*
X105305820Y61560498D01*
X105417400Y61526650D01*
X105277000Y61386250D01*
X105277000Y60137000D01*
X106151250Y60137000D01*
X106310000Y60295750D01*
X106313072Y60910000D01*
X106300812Y61034482D01*
X106264502Y61154180D01*
X106205537Y61264494D01*
X106126185Y61361185D01*
X106054733Y61419824D01*
X106172498Y61431423D01*
X106386446Y61496324D01*
X106430465Y61519853D01*
X106474482Y61524188D01*
X106594180Y61560498D01*
X106700000Y61617061D01*
X106805820Y61560498D01*
X106846803Y61548066D01*
X107115000Y61279868D01*
X107115000Y61086607D01*
X107099188Y61034482D01*
X107086928Y60910000D01*
X107086928Y59110000D01*
X107099188Y58985518D01*
X107135498Y58865820D01*
X107194463Y58755506D01*
X107273815Y58658815D01*
X107370506Y58579463D01*
X107480820Y58520498D01*
X107600518Y58484188D01*
X107725000Y58471928D01*
X108775000Y58471928D01*
X108899482Y58484188D01*
X109019180Y58520498D01*
X109129494Y58579463D01*
X109226185Y58658815D01*
X109305537Y58755506D01*
X109340000Y58819981D01*
X109340001Y7860018D01*
X109305537Y7924494D01*
X109226185Y8021185D01*
X109129494Y8100537D01*
X109019180Y8159502D01*
X108899482Y8195812D01*
X108775000Y8208072D01*
X108535750Y8205000D01*
X108377000Y8046250D01*
X108377000Y6797000D01*
X108397000Y6797000D01*
X108397000Y6543000D01*
X108377000Y6543000D01*
X108377000Y6523000D01*
X108123000Y6523000D01*
X108123000Y6543000D01*
X108103000Y6543000D01*
X108103000Y6797000D01*
X108123000Y6797000D01*
X108123000Y8046250D01*
X107964250Y8205000D01*
X107725000Y8208072D01*
X107600518Y8195812D01*
X107480820Y8159502D01*
X107370506Y8100537D01*
X107273815Y8021185D01*
X107194463Y7924494D01*
X107135498Y7814180D01*
X107099188Y7694482D01*
X107086928Y7570000D01*
X107090000Y6955750D01*
X107248748Y6797002D01*
X107090000Y6797002D01*
X107090000Y6750129D01*
X106406994Y7433135D01*
X106371447Y7476449D01*
X106313072Y7524356D01*
X106313072Y7570000D01*
X106300812Y7694482D01*
X106264502Y7814180D01*
X106205537Y7924494D01*
X106126185Y8021185D01*
X106029494Y8100537D01*
X105919180Y8159502D01*
X105799482Y8195812D01*
X105675000Y8208072D01*
X104625000Y8208072D01*
X104500518Y8195812D01*
X104380820Y8159502D01*
X104270506Y8100537D01*
X104173815Y8021185D01*
X104094463Y7924494D01*
X104035498Y7814180D01*
X103999188Y7694482D01*
X103986928Y7570000D01*
X103986928Y5770000D01*
X103999188Y5645518D01*
X104035498Y5525820D01*
X104094463Y5415506D01*
X104173815Y5318815D01*
X104239389Y5265000D01*
X102834248Y5265000D01*
X102667501Y5248577D01*
X102453553Y5183676D01*
X102256377Y5078284D01*
X102083551Y4936449D01*
X101941716Y4763623D01*
X101836324Y4566447D01*
X101771423Y4352499D01*
X101749509Y4130000D01*
X101771423Y3907501D01*
X101836324Y3693553D01*
X101941716Y3496377D01*
X102083551Y3323551D01*
X102256377Y3181716D01*
X102453553Y3076324D01*
X102667501Y3011423D01*
X102834248Y2995000D01*
X106005752Y2995000D01*
X106172499Y3011423D01*
X106386447Y3076324D01*
X106430467Y3099853D01*
X106474482Y3104188D01*
X106594180Y3140498D01*
X106700000Y3197061D01*
X106805820Y3140498D01*
X106925518Y3104188D01*
X106969533Y3099853D01*
X107013553Y3076324D01*
X107227501Y3011423D01*
X107450000Y2989509D01*
X107672498Y3011423D01*
X107886446Y3076324D01*
X107930466Y3099853D01*
X107974482Y3104188D01*
X108094180Y3140498D01*
X108204494Y3199463D01*
X108301185Y3278815D01*
X108380537Y3375506D01*
X108439502Y3485820D01*
X108475812Y3605518D01*
X108480147Y3649533D01*
X108503676Y3693553D01*
X108568577Y3907501D01*
X108585000Y4074248D01*
X108585000Y4729257D01*
X108590490Y4784999D01*
X108585000Y4840741D01*
X108585000Y4840749D01*
X108568577Y5007496D01*
X108527351Y5143399D01*
X108535750Y5135000D01*
X108775000Y5131928D01*
X108899482Y5144188D01*
X109019180Y5180498D01*
X109129494Y5239463D01*
X109226185Y5318815D01*
X109305537Y5415506D01*
X109340001Y5479982D01*
X109340001Y660000D01*
X660000Y660000D01*
X660000Y8535000D01*
X1939509Y8535000D01*
X1945000Y8479248D01*
X1945001Y4074248D01*
X1961424Y3907501D01*
X2026325Y3693553D01*
X2049853Y3649535D01*
X2054188Y3605518D01*
X2090498Y3485820D01*
X2149463Y3375506D01*
X2228815Y3278815D01*
X2325506Y3199463D01*
X2435820Y3140498D01*
X2555518Y3104188D01*
X2599534Y3099853D01*
X2643554Y3076324D01*
X2857502Y3011423D01*
X3080000Y2989509D01*
X3302499Y3011423D01*
X3516447Y3076324D01*
X3560467Y3099853D01*
X3604482Y3104188D01*
X3724180Y3140498D01*
X3830000Y3197061D01*
X3935820Y3140498D01*
X4055518Y3104188D01*
X4099533Y3099853D01*
X4143553Y3076324D01*
X4357501Y3011423D01*
X4524248Y2995000D01*
X7584249Y2995000D01*
X7640000Y2989509D01*
X7695751Y2995000D01*
X7695752Y2995000D01*
X7862499Y3011423D01*
X8076447Y3076324D01*
X8273623Y3181716D01*
X8446449Y3323551D01*
X8481996Y3366865D01*
X11021988Y5906856D01*
X11128283Y6036376D01*
X11189015Y6150000D01*
X13771928Y6150000D01*
X13771928Y4650000D01*
X13788992Y4476746D01*
X13839528Y4310150D01*
X13921595Y4156614D01*
X14032038Y4022038D01*
X14166614Y3911595D01*
X14320150Y3829528D01*
X14486746Y3778992D01*
X14660000Y3761928D01*
X15860000Y3761928D01*
X16033254Y3778992D01*
X16199850Y3829528D01*
X16353386Y3911595D01*
X16487962Y4022038D01*
X16598405Y4156614D01*
X16628713Y4213317D01*
X16847248Y4033970D01*
X17131286Y3882148D01*
X17439484Y3788658D01*
X17760000Y3757089D01*
X18080516Y3788658D01*
X18388714Y3882148D01*
X18672752Y4033970D01*
X18859323Y4187085D01*
X20637249Y5965010D01*
X23931928Y5965010D01*
X23931928Y4650000D01*
X23948992Y4476746D01*
X23999528Y4310150D01*
X24081595Y4156614D01*
X24192038Y4022038D01*
X24326614Y3911595D01*
X24480150Y3829528D01*
X24646746Y3778992D01*
X24820000Y3761928D01*
X26020000Y3761928D01*
X26193254Y3778992D01*
X26359850Y3829528D01*
X26513386Y3911595D01*
X26647962Y4022038D01*
X26758405Y4156614D01*
X26788713Y4213316D01*
X26820682Y4187080D01*
X29247080Y1760681D01*
X29298286Y1698286D01*
X29547248Y1493969D01*
X29831285Y1342148D01*
X30139484Y1248657D01*
X30379678Y1225000D01*
X30379680Y1225000D01*
X30459999Y1217089D01*
X30540319Y1225000D01*
X33120322Y1225000D01*
X33360516Y1248657D01*
X33668715Y1342148D01*
X33952752Y1493969D01*
X34201714Y1698286D01*
X34406031Y1947248D01*
X34557852Y2231285D01*
X34651343Y2539484D01*
X34682911Y2860000D01*
X34651343Y3180516D01*
X34557852Y3488715D01*
X34406031Y3772752D01*
X34201714Y4021714D01*
X33952752Y4226031D01*
X33668715Y4377852D01*
X33360516Y4471343D01*
X33120322Y4495000D01*
X31137239Y4495000D01*
X29555000Y6077238D01*
X29555000Y6220307D01*
X29562911Y6300627D01*
X29552762Y6403670D01*
X29531343Y6621142D01*
X29437852Y6929341D01*
X29286031Y7213378D01*
X29277742Y7223479D01*
X34730979Y7223479D01*
X34730979Y6776521D01*
X34818176Y6338151D01*
X34989220Y5925215D01*
X35237536Y5553583D01*
X35553583Y5237536D01*
X35925215Y4989220D01*
X36338151Y4818176D01*
X36776521Y4730979D01*
X37223479Y4730979D01*
X37661849Y4818176D01*
X38074785Y4989220D01*
X38446417Y5237536D01*
X38762464Y5553583D01*
X39010780Y5925215D01*
X39181824Y6338151D01*
X39269021Y6776521D01*
X39269021Y7223479D01*
X39181824Y7661849D01*
X39010780Y8074785D01*
X38762464Y8446417D01*
X38446417Y8762464D01*
X38074785Y9010780D01*
X37661849Y9181824D01*
X37223479Y9269021D01*
X36776521Y9269021D01*
X36338151Y9181824D01*
X35925215Y9010780D01*
X35553583Y8762464D01*
X35237536Y8446417D01*
X34989220Y8074785D01*
X34818176Y7661849D01*
X34730979Y7223479D01*
X29277742Y7223479D01*
X29081714Y7462340D01*
X29019319Y7513545D01*
X27833540Y8699324D01*
X27782330Y8761724D01*
X27533368Y8966041D01*
X27249331Y9117862D01*
X26941132Y9211353D01*
X26700938Y9235010D01*
X26700935Y9235010D01*
X26620616Y9242921D01*
X26540297Y9235010D01*
X20040329Y9235010D01*
X19960010Y9242921D01*
X19879690Y9235010D01*
X19879688Y9235010D01*
X19639494Y9211353D01*
X19331295Y9117862D01*
X19047258Y8966041D01*
X18798296Y8761724D01*
X18747090Y8699328D01*
X16630710Y6582948D01*
X16598405Y6643386D01*
X16487962Y6777962D01*
X16353386Y6888405D01*
X16199850Y6970472D01*
X16033254Y7021008D01*
X15860000Y7038072D01*
X14660000Y7038072D01*
X14486746Y7021008D01*
X14320150Y6970472D01*
X14166614Y6888405D01*
X14032038Y6777962D01*
X13921595Y6643386D01*
X13839528Y6489850D01*
X13788992Y6323254D01*
X13771928Y6150000D01*
X11189015Y6150000D01*
X11233675Y6233552D01*
X11298576Y6447500D01*
X11320490Y6669999D01*
X11298576Y6892498D01*
X11233675Y7106446D01*
X11128283Y7303622D01*
X10986448Y7476448D01*
X10813622Y7618283D01*
X10616446Y7723675D01*
X10402498Y7788576D01*
X10179999Y7810490D01*
X9957500Y7788576D01*
X9743552Y7723675D01*
X9546376Y7618283D01*
X9416856Y7511988D01*
X9245682Y7340814D01*
X9181824Y7661849D01*
X9010780Y8074785D01*
X8762464Y8446417D01*
X8446417Y8762464D01*
X8074785Y9010780D01*
X7661849Y9181824D01*
X7223479Y9269021D01*
X6776521Y9269021D01*
X6338151Y9181824D01*
X5925215Y9010780D01*
X5553583Y8762464D01*
X5237536Y8446417D01*
X4989220Y8074785D01*
X4818176Y7661849D01*
X4730979Y7223479D01*
X4730979Y6776521D01*
X4818176Y6338151D01*
X4989220Y5925215D01*
X5237536Y5553583D01*
X5526119Y5265000D01*
X4524248Y5265000D01*
X4357501Y5248577D01*
X4215000Y5205349D01*
X4215000Y8064869D01*
X5092060Y8941928D01*
X5550000Y8941928D01*
X5674482Y8954188D01*
X5794180Y8990498D01*
X5904494Y9049463D01*
X6001185Y9128815D01*
X6080537Y9225506D01*
X6139502Y9335820D01*
X6175812Y9455518D01*
X6188072Y9580000D01*
X6188072Y11380000D01*
X6175812Y11504482D01*
X6139502Y11624180D01*
X6080537Y11734494D01*
X6001185Y11831185D01*
X5904494Y11910537D01*
X5794180Y11969502D01*
X5674482Y12005812D01*
X5550000Y12018072D01*
X4500000Y12018072D01*
X4375518Y12005812D01*
X4255820Y11969502D01*
X4145506Y11910537D01*
X4048815Y11831185D01*
X3969463Y11734494D01*
X3910498Y11624180D01*
X3874188Y11504482D01*
X3861928Y11380000D01*
X3861928Y10922060D01*
X3085244Y10145376D01*
X3085000Y10194250D01*
X2926250Y10353000D01*
X2052000Y10353000D01*
X2052000Y9103750D01*
X2081352Y9074398D01*
X2026325Y8971447D01*
X2026324Y8971446D01*
X1961423Y8757498D01*
X1939509Y8535000D01*
X660000Y8535000D01*
X660000Y9580000D01*
X761928Y9580000D01*
X774188Y9455518D01*
X810498Y9335820D01*
X869463Y9225506D01*
X948815Y9128815D01*
X1045506Y9049463D01*
X1155820Y8990498D01*
X1275518Y8954188D01*
X1400000Y8941928D01*
X1639250Y8945000D01*
X1798000Y9103750D01*
X1798000Y10353000D01*
X923750Y10353000D01*
X765000Y10194250D01*
X761928Y9580000D01*
X660000Y9580000D01*
X660000Y11380000D01*
X761928Y11380000D01*
X765000Y10765750D01*
X923750Y10607000D01*
X1798000Y10607000D01*
X1798000Y11856250D01*
X2052000Y11856250D01*
X2052000Y10607000D01*
X2926250Y10607000D01*
X3085000Y10765750D01*
X3088072Y11380000D01*
X3075812Y11504482D01*
X3039502Y11624180D01*
X2980537Y11734494D01*
X2901185Y11831185D01*
X2804494Y11910537D01*
X2694180Y11969502D01*
X2574482Y12005812D01*
X2450000Y12018072D01*
X2210750Y12015000D01*
X2052000Y11856250D01*
X1798000Y11856250D01*
X1639250Y12015000D01*
X1400000Y12018072D01*
X1275518Y12005812D01*
X1155820Y11969502D01*
X1045506Y11910537D01*
X948815Y11831185D01*
X869463Y11734494D01*
X810498Y11624180D01*
X774188Y11504482D01*
X761928Y11380000D01*
X660000Y11380000D01*
X660000Y13741561D01*
X17050000Y13741561D01*
X17050000Y13488439D01*
X17099381Y13240179D01*
X17196247Y13006324D01*
X17336875Y12795860D01*
X17515860Y12616875D01*
X17726324Y12476247D01*
X17960179Y12379381D01*
X18208439Y12330000D01*
X18461561Y12330000D01*
X18709821Y12379381D01*
X18943676Y12476247D01*
X19154140Y12616875D01*
X19333125Y12795860D01*
X19473753Y13006324D01*
X19570619Y13240179D01*
X19620000Y13488439D01*
X19620000Y13741561D01*
X19570619Y13989821D01*
X19473753Y14223676D01*
X19391896Y14346184D01*
X20610000Y14346184D01*
X20610000Y14043816D01*
X20668989Y13747257D01*
X20784701Y13467905D01*
X20952688Y13216495D01*
X21166495Y13002688D01*
X21417905Y12834701D01*
X21697257Y12718989D01*
X21993816Y12660000D01*
X22296184Y12660000D01*
X22592743Y12718989D01*
X22872095Y12834701D01*
X23123505Y13002688D01*
X23337312Y13216495D01*
X23505299Y13467905D01*
X23621011Y13747257D01*
X23680000Y14043816D01*
X23680000Y14346184D01*
X23621011Y14642743D01*
X23505299Y14922095D01*
X23337312Y15173505D01*
X23123505Y15387312D01*
X22872095Y15555299D01*
X22592743Y15671011D01*
X22296184Y15730000D01*
X21993816Y15730000D01*
X21697257Y15671011D01*
X21417905Y15555299D01*
X21166495Y15387312D01*
X20952688Y15173505D01*
X20784701Y14922095D01*
X20668989Y14642743D01*
X20610000Y14346184D01*
X19391896Y14346184D01*
X19333125Y14434140D01*
X19154140Y14613125D01*
X18943676Y14753753D01*
X18709821Y14850619D01*
X18461561Y14900000D01*
X18208439Y14900000D01*
X17960179Y14850619D01*
X17726324Y14753753D01*
X17515860Y14613125D01*
X17336875Y14434140D01*
X17196247Y14223676D01*
X17099381Y13989821D01*
X17050000Y13741561D01*
X660000Y13741561D01*
X660000Y18100000D01*
X5229509Y18100000D01*
X5251423Y17877502D01*
X5316324Y17663554D01*
X5421717Y17466378D01*
X5528012Y17336857D01*
X7433009Y15431859D01*
X7468551Y15388551D01*
X7641377Y15246716D01*
X7838553Y15141324D01*
X8052501Y15076423D01*
X8275000Y15054509D01*
X8330752Y15060000D01*
X14859183Y15060000D01*
X14916495Y15002688D01*
X15167905Y14834701D01*
X15447257Y14718989D01*
X15743816Y14660000D01*
X16046184Y14660000D01*
X16342743Y14718989D01*
X16622095Y14834701D01*
X16873505Y15002688D01*
X17087312Y15216495D01*
X17255299Y15467905D01*
X17371011Y15747257D01*
X17430000Y16043816D01*
X17430000Y16346184D01*
X26860000Y16346184D01*
X26860000Y16043816D01*
X26918989Y15747257D01*
X27034701Y15467905D01*
X27202688Y15216495D01*
X27416495Y15002688D01*
X27667905Y14834701D01*
X27947257Y14718989D01*
X28243816Y14660000D01*
X28546184Y14660000D01*
X28842743Y14718989D01*
X29122095Y14834701D01*
X29373505Y15002688D01*
X29587312Y15216495D01*
X29755299Y15467905D01*
X29871011Y15747257D01*
X29930000Y16043816D01*
X29930000Y16346184D01*
X29871011Y16642743D01*
X29755299Y16922095D01*
X29587312Y17173505D01*
X29373505Y17387312D01*
X29122095Y17555299D01*
X28842743Y17671011D01*
X28546184Y17730000D01*
X28243816Y17730000D01*
X27947257Y17671011D01*
X27667905Y17555299D01*
X27416495Y17387312D01*
X27202688Y17173505D01*
X27034701Y16922095D01*
X26918989Y16642743D01*
X26860000Y16346184D01*
X17430000Y16346184D01*
X17371011Y16642743D01*
X17255299Y16922095D01*
X17087312Y17173505D01*
X16873505Y17387312D01*
X16622095Y17555299D01*
X16342743Y17671011D01*
X16046184Y17730000D01*
X15743816Y17730000D01*
X15447257Y17671011D01*
X15167905Y17555299D01*
X14916495Y17387312D01*
X14859183Y17330000D01*
X8745132Y17330000D01*
X7133143Y18941988D01*
X7003622Y19048283D01*
X6806446Y19153676D01*
X6592498Y19218577D01*
X6370000Y19240491D01*
X6147502Y19218577D01*
X5933554Y19153676D01*
X5736378Y19048283D01*
X5563552Y18906448D01*
X5421717Y18733622D01*
X5316324Y18536446D01*
X5251423Y18322498D01*
X5229509Y18100000D01*
X660000Y18100000D01*
X660000Y21346184D01*
X14360000Y21346184D01*
X14360000Y21043816D01*
X14418989Y20747257D01*
X14534701Y20467905D01*
X14702688Y20216495D01*
X14916495Y20002688D01*
X15167905Y19834701D01*
X15447257Y19718989D01*
X15743816Y19660000D01*
X16046184Y19660000D01*
X16342743Y19718989D01*
X16622095Y19834701D01*
X16873505Y20002688D01*
X17001737Y20130920D01*
X27510525Y20130920D01*
X27594208Y19876739D01*
X27866775Y19745842D01*
X28159642Y19670635D01*
X28461553Y19654009D01*
X28760907Y19696603D01*
X29046199Y19796778D01*
X29195792Y19876739D01*
X29279475Y20130920D01*
X28395000Y21015395D01*
X27510525Y20130920D01*
X17001737Y20130920D01*
X17087312Y20216495D01*
X17255299Y20467905D01*
X17371011Y20747257D01*
X17430000Y21043816D01*
X17430000Y21128447D01*
X26854009Y21128447D01*
X26896603Y20829093D01*
X26996778Y20543801D01*
X27076739Y20394208D01*
X27330920Y20310525D01*
X28215395Y21195000D01*
X28574605Y21195000D01*
X29459080Y20310525D01*
X29713261Y20394208D01*
X29844158Y20666775D01*
X29919365Y20959642D01*
X29935991Y21261553D01*
X29893397Y21560907D01*
X29793222Y21846199D01*
X29713261Y21995792D01*
X29459080Y22079475D01*
X28574605Y21195000D01*
X28215395Y21195000D01*
X27330920Y22079475D01*
X27076739Y21995792D01*
X26945842Y21723225D01*
X26870635Y21430358D01*
X26854009Y21128447D01*
X17430000Y21128447D01*
X17430000Y21346184D01*
X17371011Y21642743D01*
X17255299Y21922095D01*
X17087312Y22173505D01*
X17001737Y22259080D01*
X27510525Y22259080D01*
X28395000Y21374605D01*
X29279475Y22259080D01*
X29195792Y22513261D01*
X28923225Y22644158D01*
X28630358Y22719365D01*
X28328447Y22735991D01*
X28029093Y22693397D01*
X27743801Y22593222D01*
X27594208Y22513261D01*
X27510525Y22259080D01*
X17001737Y22259080D01*
X16873505Y22387312D01*
X16622095Y22555299D01*
X16342743Y22671011D01*
X16046184Y22730000D01*
X15743816Y22730000D01*
X15447257Y22671011D01*
X15167905Y22555299D01*
X14916495Y22387312D01*
X14702688Y22173505D01*
X14534701Y21922095D01*
X14418989Y21642743D01*
X14360000Y21346184D01*
X660000Y21346184D01*
X660000Y23901561D01*
X24670000Y23901561D01*
X24670000Y23648439D01*
X24719381Y23400179D01*
X24816247Y23166324D01*
X24956875Y22955860D01*
X25135860Y22776875D01*
X25346324Y22636247D01*
X25580179Y22539381D01*
X25828439Y22490000D01*
X26081561Y22490000D01*
X26329821Y22539381D01*
X26563676Y22636247D01*
X26774140Y22776875D01*
X26953125Y22955860D01*
X27093753Y23166324D01*
X27190619Y23400179D01*
X27240000Y23648439D01*
X27240000Y23901561D01*
X27190619Y24149821D01*
X27093753Y24383676D01*
X26953125Y24594140D01*
X26774140Y24773125D01*
X26563676Y24913753D01*
X26329821Y25010619D01*
X26081561Y25060000D01*
X25828439Y25060000D01*
X25580179Y25010619D01*
X25346324Y24913753D01*
X25135860Y24773125D01*
X24956875Y24594140D01*
X24816247Y24383676D01*
X24719381Y24149821D01*
X24670000Y23901561D01*
X660000Y23901561D01*
X660000Y31521561D01*
X17050000Y31521561D01*
X17050000Y31268439D01*
X17099381Y31020179D01*
X17196247Y30786324D01*
X17336875Y30575860D01*
X17515860Y30396875D01*
X17726324Y30256247D01*
X17960179Y30159381D01*
X18208439Y30110000D01*
X18461561Y30110000D01*
X18709821Y30159381D01*
X18943676Y30256247D01*
X19154140Y30396875D01*
X19333125Y30575860D01*
X19473753Y30786324D01*
X19570619Y31020179D01*
X19620000Y31268439D01*
X19620000Y31521561D01*
X19570619Y31769821D01*
X19473753Y32003676D01*
X19391896Y32126184D01*
X20610000Y32126184D01*
X20610000Y31823816D01*
X20668989Y31527257D01*
X20784701Y31247905D01*
X20952688Y30996495D01*
X21166495Y30782688D01*
X21417905Y30614701D01*
X21697257Y30498989D01*
X21993816Y30440000D01*
X22296184Y30440000D01*
X22592743Y30498989D01*
X22872095Y30614701D01*
X23123505Y30782688D01*
X23337312Y30996495D01*
X23505299Y31247905D01*
X23621011Y31527257D01*
X23680000Y31823816D01*
X23680000Y32126184D01*
X23621011Y32422743D01*
X23505299Y32702095D01*
X23337312Y32953505D01*
X23123505Y33167312D01*
X22872095Y33335299D01*
X22592743Y33451011D01*
X22296184Y33510000D01*
X21993816Y33510000D01*
X21697257Y33451011D01*
X21417905Y33335299D01*
X21166495Y33167312D01*
X20952688Y32953505D01*
X20784701Y32702095D01*
X20668989Y32422743D01*
X20610000Y32126184D01*
X19391896Y32126184D01*
X19333125Y32214140D01*
X19154140Y32393125D01*
X18943676Y32533753D01*
X18709821Y32630619D01*
X18461561Y32680000D01*
X18208439Y32680000D01*
X17960179Y32630619D01*
X17726324Y32533753D01*
X17515860Y32393125D01*
X17336875Y32214140D01*
X17196247Y32003676D01*
X17099381Y31769821D01*
X17050000Y31521561D01*
X660000Y31521561D01*
X660000Y38460000D01*
X3457815Y38460000D01*
X3486487Y38168889D01*
X3571401Y37888966D01*
X3709294Y37630986D01*
X3894866Y37404866D01*
X4120986Y37219294D01*
X4378966Y37081401D01*
X4658889Y36996487D01*
X4877050Y36975000D01*
X5322950Y36975000D01*
X5541111Y36996487D01*
X5821034Y37081401D01*
X6079014Y37219294D01*
X6207817Y37325000D01*
X10939869Y37325000D01*
X14360000Y33904868D01*
X14360000Y33823816D01*
X14418989Y33527257D01*
X14534701Y33247905D01*
X14702688Y32996495D01*
X14916495Y32782688D01*
X15167905Y32614701D01*
X15447257Y32498989D01*
X15743816Y32440000D01*
X16046184Y32440000D01*
X16342743Y32498989D01*
X16622095Y32614701D01*
X16873505Y32782688D01*
X17087312Y32996495D01*
X17255299Y33247905D01*
X17371011Y33527257D01*
X17430000Y33823816D01*
X17430000Y34126184D01*
X26860000Y34126184D01*
X26860000Y33823816D01*
X26918989Y33527257D01*
X27034701Y33247905D01*
X27202688Y32996495D01*
X27416495Y32782688D01*
X27667905Y32614701D01*
X27947257Y32498989D01*
X28243816Y32440000D01*
X28546184Y32440000D01*
X28842743Y32498989D01*
X29122095Y32614701D01*
X29373505Y32782688D01*
X29587312Y32996495D01*
X29755299Y33247905D01*
X29871011Y33527257D01*
X29930000Y33823816D01*
X29930000Y34126184D01*
X29871011Y34422743D01*
X29755299Y34702095D01*
X29587312Y34953505D01*
X29373505Y35167312D01*
X29122095Y35335299D01*
X28842743Y35451011D01*
X28546184Y35510000D01*
X28243816Y35510000D01*
X27947257Y35451011D01*
X27667905Y35335299D01*
X27416495Y35167312D01*
X27202688Y34953505D01*
X27034701Y34702095D01*
X26918989Y34422743D01*
X26860000Y34126184D01*
X17430000Y34126184D01*
X17371011Y34422743D01*
X17255299Y34702095D01*
X17087312Y34953505D01*
X16873505Y35167312D01*
X16622095Y35335299D01*
X16342743Y35451011D01*
X16046184Y35510000D01*
X15965132Y35510000D01*
X12348948Y39126184D01*
X14360000Y39126184D01*
X14360000Y38823816D01*
X14418989Y38527257D01*
X14534701Y38247905D01*
X14702688Y37996495D01*
X14916495Y37782688D01*
X15167905Y37614701D01*
X15447257Y37498989D01*
X15743816Y37440000D01*
X16046184Y37440000D01*
X16342743Y37498989D01*
X16622095Y37614701D01*
X16873505Y37782688D01*
X17001737Y37910920D01*
X27510525Y37910920D01*
X27594208Y37656739D01*
X27866775Y37525842D01*
X28159642Y37450635D01*
X28461553Y37434009D01*
X28760907Y37476603D01*
X29046199Y37576778D01*
X29195792Y37656739D01*
X29279475Y37910920D01*
X28395000Y38795395D01*
X27510525Y37910920D01*
X17001737Y37910920D01*
X17087312Y37996495D01*
X17255299Y38247905D01*
X17371011Y38527257D01*
X17430000Y38823816D01*
X17430000Y38908447D01*
X26854009Y38908447D01*
X26896603Y38609093D01*
X26996778Y38323801D01*
X27076739Y38174208D01*
X27330920Y38090525D01*
X28215395Y38975000D01*
X28574605Y38975000D01*
X29459080Y38090525D01*
X29713261Y38174208D01*
X29844158Y38446775D01*
X29919365Y38739642D01*
X29935991Y39041553D01*
X29893397Y39340907D01*
X29793222Y39626199D01*
X29713261Y39775792D01*
X29459080Y39859475D01*
X28574605Y38975000D01*
X28215395Y38975000D01*
X27330920Y39859475D01*
X27076739Y39775792D01*
X26945842Y39503225D01*
X26870635Y39210358D01*
X26854009Y38908447D01*
X17430000Y38908447D01*
X17430000Y39126184D01*
X17371011Y39422743D01*
X17255299Y39702095D01*
X17087312Y39953505D01*
X17001737Y40039080D01*
X27510525Y40039080D01*
X28395000Y39154605D01*
X29279475Y40039080D01*
X29195792Y40293261D01*
X28923225Y40424158D01*
X28630358Y40499365D01*
X28328447Y40515991D01*
X28029093Y40473397D01*
X27743801Y40373222D01*
X27594208Y40293261D01*
X27510525Y40039080D01*
X17001737Y40039080D01*
X16873505Y40167312D01*
X16622095Y40335299D01*
X16342743Y40451011D01*
X16046184Y40510000D01*
X15743816Y40510000D01*
X15447257Y40451011D01*
X15167905Y40335299D01*
X14916495Y40167312D01*
X14702688Y39953505D01*
X14534701Y39702095D01*
X14418989Y39422743D01*
X14360000Y39126184D01*
X12348948Y39126184D01*
X12251996Y39223135D01*
X12216449Y39266449D01*
X12043623Y39408284D01*
X11846447Y39513676D01*
X11632499Y39578577D01*
X11465752Y39595000D01*
X11465751Y39595000D01*
X11410000Y39600491D01*
X11354249Y39595000D01*
X6293630Y39595000D01*
X6343386Y39621595D01*
X6477962Y39732038D01*
X6588405Y39866614D01*
X6670472Y40020150D01*
X6721008Y40186746D01*
X6738072Y40360000D01*
X6738072Y41560000D01*
X6721008Y41733254D01*
X6670472Y41899850D01*
X6588405Y42053386D01*
X6477962Y42187962D01*
X6343386Y42298405D01*
X6189850Y42380472D01*
X6023254Y42431008D01*
X5850000Y42448072D01*
X4350000Y42448072D01*
X4176746Y42431008D01*
X4010150Y42380472D01*
X3856614Y42298405D01*
X3722038Y42187962D01*
X3611595Y42053386D01*
X3529528Y41899850D01*
X3478992Y41733254D01*
X3461928Y41560000D01*
X3461928Y40360000D01*
X3478992Y40186746D01*
X3529528Y40020150D01*
X3611595Y39866614D01*
X3722038Y39732038D01*
X3856614Y39621595D01*
X3958337Y39567223D01*
X3894866Y39515134D01*
X3709294Y39289014D01*
X3571401Y39031034D01*
X3486487Y38751111D01*
X3457815Y38460000D01*
X660000Y38460000D01*
X660000Y48223479D01*
X4730979Y48223479D01*
X4730979Y47776521D01*
X4818176Y47338151D01*
X4989220Y46925215D01*
X5237536Y46553583D01*
X5553583Y46237536D01*
X5925215Y45989220D01*
X6338151Y45818176D01*
X6776521Y45730979D01*
X7223479Y45730979D01*
X7661849Y45818176D01*
X8074785Y45989220D01*
X8446417Y46237536D01*
X8762464Y46553583D01*
X9010780Y46925215D01*
X9181824Y47338151D01*
X9269021Y47776521D01*
X9269021Y48223479D01*
X9181824Y48661849D01*
X9010780Y49074785D01*
X8762464Y49446417D01*
X8446417Y49762464D01*
X8074785Y50010780D01*
X7661849Y50181824D01*
X7223479Y50269021D01*
X6776521Y50269021D01*
X6338151Y50181824D01*
X5925215Y50010780D01*
X5553583Y49762464D01*
X5237536Y49446417D01*
X4989220Y49074785D01*
X4818176Y48661849D01*
X4730979Y48223479D01*
X660000Y48223479D01*
X660000Y59110000D01*
X1116928Y59110000D01*
X1129188Y58985518D01*
X1165498Y58865820D01*
X1224463Y58755506D01*
X1303815Y58658815D01*
X1400506Y58579463D01*
X1510820Y58520498D01*
X1630518Y58484188D01*
X1755000Y58471928D01*
X1994250Y58475000D01*
X2153000Y58633750D01*
X2153000Y59883000D01*
X2407000Y59883000D01*
X2407000Y58633750D01*
X2565750Y58475000D01*
X2805000Y58471928D01*
X2929482Y58484188D01*
X3049180Y58520498D01*
X3159494Y58579463D01*
X3256185Y58658815D01*
X3335537Y58755506D01*
X3394502Y58865820D01*
X3430812Y58985518D01*
X3443072Y59110000D01*
X3440000Y59724250D01*
X3281250Y59883000D01*
X2407000Y59883000D01*
X2153000Y59883000D01*
X1278750Y59883000D01*
X1120000Y59724250D01*
X1116928Y59110000D01*
X660000Y59110000D01*
X660000Y60910000D01*
X1116928Y60910000D01*
X1120000Y60295750D01*
X1278750Y60137000D01*
X2153000Y60137000D01*
X2153000Y61386250D01*
X1994250Y61545000D01*
X1755000Y61548072D01*
X1630518Y61535812D01*
X1510820Y61499502D01*
X1400506Y61440537D01*
X1303815Y61361185D01*
X1224463Y61264494D01*
X1165498Y61154180D01*
X1129188Y61034482D01*
X1116928Y60910000D01*
X660000Y60910000D01*
X660000Y63110002D01*
X1939509Y63110002D01*
X1945000Y63054251D01*
X1945000Y62494248D01*
X1961423Y62327501D01*
X2026324Y62113553D01*
X2049853Y62069533D01*
X2054188Y62025518D01*
X2090498Y61905820D01*
X2149463Y61795506D01*
X2228815Y61698815D01*
X2325506Y61619463D01*
X2435820Y61560498D01*
X2547400Y61526650D01*
X2407000Y61386250D01*
X2407000Y60137000D01*
X3281250Y60137000D01*
X3440000Y60295750D01*
X3443072Y60910000D01*
X3430812Y61034482D01*
X3394502Y61154180D01*
X3335537Y61264494D01*
X3256185Y61361185D01*
X3184733Y61419824D01*
X3302499Y61431423D01*
X3516447Y61496324D01*
X3560467Y61519853D01*
X3604482Y61524188D01*
X3724180Y61560498D01*
X3815356Y61609233D01*
X3946377Y61501707D01*
X4143553Y61396315D01*
X4245001Y61365541D01*
X4245001Y61086609D01*
X4229188Y61034482D01*
X4216928Y60910000D01*
X4216928Y59110000D01*
X4229188Y58985518D01*
X4265498Y58865820D01*
X4324463Y58755506D01*
X4403815Y58658815D01*
X4500506Y58579463D01*
X4610820Y58520498D01*
X4730518Y58484188D01*
X4855000Y58471928D01*
X5470001Y58471928D01*
X5470001Y55635133D01*
X5107940Y55273072D01*
X4500000Y55273072D01*
X4326746Y55256008D01*
X4160150Y55205472D01*
X4006614Y55123405D01*
X3872038Y55012962D01*
X3761595Y54878386D01*
X3679528Y54724850D01*
X3628992Y54558254D01*
X3611928Y54385000D01*
X3611928Y52935000D01*
X3628992Y52761746D01*
X3679528Y52595150D01*
X3761595Y52441614D01*
X3872038Y52307038D01*
X4006614Y52196595D01*
X4160150Y52114528D01*
X4326746Y52063992D01*
X4500000Y52046928D01*
X5700000Y52046928D01*
X5873254Y52063992D01*
X6039850Y52114528D01*
X6193386Y52196595D01*
X6327962Y52307038D01*
X6438405Y52441614D01*
X6494714Y52546961D01*
X6510951Y52525571D01*
X6728807Y52332504D01*
X6980142Y52185648D01*
X7243110Y52093524D01*
X7473000Y52214845D01*
X7473000Y53533000D01*
X7453000Y53533000D01*
X7453000Y53787000D01*
X7473000Y53787000D01*
X7473000Y53807000D01*
X7727000Y53807000D01*
X7727000Y53787000D01*
X7747000Y53787000D01*
X7747000Y53533000D01*
X7727000Y53533000D01*
X7727000Y52214845D01*
X7956890Y52093524D01*
X8219858Y52185648D01*
X8471193Y52332504D01*
X8689049Y52525571D01*
X8845538Y52731722D01*
X8859294Y52705986D01*
X9044866Y52479866D01*
X9270987Y52294294D01*
X9528967Y52156401D01*
X9808890Y52071487D01*
X10100000Y52042815D01*
X10110973Y52043896D01*
X19488003Y42666864D01*
X19523541Y42623561D01*
X19566844Y42588023D01*
X19566846Y42588021D01*
X19696367Y42481726D01*
X19893543Y42376334D01*
X20107491Y42311433D01*
X20329990Y42289519D01*
X20385742Y42295010D01*
X24904002Y42295010D01*
X24816247Y42163676D01*
X24719381Y41929821D01*
X24670000Y41681561D01*
X24670000Y41428439D01*
X24719381Y41180179D01*
X24816247Y40946324D01*
X24956875Y40735860D01*
X25135860Y40556875D01*
X25346324Y40416247D01*
X25580179Y40319381D01*
X25828439Y40270000D01*
X26081561Y40270000D01*
X26329821Y40319381D01*
X26563676Y40416247D01*
X26774140Y40556875D01*
X26953125Y40735860D01*
X27093753Y40946324D01*
X27190619Y41180179D01*
X27240000Y41428439D01*
X27240000Y41681561D01*
X27190619Y41929821D01*
X27093753Y42163676D01*
X27005998Y42295010D01*
X28095912Y42295010D01*
X28089509Y42230000D01*
X28111423Y42007501D01*
X28176324Y41793553D01*
X28281716Y41596377D01*
X28423551Y41423551D01*
X28596377Y41281716D01*
X28793553Y41176324D01*
X29007501Y41111423D01*
X29174248Y41095000D01*
X31299869Y41095000D01*
X34091928Y38302939D01*
X34091928Y37695000D01*
X34108992Y37521746D01*
X34159528Y37355150D01*
X34241595Y37201614D01*
X34352038Y37067038D01*
X34445001Y36990746D01*
X34445000Y32229254D01*
X34352038Y32152962D01*
X34241595Y32018386D01*
X34159528Y31864850D01*
X34108992Y31698254D01*
X34091928Y31525000D01*
X34091928Y30075000D01*
X34108992Y29901746D01*
X34159528Y29735150D01*
X34241595Y29581614D01*
X34352038Y29447038D01*
X34445000Y29370746D01*
X34445001Y24609254D01*
X34352038Y24532962D01*
X34241595Y24398386D01*
X34159528Y24244850D01*
X34108992Y24078254D01*
X34091928Y23905000D01*
X34091928Y22455000D01*
X34108992Y22281746D01*
X34159528Y22115150D01*
X34241595Y21961614D01*
X34352038Y21827038D01*
X34445000Y21750746D01*
X34445001Y16989254D01*
X34352038Y16912962D01*
X34241595Y16778386D01*
X34159528Y16624850D01*
X34108992Y16458254D01*
X34091928Y16285000D01*
X34091928Y14835000D01*
X34108992Y14661746D01*
X34159528Y14495150D01*
X34241595Y14341614D01*
X34352038Y14207038D01*
X34486614Y14096595D01*
X34640150Y14014528D01*
X34806746Y13963992D01*
X34980000Y13946928D01*
X35587941Y13946928D01*
X38548013Y10986854D01*
X38583551Y10943551D01*
X38626854Y10908013D01*
X38626856Y10908011D01*
X38756377Y10801716D01*
X38953553Y10696324D01*
X39167501Y10631423D01*
X39390000Y10609509D01*
X39445752Y10615000D01*
X57225752Y10615000D01*
X57392499Y10631423D01*
X57606447Y10696324D01*
X57803623Y10801716D01*
X57976449Y10943551D01*
X58118284Y11116377D01*
X58223676Y11313553D01*
X58288577Y11527501D01*
X58310491Y11750000D01*
X58288577Y11972499D01*
X58223676Y12186447D01*
X58118284Y12383623D01*
X57976449Y12556449D01*
X57803623Y12698284D01*
X57606447Y12803676D01*
X57392499Y12868577D01*
X57225752Y12885000D01*
X39860133Y12885000D01*
X38669959Y14075174D01*
X38699858Y14085648D01*
X38951193Y14232504D01*
X39169049Y14425571D01*
X39325538Y14631722D01*
X39339294Y14605986D01*
X39524866Y14379866D01*
X39750987Y14194294D01*
X40008967Y14056401D01*
X40288890Y13971487D01*
X40580000Y13942815D01*
X40871111Y13971487D01*
X41151034Y14056401D01*
X41409014Y14194294D01*
X41635134Y14379866D01*
X41820706Y14605986D01*
X41830000Y14623374D01*
X41839294Y14605986D01*
X42024866Y14379866D01*
X42250987Y14194294D01*
X42508967Y14056401D01*
X42788890Y13971487D01*
X43080000Y13942815D01*
X43371111Y13971487D01*
X43651034Y14056401D01*
X43909014Y14194294D01*
X44135134Y14379866D01*
X44320706Y14605986D01*
X44330000Y14623374D01*
X44339294Y14605986D01*
X44524866Y14379866D01*
X44750987Y14194294D01*
X45008967Y14056401D01*
X45288890Y13971487D01*
X45580000Y13942815D01*
X45871111Y13971487D01*
X46151034Y14056401D01*
X46409014Y14194294D01*
X46635134Y14379866D01*
X46820706Y14605986D01*
X46830000Y14623374D01*
X46839294Y14605986D01*
X47024866Y14379866D01*
X47250987Y14194294D01*
X47508967Y14056401D01*
X47788890Y13971487D01*
X48080000Y13942815D01*
X48371111Y13971487D01*
X48651034Y14056401D01*
X48909014Y14194294D01*
X49135134Y14379866D01*
X49320706Y14605986D01*
X49458599Y14863967D01*
X49543513Y15143890D01*
X49565000Y15362051D01*
X49565000Y15757950D01*
X49543513Y15976111D01*
X49458599Y16256034D01*
X49320706Y16514014D01*
X49135134Y16740134D01*
X48909013Y16925706D01*
X48651033Y17063599D01*
X48371110Y17148513D01*
X48080000Y17177185D01*
X47788889Y17148513D01*
X47508966Y17063599D01*
X47250986Y16925706D01*
X47024866Y16740134D01*
X46839294Y16514013D01*
X46830000Y16496626D01*
X46820706Y16514014D01*
X46635134Y16740134D01*
X46409013Y16925706D01*
X46151033Y17063599D01*
X45871110Y17148513D01*
X45580000Y17177185D01*
X45288889Y17148513D01*
X45008966Y17063599D01*
X44750986Y16925706D01*
X44524866Y16740134D01*
X44339294Y16514013D01*
X44330000Y16496626D01*
X44320706Y16514014D01*
X44215000Y16642817D01*
X44215000Y22097183D01*
X44320706Y22225986D01*
X44330000Y22243374D01*
X44339294Y22225986D01*
X44524866Y21999866D01*
X44750987Y21814294D01*
X45008967Y21676401D01*
X45288890Y21591487D01*
X45580000Y21562815D01*
X45871111Y21591487D01*
X46151034Y21676401D01*
X46409014Y21814294D01*
X46635134Y21999866D01*
X46820706Y22225986D01*
X46830000Y22243374D01*
X46839294Y22225986D01*
X47024866Y21999866D01*
X47250987Y21814294D01*
X47508967Y21676401D01*
X47788890Y21591487D01*
X48080000Y21562815D01*
X48371111Y21591487D01*
X48651034Y21676401D01*
X48909014Y21814294D01*
X49135134Y21999866D01*
X49320706Y22225986D01*
X49458599Y22483967D01*
X49543513Y22763890D01*
X49565000Y22982051D01*
X49565000Y23377950D01*
X49543513Y23596111D01*
X49458599Y23876034D01*
X49320706Y24134014D01*
X49135134Y24360134D01*
X48909013Y24545706D01*
X48651033Y24683599D01*
X48371110Y24768513D01*
X48080000Y24797185D01*
X47788889Y24768513D01*
X47508966Y24683599D01*
X47250986Y24545706D01*
X47024866Y24360134D01*
X46839294Y24134013D01*
X46830000Y24116626D01*
X46820706Y24134014D01*
X46635134Y24360134D01*
X46409013Y24545706D01*
X46151033Y24683599D01*
X45871110Y24768513D01*
X45580000Y24797185D01*
X45288889Y24768513D01*
X45008966Y24683599D01*
X44750986Y24545706D01*
X44524866Y24360134D01*
X44339294Y24134013D01*
X44330000Y24116626D01*
X44320706Y24134014D01*
X44215000Y24262817D01*
X44215000Y29717183D01*
X44320706Y29845986D01*
X44330000Y29863374D01*
X44339294Y29845986D01*
X44524866Y29619866D01*
X44750987Y29434294D01*
X45008967Y29296401D01*
X45288890Y29211487D01*
X45580000Y29182815D01*
X45871111Y29211487D01*
X46151034Y29296401D01*
X46409014Y29434294D01*
X46635134Y29619866D01*
X46820706Y29845986D01*
X46830000Y29863374D01*
X46839294Y29845986D01*
X47024866Y29619866D01*
X47250987Y29434294D01*
X47508967Y29296401D01*
X47788890Y29211487D01*
X48080000Y29182815D01*
X48371111Y29211487D01*
X48651034Y29296401D01*
X48909014Y29434294D01*
X49135134Y29619866D01*
X49320706Y29845986D01*
X49458599Y30103967D01*
X49543513Y30383890D01*
X49565000Y30602051D01*
X49565000Y30997950D01*
X49543513Y31216111D01*
X49458599Y31496034D01*
X49320706Y31754014D01*
X49135134Y31980134D01*
X48909013Y32165706D01*
X48651033Y32303599D01*
X48371110Y32388513D01*
X48080000Y32417185D01*
X47788889Y32388513D01*
X47508966Y32303599D01*
X47250986Y32165706D01*
X47024866Y31980134D01*
X46839294Y31754013D01*
X46830000Y31736626D01*
X46820706Y31754014D01*
X46635134Y31980134D01*
X46409013Y32165706D01*
X46151033Y32303599D01*
X45871110Y32388513D01*
X45580000Y32417185D01*
X45288889Y32388513D01*
X45008966Y32303599D01*
X44750986Y32165706D01*
X44524866Y31980134D01*
X44339294Y31754013D01*
X44330000Y31736626D01*
X44320706Y31754014D01*
X44215000Y31882817D01*
X44215000Y37337183D01*
X44320706Y37465986D01*
X44330000Y37483374D01*
X44339294Y37465986D01*
X44524866Y37239866D01*
X44750987Y37054294D01*
X45008967Y36916401D01*
X45288890Y36831487D01*
X45580000Y36802815D01*
X45871111Y36831487D01*
X46151034Y36916401D01*
X46409014Y37054294D01*
X46635134Y37239866D01*
X46820706Y37465986D01*
X46830000Y37483374D01*
X46839294Y37465986D01*
X47024866Y37239866D01*
X47250987Y37054294D01*
X47508967Y36916401D01*
X47788890Y36831487D01*
X48080000Y36802815D01*
X48371111Y36831487D01*
X48651034Y36916401D01*
X48909014Y37054294D01*
X49135134Y37239866D01*
X49320706Y37465986D01*
X49458599Y37723967D01*
X49543513Y38003890D01*
X49565000Y38222051D01*
X49565000Y38617950D01*
X49543513Y38836111D01*
X49458599Y39116034D01*
X49320706Y39374014D01*
X49135134Y39600134D01*
X48909013Y39785706D01*
X48651033Y39923599D01*
X48371110Y40008513D01*
X48080000Y40037185D01*
X47788889Y40008513D01*
X47508966Y39923599D01*
X47250986Y39785706D01*
X47024866Y39600134D01*
X46839294Y39374013D01*
X46830000Y39356626D01*
X46820706Y39374014D01*
X46635134Y39600134D01*
X46409013Y39785706D01*
X46175600Y39910468D01*
X49061989Y42796856D01*
X49061998Y42796867D01*
X51240123Y44974991D01*
X74409240Y44974991D01*
X74464991Y44969500D01*
X74520742Y44974991D01*
X74520743Y44974991D01*
X74687490Y44991414D01*
X74901438Y45056315D01*
X75098614Y45161707D01*
X75271440Y45303542D01*
X75306987Y45346856D01*
X76925132Y46965000D01*
X76951260Y46965000D01*
X77238158Y47022068D01*
X77508411Y47134010D01*
X77751632Y47296525D01*
X77958475Y47503368D01*
X78075000Y47677760D01*
X78191525Y47503368D01*
X78398368Y47296525D01*
X78641589Y47134010D01*
X78911842Y47022068D01*
X79198740Y46965000D01*
X79491260Y46965000D01*
X79778158Y47022068D01*
X80048411Y47134010D01*
X80291632Y47296525D01*
X80498475Y47503368D01*
X80615000Y47677760D01*
X80731525Y47503368D01*
X80938368Y47296525D01*
X81181589Y47134010D01*
X81451842Y47022068D01*
X81738740Y46965000D01*
X82031260Y46965000D01*
X82318158Y47022068D01*
X82588411Y47134010D01*
X82831632Y47296525D01*
X83038475Y47503368D01*
X83155000Y47677760D01*
X83271525Y47503368D01*
X83478368Y47296525D01*
X83721589Y47134010D01*
X83991842Y47022068D01*
X84278740Y46965000D01*
X84571260Y46965000D01*
X84858158Y47022068D01*
X85128411Y47134010D01*
X85371632Y47296525D01*
X85578475Y47503368D01*
X85695000Y47677760D01*
X85811525Y47503368D01*
X86018368Y47296525D01*
X86261589Y47134010D01*
X86531842Y47022068D01*
X86818740Y46965000D01*
X87111260Y46965000D01*
X87398158Y47022068D01*
X87668411Y47134010D01*
X87911632Y47296525D01*
X88118475Y47503368D01*
X88235000Y47677760D01*
X88351525Y47503368D01*
X88558368Y47296525D01*
X88801589Y47134010D01*
X89071842Y47022068D01*
X89358740Y46965000D01*
X89651260Y46965000D01*
X89938158Y47022068D01*
X90208411Y47134010D01*
X90451632Y47296525D01*
X90658475Y47503368D01*
X90775000Y47677760D01*
X90891525Y47503368D01*
X91098368Y47296525D01*
X91341589Y47134010D01*
X91611842Y47022068D01*
X91898740Y46965000D01*
X92191260Y46965000D01*
X92478158Y47022068D01*
X92748411Y47134010D01*
X92991632Y47296525D01*
X93198475Y47503368D01*
X93315000Y47677760D01*
X93431525Y47503368D01*
X93638368Y47296525D01*
X93881589Y47134010D01*
X94151842Y47022068D01*
X94438740Y46965000D01*
X94731260Y46965000D01*
X95018158Y47022068D01*
X95288411Y47134010D01*
X95531632Y47296525D01*
X95738475Y47503368D01*
X95855000Y47677760D01*
X95971525Y47503368D01*
X96178368Y47296525D01*
X96421589Y47134010D01*
X96691842Y47022068D01*
X96978740Y46965000D01*
X97271260Y46965000D01*
X97558158Y47022068D01*
X97828411Y47134010D01*
X98071632Y47296525D01*
X98278475Y47503368D01*
X98440990Y47746589D01*
X98552932Y48016842D01*
X98610000Y48303740D01*
X98610000Y48596260D01*
X98552932Y48883158D01*
X98440990Y49153411D01*
X98278475Y49396632D01*
X98071632Y49603475D01*
X97898271Y49719311D01*
X97973792Y49961603D01*
X97125000Y50810395D01*
X96276208Y49961603D01*
X96351729Y49719311D01*
X96178368Y49603475D01*
X95971525Y49396632D01*
X95855000Y49222240D01*
X95738475Y49396632D01*
X95531632Y49603475D01*
X95358271Y49719311D01*
X95433792Y49961603D01*
X94585000Y50810395D01*
X93736208Y49961603D01*
X93811729Y49719311D01*
X93638368Y49603475D01*
X93431525Y49396632D01*
X93315000Y49222240D01*
X93198475Y49396632D01*
X92991632Y49603475D01*
X92818271Y49719311D01*
X92893792Y49961603D01*
X92045000Y50810395D01*
X91196208Y49961603D01*
X91271729Y49719311D01*
X91098368Y49603475D01*
X90891525Y49396632D01*
X90775000Y49222240D01*
X90658475Y49396632D01*
X90451632Y49603475D01*
X90277240Y49720000D01*
X90451632Y49836525D01*
X90658475Y50043368D01*
X90774311Y50216729D01*
X91016603Y50141208D01*
X91865395Y50990000D01*
X92224605Y50990000D01*
X93073397Y50141208D01*
X93315000Y50216514D01*
X93556603Y50141208D01*
X94405395Y50990000D01*
X94764605Y50990000D01*
X95613397Y50141208D01*
X95855000Y50216514D01*
X96096603Y50141208D01*
X96945395Y50990000D01*
X97304605Y50990000D01*
X98153397Y50141208D01*
X98402472Y50218843D01*
X98528371Y50482883D01*
X98600339Y50766411D01*
X98615611Y51058531D01*
X98573599Y51348019D01*
X98475919Y51623747D01*
X98402472Y51761157D01*
X98153397Y51838792D01*
X97304605Y50990000D01*
X96945395Y50990000D01*
X96096603Y51838792D01*
X95855000Y51763486D01*
X95613397Y51838792D01*
X94764605Y50990000D01*
X94405395Y50990000D01*
X93556603Y51838792D01*
X93315000Y51763486D01*
X93073397Y51838792D01*
X92224605Y50990000D01*
X91865395Y50990000D01*
X91016603Y51838792D01*
X90774311Y51763271D01*
X90658475Y51936632D01*
X90576710Y52018397D01*
X91196208Y52018397D01*
X92045000Y51169605D01*
X92893792Y52018397D01*
X93736208Y52018397D01*
X94585000Y51169605D01*
X95433792Y52018397D01*
X96276208Y52018397D01*
X97125000Y51169605D01*
X97973792Y52018397D01*
X97896157Y52267472D01*
X97632117Y52393371D01*
X97348589Y52465339D01*
X97056469Y52480611D01*
X96766981Y52438599D01*
X96491253Y52340919D01*
X96353843Y52267472D01*
X96276208Y52018397D01*
X95433792Y52018397D01*
X95356157Y52267472D01*
X95092117Y52393371D01*
X94808589Y52465339D01*
X94516469Y52480611D01*
X94226981Y52438599D01*
X93951253Y52340919D01*
X93813843Y52267472D01*
X93736208Y52018397D01*
X92893792Y52018397D01*
X92816157Y52267472D01*
X92552117Y52393371D01*
X92268589Y52465339D01*
X91976469Y52480611D01*
X91686981Y52438599D01*
X91411253Y52340919D01*
X91273843Y52267472D01*
X91196208Y52018397D01*
X90576710Y52018397D01*
X90451632Y52143475D01*
X90208411Y52305990D01*
X89938158Y52417932D01*
X89651260Y52475000D01*
X89358740Y52475000D01*
X89071842Y52417932D01*
X88801589Y52305990D01*
X88558368Y52143475D01*
X88351525Y51936632D01*
X88235000Y51762240D01*
X88118475Y51936632D01*
X87911632Y52143475D01*
X87668411Y52305990D01*
X87398158Y52417932D01*
X87111260Y52475000D01*
X86818740Y52475000D01*
X86531842Y52417932D01*
X86261589Y52305990D01*
X86018368Y52143475D01*
X85811525Y51936632D01*
X85695000Y51762240D01*
X85578475Y51936632D01*
X85371632Y52143475D01*
X85128411Y52305990D01*
X84858158Y52417932D01*
X84571260Y52475000D01*
X84278740Y52475000D01*
X83991842Y52417932D01*
X83721589Y52305990D01*
X83478368Y52143475D01*
X83271525Y51936632D01*
X83155000Y51762240D01*
X83038475Y51936632D01*
X82831632Y52143475D01*
X82588411Y52305990D01*
X82318158Y52417932D01*
X82031260Y52475000D01*
X81738740Y52475000D01*
X81451842Y52417932D01*
X81181589Y52305990D01*
X80938368Y52143475D01*
X80731525Y51936632D01*
X80615000Y51762240D01*
X80498475Y51936632D01*
X80291632Y52143475D01*
X80048411Y52305990D01*
X79778158Y52417932D01*
X79491260Y52475000D01*
X79198740Y52475000D01*
X78911842Y52417932D01*
X78641589Y52305990D01*
X78398368Y52143475D01*
X78191525Y51936632D01*
X78075000Y51762240D01*
X77958475Y51936632D01*
X77751632Y52143475D01*
X77508411Y52305990D01*
X77238158Y52417932D01*
X76951260Y52475000D01*
X76925132Y52475000D01*
X76096995Y53303136D01*
X76061448Y53346450D01*
X75888622Y53488285D01*
X75691446Y53593677D01*
X75477498Y53658578D01*
X75310751Y53675001D01*
X75310750Y53675001D01*
X75254999Y53680492D01*
X75199248Y53675001D01*
X60876750Y53675001D01*
X60820998Y53680492D01*
X60765247Y53675001D01*
X60598500Y53658578D01*
X60384552Y53593677D01*
X60187376Y53488285D01*
X60014550Y53346450D01*
X59979008Y53303142D01*
X57676860Y51000993D01*
X57633552Y50965451D01*
X57491716Y50792625D01*
X57386324Y50595449D01*
X57375148Y50558608D01*
X57266030Y50762753D01*
X57112916Y50949324D01*
X53302925Y54759313D01*
X53251714Y54821714D01*
X53002752Y55026031D01*
X52718715Y55177852D01*
X52410516Y55271343D01*
X52245325Y55287613D01*
X52146031Y55473378D01*
X51941714Y55722340D01*
X51879319Y55773545D01*
X50693540Y56959324D01*
X50642330Y57021724D01*
X50393368Y57226041D01*
X50109331Y57377862D01*
X49801132Y57471353D01*
X49560938Y57495010D01*
X49560935Y57495010D01*
X49480616Y57502921D01*
X49400297Y57495010D01*
X49340241Y57495010D01*
X49441714Y57578286D01*
X49646031Y57827248D01*
X49797852Y58111285D01*
X49891343Y58419484D01*
X49922911Y58740000D01*
X49891343Y59060516D01*
X49817177Y59305010D01*
X67699859Y59305010D01*
X72916856Y54088012D01*
X73046377Y53981716D01*
X73243553Y53876324D01*
X73457501Y53811423D01*
X73680000Y53789509D01*
X73902499Y53811423D01*
X74116446Y53876324D01*
X74313622Y53981716D01*
X74486449Y54123551D01*
X74628284Y54296378D01*
X74733676Y54493554D01*
X74798577Y54707501D01*
X74820491Y54930000D01*
X74798577Y55152499D01*
X74733676Y55366447D01*
X74628284Y55563623D01*
X74521988Y55693144D01*
X71105132Y59110000D01*
X103986928Y59110000D01*
X103999188Y58985518D01*
X104035498Y58865820D01*
X104094463Y58755506D01*
X104173815Y58658815D01*
X104270506Y58579463D01*
X104380820Y58520498D01*
X104500518Y58484188D01*
X104625000Y58471928D01*
X104864250Y58475000D01*
X105023000Y58633750D01*
X105023000Y59883000D01*
X105277000Y59883000D01*
X105277000Y58633750D01*
X105435750Y58475000D01*
X105675000Y58471928D01*
X105799482Y58484188D01*
X105919180Y58520498D01*
X106029494Y58579463D01*
X106126185Y58658815D01*
X106205537Y58755506D01*
X106264502Y58865820D01*
X106300812Y58985518D01*
X106313072Y59110000D01*
X106310000Y59724250D01*
X106151250Y59883000D01*
X105277000Y59883000D01*
X105023000Y59883000D01*
X104148750Y59883000D01*
X103990000Y59724250D01*
X103986928Y59110000D01*
X71105132Y59110000D01*
X69011986Y61203145D01*
X68976439Y61246459D01*
X68803613Y61388294D01*
X68606437Y61493686D01*
X68392489Y61558587D01*
X68225742Y61575010D01*
X68225741Y61575010D01*
X68169990Y61580501D01*
X68114239Y61575010D01*
X59776781Y61575010D01*
X60010780Y61925215D01*
X60181824Y62338151D01*
X60269021Y62776521D01*
X60269021Y63223479D01*
X60181824Y63661849D01*
X60010780Y64074785D01*
X59762464Y64446417D01*
X59446417Y64762464D01*
X59074785Y65010780D01*
X58661849Y65181824D01*
X58223479Y65269021D01*
X57776521Y65269021D01*
X57338151Y65181824D01*
X56925215Y65010780D01*
X56553583Y64762464D01*
X56237536Y64446417D01*
X55989220Y64074785D01*
X55818176Y63661849D01*
X55730979Y63223479D01*
X55730979Y62776521D01*
X55818176Y62338151D01*
X55989220Y61925215D01*
X56223219Y61575010D01*
X50629155Y61575010D01*
X50678230Y61624085D01*
X50837189Y61861983D01*
X50946681Y62126321D01*
X51002500Y62406941D01*
X51002500Y62693059D01*
X50946681Y62973679D01*
X50837189Y63238017D01*
X50678230Y63475915D01*
X50475915Y63678230D01*
X50238017Y63837189D01*
X49973679Y63946681D01*
X49693059Y64002500D01*
X49406941Y64002500D01*
X49126321Y63946681D01*
X48861983Y63837189D01*
X48624085Y63678230D01*
X48421770Y63475915D01*
X48280000Y63263742D01*
X48138230Y63475915D01*
X47935915Y63678230D01*
X47698017Y63837189D01*
X47433679Y63946681D01*
X47153059Y64002500D01*
X46866941Y64002500D01*
X46586321Y63946681D01*
X46321983Y63837189D01*
X46084085Y63678230D01*
X45881770Y63475915D01*
X45740000Y63263742D01*
X45598230Y63475915D01*
X45395915Y63678230D01*
X45158017Y63837189D01*
X44893679Y63946681D01*
X44613059Y64002500D01*
X44326941Y64002500D01*
X44046321Y63946681D01*
X43781983Y63837189D01*
X43544085Y63678230D01*
X43341770Y63475915D01*
X43182811Y63238017D01*
X43073319Y62973679D01*
X43017500Y62693059D01*
X43017500Y62406941D01*
X43073319Y62126321D01*
X43182811Y61861983D01*
X43341770Y61624085D01*
X43390845Y61575010D01*
X42946025Y61575010D01*
X39507888Y65013145D01*
X39472341Y65056459D01*
X39299515Y65198294D01*
X39102339Y65303686D01*
X38888391Y65368587D01*
X38721644Y65385010D01*
X38721643Y65385010D01*
X38665892Y65390501D01*
X38610141Y65385010D01*
X25745762Y65385010D01*
X25690010Y65390501D01*
X25634258Y65385010D01*
X25467511Y65368587D01*
X25253563Y65303686D01*
X25056387Y65198294D01*
X24883561Y65056459D01*
X24848019Y65013151D01*
X15110973Y55276104D01*
X15100000Y55277185D01*
X14808889Y55248513D01*
X14528966Y55163599D01*
X14270986Y55025706D01*
X14044866Y54840134D01*
X13859294Y54614013D01*
X13850000Y54596626D01*
X13840706Y54614014D01*
X13655134Y54840134D01*
X13429013Y55025706D01*
X13171033Y55163599D01*
X12891110Y55248513D01*
X12600000Y55277185D01*
X12308889Y55248513D01*
X12028966Y55163599D01*
X11770986Y55025706D01*
X11544866Y54840134D01*
X11359294Y54614013D01*
X11350000Y54596626D01*
X11340706Y54614014D01*
X11155134Y54840134D01*
X10929013Y55025706D01*
X10671033Y55163599D01*
X10391110Y55248513D01*
X10100000Y55277185D01*
X9808889Y55248513D01*
X9528966Y55163599D01*
X9270986Y55025706D01*
X9044866Y54840134D01*
X8859294Y54614013D01*
X8845538Y54588278D01*
X8689049Y54794429D01*
X8471193Y54987496D01*
X8219858Y55134352D01*
X7956890Y55226476D01*
X7740288Y55112168D01*
X7745492Y55165001D01*
X7740001Y55220753D01*
X7740001Y62529260D01*
X7745491Y62585002D01*
X7740001Y62640744D01*
X7740001Y62640753D01*
X7723578Y62807500D01*
X7658677Y63021448D01*
X7553285Y63218624D01*
X7411450Y63391450D01*
X7368141Y63426993D01*
X6381997Y64413137D01*
X6346450Y64456450D01*
X6173624Y64598285D01*
X5976448Y64703677D01*
X5762500Y64768578D01*
X5595753Y64785001D01*
X5595752Y64785001D01*
X5540001Y64790492D01*
X5484250Y64785001D01*
X3675750Y64785001D01*
X3619999Y64790492D01*
X3564247Y64785001D01*
X3397500Y64768578D01*
X3183552Y64703677D01*
X2986376Y64598285D01*
X2813550Y64456450D01*
X2778003Y64413136D01*
X2316865Y63951998D01*
X2273551Y63916451D01*
X2131716Y63743625D01*
X2042019Y63575812D01*
X2026324Y63546448D01*
X1961423Y63332500D01*
X1939509Y63110002D01*
X660000Y63110002D01*
X660000Y66340000D01*
X98724868Y66340000D01*
X98316860Y65931991D01*
%TA.AperFunction,Conductor*%
D23*
G36*
X98316860Y65931991D02*
G01*
X98273552Y65896449D01*
X98131717Y65723623D01*
X98026324Y65526447D01*
X97961423Y65312499D01*
X97961423Y65312498D01*
X97939509Y65090000D01*
X97945000Y65034249D01*
X97945000Y63764249D01*
X97945001Y63764239D01*
X97945000Y61224249D01*
X97961423Y61057502D01*
X98026324Y60843554D01*
X98131716Y60646377D01*
X98273551Y60473551D01*
X98446377Y60331716D01*
X98643553Y60226324D01*
X98857501Y60161423D01*
X99080000Y60139509D01*
X99302498Y60161423D01*
X99516446Y60226324D01*
X99713623Y60331716D01*
X99886449Y60473551D01*
X100028284Y60646377D01*
X100133676Y60843553D01*
X100198577Y61057501D01*
X100215000Y61224248D01*
X100215000Y61587311D01*
X100237536Y61553583D01*
X100553583Y61237536D01*
X100925215Y60989220D01*
X101338151Y60818176D01*
X101776521Y60730979D01*
X102223479Y60730979D01*
X102661849Y60818176D01*
X102883531Y60910000D01*
X103986928Y60910000D01*
X103990000Y60295750D01*
X104148750Y60137000D01*
X105023000Y60137000D01*
X105023000Y61386250D01*
X104864250Y61545000D01*
X104625000Y61548072D01*
X104500518Y61535812D01*
X104380820Y61499502D01*
X104270506Y61440537D01*
X104173815Y61361185D01*
X104094463Y61264494D01*
X104035498Y61154180D01*
X103999188Y61034482D01*
X103986928Y60910000D01*
X102883531Y60910000D01*
X103074785Y60989220D01*
X103446417Y61237536D01*
X103762464Y61553583D01*
X104010780Y61925215D01*
X104181824Y62338151D01*
X104244023Y62650846D01*
X104948066Y61946802D01*
X104960498Y61905820D01*
X105019463Y61795506D01*
X105098815Y61698815D01*
X105195506Y61619463D01*
X105305820Y61560498D01*
X105417400Y61526650D01*
X105277000Y61386250D01*
X105277000Y60137000D01*
X106151250Y60137000D01*
X106310000Y60295750D01*
X106313072Y60910000D01*
X106300812Y61034482D01*
X106264502Y61154180D01*
X106205537Y61264494D01*
X106126185Y61361185D01*
X106054733Y61419824D01*
X106172498Y61431423D01*
X106386446Y61496324D01*
X106430465Y61519853D01*
X106474482Y61524188D01*
X106594180Y61560498D01*
X106700000Y61617061D01*
X106805820Y61560498D01*
X106846803Y61548066D01*
X107115000Y61279868D01*
X107115000Y61086607D01*
X107099188Y61034482D01*
X107086928Y60910000D01*
X107086928Y59110000D01*
X107099188Y58985518D01*
X107135498Y58865820D01*
X107194463Y58755506D01*
X107273815Y58658815D01*
X107370506Y58579463D01*
X107480820Y58520498D01*
X107600518Y58484188D01*
X107725000Y58471928D01*
X108775000Y58471928D01*
X108899482Y58484188D01*
X109019180Y58520498D01*
X109129494Y58579463D01*
X109226185Y58658815D01*
X109305537Y58755506D01*
X109340000Y58819981D01*
X109340001Y7860018D01*
X109305537Y7924494D01*
X109226185Y8021185D01*
X109129494Y8100537D01*
X109019180Y8159502D01*
X108899482Y8195812D01*
X108775000Y8208072D01*
X108535750Y8205000D01*
X108377000Y8046250D01*
X108377000Y6797000D01*
X108397000Y6797000D01*
X108397000Y6543000D01*
X108377000Y6543000D01*
X108377000Y6523000D01*
X108123000Y6523000D01*
X108123000Y6543000D01*
X108103000Y6543000D01*
X108103000Y6797000D01*
X108123000Y6797000D01*
X108123000Y8046250D01*
X107964250Y8205000D01*
X107725000Y8208072D01*
X107600518Y8195812D01*
X107480820Y8159502D01*
X107370506Y8100537D01*
X107273815Y8021185D01*
X107194463Y7924494D01*
X107135498Y7814180D01*
X107099188Y7694482D01*
X107086928Y7570000D01*
X107090000Y6955750D01*
X107248748Y6797002D01*
X107090000Y6797002D01*
X107090000Y6750129D01*
X106406994Y7433135D01*
X106371447Y7476449D01*
X106313072Y7524356D01*
X106313072Y7570000D01*
X106300812Y7694482D01*
X106264502Y7814180D01*
X106205537Y7924494D01*
X106126185Y8021185D01*
X106029494Y8100537D01*
X105919180Y8159502D01*
X105799482Y8195812D01*
X105675000Y8208072D01*
X104625000Y8208072D01*
X104500518Y8195812D01*
X104380820Y8159502D01*
X104270506Y8100537D01*
X104173815Y8021185D01*
X104094463Y7924494D01*
X104035498Y7814180D01*
X103999188Y7694482D01*
X103986928Y7570000D01*
X103986928Y5770000D01*
X103999188Y5645518D01*
X104035498Y5525820D01*
X104094463Y5415506D01*
X104173815Y5318815D01*
X104239389Y5265000D01*
X102834248Y5265000D01*
X102667501Y5248577D01*
X102453553Y5183676D01*
X102256377Y5078284D01*
X102083551Y4936449D01*
X101941716Y4763623D01*
X101836324Y4566447D01*
X101771423Y4352499D01*
X101749509Y4130000D01*
X101771423Y3907501D01*
X101836324Y3693553D01*
X101941716Y3496377D01*
X102083551Y3323551D01*
X102256377Y3181716D01*
X102453553Y3076324D01*
X102667501Y3011423D01*
X102834248Y2995000D01*
X106005752Y2995000D01*
X106172499Y3011423D01*
X106386447Y3076324D01*
X106430467Y3099853D01*
X106474482Y3104188D01*
X106594180Y3140498D01*
X106700000Y3197061D01*
X106805820Y3140498D01*
X106925518Y3104188D01*
X106969533Y3099853D01*
X107013553Y3076324D01*
X107227501Y3011423D01*
X107450000Y2989509D01*
X107672498Y3011423D01*
X107886446Y3076324D01*
X107930466Y3099853D01*
X107974482Y3104188D01*
X108094180Y3140498D01*
X108204494Y3199463D01*
X108301185Y3278815D01*
X108380537Y3375506D01*
X108439502Y3485820D01*
X108475812Y3605518D01*
X108480147Y3649533D01*
X108503676Y3693553D01*
X108568577Y3907501D01*
X108585000Y4074248D01*
X108585000Y4729257D01*
X108590490Y4784999D01*
X108585000Y4840741D01*
X108585000Y4840749D01*
X108568577Y5007496D01*
X108527351Y5143399D01*
X108535750Y5135000D01*
X108775000Y5131928D01*
X108899482Y5144188D01*
X109019180Y5180498D01*
X109129494Y5239463D01*
X109226185Y5318815D01*
X109305537Y5415506D01*
X109340001Y5479982D01*
X109340001Y660000D01*
X660000Y660000D01*
X660000Y8535000D01*
X1939509Y8535000D01*
X1945000Y8479248D01*
X1945001Y4074248D01*
X1961424Y3907501D01*
X2026325Y3693553D01*
X2049853Y3649535D01*
X2054188Y3605518D01*
X2090498Y3485820D01*
X2149463Y3375506D01*
X2228815Y3278815D01*
X2325506Y3199463D01*
X2435820Y3140498D01*
X2555518Y3104188D01*
X2599534Y3099853D01*
X2643554Y3076324D01*
X2857502Y3011423D01*
X3080000Y2989509D01*
X3302499Y3011423D01*
X3516447Y3076324D01*
X3560467Y3099853D01*
X3604482Y3104188D01*
X3724180Y3140498D01*
X3830000Y3197061D01*
X3935820Y3140498D01*
X4055518Y3104188D01*
X4099533Y3099853D01*
X4143553Y3076324D01*
X4357501Y3011423D01*
X4524248Y2995000D01*
X7584249Y2995000D01*
X7640000Y2989509D01*
X7695751Y2995000D01*
X7695752Y2995000D01*
X7862499Y3011423D01*
X8076447Y3076324D01*
X8273623Y3181716D01*
X8446449Y3323551D01*
X8481996Y3366865D01*
X11021988Y5906856D01*
X11128283Y6036376D01*
X11189015Y6150000D01*
X13771928Y6150000D01*
X13771928Y4650000D01*
X13788992Y4476746D01*
X13839528Y4310150D01*
X13921595Y4156614D01*
X14032038Y4022038D01*
X14166614Y3911595D01*
X14320150Y3829528D01*
X14486746Y3778992D01*
X14660000Y3761928D01*
X15860000Y3761928D01*
X16033254Y3778992D01*
X16199850Y3829528D01*
X16353386Y3911595D01*
X16487962Y4022038D01*
X16598405Y4156614D01*
X16628713Y4213317D01*
X16847248Y4033970D01*
X17131286Y3882148D01*
X17439484Y3788658D01*
X17760000Y3757089D01*
X18080516Y3788658D01*
X18388714Y3882148D01*
X18672752Y4033970D01*
X18859323Y4187085D01*
X20637249Y5965010D01*
X23931928Y5965010D01*
X23931928Y4650000D01*
X23948992Y4476746D01*
X23999528Y4310150D01*
X24081595Y4156614D01*
X24192038Y4022038D01*
X24326614Y3911595D01*
X24480150Y3829528D01*
X24646746Y3778992D01*
X24820000Y3761928D01*
X26020000Y3761928D01*
X26193254Y3778992D01*
X26359850Y3829528D01*
X26513386Y3911595D01*
X26647962Y4022038D01*
X26758405Y4156614D01*
X26788713Y4213316D01*
X26820682Y4187080D01*
X29247080Y1760681D01*
X29298286Y1698286D01*
X29547248Y1493969D01*
X29831285Y1342148D01*
X30139484Y1248657D01*
X30379678Y1225000D01*
X30379680Y1225000D01*
X30459999Y1217089D01*
X30540319Y1225000D01*
X33120322Y1225000D01*
X33360516Y1248657D01*
X33668715Y1342148D01*
X33952752Y1493969D01*
X34201714Y1698286D01*
X34406031Y1947248D01*
X34557852Y2231285D01*
X34651343Y2539484D01*
X34682911Y2860000D01*
X34651343Y3180516D01*
X34557852Y3488715D01*
X34406031Y3772752D01*
X34201714Y4021714D01*
X33952752Y4226031D01*
X33668715Y4377852D01*
X33360516Y4471343D01*
X33120322Y4495000D01*
X31137239Y4495000D01*
X29555000Y6077238D01*
X29555000Y6220307D01*
X29562911Y6300627D01*
X29552762Y6403670D01*
X29531343Y6621142D01*
X29437852Y6929341D01*
X29286031Y7213378D01*
X29277742Y7223479D01*
X34730979Y7223479D01*
X34730979Y6776521D01*
X34818176Y6338151D01*
X34989220Y5925215D01*
X35237536Y5553583D01*
X35553583Y5237536D01*
X35925215Y4989220D01*
X36338151Y4818176D01*
X36776521Y4730979D01*
X37223479Y4730979D01*
X37661849Y4818176D01*
X38074785Y4989220D01*
X38446417Y5237536D01*
X38762464Y5553583D01*
X39010780Y5925215D01*
X39181824Y6338151D01*
X39269021Y6776521D01*
X39269021Y7223479D01*
X39181824Y7661849D01*
X39010780Y8074785D01*
X38762464Y8446417D01*
X38446417Y8762464D01*
X38074785Y9010780D01*
X37661849Y9181824D01*
X37223479Y9269021D01*
X36776521Y9269021D01*
X36338151Y9181824D01*
X35925215Y9010780D01*
X35553583Y8762464D01*
X35237536Y8446417D01*
X34989220Y8074785D01*
X34818176Y7661849D01*
X34730979Y7223479D01*
X29277742Y7223479D01*
X29081714Y7462340D01*
X29019319Y7513545D01*
X27833540Y8699324D01*
X27782330Y8761724D01*
X27533368Y8966041D01*
X27249331Y9117862D01*
X26941132Y9211353D01*
X26700938Y9235010D01*
X26700935Y9235010D01*
X26620616Y9242921D01*
X26540297Y9235010D01*
X20040329Y9235010D01*
X19960010Y9242921D01*
X19879690Y9235010D01*
X19879688Y9235010D01*
X19639494Y9211353D01*
X19331295Y9117862D01*
X19047258Y8966041D01*
X18798296Y8761724D01*
X18747090Y8699328D01*
X16630710Y6582948D01*
X16598405Y6643386D01*
X16487962Y6777962D01*
X16353386Y6888405D01*
X16199850Y6970472D01*
X16033254Y7021008D01*
X15860000Y7038072D01*
X14660000Y7038072D01*
X14486746Y7021008D01*
X14320150Y6970472D01*
X14166614Y6888405D01*
X14032038Y6777962D01*
X13921595Y6643386D01*
X13839528Y6489850D01*
X13788992Y6323254D01*
X13771928Y6150000D01*
X11189015Y6150000D01*
X11233675Y6233552D01*
X11298576Y6447500D01*
X11320490Y6669999D01*
X11298576Y6892498D01*
X11233675Y7106446D01*
X11128283Y7303622D01*
X10986448Y7476448D01*
X10813622Y7618283D01*
X10616446Y7723675D01*
X10402498Y7788576D01*
X10179999Y7810490D01*
X9957500Y7788576D01*
X9743552Y7723675D01*
X9546376Y7618283D01*
X9416856Y7511988D01*
X9245682Y7340814D01*
X9181824Y7661849D01*
X9010780Y8074785D01*
X8762464Y8446417D01*
X8446417Y8762464D01*
X8074785Y9010780D01*
X7661849Y9181824D01*
X7223479Y9269021D01*
X6776521Y9269021D01*
X6338151Y9181824D01*
X5925215Y9010780D01*
X5553583Y8762464D01*
X5237536Y8446417D01*
X4989220Y8074785D01*
X4818176Y7661849D01*
X4730979Y7223479D01*
X4730979Y6776521D01*
X4818176Y6338151D01*
X4989220Y5925215D01*
X5237536Y5553583D01*
X5526119Y5265000D01*
X4524248Y5265000D01*
X4357501Y5248577D01*
X4215000Y5205349D01*
X4215000Y8064869D01*
X5092060Y8941928D01*
X5550000Y8941928D01*
X5674482Y8954188D01*
X5794180Y8990498D01*
X5904494Y9049463D01*
X6001185Y9128815D01*
X6080537Y9225506D01*
X6139502Y9335820D01*
X6175812Y9455518D01*
X6188072Y9580000D01*
X6188072Y11380000D01*
X6175812Y11504482D01*
X6139502Y11624180D01*
X6080537Y11734494D01*
X6001185Y11831185D01*
X5904494Y11910537D01*
X5794180Y11969502D01*
X5674482Y12005812D01*
X5550000Y12018072D01*
X4500000Y12018072D01*
X4375518Y12005812D01*
X4255820Y11969502D01*
X4145506Y11910537D01*
X4048815Y11831185D01*
X3969463Y11734494D01*
X3910498Y11624180D01*
X3874188Y11504482D01*
X3861928Y11380000D01*
X3861928Y10922060D01*
X3085244Y10145376D01*
X3085000Y10194250D01*
X2926250Y10353000D01*
X2052000Y10353000D01*
X2052000Y9103750D01*
X2081352Y9074398D01*
X2026325Y8971447D01*
X2026324Y8971446D01*
X1961423Y8757498D01*
X1939509Y8535000D01*
X660000Y8535000D01*
X660000Y9580000D01*
X761928Y9580000D01*
X774188Y9455518D01*
X810498Y9335820D01*
X869463Y9225506D01*
X948815Y9128815D01*
X1045506Y9049463D01*
X1155820Y8990498D01*
X1275518Y8954188D01*
X1400000Y8941928D01*
X1639250Y8945000D01*
X1798000Y9103750D01*
X1798000Y10353000D01*
X923750Y10353000D01*
X765000Y10194250D01*
X761928Y9580000D01*
X660000Y9580000D01*
X660000Y11380000D01*
X761928Y11380000D01*
X765000Y10765750D01*
X923750Y10607000D01*
X1798000Y10607000D01*
X1798000Y11856250D01*
X2052000Y11856250D01*
X2052000Y10607000D01*
X2926250Y10607000D01*
X3085000Y10765750D01*
X3088072Y11380000D01*
X3075812Y11504482D01*
X3039502Y11624180D01*
X2980537Y11734494D01*
X2901185Y11831185D01*
X2804494Y11910537D01*
X2694180Y11969502D01*
X2574482Y12005812D01*
X2450000Y12018072D01*
X2210750Y12015000D01*
X2052000Y11856250D01*
X1798000Y11856250D01*
X1639250Y12015000D01*
X1400000Y12018072D01*
X1275518Y12005812D01*
X1155820Y11969502D01*
X1045506Y11910537D01*
X948815Y11831185D01*
X869463Y11734494D01*
X810498Y11624180D01*
X774188Y11504482D01*
X761928Y11380000D01*
X660000Y11380000D01*
X660000Y13741561D01*
X17050000Y13741561D01*
X17050000Y13488439D01*
X17099381Y13240179D01*
X17196247Y13006324D01*
X17336875Y12795860D01*
X17515860Y12616875D01*
X17726324Y12476247D01*
X17960179Y12379381D01*
X18208439Y12330000D01*
X18461561Y12330000D01*
X18709821Y12379381D01*
X18943676Y12476247D01*
X19154140Y12616875D01*
X19333125Y12795860D01*
X19473753Y13006324D01*
X19570619Y13240179D01*
X19620000Y13488439D01*
X19620000Y13741561D01*
X19570619Y13989821D01*
X19473753Y14223676D01*
X19391896Y14346184D01*
X20610000Y14346184D01*
X20610000Y14043816D01*
X20668989Y13747257D01*
X20784701Y13467905D01*
X20952688Y13216495D01*
X21166495Y13002688D01*
X21417905Y12834701D01*
X21697257Y12718989D01*
X21993816Y12660000D01*
X22296184Y12660000D01*
X22592743Y12718989D01*
X22872095Y12834701D01*
X23123505Y13002688D01*
X23337312Y13216495D01*
X23505299Y13467905D01*
X23621011Y13747257D01*
X23680000Y14043816D01*
X23680000Y14346184D01*
X23621011Y14642743D01*
X23505299Y14922095D01*
X23337312Y15173505D01*
X23123505Y15387312D01*
X22872095Y15555299D01*
X22592743Y15671011D01*
X22296184Y15730000D01*
X21993816Y15730000D01*
X21697257Y15671011D01*
X21417905Y15555299D01*
X21166495Y15387312D01*
X20952688Y15173505D01*
X20784701Y14922095D01*
X20668989Y14642743D01*
X20610000Y14346184D01*
X19391896Y14346184D01*
X19333125Y14434140D01*
X19154140Y14613125D01*
X18943676Y14753753D01*
X18709821Y14850619D01*
X18461561Y14900000D01*
X18208439Y14900000D01*
X17960179Y14850619D01*
X17726324Y14753753D01*
X17515860Y14613125D01*
X17336875Y14434140D01*
X17196247Y14223676D01*
X17099381Y13989821D01*
X17050000Y13741561D01*
X660000Y13741561D01*
X660000Y18100000D01*
X5229509Y18100000D01*
X5251423Y17877502D01*
X5316324Y17663554D01*
X5421717Y17466378D01*
X5528012Y17336857D01*
X7433009Y15431859D01*
X7468551Y15388551D01*
X7641377Y15246716D01*
X7838553Y15141324D01*
X8052501Y15076423D01*
X8275000Y15054509D01*
X8330752Y15060000D01*
X14859183Y15060000D01*
X14916495Y15002688D01*
X15167905Y14834701D01*
X15447257Y14718989D01*
X15743816Y14660000D01*
X16046184Y14660000D01*
X16342743Y14718989D01*
X16622095Y14834701D01*
X16873505Y15002688D01*
X17087312Y15216495D01*
X17255299Y15467905D01*
X17371011Y15747257D01*
X17430000Y16043816D01*
X17430000Y16346184D01*
X26860000Y16346184D01*
X26860000Y16043816D01*
X26918989Y15747257D01*
X27034701Y15467905D01*
X27202688Y15216495D01*
X27416495Y15002688D01*
X27667905Y14834701D01*
X27947257Y14718989D01*
X28243816Y14660000D01*
X28546184Y14660000D01*
X28842743Y14718989D01*
X29122095Y14834701D01*
X29373505Y15002688D01*
X29587312Y15216495D01*
X29755299Y15467905D01*
X29871011Y15747257D01*
X29930000Y16043816D01*
X29930000Y16346184D01*
X29871011Y16642743D01*
X29755299Y16922095D01*
X29587312Y17173505D01*
X29373505Y17387312D01*
X29122095Y17555299D01*
X28842743Y17671011D01*
X28546184Y17730000D01*
X28243816Y17730000D01*
X27947257Y17671011D01*
X27667905Y17555299D01*
X27416495Y17387312D01*
X27202688Y17173505D01*
X27034701Y16922095D01*
X26918989Y16642743D01*
X26860000Y16346184D01*
X17430000Y16346184D01*
X17371011Y16642743D01*
X17255299Y16922095D01*
X17087312Y17173505D01*
X16873505Y17387312D01*
X16622095Y17555299D01*
X16342743Y17671011D01*
X16046184Y17730000D01*
X15743816Y17730000D01*
X15447257Y17671011D01*
X15167905Y17555299D01*
X14916495Y17387312D01*
X14859183Y17330000D01*
X8745132Y17330000D01*
X7133143Y18941988D01*
X7003622Y19048283D01*
X6806446Y19153676D01*
X6592498Y19218577D01*
X6370000Y19240491D01*
X6147502Y19218577D01*
X5933554Y19153676D01*
X5736378Y19048283D01*
X5563552Y18906448D01*
X5421717Y18733622D01*
X5316324Y18536446D01*
X5251423Y18322498D01*
X5229509Y18100000D01*
X660000Y18100000D01*
X660000Y21346184D01*
X14360000Y21346184D01*
X14360000Y21043816D01*
X14418989Y20747257D01*
X14534701Y20467905D01*
X14702688Y20216495D01*
X14916495Y20002688D01*
X15167905Y19834701D01*
X15447257Y19718989D01*
X15743816Y19660000D01*
X16046184Y19660000D01*
X16342743Y19718989D01*
X16622095Y19834701D01*
X16873505Y20002688D01*
X17001737Y20130920D01*
X27510525Y20130920D01*
X27594208Y19876739D01*
X27866775Y19745842D01*
X28159642Y19670635D01*
X28461553Y19654009D01*
X28760907Y19696603D01*
X29046199Y19796778D01*
X29195792Y19876739D01*
X29279475Y20130920D01*
X28395000Y21015395D01*
X27510525Y20130920D01*
X17001737Y20130920D01*
X17087312Y20216495D01*
X17255299Y20467905D01*
X17371011Y20747257D01*
X17430000Y21043816D01*
X17430000Y21128447D01*
X26854009Y21128447D01*
X26896603Y20829093D01*
X26996778Y20543801D01*
X27076739Y20394208D01*
X27330920Y20310525D01*
X28215395Y21195000D01*
X28574605Y21195000D01*
X29459080Y20310525D01*
X29713261Y20394208D01*
X29844158Y20666775D01*
X29919365Y20959642D01*
X29935991Y21261553D01*
X29893397Y21560907D01*
X29793222Y21846199D01*
X29713261Y21995792D01*
X29459080Y22079475D01*
X28574605Y21195000D01*
X28215395Y21195000D01*
X27330920Y22079475D01*
X27076739Y21995792D01*
X26945842Y21723225D01*
X26870635Y21430358D01*
X26854009Y21128447D01*
X17430000Y21128447D01*
X17430000Y21346184D01*
X17371011Y21642743D01*
X17255299Y21922095D01*
X17087312Y22173505D01*
X17001737Y22259080D01*
X27510525Y22259080D01*
X28395000Y21374605D01*
X29279475Y22259080D01*
X29195792Y22513261D01*
X28923225Y22644158D01*
X28630358Y22719365D01*
X28328447Y22735991D01*
X28029093Y22693397D01*
X27743801Y22593222D01*
X27594208Y22513261D01*
X27510525Y22259080D01*
X17001737Y22259080D01*
X16873505Y22387312D01*
X16622095Y22555299D01*
X16342743Y22671011D01*
X16046184Y22730000D01*
X15743816Y22730000D01*
X15447257Y22671011D01*
X15167905Y22555299D01*
X14916495Y22387312D01*
X14702688Y22173505D01*
X14534701Y21922095D01*
X14418989Y21642743D01*
X14360000Y21346184D01*
X660000Y21346184D01*
X660000Y23901561D01*
X24670000Y23901561D01*
X24670000Y23648439D01*
X24719381Y23400179D01*
X24816247Y23166324D01*
X24956875Y22955860D01*
X25135860Y22776875D01*
X25346324Y22636247D01*
X25580179Y22539381D01*
X25828439Y22490000D01*
X26081561Y22490000D01*
X26329821Y22539381D01*
X26563676Y22636247D01*
X26774140Y22776875D01*
X26953125Y22955860D01*
X27093753Y23166324D01*
X27190619Y23400179D01*
X27240000Y23648439D01*
X27240000Y23901561D01*
X27190619Y24149821D01*
X27093753Y24383676D01*
X26953125Y24594140D01*
X26774140Y24773125D01*
X26563676Y24913753D01*
X26329821Y25010619D01*
X26081561Y25060000D01*
X25828439Y25060000D01*
X25580179Y25010619D01*
X25346324Y24913753D01*
X25135860Y24773125D01*
X24956875Y24594140D01*
X24816247Y24383676D01*
X24719381Y24149821D01*
X24670000Y23901561D01*
X660000Y23901561D01*
X660000Y31521561D01*
X17050000Y31521561D01*
X17050000Y31268439D01*
X17099381Y31020179D01*
X17196247Y30786324D01*
X17336875Y30575860D01*
X17515860Y30396875D01*
X17726324Y30256247D01*
X17960179Y30159381D01*
X18208439Y30110000D01*
X18461561Y30110000D01*
X18709821Y30159381D01*
X18943676Y30256247D01*
X19154140Y30396875D01*
X19333125Y30575860D01*
X19473753Y30786324D01*
X19570619Y31020179D01*
X19620000Y31268439D01*
X19620000Y31521561D01*
X19570619Y31769821D01*
X19473753Y32003676D01*
X19391896Y32126184D01*
X20610000Y32126184D01*
X20610000Y31823816D01*
X20668989Y31527257D01*
X20784701Y31247905D01*
X20952688Y30996495D01*
X21166495Y30782688D01*
X21417905Y30614701D01*
X21697257Y30498989D01*
X21993816Y30440000D01*
X22296184Y30440000D01*
X22592743Y30498989D01*
X22872095Y30614701D01*
X23123505Y30782688D01*
X23337312Y30996495D01*
X23505299Y31247905D01*
X23621011Y31527257D01*
X23680000Y31823816D01*
X23680000Y32126184D01*
X23621011Y32422743D01*
X23505299Y32702095D01*
X23337312Y32953505D01*
X23123505Y33167312D01*
X22872095Y33335299D01*
X22592743Y33451011D01*
X22296184Y33510000D01*
X21993816Y33510000D01*
X21697257Y33451011D01*
X21417905Y33335299D01*
X21166495Y33167312D01*
X20952688Y32953505D01*
X20784701Y32702095D01*
X20668989Y32422743D01*
X20610000Y32126184D01*
X19391896Y32126184D01*
X19333125Y32214140D01*
X19154140Y32393125D01*
X18943676Y32533753D01*
X18709821Y32630619D01*
X18461561Y32680000D01*
X18208439Y32680000D01*
X17960179Y32630619D01*
X17726324Y32533753D01*
X17515860Y32393125D01*
X17336875Y32214140D01*
X17196247Y32003676D01*
X17099381Y31769821D01*
X17050000Y31521561D01*
X660000Y31521561D01*
X660000Y38460000D01*
X3457815Y38460000D01*
X3486487Y38168889D01*
X3571401Y37888966D01*
X3709294Y37630986D01*
X3894866Y37404866D01*
X4120986Y37219294D01*
X4378966Y37081401D01*
X4658889Y36996487D01*
X4877050Y36975000D01*
X5322950Y36975000D01*
X5541111Y36996487D01*
X5821034Y37081401D01*
X6079014Y37219294D01*
X6207817Y37325000D01*
X10939869Y37325000D01*
X14360000Y33904868D01*
X14360000Y33823816D01*
X14418989Y33527257D01*
X14534701Y33247905D01*
X14702688Y32996495D01*
X14916495Y32782688D01*
X15167905Y32614701D01*
X15447257Y32498989D01*
X15743816Y32440000D01*
X16046184Y32440000D01*
X16342743Y32498989D01*
X16622095Y32614701D01*
X16873505Y32782688D01*
X17087312Y32996495D01*
X17255299Y33247905D01*
X17371011Y33527257D01*
X17430000Y33823816D01*
X17430000Y34126184D01*
X26860000Y34126184D01*
X26860000Y33823816D01*
X26918989Y33527257D01*
X27034701Y33247905D01*
X27202688Y32996495D01*
X27416495Y32782688D01*
X27667905Y32614701D01*
X27947257Y32498989D01*
X28243816Y32440000D01*
X28546184Y32440000D01*
X28842743Y32498989D01*
X29122095Y32614701D01*
X29373505Y32782688D01*
X29587312Y32996495D01*
X29755299Y33247905D01*
X29871011Y33527257D01*
X29930000Y33823816D01*
X29930000Y34126184D01*
X29871011Y34422743D01*
X29755299Y34702095D01*
X29587312Y34953505D01*
X29373505Y35167312D01*
X29122095Y35335299D01*
X28842743Y35451011D01*
X28546184Y35510000D01*
X28243816Y35510000D01*
X27947257Y35451011D01*
X27667905Y35335299D01*
X27416495Y35167312D01*
X27202688Y34953505D01*
X27034701Y34702095D01*
X26918989Y34422743D01*
X26860000Y34126184D01*
X17430000Y34126184D01*
X17371011Y34422743D01*
X17255299Y34702095D01*
X17087312Y34953505D01*
X16873505Y35167312D01*
X16622095Y35335299D01*
X16342743Y35451011D01*
X16046184Y35510000D01*
X15965132Y35510000D01*
X12348948Y39126184D01*
X14360000Y39126184D01*
X14360000Y38823816D01*
X14418989Y38527257D01*
X14534701Y38247905D01*
X14702688Y37996495D01*
X14916495Y37782688D01*
X15167905Y37614701D01*
X15447257Y37498989D01*
X15743816Y37440000D01*
X16046184Y37440000D01*
X16342743Y37498989D01*
X16622095Y37614701D01*
X16873505Y37782688D01*
X17001737Y37910920D01*
X27510525Y37910920D01*
X27594208Y37656739D01*
X27866775Y37525842D01*
X28159642Y37450635D01*
X28461553Y37434009D01*
X28760907Y37476603D01*
X29046199Y37576778D01*
X29195792Y37656739D01*
X29279475Y37910920D01*
X28395000Y38795395D01*
X27510525Y37910920D01*
X17001737Y37910920D01*
X17087312Y37996495D01*
X17255299Y38247905D01*
X17371011Y38527257D01*
X17430000Y38823816D01*
X17430000Y38908447D01*
X26854009Y38908447D01*
X26896603Y38609093D01*
X26996778Y38323801D01*
X27076739Y38174208D01*
X27330920Y38090525D01*
X28215395Y38975000D01*
X28574605Y38975000D01*
X29459080Y38090525D01*
X29713261Y38174208D01*
X29844158Y38446775D01*
X29919365Y38739642D01*
X29935991Y39041553D01*
X29893397Y39340907D01*
X29793222Y39626199D01*
X29713261Y39775792D01*
X29459080Y39859475D01*
X28574605Y38975000D01*
X28215395Y38975000D01*
X27330920Y39859475D01*
X27076739Y39775792D01*
X26945842Y39503225D01*
X26870635Y39210358D01*
X26854009Y38908447D01*
X17430000Y38908447D01*
X17430000Y39126184D01*
X17371011Y39422743D01*
X17255299Y39702095D01*
X17087312Y39953505D01*
X17001737Y40039080D01*
X27510525Y40039080D01*
X28395000Y39154605D01*
X29279475Y40039080D01*
X29195792Y40293261D01*
X28923225Y40424158D01*
X28630358Y40499365D01*
X28328447Y40515991D01*
X28029093Y40473397D01*
X27743801Y40373222D01*
X27594208Y40293261D01*
X27510525Y40039080D01*
X17001737Y40039080D01*
X16873505Y40167312D01*
X16622095Y40335299D01*
X16342743Y40451011D01*
X16046184Y40510000D01*
X15743816Y40510000D01*
X15447257Y40451011D01*
X15167905Y40335299D01*
X14916495Y40167312D01*
X14702688Y39953505D01*
X14534701Y39702095D01*
X14418989Y39422743D01*
X14360000Y39126184D01*
X12348948Y39126184D01*
X12251996Y39223135D01*
X12216449Y39266449D01*
X12043623Y39408284D01*
X11846447Y39513676D01*
X11632499Y39578577D01*
X11465752Y39595000D01*
X11465751Y39595000D01*
X11410000Y39600491D01*
X11354249Y39595000D01*
X6293630Y39595000D01*
X6343386Y39621595D01*
X6477962Y39732038D01*
X6588405Y39866614D01*
X6670472Y40020150D01*
X6721008Y40186746D01*
X6738072Y40360000D01*
X6738072Y41560000D01*
X6721008Y41733254D01*
X6670472Y41899850D01*
X6588405Y42053386D01*
X6477962Y42187962D01*
X6343386Y42298405D01*
X6189850Y42380472D01*
X6023254Y42431008D01*
X5850000Y42448072D01*
X4350000Y42448072D01*
X4176746Y42431008D01*
X4010150Y42380472D01*
X3856614Y42298405D01*
X3722038Y42187962D01*
X3611595Y42053386D01*
X3529528Y41899850D01*
X3478992Y41733254D01*
X3461928Y41560000D01*
X3461928Y40360000D01*
X3478992Y40186746D01*
X3529528Y40020150D01*
X3611595Y39866614D01*
X3722038Y39732038D01*
X3856614Y39621595D01*
X3958337Y39567223D01*
X3894866Y39515134D01*
X3709294Y39289014D01*
X3571401Y39031034D01*
X3486487Y38751111D01*
X3457815Y38460000D01*
X660000Y38460000D01*
X660000Y48223479D01*
X4730979Y48223479D01*
X4730979Y47776521D01*
X4818176Y47338151D01*
X4989220Y46925215D01*
X5237536Y46553583D01*
X5553583Y46237536D01*
X5925215Y45989220D01*
X6338151Y45818176D01*
X6776521Y45730979D01*
X7223479Y45730979D01*
X7661849Y45818176D01*
X8074785Y45989220D01*
X8446417Y46237536D01*
X8762464Y46553583D01*
X9010780Y46925215D01*
X9181824Y47338151D01*
X9269021Y47776521D01*
X9269021Y48223479D01*
X9181824Y48661849D01*
X9010780Y49074785D01*
X8762464Y49446417D01*
X8446417Y49762464D01*
X8074785Y50010780D01*
X7661849Y50181824D01*
X7223479Y50269021D01*
X6776521Y50269021D01*
X6338151Y50181824D01*
X5925215Y50010780D01*
X5553583Y49762464D01*
X5237536Y49446417D01*
X4989220Y49074785D01*
X4818176Y48661849D01*
X4730979Y48223479D01*
X660000Y48223479D01*
X660000Y59110000D01*
X1116928Y59110000D01*
X1129188Y58985518D01*
X1165498Y58865820D01*
X1224463Y58755506D01*
X1303815Y58658815D01*
X1400506Y58579463D01*
X1510820Y58520498D01*
X1630518Y58484188D01*
X1755000Y58471928D01*
X1994250Y58475000D01*
X2153000Y58633750D01*
X2153000Y59883000D01*
X2407000Y59883000D01*
X2407000Y58633750D01*
X2565750Y58475000D01*
X2805000Y58471928D01*
X2929482Y58484188D01*
X3049180Y58520498D01*
X3159494Y58579463D01*
X3256185Y58658815D01*
X3335537Y58755506D01*
X3394502Y58865820D01*
X3430812Y58985518D01*
X3443072Y59110000D01*
X3440000Y59724250D01*
X3281250Y59883000D01*
X2407000Y59883000D01*
X2153000Y59883000D01*
X1278750Y59883000D01*
X1120000Y59724250D01*
X1116928Y59110000D01*
X660000Y59110000D01*
X660000Y60910000D01*
X1116928Y60910000D01*
X1120000Y60295750D01*
X1278750Y60137000D01*
X2153000Y60137000D01*
X2153000Y61386250D01*
X1994250Y61545000D01*
X1755000Y61548072D01*
X1630518Y61535812D01*
X1510820Y61499502D01*
X1400506Y61440537D01*
X1303815Y61361185D01*
X1224463Y61264494D01*
X1165498Y61154180D01*
X1129188Y61034482D01*
X1116928Y60910000D01*
X660000Y60910000D01*
X660000Y63110002D01*
X1939509Y63110002D01*
X1945000Y63054251D01*
X1945000Y62494248D01*
X1961423Y62327501D01*
X2026324Y62113553D01*
X2049853Y62069533D01*
X2054188Y62025518D01*
X2090498Y61905820D01*
X2149463Y61795506D01*
X2228815Y61698815D01*
X2325506Y61619463D01*
X2435820Y61560498D01*
X2547400Y61526650D01*
X2407000Y61386250D01*
X2407000Y60137000D01*
X3281250Y60137000D01*
X3440000Y60295750D01*
X3443072Y60910000D01*
X3430812Y61034482D01*
X3394502Y61154180D01*
X3335537Y61264494D01*
X3256185Y61361185D01*
X3184733Y61419824D01*
X3302499Y61431423D01*
X3516447Y61496324D01*
X3560467Y61519853D01*
X3604482Y61524188D01*
X3724180Y61560498D01*
X3815356Y61609233D01*
X3946377Y61501707D01*
X4143553Y61396315D01*
X4245001Y61365541D01*
X4245001Y61086609D01*
X4229188Y61034482D01*
X4216928Y60910000D01*
X4216928Y59110000D01*
X4229188Y58985518D01*
X4265498Y58865820D01*
X4324463Y58755506D01*
X4403815Y58658815D01*
X4500506Y58579463D01*
X4610820Y58520498D01*
X4730518Y58484188D01*
X4855000Y58471928D01*
X5470001Y58471928D01*
X5470001Y55635133D01*
X5107940Y55273072D01*
X4500000Y55273072D01*
X4326746Y55256008D01*
X4160150Y55205472D01*
X4006614Y55123405D01*
X3872038Y55012962D01*
X3761595Y54878386D01*
X3679528Y54724850D01*
X3628992Y54558254D01*
X3611928Y54385000D01*
X3611928Y52935000D01*
X3628992Y52761746D01*
X3679528Y52595150D01*
X3761595Y52441614D01*
X3872038Y52307038D01*
X4006614Y52196595D01*
X4160150Y52114528D01*
X4326746Y52063992D01*
X4500000Y52046928D01*
X5700000Y52046928D01*
X5873254Y52063992D01*
X6039850Y52114528D01*
X6193386Y52196595D01*
X6327962Y52307038D01*
X6438405Y52441614D01*
X6494714Y52546961D01*
X6510951Y52525571D01*
X6728807Y52332504D01*
X6980142Y52185648D01*
X7243110Y52093524D01*
X7473000Y52214845D01*
X7473000Y53533000D01*
X7453000Y53533000D01*
X7453000Y53787000D01*
X7473000Y53787000D01*
X7473000Y53807000D01*
X7727000Y53807000D01*
X7727000Y53787000D01*
X7747000Y53787000D01*
X7747000Y53533000D01*
X7727000Y53533000D01*
X7727000Y52214845D01*
X7956890Y52093524D01*
X8219858Y52185648D01*
X8471193Y52332504D01*
X8689049Y52525571D01*
X8845538Y52731722D01*
X8859294Y52705986D01*
X9044866Y52479866D01*
X9270987Y52294294D01*
X9528967Y52156401D01*
X9808890Y52071487D01*
X10100000Y52042815D01*
X10110973Y52043896D01*
X19488003Y42666864D01*
X19523541Y42623561D01*
X19566844Y42588023D01*
X19566846Y42588021D01*
X19696367Y42481726D01*
X19893543Y42376334D01*
X20107491Y42311433D01*
X20329990Y42289519D01*
X20385742Y42295010D01*
X24904002Y42295010D01*
X24816247Y42163676D01*
X24719381Y41929821D01*
X24670000Y41681561D01*
X24670000Y41428439D01*
X24719381Y41180179D01*
X24816247Y40946324D01*
X24956875Y40735860D01*
X25135860Y40556875D01*
X25346324Y40416247D01*
X25580179Y40319381D01*
X25828439Y40270000D01*
X26081561Y40270000D01*
X26329821Y40319381D01*
X26563676Y40416247D01*
X26774140Y40556875D01*
X26953125Y40735860D01*
X27093753Y40946324D01*
X27190619Y41180179D01*
X27240000Y41428439D01*
X27240000Y41681561D01*
X27190619Y41929821D01*
X27093753Y42163676D01*
X27005998Y42295010D01*
X28095912Y42295010D01*
X28089509Y42230000D01*
X28111423Y42007501D01*
X28176324Y41793553D01*
X28281716Y41596377D01*
X28423551Y41423551D01*
X28596377Y41281716D01*
X28793553Y41176324D01*
X29007501Y41111423D01*
X29174248Y41095000D01*
X31299869Y41095000D01*
X34091928Y38302939D01*
X34091928Y37695000D01*
X34108992Y37521746D01*
X34159528Y37355150D01*
X34241595Y37201614D01*
X34352038Y37067038D01*
X34445001Y36990746D01*
X34445000Y32229254D01*
X34352038Y32152962D01*
X34241595Y32018386D01*
X34159528Y31864850D01*
X34108992Y31698254D01*
X34091928Y31525000D01*
X34091928Y30075000D01*
X34108992Y29901746D01*
X34159528Y29735150D01*
X34241595Y29581614D01*
X34352038Y29447038D01*
X34445000Y29370746D01*
X34445001Y24609254D01*
X34352038Y24532962D01*
X34241595Y24398386D01*
X34159528Y24244850D01*
X34108992Y24078254D01*
X34091928Y23905000D01*
X34091928Y22455000D01*
X34108992Y22281746D01*
X34159528Y22115150D01*
X34241595Y21961614D01*
X34352038Y21827038D01*
X34445000Y21750746D01*
X34445001Y16989254D01*
X34352038Y16912962D01*
X34241595Y16778386D01*
X34159528Y16624850D01*
X34108992Y16458254D01*
X34091928Y16285000D01*
X34091928Y14835000D01*
X34108992Y14661746D01*
X34159528Y14495150D01*
X34241595Y14341614D01*
X34352038Y14207038D01*
X34486614Y14096595D01*
X34640150Y14014528D01*
X34806746Y13963992D01*
X34980000Y13946928D01*
X35587941Y13946928D01*
X38548013Y10986854D01*
X38583551Y10943551D01*
X38626854Y10908013D01*
X38626856Y10908011D01*
X38756377Y10801716D01*
X38953553Y10696324D01*
X39167501Y10631423D01*
X39390000Y10609509D01*
X39445752Y10615000D01*
X57225752Y10615000D01*
X57392499Y10631423D01*
X57606447Y10696324D01*
X57803623Y10801716D01*
X57976449Y10943551D01*
X58118284Y11116377D01*
X58223676Y11313553D01*
X58288577Y11527501D01*
X58310491Y11750000D01*
X58288577Y11972499D01*
X58223676Y12186447D01*
X58118284Y12383623D01*
X57976449Y12556449D01*
X57803623Y12698284D01*
X57606447Y12803676D01*
X57392499Y12868577D01*
X57225752Y12885000D01*
X39860133Y12885000D01*
X38669959Y14075174D01*
X38699858Y14085648D01*
X38951193Y14232504D01*
X39169049Y14425571D01*
X39325538Y14631722D01*
X39339294Y14605986D01*
X39524866Y14379866D01*
X39750987Y14194294D01*
X40008967Y14056401D01*
X40288890Y13971487D01*
X40580000Y13942815D01*
X40871111Y13971487D01*
X41151034Y14056401D01*
X41409014Y14194294D01*
X41635134Y14379866D01*
X41820706Y14605986D01*
X41830000Y14623374D01*
X41839294Y14605986D01*
X42024866Y14379866D01*
X42250987Y14194294D01*
X42508967Y14056401D01*
X42788890Y13971487D01*
X43080000Y13942815D01*
X43371111Y13971487D01*
X43651034Y14056401D01*
X43909014Y14194294D01*
X44135134Y14379866D01*
X44320706Y14605986D01*
X44330000Y14623374D01*
X44339294Y14605986D01*
X44524866Y14379866D01*
X44750987Y14194294D01*
X45008967Y14056401D01*
X45288890Y13971487D01*
X45580000Y13942815D01*
X45871111Y13971487D01*
X46151034Y14056401D01*
X46409014Y14194294D01*
X46635134Y14379866D01*
X46820706Y14605986D01*
X46830000Y14623374D01*
X46839294Y14605986D01*
X47024866Y14379866D01*
X47250987Y14194294D01*
X47508967Y14056401D01*
X47788890Y13971487D01*
X48080000Y13942815D01*
X48371111Y13971487D01*
X48651034Y14056401D01*
X48909014Y14194294D01*
X49135134Y14379866D01*
X49320706Y14605986D01*
X49458599Y14863967D01*
X49543513Y15143890D01*
X49565000Y15362051D01*
X49565000Y15757950D01*
X49543513Y15976111D01*
X49458599Y16256034D01*
X49320706Y16514014D01*
X49135134Y16740134D01*
X48909013Y16925706D01*
X48651033Y17063599D01*
X48371110Y17148513D01*
X48080000Y17177185D01*
X47788889Y17148513D01*
X47508966Y17063599D01*
X47250986Y16925706D01*
X47024866Y16740134D01*
X46839294Y16514013D01*
X46830000Y16496626D01*
X46820706Y16514014D01*
X46635134Y16740134D01*
X46409013Y16925706D01*
X46151033Y17063599D01*
X45871110Y17148513D01*
X45580000Y17177185D01*
X45288889Y17148513D01*
X45008966Y17063599D01*
X44750986Y16925706D01*
X44524866Y16740134D01*
X44339294Y16514013D01*
X44330000Y16496626D01*
X44320706Y16514014D01*
X44215000Y16642817D01*
X44215000Y22097183D01*
X44320706Y22225986D01*
X44330000Y22243374D01*
X44339294Y22225986D01*
X44524866Y21999866D01*
X44750987Y21814294D01*
X45008967Y21676401D01*
X45288890Y21591487D01*
X45580000Y21562815D01*
X45871111Y21591487D01*
X46151034Y21676401D01*
X46409014Y21814294D01*
X46635134Y21999866D01*
X46820706Y22225986D01*
X46830000Y22243374D01*
X46839294Y22225986D01*
X47024866Y21999866D01*
X47250987Y21814294D01*
X47508967Y21676401D01*
X47788890Y21591487D01*
X48080000Y21562815D01*
X48371111Y21591487D01*
X48651034Y21676401D01*
X48909014Y21814294D01*
X49135134Y21999866D01*
X49320706Y22225986D01*
X49458599Y22483967D01*
X49543513Y22763890D01*
X49565000Y22982051D01*
X49565000Y23377950D01*
X49543513Y23596111D01*
X49458599Y23876034D01*
X49320706Y24134014D01*
X49135134Y24360134D01*
X48909013Y24545706D01*
X48651033Y24683599D01*
X48371110Y24768513D01*
X48080000Y24797185D01*
X47788889Y24768513D01*
X47508966Y24683599D01*
X47250986Y24545706D01*
X47024866Y24360134D01*
X46839294Y24134013D01*
X46830000Y24116626D01*
X46820706Y24134014D01*
X46635134Y24360134D01*
X46409013Y24545706D01*
X46151033Y24683599D01*
X45871110Y24768513D01*
X45580000Y24797185D01*
X45288889Y24768513D01*
X45008966Y24683599D01*
X44750986Y24545706D01*
X44524866Y24360134D01*
X44339294Y24134013D01*
X44330000Y24116626D01*
X44320706Y24134014D01*
X44215000Y24262817D01*
X44215000Y29717183D01*
X44320706Y29845986D01*
X44330000Y29863374D01*
X44339294Y29845986D01*
X44524866Y29619866D01*
X44750987Y29434294D01*
X45008967Y29296401D01*
X45288890Y29211487D01*
X45580000Y29182815D01*
X45871111Y29211487D01*
X46151034Y29296401D01*
X46409014Y29434294D01*
X46635134Y29619866D01*
X46820706Y29845986D01*
X46830000Y29863374D01*
X46839294Y29845986D01*
X47024866Y29619866D01*
X47250987Y29434294D01*
X47508967Y29296401D01*
X47788890Y29211487D01*
X48080000Y29182815D01*
X48371111Y29211487D01*
X48651034Y29296401D01*
X48909014Y29434294D01*
X49135134Y29619866D01*
X49320706Y29845986D01*
X49458599Y30103967D01*
X49543513Y30383890D01*
X49565000Y30602051D01*
X49565000Y30997950D01*
X49543513Y31216111D01*
X49458599Y31496034D01*
X49320706Y31754014D01*
X49135134Y31980134D01*
X48909013Y32165706D01*
X48651033Y32303599D01*
X48371110Y32388513D01*
X48080000Y32417185D01*
X47788889Y32388513D01*
X47508966Y32303599D01*
X47250986Y32165706D01*
X47024866Y31980134D01*
X46839294Y31754013D01*
X46830000Y31736626D01*
X46820706Y31754014D01*
X46635134Y31980134D01*
X46409013Y32165706D01*
X46151033Y32303599D01*
X45871110Y32388513D01*
X45580000Y32417185D01*
X45288889Y32388513D01*
X45008966Y32303599D01*
X44750986Y32165706D01*
X44524866Y31980134D01*
X44339294Y31754013D01*
X44330000Y31736626D01*
X44320706Y31754014D01*
X44215000Y31882817D01*
X44215000Y37337183D01*
X44320706Y37465986D01*
X44330000Y37483374D01*
X44339294Y37465986D01*
X44524866Y37239866D01*
X44750987Y37054294D01*
X45008967Y36916401D01*
X45288890Y36831487D01*
X45580000Y36802815D01*
X45871111Y36831487D01*
X46151034Y36916401D01*
X46409014Y37054294D01*
X46635134Y37239866D01*
X46820706Y37465986D01*
X46830000Y37483374D01*
X46839294Y37465986D01*
X47024866Y37239866D01*
X47250987Y37054294D01*
X47508967Y36916401D01*
X47788890Y36831487D01*
X48080000Y36802815D01*
X48371111Y36831487D01*
X48651034Y36916401D01*
X48909014Y37054294D01*
X49135134Y37239866D01*
X49320706Y37465986D01*
X49458599Y37723967D01*
X49543513Y38003890D01*
X49565000Y38222051D01*
X49565000Y38617950D01*
X49543513Y38836111D01*
X49458599Y39116034D01*
X49320706Y39374014D01*
X49135134Y39600134D01*
X48909013Y39785706D01*
X48651033Y39923599D01*
X48371110Y40008513D01*
X48080000Y40037185D01*
X47788889Y40008513D01*
X47508966Y39923599D01*
X47250986Y39785706D01*
X47024866Y39600134D01*
X46839294Y39374013D01*
X46830000Y39356626D01*
X46820706Y39374014D01*
X46635134Y39600134D01*
X46409013Y39785706D01*
X46175600Y39910468D01*
X49061989Y42796856D01*
X49061998Y42796867D01*
X51240123Y44974991D01*
X74409240Y44974991D01*
X74464991Y44969500D01*
X74520742Y44974991D01*
X74520743Y44974991D01*
X74687490Y44991414D01*
X74901438Y45056315D01*
X75098614Y45161707D01*
X75271440Y45303542D01*
X75306987Y45346856D01*
X76925132Y46965000D01*
X76951260Y46965000D01*
X77238158Y47022068D01*
X77508411Y47134010D01*
X77751632Y47296525D01*
X77958475Y47503368D01*
X78075000Y47677760D01*
X78191525Y47503368D01*
X78398368Y47296525D01*
X78641589Y47134010D01*
X78911842Y47022068D01*
X79198740Y46965000D01*
X79491260Y46965000D01*
X79778158Y47022068D01*
X80048411Y47134010D01*
X80291632Y47296525D01*
X80498475Y47503368D01*
X80615000Y47677760D01*
X80731525Y47503368D01*
X80938368Y47296525D01*
X81181589Y47134010D01*
X81451842Y47022068D01*
X81738740Y46965000D01*
X82031260Y46965000D01*
X82318158Y47022068D01*
X82588411Y47134010D01*
X82831632Y47296525D01*
X83038475Y47503368D01*
X83155000Y47677760D01*
X83271525Y47503368D01*
X83478368Y47296525D01*
X83721589Y47134010D01*
X83991842Y47022068D01*
X84278740Y46965000D01*
X84571260Y46965000D01*
X84858158Y47022068D01*
X85128411Y47134010D01*
X85371632Y47296525D01*
X85578475Y47503368D01*
X85695000Y47677760D01*
X85811525Y47503368D01*
X86018368Y47296525D01*
X86261589Y47134010D01*
X86531842Y47022068D01*
X86818740Y46965000D01*
X87111260Y46965000D01*
X87398158Y47022068D01*
X87668411Y47134010D01*
X87911632Y47296525D01*
X88118475Y47503368D01*
X88235000Y47677760D01*
X88351525Y47503368D01*
X88558368Y47296525D01*
X88801589Y47134010D01*
X89071842Y47022068D01*
X89358740Y46965000D01*
X89651260Y46965000D01*
X89938158Y47022068D01*
X90208411Y47134010D01*
X90451632Y47296525D01*
X90658475Y47503368D01*
X90775000Y47677760D01*
X90891525Y47503368D01*
X91098368Y47296525D01*
X91341589Y47134010D01*
X91611842Y47022068D01*
X91898740Y46965000D01*
X92191260Y46965000D01*
X92478158Y47022068D01*
X92748411Y47134010D01*
X92991632Y47296525D01*
X93198475Y47503368D01*
X93315000Y47677760D01*
X93431525Y47503368D01*
X93638368Y47296525D01*
X93881589Y47134010D01*
X94151842Y47022068D01*
X94438740Y46965000D01*
X94731260Y46965000D01*
X95018158Y47022068D01*
X95288411Y47134010D01*
X95531632Y47296525D01*
X95738475Y47503368D01*
X95855000Y47677760D01*
X95971525Y47503368D01*
X96178368Y47296525D01*
X96421589Y47134010D01*
X96691842Y47022068D01*
X96978740Y46965000D01*
X97271260Y46965000D01*
X97558158Y47022068D01*
X97828411Y47134010D01*
X98071632Y47296525D01*
X98278475Y47503368D01*
X98440990Y47746589D01*
X98552932Y48016842D01*
X98610000Y48303740D01*
X98610000Y48596260D01*
X98552932Y48883158D01*
X98440990Y49153411D01*
X98278475Y49396632D01*
X98071632Y49603475D01*
X97898271Y49719311D01*
X97973792Y49961603D01*
X97125000Y50810395D01*
X96276208Y49961603D01*
X96351729Y49719311D01*
X96178368Y49603475D01*
X95971525Y49396632D01*
X95855000Y49222240D01*
X95738475Y49396632D01*
X95531632Y49603475D01*
X95358271Y49719311D01*
X95433792Y49961603D01*
X94585000Y50810395D01*
X93736208Y49961603D01*
X93811729Y49719311D01*
X93638368Y49603475D01*
X93431525Y49396632D01*
X93315000Y49222240D01*
X93198475Y49396632D01*
X92991632Y49603475D01*
X92818271Y49719311D01*
X92893792Y49961603D01*
X92045000Y50810395D01*
X91196208Y49961603D01*
X91271729Y49719311D01*
X91098368Y49603475D01*
X90891525Y49396632D01*
X90775000Y49222240D01*
X90658475Y49396632D01*
X90451632Y49603475D01*
X90277240Y49720000D01*
X90451632Y49836525D01*
X90658475Y50043368D01*
X90774311Y50216729D01*
X91016603Y50141208D01*
X91865395Y50990000D01*
X92224605Y50990000D01*
X93073397Y50141208D01*
X93315000Y50216514D01*
X93556603Y50141208D01*
X94405395Y50990000D01*
X94764605Y50990000D01*
X95613397Y50141208D01*
X95855000Y50216514D01*
X96096603Y50141208D01*
X96945395Y50990000D01*
X97304605Y50990000D01*
X98153397Y50141208D01*
X98402472Y50218843D01*
X98528371Y50482883D01*
X98600339Y50766411D01*
X98615611Y51058531D01*
X98573599Y51348019D01*
X98475919Y51623747D01*
X98402472Y51761157D01*
X98153397Y51838792D01*
X97304605Y50990000D01*
X96945395Y50990000D01*
X96096603Y51838792D01*
X95855000Y51763486D01*
X95613397Y51838792D01*
X94764605Y50990000D01*
X94405395Y50990000D01*
X93556603Y51838792D01*
X93315000Y51763486D01*
X93073397Y51838792D01*
X92224605Y50990000D01*
X91865395Y50990000D01*
X91016603Y51838792D01*
X90774311Y51763271D01*
X90658475Y51936632D01*
X90576710Y52018397D01*
X91196208Y52018397D01*
X92045000Y51169605D01*
X92893792Y52018397D01*
X93736208Y52018397D01*
X94585000Y51169605D01*
X95433792Y52018397D01*
X96276208Y52018397D01*
X97125000Y51169605D01*
X97973792Y52018397D01*
X97896157Y52267472D01*
X97632117Y52393371D01*
X97348589Y52465339D01*
X97056469Y52480611D01*
X96766981Y52438599D01*
X96491253Y52340919D01*
X96353843Y52267472D01*
X96276208Y52018397D01*
X95433792Y52018397D01*
X95356157Y52267472D01*
X95092117Y52393371D01*
X94808589Y52465339D01*
X94516469Y52480611D01*
X94226981Y52438599D01*
X93951253Y52340919D01*
X93813843Y52267472D01*
X93736208Y52018397D01*
X92893792Y52018397D01*
X92816157Y52267472D01*
X92552117Y52393371D01*
X92268589Y52465339D01*
X91976469Y52480611D01*
X91686981Y52438599D01*
X91411253Y52340919D01*
X91273843Y52267472D01*
X91196208Y52018397D01*
X90576710Y52018397D01*
X90451632Y52143475D01*
X90208411Y52305990D01*
X89938158Y52417932D01*
X89651260Y52475000D01*
X89358740Y52475000D01*
X89071842Y52417932D01*
X88801589Y52305990D01*
X88558368Y52143475D01*
X88351525Y51936632D01*
X88235000Y51762240D01*
X88118475Y51936632D01*
X87911632Y52143475D01*
X87668411Y52305990D01*
X87398158Y52417932D01*
X87111260Y52475000D01*
X86818740Y52475000D01*
X86531842Y52417932D01*
X86261589Y52305990D01*
X86018368Y52143475D01*
X85811525Y51936632D01*
X85695000Y51762240D01*
X85578475Y51936632D01*
X85371632Y52143475D01*
X85128411Y52305990D01*
X84858158Y52417932D01*
X84571260Y52475000D01*
X84278740Y52475000D01*
X83991842Y52417932D01*
X83721589Y52305990D01*
X83478368Y52143475D01*
X83271525Y51936632D01*
X83155000Y51762240D01*
X83038475Y51936632D01*
X82831632Y52143475D01*
X82588411Y52305990D01*
X82318158Y52417932D01*
X82031260Y52475000D01*
X81738740Y52475000D01*
X81451842Y52417932D01*
X81181589Y52305990D01*
X80938368Y52143475D01*
X80731525Y51936632D01*
X80615000Y51762240D01*
X80498475Y51936632D01*
X80291632Y52143475D01*
X80048411Y52305990D01*
X79778158Y52417932D01*
X79491260Y52475000D01*
X79198740Y52475000D01*
X78911842Y52417932D01*
X78641589Y52305990D01*
X78398368Y52143475D01*
X78191525Y51936632D01*
X78075000Y51762240D01*
X77958475Y51936632D01*
X77751632Y52143475D01*
X77508411Y52305990D01*
X77238158Y52417932D01*
X76951260Y52475000D01*
X76925132Y52475000D01*
X76096995Y53303136D01*
X76061448Y53346450D01*
X75888622Y53488285D01*
X75691446Y53593677D01*
X75477498Y53658578D01*
X75310751Y53675001D01*
X75310750Y53675001D01*
X75254999Y53680492D01*
X75199248Y53675001D01*
X60876750Y53675001D01*
X60820998Y53680492D01*
X60765247Y53675001D01*
X60598500Y53658578D01*
X60384552Y53593677D01*
X60187376Y53488285D01*
X60014550Y53346450D01*
X59979008Y53303142D01*
X57676860Y51000993D01*
X57633552Y50965451D01*
X57491716Y50792625D01*
X57386324Y50595449D01*
X57375148Y50558608D01*
X57266030Y50762753D01*
X57112916Y50949324D01*
X53302925Y54759313D01*
X53251714Y54821714D01*
X53002752Y55026031D01*
X52718715Y55177852D01*
X52410516Y55271343D01*
X52245325Y55287613D01*
X52146031Y55473378D01*
X51941714Y55722340D01*
X51879319Y55773545D01*
X50693540Y56959324D01*
X50642330Y57021724D01*
X50393368Y57226041D01*
X50109331Y57377862D01*
X49801132Y57471353D01*
X49560938Y57495010D01*
X49560935Y57495010D01*
X49480616Y57502921D01*
X49400297Y57495010D01*
X49340241Y57495010D01*
X49441714Y57578286D01*
X49646031Y57827248D01*
X49797852Y58111285D01*
X49891343Y58419484D01*
X49922911Y58740000D01*
X49891343Y59060516D01*
X49817177Y59305010D01*
X67699859Y59305010D01*
X72916856Y54088012D01*
X73046377Y53981716D01*
X73243553Y53876324D01*
X73457501Y53811423D01*
X73680000Y53789509D01*
X73902499Y53811423D01*
X74116446Y53876324D01*
X74313622Y53981716D01*
X74486449Y54123551D01*
X74628284Y54296378D01*
X74733676Y54493554D01*
X74798577Y54707501D01*
X74820491Y54930000D01*
X74798577Y55152499D01*
X74733676Y55366447D01*
X74628284Y55563623D01*
X74521988Y55693144D01*
X71105132Y59110000D01*
X103986928Y59110000D01*
X103999188Y58985518D01*
X104035498Y58865820D01*
X104094463Y58755506D01*
X104173815Y58658815D01*
X104270506Y58579463D01*
X104380820Y58520498D01*
X104500518Y58484188D01*
X104625000Y58471928D01*
X104864250Y58475000D01*
X105023000Y58633750D01*
X105023000Y59883000D01*
X105277000Y59883000D01*
X105277000Y58633750D01*
X105435750Y58475000D01*
X105675000Y58471928D01*
X105799482Y58484188D01*
X105919180Y58520498D01*
X106029494Y58579463D01*
X106126185Y58658815D01*
X106205537Y58755506D01*
X106264502Y58865820D01*
X106300812Y58985518D01*
X106313072Y59110000D01*
X106310000Y59724250D01*
X106151250Y59883000D01*
X105277000Y59883000D01*
X105023000Y59883000D01*
X104148750Y59883000D01*
X103990000Y59724250D01*
X103986928Y59110000D01*
X71105132Y59110000D01*
X69011986Y61203145D01*
X68976439Y61246459D01*
X68803613Y61388294D01*
X68606437Y61493686D01*
X68392489Y61558587D01*
X68225742Y61575010D01*
X68225741Y61575010D01*
X68169990Y61580501D01*
X68114239Y61575010D01*
X59776781Y61575010D01*
X60010780Y61925215D01*
X60181824Y62338151D01*
X60269021Y62776521D01*
X60269021Y63223479D01*
X60181824Y63661849D01*
X60010780Y64074785D01*
X59762464Y64446417D01*
X59446417Y64762464D01*
X59074785Y65010780D01*
X58661849Y65181824D01*
X58223479Y65269021D01*
X57776521Y65269021D01*
X57338151Y65181824D01*
X56925215Y65010780D01*
X56553583Y64762464D01*
X56237536Y64446417D01*
X55989220Y64074785D01*
X55818176Y63661849D01*
X55730979Y63223479D01*
X55730979Y62776521D01*
X55818176Y62338151D01*
X55989220Y61925215D01*
X56223219Y61575010D01*
X50629155Y61575010D01*
X50678230Y61624085D01*
X50837189Y61861983D01*
X50946681Y62126321D01*
X51002500Y62406941D01*
X51002500Y62693059D01*
X50946681Y62973679D01*
X50837189Y63238017D01*
X50678230Y63475915D01*
X50475915Y63678230D01*
X50238017Y63837189D01*
X49973679Y63946681D01*
X49693059Y64002500D01*
X49406941Y64002500D01*
X49126321Y63946681D01*
X48861983Y63837189D01*
X48624085Y63678230D01*
X48421770Y63475915D01*
X48280000Y63263742D01*
X48138230Y63475915D01*
X47935915Y63678230D01*
X47698017Y63837189D01*
X47433679Y63946681D01*
X47153059Y64002500D01*
X46866941Y64002500D01*
X46586321Y63946681D01*
X46321983Y63837189D01*
X46084085Y63678230D01*
X45881770Y63475915D01*
X45740000Y63263742D01*
X45598230Y63475915D01*
X45395915Y63678230D01*
X45158017Y63837189D01*
X44893679Y63946681D01*
X44613059Y64002500D01*
X44326941Y64002500D01*
X44046321Y63946681D01*
X43781983Y63837189D01*
X43544085Y63678230D01*
X43341770Y63475915D01*
X43182811Y63238017D01*
X43073319Y62973679D01*
X43017500Y62693059D01*
X43017500Y62406941D01*
X43073319Y62126321D01*
X43182811Y61861983D01*
X43341770Y61624085D01*
X43390845Y61575010D01*
X42946025Y61575010D01*
X39507888Y65013145D01*
X39472341Y65056459D01*
X39299515Y65198294D01*
X39102339Y65303686D01*
X38888391Y65368587D01*
X38721644Y65385010D01*
X38721643Y65385010D01*
X38665892Y65390501D01*
X38610141Y65385010D01*
X25745762Y65385010D01*
X25690010Y65390501D01*
X25634258Y65385010D01*
X25467511Y65368587D01*
X25253563Y65303686D01*
X25056387Y65198294D01*
X24883561Y65056459D01*
X24848019Y65013151D01*
X15110973Y55276104D01*
X15100000Y55277185D01*
X14808889Y55248513D01*
X14528966Y55163599D01*
X14270986Y55025706D01*
X14044866Y54840134D01*
X13859294Y54614013D01*
X13850000Y54596626D01*
X13840706Y54614014D01*
X13655134Y54840134D01*
X13429013Y55025706D01*
X13171033Y55163599D01*
X12891110Y55248513D01*
X12600000Y55277185D01*
X12308889Y55248513D01*
X12028966Y55163599D01*
X11770986Y55025706D01*
X11544866Y54840134D01*
X11359294Y54614013D01*
X11350000Y54596626D01*
X11340706Y54614014D01*
X11155134Y54840134D01*
X10929013Y55025706D01*
X10671033Y55163599D01*
X10391110Y55248513D01*
X10100000Y55277185D01*
X9808889Y55248513D01*
X9528966Y55163599D01*
X9270986Y55025706D01*
X9044866Y54840134D01*
X8859294Y54614013D01*
X8845538Y54588278D01*
X8689049Y54794429D01*
X8471193Y54987496D01*
X8219858Y55134352D01*
X7956890Y55226476D01*
X7740288Y55112168D01*
X7745492Y55165001D01*
X7740001Y55220753D01*
X7740001Y62529260D01*
X7745491Y62585002D01*
X7740001Y62640744D01*
X7740001Y62640753D01*
X7723578Y62807500D01*
X7658677Y63021448D01*
X7553285Y63218624D01*
X7411450Y63391450D01*
X7368141Y63426993D01*
X6381997Y64413137D01*
X6346450Y64456450D01*
X6173624Y64598285D01*
X5976448Y64703677D01*
X5762500Y64768578D01*
X5595753Y64785001D01*
X5595752Y64785001D01*
X5540001Y64790492D01*
X5484250Y64785001D01*
X3675750Y64785001D01*
X3619999Y64790492D01*
X3564247Y64785001D01*
X3397500Y64768578D01*
X3183552Y64703677D01*
X2986376Y64598285D01*
X2813550Y64456450D01*
X2778003Y64413136D01*
X2316865Y63951998D01*
X2273551Y63916451D01*
X2131716Y63743625D01*
X2042019Y63575812D01*
X2026324Y63546448D01*
X1961423Y63332500D01*
X1939509Y63110002D01*
X660000Y63110002D01*
X660000Y66340000D01*
X98724868Y66340000D01*
X98316860Y65931991D01*
G37*
%TD.AperFunction*%
D22*
X38207000Y38547000D02*
X38227000Y38547000D01*
X38227000Y38293000D01*
X38207000Y38293000D01*
X38207000Y36974845D01*
X38436890Y36853524D01*
X38699858Y36945648D01*
X38951193Y37092504D01*
X39169049Y37285571D01*
X39325538Y37491722D01*
X39339294Y37465986D01*
X39445001Y37337182D01*
X39445000Y31882817D01*
X39339294Y31754013D01*
X39325538Y31728278D01*
X39169049Y31934429D01*
X38951193Y32127496D01*
X38699858Y32274352D01*
X38436890Y32366476D01*
X38207000Y32245155D01*
X38207000Y30927000D01*
X38227000Y30927000D01*
X38227000Y30673000D01*
X38207000Y30673000D01*
X38207000Y29354845D01*
X38436890Y29233524D01*
X38699858Y29325648D01*
X38951193Y29472504D01*
X39169049Y29665571D01*
X39325538Y29871722D01*
X39339294Y29845986D01*
X39445000Y29717183D01*
X39445001Y24262818D01*
X39339294Y24134013D01*
X39325538Y24108278D01*
X39169049Y24314429D01*
X38951193Y24507496D01*
X38699858Y24654352D01*
X38436890Y24746476D01*
X38207000Y24625155D01*
X38207000Y23307000D01*
X38227000Y23307000D01*
X38227000Y23053000D01*
X38207000Y23053000D01*
X38207000Y21734845D01*
X38436890Y21613524D01*
X38699858Y21705648D01*
X38951193Y21852504D01*
X39169049Y22045571D01*
X39325538Y22251722D01*
X39339294Y22225986D01*
X39445000Y22097183D01*
X39445001Y16642818D01*
X39339294Y16514013D01*
X39325538Y16488278D01*
X39169049Y16694429D01*
X38951193Y16887496D01*
X38699858Y17034352D01*
X38436890Y17126476D01*
X38207000Y17005155D01*
X38207000Y15687000D01*
X38227000Y15687000D01*
X38227000Y15433000D01*
X38207000Y15433000D01*
X38207000Y15413000D01*
X37953000Y15413000D01*
X37953000Y15433000D01*
X37933000Y15433000D01*
X37933000Y15687000D01*
X37953000Y15687000D01*
X37953000Y17005155D01*
X37723110Y17126476D01*
X37460142Y17034352D01*
X37208807Y16887496D01*
X36990951Y16694429D01*
X36974714Y16673039D01*
X36918405Y16778386D01*
X36807962Y16912962D01*
X36715000Y16989253D01*
X36715000Y21750747D01*
X36807962Y21827038D01*
X36918405Y21961614D01*
X36974714Y22066961D01*
X36990951Y22045571D01*
X37208807Y21852504D01*
X37460142Y21705648D01*
X37723110Y21613524D01*
X37953000Y21734845D01*
X37953000Y23053000D01*
X37933000Y23053000D01*
X37933000Y23307000D01*
X37953000Y23307000D01*
X37953000Y24625155D01*
X37723110Y24746476D01*
X37460142Y24654352D01*
X37208807Y24507496D01*
X36990951Y24314429D01*
X36974714Y24293039D01*
X36918405Y24398386D01*
X36807962Y24532962D01*
X36715000Y24609253D01*
X36715000Y29370747D01*
X36807962Y29447038D01*
X36918405Y29581614D01*
X36974714Y29686961D01*
X36990951Y29665571D01*
X37208807Y29472504D01*
X37460142Y29325648D01*
X37723110Y29233524D01*
X37953000Y29354845D01*
X37953000Y30673000D01*
X37933000Y30673000D01*
X37933000Y30927000D01*
X37953000Y30927000D01*
X37953000Y32245155D01*
X37723110Y32366476D01*
X37460142Y32274352D01*
X37208807Y32127496D01*
X36990951Y31934429D01*
X36974714Y31913039D01*
X36918405Y32018386D01*
X36807962Y32152962D01*
X36715000Y32229253D01*
X36715000Y36990747D01*
X36807962Y37067038D01*
X36918405Y37201614D01*
X36974714Y37306961D01*
X36990951Y37285571D01*
X37208807Y37092504D01*
X37460142Y36945648D01*
X37723110Y36853524D01*
X37953000Y36974845D01*
X37953000Y38293000D01*
X37933000Y38293000D01*
X37933000Y38547000D01*
X37953000Y38547000D01*
X37953000Y38567000D01*
X38207000Y38567000D01*
X38207000Y38547000D01*
%TA.AperFunction,Conductor*%
D23*
G36*
X38207000Y38547000D02*
G01*
X38227000Y38547000D01*
X38227000Y38293000D01*
X38207000Y38293000D01*
X38207000Y36974845D01*
X38436890Y36853524D01*
X38699858Y36945648D01*
X38951193Y37092504D01*
X39169049Y37285571D01*
X39325538Y37491722D01*
X39339294Y37465986D01*
X39445001Y37337182D01*
X39445000Y31882817D01*
X39339294Y31754013D01*
X39325538Y31728278D01*
X39169049Y31934429D01*
X38951193Y32127496D01*
X38699858Y32274352D01*
X38436890Y32366476D01*
X38207000Y32245155D01*
X38207000Y30927000D01*
X38227000Y30927000D01*
X38227000Y30673000D01*
X38207000Y30673000D01*
X38207000Y29354845D01*
X38436890Y29233524D01*
X38699858Y29325648D01*
X38951193Y29472504D01*
X39169049Y29665571D01*
X39325538Y29871722D01*
X39339294Y29845986D01*
X39445000Y29717183D01*
X39445001Y24262818D01*
X39339294Y24134013D01*
X39325538Y24108278D01*
X39169049Y24314429D01*
X38951193Y24507496D01*
X38699858Y24654352D01*
X38436890Y24746476D01*
X38207000Y24625155D01*
X38207000Y23307000D01*
X38227000Y23307000D01*
X38227000Y23053000D01*
X38207000Y23053000D01*
X38207000Y21734845D01*
X38436890Y21613524D01*
X38699858Y21705648D01*
X38951193Y21852504D01*
X39169049Y22045571D01*
X39325538Y22251722D01*
X39339294Y22225986D01*
X39445000Y22097183D01*
X39445001Y16642818D01*
X39339294Y16514013D01*
X39325538Y16488278D01*
X39169049Y16694429D01*
X38951193Y16887496D01*
X38699858Y17034352D01*
X38436890Y17126476D01*
X38207000Y17005155D01*
X38207000Y15687000D01*
X38227000Y15687000D01*
X38227000Y15433000D01*
X38207000Y15433000D01*
X38207000Y15413000D01*
X37953000Y15413000D01*
X37953000Y15433000D01*
X37933000Y15433000D01*
X37933000Y15687000D01*
X37953000Y15687000D01*
X37953000Y17005155D01*
X37723110Y17126476D01*
X37460142Y17034352D01*
X37208807Y16887496D01*
X36990951Y16694429D01*
X36974714Y16673039D01*
X36918405Y16778386D01*
X36807962Y16912962D01*
X36715000Y16989253D01*
X36715000Y21750747D01*
X36807962Y21827038D01*
X36918405Y21961614D01*
X36974714Y22066961D01*
X36990951Y22045571D01*
X37208807Y21852504D01*
X37460142Y21705648D01*
X37723110Y21613524D01*
X37953000Y21734845D01*
X37953000Y23053000D01*
X37933000Y23053000D01*
X37933000Y23307000D01*
X37953000Y23307000D01*
X37953000Y24625155D01*
X37723110Y24746476D01*
X37460142Y24654352D01*
X37208807Y24507496D01*
X36990951Y24314429D01*
X36974714Y24293039D01*
X36918405Y24398386D01*
X36807962Y24532962D01*
X36715000Y24609253D01*
X36715000Y29370747D01*
X36807962Y29447038D01*
X36918405Y29581614D01*
X36974714Y29686961D01*
X36990951Y29665571D01*
X37208807Y29472504D01*
X37460142Y29325648D01*
X37723110Y29233524D01*
X37953000Y29354845D01*
X37953000Y30673000D01*
X37933000Y30673000D01*
X37933000Y30927000D01*
X37953000Y30927000D01*
X37953000Y32245155D01*
X37723110Y32366476D01*
X37460142Y32274352D01*
X37208807Y32127496D01*
X36990951Y31934429D01*
X36974714Y31913039D01*
X36918405Y32018386D01*
X36807962Y32152962D01*
X36715000Y32229253D01*
X36715000Y36990747D01*
X36807962Y37067038D01*
X36918405Y37201614D01*
X36974714Y37306961D01*
X36990951Y37285571D01*
X37208807Y37092504D01*
X37460142Y36945648D01*
X37723110Y36853524D01*
X37953000Y36974845D01*
X37953000Y38293000D01*
X37933000Y38293000D01*
X37933000Y38547000D01*
X37953000Y38547000D01*
X37953000Y38567000D01*
X38207000Y38567000D01*
X38207000Y38547000D01*
G37*
%TD.AperFunction*%
D22*
X31428657Y62870516D02*
X31405000Y62630322D01*
X31405000Y61474200D01*
X31397089Y61393881D01*
X31405000Y61313562D01*
X31405000Y61313560D01*
X31428657Y61073366D01*
X31522148Y60765167D01*
X31673969Y60481130D01*
X31878286Y60232167D01*
X31940686Y60180957D01*
X34480965Y57640676D01*
X34532167Y57578286D01*
X34781129Y57373969D01*
X35057883Y57226041D01*
X35065166Y57222148D01*
X35373364Y57128657D01*
X35693881Y57097088D01*
X35774211Y57105000D01*
X41759769Y57105000D01*
X41658296Y57021724D01*
X41607090Y56959328D01*
X39490710Y54842948D01*
X39458405Y54903386D01*
X39347962Y55037962D01*
X39213386Y55148405D01*
X39059850Y55230472D01*
X38893254Y55281008D01*
X38720000Y55298072D01*
X38169131Y55298072D01*
X38120000Y55302911D01*
X38070869Y55298072D01*
X37520000Y55298072D01*
X37346746Y55281008D01*
X37180150Y55230472D01*
X37026614Y55148405D01*
X36892038Y55037962D01*
X36781595Y54903386D01*
X36699528Y54749850D01*
X36648992Y54583254D01*
X36631928Y54410000D01*
X36631928Y54344428D01*
X36602148Y54288714D01*
X36508657Y53980515D01*
X36485000Y53740321D01*
X36485000Y52740319D01*
X36477089Y52660000D01*
X36485000Y52579681D01*
X36485000Y52579678D01*
X36508657Y52339484D01*
X36602148Y52031285D01*
X36753970Y51747248D01*
X36958287Y51498286D01*
X37020682Y51447080D01*
X38107089Y50360672D01*
X38158296Y50298276D01*
X38407258Y50093959D01*
X38691295Y49942138D01*
X38999494Y49848647D01*
X39239688Y49824990D01*
X39239690Y49824990D01*
X39320009Y49817079D01*
X39400329Y49824990D01*
X45999671Y49824990D01*
X46079990Y49817079D01*
X46160309Y49824990D01*
X46160312Y49824990D01*
X46400506Y49848647D01*
X46708705Y49942138D01*
X46992742Y50093959D01*
X47241704Y50298276D01*
X47292915Y50360677D01*
X48962270Y52030031D01*
X49053254Y52038992D01*
X49219850Y52089528D01*
X49373386Y52171595D01*
X49507962Y52282038D01*
X49618405Y52416614D01*
X49648713Y52473316D01*
X49867248Y52293969D01*
X50151285Y52142148D01*
X50459484Y52048657D01*
X50699678Y52025000D01*
X50780000Y52017089D01*
X50860322Y52025000D01*
X51412762Y52025000D01*
X54800676Y48637084D01*
X54987247Y48483970D01*
X55060154Y48445000D01*
X48335741Y48445000D01*
X48279999Y48450490D01*
X48224257Y48445000D01*
X48224248Y48445000D01*
X48057501Y48428577D01*
X47843553Y48363676D01*
X47646377Y48258284D01*
X47473551Y48116449D01*
X47438011Y48073143D01*
X44322055Y44957187D01*
X44318577Y44992499D01*
X44253676Y45206447D01*
X44148284Y45403623D01*
X44006449Y45576449D01*
X43833623Y45718284D01*
X43636447Y45823676D01*
X43422499Y45888577D01*
X43255752Y45905000D01*
X37871460Y45905000D01*
X38074785Y45989220D01*
X38446417Y46237536D01*
X38762464Y46553583D01*
X39010780Y46925215D01*
X39181824Y47338151D01*
X39269021Y47776521D01*
X39269021Y48223479D01*
X39181824Y48661849D01*
X39010780Y49074785D01*
X38762464Y49446417D01*
X38446417Y49762464D01*
X38074785Y50010780D01*
X37661849Y50181824D01*
X37223479Y50269021D01*
X36776521Y50269021D01*
X36338151Y50181824D01*
X35925215Y50010780D01*
X35553583Y49762464D01*
X35237536Y49446417D01*
X34989220Y49074785D01*
X34818176Y48661849D01*
X34730979Y48223479D01*
X34730979Y47776521D01*
X34818176Y47338151D01*
X34989220Y46925215D01*
X35237536Y46553583D01*
X35553583Y46237536D01*
X35925215Y45989220D01*
X36128540Y45905000D01*
X21960133Y45905000D01*
X15695600Y52169532D01*
X15929014Y52294294D01*
X16155134Y52479866D01*
X16340706Y52705986D01*
X16478599Y52963967D01*
X16563513Y53243890D01*
X16585000Y53462051D01*
X16585000Y53539869D01*
X17430131Y54385000D01*
X21391928Y54385000D01*
X21391928Y52935000D01*
X21408992Y52761746D01*
X21459528Y52595150D01*
X21541595Y52441614D01*
X21652038Y52307038D01*
X21786614Y52196595D01*
X21940150Y52114528D01*
X22106746Y52063992D01*
X22280000Y52046928D01*
X23480000Y52046928D01*
X23653254Y52063992D01*
X23819850Y52114528D01*
X23973386Y52196595D01*
X24107962Y52307038D01*
X24218405Y52441614D01*
X24272777Y52543337D01*
X24324866Y52479866D01*
X24550987Y52294294D01*
X24808967Y52156401D01*
X25088890Y52071487D01*
X25380000Y52042815D01*
X25671111Y52071487D01*
X25951034Y52156401D01*
X26209014Y52294294D01*
X26435134Y52479866D01*
X26620706Y52705986D01*
X26630000Y52723374D01*
X26639294Y52705986D01*
X26824866Y52479866D01*
X27050987Y52294294D01*
X27308967Y52156401D01*
X27588890Y52071487D01*
X27880000Y52042815D01*
X28171111Y52071487D01*
X28451034Y52156401D01*
X28709014Y52294294D01*
X28935134Y52479866D01*
X29120706Y52705986D01*
X29130000Y52723374D01*
X29139294Y52705986D01*
X29324866Y52479866D01*
X29550987Y52294294D01*
X29808967Y52156401D01*
X30088890Y52071487D01*
X30380000Y52042815D01*
X30671111Y52071487D01*
X30951034Y52156401D01*
X31209014Y52294294D01*
X31435134Y52479866D01*
X31620706Y52705986D01*
X31758599Y52963967D01*
X31843513Y53243890D01*
X31865000Y53462051D01*
X31865000Y53857950D01*
X31843513Y54076111D01*
X31758599Y54356034D01*
X31620706Y54614014D01*
X31435134Y54840134D01*
X31209013Y55025706D01*
X30951033Y55163599D01*
X30671110Y55248513D01*
X30380000Y55277185D01*
X30088889Y55248513D01*
X29808966Y55163599D01*
X29550986Y55025706D01*
X29324866Y54840134D01*
X29139294Y54614013D01*
X29130000Y54596626D01*
X29120706Y54614014D01*
X28935134Y54840134D01*
X28709013Y55025706D01*
X28451033Y55163599D01*
X28171110Y55248513D01*
X27880000Y55277185D01*
X27588889Y55248513D01*
X27308966Y55163599D01*
X27050986Y55025706D01*
X26824866Y54840134D01*
X26639294Y54614013D01*
X26630000Y54596626D01*
X26620706Y54614014D01*
X26435134Y54840134D01*
X26209013Y55025706D01*
X25951033Y55163599D01*
X25671110Y55248513D01*
X25380000Y55277185D01*
X25088889Y55248513D01*
X24808966Y55163599D01*
X24550986Y55025706D01*
X24324866Y54840134D01*
X24272777Y54776663D01*
X24218405Y54878386D01*
X24107962Y55012962D01*
X23973386Y55123405D01*
X23819850Y55205472D01*
X23653254Y55256008D01*
X23480000Y55273072D01*
X22280000Y55273072D01*
X22106746Y55256008D01*
X21940150Y55205472D01*
X21786614Y55123405D01*
X21652038Y55012962D01*
X21541595Y54878386D01*
X21459528Y54724850D01*
X21408992Y54558254D01*
X21391928Y54385000D01*
X17430131Y54385000D01*
X26160142Y63115010D01*
X31502823Y63115010D01*
X31428657Y62870516D01*
%TA.AperFunction,Conductor*%
D23*
G36*
X31428657Y62870516D02*
G01*
X31405000Y62630322D01*
X31405000Y61474200D01*
X31397089Y61393881D01*
X31405000Y61313562D01*
X31405000Y61313560D01*
X31428657Y61073366D01*
X31522148Y60765167D01*
X31673969Y60481130D01*
X31878286Y60232167D01*
X31940686Y60180957D01*
X34480965Y57640676D01*
X34532167Y57578286D01*
X34781129Y57373969D01*
X35057883Y57226041D01*
X35065166Y57222148D01*
X35373364Y57128657D01*
X35693881Y57097088D01*
X35774211Y57105000D01*
X41759769Y57105000D01*
X41658296Y57021724D01*
X41607090Y56959328D01*
X39490710Y54842948D01*
X39458405Y54903386D01*
X39347962Y55037962D01*
X39213386Y55148405D01*
X39059850Y55230472D01*
X38893254Y55281008D01*
X38720000Y55298072D01*
X38169131Y55298072D01*
X38120000Y55302911D01*
X38070869Y55298072D01*
X37520000Y55298072D01*
X37346746Y55281008D01*
X37180150Y55230472D01*
X37026614Y55148405D01*
X36892038Y55037962D01*
X36781595Y54903386D01*
X36699528Y54749850D01*
X36648992Y54583254D01*
X36631928Y54410000D01*
X36631928Y54344428D01*
X36602148Y54288714D01*
X36508657Y53980515D01*
X36485000Y53740321D01*
X36485000Y52740319D01*
X36477089Y52660000D01*
X36485000Y52579681D01*
X36485000Y52579678D01*
X36508657Y52339484D01*
X36602148Y52031285D01*
X36753970Y51747248D01*
X36958287Y51498286D01*
X37020682Y51447080D01*
X38107089Y50360672D01*
X38158296Y50298276D01*
X38407258Y50093959D01*
X38691295Y49942138D01*
X38999494Y49848647D01*
X39239688Y49824990D01*
X39239690Y49824990D01*
X39320009Y49817079D01*
X39400329Y49824990D01*
X45999671Y49824990D01*
X46079990Y49817079D01*
X46160309Y49824990D01*
X46160312Y49824990D01*
X46400506Y49848647D01*
X46708705Y49942138D01*
X46992742Y50093959D01*
X47241704Y50298276D01*
X47292915Y50360677D01*
X48962270Y52030031D01*
X49053254Y52038992D01*
X49219850Y52089528D01*
X49373386Y52171595D01*
X49507962Y52282038D01*
X49618405Y52416614D01*
X49648713Y52473316D01*
X49867248Y52293969D01*
X50151285Y52142148D01*
X50459484Y52048657D01*
X50699678Y52025000D01*
X50780000Y52017089D01*
X50860322Y52025000D01*
X51412762Y52025000D01*
X54800676Y48637084D01*
X54987247Y48483970D01*
X55060154Y48445000D01*
X48335741Y48445000D01*
X48279999Y48450490D01*
X48224257Y48445000D01*
X48224248Y48445000D01*
X48057501Y48428577D01*
X47843553Y48363676D01*
X47646377Y48258284D01*
X47473551Y48116449D01*
X47438011Y48073143D01*
X44322055Y44957187D01*
X44318577Y44992499D01*
X44253676Y45206447D01*
X44148284Y45403623D01*
X44006449Y45576449D01*
X43833623Y45718284D01*
X43636447Y45823676D01*
X43422499Y45888577D01*
X43255752Y45905000D01*
X37871460Y45905000D01*
X38074785Y45989220D01*
X38446417Y46237536D01*
X38762464Y46553583D01*
X39010780Y46925215D01*
X39181824Y47338151D01*
X39269021Y47776521D01*
X39269021Y48223479D01*
X39181824Y48661849D01*
X39010780Y49074785D01*
X38762464Y49446417D01*
X38446417Y49762464D01*
X38074785Y50010780D01*
X37661849Y50181824D01*
X37223479Y50269021D01*
X36776521Y50269021D01*
X36338151Y50181824D01*
X35925215Y50010780D01*
X35553583Y49762464D01*
X35237536Y49446417D01*
X34989220Y49074785D01*
X34818176Y48661849D01*
X34730979Y48223479D01*
X34730979Y47776521D01*
X34818176Y47338151D01*
X34989220Y46925215D01*
X35237536Y46553583D01*
X35553583Y46237536D01*
X35925215Y45989220D01*
X36128540Y45905000D01*
X21960133Y45905000D01*
X15695600Y52169532D01*
X15929014Y52294294D01*
X16155134Y52479866D01*
X16340706Y52705986D01*
X16478599Y52963967D01*
X16563513Y53243890D01*
X16585000Y53462051D01*
X16585000Y53539869D01*
X17430131Y54385000D01*
X21391928Y54385000D01*
X21391928Y52935000D01*
X21408992Y52761746D01*
X21459528Y52595150D01*
X21541595Y52441614D01*
X21652038Y52307038D01*
X21786614Y52196595D01*
X21940150Y52114528D01*
X22106746Y52063992D01*
X22280000Y52046928D01*
X23480000Y52046928D01*
X23653254Y52063992D01*
X23819850Y52114528D01*
X23973386Y52196595D01*
X24107962Y52307038D01*
X24218405Y52441614D01*
X24272777Y52543337D01*
X24324866Y52479866D01*
X24550987Y52294294D01*
X24808967Y52156401D01*
X25088890Y52071487D01*
X25380000Y52042815D01*
X25671111Y52071487D01*
X25951034Y52156401D01*
X26209014Y52294294D01*
X26435134Y52479866D01*
X26620706Y52705986D01*
X26630000Y52723374D01*
X26639294Y52705986D01*
X26824866Y52479866D01*
X27050987Y52294294D01*
X27308967Y52156401D01*
X27588890Y52071487D01*
X27880000Y52042815D01*
X28171111Y52071487D01*
X28451034Y52156401D01*
X28709014Y52294294D01*
X28935134Y52479866D01*
X29120706Y52705986D01*
X29130000Y52723374D01*
X29139294Y52705986D01*
X29324866Y52479866D01*
X29550987Y52294294D01*
X29808967Y52156401D01*
X30088890Y52071487D01*
X30380000Y52042815D01*
X30671111Y52071487D01*
X30951034Y52156401D01*
X31209014Y52294294D01*
X31435134Y52479866D01*
X31620706Y52705986D01*
X31758599Y52963967D01*
X31843513Y53243890D01*
X31865000Y53462051D01*
X31865000Y53857950D01*
X31843513Y54076111D01*
X31758599Y54356034D01*
X31620706Y54614014D01*
X31435134Y54840134D01*
X31209013Y55025706D01*
X30951033Y55163599D01*
X30671110Y55248513D01*
X30380000Y55277185D01*
X30088889Y55248513D01*
X29808966Y55163599D01*
X29550986Y55025706D01*
X29324866Y54840134D01*
X29139294Y54614013D01*
X29130000Y54596626D01*
X29120706Y54614014D01*
X28935134Y54840134D01*
X28709013Y55025706D01*
X28451033Y55163599D01*
X28171110Y55248513D01*
X27880000Y55277185D01*
X27588889Y55248513D01*
X27308966Y55163599D01*
X27050986Y55025706D01*
X26824866Y54840134D01*
X26639294Y54614013D01*
X26630000Y54596626D01*
X26620706Y54614014D01*
X26435134Y54840134D01*
X26209013Y55025706D01*
X25951033Y55163599D01*
X25671110Y55248513D01*
X25380000Y55277185D01*
X25088889Y55248513D01*
X24808966Y55163599D01*
X24550986Y55025706D01*
X24324866Y54840134D01*
X24272777Y54776663D01*
X24218405Y54878386D01*
X24107962Y55012962D01*
X23973386Y55123405D01*
X23819850Y55205472D01*
X23653254Y55256008D01*
X23480000Y55273072D01*
X22280000Y55273072D01*
X22106746Y55256008D01*
X21940150Y55205472D01*
X21786614Y55123405D01*
X21652038Y55012962D01*
X21541595Y54878386D01*
X21459528Y54724850D01*
X21408992Y54558254D01*
X21391928Y54385000D01*
X17430131Y54385000D01*
X26160142Y63115010D01*
X31502823Y63115010D01*
X31428657Y62870516D01*
G37*
%TD.AperFunction*%
D22*
X109340000Y62066704D02*
X109303676Y62186447D01*
X109198284Y62383623D01*
X109107495Y62494249D01*
X109056449Y62556449D01*
X109013140Y62591992D01*
X108451934Y63153197D01*
X108439502Y63194180D01*
X108380537Y63304494D01*
X108301185Y63401185D01*
X108204494Y63480537D01*
X108094180Y63539502D01*
X107974482Y63575812D01*
X107930465Y63580147D01*
X107886446Y63603676D01*
X107672498Y63668577D01*
X107450000Y63690491D01*
X107227502Y63668577D01*
X107013554Y63603676D01*
X106969535Y63580147D01*
X106925518Y63575812D01*
X106805820Y63539502D01*
X106700000Y63482939D01*
X106594180Y63539502D01*
X106553198Y63551934D01*
X103765131Y66340000D01*
X109340000Y66340000D01*
X109340000Y62066704D01*
%TA.AperFunction,Conductor*%
D23*
G36*
X109340000Y62066704D02*
G01*
X109303676Y62186447D01*
X109198284Y62383623D01*
X109107495Y62494249D01*
X109056449Y62556449D01*
X109013140Y62591992D01*
X108451934Y63153197D01*
X108439502Y63194180D01*
X108380537Y63304494D01*
X108301185Y63401185D01*
X108204494Y63480537D01*
X108094180Y63539502D01*
X107974482Y63575812D01*
X107930465Y63580147D01*
X107886446Y63603676D01*
X107672498Y63668577D01*
X107450000Y63690491D01*
X107227502Y63668577D01*
X107013554Y63603676D01*
X106969535Y63580147D01*
X106925518Y63575812D01*
X106805820Y63539502D01*
X106700000Y63482939D01*
X106594180Y63539502D01*
X106553198Y63551934D01*
X103765131Y66340000D01*
X109340000Y66340000D01*
X109340000Y62066704D01*
G37*
%TD.AperFunction*%
%TD*%
M02*
