%TF.GenerationSoftware,KiCad,Pcbnew,(5.1.8)-1*%
%TF.CreationDate,2021-03-06T21:29:21+09:00*%
%TF.ProjectId,sub_bord,7375625f-626f-4726-942e-6b696361645f,rev?*%
%TF.SameCoordinates,PX9896800PY660b0c0*%
%TF.FileFunction,Copper,L1,Top*%
%TF.FilePolarity,Positive*%
%FSLAX46Y46*%
G04 Gerber Fmt 4.6, Leading zero omitted, Abs format (unit mm)*
G04 Created by KiCad (PCBNEW (5.1.8)-1) date 2021-03-06 21:29:21*
%MOMM*%
%LPD*%
G01*
G04 APERTURE LIST*
%TA.AperFunction,ComponentPad*%
%ADD10O,1.700000X1.950000*%
%TD*%
%TA.AperFunction,ComponentPad*%
%ADD11O,1.700000X2.000000*%
%TD*%
%TA.AperFunction,ComponentPad*%
%ADD12O,2.000000X1.700000*%
%TD*%
%TA.AperFunction,SMDPad,CuDef*%
%ADD13R,1.050000X1.800000*%
%TD*%
%TA.AperFunction,ComponentPad*%
%ADD14C,1.800000*%
%TD*%
%TA.AperFunction,ComponentPad*%
%ADD15C,1.300000*%
%TD*%
%TA.AperFunction,ComponentPad*%
%ADD16C,1.635000*%
%TD*%
%TA.AperFunction,ComponentPad*%
%ADD17C,1.700000*%
%TD*%
%TA.AperFunction,ViaPad*%
%ADD18C,0.800000*%
%TD*%
%TA.AperFunction,Conductor*%
%ADD19C,1.000000*%
%TD*%
%TA.AperFunction,Conductor*%
%ADD20C,2.000000*%
%TD*%
%TA.AperFunction,Conductor*%
%ADD21C,0.254000*%
%TD*%
%TA.AperFunction,Conductor*%
%ADD22C,0.100000*%
%TD*%
G04 APERTURE END LIST*
%TO.P,J2,1*%
%TO.N,Net-(J2-Pad1)*%
%TA.AperFunction,ComponentPad*%
G36*
G01*
X22030000Y52935000D02*
X22030000Y54385000D01*
G75*
G02*
X22280000Y54635000I250000J0D01*
G01*
X23480000Y54635000D01*
G75*
G02*
X23730000Y54385000I0J-250000D01*
G01*
X23730000Y52935000D01*
G75*
G02*
X23480000Y52685000I-250000J0D01*
G01*
X22280000Y52685000D01*
G75*
G02*
X22030000Y52935000I0J250000D01*
G01*
G37*
%TD.AperFunction*%
D10*
%TO.P,J2,2*%
%TO.N,Net-(J2-Pad2)*%
X25380000Y53660000D03*
%TO.P,J2,3*%
%TO.N,Net-(J2-Pad3)*%
X27880000Y53660000D03*
%TO.P,J2,4*%
%TO.N,Net-(J2-Pad4)*%
X30380000Y53660000D03*
%TD*%
%TO.P,J3,6*%
%TO.N,N/C*%
X48080000Y15560000D03*
%TO.P,J3,5*%
%TO.N,Net-(J2-Pad1)*%
X45580000Y15560000D03*
%TO.P,J3,4*%
%TO.N,Net-(J1-Pad4)*%
X43080000Y15560000D03*
%TO.P,J3,3*%
%TO.N,Net-(J1-Pad3)*%
X40580000Y15560000D03*
%TO.P,J3,2*%
%TO.N,Net-(J1-Pad2)*%
X38080000Y15560000D03*
%TO.P,J3,1*%
%TO.N,Net-(J1-Pad1)*%
%TA.AperFunction,ComponentPad*%
G36*
G01*
X34730000Y14835000D02*
X34730000Y16285000D01*
G75*
G02*
X34980000Y16535000I250000J0D01*
G01*
X36180000Y16535000D01*
G75*
G02*
X36430000Y16285000I0J-250000D01*
G01*
X36430000Y14835000D01*
G75*
G02*
X36180000Y14585000I-250000J0D01*
G01*
X34980000Y14585000D01*
G75*
G02*
X34730000Y14835000I0J250000D01*
G01*
G37*
%TD.AperFunction*%
%TD*%
%TO.P,J4,1*%
%TO.N,Net-(J1-Pad1)*%
%TA.AperFunction,ComponentPad*%
G36*
G01*
X34730000Y22455000D02*
X34730000Y23905000D01*
G75*
G02*
X34980000Y24155000I250000J0D01*
G01*
X36180000Y24155000D01*
G75*
G02*
X36430000Y23905000I0J-250000D01*
G01*
X36430000Y22455000D01*
G75*
G02*
X36180000Y22205000I-250000J0D01*
G01*
X34980000Y22205000D01*
G75*
G02*
X34730000Y22455000I0J250000D01*
G01*
G37*
%TD.AperFunction*%
%TO.P,J4,2*%
%TO.N,Net-(J1-Pad2)*%
X38080000Y23180000D03*
%TO.P,J4,3*%
%TO.N,Net-(J1-Pad3)*%
X40580000Y23180000D03*
%TO.P,J4,4*%
%TO.N,Net-(J1-Pad4)*%
X43080000Y23180000D03*
%TO.P,J4,5*%
%TO.N,Net-(J2-Pad2)*%
X45580000Y23180000D03*
%TO.P,J4,6*%
%TO.N,N/C*%
X48080000Y23180000D03*
%TD*%
%TO.P,J5,6*%
%TO.N,N/C*%
X48080000Y30800000D03*
%TO.P,J5,5*%
%TO.N,Net-(J2-Pad3)*%
X45580000Y30800000D03*
%TO.P,J5,4*%
%TO.N,Net-(J1-Pad4)*%
X43080000Y30800000D03*
%TO.P,J5,3*%
%TO.N,Net-(J1-Pad3)*%
X40580000Y30800000D03*
%TO.P,J5,2*%
%TO.N,Net-(J1-Pad2)*%
X38080000Y30800000D03*
%TO.P,J5,1*%
%TO.N,Net-(J1-Pad1)*%
%TA.AperFunction,ComponentPad*%
G36*
G01*
X34730000Y30075000D02*
X34730000Y31525000D01*
G75*
G02*
X34980000Y31775000I250000J0D01*
G01*
X36180000Y31775000D01*
G75*
G02*
X36430000Y31525000I0J-250000D01*
G01*
X36430000Y30075000D01*
G75*
G02*
X36180000Y29825000I-250000J0D01*
G01*
X34980000Y29825000D01*
G75*
G02*
X34730000Y30075000I0J250000D01*
G01*
G37*
%TD.AperFunction*%
%TD*%
%TO.P,J6,1*%
%TO.N,Net-(J1-Pad1)*%
%TA.AperFunction,ComponentPad*%
G36*
G01*
X34730000Y37695000D02*
X34730000Y39145000D01*
G75*
G02*
X34980000Y39395000I250000J0D01*
G01*
X36180000Y39395000D01*
G75*
G02*
X36430000Y39145000I0J-250000D01*
G01*
X36430000Y37695000D01*
G75*
G02*
X36180000Y37445000I-250000J0D01*
G01*
X34980000Y37445000D01*
G75*
G02*
X34730000Y37695000I0J250000D01*
G01*
G37*
%TD.AperFunction*%
%TO.P,J6,2*%
%TO.N,Net-(J1-Pad2)*%
X38080000Y38420000D03*
%TO.P,J6,3*%
%TO.N,Net-(J1-Pad3)*%
X40580000Y38420000D03*
%TO.P,J6,4*%
%TO.N,Net-(J1-Pad4)*%
X43080000Y38420000D03*
%TO.P,J6,5*%
%TO.N,Net-(J2-Pad4)*%
X45580000Y38420000D03*
%TO.P,J6,6*%
%TO.N,N/C*%
X48080000Y38420000D03*
%TD*%
%TO.P,J7,1*%
%TO.N,Net-(J11-Pad1)*%
%TA.AperFunction,ComponentPad*%
G36*
G01*
X37270000Y52910000D02*
X37270000Y54410000D01*
G75*
G02*
X37520000Y54660000I250000J0D01*
G01*
X38720000Y54660000D01*
G75*
G02*
X38970000Y54410000I0J-250000D01*
G01*
X38970000Y52910000D01*
G75*
G02*
X38720000Y52660000I-250000J0D01*
G01*
X37520000Y52660000D01*
G75*
G02*
X37270000Y52910000I0J250000D01*
G01*
G37*
%TD.AperFunction*%
D11*
%TO.P,J7,2*%
%TO.N,Net-(J11-Pad2)*%
X40620000Y53660000D03*
%TD*%
%TO.P,J8,2*%
%TO.N,Net-(J11-Pad2)*%
X17760000Y5400000D03*
%TO.P,J8,1*%
%TO.N,Net-(J8-Pad1)*%
%TA.AperFunction,ComponentPad*%
G36*
G01*
X14410000Y4650000D02*
X14410000Y6150000D01*
G75*
G02*
X14660000Y6400000I250000J0D01*
G01*
X15860000Y6400000D01*
G75*
G02*
X16110000Y6150000I0J-250000D01*
G01*
X16110000Y4650000D01*
G75*
G02*
X15860000Y4400000I-250000J0D01*
G01*
X14660000Y4400000D01*
G75*
G02*
X14410000Y4650000I0J250000D01*
G01*
G37*
%TD.AperFunction*%
%TD*%
%TO.P,J9,1*%
%TO.N,Net-(J9-Pad1)*%
%TA.AperFunction,ComponentPad*%
G36*
G01*
X24570000Y4650000D02*
X24570000Y6150000D01*
G75*
G02*
X24820000Y6400000I250000J0D01*
G01*
X26020000Y6400000D01*
G75*
G02*
X26270000Y6150000I0J-250000D01*
G01*
X26270000Y4650000D01*
G75*
G02*
X26020000Y4400000I-250000J0D01*
G01*
X24820000Y4400000D01*
G75*
G02*
X24570000Y4650000I0J250000D01*
G01*
G37*
%TD.AperFunction*%
%TO.P,J9,2*%
%TO.N,Net-(J11-Pad2)*%
X27920000Y5400000D03*
%TD*%
D12*
%TO.P,J10,2*%
%TO.N,Net-(J10-Pad2)*%
X5100000Y38460000D03*
%TO.P,J10,1*%
%TO.N,Net-(J10-Pad1)*%
%TA.AperFunction,ComponentPad*%
G36*
G01*
X4350000Y41810000D02*
X5850000Y41810000D01*
G75*
G02*
X6100000Y41560000I0J-250000D01*
G01*
X6100000Y40360000D01*
G75*
G02*
X5850000Y40110000I-250000J0D01*
G01*
X4350000Y40110000D01*
G75*
G02*
X4100000Y40360000I0J250000D01*
G01*
X4100000Y41560000D01*
G75*
G02*
X4350000Y41810000I250000J0D01*
G01*
G37*
%TD.AperFunction*%
%TD*%
%TO.P,J11,1*%
%TO.N,Net-(J11-Pad1)*%
%TA.AperFunction,ComponentPad*%
G36*
G01*
X47430000Y52910000D02*
X47430000Y54410000D01*
G75*
G02*
X47680000Y54660000I250000J0D01*
G01*
X48880000Y54660000D01*
G75*
G02*
X49130000Y54410000I0J-250000D01*
G01*
X49130000Y52910000D01*
G75*
G02*
X48880000Y52660000I-250000J0D01*
G01*
X47680000Y52660000D01*
G75*
G02*
X47430000Y52910000I0J250000D01*
G01*
G37*
%TD.AperFunction*%
D11*
%TO.P,J11,2*%
%TO.N,Net-(J11-Pad2)*%
X50780000Y53660000D03*
%TD*%
D13*
%TO.P,R1,2*%
%TO.N,Net-(J10-Pad1)*%
X11730000Y13020000D03*
%TO.P,R1,1*%
%TO.N,Net-(J1-Pad1)*%
X8630000Y13020000D03*
%TD*%
%TO.P,R2,1*%
%TO.N,Net-(J10-Pad2)*%
X11730000Y30800000D03*
%TO.P,R2,2*%
%TO.N,Net-(J1-Pad1)*%
X8630000Y30800000D03*
%TD*%
D14*
%TO.P,S1,1*%
%TO.N,Net-(J10-Pad1)*%
X15895000Y16195000D03*
%TO.P,S1,2*%
%TO.N,N/C*%
X28395000Y16195000D03*
%TO.P,S1,3*%
X15895000Y21195000D03*
%TO.P,S1,4*%
%TO.N,Net-(J1-Pad2)*%
X28395000Y21195000D03*
D15*
%TO.P,S1,MH1*%
%TO.N,N/C*%
X18335000Y13615000D03*
%TO.P,S1,MH2*%
X25955000Y23775000D03*
%TD*%
%TO.P,S2,MH2*%
%TO.N,N/C*%
X25955000Y41555000D03*
%TO.P,S2,MH1*%
X18335000Y31395000D03*
D14*
%TO.P,S2,4*%
%TO.N,Net-(J1-Pad2)*%
X28395000Y38975000D03*
%TO.P,S2,3*%
%TO.N,N/C*%
X15895000Y38975000D03*
%TO.P,S2,2*%
X28395000Y33975000D03*
%TO.P,S2,1*%
%TO.N,Net-(J10-Pad2)*%
X15895000Y33975000D03*
%TD*%
D16*
%TO.P,S3,3*%
%TO.N,N/C*%
X38120000Y62550000D03*
%TO.P,S3,2*%
%TO.N,Net-(J11-Pad1)*%
X35580000Y62550000D03*
%TO.P,S3,1*%
%TO.N,Net-(J8-Pad1)*%
X33040000Y62550000D03*
%TD*%
%TO.P,S4,1*%
%TO.N,Net-(J9-Pad1)*%
X44470000Y62550000D03*
%TO.P,S4,2*%
%TO.N,Net-(J11-Pad1)*%
X47010000Y62550000D03*
%TO.P,S4,3*%
%TO.N,N/C*%
X49550000Y62550000D03*
%TD*%
D17*
%TO.P,U1,1*%
%TO.N,Net-(J1-Pad2)*%
X97125000Y50990000D03*
%TO.P,U1,2*%
X94585000Y50990000D03*
%TO.P,U1,3*%
X92045000Y50990000D03*
%TO.P,U1,4*%
%TO.N,N/C*%
X89505000Y50990000D03*
%TO.P,U1,5*%
X86965000Y50990000D03*
%TO.P,U1,6*%
X84425000Y50990000D03*
%TO.P,U1,7*%
X81885000Y50990000D03*
%TO.P,U1,8*%
X79345000Y50990000D03*
%TO.P,U1,9*%
%TO.N,Net-(J1-Pad3)*%
X76805000Y50990000D03*
%TO.P,U1,10*%
%TO.N,Net-(J1-Pad5)*%
X74265000Y50990000D03*
%TO.P,U1,11*%
%TO.N,N/C*%
X71725000Y50990000D03*
%TO.P,U1,12*%
X69185000Y50990000D03*
%TO.P,U1,13*%
X66645000Y50990000D03*
%TO.P,U1,14*%
X64105000Y50990000D03*
%TO.P,U1,15*%
X61565000Y50990000D03*
%TO.P,U1,16*%
X97125000Y48450000D03*
%TO.P,U1,17*%
X94585000Y48450000D03*
%TO.P,U1,18*%
X92045000Y48450000D03*
%TO.P,U1,19*%
X89505000Y48450000D03*
%TO.P,U1,20*%
X86965000Y48450000D03*
%TO.P,U1,21*%
X84425000Y48450000D03*
%TO.P,U1,22*%
X81885000Y48450000D03*
%TO.P,U1,23*%
X79345000Y48450000D03*
%TO.P,U1,24*%
%TO.N,Net-(J1-Pad4)*%
X76805000Y48450000D03*
%TO.P,U1,25*%
%TO.N,N/C*%
X74265000Y48450000D03*
%TO.P,U1,26*%
X71725000Y48450000D03*
%TO.P,U1,27*%
X69185000Y48450000D03*
%TO.P,U1,28*%
X66645000Y48450000D03*
%TO.P,U1,29*%
%TO.N,Net-(J1-Pad1)*%
X64105000Y48450000D03*
%TO.P,U1,30*%
%TO.N,N/C*%
X61565000Y48450000D03*
%TD*%
%TO.P,J1,1*%
%TO.N,Net-(J1-Pad1)*%
%TA.AperFunction,ComponentPad*%
G36*
G01*
X4250000Y52935000D02*
X4250000Y54385000D01*
G75*
G02*
X4500000Y54635000I250000J0D01*
G01*
X5700000Y54635000D01*
G75*
G02*
X5950000Y54385000I0J-250000D01*
G01*
X5950000Y52935000D01*
G75*
G02*
X5700000Y52685000I-250000J0D01*
G01*
X4500000Y52685000D01*
G75*
G02*
X4250000Y52935000I0J250000D01*
G01*
G37*
%TD.AperFunction*%
D10*
%TO.P,J1,2*%
%TO.N,Net-(J1-Pad2)*%
X7600000Y53660000D03*
%TO.P,J1,3*%
%TO.N,Net-(J1-Pad3)*%
X10100000Y53660000D03*
%TO.P,J1,4*%
%TO.N,Net-(J1-Pad4)*%
X12600000Y53660000D03*
%TO.P,J1,5*%
%TO.N,Net-(J1-Pad5)*%
X15100000Y53660000D03*
%TD*%
D18*
%TO.N,Net-(J1-Pad1)*%
X29230000Y42230000D03*
X10180000Y6670000D03*
X57170000Y11750000D03*
X99080000Y61280000D03*
X102890000Y4130000D03*
%TO.N,Net-(J1-Pad2)*%
X107000000Y65000000D03*
X38080000Y21080000D03*
X48000000Y19000000D03*
X48000000Y27000000D03*
X48000000Y35000000D03*
X48000000Y41000000D03*
X75000000Y36000000D03*
X43000000Y7000000D03*
X33000000Y10000000D03*
X6000000Y29000000D03*
X34000000Y26000000D03*
X34000000Y34000000D03*
X18000000Y61000000D03*
X28000000Y61000000D03*
X9000000Y61000000D03*
%TO.N,Net-(J1-Pad4)*%
X43200000Y44770000D03*
X48220000Y43560000D03*
%TO.N,Net-(J1-Pad5)*%
X73680000Y54930000D03*
%TO.N,Net-(J11-Pad2)*%
X55900000Y49850000D03*
X33040000Y2860000D03*
%TO.N,Net-(J8-Pad1)*%
X48280000Y58740000D03*
%TO.N,Net-(J10-Pad1)*%
X6370000Y18100000D03*
%TD*%
D19*
%TO.N,Net-(J1-Pad1)*%
X8630000Y13020000D02*
X8630000Y30800000D01*
X4663422Y53223422D02*
X5100000Y53660000D01*
X4663422Y44090098D02*
X4663422Y53223422D01*
X8630000Y40123520D02*
X4663422Y44090098D01*
X8630000Y30800000D02*
X8630000Y40123520D01*
X26832818Y44627182D02*
X29230000Y42230000D01*
X14132818Y44627182D02*
X26832818Y44627182D01*
X5100000Y53660000D02*
X14132818Y44627182D01*
X10180000Y11470000D02*
X8630000Y13020000D01*
X10180000Y6670000D02*
X10180000Y11470000D01*
X64105000Y18685000D02*
X57170000Y11750000D01*
X64105000Y48450000D02*
X64105000Y18685000D01*
X99080000Y48110998D02*
X99080000Y61280000D01*
X69654002Y18685000D02*
X99080000Y48110998D01*
X64105000Y18685000D02*
X69654002Y18685000D01*
X101290000Y4130000D02*
X102890000Y4130000D01*
X86735000Y18685000D02*
X101290000Y4130000D01*
X69654002Y18685000D02*
X86735000Y18685000D01*
%TO.N,Net-(J1-Pad4)*%
X43200000Y44770000D02*
X47010000Y44770000D01*
X47010000Y44770000D02*
X48220000Y43560000D01*
%TO.N,Net-(J1-Pad5)*%
X73680000Y51575000D02*
X74265000Y50990000D01*
X73680000Y54930000D02*
X73680000Y51575000D01*
%TO.N,Net-(J2-Pad1)*%
X22880000Y53660000D02*
X22880000Y51120000D01*
X43904990Y17235010D02*
X45580000Y15560000D01*
X38856470Y17235010D02*
X43904990Y17235010D01*
X31629970Y24461510D02*
X38856470Y17235010D01*
X31629970Y42370030D02*
X31629970Y24461510D01*
X22880000Y51120000D02*
X31629970Y42370030D01*
%TO.N,Net-(J2-Pad2)*%
X25380000Y53660000D02*
X25380000Y51160000D01*
X43904990Y24855010D02*
X45580000Y23180000D01*
X38856470Y24855010D02*
X43904990Y24855010D01*
X32829980Y30881500D02*
X38856470Y24855010D01*
X32829980Y43710020D02*
X32829980Y30881500D01*
X25380000Y51160000D02*
X32829980Y43710020D01*
%TO.N,Net-(J2-Pad3)*%
X27880000Y53660000D02*
X27880000Y51200000D01*
X43904990Y32475010D02*
X45580000Y30800000D01*
X38856470Y32475010D02*
X43904990Y32475010D01*
X34029990Y37301490D02*
X38856470Y32475010D01*
X34029990Y45050010D02*
X34029990Y37301490D01*
X27880000Y51200000D02*
X34029990Y45050010D01*
%TO.N,Net-(J2-Pad4)*%
X43904990Y40095010D02*
X45580000Y38420000D01*
X41605126Y40095010D02*
X43904990Y40095010D01*
X30380000Y51320136D02*
X41605126Y40095010D01*
X30380000Y53660000D02*
X30380000Y51320136D01*
D20*
%TO.N,Net-(J11-Pad1)*%
X35580000Y56200000D02*
X38120000Y53660000D01*
X35580000Y62550000D02*
X35580000Y56200000D01*
X45966109Y64750010D02*
X47010000Y63706119D01*
X37334108Y64750010D02*
X45966109Y64750010D01*
X35580000Y62995902D02*
X37334108Y64750010D01*
X47010000Y63706119D02*
X47010000Y62550000D01*
X35580000Y62550000D02*
X35580000Y62995902D01*
%TO.N,Net-(J11-Pad2)*%
X44626717Y2860000D02*
X33040000Y2860000D01*
X55900000Y14133283D02*
X44626717Y2860000D01*
X55900000Y49850000D02*
X55900000Y14133283D01*
%TO.N,Net-(J8-Pad1)*%
X28769141Y3199990D02*
X36754131Y11184980D01*
X16460010Y3199990D02*
X28769141Y3199990D01*
X15260000Y4400000D02*
X16460010Y3199990D01*
X15260000Y5400000D02*
X15260000Y4400000D01*
X48749151Y58740000D02*
X48280000Y58740000D01*
X52830010Y54659141D02*
X48749151Y58740000D01*
X52830010Y14174576D02*
X52830010Y54659141D01*
X49840414Y11184980D02*
X52830010Y14174576D01*
X36754131Y11184980D02*
X49840414Y11184980D01*
%TO.N,Net-(J9-Pad1)*%
X44470000Y54069374D02*
X44470000Y62550000D01*
X50130010Y48409364D02*
X44470000Y54069374D01*
X50130010Y14585859D02*
X50130010Y48409364D01*
X48929141Y13384990D02*
X50130010Y14585859D01*
X32404990Y13384990D02*
X48929141Y13384990D01*
X25420000Y6400000D02*
X32404990Y13384990D01*
X25420000Y5400000D02*
X25420000Y6400000D01*
D19*
%TO.N,Net-(J10-Pad2)*%
X12720000Y30800000D02*
X15895000Y33975000D01*
X11730000Y30800000D02*
X12720000Y30800000D01*
%TO.N,Net-(J10-Pad1)*%
X12720000Y13020000D02*
X15895000Y16195000D01*
X11730000Y13020000D02*
X12720000Y13020000D01*
X3399990Y21070010D02*
X6370000Y18100000D01*
X3399990Y39259990D02*
X3399990Y21070010D01*
X5100000Y40960000D02*
X3399990Y39259990D01*
%TD*%
D21*
%TO.N,Net-(J1-Pad2)*%
X36705393Y66267862D02*
X36421356Y66116041D01*
X36172394Y65911724D01*
X36121187Y65849328D01*
X34480685Y64208825D01*
X34418286Y64157616D01*
X34213969Y63908654D01*
X34062148Y63624617D01*
X34052228Y63591917D01*
X33965915Y63678230D01*
X33728017Y63837189D01*
X33463679Y63946681D01*
X33183059Y64002500D01*
X32896941Y64002500D01*
X32616321Y63946681D01*
X32351983Y63837189D01*
X32114085Y63678230D01*
X31911770Y63475915D01*
X31752811Y63238017D01*
X31643319Y62973679D01*
X31587500Y62693059D01*
X31587500Y62406941D01*
X31643319Y62126321D01*
X31752811Y61861983D01*
X31911770Y61624085D01*
X32114085Y61421770D01*
X32351983Y61262811D01*
X32616321Y61153319D01*
X32896941Y61097500D01*
X33183059Y61097500D01*
X33463679Y61153319D01*
X33728017Y61262811D01*
X33945000Y61407795D01*
X33945001Y56280329D01*
X33937089Y56200000D01*
X33968658Y55879484D01*
X34062148Y55571286D01*
X34171637Y55366447D01*
X34213970Y55287248D01*
X34418287Y55038286D01*
X34480682Y54987080D01*
X36640031Y52827730D01*
X36648992Y52736746D01*
X36699528Y52570150D01*
X36781595Y52416614D01*
X36892038Y52282038D01*
X37026614Y52171595D01*
X37180150Y52089528D01*
X37346746Y52038992D01*
X37520000Y52021928D01*
X38070869Y52021928D01*
X38119999Y52017089D01*
X38169129Y52021928D01*
X38720000Y52021928D01*
X38893254Y52038992D01*
X39059850Y52089528D01*
X39213386Y52171595D01*
X39347962Y52282038D01*
X39458405Y52416614D01*
X39512777Y52518337D01*
X39564866Y52454866D01*
X39790987Y52269294D01*
X40048967Y52131401D01*
X40328890Y52046487D01*
X40620000Y52017815D01*
X40911111Y52046487D01*
X41191034Y52131401D01*
X41449014Y52269294D01*
X41675134Y52454866D01*
X41860706Y52680986D01*
X41998599Y52938967D01*
X42083513Y53218890D01*
X42105000Y53437051D01*
X42105000Y53882950D01*
X42083513Y54101111D01*
X41998599Y54381034D01*
X41860706Y54639014D01*
X41675134Y54865134D01*
X41449013Y55050706D01*
X41191033Y55188599D01*
X40911110Y55273513D01*
X40620000Y55302185D01*
X40328889Y55273513D01*
X40048966Y55188599D01*
X39790986Y55050706D01*
X39564866Y54865134D01*
X39512777Y54801663D01*
X39458405Y54903386D01*
X39347962Y55037962D01*
X39213386Y55148405D01*
X39059850Y55230472D01*
X38893254Y55281008D01*
X38802270Y55289969D01*
X37215000Y56877238D01*
X37215000Y61407795D01*
X37431983Y61262811D01*
X37696321Y61153319D01*
X37976941Y61097500D01*
X38263059Y61097500D01*
X38543679Y61153319D01*
X38808017Y61262811D01*
X39045915Y61421770D01*
X39248230Y61624085D01*
X39407189Y61861983D01*
X39516681Y62126321D01*
X39572500Y62406941D01*
X39572500Y62693059D01*
X39516681Y62973679D01*
X39458140Y63115010D01*
X42932824Y63115010D01*
X42858658Y62870516D01*
X42835001Y62630322D01*
X42835000Y54149694D01*
X42827089Y54069374D01*
X42835000Y53989055D01*
X42835000Y53989053D01*
X42858657Y53748859D01*
X42952148Y53440660D01*
X43103969Y53156623D01*
X43308286Y52907660D01*
X43370687Y52856449D01*
X48495011Y47732124D01*
X48495011Y44890121D01*
X47851996Y45533135D01*
X47816449Y45576449D01*
X47643623Y45718284D01*
X47446447Y45823676D01*
X47232499Y45888577D01*
X47065752Y45905000D01*
X47065751Y45905000D01*
X47010000Y45910491D01*
X46954249Y45905000D01*
X43144248Y45905000D01*
X42977501Y45888577D01*
X42763553Y45823676D01*
X42566377Y45718284D01*
X42393551Y45576449D01*
X42251716Y45403623D01*
X42146324Y45206447D01*
X42081423Y44992499D01*
X42059509Y44770000D01*
X42081423Y44547501D01*
X42146324Y44333553D01*
X42251716Y44136377D01*
X42393551Y43963551D01*
X42566377Y43821716D01*
X42763553Y43716324D01*
X42977501Y43651423D01*
X43144248Y43635000D01*
X46539869Y43635000D01*
X47456856Y42718012D01*
X47586376Y42611717D01*
X47783552Y42506325D01*
X47997500Y42441424D01*
X48219999Y42419510D01*
X48442498Y42441424D01*
X48495011Y42457354D01*
X48495011Y39970928D01*
X48371110Y40008513D01*
X48080000Y40037185D01*
X47788889Y40008513D01*
X47508966Y39923599D01*
X47250986Y39785706D01*
X47024866Y39600134D01*
X46839294Y39374013D01*
X46830000Y39356626D01*
X46820706Y39374014D01*
X46635134Y39600134D01*
X46409013Y39785706D01*
X46151033Y39923599D01*
X45871110Y40008513D01*
X45580000Y40037185D01*
X45569027Y40036104D01*
X44746986Y40858145D01*
X44711439Y40901459D01*
X44538613Y41043294D01*
X44341437Y41148686D01*
X44127489Y41213587D01*
X43960742Y41230010D01*
X43960741Y41230010D01*
X43904990Y41235501D01*
X43849239Y41230010D01*
X42075258Y41230010D01*
X37516086Y45789182D01*
X37661849Y45818176D01*
X38074785Y45989220D01*
X38446417Y46237536D01*
X38762464Y46553583D01*
X39010780Y46925215D01*
X39181824Y47338151D01*
X39269021Y47776521D01*
X39269021Y48223479D01*
X39181824Y48661849D01*
X39010780Y49074785D01*
X38762464Y49446417D01*
X38446417Y49762464D01*
X38074785Y50010780D01*
X37661849Y50181824D01*
X37223479Y50269021D01*
X36776521Y50269021D01*
X36338151Y50181824D01*
X35925215Y50010780D01*
X35553583Y49762464D01*
X35237536Y49446417D01*
X34989220Y49074785D01*
X34818176Y48661849D01*
X34789182Y48516085D01*
X31515000Y51790267D01*
X31515000Y52577183D01*
X31620706Y52705986D01*
X31758599Y52963967D01*
X31843513Y53243890D01*
X31865000Y53462051D01*
X31865000Y53857950D01*
X31843513Y54076111D01*
X31758599Y54356034D01*
X31620706Y54614014D01*
X31435134Y54840134D01*
X31209013Y55025706D01*
X30951033Y55163599D01*
X30671110Y55248513D01*
X30380000Y55277185D01*
X30088889Y55248513D01*
X29808966Y55163599D01*
X29550986Y55025706D01*
X29324866Y54840134D01*
X29139294Y54614013D01*
X29130000Y54596626D01*
X29120706Y54614014D01*
X28935134Y54840134D01*
X28709013Y55025706D01*
X28451033Y55163599D01*
X28171110Y55248513D01*
X27880000Y55277185D01*
X27588889Y55248513D01*
X27308966Y55163599D01*
X27050986Y55025706D01*
X26824866Y54840134D01*
X26639294Y54614013D01*
X26630000Y54596626D01*
X26620706Y54614014D01*
X26435134Y54840134D01*
X26209013Y55025706D01*
X25951033Y55163599D01*
X25671110Y55248513D01*
X25380000Y55277185D01*
X25088889Y55248513D01*
X24808966Y55163599D01*
X24550986Y55025706D01*
X24324866Y54840134D01*
X24272777Y54776663D01*
X24218405Y54878386D01*
X24107962Y55012962D01*
X23973386Y55123405D01*
X23819850Y55205472D01*
X23653254Y55256008D01*
X23480000Y55273072D01*
X22280000Y55273072D01*
X22106746Y55256008D01*
X21940150Y55205472D01*
X21786614Y55123405D01*
X21652038Y55012962D01*
X21541595Y54878386D01*
X21459528Y54724850D01*
X21408992Y54558254D01*
X21391928Y54385000D01*
X21391928Y52935000D01*
X21408992Y52761746D01*
X21459528Y52595150D01*
X21541595Y52441614D01*
X21652038Y52307038D01*
X21745001Y52230746D01*
X21745001Y51175761D01*
X21739509Y51120000D01*
X21761423Y50897502D01*
X21826324Y50683554D01*
X21856705Y50626716D01*
X21931717Y50486377D01*
X22073552Y50313551D01*
X22116860Y50278009D01*
X26632686Y45762182D01*
X14602951Y45762182D01*
X8189958Y52175173D01*
X8219858Y52185648D01*
X8471193Y52332504D01*
X8689049Y52525571D01*
X8845538Y52731722D01*
X8859294Y52705986D01*
X9044866Y52479866D01*
X9270987Y52294294D01*
X9528967Y52156401D01*
X9808890Y52071487D01*
X10100000Y52042815D01*
X10391111Y52071487D01*
X10671034Y52156401D01*
X10929014Y52294294D01*
X11155134Y52479866D01*
X11340706Y52705986D01*
X11350000Y52723374D01*
X11359294Y52705986D01*
X11544866Y52479866D01*
X11770987Y52294294D01*
X12028967Y52156401D01*
X12308890Y52071487D01*
X12600000Y52042815D01*
X12891111Y52071487D01*
X13171034Y52156401D01*
X13429014Y52294294D01*
X13655134Y52479866D01*
X13840706Y52705986D01*
X13850000Y52723374D01*
X13859294Y52705986D01*
X14044866Y52479866D01*
X14270987Y52294294D01*
X14528967Y52156401D01*
X14808890Y52071487D01*
X15100000Y52042815D01*
X15391111Y52071487D01*
X15671034Y52156401D01*
X15929014Y52294294D01*
X16155134Y52479866D01*
X16340706Y52705986D01*
X16478599Y52963967D01*
X16563513Y53243890D01*
X16585000Y53462051D01*
X16585000Y53857950D01*
X16563513Y54076111D01*
X16478599Y54356034D01*
X16340706Y54614014D01*
X16155134Y54840134D01*
X15929013Y55025706D01*
X15671033Y55163599D01*
X15391110Y55248513D01*
X15100000Y55277185D01*
X14808889Y55248513D01*
X14528966Y55163599D01*
X14270986Y55025706D01*
X14044866Y54840134D01*
X13859294Y54614013D01*
X13850000Y54596626D01*
X13840706Y54614014D01*
X13655134Y54840134D01*
X13429013Y55025706D01*
X13171033Y55163599D01*
X12891110Y55248513D01*
X12600000Y55277185D01*
X12308889Y55248513D01*
X12028966Y55163599D01*
X11770986Y55025706D01*
X11544866Y54840134D01*
X11359294Y54614013D01*
X11350000Y54596626D01*
X11340706Y54614014D01*
X11155134Y54840134D01*
X10929013Y55025706D01*
X10671033Y55163599D01*
X10391110Y55248513D01*
X10100000Y55277185D01*
X9808889Y55248513D01*
X9528966Y55163599D01*
X9270986Y55025706D01*
X9044866Y54840134D01*
X8859294Y54614013D01*
X8845538Y54588278D01*
X8689049Y54794429D01*
X8471193Y54987496D01*
X8219858Y55134352D01*
X7956890Y55226476D01*
X7727000Y55105155D01*
X7727000Y53787000D01*
X7747000Y53787000D01*
X7747000Y53533000D01*
X7727000Y53533000D01*
X7727000Y53513000D01*
X7473000Y53513000D01*
X7473000Y53533000D01*
X7453000Y53533000D01*
X7453000Y53787000D01*
X7473000Y53787000D01*
X7473000Y55105155D01*
X7243110Y55226476D01*
X6980142Y55134352D01*
X6728807Y54987496D01*
X6510951Y54794429D01*
X6494714Y54773039D01*
X6438405Y54878386D01*
X6327962Y55012962D01*
X6193386Y55123405D01*
X6039850Y55205472D01*
X5873254Y55256008D01*
X5700000Y55273072D01*
X4500000Y55273072D01*
X4326746Y55256008D01*
X4160150Y55205472D01*
X4006614Y55123405D01*
X3872038Y55012962D01*
X3761595Y54878386D01*
X3679528Y54724850D01*
X3628992Y54558254D01*
X3611928Y54385000D01*
X3611928Y53663950D01*
X3609746Y53659868D01*
X3544845Y53445920D01*
X3522931Y53223422D01*
X3528423Y53167661D01*
X3528422Y44145850D01*
X3522931Y44090098D01*
X3532155Y43996448D01*
X3544845Y43867600D01*
X3609746Y43653652D01*
X3715138Y43456475D01*
X3856973Y43283649D01*
X3900287Y43248102D01*
X4700317Y42448072D01*
X4350000Y42448072D01*
X4176746Y42431008D01*
X4010150Y42380472D01*
X3856614Y42298405D01*
X3722038Y42187962D01*
X3611595Y42053386D01*
X3529528Y41899850D01*
X3478992Y41733254D01*
X3461928Y41560000D01*
X3461928Y40927060D01*
X2636855Y40101986D01*
X2593541Y40066439D01*
X2451706Y39893613D01*
X2349339Y39702095D01*
X2346314Y39696436D01*
X2281413Y39482488D01*
X2259499Y39259990D01*
X2264990Y39204239D01*
X2264991Y21125772D01*
X2259499Y21070010D01*
X2281413Y20847512D01*
X2346314Y20633564D01*
X2346315Y20633563D01*
X2451707Y20436387D01*
X2593542Y20263561D01*
X2636850Y20228019D01*
X5606856Y17258012D01*
X5736376Y17151717D01*
X5933552Y17046325D01*
X6147500Y16981424D01*
X6369999Y16959510D01*
X6592498Y16981424D01*
X6806446Y17046325D01*
X7003622Y17151717D01*
X7176448Y17293552D01*
X7318283Y17466378D01*
X7423675Y17663554D01*
X7488576Y17877502D01*
X7495000Y17942730D01*
X7495000Y14096607D01*
X7479188Y14044482D01*
X7466928Y13920000D01*
X7466928Y12120000D01*
X7479188Y11995518D01*
X7515498Y11875820D01*
X7574463Y11765506D01*
X7653815Y11668815D01*
X7750506Y11589463D01*
X7860820Y11530498D01*
X7980518Y11494188D01*
X8105000Y11481928D01*
X8562941Y11481928D01*
X9045001Y10999867D01*
X9045000Y7992170D01*
X9010780Y8074785D01*
X8762464Y8446417D01*
X8446417Y8762464D01*
X8074785Y9010780D01*
X7661849Y9181824D01*
X7223479Y9269021D01*
X6776521Y9269021D01*
X6338151Y9181824D01*
X5925215Y9010780D01*
X5553583Y8762464D01*
X5237536Y8446417D01*
X4989220Y8074785D01*
X4818176Y7661849D01*
X4730979Y7223479D01*
X4730979Y6776521D01*
X4818176Y6338151D01*
X4989220Y5925215D01*
X5237536Y5553583D01*
X5553583Y5237536D01*
X5925215Y4989220D01*
X6338151Y4818176D01*
X6776521Y4730979D01*
X7223479Y4730979D01*
X7661849Y4818176D01*
X8074785Y4989220D01*
X8446417Y5237536D01*
X8762464Y5553583D01*
X9010780Y5925215D01*
X9133183Y6220722D01*
X9231716Y6036377D01*
X9373551Y5863551D01*
X9546377Y5721716D01*
X9743553Y5616324D01*
X9957501Y5551423D01*
X10180000Y5529509D01*
X10402498Y5551423D01*
X10616446Y5616324D01*
X10813623Y5721716D01*
X10986449Y5863551D01*
X11128284Y6036377D01*
X11233676Y6233553D01*
X11298577Y6447501D01*
X11315000Y6614248D01*
X11315000Y11414249D01*
X11320491Y11470001D01*
X11319316Y11481928D01*
X12255000Y11481928D01*
X12379482Y11494188D01*
X12499180Y11530498D01*
X12609494Y11589463D01*
X12706185Y11668815D01*
X12785537Y11765506D01*
X12844502Y11875820D01*
X12849490Y11892262D01*
X12942499Y11901423D01*
X13156447Y11966324D01*
X13353623Y12071716D01*
X13526449Y12213551D01*
X13561996Y12256865D01*
X15046692Y13741561D01*
X17050000Y13741561D01*
X17050000Y13488439D01*
X17099381Y13240179D01*
X17196247Y13006324D01*
X17336875Y12795860D01*
X17515860Y12616875D01*
X17726324Y12476247D01*
X17960179Y12379381D01*
X18208439Y12330000D01*
X18461561Y12330000D01*
X18709821Y12379381D01*
X18943676Y12476247D01*
X19154140Y12616875D01*
X19333125Y12795860D01*
X19473753Y13006324D01*
X19570619Y13240179D01*
X19620000Y13488439D01*
X19620000Y13741561D01*
X19570619Y13989821D01*
X19473753Y14223676D01*
X19391896Y14346184D01*
X20610000Y14346184D01*
X20610000Y14043816D01*
X20668989Y13747257D01*
X20784701Y13467905D01*
X20952688Y13216495D01*
X21166495Y13002688D01*
X21417905Y12834701D01*
X21697257Y12718989D01*
X21993816Y12660000D01*
X22296184Y12660000D01*
X22592743Y12718989D01*
X22872095Y12834701D01*
X23123505Y13002688D01*
X23337312Y13216495D01*
X23505299Y13467905D01*
X23621011Y13747257D01*
X23680000Y14043816D01*
X23680000Y14346184D01*
X23621011Y14642743D01*
X23505299Y14922095D01*
X23337312Y15173505D01*
X23123505Y15387312D01*
X22872095Y15555299D01*
X22592743Y15671011D01*
X22296184Y15730000D01*
X21993816Y15730000D01*
X21697257Y15671011D01*
X21417905Y15555299D01*
X21166495Y15387312D01*
X20952688Y15173505D01*
X20784701Y14922095D01*
X20668989Y14642743D01*
X20610000Y14346184D01*
X19391896Y14346184D01*
X19333125Y14434140D01*
X19154140Y14613125D01*
X18943676Y14753753D01*
X18709821Y14850619D01*
X18461561Y14900000D01*
X18208439Y14900000D01*
X17960179Y14850619D01*
X17726324Y14753753D01*
X17515860Y14613125D01*
X17336875Y14434140D01*
X17196247Y14223676D01*
X17099381Y13989821D01*
X17050000Y13741561D01*
X15046692Y13741561D01*
X15965132Y14660000D01*
X16046184Y14660000D01*
X16342743Y14718989D01*
X16622095Y14834701D01*
X16873505Y15002688D01*
X17087312Y15216495D01*
X17255299Y15467905D01*
X17371011Y15747257D01*
X17430000Y16043816D01*
X17430000Y16346184D01*
X26860000Y16346184D01*
X26860000Y16043816D01*
X26918989Y15747257D01*
X27034701Y15467905D01*
X27202688Y15216495D01*
X27416495Y15002688D01*
X27667905Y14834701D01*
X27947257Y14718989D01*
X28243816Y14660000D01*
X28546184Y14660000D01*
X28842743Y14718989D01*
X29122095Y14834701D01*
X29373505Y15002688D01*
X29587312Y15216495D01*
X29755299Y15467905D01*
X29871011Y15747257D01*
X29930000Y16043816D01*
X29930000Y16346184D01*
X29871011Y16642743D01*
X29755299Y16922095D01*
X29587312Y17173505D01*
X29373505Y17387312D01*
X29122095Y17555299D01*
X28842743Y17671011D01*
X28546184Y17730000D01*
X28243816Y17730000D01*
X27947257Y17671011D01*
X27667905Y17555299D01*
X27416495Y17387312D01*
X27202688Y17173505D01*
X27034701Y16922095D01*
X26918989Y16642743D01*
X26860000Y16346184D01*
X17430000Y16346184D01*
X17371011Y16642743D01*
X17255299Y16922095D01*
X17087312Y17173505D01*
X16873505Y17387312D01*
X16622095Y17555299D01*
X16342743Y17671011D01*
X16046184Y17730000D01*
X15743816Y17730000D01*
X15447257Y17671011D01*
X15167905Y17555299D01*
X14916495Y17387312D01*
X14702688Y17173505D01*
X14534701Y16922095D01*
X14418989Y16642743D01*
X14360000Y16346184D01*
X14360000Y16265132D01*
X12567730Y14472861D01*
X12499180Y14509502D01*
X12379482Y14545812D01*
X12255000Y14558072D01*
X11205000Y14558072D01*
X11080518Y14545812D01*
X10960820Y14509502D01*
X10850506Y14450537D01*
X10753815Y14371185D01*
X10674463Y14274494D01*
X10615498Y14164180D01*
X10579188Y14044482D01*
X10566928Y13920000D01*
X10566928Y12688204D01*
X9793072Y13462059D01*
X9793072Y13920000D01*
X9780812Y14044482D01*
X9765000Y14096607D01*
X9765000Y21346184D01*
X14360000Y21346184D01*
X14360000Y21043816D01*
X14418989Y20747257D01*
X14534701Y20467905D01*
X14702688Y20216495D01*
X14916495Y20002688D01*
X15167905Y19834701D01*
X15447257Y19718989D01*
X15743816Y19660000D01*
X16046184Y19660000D01*
X16342743Y19718989D01*
X16622095Y19834701D01*
X16873505Y20002688D01*
X17001737Y20130920D01*
X27510525Y20130920D01*
X27594208Y19876739D01*
X27866775Y19745842D01*
X28159642Y19670635D01*
X28461553Y19654009D01*
X28760907Y19696603D01*
X29046199Y19796778D01*
X29195792Y19876739D01*
X29279475Y20130920D01*
X28395000Y21015395D01*
X27510525Y20130920D01*
X17001737Y20130920D01*
X17087312Y20216495D01*
X17255299Y20467905D01*
X17371011Y20747257D01*
X17430000Y21043816D01*
X17430000Y21128447D01*
X26854009Y21128447D01*
X26896603Y20829093D01*
X26996778Y20543801D01*
X27076739Y20394208D01*
X27330920Y20310525D01*
X28215395Y21195000D01*
X28574605Y21195000D01*
X29459080Y20310525D01*
X29713261Y20394208D01*
X29844158Y20666775D01*
X29919365Y20959642D01*
X29935991Y21261553D01*
X29893397Y21560907D01*
X29793222Y21846199D01*
X29713261Y21995792D01*
X29459080Y22079475D01*
X28574605Y21195000D01*
X28215395Y21195000D01*
X27330920Y22079475D01*
X27076739Y21995792D01*
X26945842Y21723225D01*
X26870635Y21430358D01*
X26854009Y21128447D01*
X17430000Y21128447D01*
X17430000Y21346184D01*
X17371011Y21642743D01*
X17255299Y21922095D01*
X17087312Y22173505D01*
X17001737Y22259080D01*
X27510525Y22259080D01*
X28395000Y21374605D01*
X29279475Y22259080D01*
X29195792Y22513261D01*
X28923225Y22644158D01*
X28630358Y22719365D01*
X28328447Y22735991D01*
X28029093Y22693397D01*
X27743801Y22593222D01*
X27594208Y22513261D01*
X27510525Y22259080D01*
X17001737Y22259080D01*
X16873505Y22387312D01*
X16622095Y22555299D01*
X16342743Y22671011D01*
X16046184Y22730000D01*
X15743816Y22730000D01*
X15447257Y22671011D01*
X15167905Y22555299D01*
X14916495Y22387312D01*
X14702688Y22173505D01*
X14534701Y21922095D01*
X14418989Y21642743D01*
X14360000Y21346184D01*
X9765000Y21346184D01*
X9765000Y23901561D01*
X24670000Y23901561D01*
X24670000Y23648439D01*
X24719381Y23400179D01*
X24816247Y23166324D01*
X24956875Y22955860D01*
X25135860Y22776875D01*
X25346324Y22636247D01*
X25580179Y22539381D01*
X25828439Y22490000D01*
X26081561Y22490000D01*
X26329821Y22539381D01*
X26563676Y22636247D01*
X26774140Y22776875D01*
X26953125Y22955860D01*
X27093753Y23166324D01*
X27190619Y23400179D01*
X27240000Y23648439D01*
X27240000Y23901561D01*
X27190619Y24149821D01*
X27093753Y24383676D01*
X26953125Y24594140D01*
X26774140Y24773125D01*
X26563676Y24913753D01*
X26329821Y25010619D01*
X26081561Y25060000D01*
X25828439Y25060000D01*
X25580179Y25010619D01*
X25346324Y24913753D01*
X25135860Y24773125D01*
X24956875Y24594140D01*
X24816247Y24383676D01*
X24719381Y24149821D01*
X24670000Y23901561D01*
X9765000Y23901561D01*
X9765000Y29723393D01*
X9780812Y29775518D01*
X9793072Y29900000D01*
X9793072Y31700000D01*
X10566928Y31700000D01*
X10566928Y29900000D01*
X10579188Y29775518D01*
X10615498Y29655820D01*
X10674463Y29545506D01*
X10753815Y29448815D01*
X10850506Y29369463D01*
X10960820Y29310498D01*
X11080518Y29274188D01*
X11205000Y29261928D01*
X12255000Y29261928D01*
X12379482Y29274188D01*
X12499180Y29310498D01*
X12609494Y29369463D01*
X12706185Y29448815D01*
X12785537Y29545506D01*
X12844502Y29655820D01*
X12849490Y29672262D01*
X12942499Y29681423D01*
X13156447Y29746324D01*
X13353623Y29851716D01*
X13526449Y29993551D01*
X13561996Y30036865D01*
X15046692Y31521561D01*
X17050000Y31521561D01*
X17050000Y31268439D01*
X17099381Y31020179D01*
X17196247Y30786324D01*
X17336875Y30575860D01*
X17515860Y30396875D01*
X17726324Y30256247D01*
X17960179Y30159381D01*
X18208439Y30110000D01*
X18461561Y30110000D01*
X18709821Y30159381D01*
X18943676Y30256247D01*
X19154140Y30396875D01*
X19333125Y30575860D01*
X19473753Y30786324D01*
X19570619Y31020179D01*
X19620000Y31268439D01*
X19620000Y31521561D01*
X19570619Y31769821D01*
X19473753Y32003676D01*
X19391896Y32126184D01*
X20610000Y32126184D01*
X20610000Y31823816D01*
X20668989Y31527257D01*
X20784701Y31247905D01*
X20952688Y30996495D01*
X21166495Y30782688D01*
X21417905Y30614701D01*
X21697257Y30498989D01*
X21993816Y30440000D01*
X22296184Y30440000D01*
X22592743Y30498989D01*
X22872095Y30614701D01*
X23123505Y30782688D01*
X23337312Y30996495D01*
X23505299Y31247905D01*
X23621011Y31527257D01*
X23680000Y31823816D01*
X23680000Y32126184D01*
X23621011Y32422743D01*
X23505299Y32702095D01*
X23337312Y32953505D01*
X23123505Y33167312D01*
X22872095Y33335299D01*
X22592743Y33451011D01*
X22296184Y33510000D01*
X21993816Y33510000D01*
X21697257Y33451011D01*
X21417905Y33335299D01*
X21166495Y33167312D01*
X20952688Y32953505D01*
X20784701Y32702095D01*
X20668989Y32422743D01*
X20610000Y32126184D01*
X19391896Y32126184D01*
X19333125Y32214140D01*
X19154140Y32393125D01*
X18943676Y32533753D01*
X18709821Y32630619D01*
X18461561Y32680000D01*
X18208439Y32680000D01*
X17960179Y32630619D01*
X17726324Y32533753D01*
X17515860Y32393125D01*
X17336875Y32214140D01*
X17196247Y32003676D01*
X17099381Y31769821D01*
X17050000Y31521561D01*
X15046692Y31521561D01*
X15965132Y32440000D01*
X16046184Y32440000D01*
X16342743Y32498989D01*
X16622095Y32614701D01*
X16873505Y32782688D01*
X17087312Y32996495D01*
X17255299Y33247905D01*
X17371011Y33527257D01*
X17430000Y33823816D01*
X17430000Y34126184D01*
X26860000Y34126184D01*
X26860000Y33823816D01*
X26918989Y33527257D01*
X27034701Y33247905D01*
X27202688Y32996495D01*
X27416495Y32782688D01*
X27667905Y32614701D01*
X27947257Y32498989D01*
X28243816Y32440000D01*
X28546184Y32440000D01*
X28842743Y32498989D01*
X29122095Y32614701D01*
X29373505Y32782688D01*
X29587312Y32996495D01*
X29755299Y33247905D01*
X29871011Y33527257D01*
X29930000Y33823816D01*
X29930000Y34126184D01*
X29871011Y34422743D01*
X29755299Y34702095D01*
X29587312Y34953505D01*
X29373505Y35167312D01*
X29122095Y35335299D01*
X28842743Y35451011D01*
X28546184Y35510000D01*
X28243816Y35510000D01*
X27947257Y35451011D01*
X27667905Y35335299D01*
X27416495Y35167312D01*
X27202688Y34953505D01*
X27034701Y34702095D01*
X26918989Y34422743D01*
X26860000Y34126184D01*
X17430000Y34126184D01*
X17371011Y34422743D01*
X17255299Y34702095D01*
X17087312Y34953505D01*
X16873505Y35167312D01*
X16622095Y35335299D01*
X16342743Y35451011D01*
X16046184Y35510000D01*
X15743816Y35510000D01*
X15447257Y35451011D01*
X15167905Y35335299D01*
X14916495Y35167312D01*
X14702688Y34953505D01*
X14534701Y34702095D01*
X14418989Y34422743D01*
X14360000Y34126184D01*
X14360000Y34045132D01*
X12567730Y32252861D01*
X12499180Y32289502D01*
X12379482Y32325812D01*
X12255000Y32338072D01*
X11205000Y32338072D01*
X11080518Y32325812D01*
X10960820Y32289502D01*
X10850506Y32230537D01*
X10753815Y32151185D01*
X10674463Y32054494D01*
X10615498Y31944180D01*
X10579188Y31824482D01*
X10566928Y31700000D01*
X9793072Y31700000D01*
X9780812Y31824482D01*
X9765000Y31876607D01*
X9765000Y39126184D01*
X14360000Y39126184D01*
X14360000Y38823816D01*
X14418989Y38527257D01*
X14534701Y38247905D01*
X14702688Y37996495D01*
X14916495Y37782688D01*
X15167905Y37614701D01*
X15447257Y37498989D01*
X15743816Y37440000D01*
X16046184Y37440000D01*
X16342743Y37498989D01*
X16622095Y37614701D01*
X16873505Y37782688D01*
X17001737Y37910920D01*
X27510525Y37910920D01*
X27594208Y37656739D01*
X27866775Y37525842D01*
X28159642Y37450635D01*
X28461553Y37434009D01*
X28760907Y37476603D01*
X29046199Y37576778D01*
X29195792Y37656739D01*
X29279475Y37910920D01*
X28395000Y38795395D01*
X27510525Y37910920D01*
X17001737Y37910920D01*
X17087312Y37996495D01*
X17255299Y38247905D01*
X17371011Y38527257D01*
X17430000Y38823816D01*
X17430000Y38908447D01*
X26854009Y38908447D01*
X26896603Y38609093D01*
X26996778Y38323801D01*
X27076739Y38174208D01*
X27330920Y38090525D01*
X28215395Y38975000D01*
X28574605Y38975000D01*
X29459080Y38090525D01*
X29713261Y38174208D01*
X29844158Y38446775D01*
X29919365Y38739642D01*
X29935991Y39041553D01*
X29893397Y39340907D01*
X29793222Y39626199D01*
X29713261Y39775792D01*
X29459080Y39859475D01*
X28574605Y38975000D01*
X28215395Y38975000D01*
X27330920Y39859475D01*
X27076739Y39775792D01*
X26945842Y39503225D01*
X26870635Y39210358D01*
X26854009Y38908447D01*
X17430000Y38908447D01*
X17430000Y39126184D01*
X17371011Y39422743D01*
X17255299Y39702095D01*
X17087312Y39953505D01*
X17001737Y40039080D01*
X27510525Y40039080D01*
X28395000Y39154605D01*
X29279475Y40039080D01*
X29195792Y40293261D01*
X28923225Y40424158D01*
X28630358Y40499365D01*
X28328447Y40515991D01*
X28029093Y40473397D01*
X27743801Y40373222D01*
X27594208Y40293261D01*
X27510525Y40039080D01*
X17001737Y40039080D01*
X16873505Y40167312D01*
X16622095Y40335299D01*
X16342743Y40451011D01*
X16046184Y40510000D01*
X15743816Y40510000D01*
X15447257Y40451011D01*
X15167905Y40335299D01*
X14916495Y40167312D01*
X14702688Y39953505D01*
X14534701Y39702095D01*
X14418989Y39422743D01*
X14360000Y39126184D01*
X9765000Y39126184D01*
X9765000Y40067779D01*
X9770490Y40123521D01*
X9765000Y40179263D01*
X9765000Y40179272D01*
X9748577Y40346019D01*
X9683676Y40559967D01*
X9578284Y40757143D01*
X9436449Y40929969D01*
X9393141Y40965511D01*
X8677091Y41681561D01*
X24670000Y41681561D01*
X24670000Y41428439D01*
X24719381Y41180179D01*
X24816247Y40946324D01*
X24956875Y40735860D01*
X25135860Y40556875D01*
X25346324Y40416247D01*
X25580179Y40319381D01*
X25828439Y40270000D01*
X26081561Y40270000D01*
X26329821Y40319381D01*
X26563676Y40416247D01*
X26774140Y40556875D01*
X26953125Y40735860D01*
X27093753Y40946324D01*
X27190619Y41180179D01*
X27240000Y41428439D01*
X27240000Y41681561D01*
X27190619Y41929821D01*
X27093753Y42163676D01*
X26953125Y42374140D01*
X26774140Y42553125D01*
X26563676Y42693753D01*
X26329821Y42790619D01*
X26081561Y42840000D01*
X25828439Y42840000D01*
X25580179Y42790619D01*
X25346324Y42693753D01*
X25135860Y42553125D01*
X24956875Y42374140D01*
X24816247Y42163676D01*
X24719381Y41929821D01*
X24670000Y41681561D01*
X8677091Y41681561D01*
X5798422Y44560229D01*
X5798422Y46073940D01*
X5925215Y45989220D01*
X6338151Y45818176D01*
X6776521Y45730979D01*
X7223479Y45730979D01*
X7661849Y45818176D01*
X8074785Y45989220D01*
X8446417Y46237536D01*
X8762464Y46553583D01*
X9010780Y46925215D01*
X9181824Y47338151D01*
X9269021Y47776521D01*
X9269021Y47885847D01*
X13290831Y43864036D01*
X13326369Y43820733D01*
X13369672Y43785195D01*
X13369674Y43785193D01*
X13499195Y43678898D01*
X13696371Y43573506D01*
X13910319Y43508605D01*
X14132818Y43486691D01*
X14188570Y43492182D01*
X26362687Y43492182D01*
X28466856Y41388012D01*
X28596376Y41281717D01*
X28793552Y41176325D01*
X29007500Y41111424D01*
X29229999Y41089510D01*
X29452498Y41111424D01*
X29666446Y41176325D01*
X29863622Y41281717D01*
X30036448Y41423552D01*
X30178283Y41596378D01*
X30283675Y41793554D01*
X30348576Y42007502D01*
X30352054Y42042814D01*
X30494970Y41899898D01*
X30494971Y24517272D01*
X30489479Y24461510D01*
X30511393Y24239012D01*
X30576294Y24025064D01*
X30576295Y24025063D01*
X30681687Y23827887D01*
X30823522Y23655061D01*
X30866830Y23619519D01*
X37455000Y17031348D01*
X37208807Y16887496D01*
X36990951Y16694429D01*
X36974714Y16673039D01*
X36918405Y16778386D01*
X36807962Y16912962D01*
X36673386Y17023405D01*
X36519850Y17105472D01*
X36353254Y17156008D01*
X36180000Y17173072D01*
X34980000Y17173072D01*
X34806746Y17156008D01*
X34640150Y17105472D01*
X34486614Y17023405D01*
X34352038Y16912962D01*
X34241595Y16778386D01*
X34159528Y16624850D01*
X34108992Y16458254D01*
X34091928Y16285000D01*
X34091928Y15019990D01*
X32485312Y15019990D01*
X32404990Y15027901D01*
X32084473Y14996333D01*
X31853863Y14926378D01*
X31776275Y14902842D01*
X31492238Y14751021D01*
X31243276Y14546704D01*
X31192074Y14484314D01*
X24320682Y7612920D01*
X24258287Y7561714D01*
X24053970Y7312752D01*
X23902148Y7028715D01*
X23808657Y6720516D01*
X23785000Y6480322D01*
X23777089Y6400000D01*
X23785000Y6319681D01*
X23785000Y5319679D01*
X23808657Y5079485D01*
X23882824Y4834990D01*
X19185928Y4834990D01*
X19223513Y4958890D01*
X19245000Y5177051D01*
X19245000Y5622950D01*
X19223513Y5841111D01*
X19138599Y6121034D01*
X19000706Y6379014D01*
X18815134Y6605134D01*
X18589013Y6790706D01*
X18331033Y6928599D01*
X18051110Y7013513D01*
X17760000Y7042185D01*
X17468889Y7013513D01*
X17188966Y6928599D01*
X16930986Y6790706D01*
X16704866Y6605134D01*
X16652777Y6541663D01*
X16598405Y6643386D01*
X16487962Y6777962D01*
X16353386Y6888405D01*
X16199850Y6970472D01*
X16033254Y7021008D01*
X15860000Y7038072D01*
X15309131Y7038072D01*
X15260000Y7042911D01*
X15210869Y7038072D01*
X14660000Y7038072D01*
X14486746Y7021008D01*
X14320150Y6970472D01*
X14166614Y6888405D01*
X14032038Y6777962D01*
X13921595Y6643386D01*
X13839528Y6489850D01*
X13788992Y6323254D01*
X13771928Y6150000D01*
X13771928Y6084428D01*
X13742148Y6028714D01*
X13648657Y5720515D01*
X13625000Y5480321D01*
X13625000Y4480319D01*
X13617089Y4400000D01*
X13625000Y4319681D01*
X13625000Y4319678D01*
X13648657Y4079484D01*
X13742148Y3771285D01*
X13893970Y3487248D01*
X14098287Y3238286D01*
X14160682Y3187080D01*
X15247089Y2100672D01*
X15298296Y2038276D01*
X15547258Y1833959D01*
X15831295Y1682138D01*
X16139494Y1588647D01*
X16379688Y1564990D01*
X16379690Y1564990D01*
X16460009Y1557079D01*
X16540329Y1564990D01*
X28688822Y1564990D01*
X28769141Y1557079D01*
X28849460Y1564990D01*
X28849463Y1564990D01*
X29089657Y1588647D01*
X29397856Y1682138D01*
X29681893Y1833959D01*
X29930855Y2038276D01*
X29982066Y2100677D01*
X31764710Y3883321D01*
X31673969Y3772752D01*
X31522148Y3488715D01*
X31428657Y3180516D01*
X31397089Y2860000D01*
X31428657Y2539484D01*
X31522148Y2231285D01*
X31673969Y1947248D01*
X31878286Y1698286D01*
X32127248Y1493969D01*
X32411285Y1342148D01*
X32719484Y1248657D01*
X32959678Y1225000D01*
X44546398Y1225000D01*
X44626717Y1217089D01*
X44707036Y1225000D01*
X44707039Y1225000D01*
X44947233Y1248657D01*
X45255432Y1342148D01*
X45539469Y1493969D01*
X45788431Y1698286D01*
X45839642Y1760687D01*
X56051420Y11972463D01*
X56029509Y11750000D01*
X56051423Y11527502D01*
X56116324Y11313554D01*
X56221717Y11116378D01*
X56363552Y10943552D01*
X56536378Y10801717D01*
X56733554Y10696324D01*
X56947502Y10631423D01*
X57170000Y10609509D01*
X57392498Y10631423D01*
X57606446Y10696324D01*
X57803622Y10801717D01*
X57933143Y10908012D01*
X64575132Y17550000D01*
X69598251Y17550000D01*
X69654002Y17544509D01*
X69709753Y17550000D01*
X86264869Y17550000D01*
X100448009Y3366859D01*
X100483551Y3323551D01*
X100656377Y3181716D01*
X100853553Y3076324D01*
X101067501Y3011423D01*
X101234248Y2995000D01*
X101234257Y2995000D01*
X101289999Y2989510D01*
X101345741Y2995000D01*
X102945752Y2995000D01*
X103112499Y3011423D01*
X103326447Y3076324D01*
X103523623Y3181716D01*
X103696449Y3323551D01*
X103838284Y3496377D01*
X103943676Y3693553D01*
X104008577Y3907501D01*
X104030491Y4130000D01*
X104008577Y4352499D01*
X103943676Y4566447D01*
X103838284Y4763623D01*
X103696449Y4936449D01*
X103523623Y5078284D01*
X103326447Y5183676D01*
X103112499Y5248577D01*
X102945752Y5265000D01*
X101760132Y5265000D01*
X87576996Y19448135D01*
X87541449Y19491449D01*
X87368623Y19633284D01*
X87171447Y19738676D01*
X86957499Y19803577D01*
X86790752Y19820000D01*
X86790751Y19820000D01*
X86735000Y19825491D01*
X86679249Y19820000D01*
X72394133Y19820000D01*
X99843141Y47269007D01*
X99886449Y47304549D01*
X100028284Y47477375D01*
X100133676Y47674551D01*
X100198577Y47888499D01*
X100215000Y48055246D01*
X100215000Y48055255D01*
X100220490Y48110997D01*
X100215000Y48166739D01*
X100215000Y61335752D01*
X100198577Y61502499D01*
X100137802Y61702846D01*
X100237536Y61553583D01*
X100553583Y61237536D01*
X100925215Y60989220D01*
X101338151Y60818176D01*
X101776521Y60730979D01*
X102223479Y60730979D01*
X102661849Y60818176D01*
X103074785Y60989220D01*
X103446417Y61237536D01*
X103762464Y61553583D01*
X104010780Y61925215D01*
X104181824Y62338151D01*
X104269021Y62776521D01*
X104269021Y63223479D01*
X104181824Y63661849D01*
X104010780Y64074785D01*
X103762464Y64446417D01*
X103446417Y64762464D01*
X103074785Y65010780D01*
X102661849Y65181824D01*
X102223479Y65269021D01*
X101776521Y65269021D01*
X101338151Y65181824D01*
X100925215Y65010780D01*
X100553583Y64762464D01*
X100237536Y64446417D01*
X99989220Y64074785D01*
X99818176Y63661849D01*
X99730979Y63223479D01*
X99730979Y62776521D01*
X99818176Y62338151D01*
X99959106Y61997916D01*
X99886449Y62086449D01*
X99713623Y62228284D01*
X99516447Y62333676D01*
X99302499Y62398577D01*
X99080000Y62420491D01*
X98857502Y62398577D01*
X98643554Y62333676D01*
X98446378Y62228284D01*
X98273552Y62086449D01*
X98131717Y61913623D01*
X98026325Y61716447D01*
X97961424Y61502499D01*
X97945001Y61335752D01*
X97945000Y52110769D01*
X97896157Y52267472D01*
X97632117Y52393371D01*
X97348589Y52465339D01*
X97056469Y52480611D01*
X96766981Y52438599D01*
X96491253Y52340919D01*
X96353843Y52267472D01*
X96276208Y52018397D01*
X97125000Y51169605D01*
X97139143Y51183747D01*
X97318748Y51004142D01*
X97304605Y50990000D01*
X97318748Y50975857D01*
X97139143Y50796252D01*
X97125000Y50810395D01*
X96276208Y49961603D01*
X96351729Y49719311D01*
X96178368Y49603475D01*
X95971525Y49396632D01*
X95855000Y49222240D01*
X95738475Y49396632D01*
X95531632Y49603475D01*
X95358271Y49719311D01*
X95433792Y49961603D01*
X94585000Y50810395D01*
X93736208Y49961603D01*
X93811729Y49719311D01*
X93638368Y49603475D01*
X93431525Y49396632D01*
X93315000Y49222240D01*
X93198475Y49396632D01*
X92991632Y49603475D01*
X92818271Y49719311D01*
X92893792Y49961603D01*
X92045000Y50810395D01*
X91196208Y49961603D01*
X91271729Y49719311D01*
X91098368Y49603475D01*
X90891525Y49396632D01*
X90775000Y49222240D01*
X90658475Y49396632D01*
X90451632Y49603475D01*
X90277240Y49720000D01*
X90451632Y49836525D01*
X90658475Y50043368D01*
X90774311Y50216729D01*
X91016603Y50141208D01*
X91865395Y50990000D01*
X92224605Y50990000D01*
X93073397Y50141208D01*
X93315000Y50216514D01*
X93556603Y50141208D01*
X94405395Y50990000D01*
X94764605Y50990000D01*
X95613397Y50141208D01*
X95855000Y50216514D01*
X96096603Y50141208D01*
X96945395Y50990000D01*
X96096603Y51838792D01*
X95855000Y51763486D01*
X95613397Y51838792D01*
X94764605Y50990000D01*
X94405395Y50990000D01*
X93556603Y51838792D01*
X93315000Y51763486D01*
X93073397Y51838792D01*
X92224605Y50990000D01*
X91865395Y50990000D01*
X91016603Y51838792D01*
X90774311Y51763271D01*
X90658475Y51936632D01*
X90576710Y52018397D01*
X91196208Y52018397D01*
X92045000Y51169605D01*
X92893792Y52018397D01*
X93736208Y52018397D01*
X94585000Y51169605D01*
X95433792Y52018397D01*
X95356157Y52267472D01*
X95092117Y52393371D01*
X94808589Y52465339D01*
X94516469Y52480611D01*
X94226981Y52438599D01*
X93951253Y52340919D01*
X93813843Y52267472D01*
X93736208Y52018397D01*
X92893792Y52018397D01*
X92816157Y52267472D01*
X92552117Y52393371D01*
X92268589Y52465339D01*
X91976469Y52480611D01*
X91686981Y52438599D01*
X91411253Y52340919D01*
X91273843Y52267472D01*
X91196208Y52018397D01*
X90576710Y52018397D01*
X90451632Y52143475D01*
X90208411Y52305990D01*
X89938158Y52417932D01*
X89651260Y52475000D01*
X89358740Y52475000D01*
X89071842Y52417932D01*
X88801589Y52305990D01*
X88558368Y52143475D01*
X88351525Y51936632D01*
X88235000Y51762240D01*
X88118475Y51936632D01*
X87911632Y52143475D01*
X87668411Y52305990D01*
X87398158Y52417932D01*
X87111260Y52475000D01*
X86818740Y52475000D01*
X86531842Y52417932D01*
X86261589Y52305990D01*
X86018368Y52143475D01*
X85811525Y51936632D01*
X85695000Y51762240D01*
X85578475Y51936632D01*
X85371632Y52143475D01*
X85128411Y52305990D01*
X84858158Y52417932D01*
X84571260Y52475000D01*
X84278740Y52475000D01*
X83991842Y52417932D01*
X83721589Y52305990D01*
X83478368Y52143475D01*
X83271525Y51936632D01*
X83155000Y51762240D01*
X83038475Y51936632D01*
X82831632Y52143475D01*
X82588411Y52305990D01*
X82318158Y52417932D01*
X82031260Y52475000D01*
X81738740Y52475000D01*
X81451842Y52417932D01*
X81181589Y52305990D01*
X80938368Y52143475D01*
X80731525Y51936632D01*
X80615000Y51762240D01*
X80498475Y51936632D01*
X80291632Y52143475D01*
X80048411Y52305990D01*
X79778158Y52417932D01*
X79491260Y52475000D01*
X79198740Y52475000D01*
X78911842Y52417932D01*
X78641589Y52305990D01*
X78398368Y52143475D01*
X78191525Y51936632D01*
X78075000Y51762240D01*
X77958475Y51936632D01*
X77751632Y52143475D01*
X77508411Y52305990D01*
X77238158Y52417932D01*
X76951260Y52475000D01*
X76658740Y52475000D01*
X76371842Y52417932D01*
X76101589Y52305990D01*
X75858368Y52143475D01*
X75651525Y51936632D01*
X75535000Y51762240D01*
X75418475Y51936632D01*
X75211632Y52143475D01*
X74968411Y52305990D01*
X74815000Y52369535D01*
X74815000Y54985752D01*
X74798577Y55152499D01*
X74733676Y55366447D01*
X74628284Y55563623D01*
X74486449Y55736449D01*
X74313623Y55878284D01*
X74116446Y55983676D01*
X73902498Y56048577D01*
X73680000Y56070491D01*
X73457501Y56048577D01*
X73243553Y55983676D01*
X73046377Y55878284D01*
X72873551Y55736449D01*
X72731716Y55563623D01*
X72626324Y55366446D01*
X72561423Y55152498D01*
X72545000Y54985751D01*
X72545001Y52228087D01*
X72428411Y52305990D01*
X72158158Y52417932D01*
X71871260Y52475000D01*
X71578740Y52475000D01*
X71291842Y52417932D01*
X71021589Y52305990D01*
X70778368Y52143475D01*
X70571525Y51936632D01*
X70455000Y51762240D01*
X70338475Y51936632D01*
X70131632Y52143475D01*
X69888411Y52305990D01*
X69618158Y52417932D01*
X69331260Y52475000D01*
X69038740Y52475000D01*
X68751842Y52417932D01*
X68481589Y52305990D01*
X68238368Y52143475D01*
X68031525Y51936632D01*
X67915000Y51762240D01*
X67798475Y51936632D01*
X67591632Y52143475D01*
X67348411Y52305990D01*
X67078158Y52417932D01*
X66791260Y52475000D01*
X66498740Y52475000D01*
X66211842Y52417932D01*
X65941589Y52305990D01*
X65698368Y52143475D01*
X65491525Y51936632D01*
X65375000Y51762240D01*
X65258475Y51936632D01*
X65051632Y52143475D01*
X64808411Y52305990D01*
X64538158Y52417932D01*
X64251260Y52475000D01*
X63958740Y52475000D01*
X63671842Y52417932D01*
X63401589Y52305990D01*
X63158368Y52143475D01*
X62951525Y51936632D01*
X62835000Y51762240D01*
X62718475Y51936632D01*
X62511632Y52143475D01*
X62268411Y52305990D01*
X61998158Y52417932D01*
X61711260Y52475000D01*
X61418740Y52475000D01*
X61131842Y52417932D01*
X60861589Y52305990D01*
X60618368Y52143475D01*
X60411525Y51936632D01*
X60249010Y51693411D01*
X60137068Y51423158D01*
X60080000Y51136260D01*
X60080000Y50843740D01*
X60137068Y50556842D01*
X60249010Y50286589D01*
X60411525Y50043368D01*
X60618368Y49836525D01*
X60792760Y49720000D01*
X60618368Y49603475D01*
X60411525Y49396632D01*
X60249010Y49153411D01*
X60137068Y48883158D01*
X60080000Y48596260D01*
X60080000Y48303740D01*
X60137068Y48016842D01*
X60249010Y47746589D01*
X60411525Y47503368D01*
X60618368Y47296525D01*
X60861589Y47134010D01*
X61131842Y47022068D01*
X61418740Y46965000D01*
X61711260Y46965000D01*
X61998158Y47022068D01*
X62268411Y47134010D01*
X62511632Y47296525D01*
X62718475Y47503368D01*
X62835000Y47677760D01*
X62951525Y47503368D01*
X62970000Y47484893D01*
X62970001Y19155133D01*
X57460705Y13645836D01*
X57463067Y13653623D01*
X57511343Y13812766D01*
X57542911Y14133283D01*
X57535000Y14213605D01*
X57535000Y49930322D01*
X57511343Y50170516D01*
X57417852Y50478715D01*
X57266031Y50762752D01*
X57061714Y51011714D01*
X56812751Y51216031D01*
X56528714Y51367852D01*
X56220515Y51461343D01*
X55900000Y51492911D01*
X55579484Y51461343D01*
X55271285Y51367852D01*
X54987248Y51216031D01*
X54738286Y51011714D01*
X54533969Y50762751D01*
X54465010Y50633738D01*
X54465010Y54578822D01*
X54472921Y54659142D01*
X54463054Y54759324D01*
X54441353Y54979657D01*
X54347862Y55287856D01*
X54196041Y55571893D01*
X53991724Y55820855D01*
X53929329Y55872061D01*
X49962076Y59839313D01*
X49910865Y59901714D01*
X49661903Y60106031D01*
X49377866Y60257852D01*
X49069667Y60351343D01*
X48829473Y60375000D01*
X48829470Y60375000D01*
X48749151Y60382911D01*
X48668832Y60375000D01*
X48199678Y60375000D01*
X47959484Y60351343D01*
X47651285Y60257852D01*
X47367248Y60106031D01*
X47118286Y59901714D01*
X46913969Y59652752D01*
X46762148Y59368715D01*
X46668657Y59060516D01*
X46637089Y58740000D01*
X46668657Y58419484D01*
X46762148Y58111285D01*
X46913969Y57827248D01*
X47118286Y57578286D01*
X47367248Y57373969D01*
X47651285Y57222148D01*
X47959484Y57128657D01*
X48057954Y57118959D01*
X50065173Y55111740D01*
X49950986Y55050706D01*
X49724866Y54865134D01*
X49672777Y54801663D01*
X49618405Y54903386D01*
X49507962Y55037962D01*
X49373386Y55148405D01*
X49219850Y55230472D01*
X49053254Y55281008D01*
X48880000Y55298072D01*
X47680000Y55298072D01*
X47506746Y55281008D01*
X47340150Y55230472D01*
X47186614Y55148405D01*
X47052038Y55037962D01*
X46941595Y54903386D01*
X46859528Y54749850D01*
X46808992Y54583254D01*
X46791928Y54410000D01*
X46791928Y54059684D01*
X46105000Y54746612D01*
X46105000Y61179826D01*
X46381286Y61032148D01*
X46689485Y60938657D01*
X47010000Y60907089D01*
X47330516Y60938657D01*
X47638715Y61032148D01*
X47922752Y61183969D01*
X48171714Y61388286D01*
X48376031Y61637248D01*
X48392450Y61667966D01*
X48421770Y61624085D01*
X48624085Y61421770D01*
X48861983Y61262811D01*
X49126321Y61153319D01*
X49406941Y61097500D01*
X49693059Y61097500D01*
X49973679Y61153319D01*
X50238017Y61262811D01*
X50475915Y61421770D01*
X50678230Y61624085D01*
X50837189Y61861983D01*
X50946681Y62126321D01*
X51002500Y62406941D01*
X51002500Y62693059D01*
X50946681Y62973679D01*
X50843211Y63223479D01*
X55730979Y63223479D01*
X55730979Y62776521D01*
X55818176Y62338151D01*
X55989220Y61925215D01*
X56237536Y61553583D01*
X56553583Y61237536D01*
X56925215Y60989220D01*
X57338151Y60818176D01*
X57776521Y60730979D01*
X58223479Y60730979D01*
X58661849Y60818176D01*
X59074785Y60989220D01*
X59446417Y61237536D01*
X59762464Y61553583D01*
X60010780Y61925215D01*
X60181824Y62338151D01*
X60269021Y62776521D01*
X60269021Y63223479D01*
X60181824Y63661849D01*
X60010780Y64074785D01*
X59762464Y64446417D01*
X59446417Y64762464D01*
X59074785Y65010780D01*
X58661849Y65181824D01*
X58223479Y65269021D01*
X57776521Y65269021D01*
X57338151Y65181824D01*
X56925215Y65010780D01*
X56553583Y64762464D01*
X56237536Y64446417D01*
X55989220Y64074785D01*
X55818176Y63661849D01*
X55730979Y63223479D01*
X50843211Y63223479D01*
X50837189Y63238017D01*
X50678230Y63475915D01*
X50475915Y63678230D01*
X50238017Y63837189D01*
X49973679Y63946681D01*
X49693059Y64002500D01*
X49406941Y64002500D01*
X49126321Y63946681D01*
X48861983Y63837189D01*
X48652001Y63696883D01*
X48652911Y63706119D01*
X48621343Y64026636D01*
X48527852Y64334834D01*
X48477255Y64429494D01*
X48376031Y64618871D01*
X48171714Y64867833D01*
X48109314Y64919043D01*
X47179034Y65849323D01*
X47127823Y65911724D01*
X46878861Y66116041D01*
X46594824Y66267862D01*
X46357017Y66340000D01*
X109340000Y66340000D01*
X109340001Y660000D01*
X660000Y660000D01*
X660000Y66340000D01*
X36943200Y66340000D01*
X36705393Y66267862D01*
%TA.AperFunction,Conductor*%
D22*
G36*
X36705393Y66267862D02*
G01*
X36421356Y66116041D01*
X36172394Y65911724D01*
X36121187Y65849328D01*
X34480685Y64208825D01*
X34418286Y64157616D01*
X34213969Y63908654D01*
X34062148Y63624617D01*
X34052228Y63591917D01*
X33965915Y63678230D01*
X33728017Y63837189D01*
X33463679Y63946681D01*
X33183059Y64002500D01*
X32896941Y64002500D01*
X32616321Y63946681D01*
X32351983Y63837189D01*
X32114085Y63678230D01*
X31911770Y63475915D01*
X31752811Y63238017D01*
X31643319Y62973679D01*
X31587500Y62693059D01*
X31587500Y62406941D01*
X31643319Y62126321D01*
X31752811Y61861983D01*
X31911770Y61624085D01*
X32114085Y61421770D01*
X32351983Y61262811D01*
X32616321Y61153319D01*
X32896941Y61097500D01*
X33183059Y61097500D01*
X33463679Y61153319D01*
X33728017Y61262811D01*
X33945000Y61407795D01*
X33945001Y56280329D01*
X33937089Y56200000D01*
X33968658Y55879484D01*
X34062148Y55571286D01*
X34171637Y55366447D01*
X34213970Y55287248D01*
X34418287Y55038286D01*
X34480682Y54987080D01*
X36640031Y52827730D01*
X36648992Y52736746D01*
X36699528Y52570150D01*
X36781595Y52416614D01*
X36892038Y52282038D01*
X37026614Y52171595D01*
X37180150Y52089528D01*
X37346746Y52038992D01*
X37520000Y52021928D01*
X38070869Y52021928D01*
X38119999Y52017089D01*
X38169129Y52021928D01*
X38720000Y52021928D01*
X38893254Y52038992D01*
X39059850Y52089528D01*
X39213386Y52171595D01*
X39347962Y52282038D01*
X39458405Y52416614D01*
X39512777Y52518337D01*
X39564866Y52454866D01*
X39790987Y52269294D01*
X40048967Y52131401D01*
X40328890Y52046487D01*
X40620000Y52017815D01*
X40911111Y52046487D01*
X41191034Y52131401D01*
X41449014Y52269294D01*
X41675134Y52454866D01*
X41860706Y52680986D01*
X41998599Y52938967D01*
X42083513Y53218890D01*
X42105000Y53437051D01*
X42105000Y53882950D01*
X42083513Y54101111D01*
X41998599Y54381034D01*
X41860706Y54639014D01*
X41675134Y54865134D01*
X41449013Y55050706D01*
X41191033Y55188599D01*
X40911110Y55273513D01*
X40620000Y55302185D01*
X40328889Y55273513D01*
X40048966Y55188599D01*
X39790986Y55050706D01*
X39564866Y54865134D01*
X39512777Y54801663D01*
X39458405Y54903386D01*
X39347962Y55037962D01*
X39213386Y55148405D01*
X39059850Y55230472D01*
X38893254Y55281008D01*
X38802270Y55289969D01*
X37215000Y56877238D01*
X37215000Y61407795D01*
X37431983Y61262811D01*
X37696321Y61153319D01*
X37976941Y61097500D01*
X38263059Y61097500D01*
X38543679Y61153319D01*
X38808017Y61262811D01*
X39045915Y61421770D01*
X39248230Y61624085D01*
X39407189Y61861983D01*
X39516681Y62126321D01*
X39572500Y62406941D01*
X39572500Y62693059D01*
X39516681Y62973679D01*
X39458140Y63115010D01*
X42932824Y63115010D01*
X42858658Y62870516D01*
X42835001Y62630322D01*
X42835000Y54149694D01*
X42827089Y54069374D01*
X42835000Y53989055D01*
X42835000Y53989053D01*
X42858657Y53748859D01*
X42952148Y53440660D01*
X43103969Y53156623D01*
X43308286Y52907660D01*
X43370687Y52856449D01*
X48495011Y47732124D01*
X48495011Y44890121D01*
X47851996Y45533135D01*
X47816449Y45576449D01*
X47643623Y45718284D01*
X47446447Y45823676D01*
X47232499Y45888577D01*
X47065752Y45905000D01*
X47065751Y45905000D01*
X47010000Y45910491D01*
X46954249Y45905000D01*
X43144248Y45905000D01*
X42977501Y45888577D01*
X42763553Y45823676D01*
X42566377Y45718284D01*
X42393551Y45576449D01*
X42251716Y45403623D01*
X42146324Y45206447D01*
X42081423Y44992499D01*
X42059509Y44770000D01*
X42081423Y44547501D01*
X42146324Y44333553D01*
X42251716Y44136377D01*
X42393551Y43963551D01*
X42566377Y43821716D01*
X42763553Y43716324D01*
X42977501Y43651423D01*
X43144248Y43635000D01*
X46539869Y43635000D01*
X47456856Y42718012D01*
X47586376Y42611717D01*
X47783552Y42506325D01*
X47997500Y42441424D01*
X48219999Y42419510D01*
X48442498Y42441424D01*
X48495011Y42457354D01*
X48495011Y39970928D01*
X48371110Y40008513D01*
X48080000Y40037185D01*
X47788889Y40008513D01*
X47508966Y39923599D01*
X47250986Y39785706D01*
X47024866Y39600134D01*
X46839294Y39374013D01*
X46830000Y39356626D01*
X46820706Y39374014D01*
X46635134Y39600134D01*
X46409013Y39785706D01*
X46151033Y39923599D01*
X45871110Y40008513D01*
X45580000Y40037185D01*
X45569027Y40036104D01*
X44746986Y40858145D01*
X44711439Y40901459D01*
X44538613Y41043294D01*
X44341437Y41148686D01*
X44127489Y41213587D01*
X43960742Y41230010D01*
X43960741Y41230010D01*
X43904990Y41235501D01*
X43849239Y41230010D01*
X42075258Y41230010D01*
X37516086Y45789182D01*
X37661849Y45818176D01*
X38074785Y45989220D01*
X38446417Y46237536D01*
X38762464Y46553583D01*
X39010780Y46925215D01*
X39181824Y47338151D01*
X39269021Y47776521D01*
X39269021Y48223479D01*
X39181824Y48661849D01*
X39010780Y49074785D01*
X38762464Y49446417D01*
X38446417Y49762464D01*
X38074785Y50010780D01*
X37661849Y50181824D01*
X37223479Y50269021D01*
X36776521Y50269021D01*
X36338151Y50181824D01*
X35925215Y50010780D01*
X35553583Y49762464D01*
X35237536Y49446417D01*
X34989220Y49074785D01*
X34818176Y48661849D01*
X34789182Y48516085D01*
X31515000Y51790267D01*
X31515000Y52577183D01*
X31620706Y52705986D01*
X31758599Y52963967D01*
X31843513Y53243890D01*
X31865000Y53462051D01*
X31865000Y53857950D01*
X31843513Y54076111D01*
X31758599Y54356034D01*
X31620706Y54614014D01*
X31435134Y54840134D01*
X31209013Y55025706D01*
X30951033Y55163599D01*
X30671110Y55248513D01*
X30380000Y55277185D01*
X30088889Y55248513D01*
X29808966Y55163599D01*
X29550986Y55025706D01*
X29324866Y54840134D01*
X29139294Y54614013D01*
X29130000Y54596626D01*
X29120706Y54614014D01*
X28935134Y54840134D01*
X28709013Y55025706D01*
X28451033Y55163599D01*
X28171110Y55248513D01*
X27880000Y55277185D01*
X27588889Y55248513D01*
X27308966Y55163599D01*
X27050986Y55025706D01*
X26824866Y54840134D01*
X26639294Y54614013D01*
X26630000Y54596626D01*
X26620706Y54614014D01*
X26435134Y54840134D01*
X26209013Y55025706D01*
X25951033Y55163599D01*
X25671110Y55248513D01*
X25380000Y55277185D01*
X25088889Y55248513D01*
X24808966Y55163599D01*
X24550986Y55025706D01*
X24324866Y54840134D01*
X24272777Y54776663D01*
X24218405Y54878386D01*
X24107962Y55012962D01*
X23973386Y55123405D01*
X23819850Y55205472D01*
X23653254Y55256008D01*
X23480000Y55273072D01*
X22280000Y55273072D01*
X22106746Y55256008D01*
X21940150Y55205472D01*
X21786614Y55123405D01*
X21652038Y55012962D01*
X21541595Y54878386D01*
X21459528Y54724850D01*
X21408992Y54558254D01*
X21391928Y54385000D01*
X21391928Y52935000D01*
X21408992Y52761746D01*
X21459528Y52595150D01*
X21541595Y52441614D01*
X21652038Y52307038D01*
X21745001Y52230746D01*
X21745001Y51175761D01*
X21739509Y51120000D01*
X21761423Y50897502D01*
X21826324Y50683554D01*
X21856705Y50626716D01*
X21931717Y50486377D01*
X22073552Y50313551D01*
X22116860Y50278009D01*
X26632686Y45762182D01*
X14602951Y45762182D01*
X8189958Y52175173D01*
X8219858Y52185648D01*
X8471193Y52332504D01*
X8689049Y52525571D01*
X8845538Y52731722D01*
X8859294Y52705986D01*
X9044866Y52479866D01*
X9270987Y52294294D01*
X9528967Y52156401D01*
X9808890Y52071487D01*
X10100000Y52042815D01*
X10391111Y52071487D01*
X10671034Y52156401D01*
X10929014Y52294294D01*
X11155134Y52479866D01*
X11340706Y52705986D01*
X11350000Y52723374D01*
X11359294Y52705986D01*
X11544866Y52479866D01*
X11770987Y52294294D01*
X12028967Y52156401D01*
X12308890Y52071487D01*
X12600000Y52042815D01*
X12891111Y52071487D01*
X13171034Y52156401D01*
X13429014Y52294294D01*
X13655134Y52479866D01*
X13840706Y52705986D01*
X13850000Y52723374D01*
X13859294Y52705986D01*
X14044866Y52479866D01*
X14270987Y52294294D01*
X14528967Y52156401D01*
X14808890Y52071487D01*
X15100000Y52042815D01*
X15391111Y52071487D01*
X15671034Y52156401D01*
X15929014Y52294294D01*
X16155134Y52479866D01*
X16340706Y52705986D01*
X16478599Y52963967D01*
X16563513Y53243890D01*
X16585000Y53462051D01*
X16585000Y53857950D01*
X16563513Y54076111D01*
X16478599Y54356034D01*
X16340706Y54614014D01*
X16155134Y54840134D01*
X15929013Y55025706D01*
X15671033Y55163599D01*
X15391110Y55248513D01*
X15100000Y55277185D01*
X14808889Y55248513D01*
X14528966Y55163599D01*
X14270986Y55025706D01*
X14044866Y54840134D01*
X13859294Y54614013D01*
X13850000Y54596626D01*
X13840706Y54614014D01*
X13655134Y54840134D01*
X13429013Y55025706D01*
X13171033Y55163599D01*
X12891110Y55248513D01*
X12600000Y55277185D01*
X12308889Y55248513D01*
X12028966Y55163599D01*
X11770986Y55025706D01*
X11544866Y54840134D01*
X11359294Y54614013D01*
X11350000Y54596626D01*
X11340706Y54614014D01*
X11155134Y54840134D01*
X10929013Y55025706D01*
X10671033Y55163599D01*
X10391110Y55248513D01*
X10100000Y55277185D01*
X9808889Y55248513D01*
X9528966Y55163599D01*
X9270986Y55025706D01*
X9044866Y54840134D01*
X8859294Y54614013D01*
X8845538Y54588278D01*
X8689049Y54794429D01*
X8471193Y54987496D01*
X8219858Y55134352D01*
X7956890Y55226476D01*
X7727000Y55105155D01*
X7727000Y53787000D01*
X7747000Y53787000D01*
X7747000Y53533000D01*
X7727000Y53533000D01*
X7727000Y53513000D01*
X7473000Y53513000D01*
X7473000Y53533000D01*
X7453000Y53533000D01*
X7453000Y53787000D01*
X7473000Y53787000D01*
X7473000Y55105155D01*
X7243110Y55226476D01*
X6980142Y55134352D01*
X6728807Y54987496D01*
X6510951Y54794429D01*
X6494714Y54773039D01*
X6438405Y54878386D01*
X6327962Y55012962D01*
X6193386Y55123405D01*
X6039850Y55205472D01*
X5873254Y55256008D01*
X5700000Y55273072D01*
X4500000Y55273072D01*
X4326746Y55256008D01*
X4160150Y55205472D01*
X4006614Y55123405D01*
X3872038Y55012962D01*
X3761595Y54878386D01*
X3679528Y54724850D01*
X3628992Y54558254D01*
X3611928Y54385000D01*
X3611928Y53663950D01*
X3609746Y53659868D01*
X3544845Y53445920D01*
X3522931Y53223422D01*
X3528423Y53167661D01*
X3528422Y44145850D01*
X3522931Y44090098D01*
X3532155Y43996448D01*
X3544845Y43867600D01*
X3609746Y43653652D01*
X3715138Y43456475D01*
X3856973Y43283649D01*
X3900287Y43248102D01*
X4700317Y42448072D01*
X4350000Y42448072D01*
X4176746Y42431008D01*
X4010150Y42380472D01*
X3856614Y42298405D01*
X3722038Y42187962D01*
X3611595Y42053386D01*
X3529528Y41899850D01*
X3478992Y41733254D01*
X3461928Y41560000D01*
X3461928Y40927060D01*
X2636855Y40101986D01*
X2593541Y40066439D01*
X2451706Y39893613D01*
X2349339Y39702095D01*
X2346314Y39696436D01*
X2281413Y39482488D01*
X2259499Y39259990D01*
X2264990Y39204239D01*
X2264991Y21125772D01*
X2259499Y21070010D01*
X2281413Y20847512D01*
X2346314Y20633564D01*
X2346315Y20633563D01*
X2451707Y20436387D01*
X2593542Y20263561D01*
X2636850Y20228019D01*
X5606856Y17258012D01*
X5736376Y17151717D01*
X5933552Y17046325D01*
X6147500Y16981424D01*
X6369999Y16959510D01*
X6592498Y16981424D01*
X6806446Y17046325D01*
X7003622Y17151717D01*
X7176448Y17293552D01*
X7318283Y17466378D01*
X7423675Y17663554D01*
X7488576Y17877502D01*
X7495000Y17942730D01*
X7495000Y14096607D01*
X7479188Y14044482D01*
X7466928Y13920000D01*
X7466928Y12120000D01*
X7479188Y11995518D01*
X7515498Y11875820D01*
X7574463Y11765506D01*
X7653815Y11668815D01*
X7750506Y11589463D01*
X7860820Y11530498D01*
X7980518Y11494188D01*
X8105000Y11481928D01*
X8562941Y11481928D01*
X9045001Y10999867D01*
X9045000Y7992170D01*
X9010780Y8074785D01*
X8762464Y8446417D01*
X8446417Y8762464D01*
X8074785Y9010780D01*
X7661849Y9181824D01*
X7223479Y9269021D01*
X6776521Y9269021D01*
X6338151Y9181824D01*
X5925215Y9010780D01*
X5553583Y8762464D01*
X5237536Y8446417D01*
X4989220Y8074785D01*
X4818176Y7661849D01*
X4730979Y7223479D01*
X4730979Y6776521D01*
X4818176Y6338151D01*
X4989220Y5925215D01*
X5237536Y5553583D01*
X5553583Y5237536D01*
X5925215Y4989220D01*
X6338151Y4818176D01*
X6776521Y4730979D01*
X7223479Y4730979D01*
X7661849Y4818176D01*
X8074785Y4989220D01*
X8446417Y5237536D01*
X8762464Y5553583D01*
X9010780Y5925215D01*
X9133183Y6220722D01*
X9231716Y6036377D01*
X9373551Y5863551D01*
X9546377Y5721716D01*
X9743553Y5616324D01*
X9957501Y5551423D01*
X10180000Y5529509D01*
X10402498Y5551423D01*
X10616446Y5616324D01*
X10813623Y5721716D01*
X10986449Y5863551D01*
X11128284Y6036377D01*
X11233676Y6233553D01*
X11298577Y6447501D01*
X11315000Y6614248D01*
X11315000Y11414249D01*
X11320491Y11470001D01*
X11319316Y11481928D01*
X12255000Y11481928D01*
X12379482Y11494188D01*
X12499180Y11530498D01*
X12609494Y11589463D01*
X12706185Y11668815D01*
X12785537Y11765506D01*
X12844502Y11875820D01*
X12849490Y11892262D01*
X12942499Y11901423D01*
X13156447Y11966324D01*
X13353623Y12071716D01*
X13526449Y12213551D01*
X13561996Y12256865D01*
X15046692Y13741561D01*
X17050000Y13741561D01*
X17050000Y13488439D01*
X17099381Y13240179D01*
X17196247Y13006324D01*
X17336875Y12795860D01*
X17515860Y12616875D01*
X17726324Y12476247D01*
X17960179Y12379381D01*
X18208439Y12330000D01*
X18461561Y12330000D01*
X18709821Y12379381D01*
X18943676Y12476247D01*
X19154140Y12616875D01*
X19333125Y12795860D01*
X19473753Y13006324D01*
X19570619Y13240179D01*
X19620000Y13488439D01*
X19620000Y13741561D01*
X19570619Y13989821D01*
X19473753Y14223676D01*
X19391896Y14346184D01*
X20610000Y14346184D01*
X20610000Y14043816D01*
X20668989Y13747257D01*
X20784701Y13467905D01*
X20952688Y13216495D01*
X21166495Y13002688D01*
X21417905Y12834701D01*
X21697257Y12718989D01*
X21993816Y12660000D01*
X22296184Y12660000D01*
X22592743Y12718989D01*
X22872095Y12834701D01*
X23123505Y13002688D01*
X23337312Y13216495D01*
X23505299Y13467905D01*
X23621011Y13747257D01*
X23680000Y14043816D01*
X23680000Y14346184D01*
X23621011Y14642743D01*
X23505299Y14922095D01*
X23337312Y15173505D01*
X23123505Y15387312D01*
X22872095Y15555299D01*
X22592743Y15671011D01*
X22296184Y15730000D01*
X21993816Y15730000D01*
X21697257Y15671011D01*
X21417905Y15555299D01*
X21166495Y15387312D01*
X20952688Y15173505D01*
X20784701Y14922095D01*
X20668989Y14642743D01*
X20610000Y14346184D01*
X19391896Y14346184D01*
X19333125Y14434140D01*
X19154140Y14613125D01*
X18943676Y14753753D01*
X18709821Y14850619D01*
X18461561Y14900000D01*
X18208439Y14900000D01*
X17960179Y14850619D01*
X17726324Y14753753D01*
X17515860Y14613125D01*
X17336875Y14434140D01*
X17196247Y14223676D01*
X17099381Y13989821D01*
X17050000Y13741561D01*
X15046692Y13741561D01*
X15965132Y14660000D01*
X16046184Y14660000D01*
X16342743Y14718989D01*
X16622095Y14834701D01*
X16873505Y15002688D01*
X17087312Y15216495D01*
X17255299Y15467905D01*
X17371011Y15747257D01*
X17430000Y16043816D01*
X17430000Y16346184D01*
X26860000Y16346184D01*
X26860000Y16043816D01*
X26918989Y15747257D01*
X27034701Y15467905D01*
X27202688Y15216495D01*
X27416495Y15002688D01*
X27667905Y14834701D01*
X27947257Y14718989D01*
X28243816Y14660000D01*
X28546184Y14660000D01*
X28842743Y14718989D01*
X29122095Y14834701D01*
X29373505Y15002688D01*
X29587312Y15216495D01*
X29755299Y15467905D01*
X29871011Y15747257D01*
X29930000Y16043816D01*
X29930000Y16346184D01*
X29871011Y16642743D01*
X29755299Y16922095D01*
X29587312Y17173505D01*
X29373505Y17387312D01*
X29122095Y17555299D01*
X28842743Y17671011D01*
X28546184Y17730000D01*
X28243816Y17730000D01*
X27947257Y17671011D01*
X27667905Y17555299D01*
X27416495Y17387312D01*
X27202688Y17173505D01*
X27034701Y16922095D01*
X26918989Y16642743D01*
X26860000Y16346184D01*
X17430000Y16346184D01*
X17371011Y16642743D01*
X17255299Y16922095D01*
X17087312Y17173505D01*
X16873505Y17387312D01*
X16622095Y17555299D01*
X16342743Y17671011D01*
X16046184Y17730000D01*
X15743816Y17730000D01*
X15447257Y17671011D01*
X15167905Y17555299D01*
X14916495Y17387312D01*
X14702688Y17173505D01*
X14534701Y16922095D01*
X14418989Y16642743D01*
X14360000Y16346184D01*
X14360000Y16265132D01*
X12567730Y14472861D01*
X12499180Y14509502D01*
X12379482Y14545812D01*
X12255000Y14558072D01*
X11205000Y14558072D01*
X11080518Y14545812D01*
X10960820Y14509502D01*
X10850506Y14450537D01*
X10753815Y14371185D01*
X10674463Y14274494D01*
X10615498Y14164180D01*
X10579188Y14044482D01*
X10566928Y13920000D01*
X10566928Y12688204D01*
X9793072Y13462059D01*
X9793072Y13920000D01*
X9780812Y14044482D01*
X9765000Y14096607D01*
X9765000Y21346184D01*
X14360000Y21346184D01*
X14360000Y21043816D01*
X14418989Y20747257D01*
X14534701Y20467905D01*
X14702688Y20216495D01*
X14916495Y20002688D01*
X15167905Y19834701D01*
X15447257Y19718989D01*
X15743816Y19660000D01*
X16046184Y19660000D01*
X16342743Y19718989D01*
X16622095Y19834701D01*
X16873505Y20002688D01*
X17001737Y20130920D01*
X27510525Y20130920D01*
X27594208Y19876739D01*
X27866775Y19745842D01*
X28159642Y19670635D01*
X28461553Y19654009D01*
X28760907Y19696603D01*
X29046199Y19796778D01*
X29195792Y19876739D01*
X29279475Y20130920D01*
X28395000Y21015395D01*
X27510525Y20130920D01*
X17001737Y20130920D01*
X17087312Y20216495D01*
X17255299Y20467905D01*
X17371011Y20747257D01*
X17430000Y21043816D01*
X17430000Y21128447D01*
X26854009Y21128447D01*
X26896603Y20829093D01*
X26996778Y20543801D01*
X27076739Y20394208D01*
X27330920Y20310525D01*
X28215395Y21195000D01*
X28574605Y21195000D01*
X29459080Y20310525D01*
X29713261Y20394208D01*
X29844158Y20666775D01*
X29919365Y20959642D01*
X29935991Y21261553D01*
X29893397Y21560907D01*
X29793222Y21846199D01*
X29713261Y21995792D01*
X29459080Y22079475D01*
X28574605Y21195000D01*
X28215395Y21195000D01*
X27330920Y22079475D01*
X27076739Y21995792D01*
X26945842Y21723225D01*
X26870635Y21430358D01*
X26854009Y21128447D01*
X17430000Y21128447D01*
X17430000Y21346184D01*
X17371011Y21642743D01*
X17255299Y21922095D01*
X17087312Y22173505D01*
X17001737Y22259080D01*
X27510525Y22259080D01*
X28395000Y21374605D01*
X29279475Y22259080D01*
X29195792Y22513261D01*
X28923225Y22644158D01*
X28630358Y22719365D01*
X28328447Y22735991D01*
X28029093Y22693397D01*
X27743801Y22593222D01*
X27594208Y22513261D01*
X27510525Y22259080D01*
X17001737Y22259080D01*
X16873505Y22387312D01*
X16622095Y22555299D01*
X16342743Y22671011D01*
X16046184Y22730000D01*
X15743816Y22730000D01*
X15447257Y22671011D01*
X15167905Y22555299D01*
X14916495Y22387312D01*
X14702688Y22173505D01*
X14534701Y21922095D01*
X14418989Y21642743D01*
X14360000Y21346184D01*
X9765000Y21346184D01*
X9765000Y23901561D01*
X24670000Y23901561D01*
X24670000Y23648439D01*
X24719381Y23400179D01*
X24816247Y23166324D01*
X24956875Y22955860D01*
X25135860Y22776875D01*
X25346324Y22636247D01*
X25580179Y22539381D01*
X25828439Y22490000D01*
X26081561Y22490000D01*
X26329821Y22539381D01*
X26563676Y22636247D01*
X26774140Y22776875D01*
X26953125Y22955860D01*
X27093753Y23166324D01*
X27190619Y23400179D01*
X27240000Y23648439D01*
X27240000Y23901561D01*
X27190619Y24149821D01*
X27093753Y24383676D01*
X26953125Y24594140D01*
X26774140Y24773125D01*
X26563676Y24913753D01*
X26329821Y25010619D01*
X26081561Y25060000D01*
X25828439Y25060000D01*
X25580179Y25010619D01*
X25346324Y24913753D01*
X25135860Y24773125D01*
X24956875Y24594140D01*
X24816247Y24383676D01*
X24719381Y24149821D01*
X24670000Y23901561D01*
X9765000Y23901561D01*
X9765000Y29723393D01*
X9780812Y29775518D01*
X9793072Y29900000D01*
X9793072Y31700000D01*
X10566928Y31700000D01*
X10566928Y29900000D01*
X10579188Y29775518D01*
X10615498Y29655820D01*
X10674463Y29545506D01*
X10753815Y29448815D01*
X10850506Y29369463D01*
X10960820Y29310498D01*
X11080518Y29274188D01*
X11205000Y29261928D01*
X12255000Y29261928D01*
X12379482Y29274188D01*
X12499180Y29310498D01*
X12609494Y29369463D01*
X12706185Y29448815D01*
X12785537Y29545506D01*
X12844502Y29655820D01*
X12849490Y29672262D01*
X12942499Y29681423D01*
X13156447Y29746324D01*
X13353623Y29851716D01*
X13526449Y29993551D01*
X13561996Y30036865D01*
X15046692Y31521561D01*
X17050000Y31521561D01*
X17050000Y31268439D01*
X17099381Y31020179D01*
X17196247Y30786324D01*
X17336875Y30575860D01*
X17515860Y30396875D01*
X17726324Y30256247D01*
X17960179Y30159381D01*
X18208439Y30110000D01*
X18461561Y30110000D01*
X18709821Y30159381D01*
X18943676Y30256247D01*
X19154140Y30396875D01*
X19333125Y30575860D01*
X19473753Y30786324D01*
X19570619Y31020179D01*
X19620000Y31268439D01*
X19620000Y31521561D01*
X19570619Y31769821D01*
X19473753Y32003676D01*
X19391896Y32126184D01*
X20610000Y32126184D01*
X20610000Y31823816D01*
X20668989Y31527257D01*
X20784701Y31247905D01*
X20952688Y30996495D01*
X21166495Y30782688D01*
X21417905Y30614701D01*
X21697257Y30498989D01*
X21993816Y30440000D01*
X22296184Y30440000D01*
X22592743Y30498989D01*
X22872095Y30614701D01*
X23123505Y30782688D01*
X23337312Y30996495D01*
X23505299Y31247905D01*
X23621011Y31527257D01*
X23680000Y31823816D01*
X23680000Y32126184D01*
X23621011Y32422743D01*
X23505299Y32702095D01*
X23337312Y32953505D01*
X23123505Y33167312D01*
X22872095Y33335299D01*
X22592743Y33451011D01*
X22296184Y33510000D01*
X21993816Y33510000D01*
X21697257Y33451011D01*
X21417905Y33335299D01*
X21166495Y33167312D01*
X20952688Y32953505D01*
X20784701Y32702095D01*
X20668989Y32422743D01*
X20610000Y32126184D01*
X19391896Y32126184D01*
X19333125Y32214140D01*
X19154140Y32393125D01*
X18943676Y32533753D01*
X18709821Y32630619D01*
X18461561Y32680000D01*
X18208439Y32680000D01*
X17960179Y32630619D01*
X17726324Y32533753D01*
X17515860Y32393125D01*
X17336875Y32214140D01*
X17196247Y32003676D01*
X17099381Y31769821D01*
X17050000Y31521561D01*
X15046692Y31521561D01*
X15965132Y32440000D01*
X16046184Y32440000D01*
X16342743Y32498989D01*
X16622095Y32614701D01*
X16873505Y32782688D01*
X17087312Y32996495D01*
X17255299Y33247905D01*
X17371011Y33527257D01*
X17430000Y33823816D01*
X17430000Y34126184D01*
X26860000Y34126184D01*
X26860000Y33823816D01*
X26918989Y33527257D01*
X27034701Y33247905D01*
X27202688Y32996495D01*
X27416495Y32782688D01*
X27667905Y32614701D01*
X27947257Y32498989D01*
X28243816Y32440000D01*
X28546184Y32440000D01*
X28842743Y32498989D01*
X29122095Y32614701D01*
X29373505Y32782688D01*
X29587312Y32996495D01*
X29755299Y33247905D01*
X29871011Y33527257D01*
X29930000Y33823816D01*
X29930000Y34126184D01*
X29871011Y34422743D01*
X29755299Y34702095D01*
X29587312Y34953505D01*
X29373505Y35167312D01*
X29122095Y35335299D01*
X28842743Y35451011D01*
X28546184Y35510000D01*
X28243816Y35510000D01*
X27947257Y35451011D01*
X27667905Y35335299D01*
X27416495Y35167312D01*
X27202688Y34953505D01*
X27034701Y34702095D01*
X26918989Y34422743D01*
X26860000Y34126184D01*
X17430000Y34126184D01*
X17371011Y34422743D01*
X17255299Y34702095D01*
X17087312Y34953505D01*
X16873505Y35167312D01*
X16622095Y35335299D01*
X16342743Y35451011D01*
X16046184Y35510000D01*
X15743816Y35510000D01*
X15447257Y35451011D01*
X15167905Y35335299D01*
X14916495Y35167312D01*
X14702688Y34953505D01*
X14534701Y34702095D01*
X14418989Y34422743D01*
X14360000Y34126184D01*
X14360000Y34045132D01*
X12567730Y32252861D01*
X12499180Y32289502D01*
X12379482Y32325812D01*
X12255000Y32338072D01*
X11205000Y32338072D01*
X11080518Y32325812D01*
X10960820Y32289502D01*
X10850506Y32230537D01*
X10753815Y32151185D01*
X10674463Y32054494D01*
X10615498Y31944180D01*
X10579188Y31824482D01*
X10566928Y31700000D01*
X9793072Y31700000D01*
X9780812Y31824482D01*
X9765000Y31876607D01*
X9765000Y39126184D01*
X14360000Y39126184D01*
X14360000Y38823816D01*
X14418989Y38527257D01*
X14534701Y38247905D01*
X14702688Y37996495D01*
X14916495Y37782688D01*
X15167905Y37614701D01*
X15447257Y37498989D01*
X15743816Y37440000D01*
X16046184Y37440000D01*
X16342743Y37498989D01*
X16622095Y37614701D01*
X16873505Y37782688D01*
X17001737Y37910920D01*
X27510525Y37910920D01*
X27594208Y37656739D01*
X27866775Y37525842D01*
X28159642Y37450635D01*
X28461553Y37434009D01*
X28760907Y37476603D01*
X29046199Y37576778D01*
X29195792Y37656739D01*
X29279475Y37910920D01*
X28395000Y38795395D01*
X27510525Y37910920D01*
X17001737Y37910920D01*
X17087312Y37996495D01*
X17255299Y38247905D01*
X17371011Y38527257D01*
X17430000Y38823816D01*
X17430000Y38908447D01*
X26854009Y38908447D01*
X26896603Y38609093D01*
X26996778Y38323801D01*
X27076739Y38174208D01*
X27330920Y38090525D01*
X28215395Y38975000D01*
X28574605Y38975000D01*
X29459080Y38090525D01*
X29713261Y38174208D01*
X29844158Y38446775D01*
X29919365Y38739642D01*
X29935991Y39041553D01*
X29893397Y39340907D01*
X29793222Y39626199D01*
X29713261Y39775792D01*
X29459080Y39859475D01*
X28574605Y38975000D01*
X28215395Y38975000D01*
X27330920Y39859475D01*
X27076739Y39775792D01*
X26945842Y39503225D01*
X26870635Y39210358D01*
X26854009Y38908447D01*
X17430000Y38908447D01*
X17430000Y39126184D01*
X17371011Y39422743D01*
X17255299Y39702095D01*
X17087312Y39953505D01*
X17001737Y40039080D01*
X27510525Y40039080D01*
X28395000Y39154605D01*
X29279475Y40039080D01*
X29195792Y40293261D01*
X28923225Y40424158D01*
X28630358Y40499365D01*
X28328447Y40515991D01*
X28029093Y40473397D01*
X27743801Y40373222D01*
X27594208Y40293261D01*
X27510525Y40039080D01*
X17001737Y40039080D01*
X16873505Y40167312D01*
X16622095Y40335299D01*
X16342743Y40451011D01*
X16046184Y40510000D01*
X15743816Y40510000D01*
X15447257Y40451011D01*
X15167905Y40335299D01*
X14916495Y40167312D01*
X14702688Y39953505D01*
X14534701Y39702095D01*
X14418989Y39422743D01*
X14360000Y39126184D01*
X9765000Y39126184D01*
X9765000Y40067779D01*
X9770490Y40123521D01*
X9765000Y40179263D01*
X9765000Y40179272D01*
X9748577Y40346019D01*
X9683676Y40559967D01*
X9578284Y40757143D01*
X9436449Y40929969D01*
X9393141Y40965511D01*
X8677091Y41681561D01*
X24670000Y41681561D01*
X24670000Y41428439D01*
X24719381Y41180179D01*
X24816247Y40946324D01*
X24956875Y40735860D01*
X25135860Y40556875D01*
X25346324Y40416247D01*
X25580179Y40319381D01*
X25828439Y40270000D01*
X26081561Y40270000D01*
X26329821Y40319381D01*
X26563676Y40416247D01*
X26774140Y40556875D01*
X26953125Y40735860D01*
X27093753Y40946324D01*
X27190619Y41180179D01*
X27240000Y41428439D01*
X27240000Y41681561D01*
X27190619Y41929821D01*
X27093753Y42163676D01*
X26953125Y42374140D01*
X26774140Y42553125D01*
X26563676Y42693753D01*
X26329821Y42790619D01*
X26081561Y42840000D01*
X25828439Y42840000D01*
X25580179Y42790619D01*
X25346324Y42693753D01*
X25135860Y42553125D01*
X24956875Y42374140D01*
X24816247Y42163676D01*
X24719381Y41929821D01*
X24670000Y41681561D01*
X8677091Y41681561D01*
X5798422Y44560229D01*
X5798422Y46073940D01*
X5925215Y45989220D01*
X6338151Y45818176D01*
X6776521Y45730979D01*
X7223479Y45730979D01*
X7661849Y45818176D01*
X8074785Y45989220D01*
X8446417Y46237536D01*
X8762464Y46553583D01*
X9010780Y46925215D01*
X9181824Y47338151D01*
X9269021Y47776521D01*
X9269021Y47885847D01*
X13290831Y43864036D01*
X13326369Y43820733D01*
X13369672Y43785195D01*
X13369674Y43785193D01*
X13499195Y43678898D01*
X13696371Y43573506D01*
X13910319Y43508605D01*
X14132818Y43486691D01*
X14188570Y43492182D01*
X26362687Y43492182D01*
X28466856Y41388012D01*
X28596376Y41281717D01*
X28793552Y41176325D01*
X29007500Y41111424D01*
X29229999Y41089510D01*
X29452498Y41111424D01*
X29666446Y41176325D01*
X29863622Y41281717D01*
X30036448Y41423552D01*
X30178283Y41596378D01*
X30283675Y41793554D01*
X30348576Y42007502D01*
X30352054Y42042814D01*
X30494970Y41899898D01*
X30494971Y24517272D01*
X30489479Y24461510D01*
X30511393Y24239012D01*
X30576294Y24025064D01*
X30576295Y24025063D01*
X30681687Y23827887D01*
X30823522Y23655061D01*
X30866830Y23619519D01*
X37455000Y17031348D01*
X37208807Y16887496D01*
X36990951Y16694429D01*
X36974714Y16673039D01*
X36918405Y16778386D01*
X36807962Y16912962D01*
X36673386Y17023405D01*
X36519850Y17105472D01*
X36353254Y17156008D01*
X36180000Y17173072D01*
X34980000Y17173072D01*
X34806746Y17156008D01*
X34640150Y17105472D01*
X34486614Y17023405D01*
X34352038Y16912962D01*
X34241595Y16778386D01*
X34159528Y16624850D01*
X34108992Y16458254D01*
X34091928Y16285000D01*
X34091928Y15019990D01*
X32485312Y15019990D01*
X32404990Y15027901D01*
X32084473Y14996333D01*
X31853863Y14926378D01*
X31776275Y14902842D01*
X31492238Y14751021D01*
X31243276Y14546704D01*
X31192074Y14484314D01*
X24320682Y7612920D01*
X24258287Y7561714D01*
X24053970Y7312752D01*
X23902148Y7028715D01*
X23808657Y6720516D01*
X23785000Y6480322D01*
X23777089Y6400000D01*
X23785000Y6319681D01*
X23785000Y5319679D01*
X23808657Y5079485D01*
X23882824Y4834990D01*
X19185928Y4834990D01*
X19223513Y4958890D01*
X19245000Y5177051D01*
X19245000Y5622950D01*
X19223513Y5841111D01*
X19138599Y6121034D01*
X19000706Y6379014D01*
X18815134Y6605134D01*
X18589013Y6790706D01*
X18331033Y6928599D01*
X18051110Y7013513D01*
X17760000Y7042185D01*
X17468889Y7013513D01*
X17188966Y6928599D01*
X16930986Y6790706D01*
X16704866Y6605134D01*
X16652777Y6541663D01*
X16598405Y6643386D01*
X16487962Y6777962D01*
X16353386Y6888405D01*
X16199850Y6970472D01*
X16033254Y7021008D01*
X15860000Y7038072D01*
X15309131Y7038072D01*
X15260000Y7042911D01*
X15210869Y7038072D01*
X14660000Y7038072D01*
X14486746Y7021008D01*
X14320150Y6970472D01*
X14166614Y6888405D01*
X14032038Y6777962D01*
X13921595Y6643386D01*
X13839528Y6489850D01*
X13788992Y6323254D01*
X13771928Y6150000D01*
X13771928Y6084428D01*
X13742148Y6028714D01*
X13648657Y5720515D01*
X13625000Y5480321D01*
X13625000Y4480319D01*
X13617089Y4400000D01*
X13625000Y4319681D01*
X13625000Y4319678D01*
X13648657Y4079484D01*
X13742148Y3771285D01*
X13893970Y3487248D01*
X14098287Y3238286D01*
X14160682Y3187080D01*
X15247089Y2100672D01*
X15298296Y2038276D01*
X15547258Y1833959D01*
X15831295Y1682138D01*
X16139494Y1588647D01*
X16379688Y1564990D01*
X16379690Y1564990D01*
X16460009Y1557079D01*
X16540329Y1564990D01*
X28688822Y1564990D01*
X28769141Y1557079D01*
X28849460Y1564990D01*
X28849463Y1564990D01*
X29089657Y1588647D01*
X29397856Y1682138D01*
X29681893Y1833959D01*
X29930855Y2038276D01*
X29982066Y2100677D01*
X31764710Y3883321D01*
X31673969Y3772752D01*
X31522148Y3488715D01*
X31428657Y3180516D01*
X31397089Y2860000D01*
X31428657Y2539484D01*
X31522148Y2231285D01*
X31673969Y1947248D01*
X31878286Y1698286D01*
X32127248Y1493969D01*
X32411285Y1342148D01*
X32719484Y1248657D01*
X32959678Y1225000D01*
X44546398Y1225000D01*
X44626717Y1217089D01*
X44707036Y1225000D01*
X44707039Y1225000D01*
X44947233Y1248657D01*
X45255432Y1342148D01*
X45539469Y1493969D01*
X45788431Y1698286D01*
X45839642Y1760687D01*
X56051420Y11972463D01*
X56029509Y11750000D01*
X56051423Y11527502D01*
X56116324Y11313554D01*
X56221717Y11116378D01*
X56363552Y10943552D01*
X56536378Y10801717D01*
X56733554Y10696324D01*
X56947502Y10631423D01*
X57170000Y10609509D01*
X57392498Y10631423D01*
X57606446Y10696324D01*
X57803622Y10801717D01*
X57933143Y10908012D01*
X64575132Y17550000D01*
X69598251Y17550000D01*
X69654002Y17544509D01*
X69709753Y17550000D01*
X86264869Y17550000D01*
X100448009Y3366859D01*
X100483551Y3323551D01*
X100656377Y3181716D01*
X100853553Y3076324D01*
X101067501Y3011423D01*
X101234248Y2995000D01*
X101234257Y2995000D01*
X101289999Y2989510D01*
X101345741Y2995000D01*
X102945752Y2995000D01*
X103112499Y3011423D01*
X103326447Y3076324D01*
X103523623Y3181716D01*
X103696449Y3323551D01*
X103838284Y3496377D01*
X103943676Y3693553D01*
X104008577Y3907501D01*
X104030491Y4130000D01*
X104008577Y4352499D01*
X103943676Y4566447D01*
X103838284Y4763623D01*
X103696449Y4936449D01*
X103523623Y5078284D01*
X103326447Y5183676D01*
X103112499Y5248577D01*
X102945752Y5265000D01*
X101760132Y5265000D01*
X87576996Y19448135D01*
X87541449Y19491449D01*
X87368623Y19633284D01*
X87171447Y19738676D01*
X86957499Y19803577D01*
X86790752Y19820000D01*
X86790751Y19820000D01*
X86735000Y19825491D01*
X86679249Y19820000D01*
X72394133Y19820000D01*
X99843141Y47269007D01*
X99886449Y47304549D01*
X100028284Y47477375D01*
X100133676Y47674551D01*
X100198577Y47888499D01*
X100215000Y48055246D01*
X100215000Y48055255D01*
X100220490Y48110997D01*
X100215000Y48166739D01*
X100215000Y61335752D01*
X100198577Y61502499D01*
X100137802Y61702846D01*
X100237536Y61553583D01*
X100553583Y61237536D01*
X100925215Y60989220D01*
X101338151Y60818176D01*
X101776521Y60730979D01*
X102223479Y60730979D01*
X102661849Y60818176D01*
X103074785Y60989220D01*
X103446417Y61237536D01*
X103762464Y61553583D01*
X104010780Y61925215D01*
X104181824Y62338151D01*
X104269021Y62776521D01*
X104269021Y63223479D01*
X104181824Y63661849D01*
X104010780Y64074785D01*
X103762464Y64446417D01*
X103446417Y64762464D01*
X103074785Y65010780D01*
X102661849Y65181824D01*
X102223479Y65269021D01*
X101776521Y65269021D01*
X101338151Y65181824D01*
X100925215Y65010780D01*
X100553583Y64762464D01*
X100237536Y64446417D01*
X99989220Y64074785D01*
X99818176Y63661849D01*
X99730979Y63223479D01*
X99730979Y62776521D01*
X99818176Y62338151D01*
X99959106Y61997916D01*
X99886449Y62086449D01*
X99713623Y62228284D01*
X99516447Y62333676D01*
X99302499Y62398577D01*
X99080000Y62420491D01*
X98857502Y62398577D01*
X98643554Y62333676D01*
X98446378Y62228284D01*
X98273552Y62086449D01*
X98131717Y61913623D01*
X98026325Y61716447D01*
X97961424Y61502499D01*
X97945001Y61335752D01*
X97945000Y52110769D01*
X97896157Y52267472D01*
X97632117Y52393371D01*
X97348589Y52465339D01*
X97056469Y52480611D01*
X96766981Y52438599D01*
X96491253Y52340919D01*
X96353843Y52267472D01*
X96276208Y52018397D01*
X97125000Y51169605D01*
X97139143Y51183747D01*
X97318748Y51004142D01*
X97304605Y50990000D01*
X97318748Y50975857D01*
X97139143Y50796252D01*
X97125000Y50810395D01*
X96276208Y49961603D01*
X96351729Y49719311D01*
X96178368Y49603475D01*
X95971525Y49396632D01*
X95855000Y49222240D01*
X95738475Y49396632D01*
X95531632Y49603475D01*
X95358271Y49719311D01*
X95433792Y49961603D01*
X94585000Y50810395D01*
X93736208Y49961603D01*
X93811729Y49719311D01*
X93638368Y49603475D01*
X93431525Y49396632D01*
X93315000Y49222240D01*
X93198475Y49396632D01*
X92991632Y49603475D01*
X92818271Y49719311D01*
X92893792Y49961603D01*
X92045000Y50810395D01*
X91196208Y49961603D01*
X91271729Y49719311D01*
X91098368Y49603475D01*
X90891525Y49396632D01*
X90775000Y49222240D01*
X90658475Y49396632D01*
X90451632Y49603475D01*
X90277240Y49720000D01*
X90451632Y49836525D01*
X90658475Y50043368D01*
X90774311Y50216729D01*
X91016603Y50141208D01*
X91865395Y50990000D01*
X92224605Y50990000D01*
X93073397Y50141208D01*
X93315000Y50216514D01*
X93556603Y50141208D01*
X94405395Y50990000D01*
X94764605Y50990000D01*
X95613397Y50141208D01*
X95855000Y50216514D01*
X96096603Y50141208D01*
X96945395Y50990000D01*
X96096603Y51838792D01*
X95855000Y51763486D01*
X95613397Y51838792D01*
X94764605Y50990000D01*
X94405395Y50990000D01*
X93556603Y51838792D01*
X93315000Y51763486D01*
X93073397Y51838792D01*
X92224605Y50990000D01*
X91865395Y50990000D01*
X91016603Y51838792D01*
X90774311Y51763271D01*
X90658475Y51936632D01*
X90576710Y52018397D01*
X91196208Y52018397D01*
X92045000Y51169605D01*
X92893792Y52018397D01*
X93736208Y52018397D01*
X94585000Y51169605D01*
X95433792Y52018397D01*
X95356157Y52267472D01*
X95092117Y52393371D01*
X94808589Y52465339D01*
X94516469Y52480611D01*
X94226981Y52438599D01*
X93951253Y52340919D01*
X93813843Y52267472D01*
X93736208Y52018397D01*
X92893792Y52018397D01*
X92816157Y52267472D01*
X92552117Y52393371D01*
X92268589Y52465339D01*
X91976469Y52480611D01*
X91686981Y52438599D01*
X91411253Y52340919D01*
X91273843Y52267472D01*
X91196208Y52018397D01*
X90576710Y52018397D01*
X90451632Y52143475D01*
X90208411Y52305990D01*
X89938158Y52417932D01*
X89651260Y52475000D01*
X89358740Y52475000D01*
X89071842Y52417932D01*
X88801589Y52305990D01*
X88558368Y52143475D01*
X88351525Y51936632D01*
X88235000Y51762240D01*
X88118475Y51936632D01*
X87911632Y52143475D01*
X87668411Y52305990D01*
X87398158Y52417932D01*
X87111260Y52475000D01*
X86818740Y52475000D01*
X86531842Y52417932D01*
X86261589Y52305990D01*
X86018368Y52143475D01*
X85811525Y51936632D01*
X85695000Y51762240D01*
X85578475Y51936632D01*
X85371632Y52143475D01*
X85128411Y52305990D01*
X84858158Y52417932D01*
X84571260Y52475000D01*
X84278740Y52475000D01*
X83991842Y52417932D01*
X83721589Y52305990D01*
X83478368Y52143475D01*
X83271525Y51936632D01*
X83155000Y51762240D01*
X83038475Y51936632D01*
X82831632Y52143475D01*
X82588411Y52305990D01*
X82318158Y52417932D01*
X82031260Y52475000D01*
X81738740Y52475000D01*
X81451842Y52417932D01*
X81181589Y52305990D01*
X80938368Y52143475D01*
X80731525Y51936632D01*
X80615000Y51762240D01*
X80498475Y51936632D01*
X80291632Y52143475D01*
X80048411Y52305990D01*
X79778158Y52417932D01*
X79491260Y52475000D01*
X79198740Y52475000D01*
X78911842Y52417932D01*
X78641589Y52305990D01*
X78398368Y52143475D01*
X78191525Y51936632D01*
X78075000Y51762240D01*
X77958475Y51936632D01*
X77751632Y52143475D01*
X77508411Y52305990D01*
X77238158Y52417932D01*
X76951260Y52475000D01*
X76658740Y52475000D01*
X76371842Y52417932D01*
X76101589Y52305990D01*
X75858368Y52143475D01*
X75651525Y51936632D01*
X75535000Y51762240D01*
X75418475Y51936632D01*
X75211632Y52143475D01*
X74968411Y52305990D01*
X74815000Y52369535D01*
X74815000Y54985752D01*
X74798577Y55152499D01*
X74733676Y55366447D01*
X74628284Y55563623D01*
X74486449Y55736449D01*
X74313623Y55878284D01*
X74116446Y55983676D01*
X73902498Y56048577D01*
X73680000Y56070491D01*
X73457501Y56048577D01*
X73243553Y55983676D01*
X73046377Y55878284D01*
X72873551Y55736449D01*
X72731716Y55563623D01*
X72626324Y55366446D01*
X72561423Y55152498D01*
X72545000Y54985751D01*
X72545001Y52228087D01*
X72428411Y52305990D01*
X72158158Y52417932D01*
X71871260Y52475000D01*
X71578740Y52475000D01*
X71291842Y52417932D01*
X71021589Y52305990D01*
X70778368Y52143475D01*
X70571525Y51936632D01*
X70455000Y51762240D01*
X70338475Y51936632D01*
X70131632Y52143475D01*
X69888411Y52305990D01*
X69618158Y52417932D01*
X69331260Y52475000D01*
X69038740Y52475000D01*
X68751842Y52417932D01*
X68481589Y52305990D01*
X68238368Y52143475D01*
X68031525Y51936632D01*
X67915000Y51762240D01*
X67798475Y51936632D01*
X67591632Y52143475D01*
X67348411Y52305990D01*
X67078158Y52417932D01*
X66791260Y52475000D01*
X66498740Y52475000D01*
X66211842Y52417932D01*
X65941589Y52305990D01*
X65698368Y52143475D01*
X65491525Y51936632D01*
X65375000Y51762240D01*
X65258475Y51936632D01*
X65051632Y52143475D01*
X64808411Y52305990D01*
X64538158Y52417932D01*
X64251260Y52475000D01*
X63958740Y52475000D01*
X63671842Y52417932D01*
X63401589Y52305990D01*
X63158368Y52143475D01*
X62951525Y51936632D01*
X62835000Y51762240D01*
X62718475Y51936632D01*
X62511632Y52143475D01*
X62268411Y52305990D01*
X61998158Y52417932D01*
X61711260Y52475000D01*
X61418740Y52475000D01*
X61131842Y52417932D01*
X60861589Y52305990D01*
X60618368Y52143475D01*
X60411525Y51936632D01*
X60249010Y51693411D01*
X60137068Y51423158D01*
X60080000Y51136260D01*
X60080000Y50843740D01*
X60137068Y50556842D01*
X60249010Y50286589D01*
X60411525Y50043368D01*
X60618368Y49836525D01*
X60792760Y49720000D01*
X60618368Y49603475D01*
X60411525Y49396632D01*
X60249010Y49153411D01*
X60137068Y48883158D01*
X60080000Y48596260D01*
X60080000Y48303740D01*
X60137068Y48016842D01*
X60249010Y47746589D01*
X60411525Y47503368D01*
X60618368Y47296525D01*
X60861589Y47134010D01*
X61131842Y47022068D01*
X61418740Y46965000D01*
X61711260Y46965000D01*
X61998158Y47022068D01*
X62268411Y47134010D01*
X62511632Y47296525D01*
X62718475Y47503368D01*
X62835000Y47677760D01*
X62951525Y47503368D01*
X62970000Y47484893D01*
X62970001Y19155133D01*
X57460705Y13645836D01*
X57463067Y13653623D01*
X57511343Y13812766D01*
X57542911Y14133283D01*
X57535000Y14213605D01*
X57535000Y49930322D01*
X57511343Y50170516D01*
X57417852Y50478715D01*
X57266031Y50762752D01*
X57061714Y51011714D01*
X56812751Y51216031D01*
X56528714Y51367852D01*
X56220515Y51461343D01*
X55900000Y51492911D01*
X55579484Y51461343D01*
X55271285Y51367852D01*
X54987248Y51216031D01*
X54738286Y51011714D01*
X54533969Y50762751D01*
X54465010Y50633738D01*
X54465010Y54578822D01*
X54472921Y54659142D01*
X54463054Y54759324D01*
X54441353Y54979657D01*
X54347862Y55287856D01*
X54196041Y55571893D01*
X53991724Y55820855D01*
X53929329Y55872061D01*
X49962076Y59839313D01*
X49910865Y59901714D01*
X49661903Y60106031D01*
X49377866Y60257852D01*
X49069667Y60351343D01*
X48829473Y60375000D01*
X48829470Y60375000D01*
X48749151Y60382911D01*
X48668832Y60375000D01*
X48199678Y60375000D01*
X47959484Y60351343D01*
X47651285Y60257852D01*
X47367248Y60106031D01*
X47118286Y59901714D01*
X46913969Y59652752D01*
X46762148Y59368715D01*
X46668657Y59060516D01*
X46637089Y58740000D01*
X46668657Y58419484D01*
X46762148Y58111285D01*
X46913969Y57827248D01*
X47118286Y57578286D01*
X47367248Y57373969D01*
X47651285Y57222148D01*
X47959484Y57128657D01*
X48057954Y57118959D01*
X50065173Y55111740D01*
X49950986Y55050706D01*
X49724866Y54865134D01*
X49672777Y54801663D01*
X49618405Y54903386D01*
X49507962Y55037962D01*
X49373386Y55148405D01*
X49219850Y55230472D01*
X49053254Y55281008D01*
X48880000Y55298072D01*
X47680000Y55298072D01*
X47506746Y55281008D01*
X47340150Y55230472D01*
X47186614Y55148405D01*
X47052038Y55037962D01*
X46941595Y54903386D01*
X46859528Y54749850D01*
X46808992Y54583254D01*
X46791928Y54410000D01*
X46791928Y54059684D01*
X46105000Y54746612D01*
X46105000Y61179826D01*
X46381286Y61032148D01*
X46689485Y60938657D01*
X47010000Y60907089D01*
X47330516Y60938657D01*
X47638715Y61032148D01*
X47922752Y61183969D01*
X48171714Y61388286D01*
X48376031Y61637248D01*
X48392450Y61667966D01*
X48421770Y61624085D01*
X48624085Y61421770D01*
X48861983Y61262811D01*
X49126321Y61153319D01*
X49406941Y61097500D01*
X49693059Y61097500D01*
X49973679Y61153319D01*
X50238017Y61262811D01*
X50475915Y61421770D01*
X50678230Y61624085D01*
X50837189Y61861983D01*
X50946681Y62126321D01*
X51002500Y62406941D01*
X51002500Y62693059D01*
X50946681Y62973679D01*
X50843211Y63223479D01*
X55730979Y63223479D01*
X55730979Y62776521D01*
X55818176Y62338151D01*
X55989220Y61925215D01*
X56237536Y61553583D01*
X56553583Y61237536D01*
X56925215Y60989220D01*
X57338151Y60818176D01*
X57776521Y60730979D01*
X58223479Y60730979D01*
X58661849Y60818176D01*
X59074785Y60989220D01*
X59446417Y61237536D01*
X59762464Y61553583D01*
X60010780Y61925215D01*
X60181824Y62338151D01*
X60269021Y62776521D01*
X60269021Y63223479D01*
X60181824Y63661849D01*
X60010780Y64074785D01*
X59762464Y64446417D01*
X59446417Y64762464D01*
X59074785Y65010780D01*
X58661849Y65181824D01*
X58223479Y65269021D01*
X57776521Y65269021D01*
X57338151Y65181824D01*
X56925215Y65010780D01*
X56553583Y64762464D01*
X56237536Y64446417D01*
X55989220Y64074785D01*
X55818176Y63661849D01*
X55730979Y63223479D01*
X50843211Y63223479D01*
X50837189Y63238017D01*
X50678230Y63475915D01*
X50475915Y63678230D01*
X50238017Y63837189D01*
X49973679Y63946681D01*
X49693059Y64002500D01*
X49406941Y64002500D01*
X49126321Y63946681D01*
X48861983Y63837189D01*
X48652001Y63696883D01*
X48652911Y63706119D01*
X48621343Y64026636D01*
X48527852Y64334834D01*
X48477255Y64429494D01*
X48376031Y64618871D01*
X48171714Y64867833D01*
X48109314Y64919043D01*
X47179034Y65849323D01*
X47127823Y65911724D01*
X46878861Y66116041D01*
X46594824Y66267862D01*
X46357017Y66340000D01*
X109340000Y66340000D01*
X109340001Y660000D01*
X660000Y660000D01*
X660000Y66340000D01*
X36943200Y66340000D01*
X36705393Y66267862D01*
G37*
%TD.AperFunction*%
D21*
X43949479Y4495000D02*
X32959678Y4495000D01*
X32719484Y4471343D01*
X32411285Y4377852D01*
X32127248Y4226031D01*
X32016679Y4135290D01*
X34730979Y6849589D01*
X34730979Y6776521D01*
X34818176Y6338151D01*
X34989220Y5925215D01*
X35237536Y5553583D01*
X35553583Y5237536D01*
X35925215Y4989220D01*
X36338151Y4818176D01*
X36776521Y4730979D01*
X37223479Y4730979D01*
X37661849Y4818176D01*
X38074785Y4989220D01*
X38446417Y5237536D01*
X38762464Y5553583D01*
X39010780Y5925215D01*
X39181824Y6338151D01*
X39269021Y6776521D01*
X39269021Y7223479D01*
X39181824Y7661849D01*
X39010780Y8074785D01*
X38762464Y8446417D01*
X38446417Y8762464D01*
X38074785Y9010780D01*
X37661849Y9181824D01*
X37223479Y9269021D01*
X37150411Y9269021D01*
X37431370Y9549980D01*
X49004458Y9549980D01*
X43949479Y4495000D01*
%TA.AperFunction,Conductor*%
D22*
G36*
X43949479Y4495000D02*
G01*
X32959678Y4495000D01*
X32719484Y4471343D01*
X32411285Y4377852D01*
X32127248Y4226031D01*
X32016679Y4135290D01*
X34730979Y6849589D01*
X34730979Y6776521D01*
X34818176Y6338151D01*
X34989220Y5925215D01*
X35237536Y5553583D01*
X35553583Y5237536D01*
X35925215Y4989220D01*
X36338151Y4818176D01*
X36776521Y4730979D01*
X37223479Y4730979D01*
X37661849Y4818176D01*
X38074785Y4989220D01*
X38446417Y5237536D01*
X38762464Y5553583D01*
X39010780Y5925215D01*
X39181824Y6338151D01*
X39269021Y6776521D01*
X39269021Y7223479D01*
X39181824Y7661849D01*
X39010780Y8074785D01*
X38762464Y8446417D01*
X38446417Y8762464D01*
X38074785Y9010780D01*
X37661849Y9181824D01*
X37223479Y9269021D01*
X37150411Y9269021D01*
X37431370Y9549980D01*
X49004458Y9549980D01*
X43949479Y4495000D01*
G37*
%TD.AperFunction*%
D21*
X29317067Y6060154D02*
X29298599Y6121034D01*
X29160706Y6379014D01*
X28975134Y6605134D01*
X28749013Y6790706D01*
X28491033Y6928599D01*
X28314414Y6982176D01*
X33082230Y11749990D01*
X35006902Y11749990D01*
X29317067Y6060154D01*
%TA.AperFunction,Conductor*%
D22*
G36*
X29317067Y6060154D02*
G01*
X29298599Y6121034D01*
X29160706Y6379014D01*
X28975134Y6605134D01*
X28749013Y6790706D01*
X28491033Y6928599D01*
X28314414Y6982176D01*
X33082230Y11749990D01*
X35006902Y11749990D01*
X29317067Y6060154D01*
G37*
%TD.AperFunction*%
D21*
X38207000Y15687000D02*
X38227000Y15687000D01*
X38227000Y15433000D01*
X38207000Y15433000D01*
X38207000Y15413000D01*
X37953000Y15413000D01*
X37953000Y15433000D01*
X37933000Y15433000D01*
X37933000Y15687000D01*
X37953000Y15687000D01*
X37953000Y15707000D01*
X38207000Y15707000D01*
X38207000Y15687000D01*
%TA.AperFunction,Conductor*%
D22*
G36*
X38207000Y15687000D02*
G01*
X38227000Y15687000D01*
X38227000Y15433000D01*
X38207000Y15433000D01*
X38207000Y15413000D01*
X37953000Y15413000D01*
X37953000Y15433000D01*
X37933000Y15433000D01*
X37933000Y15687000D01*
X37953000Y15687000D01*
X37953000Y15707000D01*
X38207000Y15707000D01*
X38207000Y15687000D01*
G37*
%TD.AperFunction*%
D21*
X38207000Y23307000D02*
X38227000Y23307000D01*
X38227000Y23053000D01*
X38207000Y23053000D01*
X38207000Y21734845D01*
X38436890Y21613524D01*
X38699858Y21705648D01*
X38951193Y21852504D01*
X39169049Y22045571D01*
X39325538Y22251722D01*
X39339294Y22225986D01*
X39524866Y21999866D01*
X39750987Y21814294D01*
X40008967Y21676401D01*
X40288890Y21591487D01*
X40580000Y21562815D01*
X40871111Y21591487D01*
X41151034Y21676401D01*
X41409014Y21814294D01*
X41635134Y21999866D01*
X41820706Y22225986D01*
X41830000Y22243374D01*
X41839294Y22225986D01*
X42024866Y21999866D01*
X42250987Y21814294D01*
X42508967Y21676401D01*
X42788890Y21591487D01*
X43080000Y21562815D01*
X43371111Y21591487D01*
X43651034Y21676401D01*
X43909014Y21814294D01*
X44135134Y21999866D01*
X44320706Y22225986D01*
X44330000Y22243374D01*
X44339294Y22225986D01*
X44524866Y21999866D01*
X44750987Y21814294D01*
X45008967Y21676401D01*
X45288890Y21591487D01*
X45580000Y21562815D01*
X45871111Y21591487D01*
X46151034Y21676401D01*
X46409014Y21814294D01*
X46635134Y21999866D01*
X46820706Y22225986D01*
X46830000Y22243374D01*
X46839294Y22225986D01*
X47024866Y21999866D01*
X47250987Y21814294D01*
X47508967Y21676401D01*
X47788890Y21591487D01*
X48080000Y21562815D01*
X48371111Y21591487D01*
X48495010Y21629072D01*
X48495010Y17110928D01*
X48371110Y17148513D01*
X48080000Y17177185D01*
X47788889Y17148513D01*
X47508966Y17063599D01*
X47250986Y16925706D01*
X47024866Y16740134D01*
X46839294Y16514013D01*
X46830000Y16496626D01*
X46820706Y16514014D01*
X46635134Y16740134D01*
X46409013Y16925706D01*
X46151033Y17063599D01*
X45871110Y17148513D01*
X45580000Y17177185D01*
X45569027Y17176104D01*
X44746986Y17998145D01*
X44711439Y18041459D01*
X44538613Y18183294D01*
X44341437Y18288686D01*
X44127489Y18353587D01*
X43960742Y18370010D01*
X43960741Y18370010D01*
X43904990Y18375501D01*
X43849239Y18370010D01*
X39326602Y18370010D01*
X36129684Y21566928D01*
X36180000Y21566928D01*
X36353254Y21583992D01*
X36519850Y21634528D01*
X36673386Y21716595D01*
X36807962Y21827038D01*
X36918405Y21961614D01*
X36974714Y22066961D01*
X36990951Y22045571D01*
X37208807Y21852504D01*
X37460142Y21705648D01*
X37723110Y21613524D01*
X37953000Y21734845D01*
X37953000Y23053000D01*
X37933000Y23053000D01*
X37933000Y23307000D01*
X37953000Y23307000D01*
X37953000Y23327000D01*
X38207000Y23327000D01*
X38207000Y23307000D01*
%TA.AperFunction,Conductor*%
D22*
G36*
X38207000Y23307000D02*
G01*
X38227000Y23307000D01*
X38227000Y23053000D01*
X38207000Y23053000D01*
X38207000Y21734845D01*
X38436890Y21613524D01*
X38699858Y21705648D01*
X38951193Y21852504D01*
X39169049Y22045571D01*
X39325538Y22251722D01*
X39339294Y22225986D01*
X39524866Y21999866D01*
X39750987Y21814294D01*
X40008967Y21676401D01*
X40288890Y21591487D01*
X40580000Y21562815D01*
X40871111Y21591487D01*
X41151034Y21676401D01*
X41409014Y21814294D01*
X41635134Y21999866D01*
X41820706Y22225986D01*
X41830000Y22243374D01*
X41839294Y22225986D01*
X42024866Y21999866D01*
X42250987Y21814294D01*
X42508967Y21676401D01*
X42788890Y21591487D01*
X43080000Y21562815D01*
X43371111Y21591487D01*
X43651034Y21676401D01*
X43909014Y21814294D01*
X44135134Y21999866D01*
X44320706Y22225986D01*
X44330000Y22243374D01*
X44339294Y22225986D01*
X44524866Y21999866D01*
X44750987Y21814294D01*
X45008967Y21676401D01*
X45288890Y21591487D01*
X45580000Y21562815D01*
X45871111Y21591487D01*
X46151034Y21676401D01*
X46409014Y21814294D01*
X46635134Y21999866D01*
X46820706Y22225986D01*
X46830000Y22243374D01*
X46839294Y22225986D01*
X47024866Y21999866D01*
X47250987Y21814294D01*
X47508967Y21676401D01*
X47788890Y21591487D01*
X48080000Y21562815D01*
X48371111Y21591487D01*
X48495010Y21629072D01*
X48495010Y17110928D01*
X48371110Y17148513D01*
X48080000Y17177185D01*
X47788889Y17148513D01*
X47508966Y17063599D01*
X47250986Y16925706D01*
X47024866Y16740134D01*
X46839294Y16514013D01*
X46830000Y16496626D01*
X46820706Y16514014D01*
X46635134Y16740134D01*
X46409013Y16925706D01*
X46151033Y17063599D01*
X45871110Y17148513D01*
X45580000Y17177185D01*
X45569027Y17176104D01*
X44746986Y17998145D01*
X44711439Y18041459D01*
X44538613Y18183294D01*
X44341437Y18288686D01*
X44127489Y18353587D01*
X43960742Y18370010D01*
X43960741Y18370010D01*
X43904990Y18375501D01*
X43849239Y18370010D01*
X39326602Y18370010D01*
X36129684Y21566928D01*
X36180000Y21566928D01*
X36353254Y21583992D01*
X36519850Y21634528D01*
X36673386Y21716595D01*
X36807962Y21827038D01*
X36918405Y21961614D01*
X36974714Y22066961D01*
X36990951Y22045571D01*
X37208807Y21852504D01*
X37460142Y21705648D01*
X37723110Y21613524D01*
X37953000Y21734845D01*
X37953000Y23053000D01*
X37933000Y23053000D01*
X37933000Y23307000D01*
X37953000Y23307000D01*
X37953000Y23327000D01*
X38207000Y23327000D01*
X38207000Y23307000D01*
G37*
%TD.AperFunction*%
D21*
X7495001Y39653387D02*
X7495000Y31876608D01*
X7479188Y31824482D01*
X7466928Y31700000D01*
X7466928Y29900000D01*
X7479188Y29775518D01*
X7495001Y29723390D01*
X7495000Y18257272D01*
X7488576Y18322500D01*
X7423675Y18536448D01*
X7318283Y18733624D01*
X7211988Y18863144D01*
X4534990Y21540141D01*
X4534990Y37034071D01*
X4658889Y36996487D01*
X4877050Y36975000D01*
X5322950Y36975000D01*
X5541111Y36996487D01*
X5821034Y37081401D01*
X6079014Y37219294D01*
X6305134Y37404866D01*
X6490706Y37630986D01*
X6628599Y37888966D01*
X6713513Y38168889D01*
X6742185Y38460000D01*
X6713513Y38751111D01*
X6628599Y39031034D01*
X6490706Y39289014D01*
X6305134Y39515134D01*
X6241663Y39567223D01*
X6343386Y39621595D01*
X6477962Y39732038D01*
X6588405Y39866614D01*
X6670472Y40020150D01*
X6721008Y40186746D01*
X6738072Y40360000D01*
X6738072Y40410316D01*
X7495001Y39653387D01*
%TA.AperFunction,Conductor*%
D22*
G36*
X7495001Y39653387D02*
G01*
X7495000Y31876608D01*
X7479188Y31824482D01*
X7466928Y31700000D01*
X7466928Y29900000D01*
X7479188Y29775518D01*
X7495001Y29723390D01*
X7495000Y18257272D01*
X7488576Y18322500D01*
X7423675Y18536448D01*
X7318283Y18733624D01*
X7211988Y18863144D01*
X4534990Y21540141D01*
X4534990Y37034071D01*
X4658889Y36996487D01*
X4877050Y36975000D01*
X5322950Y36975000D01*
X5541111Y36996487D01*
X5821034Y37081401D01*
X6079014Y37219294D01*
X6305134Y37404866D01*
X6490706Y37630986D01*
X6628599Y37888966D01*
X6713513Y38168889D01*
X6742185Y38460000D01*
X6713513Y38751111D01*
X6628599Y39031034D01*
X6490706Y39289014D01*
X6305134Y39515134D01*
X6241663Y39567223D01*
X6343386Y39621595D01*
X6477962Y39732038D01*
X6588405Y39866614D01*
X6670472Y40020150D01*
X6721008Y40186746D01*
X6738072Y40360000D01*
X6738072Y40410316D01*
X7495001Y39653387D01*
G37*
%TD.AperFunction*%
D21*
X95971525Y47503368D02*
X96178368Y47296525D01*
X96421589Y47134010D01*
X96475535Y47111665D01*
X69183871Y19820000D01*
X65240000Y19820000D01*
X65240000Y47484893D01*
X65258475Y47503368D01*
X65375000Y47677760D01*
X65491525Y47503368D01*
X65698368Y47296525D01*
X65941589Y47134010D01*
X66211842Y47022068D01*
X66498740Y46965000D01*
X66791260Y46965000D01*
X67078158Y47022068D01*
X67348411Y47134010D01*
X67591632Y47296525D01*
X67798475Y47503368D01*
X67915000Y47677760D01*
X68031525Y47503368D01*
X68238368Y47296525D01*
X68481589Y47134010D01*
X68751842Y47022068D01*
X69038740Y46965000D01*
X69331260Y46965000D01*
X69618158Y47022068D01*
X69888411Y47134010D01*
X70131632Y47296525D01*
X70338475Y47503368D01*
X70455000Y47677760D01*
X70571525Y47503368D01*
X70778368Y47296525D01*
X71021589Y47134010D01*
X71291842Y47022068D01*
X71578740Y46965000D01*
X71871260Y46965000D01*
X72158158Y47022068D01*
X72428411Y47134010D01*
X72671632Y47296525D01*
X72878475Y47503368D01*
X72995000Y47677760D01*
X73111525Y47503368D01*
X73318368Y47296525D01*
X73561589Y47134010D01*
X73831842Y47022068D01*
X74118740Y46965000D01*
X74411260Y46965000D01*
X74698158Y47022068D01*
X74968411Y47134010D01*
X75211632Y47296525D01*
X75418475Y47503368D01*
X75535000Y47677760D01*
X75651525Y47503368D01*
X75858368Y47296525D01*
X76101589Y47134010D01*
X76371842Y47022068D01*
X76658740Y46965000D01*
X76951260Y46965000D01*
X77238158Y47022068D01*
X77508411Y47134010D01*
X77751632Y47296525D01*
X77958475Y47503368D01*
X78075000Y47677760D01*
X78191525Y47503368D01*
X78398368Y47296525D01*
X78641589Y47134010D01*
X78911842Y47022068D01*
X79198740Y46965000D01*
X79491260Y46965000D01*
X79778158Y47022068D01*
X80048411Y47134010D01*
X80291632Y47296525D01*
X80498475Y47503368D01*
X80615000Y47677760D01*
X80731525Y47503368D01*
X80938368Y47296525D01*
X81181589Y47134010D01*
X81451842Y47022068D01*
X81738740Y46965000D01*
X82031260Y46965000D01*
X82318158Y47022068D01*
X82588411Y47134010D01*
X82831632Y47296525D01*
X83038475Y47503368D01*
X83155000Y47677760D01*
X83271525Y47503368D01*
X83478368Y47296525D01*
X83721589Y47134010D01*
X83991842Y47022068D01*
X84278740Y46965000D01*
X84571260Y46965000D01*
X84858158Y47022068D01*
X85128411Y47134010D01*
X85371632Y47296525D01*
X85578475Y47503368D01*
X85695000Y47677760D01*
X85811525Y47503368D01*
X86018368Y47296525D01*
X86261589Y47134010D01*
X86531842Y47022068D01*
X86818740Y46965000D01*
X87111260Y46965000D01*
X87398158Y47022068D01*
X87668411Y47134010D01*
X87911632Y47296525D01*
X88118475Y47503368D01*
X88235000Y47677760D01*
X88351525Y47503368D01*
X88558368Y47296525D01*
X88801589Y47134010D01*
X89071842Y47022068D01*
X89358740Y46965000D01*
X89651260Y46965000D01*
X89938158Y47022068D01*
X90208411Y47134010D01*
X90451632Y47296525D01*
X90658475Y47503368D01*
X90775000Y47677760D01*
X90891525Y47503368D01*
X91098368Y47296525D01*
X91341589Y47134010D01*
X91611842Y47022068D01*
X91898740Y46965000D01*
X92191260Y46965000D01*
X92478158Y47022068D01*
X92748411Y47134010D01*
X92991632Y47296525D01*
X93198475Y47503368D01*
X93315000Y47677760D01*
X93431525Y47503368D01*
X93638368Y47296525D01*
X93881589Y47134010D01*
X94151842Y47022068D01*
X94438740Y46965000D01*
X94731260Y46965000D01*
X95018158Y47022068D01*
X95288411Y47134010D01*
X95531632Y47296525D01*
X95738475Y47503368D01*
X95855000Y47677760D01*
X95971525Y47503368D01*
%TA.AperFunction,Conductor*%
D22*
G36*
X95971525Y47503368D02*
G01*
X96178368Y47296525D01*
X96421589Y47134010D01*
X96475535Y47111665D01*
X69183871Y19820000D01*
X65240000Y19820000D01*
X65240000Y47484893D01*
X65258475Y47503368D01*
X65375000Y47677760D01*
X65491525Y47503368D01*
X65698368Y47296525D01*
X65941589Y47134010D01*
X66211842Y47022068D01*
X66498740Y46965000D01*
X66791260Y46965000D01*
X67078158Y47022068D01*
X67348411Y47134010D01*
X67591632Y47296525D01*
X67798475Y47503368D01*
X67915000Y47677760D01*
X68031525Y47503368D01*
X68238368Y47296525D01*
X68481589Y47134010D01*
X68751842Y47022068D01*
X69038740Y46965000D01*
X69331260Y46965000D01*
X69618158Y47022068D01*
X69888411Y47134010D01*
X70131632Y47296525D01*
X70338475Y47503368D01*
X70455000Y47677760D01*
X70571525Y47503368D01*
X70778368Y47296525D01*
X71021589Y47134010D01*
X71291842Y47022068D01*
X71578740Y46965000D01*
X71871260Y46965000D01*
X72158158Y47022068D01*
X72428411Y47134010D01*
X72671632Y47296525D01*
X72878475Y47503368D01*
X72995000Y47677760D01*
X73111525Y47503368D01*
X73318368Y47296525D01*
X73561589Y47134010D01*
X73831842Y47022068D01*
X74118740Y46965000D01*
X74411260Y46965000D01*
X74698158Y47022068D01*
X74968411Y47134010D01*
X75211632Y47296525D01*
X75418475Y47503368D01*
X75535000Y47677760D01*
X75651525Y47503368D01*
X75858368Y47296525D01*
X76101589Y47134010D01*
X76371842Y47022068D01*
X76658740Y46965000D01*
X76951260Y46965000D01*
X77238158Y47022068D01*
X77508411Y47134010D01*
X77751632Y47296525D01*
X77958475Y47503368D01*
X78075000Y47677760D01*
X78191525Y47503368D01*
X78398368Y47296525D01*
X78641589Y47134010D01*
X78911842Y47022068D01*
X79198740Y46965000D01*
X79491260Y46965000D01*
X79778158Y47022068D01*
X80048411Y47134010D01*
X80291632Y47296525D01*
X80498475Y47503368D01*
X80615000Y47677760D01*
X80731525Y47503368D01*
X80938368Y47296525D01*
X81181589Y47134010D01*
X81451842Y47022068D01*
X81738740Y46965000D01*
X82031260Y46965000D01*
X82318158Y47022068D01*
X82588411Y47134010D01*
X82831632Y47296525D01*
X83038475Y47503368D01*
X83155000Y47677760D01*
X83271525Y47503368D01*
X83478368Y47296525D01*
X83721589Y47134010D01*
X83991842Y47022068D01*
X84278740Y46965000D01*
X84571260Y46965000D01*
X84858158Y47022068D01*
X85128411Y47134010D01*
X85371632Y47296525D01*
X85578475Y47503368D01*
X85695000Y47677760D01*
X85811525Y47503368D01*
X86018368Y47296525D01*
X86261589Y47134010D01*
X86531842Y47022068D01*
X86818740Y46965000D01*
X87111260Y46965000D01*
X87398158Y47022068D01*
X87668411Y47134010D01*
X87911632Y47296525D01*
X88118475Y47503368D01*
X88235000Y47677760D01*
X88351525Y47503368D01*
X88558368Y47296525D01*
X88801589Y47134010D01*
X89071842Y47022068D01*
X89358740Y46965000D01*
X89651260Y46965000D01*
X89938158Y47022068D01*
X90208411Y47134010D01*
X90451632Y47296525D01*
X90658475Y47503368D01*
X90775000Y47677760D01*
X90891525Y47503368D01*
X91098368Y47296525D01*
X91341589Y47134010D01*
X91611842Y47022068D01*
X91898740Y46965000D01*
X92191260Y46965000D01*
X92478158Y47022068D01*
X92748411Y47134010D01*
X92991632Y47296525D01*
X93198475Y47503368D01*
X93315000Y47677760D01*
X93431525Y47503368D01*
X93638368Y47296525D01*
X93881589Y47134010D01*
X94151842Y47022068D01*
X94438740Y46965000D01*
X94731260Y46965000D01*
X95018158Y47022068D01*
X95288411Y47134010D01*
X95531632Y47296525D01*
X95738475Y47503368D01*
X95855000Y47677760D01*
X95971525Y47503368D01*
G37*
%TD.AperFunction*%
D21*
X37455000Y24651348D02*
X37208807Y24507496D01*
X36990951Y24314429D01*
X36974714Y24293039D01*
X36918405Y24398386D01*
X36807962Y24532962D01*
X36673386Y24643405D01*
X36519850Y24725472D01*
X36353254Y24776008D01*
X36180000Y24793072D01*
X34980000Y24793072D01*
X34806746Y24776008D01*
X34640150Y24725472D01*
X34486614Y24643405D01*
X34352038Y24532962D01*
X34241595Y24398386D01*
X34159528Y24244850D01*
X34108992Y24078254D01*
X34091928Y23905000D01*
X34091928Y23604683D01*
X32764970Y24931641D01*
X32764970Y29341379D01*
X37455000Y24651348D01*
%TA.AperFunction,Conductor*%
D22*
G36*
X37455000Y24651348D02*
G01*
X37208807Y24507496D01*
X36990951Y24314429D01*
X36974714Y24293039D01*
X36918405Y24398386D01*
X36807962Y24532962D01*
X36673386Y24643405D01*
X36519850Y24725472D01*
X36353254Y24776008D01*
X36180000Y24793072D01*
X34980000Y24793072D01*
X34806746Y24776008D01*
X34640150Y24725472D01*
X34486614Y24643405D01*
X34352038Y24532962D01*
X34241595Y24398386D01*
X34159528Y24244850D01*
X34108992Y24078254D01*
X34091928Y23905000D01*
X34091928Y23604683D01*
X32764970Y24931641D01*
X32764970Y29341379D01*
X37455000Y24651348D01*
G37*
%TD.AperFunction*%
D21*
X38207000Y30927000D02*
X38227000Y30927000D01*
X38227000Y30673000D01*
X38207000Y30673000D01*
X38207000Y29354845D01*
X38436890Y29233524D01*
X38699858Y29325648D01*
X38951193Y29472504D01*
X39169049Y29665571D01*
X39325538Y29871722D01*
X39339294Y29845986D01*
X39524866Y29619866D01*
X39750987Y29434294D01*
X40008967Y29296401D01*
X40288890Y29211487D01*
X40580000Y29182815D01*
X40871111Y29211487D01*
X41151034Y29296401D01*
X41409014Y29434294D01*
X41635134Y29619866D01*
X41820706Y29845986D01*
X41830000Y29863374D01*
X41839294Y29845986D01*
X42024866Y29619866D01*
X42250987Y29434294D01*
X42508967Y29296401D01*
X42788890Y29211487D01*
X43080000Y29182815D01*
X43371111Y29211487D01*
X43651034Y29296401D01*
X43909014Y29434294D01*
X44135134Y29619866D01*
X44320706Y29845986D01*
X44330000Y29863374D01*
X44339294Y29845986D01*
X44524866Y29619866D01*
X44750987Y29434294D01*
X45008967Y29296401D01*
X45288890Y29211487D01*
X45580000Y29182815D01*
X45871111Y29211487D01*
X46151034Y29296401D01*
X46409014Y29434294D01*
X46635134Y29619866D01*
X46820706Y29845986D01*
X46830000Y29863374D01*
X46839294Y29845986D01*
X47024866Y29619866D01*
X47250987Y29434294D01*
X47508967Y29296401D01*
X47788890Y29211487D01*
X48080000Y29182815D01*
X48371111Y29211487D01*
X48495010Y29249072D01*
X48495010Y24730928D01*
X48371110Y24768513D01*
X48080000Y24797185D01*
X47788889Y24768513D01*
X47508966Y24683599D01*
X47250986Y24545706D01*
X47024866Y24360134D01*
X46839294Y24134013D01*
X46830000Y24116626D01*
X46820706Y24134014D01*
X46635134Y24360134D01*
X46409013Y24545706D01*
X46151033Y24683599D01*
X45871110Y24768513D01*
X45580000Y24797185D01*
X45569027Y24796104D01*
X44746986Y25618145D01*
X44711439Y25661459D01*
X44538613Y25803294D01*
X44341437Y25908686D01*
X44127489Y25973587D01*
X43960742Y25990010D01*
X43960741Y25990010D01*
X43904990Y25995501D01*
X43849239Y25990010D01*
X39326602Y25990010D01*
X36129683Y29186928D01*
X36180000Y29186928D01*
X36353254Y29203992D01*
X36519850Y29254528D01*
X36673386Y29336595D01*
X36807962Y29447038D01*
X36918405Y29581614D01*
X36974714Y29686961D01*
X36990951Y29665571D01*
X37208807Y29472504D01*
X37460142Y29325648D01*
X37723110Y29233524D01*
X37953000Y29354845D01*
X37953000Y30673000D01*
X37933000Y30673000D01*
X37933000Y30927000D01*
X37953000Y30927000D01*
X37953000Y30947000D01*
X38207000Y30947000D01*
X38207000Y30927000D01*
%TA.AperFunction,Conductor*%
D22*
G36*
X38207000Y30927000D02*
G01*
X38227000Y30927000D01*
X38227000Y30673000D01*
X38207000Y30673000D01*
X38207000Y29354845D01*
X38436890Y29233524D01*
X38699858Y29325648D01*
X38951193Y29472504D01*
X39169049Y29665571D01*
X39325538Y29871722D01*
X39339294Y29845986D01*
X39524866Y29619866D01*
X39750987Y29434294D01*
X40008967Y29296401D01*
X40288890Y29211487D01*
X40580000Y29182815D01*
X40871111Y29211487D01*
X41151034Y29296401D01*
X41409014Y29434294D01*
X41635134Y29619866D01*
X41820706Y29845986D01*
X41830000Y29863374D01*
X41839294Y29845986D01*
X42024866Y29619866D01*
X42250987Y29434294D01*
X42508967Y29296401D01*
X42788890Y29211487D01*
X43080000Y29182815D01*
X43371111Y29211487D01*
X43651034Y29296401D01*
X43909014Y29434294D01*
X44135134Y29619866D01*
X44320706Y29845986D01*
X44330000Y29863374D01*
X44339294Y29845986D01*
X44524866Y29619866D01*
X44750987Y29434294D01*
X45008967Y29296401D01*
X45288890Y29211487D01*
X45580000Y29182815D01*
X45871111Y29211487D01*
X46151034Y29296401D01*
X46409014Y29434294D01*
X46635134Y29619866D01*
X46820706Y29845986D01*
X46830000Y29863374D01*
X46839294Y29845986D01*
X47024866Y29619866D01*
X47250987Y29434294D01*
X47508967Y29296401D01*
X47788890Y29211487D01*
X48080000Y29182815D01*
X48371111Y29211487D01*
X48495010Y29249072D01*
X48495010Y24730928D01*
X48371110Y24768513D01*
X48080000Y24797185D01*
X47788889Y24768513D01*
X47508966Y24683599D01*
X47250986Y24545706D01*
X47024866Y24360134D01*
X46839294Y24134013D01*
X46830000Y24116626D01*
X46820706Y24134014D01*
X46635134Y24360134D01*
X46409013Y24545706D01*
X46151033Y24683599D01*
X45871110Y24768513D01*
X45580000Y24797185D01*
X45569027Y24796104D01*
X44746986Y25618145D01*
X44711439Y25661459D01*
X44538613Y25803294D01*
X44341437Y25908686D01*
X44127489Y25973587D01*
X43960742Y25990010D01*
X43960741Y25990010D01*
X43904990Y25995501D01*
X43849239Y25990010D01*
X39326602Y25990010D01*
X36129683Y29186928D01*
X36180000Y29186928D01*
X36353254Y29203992D01*
X36519850Y29254528D01*
X36673386Y29336595D01*
X36807962Y29447038D01*
X36918405Y29581614D01*
X36974714Y29686961D01*
X36990951Y29665571D01*
X37208807Y29472504D01*
X37460142Y29325648D01*
X37723110Y29233524D01*
X37953000Y29354845D01*
X37953000Y30673000D01*
X37933000Y30673000D01*
X37933000Y30927000D01*
X37953000Y30927000D01*
X37953000Y30947000D01*
X38207000Y30947000D01*
X38207000Y30927000D01*
G37*
%TD.AperFunction*%
D21*
X37455000Y32271348D02*
X37208807Y32127496D01*
X36990951Y31934429D01*
X36974714Y31913039D01*
X36918405Y32018386D01*
X36807962Y32152962D01*
X36673386Y32263405D01*
X36519850Y32345472D01*
X36353254Y32396008D01*
X36180000Y32413072D01*
X34980000Y32413072D01*
X34806746Y32396008D01*
X34640150Y32345472D01*
X34486614Y32263405D01*
X34352038Y32152962D01*
X34241595Y32018386D01*
X34159528Y31864850D01*
X34108992Y31698254D01*
X34091928Y31525000D01*
X34091928Y31224683D01*
X33964980Y31351631D01*
X33964980Y35761369D01*
X37455000Y32271348D01*
%TA.AperFunction,Conductor*%
D22*
G36*
X37455000Y32271348D02*
G01*
X37208807Y32127496D01*
X36990951Y31934429D01*
X36974714Y31913039D01*
X36918405Y32018386D01*
X36807962Y32152962D01*
X36673386Y32263405D01*
X36519850Y32345472D01*
X36353254Y32396008D01*
X36180000Y32413072D01*
X34980000Y32413072D01*
X34806746Y32396008D01*
X34640150Y32345472D01*
X34486614Y32263405D01*
X34352038Y32152962D01*
X34241595Y32018386D01*
X34159528Y31864850D01*
X34108992Y31698254D01*
X34091928Y31525000D01*
X34091928Y31224683D01*
X33964980Y31351631D01*
X33964980Y35761369D01*
X37455000Y32271348D01*
G37*
%TD.AperFunction*%
D21*
X40133598Y39961406D02*
X40008966Y39923599D01*
X39750986Y39785706D01*
X39524866Y39600134D01*
X39339294Y39374013D01*
X39325538Y39348278D01*
X39169049Y39554429D01*
X38951193Y39747496D01*
X38699858Y39894352D01*
X38436890Y39986476D01*
X38207000Y39865155D01*
X38207000Y38547000D01*
X38227000Y38547000D01*
X38227000Y38293000D01*
X38207000Y38293000D01*
X38207000Y36974845D01*
X38436890Y36853524D01*
X38699858Y36945648D01*
X38951193Y37092504D01*
X39169049Y37285571D01*
X39325538Y37491722D01*
X39339294Y37465986D01*
X39524866Y37239866D01*
X39750987Y37054294D01*
X40008967Y36916401D01*
X40288890Y36831487D01*
X40580000Y36802815D01*
X40871111Y36831487D01*
X41151034Y36916401D01*
X41409014Y37054294D01*
X41635134Y37239866D01*
X41820706Y37465986D01*
X41830000Y37483374D01*
X41839294Y37465986D01*
X42024866Y37239866D01*
X42250987Y37054294D01*
X42508967Y36916401D01*
X42788890Y36831487D01*
X43080000Y36802815D01*
X43371111Y36831487D01*
X43651034Y36916401D01*
X43909014Y37054294D01*
X44135134Y37239866D01*
X44320706Y37465986D01*
X44330000Y37483374D01*
X44339294Y37465986D01*
X44524866Y37239866D01*
X44750987Y37054294D01*
X45008967Y36916401D01*
X45288890Y36831487D01*
X45580000Y36802815D01*
X45871111Y36831487D01*
X46151034Y36916401D01*
X46409014Y37054294D01*
X46635134Y37239866D01*
X46820706Y37465986D01*
X46830000Y37483374D01*
X46839294Y37465986D01*
X47024866Y37239866D01*
X47250987Y37054294D01*
X47508967Y36916401D01*
X47788890Y36831487D01*
X48080000Y36802815D01*
X48371111Y36831487D01*
X48495011Y36869072D01*
X48495011Y32350928D01*
X48371110Y32388513D01*
X48080000Y32417185D01*
X47788889Y32388513D01*
X47508966Y32303599D01*
X47250986Y32165706D01*
X47024866Y31980134D01*
X46839294Y31754013D01*
X46830000Y31736626D01*
X46820706Y31754014D01*
X46635134Y31980134D01*
X46409013Y32165706D01*
X46151033Y32303599D01*
X45871110Y32388513D01*
X45580000Y32417185D01*
X45569027Y32416104D01*
X44746986Y33238145D01*
X44711439Y33281459D01*
X44538613Y33423294D01*
X44341437Y33528686D01*
X44127489Y33593587D01*
X43960742Y33610010D01*
X43960741Y33610010D01*
X43904990Y33615501D01*
X43849239Y33610010D01*
X39326602Y33610010D01*
X36129683Y36806928D01*
X36180000Y36806928D01*
X36353254Y36823992D01*
X36519850Y36874528D01*
X36673386Y36956595D01*
X36807962Y37067038D01*
X36918405Y37201614D01*
X36974714Y37306961D01*
X36990951Y37285571D01*
X37208807Y37092504D01*
X37460142Y36945648D01*
X37723110Y36853524D01*
X37953000Y36974845D01*
X37953000Y38293000D01*
X37933000Y38293000D01*
X37933000Y38547000D01*
X37953000Y38547000D01*
X37953000Y39865155D01*
X37723110Y39986476D01*
X37460142Y39894352D01*
X37208807Y39747496D01*
X36990951Y39554429D01*
X36974714Y39533039D01*
X36918405Y39638386D01*
X36807962Y39772962D01*
X36673386Y39883405D01*
X36519850Y39965472D01*
X36353254Y40016008D01*
X36180000Y40033072D01*
X35164990Y40033072D01*
X35164990Y44930015D01*
X40133598Y39961406D01*
%TA.AperFunction,Conductor*%
D22*
G36*
X40133598Y39961406D02*
G01*
X40008966Y39923599D01*
X39750986Y39785706D01*
X39524866Y39600134D01*
X39339294Y39374013D01*
X39325538Y39348278D01*
X39169049Y39554429D01*
X38951193Y39747496D01*
X38699858Y39894352D01*
X38436890Y39986476D01*
X38207000Y39865155D01*
X38207000Y38547000D01*
X38227000Y38547000D01*
X38227000Y38293000D01*
X38207000Y38293000D01*
X38207000Y36974845D01*
X38436890Y36853524D01*
X38699858Y36945648D01*
X38951193Y37092504D01*
X39169049Y37285571D01*
X39325538Y37491722D01*
X39339294Y37465986D01*
X39524866Y37239866D01*
X39750987Y37054294D01*
X40008967Y36916401D01*
X40288890Y36831487D01*
X40580000Y36802815D01*
X40871111Y36831487D01*
X41151034Y36916401D01*
X41409014Y37054294D01*
X41635134Y37239866D01*
X41820706Y37465986D01*
X41830000Y37483374D01*
X41839294Y37465986D01*
X42024866Y37239866D01*
X42250987Y37054294D01*
X42508967Y36916401D01*
X42788890Y36831487D01*
X43080000Y36802815D01*
X43371111Y36831487D01*
X43651034Y36916401D01*
X43909014Y37054294D01*
X44135134Y37239866D01*
X44320706Y37465986D01*
X44330000Y37483374D01*
X44339294Y37465986D01*
X44524866Y37239866D01*
X44750987Y37054294D01*
X45008967Y36916401D01*
X45288890Y36831487D01*
X45580000Y36802815D01*
X45871111Y36831487D01*
X46151034Y36916401D01*
X46409014Y37054294D01*
X46635134Y37239866D01*
X46820706Y37465986D01*
X46830000Y37483374D01*
X46839294Y37465986D01*
X47024866Y37239866D01*
X47250987Y37054294D01*
X47508967Y36916401D01*
X47788890Y36831487D01*
X48080000Y36802815D01*
X48371111Y36831487D01*
X48495011Y36869072D01*
X48495011Y32350928D01*
X48371110Y32388513D01*
X48080000Y32417185D01*
X47788889Y32388513D01*
X47508966Y32303599D01*
X47250986Y32165706D01*
X47024866Y31980134D01*
X46839294Y31754013D01*
X46830000Y31736626D01*
X46820706Y31754014D01*
X46635134Y31980134D01*
X46409013Y32165706D01*
X46151033Y32303599D01*
X45871110Y32388513D01*
X45580000Y32417185D01*
X45569027Y32416104D01*
X44746986Y33238145D01*
X44711439Y33281459D01*
X44538613Y33423294D01*
X44341437Y33528686D01*
X44127489Y33593587D01*
X43960742Y33610010D01*
X43960741Y33610010D01*
X43904990Y33615501D01*
X43849239Y33610010D01*
X39326602Y33610010D01*
X36129683Y36806928D01*
X36180000Y36806928D01*
X36353254Y36823992D01*
X36519850Y36874528D01*
X36673386Y36956595D01*
X36807962Y37067038D01*
X36918405Y37201614D01*
X36974714Y37306961D01*
X36990951Y37285571D01*
X37208807Y37092504D01*
X37460142Y36945648D01*
X37723110Y36853524D01*
X37953000Y36974845D01*
X37953000Y38293000D01*
X37933000Y38293000D01*
X37933000Y38547000D01*
X37953000Y38547000D01*
X37953000Y39865155D01*
X37723110Y39986476D01*
X37460142Y39894352D01*
X37208807Y39747496D01*
X36990951Y39554429D01*
X36974714Y39533039D01*
X36918405Y39638386D01*
X36807962Y39772962D01*
X36673386Y39883405D01*
X36519850Y39965472D01*
X36353254Y40016008D01*
X36180000Y40033072D01*
X35164990Y40033072D01*
X35164990Y44930015D01*
X40133598Y39961406D01*
G37*
%TD.AperFunction*%
%TD*%
M02*
