%TF.GenerationSoftware,KiCad,Pcbnew,(5.1.8)-1*%
%TF.CreationDate,2021-03-06T21:28:27+09:00*%
%TF.ProjectId,line_sensor_controler,6c696e65-5f73-4656-9e73-6f725f636f6e,rev?*%
%TF.SameCoordinates,PX7445a00PY43d3480*%
%TF.FileFunction,Legend,Top*%
%TF.FilePolarity,Positive*%
%FSLAX46Y46*%
G04 Gerber Fmt 4.6, Leading zero omitted, Abs format (unit mm)*
G04 Created by KiCad (PCBNEW (5.1.8)-1) date 2021-03-06 21:28:27*
%MOMM*%
%LPD*%
G01*
G04 APERTURE LIST*
%ADD10C,0.200000*%
%ADD11C,1.700000*%
%ADD12O,1.700000X1.700000*%
%ADD13R,1.700000X1.700000*%
%ADD14C,1.120000*%
G04 APERTURE END LIST*
D10*
%TO.C,R18*%
X68070000Y8250000D02*
X68070000Y15240000D01*
X68070000Y15240000D02*
X61470000Y15240000D01*
X61470000Y15240000D02*
X61470000Y8250000D01*
X61470000Y8250000D02*
X68070000Y8250000D01*
X68549000Y11708000D02*
G75*
G03*
X68549000Y11708000I-57000J0D01*
G01*
%TO.C,R1*%
X7110000Y15870000D02*
X7110000Y22860000D01*
X7110000Y22860000D02*
X510000Y22860000D01*
X510000Y22860000D02*
X510000Y15870000D01*
X510000Y15870000D02*
X7110000Y15870000D01*
X7589000Y19328000D02*
G75*
G03*
X7589000Y19328000I-57000J0D01*
G01*
%TO.C,R2*%
X14730000Y15870000D02*
X14730000Y22860000D01*
X14730000Y22860000D02*
X8130000Y22860000D01*
X8130000Y22860000D02*
X8130000Y15870000D01*
X8130000Y15870000D02*
X14730000Y15870000D01*
X15209000Y19328000D02*
G75*
G03*
X15209000Y19328000I-57000J0D01*
G01*
%TO.C,R3*%
X22829000Y19328000D02*
G75*
G03*
X22829000Y19328000I-57000J0D01*
G01*
X15750000Y15870000D02*
X22350000Y15870000D01*
X15750000Y22860000D02*
X15750000Y15870000D01*
X22350000Y22860000D02*
X15750000Y22860000D01*
X22350000Y15870000D02*
X22350000Y22860000D01*
%TO.C,R4*%
X29970000Y15870000D02*
X29970000Y22860000D01*
X29970000Y22860000D02*
X23370000Y22860000D01*
X23370000Y22860000D02*
X23370000Y15870000D01*
X23370000Y15870000D02*
X29970000Y15870000D01*
X30449000Y19328000D02*
G75*
G03*
X30449000Y19328000I-57000J0D01*
G01*
%TO.C,R5*%
X38069000Y19328000D02*
G75*
G03*
X38069000Y19328000I-57000J0D01*
G01*
X30990000Y15870000D02*
X37590000Y15870000D01*
X30990000Y22860000D02*
X30990000Y15870000D01*
X37590000Y22860000D02*
X30990000Y22860000D01*
X37590000Y15870000D02*
X37590000Y22860000D01*
%TO.C,R6*%
X45210000Y15870000D02*
X45210000Y22860000D01*
X45210000Y22860000D02*
X38610000Y22860000D01*
X38610000Y22860000D02*
X38610000Y15870000D01*
X38610000Y15870000D02*
X45210000Y15870000D01*
X45689000Y19328000D02*
G75*
G03*
X45689000Y19328000I-57000J0D01*
G01*
%TO.C,R7*%
X53309000Y19328000D02*
G75*
G03*
X53309000Y19328000I-57000J0D01*
G01*
X46230000Y15870000D02*
X52830000Y15870000D01*
X46230000Y22860000D02*
X46230000Y15870000D01*
X52830000Y22860000D02*
X46230000Y22860000D01*
X52830000Y15870000D02*
X52830000Y22860000D01*
%TO.C,R8*%
X60450000Y15870000D02*
X60450000Y22860000D01*
X60450000Y22860000D02*
X53850000Y22860000D01*
X53850000Y22860000D02*
X53850000Y15870000D01*
X53850000Y15870000D02*
X60450000Y15870000D01*
X60929000Y19328000D02*
G75*
G03*
X60929000Y19328000I-57000J0D01*
G01*
%TO.C,R9*%
X68549000Y19328000D02*
G75*
G03*
X68549000Y19328000I-57000J0D01*
G01*
X61470000Y15870000D02*
X68070000Y15870000D01*
X61470000Y22860000D02*
X61470000Y15870000D01*
X68070000Y22860000D02*
X61470000Y22860000D01*
X68070000Y15870000D02*
X68070000Y22860000D01*
%TO.C,R10*%
X7110000Y8250000D02*
X7110000Y15240000D01*
X7110000Y15240000D02*
X510000Y15240000D01*
X510000Y15240000D02*
X510000Y8250000D01*
X510000Y8250000D02*
X7110000Y8250000D01*
X7589000Y11708000D02*
G75*
G03*
X7589000Y11708000I-57000J0D01*
G01*
%TO.C,R11*%
X15209000Y11708000D02*
G75*
G03*
X15209000Y11708000I-57000J0D01*
G01*
X8130000Y8250000D02*
X14730000Y8250000D01*
X8130000Y15240000D02*
X8130000Y8250000D01*
X14730000Y15240000D02*
X8130000Y15240000D01*
X14730000Y8250000D02*
X14730000Y15240000D01*
%TO.C,R12*%
X22350000Y8250000D02*
X22350000Y15240000D01*
X22350000Y15240000D02*
X15750000Y15240000D01*
X15750000Y15240000D02*
X15750000Y8250000D01*
X15750000Y8250000D02*
X22350000Y8250000D01*
X22829000Y11708000D02*
G75*
G03*
X22829000Y11708000I-57000J0D01*
G01*
%TO.C,R13*%
X30449000Y11708000D02*
G75*
G03*
X30449000Y11708000I-57000J0D01*
G01*
X23370000Y8250000D02*
X29970000Y8250000D01*
X23370000Y15240000D02*
X23370000Y8250000D01*
X29970000Y15240000D02*
X23370000Y15240000D01*
X29970000Y8250000D02*
X29970000Y15240000D01*
%TO.C,R14*%
X37590000Y8250000D02*
X37590000Y15240000D01*
X37590000Y15240000D02*
X30990000Y15240000D01*
X30990000Y15240000D02*
X30990000Y8250000D01*
X30990000Y8250000D02*
X37590000Y8250000D01*
X38069000Y11708000D02*
G75*
G03*
X38069000Y11708000I-57000J0D01*
G01*
%TO.C,R15*%
X45689000Y11708000D02*
G75*
G03*
X45689000Y11708000I-57000J0D01*
G01*
X38610000Y8250000D02*
X45210000Y8250000D01*
X38610000Y15240000D02*
X38610000Y8250000D01*
X45210000Y15240000D02*
X38610000Y15240000D01*
X45210000Y8250000D02*
X45210000Y15240000D01*
%TO.C,R16*%
X52830000Y8250000D02*
X52830000Y15240000D01*
X52830000Y15240000D02*
X46230000Y15240000D01*
X46230000Y15240000D02*
X46230000Y8250000D01*
X46230000Y8250000D02*
X52830000Y8250000D01*
X53309000Y11708000D02*
G75*
G03*
X53309000Y11708000I-57000J0D01*
G01*
%TO.C,R17*%
X60929000Y11708000D02*
G75*
G03*
X60929000Y11708000I-57000J0D01*
G01*
X53850000Y8250000D02*
X60450000Y8250000D01*
X53850000Y15240000D02*
X53850000Y8250000D01*
X60450000Y15240000D02*
X53850000Y15240000D01*
X60450000Y8250000D02*
X60450000Y15240000D01*
%TO.C,R19*%
X15209000Y4088000D02*
G75*
G03*
X15209000Y4088000I-57000J0D01*
G01*
X8130000Y630000D02*
X14730000Y630000D01*
X8130000Y7620000D02*
X8130000Y630000D01*
X14730000Y7620000D02*
X8130000Y7620000D01*
X14730000Y630000D02*
X14730000Y7620000D01*
%TO.C,R20*%
X22350000Y630000D02*
X22350000Y7620000D01*
X22350000Y7620000D02*
X15750000Y7620000D01*
X15750000Y7620000D02*
X15750000Y630000D01*
X15750000Y630000D02*
X22350000Y630000D01*
X22829000Y4088000D02*
G75*
G03*
X22829000Y4088000I-57000J0D01*
G01*
%TO.C,R21*%
X30449000Y4088000D02*
G75*
G03*
X30449000Y4088000I-57000J0D01*
G01*
X23370000Y630000D02*
X29970000Y630000D01*
X23370000Y7620000D02*
X23370000Y630000D01*
X29970000Y7620000D02*
X23370000Y7620000D01*
X29970000Y630000D02*
X29970000Y7620000D01*
%TO.C,R22*%
X37590000Y630000D02*
X37590000Y7620000D01*
X37590000Y7620000D02*
X30990000Y7620000D01*
X30990000Y7620000D02*
X30990000Y630000D01*
X30990000Y630000D02*
X37590000Y630000D01*
X38069000Y4088000D02*
G75*
G03*
X38069000Y4088000I-57000J0D01*
G01*
%TO.C,R23*%
X45689000Y4088000D02*
G75*
G03*
X45689000Y4088000I-57000J0D01*
G01*
X38610000Y630000D02*
X45210000Y630000D01*
X38610000Y7620000D02*
X38610000Y630000D01*
X45210000Y7620000D02*
X38610000Y7620000D01*
X45210000Y630000D02*
X45210000Y7620000D01*
%TO.C,R24*%
X52830000Y630000D02*
X52830000Y7620000D01*
X52830000Y7620000D02*
X46230000Y7620000D01*
X46230000Y7620000D02*
X46230000Y630000D01*
X46230000Y630000D02*
X52830000Y630000D01*
X53309000Y4088000D02*
G75*
G03*
X53309000Y4088000I-57000J0D01*
G01*
%TO.C,R25*%
X60929000Y4088000D02*
G75*
G03*
X60929000Y4088000I-57000J0D01*
G01*
X53850000Y630000D02*
X60450000Y630000D01*
X53850000Y7620000D02*
X53850000Y630000D01*
X60450000Y7620000D02*
X53850000Y7620000D01*
X60450000Y630000D02*
X60450000Y7620000D01*
%TD*%
%LPC*%
D11*
%TO.C,J1*%
X63500000Y25400000D03*
D12*
X60960000Y25400000D03*
X58420000Y25400000D03*
X55880000Y25400000D03*
X53340000Y25400000D03*
X50800000Y25400000D03*
X48260000Y25400000D03*
X45720000Y25400000D03*
X43180000Y25400000D03*
X40640000Y25400000D03*
X38100000Y25400000D03*
X35560000Y25400000D03*
X33020000Y25400000D03*
X30480000Y25400000D03*
X27940000Y25400000D03*
X25400000Y25400000D03*
X22860000Y25400000D03*
X20320000Y25400000D03*
X17780000Y25400000D03*
X15240000Y25400000D03*
X12700000Y25400000D03*
X10160000Y25400000D03*
X7620000Y25400000D03*
X5080000Y25400000D03*
X2540000Y25400000D03*
%TD*%
%TO.C,J2*%
X2540000Y27940000D03*
X5080000Y27940000D03*
X7620000Y27940000D03*
X10160000Y27940000D03*
X12700000Y27940000D03*
X15240000Y27940000D03*
X17780000Y27940000D03*
X20320000Y27940000D03*
X22860000Y27940000D03*
X25400000Y27940000D03*
X27940000Y27940000D03*
X30480000Y27940000D03*
X33020000Y27940000D03*
X35560000Y27940000D03*
X38100000Y27940000D03*
X40640000Y27940000D03*
X43180000Y27940000D03*
X45720000Y27940000D03*
X48260000Y27940000D03*
X50800000Y27940000D03*
X53340000Y27940000D03*
X55880000Y27940000D03*
X58420000Y27940000D03*
X60960000Y27940000D03*
D11*
X63500000Y27940000D03*
%TD*%
D13*
%TO.C,J3*%
X66040000Y27940000D03*
X66040000Y25400000D03*
%TD*%
D14*
%TO.C,R18*%
X67310000Y11710000D03*
X64770000Y9170000D03*
X62230000Y11710000D03*
%TD*%
%TO.C,R1*%
X6350000Y19330000D03*
X3810000Y16790000D03*
X1270000Y19330000D03*
%TD*%
%TO.C,R2*%
X13970000Y19330000D03*
X11430000Y16790000D03*
X8890000Y19330000D03*
%TD*%
%TO.C,R3*%
X16510000Y19330000D03*
X19050000Y16790000D03*
X21590000Y19330000D03*
%TD*%
%TO.C,R4*%
X29210000Y19330000D03*
X26670000Y16790000D03*
X24130000Y19330000D03*
%TD*%
%TO.C,R5*%
X31750000Y19330000D03*
X34290000Y16790000D03*
X36830000Y19330000D03*
%TD*%
%TO.C,R6*%
X44450000Y19330000D03*
X41910000Y16790000D03*
X39370000Y19330000D03*
%TD*%
%TO.C,R7*%
X46990000Y19330000D03*
X49530000Y16790000D03*
X52070000Y19330000D03*
%TD*%
%TO.C,R8*%
X59690000Y19330000D03*
X57150000Y16790000D03*
X54610000Y19330000D03*
%TD*%
%TO.C,R9*%
X62230000Y19330000D03*
X64770000Y16790000D03*
X67310000Y19330000D03*
%TD*%
%TO.C,R10*%
X6350000Y11710000D03*
X3810000Y9170000D03*
X1270000Y11710000D03*
%TD*%
%TO.C,R11*%
X8890000Y11710000D03*
X11430000Y9170000D03*
X13970000Y11710000D03*
%TD*%
%TO.C,R12*%
X21590000Y11710000D03*
X19050000Y9170000D03*
X16510000Y11710000D03*
%TD*%
%TO.C,R13*%
X24130000Y11710000D03*
X26670000Y9170000D03*
X29210000Y11710000D03*
%TD*%
%TO.C,R14*%
X36830000Y11710000D03*
X34290000Y9170000D03*
X31750000Y11710000D03*
%TD*%
%TO.C,R15*%
X39370000Y11710000D03*
X41910000Y9170000D03*
X44450000Y11710000D03*
%TD*%
%TO.C,R16*%
X52070000Y11710000D03*
X49530000Y9170000D03*
X46990000Y11710000D03*
%TD*%
%TO.C,R17*%
X54610000Y11710000D03*
X57150000Y9170000D03*
X59690000Y11710000D03*
%TD*%
%TO.C,R19*%
X8890000Y4090000D03*
X11430000Y1550000D03*
X13970000Y4090000D03*
%TD*%
%TO.C,R20*%
X21590000Y4090000D03*
X19050000Y1550000D03*
X16510000Y4090000D03*
%TD*%
%TO.C,R21*%
X24130000Y4090000D03*
X26670000Y1550000D03*
X29210000Y4090000D03*
%TD*%
%TO.C,R22*%
X36830000Y4090000D03*
X34290000Y1550000D03*
X31750000Y4090000D03*
%TD*%
%TO.C,R23*%
X39370000Y4090000D03*
X41910000Y1550000D03*
X44450000Y4090000D03*
%TD*%
%TO.C,R24*%
X52070000Y4090000D03*
X49530000Y1550000D03*
X46990000Y4090000D03*
%TD*%
%TO.C,R25*%
X54610000Y4090000D03*
X57150000Y1550000D03*
X59690000Y4090000D03*
%TD*%
M02*
