M48
; DRILL file {KiCad (5.1.8)-1} date 03/06/21 21:28:37
; FORMAT={-:-/ absolute / metric / decimal}
; #@! TF.CreationDate,2021-03-06T21:28:37+09:00
; #@! TF.GenerationSoftware,Kicad,Pcbnew,(5.1.8)-1
FMAT,2
METRIC
T1C0.400
T2C0.690
T3C1.000
%
G90
G05
T1
X1.27Y31.75
X5.715Y22.86
X8.89Y16.51
X9.713Y30.727
X11.43Y14.605
X11.848Y12.091
X13.97Y14.605
X16.51Y22.225
X17.287Y17.145
X18.087Y8.276
X19.685Y11.43
X20.854Y14.964
X21.407Y13.046
X21.59Y20.955
X23.728Y21.552
X24.617Y22.115
X24.765Y17.145
X26.67Y19.685
X29.21Y17.145
X34.482Y30.16
X37.145Y23.991
X39.494Y24.18
X41.026Y14.964
X41.91Y19.685
X43.103Y22.561
X43.815Y17.145
X46.609Y23.361
X50.003Y23.997
T2
X31.75Y4.09
X34.29Y1.55
X36.83Y4.09
X39.37Y4.09
X41.91Y1.55
X44.45Y4.09
X54.61Y19.33
X57.15Y16.79
X59.69Y19.33
X24.13Y4.09
X26.67Y1.55
X29.21Y4.09
X16.51Y11.71
X19.05Y9.17
X21.59Y11.71
X8.89Y19.33
X11.43Y16.79
X13.97Y19.33
X46.99Y19.33
X49.53Y16.79
X52.07Y19.33
X24.13Y19.33
X26.67Y16.79
X29.21Y19.33
X54.61Y11.71
X57.15Y9.17
X59.69Y11.71
X16.51Y4.09
X19.05Y1.55
X21.59Y4.09
X39.37Y19.33
X41.91Y16.79
X44.45Y19.33
X1.27Y19.33
X3.81Y16.79
X6.35Y19.33
X62.23Y19.33
X64.77Y16.79
X67.31Y19.33
X54.61Y4.09
X57.15Y1.55
X59.69Y4.09
X39.37Y11.71
X41.91Y9.17
X44.45Y11.71
X31.75Y19.33
X34.29Y16.79
X36.83Y19.33
X62.23Y11.71
X64.77Y9.17
X67.31Y11.71
X46.99Y4.09
X49.53Y1.55
X52.07Y4.09
X8.89Y11.71
X11.43Y9.17
X13.97Y11.71
X46.99Y11.71
X49.53Y9.17
X52.07Y11.71
X16.51Y19.33
X19.05Y16.79
X21.59Y19.33
X31.75Y11.71
X34.29Y9.17
X36.83Y11.71
X8.89Y4.09
X11.43Y1.55
X13.97Y4.09
X24.13Y11.71
X26.67Y9.17
X29.21Y11.71
X1.27Y11.71
X3.81Y9.17
X6.35Y11.71
T3
X66.04Y27.94
X66.04Y25.4
X2.54Y25.4
X5.08Y25.4
X7.62Y25.4
X10.16Y25.4
X12.7Y25.4
X15.24Y25.4
X17.78Y25.4
X20.32Y25.4
X22.86Y25.4
X25.4Y25.4
X27.94Y25.4
X30.48Y25.4
X33.02Y25.4
X35.56Y25.4
X38.1Y25.4
X40.64Y25.4
X43.18Y25.4
X45.72Y25.4
X48.26Y25.4
X50.8Y25.4
X53.34Y25.4
X55.88Y25.4
X58.42Y25.4
X60.96Y25.4
X63.5Y25.4
X2.54Y27.94
X5.08Y27.94
X7.62Y27.94
X10.16Y27.94
X12.7Y27.94
X15.24Y27.94
X17.78Y27.94
X20.32Y27.94
X22.86Y27.94
X25.4Y27.94
X27.94Y27.94
X30.48Y27.94
X33.02Y27.94
X35.56Y27.94
X38.1Y27.94
X40.64Y27.94
X43.18Y27.94
X45.72Y27.94
X48.26Y27.94
X50.8Y27.94
X53.34Y27.94
X55.88Y27.94
X58.42Y27.94
X60.96Y27.94
X63.5Y27.94
T0
M30
