M48
; DRILL file {KiCad (5.1.8)-1} date 03/06/21 21:18:23
; FORMAT={-:-/ absolute / metric / decimal}
; #@! TF.CreationDate,2021-03-06T21:18:23+09:00
; #@! TF.GenerationSoftware,Kicad,Pcbnew,(5.1.8)-1
FMAT,2
METRIC
T1C0.400
T2C1.000
%
G90
G05
T1
X5.08Y7.62
X6.35Y12.7
X6.35Y1.905
X7.62Y15.24
X10.16Y10.795
X10.16Y7.62
X10.795Y14.605
X11.43Y8.255
X12.984Y10.754
X15.875Y13.335
X15.875Y9.525
X17.78Y9.525
X17.78Y5.08
X19.05Y12.7
X19.05Y1.905
X20.32Y15.24
X22.86Y10.795
X22.86Y7.62
X23.495Y14.605
X24.13Y8.255
X25.684Y10.754
X28.575Y13.335
X28.575Y9.525
X30.48Y9.525
X30.48Y5.08
X31.75Y12.7
X31.75Y1.905
X33.02Y15.24
X35.56Y10.795
X35.56Y7.62
X36.195Y14.605
X36.83Y8.255
X38.384Y10.754
X41.275Y13.335
X41.275Y9.525
X43.18Y9.525
X43.18Y5.08
X44.45Y12.7
X44.45Y1.905
X45.72Y15.24
X48.26Y10.795
X48.26Y7.62
X48.895Y14.605
X51.084Y10.754
X53.975Y13.335
X53.975Y9.525
T2
X38.1Y2.54
X40.64Y2.54
X25.4Y15.24
X27.94Y15.24
X25.4Y2.54
X27.94Y2.54
X38.1Y15.24
X40.64Y15.24
X12.7Y2.54
X15.24Y2.54
X50.8Y15.24
X53.34Y15.24
X2.54Y15.24
X2.54Y12.7
X2.54Y10.16
X50.8Y2.54
X53.34Y2.54
X12.7Y15.24
X15.24Y15.24
T0
M30
