%TF.GenerationSoftware,KiCad,Pcbnew,(5.1.8)-1*%
%TF.CreationDate,2021-03-06T21:18:19+09:00*%
%TF.ProjectId,motor_driver,6d6f746f-725f-4647-9269-7665722e6b69,rev?*%
%TF.SameCoordinates,PX54c81a0PY87a6900*%
%TF.FileFunction,Copper,L1,Top*%
%TF.FilePolarity,Positive*%
%FSLAX46Y46*%
G04 Gerber Fmt 4.6, Leading zero omitted, Abs format (unit mm)*
G04 Created by KiCad (PCBNEW (5.1.8)-1) date 2021-03-06 21:18:19*
%MOMM*%
%LPD*%
G01*
G04 APERTURE LIST*
%TA.AperFunction,ComponentPad*%
%ADD10R,1.700000X1.700000*%
%TD*%
%TA.AperFunction,ComponentPad*%
%ADD11O,1.700000X1.700000*%
%TD*%
%TA.AperFunction,ComponentPad*%
%ADD12C,1.700000*%
%TD*%
%TA.AperFunction,SMDPad,CuDef*%
%ADD13R,0.940000X0.750000*%
%TD*%
%TA.AperFunction,SMDPad,CuDef*%
%ADD14R,1.850000X3.500000*%
%TD*%
%TA.AperFunction,SMDPad,CuDef*%
%ADD15R,0.800000X0.800000*%
%TD*%
%TA.AperFunction,SMDPad,CuDef*%
%ADD16R,1.050000X1.800000*%
%TD*%
%TA.AperFunction,SMDPad,CuDef*%
%ADD17R,2.390000X2.390000*%
%TD*%
%TA.AperFunction,SMDPad,CuDef*%
%ADD18R,0.650000X1.525000*%
%TD*%
%TA.AperFunction,ViaPad*%
%ADD19C,0.800000*%
%TD*%
%TA.AperFunction,Conductor*%
%ADD20C,0.500000*%
%TD*%
%TA.AperFunction,Conductor*%
%ADD21C,1.000000*%
%TD*%
%TA.AperFunction,Conductor*%
%ADD22C,0.254000*%
%TD*%
%TA.AperFunction,Conductor*%
%ADD23C,0.100000*%
%TD*%
G04 APERTURE END LIST*
D10*
%TO.P,J1,1*%
%TO.N,Net-(C1-Pad2)*%
X2540000Y15240000D03*
D11*
%TO.P,J1,2*%
%TO.N,Net-(C1-Pad1)*%
X2540000Y12700000D03*
%TO.P,J1,3*%
%TO.N,Net-(C10-Pad1)*%
X2540000Y10160000D03*
%TD*%
D12*
%TO.P,J2,1*%
%TO.N,Net-(J2-Pad1)*%
X15240000Y2540000D03*
D11*
%TO.P,J2,2*%
%TO.N,Net-(J2-Pad2)*%
X12700000Y2540000D03*
%TD*%
%TO.P,J3,2*%
%TO.N,Net-(J3-Pad2)*%
X25400000Y2540000D03*
D12*
%TO.P,J3,1*%
%TO.N,Net-(J3-Pad1)*%
X27940000Y2540000D03*
%TD*%
D10*
%TO.P,J4,1*%
%TO.N,Net-(J4-Pad1)*%
X40640000Y2540000D03*
D11*
%TO.P,J4,2*%
%TO.N,Net-(J4-Pad2)*%
X38100000Y2540000D03*
%TD*%
%TO.P,J5,2*%
%TO.N,Net-(J5-Pad2)*%
X50800000Y2540000D03*
D12*
%TO.P,J5,1*%
%TO.N,Net-(J5-Pad1)*%
X53340000Y2540000D03*
%TD*%
D11*
%TO.P,J9,2*%
%TO.N,Net-(J9-Pad2)*%
X53340000Y15240000D03*
D12*
%TO.P,J9,1*%
%TO.N,Net-(J9-Pad1)*%
X50800000Y15240000D03*
%TD*%
%TO.P,J8,1*%
%TO.N,Net-(J8-Pad1)*%
X38100000Y15240000D03*
D11*
%TO.P,J8,2*%
%TO.N,Net-(J8-Pad2)*%
X40640000Y15240000D03*
%TD*%
%TO.P,J7,2*%
%TO.N,Net-(J7-Pad2)*%
X27940000Y15240000D03*
D12*
%TO.P,J7,1*%
%TO.N,Net-(J7-Pad1)*%
X25400000Y15240000D03*
%TD*%
%TO.P,J6,1*%
%TO.N,Net-(J6-Pad1)*%
X12700000Y15240000D03*
D11*
%TO.P,J6,2*%
%TO.N,Net-(J6-Pad2)*%
X15240000Y15240000D03*
%TD*%
D13*
%TO.P,C1,1*%
%TO.N,Net-(C1-Pad1)*%
X5080000Y12000000D03*
%TO.P,C1,2*%
%TO.N,Net-(C1-Pad2)*%
X5080000Y13400000D03*
%TD*%
%TO.P,C2,1*%
%TO.N,Net-(C1-Pad1)*%
X17780000Y12000000D03*
%TO.P,C2,2*%
%TO.N,Net-(C1-Pad2)*%
X17780000Y13400000D03*
%TD*%
%TO.P,C3,1*%
%TO.N,Net-(C1-Pad1)*%
X30480000Y12000000D03*
%TO.P,C3,2*%
%TO.N,Net-(C1-Pad2)*%
X30480000Y13400000D03*
%TD*%
%TO.P,C4,2*%
%TO.N,Net-(C1-Pad2)*%
X43180000Y13400000D03*
%TO.P,C4,1*%
%TO.N,Net-(C1-Pad1)*%
X43180000Y12000000D03*
%TD*%
%TO.P,C5,1*%
%TO.N,Net-(C10-Pad1)*%
X10160000Y13400000D03*
%TO.P,C5,2*%
%TO.N,Net-(C1-Pad2)*%
X10160000Y12000000D03*
%TD*%
%TO.P,C6,2*%
%TO.N,Net-(C1-Pad2)*%
X22860000Y12000000D03*
%TO.P,C6,1*%
%TO.N,Net-(C10-Pad1)*%
X22860000Y13400000D03*
%TD*%
%TO.P,C7,2*%
%TO.N,Net-(C1-Pad2)*%
X35560000Y12000000D03*
%TO.P,C7,1*%
%TO.N,Net-(C10-Pad1)*%
X35560000Y13400000D03*
%TD*%
%TO.P,C8,2*%
%TO.N,Net-(C1-Pad2)*%
X48260000Y12000000D03*
%TO.P,C8,1*%
%TO.N,Net-(C10-Pad1)*%
X48260000Y13400000D03*
%TD*%
D14*
%TO.P,C12,1*%
%TO.N,Net-(C10-Pad1)*%
X7620000Y10270000D03*
%TO.P,C12,2*%
%TO.N,Net-(C1-Pad2)*%
X7620000Y4970000D03*
%TD*%
D15*
%TO.P,D1,1*%
%TO.N,Net-(D1-Pad1)*%
X10160000Y1790000D03*
%TO.P,D1,2*%
%TO.N,Net-(C1-Pad1)*%
X10160000Y3290000D03*
%TD*%
%TO.P,D2,2*%
%TO.N,Net-(C1-Pad1)*%
X22860000Y3290000D03*
%TO.P,D2,1*%
%TO.N,Net-(D2-Pad1)*%
X22860000Y1790000D03*
%TD*%
%TO.P,D3,2*%
%TO.N,Net-(C1-Pad1)*%
X35560000Y3290000D03*
%TO.P,D3,1*%
%TO.N,Net-(D3-Pad1)*%
X35560000Y1790000D03*
%TD*%
%TO.P,D4,1*%
%TO.N,Net-(D4-Pad1)*%
X48260000Y1790000D03*
%TO.P,D4,2*%
%TO.N,Net-(C1-Pad1)*%
X48260000Y3290000D03*
%TD*%
D16*
%TO.P,R1,2*%
%TO.N,Net-(D1-Pad1)*%
X7900000Y1905000D03*
%TO.P,R1,1*%
%TO.N,Net-(C1-Pad2)*%
X4800000Y1905000D03*
%TD*%
%TO.P,R2,1*%
%TO.N,Net-(C1-Pad2)*%
X17500000Y1905000D03*
%TO.P,R2,2*%
%TO.N,Net-(D2-Pad1)*%
X20600000Y1905000D03*
%TD*%
%TO.P,R3,2*%
%TO.N,Net-(D3-Pad1)*%
X33300000Y1905000D03*
%TO.P,R3,1*%
%TO.N,Net-(C1-Pad2)*%
X30200000Y1905000D03*
%TD*%
%TO.P,R4,1*%
%TO.N,Net-(C1-Pad2)*%
X42900000Y1905000D03*
%TO.P,R4,2*%
%TO.N,Net-(D4-Pad1)*%
X46000000Y1905000D03*
%TD*%
%TO.P,R5,2*%
%TO.N,Net-(R5-Pad2)*%
X9170000Y15240000D03*
%TO.P,R5,1*%
%TO.N,Net-(C1-Pad2)*%
X6070000Y15240000D03*
%TD*%
%TO.P,R6,1*%
%TO.N,Net-(C1-Pad2)*%
X18770000Y15240000D03*
%TO.P,R6,2*%
%TO.N,Net-(R6-Pad2)*%
X21870000Y15240000D03*
%TD*%
%TO.P,R7,2*%
%TO.N,Net-(R7-Pad2)*%
X34570000Y15240000D03*
%TO.P,R7,1*%
%TO.N,Net-(C1-Pad2)*%
X31470000Y15240000D03*
%TD*%
%TO.P,R8,1*%
%TO.N,Net-(C1-Pad2)*%
X44170000Y15240000D03*
%TO.P,R8,2*%
%TO.N,Net-(R8-Pad2)*%
X47270000Y15240000D03*
%TD*%
D17*
%TO.P,U3,9*%
%TO.N,N/C*%
X13970000Y8890000D03*
D18*
%TO.P,U3,8*%
%TO.N,Net-(J6-Pad1)*%
X12065000Y11602000D03*
%TO.P,U3,7*%
%TO.N,Net-(R5-Pad2)*%
X13335000Y11602000D03*
%TO.P,U3,6*%
%TO.N,Net-(J6-Pad2)*%
X14605000Y11602000D03*
%TO.P,U3,5*%
%TO.N,Net-(C10-Pad1)*%
X15875000Y11602000D03*
%TO.P,U3,4*%
%TO.N,Net-(C1-Pad1)*%
X15875000Y6178000D03*
%TO.P,U3,3*%
%TO.N,Net-(J2-Pad1)*%
X14605000Y6178000D03*
%TO.P,U3,2*%
%TO.N,Net-(J2-Pad2)*%
X13335000Y6178000D03*
%TO.P,U3,1*%
%TO.N,Net-(C1-Pad2)*%
X12065000Y6178000D03*
%TD*%
D17*
%TO.P,U4,9*%
%TO.N,N/C*%
X26670000Y8890000D03*
D18*
%TO.P,U4,8*%
%TO.N,Net-(J7-Pad1)*%
X24765000Y11602000D03*
%TO.P,U4,7*%
%TO.N,Net-(R6-Pad2)*%
X26035000Y11602000D03*
%TO.P,U4,6*%
%TO.N,Net-(J7-Pad2)*%
X27305000Y11602000D03*
%TO.P,U4,5*%
%TO.N,Net-(C10-Pad1)*%
X28575000Y11602000D03*
%TO.P,U4,4*%
%TO.N,Net-(C1-Pad1)*%
X28575000Y6178000D03*
%TO.P,U4,3*%
%TO.N,Net-(J3-Pad1)*%
X27305000Y6178000D03*
%TO.P,U4,2*%
%TO.N,Net-(J3-Pad2)*%
X26035000Y6178000D03*
%TO.P,U4,1*%
%TO.N,Net-(C1-Pad2)*%
X24765000Y6178000D03*
%TD*%
%TO.P,U5,1*%
%TO.N,Net-(C1-Pad2)*%
X37465000Y6178000D03*
%TO.P,U5,2*%
%TO.N,Net-(J4-Pad2)*%
X38735000Y6178000D03*
%TO.P,U5,3*%
%TO.N,Net-(J4-Pad1)*%
X40005000Y6178000D03*
%TO.P,U5,4*%
%TO.N,Net-(C1-Pad1)*%
X41275000Y6178000D03*
%TO.P,U5,5*%
%TO.N,Net-(C10-Pad1)*%
X41275000Y11602000D03*
%TO.P,U5,6*%
%TO.N,Net-(J8-Pad2)*%
X40005000Y11602000D03*
%TO.P,U5,7*%
%TO.N,Net-(R7-Pad2)*%
X38735000Y11602000D03*
%TO.P,U5,8*%
%TO.N,Net-(J8-Pad1)*%
X37465000Y11602000D03*
D17*
%TO.P,U5,9*%
%TO.N,N/C*%
X39370000Y8890000D03*
%TD*%
D18*
%TO.P,U6,1*%
%TO.N,Net-(C1-Pad2)*%
X50165000Y6178000D03*
%TO.P,U6,2*%
%TO.N,Net-(J5-Pad2)*%
X51435000Y6178000D03*
%TO.P,U6,3*%
%TO.N,Net-(J5-Pad1)*%
X52705000Y6178000D03*
%TO.P,U6,4*%
%TO.N,Net-(C1-Pad1)*%
X53975000Y6178000D03*
%TO.P,U6,5*%
%TO.N,Net-(C10-Pad1)*%
X53975000Y11602000D03*
%TO.P,U6,6*%
%TO.N,Net-(J9-Pad2)*%
X52705000Y11602000D03*
%TO.P,U6,7*%
%TO.N,Net-(R8-Pad2)*%
X51435000Y11602000D03*
%TO.P,U6,8*%
%TO.N,Net-(J9-Pad1)*%
X50165000Y11602000D03*
D17*
%TO.P,U6,9*%
%TO.N,N/C*%
X52070000Y8890000D03*
%TD*%
D14*
%TO.P,C9,1*%
%TO.N,Net-(C10-Pad1)*%
X20320000Y10270000D03*
%TO.P,C9,2*%
%TO.N,Net-(C1-Pad2)*%
X20320000Y4970000D03*
%TD*%
%TO.P,C10,2*%
%TO.N,Net-(C1-Pad2)*%
X33020000Y4970000D03*
%TO.P,C10,1*%
%TO.N,Net-(C10-Pad1)*%
X33020000Y10270000D03*
%TD*%
%TO.P,C11,1*%
%TO.N,Net-(C10-Pad1)*%
X45720000Y10270000D03*
%TO.P,C11,2*%
%TO.N,Net-(C1-Pad2)*%
X45720000Y4970000D03*
%TD*%
D19*
%TO.N,Net-(C1-Pad1)*%
X6350000Y12700000D03*
X15875000Y9525000D03*
X17780000Y9525000D03*
X19050000Y12700000D03*
X28575000Y9525000D03*
X30480000Y9525000D03*
X31750000Y12700000D03*
X41275000Y9525000D03*
X43180000Y9525000D03*
X44450000Y12700000D03*
X53975000Y9525000D03*
X10160000Y7620000D03*
X22860000Y7620000D03*
X35560000Y7620000D03*
X48260000Y7620000D03*
%TO.N,Net-(C1-Pad2)*%
X36830000Y8255000D03*
X24130000Y8255000D03*
X11430000Y8255000D03*
X5080000Y7620000D03*
X31750000Y1905000D03*
X35560000Y10795000D03*
X44450000Y1905000D03*
X48260000Y10795000D03*
X22860000Y10795000D03*
X19050000Y1905000D03*
X10160000Y10795000D03*
X6350000Y1905000D03*
%TO.N,Net-(R5-Pad2)*%
X12983914Y10754245D03*
X7620000Y15240000D03*
%TO.N,Net-(R6-Pad2)*%
X25683914Y10754245D03*
X20320000Y15240000D03*
%TO.N,Net-(R7-Pad2)*%
X38383914Y10754245D03*
X33020000Y15240000D03*
%TO.N,Net-(R8-Pad2)*%
X51083914Y10754245D03*
X45720000Y15240000D03*
%TO.N,Net-(C10-Pad1)*%
X10795000Y14605000D03*
X15875000Y13335000D03*
X17780000Y5080000D03*
X23495000Y14605000D03*
X28575000Y13335000D03*
X30480000Y5080000D03*
X36195000Y14605000D03*
X41275000Y13335000D03*
X43180000Y5080000D03*
X48895000Y14605000D03*
X53975000Y13335000D03*
%TD*%
D20*
%TO.N,Net-(C1-Pad1)*%
X3240000Y12000000D02*
X5080000Y12000000D01*
X2540000Y12700000D02*
X3240000Y12000000D01*
X5650000Y12000000D02*
X6350000Y12700000D01*
X5080000Y12000000D02*
X5650000Y12000000D01*
X15875000Y9525000D02*
X15875000Y6178000D01*
X17780000Y9525000D02*
X17780000Y12000000D01*
X18350000Y12000000D02*
X19050000Y12700000D01*
X17780000Y12000000D02*
X18350000Y12000000D01*
X28575000Y9525000D02*
X28575000Y6178000D01*
X30480000Y9525000D02*
X30480000Y12000000D01*
X31050000Y12000000D02*
X31750000Y12700000D01*
X30480000Y12000000D02*
X31050000Y12000000D01*
X41275000Y9525000D02*
X41275000Y6178000D01*
X43180000Y9525000D02*
X43180000Y12000000D01*
X43750000Y12000000D02*
X44450000Y12700000D01*
X43180000Y12000000D02*
X43750000Y12000000D01*
X53975000Y9525000D02*
X53975000Y6178000D01*
X10160000Y7620000D02*
X10160000Y3290000D01*
X22860000Y7620000D02*
X22860000Y3290000D01*
X35560000Y7620000D02*
X35560000Y3290000D01*
X48260000Y7620000D02*
X48260000Y3290000D01*
%TO.N,Net-(C1-Pad2)*%
X5080000Y14250000D02*
X6070000Y15240000D01*
X5080000Y13400000D02*
X5080000Y14250000D01*
X17780000Y14250000D02*
X18770000Y15240000D01*
X17780000Y13400000D02*
X17780000Y14250000D01*
X30480000Y14250000D02*
X31470000Y15240000D01*
X30480000Y13400000D02*
X30480000Y14250000D01*
X43180000Y14250000D02*
X44170000Y15240000D01*
X43180000Y13400000D02*
X43180000Y14250000D01*
%TO.N,Net-(D1-Pad1)*%
X8015000Y1790000D02*
X7900000Y1905000D01*
X10160000Y1790000D02*
X8015000Y1790000D01*
%TO.N,Net-(D2-Pad1)*%
X20715000Y1790000D02*
X20600000Y1905000D01*
X22860000Y1790000D02*
X20715000Y1790000D01*
%TO.N,Net-(D3-Pad1)*%
X33415000Y1790000D02*
X33300000Y1905000D01*
X35560000Y1790000D02*
X33415000Y1790000D01*
%TO.N,Net-(D4-Pad1)*%
X48145000Y1905000D02*
X48260000Y1790000D01*
X46000000Y1905000D02*
X48145000Y1905000D01*
%TO.N,Net-(J2-Pad1)*%
X14605000Y3175000D02*
X15240000Y2540000D01*
X14605000Y6178000D02*
X14605000Y3175000D01*
%TO.N,Net-(J2-Pad2)*%
X13335000Y3175000D02*
X12700000Y2540000D01*
X13335000Y6178000D02*
X13335000Y3175000D01*
%TO.N,Net-(J3-Pad2)*%
X26035000Y3175000D02*
X26035000Y6178000D01*
X25400000Y2540000D02*
X26035000Y3175000D01*
%TO.N,Net-(J3-Pad1)*%
X27305000Y3175000D02*
X27305000Y6178000D01*
X27940000Y2540000D02*
X27305000Y3175000D01*
%TO.N,Net-(J4-Pad1)*%
X40005000Y3175000D02*
X40640000Y2540000D01*
X40005000Y6178000D02*
X40005000Y3175000D01*
%TO.N,Net-(J4-Pad2)*%
X38735000Y3175000D02*
X38735000Y6178000D01*
X38100000Y2540000D02*
X38735000Y3175000D01*
%TO.N,Net-(J5-Pad2)*%
X51435000Y3175000D02*
X51435000Y6178000D01*
X50800000Y2540000D02*
X51435000Y3175000D01*
%TO.N,Net-(J5-Pad1)*%
X52705000Y3175000D02*
X53340000Y2540000D01*
X52705000Y6178000D02*
X52705000Y3175000D01*
D21*
%TO.N,Net-(J6-Pad1)*%
X12065000Y14605000D02*
X12065000Y11602000D01*
X12700000Y15240000D02*
X12065000Y14605000D01*
%TO.N,Net-(J6-Pad2)*%
X14605000Y14605000D02*
X14605000Y11602000D01*
X15240000Y15240000D02*
X14605000Y14605000D01*
%TO.N,Net-(J7-Pad2)*%
X27305000Y14605000D02*
X27305000Y11602000D01*
X27940000Y15240000D02*
X27305000Y14605000D01*
%TO.N,Net-(J7-Pad1)*%
X24765000Y14605000D02*
X24765000Y11602000D01*
X25400000Y15240000D02*
X24765000Y14605000D01*
%TO.N,Net-(J8-Pad1)*%
X37465000Y14605000D02*
X37465000Y11602000D01*
X38100000Y15240000D02*
X37465000Y14605000D01*
%TO.N,Net-(J8-Pad2)*%
X40005000Y14605000D02*
X40005000Y11602000D01*
X40640000Y15240000D02*
X40005000Y14605000D01*
%TO.N,Net-(J9-Pad2)*%
X52705000Y14605000D02*
X52705000Y11602000D01*
X53340000Y15240000D02*
X52705000Y14605000D01*
%TO.N,Net-(J9-Pad1)*%
X50165000Y14605000D02*
X50165000Y11602000D01*
X50800000Y15240000D02*
X50165000Y14605000D01*
D20*
%TO.N,Net-(R5-Pad2)*%
X13335000Y11105331D02*
X12983914Y10754245D01*
X13335000Y11602000D02*
X13335000Y11105331D01*
X7620000Y15240000D02*
X9170000Y15240000D01*
%TO.N,Net-(R6-Pad2)*%
X26035000Y11105331D02*
X25683914Y10754245D01*
X26035000Y11602000D02*
X26035000Y11105331D01*
X20320000Y15240000D02*
X21870000Y15240000D01*
%TO.N,Net-(R7-Pad2)*%
X38735000Y11105331D02*
X38383914Y10754245D01*
X38735000Y11602000D02*
X38735000Y11105331D01*
X33020000Y15240000D02*
X34570000Y15240000D01*
%TO.N,Net-(R8-Pad2)*%
X51435000Y11105331D02*
X51083914Y10754245D01*
X51435000Y11602000D02*
X51435000Y11105331D01*
X45720000Y15240000D02*
X47270000Y15240000D01*
D21*
%TO.N,Net-(C10-Pad1)*%
X7510000Y10160000D02*
X7620000Y10270000D01*
X2540000Y10160000D02*
X7510000Y10160000D01*
X8000000Y13400000D02*
X10160000Y13400000D01*
X7620000Y13020000D02*
X8000000Y13400000D01*
X7620000Y10270000D02*
X7620000Y13020000D01*
X10795000Y14035000D02*
X10795000Y14605000D01*
X10160000Y13400000D02*
X10795000Y14035000D01*
X15875000Y13335000D02*
X15875000Y11602000D01*
X17780000Y7730000D02*
X20320000Y10270000D01*
X17780000Y5080000D02*
X17780000Y7730000D01*
X20700000Y13400000D02*
X22860000Y13400000D01*
X20320000Y13020000D02*
X20700000Y13400000D01*
X20320000Y10270000D02*
X20320000Y13020000D01*
X23495000Y14035000D02*
X23495000Y14605000D01*
X22860000Y13400000D02*
X23495000Y14035000D01*
X28575000Y13335000D02*
X28575000Y11602000D01*
X30480000Y7730000D02*
X33020000Y10270000D01*
X30480000Y5080000D02*
X30480000Y7730000D01*
X33400000Y13400000D02*
X35560000Y13400000D01*
X33020000Y13020000D02*
X33400000Y13400000D01*
X33020000Y10270000D02*
X33020000Y13020000D01*
X36195000Y14035000D02*
X36195000Y14605000D01*
X35560000Y13400000D02*
X36195000Y14035000D01*
X41275000Y13335000D02*
X41275000Y11602000D01*
X43180000Y7730000D02*
X45720000Y10270000D01*
X43180000Y5080000D02*
X43180000Y7730000D01*
X45720000Y13020000D02*
X46100000Y13400000D01*
X46100000Y13400000D02*
X48260000Y13400000D01*
X45720000Y10270000D02*
X45720000Y13020000D01*
X48895000Y14035000D02*
X48895000Y14605000D01*
X48260000Y13400000D02*
X48895000Y14035000D01*
X53975000Y13335000D02*
X53975000Y11602000D01*
%TD*%
D22*
%TO.N,Net-(C1-Pad2)*%
X55220001Y660000D02*
X47060612Y660000D01*
X47114502Y760820D01*
X47150812Y880518D01*
X47163072Y1005000D01*
X47163072Y1020000D01*
X47342188Y1020000D01*
X47408815Y938815D01*
X47505506Y859463D01*
X47615820Y800498D01*
X47735518Y764188D01*
X47860000Y751928D01*
X48660000Y751928D01*
X48784482Y764188D01*
X48904180Y800498D01*
X49014494Y859463D01*
X49111185Y938815D01*
X49190537Y1035506D01*
X49249502Y1145820D01*
X49285812Y1265518D01*
X49298072Y1390000D01*
X49298072Y2190000D01*
X49285812Y2314482D01*
X49249502Y2434180D01*
X49192939Y2540000D01*
X49249502Y2645820D01*
X49285812Y2765518D01*
X49298072Y2890000D01*
X49298072Y3690000D01*
X49285812Y3814482D01*
X49249502Y3934180D01*
X49190537Y4044494D01*
X49145000Y4099981D01*
X49145000Y5415500D01*
X49201928Y5415500D01*
X49214188Y5291018D01*
X49250498Y5171320D01*
X49309463Y5061006D01*
X49388815Y4964315D01*
X49485506Y4884963D01*
X49595820Y4825998D01*
X49715518Y4789688D01*
X49840000Y4777428D01*
X49879250Y4780500D01*
X50038000Y4939250D01*
X50038000Y6051000D01*
X49363750Y6051000D01*
X49205000Y5892250D01*
X49201928Y5415500D01*
X49145000Y5415500D01*
X49145000Y6940500D01*
X49201928Y6940500D01*
X49205000Y6463750D01*
X49363750Y6305000D01*
X50038000Y6305000D01*
X50038000Y7416750D01*
X49879250Y7575500D01*
X49840000Y7578572D01*
X49715518Y7566312D01*
X49595820Y7530002D01*
X49485506Y7471037D01*
X49388815Y7391685D01*
X49309463Y7294994D01*
X49250498Y7184680D01*
X49214188Y7064982D01*
X49201928Y6940500D01*
X49145000Y6940500D01*
X49145000Y7081546D01*
X49177205Y7129744D01*
X49255226Y7318102D01*
X49295000Y7518061D01*
X49295000Y7721939D01*
X49255226Y7921898D01*
X49177205Y8110256D01*
X49063937Y8279774D01*
X48919774Y8423937D01*
X48750256Y8537205D01*
X48561898Y8615226D01*
X48361939Y8655000D01*
X48158061Y8655000D01*
X47958102Y8615226D01*
X47769744Y8537205D01*
X47600226Y8423937D01*
X47456063Y8279774D01*
X47342795Y8110256D01*
X47264774Y7921898D01*
X47225000Y7721939D01*
X47225000Y7518061D01*
X47264774Y7318102D01*
X47342795Y7129744D01*
X47375000Y7081545D01*
X47375001Y4099982D01*
X47329463Y4044494D01*
X47281530Y3954820D01*
X47280000Y4684250D01*
X47121250Y4843000D01*
X45847000Y4843000D01*
X45847000Y4823000D01*
X45593000Y4823000D01*
X45593000Y4843000D01*
X45573000Y4843000D01*
X45573000Y5097000D01*
X45593000Y5097000D01*
X45593000Y7196250D01*
X45847000Y7196250D01*
X45847000Y5097000D01*
X47121250Y5097000D01*
X47280000Y5255750D01*
X47283072Y6720000D01*
X47270812Y6844482D01*
X47234502Y6964180D01*
X47175537Y7074494D01*
X47096185Y7171185D01*
X46999494Y7250537D01*
X46889180Y7309502D01*
X46769482Y7345812D01*
X46645000Y7358072D01*
X46005750Y7355000D01*
X45847000Y7196250D01*
X45593000Y7196250D01*
X45434250Y7355000D01*
X44795000Y7358072D01*
X44670518Y7345812D01*
X44550820Y7309502D01*
X44440506Y7250537D01*
X44343815Y7171185D01*
X44315000Y7136074D01*
X44315000Y7259869D01*
X44937059Y7881928D01*
X46645000Y7881928D01*
X46769482Y7894188D01*
X46889180Y7930498D01*
X46999494Y7989463D01*
X47096185Y8068815D01*
X47175537Y8165506D01*
X47234502Y8275820D01*
X47270812Y8395518D01*
X47283072Y8520000D01*
X47283072Y11241738D01*
X47338815Y11173815D01*
X47435506Y11094463D01*
X47545820Y11035498D01*
X47665518Y10999188D01*
X47790000Y10986928D01*
X47974250Y10990000D01*
X48133000Y11148750D01*
X48133000Y11873000D01*
X48113000Y11873000D01*
X48113000Y12127000D01*
X48133000Y12127000D01*
X48133000Y12147000D01*
X48387000Y12147000D01*
X48387000Y12127000D01*
X48407000Y12127000D01*
X48407000Y11873000D01*
X48387000Y11873000D01*
X48387000Y11148750D01*
X48545750Y10990000D01*
X48730000Y10986928D01*
X48854482Y10999188D01*
X48974180Y11035498D01*
X49084494Y11094463D01*
X49129556Y11131445D01*
X49201928Y10996045D01*
X49201928Y10839500D01*
X49214188Y10715018D01*
X49250498Y10595320D01*
X49309463Y10485006D01*
X49388815Y10388315D01*
X49485506Y10308963D01*
X49595820Y10249998D01*
X49715518Y10213688D01*
X49840000Y10201428D01*
X50208511Y10201428D01*
X50243271Y10149405D01*
X50236928Y10085000D01*
X50236928Y7695000D01*
X50249188Y7570518D01*
X50285498Y7450820D01*
X50299630Y7424380D01*
X50292000Y7416750D01*
X50292000Y6305000D01*
X50312000Y6305000D01*
X50312000Y6051000D01*
X50292000Y6051000D01*
X50292000Y4939250D01*
X50450750Y4780500D01*
X50490000Y4777428D01*
X50550001Y4783337D01*
X50550000Y4004365D01*
X50366842Y3967932D01*
X50096589Y3855990D01*
X49853368Y3693475D01*
X49646525Y3486632D01*
X49484010Y3243411D01*
X49372068Y2973158D01*
X49315000Y2686260D01*
X49315000Y2393740D01*
X49372068Y2106842D01*
X49484010Y1836589D01*
X49646525Y1593368D01*
X49853368Y1386525D01*
X50096589Y1224010D01*
X50366842Y1112068D01*
X50653740Y1055000D01*
X50946260Y1055000D01*
X51233158Y1112068D01*
X51503411Y1224010D01*
X51746632Y1386525D01*
X51953475Y1593368D01*
X52070000Y1767760D01*
X52186525Y1593368D01*
X52393368Y1386525D01*
X52636589Y1224010D01*
X52906842Y1112068D01*
X53193740Y1055000D01*
X53486260Y1055000D01*
X53773158Y1112068D01*
X54043411Y1224010D01*
X54286632Y1386525D01*
X54493475Y1593368D01*
X54655990Y1836589D01*
X54767932Y2106842D01*
X54825000Y2393740D01*
X54825000Y2686260D01*
X54767932Y2973158D01*
X54655990Y3243411D01*
X54493475Y3486632D01*
X54286632Y3693475D01*
X54043411Y3855990D01*
X53773158Y3967932D01*
X53590000Y4004365D01*
X53590000Y4783337D01*
X53650000Y4777428D01*
X54300000Y4777428D01*
X54424482Y4789688D01*
X54544180Y4825998D01*
X54654494Y4884963D01*
X54751185Y4964315D01*
X54830537Y5061006D01*
X54889502Y5171320D01*
X54925812Y5291018D01*
X54938072Y5415500D01*
X54938072Y6940500D01*
X54925812Y7064982D01*
X54889502Y7184680D01*
X54860000Y7239873D01*
X54860000Y8986546D01*
X54892205Y9034744D01*
X54970226Y9223102D01*
X55010000Y9423061D01*
X55010000Y9626939D01*
X54970226Y9826898D01*
X54892205Y10015256D01*
X54778937Y10184774D01*
X54654634Y10309077D01*
X54751185Y10388315D01*
X54830537Y10485006D01*
X54889502Y10595320D01*
X54925812Y10715018D01*
X54938072Y10839500D01*
X54938072Y10996044D01*
X55028676Y11165553D01*
X55093577Y11379501D01*
X55110000Y11546248D01*
X55110000Y13390752D01*
X55093577Y13557499D01*
X55028676Y13771447D01*
X54923284Y13968623D01*
X54781449Y14141449D01*
X54608623Y14283284D01*
X54518812Y14331288D01*
X54655990Y14536589D01*
X54767932Y14806842D01*
X54825000Y15093740D01*
X54825000Y15386260D01*
X54767932Y15673158D01*
X54655990Y15943411D01*
X54493475Y16186632D01*
X54286632Y16393475D01*
X54043411Y16555990D01*
X53773158Y16667932D01*
X53486260Y16725000D01*
X53193740Y16725000D01*
X52906842Y16667932D01*
X52636589Y16555990D01*
X52393368Y16393475D01*
X52186525Y16186632D01*
X52070000Y16012240D01*
X51953475Y16186632D01*
X51746632Y16393475D01*
X51503411Y16555990D01*
X51233158Y16667932D01*
X50946260Y16725000D01*
X50653740Y16725000D01*
X50366842Y16667932D01*
X50096589Y16555990D01*
X49853368Y16393475D01*
X49646525Y16186632D01*
X49484010Y15943411D01*
X49372068Y15673158D01*
X49365560Y15640442D01*
X49331447Y15658676D01*
X49117499Y15723577D01*
X48895000Y15745491D01*
X48672502Y15723577D01*
X48458554Y15658676D01*
X48433072Y15645056D01*
X48433072Y16140000D01*
X48420812Y16264482D01*
X48384502Y16384180D01*
X48325537Y16494494D01*
X48246185Y16591185D01*
X48149494Y16670537D01*
X48039180Y16729502D01*
X47919482Y16765812D01*
X47795000Y16778072D01*
X46745000Y16778072D01*
X46620518Y16765812D01*
X46500820Y16729502D01*
X46390506Y16670537D01*
X46293815Y16591185D01*
X46214463Y16494494D01*
X46155498Y16384180D01*
X46119188Y16264482D01*
X46112606Y16197653D01*
X46021898Y16235226D01*
X45821939Y16275000D01*
X45618061Y16275000D01*
X45418102Y16235226D01*
X45327394Y16197653D01*
X45320812Y16264482D01*
X45284502Y16384180D01*
X45225537Y16494494D01*
X45146185Y16591185D01*
X45049494Y16670537D01*
X44939180Y16729502D01*
X44819482Y16765812D01*
X44695000Y16778072D01*
X44455750Y16775000D01*
X44297000Y16616250D01*
X44297000Y15367000D01*
X44317000Y15367000D01*
X44317000Y15113000D01*
X44297000Y15113000D01*
X44297000Y15093000D01*
X44043000Y15093000D01*
X44043000Y15113000D01*
X43168750Y15113000D01*
X43010000Y14954250D01*
X43006928Y14340000D01*
X43011590Y14292660D01*
X42894250Y14410000D01*
X42710000Y14413072D01*
X42585518Y14400812D01*
X42465820Y14364502D01*
X42355506Y14305537D01*
X42258815Y14226185D01*
X42179463Y14129494D01*
X42144674Y14064409D01*
X42081449Y14141449D01*
X41908623Y14283284D01*
X41818812Y14331288D01*
X41955990Y14536589D01*
X42067932Y14806842D01*
X42125000Y15093740D01*
X42125000Y15386260D01*
X42067932Y15673158D01*
X41955990Y15943411D01*
X41824634Y16140000D01*
X43006928Y16140000D01*
X43010000Y15525750D01*
X43168750Y15367000D01*
X44043000Y15367000D01*
X44043000Y16616250D01*
X43884250Y16775000D01*
X43645000Y16778072D01*
X43520518Y16765812D01*
X43400820Y16729502D01*
X43290506Y16670537D01*
X43193815Y16591185D01*
X43114463Y16494494D01*
X43055498Y16384180D01*
X43019188Y16264482D01*
X43006928Y16140000D01*
X41824634Y16140000D01*
X41793475Y16186632D01*
X41586632Y16393475D01*
X41343411Y16555990D01*
X41073158Y16667932D01*
X40786260Y16725000D01*
X40493740Y16725000D01*
X40206842Y16667932D01*
X39936589Y16555990D01*
X39693368Y16393475D01*
X39486525Y16186632D01*
X39370000Y16012240D01*
X39253475Y16186632D01*
X39046632Y16393475D01*
X38803411Y16555990D01*
X38533158Y16667932D01*
X38246260Y16725000D01*
X37953740Y16725000D01*
X37666842Y16667932D01*
X37396589Y16555990D01*
X37153368Y16393475D01*
X36946525Y16186632D01*
X36784010Y15943411D01*
X36672068Y15673158D01*
X36665560Y15640442D01*
X36631447Y15658676D01*
X36417499Y15723577D01*
X36195000Y15745491D01*
X35972502Y15723577D01*
X35758554Y15658676D01*
X35733072Y15645056D01*
X35733072Y16140000D01*
X35720812Y16264482D01*
X35684502Y16384180D01*
X35625537Y16494494D01*
X35546185Y16591185D01*
X35449494Y16670537D01*
X35339180Y16729502D01*
X35219482Y16765812D01*
X35095000Y16778072D01*
X34045000Y16778072D01*
X33920518Y16765812D01*
X33800820Y16729502D01*
X33690506Y16670537D01*
X33593815Y16591185D01*
X33514463Y16494494D01*
X33455498Y16384180D01*
X33419188Y16264482D01*
X33412606Y16197653D01*
X33321898Y16235226D01*
X33121939Y16275000D01*
X32918061Y16275000D01*
X32718102Y16235226D01*
X32627394Y16197653D01*
X32620812Y16264482D01*
X32584502Y16384180D01*
X32525537Y16494494D01*
X32446185Y16591185D01*
X32349494Y16670537D01*
X32239180Y16729502D01*
X32119482Y16765812D01*
X31995000Y16778072D01*
X31755750Y16775000D01*
X31597000Y16616250D01*
X31597000Y15367000D01*
X31617000Y15367000D01*
X31617000Y15113000D01*
X31597000Y15113000D01*
X31597000Y15093000D01*
X31343000Y15093000D01*
X31343000Y15113000D01*
X30468750Y15113000D01*
X30310000Y14954250D01*
X30306928Y14340000D01*
X30311590Y14292660D01*
X30194250Y14410000D01*
X30010000Y14413072D01*
X29885518Y14400812D01*
X29765820Y14364502D01*
X29655506Y14305537D01*
X29558815Y14226185D01*
X29479463Y14129494D01*
X29444674Y14064409D01*
X29381449Y14141449D01*
X29208623Y14283284D01*
X29118812Y14331288D01*
X29255990Y14536589D01*
X29367932Y14806842D01*
X29425000Y15093740D01*
X29425000Y15386260D01*
X29367932Y15673158D01*
X29255990Y15943411D01*
X29124634Y16140000D01*
X30306928Y16140000D01*
X30310000Y15525750D01*
X30468750Y15367000D01*
X31343000Y15367000D01*
X31343000Y16616250D01*
X31184250Y16775000D01*
X30945000Y16778072D01*
X30820518Y16765812D01*
X30700820Y16729502D01*
X30590506Y16670537D01*
X30493815Y16591185D01*
X30414463Y16494494D01*
X30355498Y16384180D01*
X30319188Y16264482D01*
X30306928Y16140000D01*
X29124634Y16140000D01*
X29093475Y16186632D01*
X28886632Y16393475D01*
X28643411Y16555990D01*
X28373158Y16667932D01*
X28086260Y16725000D01*
X27793740Y16725000D01*
X27506842Y16667932D01*
X27236589Y16555990D01*
X26993368Y16393475D01*
X26786525Y16186632D01*
X26670000Y16012240D01*
X26553475Y16186632D01*
X26346632Y16393475D01*
X26103411Y16555990D01*
X25833158Y16667932D01*
X25546260Y16725000D01*
X25253740Y16725000D01*
X24966842Y16667932D01*
X24696589Y16555990D01*
X24453368Y16393475D01*
X24246525Y16186632D01*
X24084010Y15943411D01*
X23972068Y15673158D01*
X23965560Y15640442D01*
X23931447Y15658676D01*
X23717499Y15723577D01*
X23495000Y15745491D01*
X23272502Y15723577D01*
X23058554Y15658676D01*
X23033072Y15645056D01*
X23033072Y16140000D01*
X23020812Y16264482D01*
X22984502Y16384180D01*
X22925537Y16494494D01*
X22846185Y16591185D01*
X22749494Y16670537D01*
X22639180Y16729502D01*
X22519482Y16765812D01*
X22395000Y16778072D01*
X21345000Y16778072D01*
X21220518Y16765812D01*
X21100820Y16729502D01*
X20990506Y16670537D01*
X20893815Y16591185D01*
X20814463Y16494494D01*
X20755498Y16384180D01*
X20719188Y16264482D01*
X20712606Y16197653D01*
X20621898Y16235226D01*
X20421939Y16275000D01*
X20218061Y16275000D01*
X20018102Y16235226D01*
X19927394Y16197653D01*
X19920812Y16264482D01*
X19884502Y16384180D01*
X19825537Y16494494D01*
X19746185Y16591185D01*
X19649494Y16670537D01*
X19539180Y16729502D01*
X19419482Y16765812D01*
X19295000Y16778072D01*
X19055750Y16775000D01*
X18897000Y16616250D01*
X18897000Y15367000D01*
X18917000Y15367000D01*
X18917000Y15113000D01*
X18897000Y15113000D01*
X18897000Y15093000D01*
X18643000Y15093000D01*
X18643000Y15113000D01*
X17768750Y15113000D01*
X17610000Y14954250D01*
X17606928Y14340000D01*
X17611590Y14292660D01*
X17494250Y14410000D01*
X17310000Y14413072D01*
X17185518Y14400812D01*
X17065820Y14364502D01*
X16955506Y14305537D01*
X16858815Y14226185D01*
X16779463Y14129494D01*
X16744674Y14064409D01*
X16681449Y14141449D01*
X16508623Y14283284D01*
X16418812Y14331288D01*
X16555990Y14536589D01*
X16667932Y14806842D01*
X16725000Y15093740D01*
X16725000Y15386260D01*
X16667932Y15673158D01*
X16555990Y15943411D01*
X16424634Y16140000D01*
X17606928Y16140000D01*
X17610000Y15525750D01*
X17768750Y15367000D01*
X18643000Y15367000D01*
X18643000Y16616250D01*
X18484250Y16775000D01*
X18245000Y16778072D01*
X18120518Y16765812D01*
X18000820Y16729502D01*
X17890506Y16670537D01*
X17793815Y16591185D01*
X17714463Y16494494D01*
X17655498Y16384180D01*
X17619188Y16264482D01*
X17606928Y16140000D01*
X16424634Y16140000D01*
X16393475Y16186632D01*
X16186632Y16393475D01*
X15943411Y16555990D01*
X15673158Y16667932D01*
X15386260Y16725000D01*
X15093740Y16725000D01*
X14806842Y16667932D01*
X14536589Y16555990D01*
X14293368Y16393475D01*
X14086525Y16186632D01*
X13970000Y16012240D01*
X13853475Y16186632D01*
X13646632Y16393475D01*
X13403411Y16555990D01*
X13133158Y16667932D01*
X12846260Y16725000D01*
X12553740Y16725000D01*
X12266842Y16667932D01*
X11996589Y16555990D01*
X11753368Y16393475D01*
X11546525Y16186632D01*
X11384010Y15943411D01*
X11272068Y15673158D01*
X11265560Y15640442D01*
X11231447Y15658676D01*
X11017499Y15723577D01*
X10795000Y15745491D01*
X10572502Y15723577D01*
X10358554Y15658676D01*
X10333072Y15645056D01*
X10333072Y16140000D01*
X10320812Y16264482D01*
X10284502Y16384180D01*
X10225537Y16494494D01*
X10146185Y16591185D01*
X10049494Y16670537D01*
X9939180Y16729502D01*
X9819482Y16765812D01*
X9695000Y16778072D01*
X8645000Y16778072D01*
X8520518Y16765812D01*
X8400820Y16729502D01*
X8290506Y16670537D01*
X8193815Y16591185D01*
X8114463Y16494494D01*
X8055498Y16384180D01*
X8019188Y16264482D01*
X8012606Y16197653D01*
X7921898Y16235226D01*
X7721939Y16275000D01*
X7518061Y16275000D01*
X7318102Y16235226D01*
X7227394Y16197653D01*
X7220812Y16264482D01*
X7184502Y16384180D01*
X7125537Y16494494D01*
X7046185Y16591185D01*
X6949494Y16670537D01*
X6839180Y16729502D01*
X6719482Y16765812D01*
X6595000Y16778072D01*
X6355750Y16775000D01*
X6197000Y16616250D01*
X6197000Y15367000D01*
X6217000Y15367000D01*
X6217000Y15113000D01*
X6197000Y15113000D01*
X6197000Y15093000D01*
X5943000Y15093000D01*
X5943000Y15113000D01*
X5068750Y15113000D01*
X4910000Y14954250D01*
X4906928Y14340000D01*
X4911590Y14292660D01*
X4794250Y14410000D01*
X4610000Y14413072D01*
X4485518Y14400812D01*
X4365820Y14364502D01*
X4255506Y14305537D01*
X4158815Y14226185D01*
X4079463Y14129494D01*
X4020498Y14019180D01*
X3984188Y13899482D01*
X3971928Y13775000D01*
X3975000Y13685750D01*
X4133750Y13527000D01*
X4953000Y13527000D01*
X4953000Y13547000D01*
X5207000Y13547000D01*
X5207000Y13527000D01*
X5227000Y13527000D01*
X5227000Y13273000D01*
X5207000Y13273000D01*
X5207000Y13253000D01*
X4953000Y13253000D01*
X4953000Y13273000D01*
X4133750Y13273000D01*
X3975000Y13114250D01*
X3974512Y13100077D01*
X3967932Y13133158D01*
X3855990Y13403411D01*
X3693475Y13646632D01*
X3561620Y13778487D01*
X3634180Y13800498D01*
X3744494Y13859463D01*
X3841185Y13938815D01*
X3920537Y14035506D01*
X3979502Y14145820D01*
X4015812Y14265518D01*
X4028072Y14390000D01*
X4025000Y14954250D01*
X3866250Y15113000D01*
X2667000Y15113000D01*
X2667000Y15093000D01*
X2413000Y15093000D01*
X2413000Y15113000D01*
X1213750Y15113000D01*
X1055000Y14954250D01*
X1051928Y14390000D01*
X1064188Y14265518D01*
X1100498Y14145820D01*
X1159463Y14035506D01*
X1238815Y13938815D01*
X1335506Y13859463D01*
X1445820Y13800498D01*
X1518380Y13778487D01*
X1386525Y13646632D01*
X1224010Y13403411D01*
X1112068Y13133158D01*
X1055000Y12846260D01*
X1055000Y12553740D01*
X1112068Y12266842D01*
X1224010Y11996589D01*
X1386525Y11753368D01*
X1593368Y11546525D01*
X1767760Y11430000D01*
X1593368Y11313475D01*
X1386525Y11106632D01*
X1224010Y10863411D01*
X1112068Y10593158D01*
X1055000Y10306260D01*
X1055000Y10013740D01*
X1112068Y9726842D01*
X1224010Y9456589D01*
X1386525Y9213368D01*
X1593368Y9006525D01*
X1836589Y8844010D01*
X2106842Y8732068D01*
X2393740Y8675000D01*
X2686260Y8675000D01*
X2973158Y8732068D01*
X3243411Y8844010D01*
X3486632Y9006525D01*
X3505107Y9025000D01*
X6056928Y9025000D01*
X6056928Y8520000D01*
X6069188Y8395518D01*
X6105498Y8275820D01*
X6164463Y8165506D01*
X6243815Y8068815D01*
X6340506Y7989463D01*
X6450820Y7930498D01*
X6570518Y7894188D01*
X6695000Y7881928D01*
X8545000Y7881928D01*
X8669482Y7894188D01*
X8789180Y7930498D01*
X8899494Y7989463D01*
X8996185Y8068815D01*
X9075537Y8165506D01*
X9134502Y8275820D01*
X9170812Y8395518D01*
X9183072Y8520000D01*
X9183072Y11241738D01*
X9238815Y11173815D01*
X9335506Y11094463D01*
X9445820Y11035498D01*
X9565518Y10999188D01*
X9690000Y10986928D01*
X9874250Y10990000D01*
X10033000Y11148750D01*
X10033000Y11873000D01*
X10013000Y11873000D01*
X10013000Y12127000D01*
X10033000Y12127000D01*
X10033000Y12147000D01*
X10287000Y12147000D01*
X10287000Y12127000D01*
X10307000Y12127000D01*
X10307000Y11873000D01*
X10287000Y11873000D01*
X10287000Y11148750D01*
X10445750Y10990000D01*
X10630000Y10986928D01*
X10754482Y10999188D01*
X10874180Y11035498D01*
X10984494Y11094463D01*
X11029556Y11131445D01*
X11101928Y10996045D01*
X11101928Y10839500D01*
X11114188Y10715018D01*
X11150498Y10595320D01*
X11209463Y10485006D01*
X11288815Y10388315D01*
X11385506Y10308963D01*
X11495820Y10249998D01*
X11615518Y10213688D01*
X11740000Y10201428D01*
X12108511Y10201428D01*
X12143271Y10149405D01*
X12136928Y10085000D01*
X12136928Y7695000D01*
X12149188Y7570518D01*
X12185498Y7450820D01*
X12199630Y7424380D01*
X12192000Y7416750D01*
X12192000Y6305000D01*
X12212000Y6305000D01*
X12212000Y6051000D01*
X12192000Y6051000D01*
X12192000Y4939250D01*
X12350750Y4780500D01*
X12390000Y4777428D01*
X12450000Y4783337D01*
X12450001Y4004365D01*
X12266842Y3967932D01*
X11996589Y3855990D01*
X11753368Y3693475D01*
X11546525Y3486632D01*
X11384010Y3243411D01*
X11272068Y2973158D01*
X11215000Y2686260D01*
X11215000Y2393740D01*
X11272068Y2106842D01*
X11384010Y1836589D01*
X11546525Y1593368D01*
X11753368Y1386525D01*
X11996589Y1224010D01*
X12266842Y1112068D01*
X12553740Y1055000D01*
X12846260Y1055000D01*
X13133158Y1112068D01*
X13403411Y1224010D01*
X13646632Y1386525D01*
X13853475Y1593368D01*
X13970000Y1767760D01*
X14086525Y1593368D01*
X14293368Y1386525D01*
X14536589Y1224010D01*
X14806842Y1112068D01*
X15093740Y1055000D01*
X15386260Y1055000D01*
X15673158Y1112068D01*
X15943411Y1224010D01*
X16186632Y1386525D01*
X16339601Y1539494D01*
X16336928Y1005000D01*
X16349188Y880518D01*
X16385498Y760820D01*
X16439388Y660000D01*
X8960612Y660000D01*
X9014502Y760820D01*
X9050812Y880518D01*
X9053223Y905000D01*
X9350019Y905000D01*
X9405506Y859463D01*
X9515820Y800498D01*
X9635518Y764188D01*
X9760000Y751928D01*
X10560000Y751928D01*
X10684482Y764188D01*
X10804180Y800498D01*
X10914494Y859463D01*
X11011185Y938815D01*
X11090537Y1035506D01*
X11149502Y1145820D01*
X11185812Y1265518D01*
X11198072Y1390000D01*
X11198072Y2190000D01*
X11185812Y2314482D01*
X11149502Y2434180D01*
X11092939Y2540000D01*
X11149502Y2645820D01*
X11185812Y2765518D01*
X11198072Y2890000D01*
X11198072Y3690000D01*
X11185812Y3814482D01*
X11149502Y3934180D01*
X11090537Y4044494D01*
X11045000Y4099981D01*
X11045000Y5415500D01*
X11101928Y5415500D01*
X11114188Y5291018D01*
X11150498Y5171320D01*
X11209463Y5061006D01*
X11288815Y4964315D01*
X11385506Y4884963D01*
X11495820Y4825998D01*
X11615518Y4789688D01*
X11740000Y4777428D01*
X11779250Y4780500D01*
X11938000Y4939250D01*
X11938000Y6051000D01*
X11263750Y6051000D01*
X11105000Y5892250D01*
X11101928Y5415500D01*
X11045000Y5415500D01*
X11045000Y6940500D01*
X11101928Y6940500D01*
X11105000Y6463750D01*
X11263750Y6305000D01*
X11938000Y6305000D01*
X11938000Y7416750D01*
X11779250Y7575500D01*
X11740000Y7578572D01*
X11615518Y7566312D01*
X11495820Y7530002D01*
X11385506Y7471037D01*
X11288815Y7391685D01*
X11209463Y7294994D01*
X11150498Y7184680D01*
X11114188Y7064982D01*
X11101928Y6940500D01*
X11045000Y6940500D01*
X11045000Y7081546D01*
X11077205Y7129744D01*
X11155226Y7318102D01*
X11195000Y7518061D01*
X11195000Y7721939D01*
X11155226Y7921898D01*
X11077205Y8110256D01*
X10963937Y8279774D01*
X10819774Y8423937D01*
X10650256Y8537205D01*
X10461898Y8615226D01*
X10261939Y8655000D01*
X10058061Y8655000D01*
X9858102Y8615226D01*
X9669744Y8537205D01*
X9500226Y8423937D01*
X9356063Y8279774D01*
X9242795Y8110256D01*
X9164774Y7921898D01*
X9125000Y7721939D01*
X9125000Y7518061D01*
X9164774Y7318102D01*
X9242795Y7129744D01*
X9275000Y7081545D01*
X9275001Y4099982D01*
X9229463Y4044494D01*
X9181530Y3954820D01*
X9180000Y4684250D01*
X9021250Y4843000D01*
X7747000Y4843000D01*
X7747000Y4823000D01*
X7493000Y4823000D01*
X7493000Y4843000D01*
X6218750Y4843000D01*
X6060000Y4684250D01*
X6056928Y3220000D01*
X6069188Y3095518D01*
X6105498Y2975820D01*
X6164463Y2865506D01*
X6243815Y2768815D01*
X6340506Y2689463D01*
X6450820Y2630498D01*
X6570518Y2594188D01*
X6695000Y2581928D01*
X6736928Y2582129D01*
X6736928Y1005000D01*
X6749188Y880518D01*
X6785498Y760820D01*
X6839388Y660000D01*
X5860612Y660000D01*
X5914502Y760820D01*
X5950812Y880518D01*
X5963072Y1005000D01*
X5960000Y1619250D01*
X5801250Y1778000D01*
X4927000Y1778000D01*
X4927000Y1758000D01*
X4673000Y1758000D01*
X4673000Y1778000D01*
X3798750Y1778000D01*
X3640000Y1619250D01*
X3636928Y1005000D01*
X3649188Y880518D01*
X3685498Y760820D01*
X3739388Y660000D01*
X660000Y660000D01*
X660000Y2805000D01*
X3636928Y2805000D01*
X3640000Y2190750D01*
X3798750Y2032000D01*
X4673000Y2032000D01*
X4673000Y3281250D01*
X4927000Y3281250D01*
X4927000Y2032000D01*
X5801250Y2032000D01*
X5960000Y2190750D01*
X5963072Y2805000D01*
X5950812Y2929482D01*
X5914502Y3049180D01*
X5855537Y3159494D01*
X5776185Y3256185D01*
X5679494Y3335537D01*
X5569180Y3394502D01*
X5449482Y3430812D01*
X5325000Y3443072D01*
X5085750Y3440000D01*
X4927000Y3281250D01*
X4673000Y3281250D01*
X4514250Y3440000D01*
X4275000Y3443072D01*
X4150518Y3430812D01*
X4030820Y3394502D01*
X3920506Y3335537D01*
X3823815Y3256185D01*
X3744463Y3159494D01*
X3685498Y3049180D01*
X3649188Y2929482D01*
X3636928Y2805000D01*
X660000Y2805000D01*
X660000Y6720000D01*
X6056928Y6720000D01*
X6060000Y5255750D01*
X6218750Y5097000D01*
X7493000Y5097000D01*
X7493000Y7196250D01*
X7747000Y7196250D01*
X7747000Y5097000D01*
X9021250Y5097000D01*
X9180000Y5255750D01*
X9183072Y6720000D01*
X9170812Y6844482D01*
X9134502Y6964180D01*
X9075537Y7074494D01*
X8996185Y7171185D01*
X8899494Y7250537D01*
X8789180Y7309502D01*
X8669482Y7345812D01*
X8545000Y7358072D01*
X7905750Y7355000D01*
X7747000Y7196250D01*
X7493000Y7196250D01*
X7334250Y7355000D01*
X6695000Y7358072D01*
X6570518Y7345812D01*
X6450820Y7309502D01*
X6340506Y7250537D01*
X6243815Y7171185D01*
X6164463Y7074494D01*
X6105498Y6964180D01*
X6069188Y6844482D01*
X6056928Y6720000D01*
X660000Y6720000D01*
X660000Y16090000D01*
X1051928Y16090000D01*
X1055000Y15525750D01*
X1213750Y15367000D01*
X2413000Y15367000D01*
X2413000Y16566250D01*
X2667000Y16566250D01*
X2667000Y15367000D01*
X3866250Y15367000D01*
X4025000Y15525750D01*
X4028072Y16090000D01*
X4023148Y16140000D01*
X4906928Y16140000D01*
X4910000Y15525750D01*
X5068750Y15367000D01*
X5943000Y15367000D01*
X5943000Y16616250D01*
X5784250Y16775000D01*
X5545000Y16778072D01*
X5420518Y16765812D01*
X5300820Y16729502D01*
X5190506Y16670537D01*
X5093815Y16591185D01*
X5014463Y16494494D01*
X4955498Y16384180D01*
X4919188Y16264482D01*
X4906928Y16140000D01*
X4023148Y16140000D01*
X4015812Y16214482D01*
X3979502Y16334180D01*
X3920537Y16444494D01*
X3841185Y16541185D01*
X3744494Y16620537D01*
X3634180Y16679502D01*
X3514482Y16715812D01*
X3390000Y16728072D01*
X2825750Y16725000D01*
X2667000Y16566250D01*
X2413000Y16566250D01*
X2254250Y16725000D01*
X1690000Y16728072D01*
X1565518Y16715812D01*
X1445820Y16679502D01*
X1335506Y16620537D01*
X1238815Y16541185D01*
X1159463Y16444494D01*
X1100498Y16334180D01*
X1064188Y16214482D01*
X1051928Y16090000D01*
X660000Y16090000D01*
X660000Y17120000D01*
X55220000Y17120000D01*
X55220001Y660000D01*
%TA.AperFunction,Conductor*%
D23*
G36*
X55220001Y660000D02*
G01*
X47060612Y660000D01*
X47114502Y760820D01*
X47150812Y880518D01*
X47163072Y1005000D01*
X47163072Y1020000D01*
X47342188Y1020000D01*
X47408815Y938815D01*
X47505506Y859463D01*
X47615820Y800498D01*
X47735518Y764188D01*
X47860000Y751928D01*
X48660000Y751928D01*
X48784482Y764188D01*
X48904180Y800498D01*
X49014494Y859463D01*
X49111185Y938815D01*
X49190537Y1035506D01*
X49249502Y1145820D01*
X49285812Y1265518D01*
X49298072Y1390000D01*
X49298072Y2190000D01*
X49285812Y2314482D01*
X49249502Y2434180D01*
X49192939Y2540000D01*
X49249502Y2645820D01*
X49285812Y2765518D01*
X49298072Y2890000D01*
X49298072Y3690000D01*
X49285812Y3814482D01*
X49249502Y3934180D01*
X49190537Y4044494D01*
X49145000Y4099981D01*
X49145000Y5415500D01*
X49201928Y5415500D01*
X49214188Y5291018D01*
X49250498Y5171320D01*
X49309463Y5061006D01*
X49388815Y4964315D01*
X49485506Y4884963D01*
X49595820Y4825998D01*
X49715518Y4789688D01*
X49840000Y4777428D01*
X49879250Y4780500D01*
X50038000Y4939250D01*
X50038000Y6051000D01*
X49363750Y6051000D01*
X49205000Y5892250D01*
X49201928Y5415500D01*
X49145000Y5415500D01*
X49145000Y6940500D01*
X49201928Y6940500D01*
X49205000Y6463750D01*
X49363750Y6305000D01*
X50038000Y6305000D01*
X50038000Y7416750D01*
X49879250Y7575500D01*
X49840000Y7578572D01*
X49715518Y7566312D01*
X49595820Y7530002D01*
X49485506Y7471037D01*
X49388815Y7391685D01*
X49309463Y7294994D01*
X49250498Y7184680D01*
X49214188Y7064982D01*
X49201928Y6940500D01*
X49145000Y6940500D01*
X49145000Y7081546D01*
X49177205Y7129744D01*
X49255226Y7318102D01*
X49295000Y7518061D01*
X49295000Y7721939D01*
X49255226Y7921898D01*
X49177205Y8110256D01*
X49063937Y8279774D01*
X48919774Y8423937D01*
X48750256Y8537205D01*
X48561898Y8615226D01*
X48361939Y8655000D01*
X48158061Y8655000D01*
X47958102Y8615226D01*
X47769744Y8537205D01*
X47600226Y8423937D01*
X47456063Y8279774D01*
X47342795Y8110256D01*
X47264774Y7921898D01*
X47225000Y7721939D01*
X47225000Y7518061D01*
X47264774Y7318102D01*
X47342795Y7129744D01*
X47375000Y7081545D01*
X47375001Y4099982D01*
X47329463Y4044494D01*
X47281530Y3954820D01*
X47280000Y4684250D01*
X47121250Y4843000D01*
X45847000Y4843000D01*
X45847000Y4823000D01*
X45593000Y4823000D01*
X45593000Y4843000D01*
X45573000Y4843000D01*
X45573000Y5097000D01*
X45593000Y5097000D01*
X45593000Y7196250D01*
X45847000Y7196250D01*
X45847000Y5097000D01*
X47121250Y5097000D01*
X47280000Y5255750D01*
X47283072Y6720000D01*
X47270812Y6844482D01*
X47234502Y6964180D01*
X47175537Y7074494D01*
X47096185Y7171185D01*
X46999494Y7250537D01*
X46889180Y7309502D01*
X46769482Y7345812D01*
X46645000Y7358072D01*
X46005750Y7355000D01*
X45847000Y7196250D01*
X45593000Y7196250D01*
X45434250Y7355000D01*
X44795000Y7358072D01*
X44670518Y7345812D01*
X44550820Y7309502D01*
X44440506Y7250537D01*
X44343815Y7171185D01*
X44315000Y7136074D01*
X44315000Y7259869D01*
X44937059Y7881928D01*
X46645000Y7881928D01*
X46769482Y7894188D01*
X46889180Y7930498D01*
X46999494Y7989463D01*
X47096185Y8068815D01*
X47175537Y8165506D01*
X47234502Y8275820D01*
X47270812Y8395518D01*
X47283072Y8520000D01*
X47283072Y11241738D01*
X47338815Y11173815D01*
X47435506Y11094463D01*
X47545820Y11035498D01*
X47665518Y10999188D01*
X47790000Y10986928D01*
X47974250Y10990000D01*
X48133000Y11148750D01*
X48133000Y11873000D01*
X48113000Y11873000D01*
X48113000Y12127000D01*
X48133000Y12127000D01*
X48133000Y12147000D01*
X48387000Y12147000D01*
X48387000Y12127000D01*
X48407000Y12127000D01*
X48407000Y11873000D01*
X48387000Y11873000D01*
X48387000Y11148750D01*
X48545750Y10990000D01*
X48730000Y10986928D01*
X48854482Y10999188D01*
X48974180Y11035498D01*
X49084494Y11094463D01*
X49129556Y11131445D01*
X49201928Y10996045D01*
X49201928Y10839500D01*
X49214188Y10715018D01*
X49250498Y10595320D01*
X49309463Y10485006D01*
X49388815Y10388315D01*
X49485506Y10308963D01*
X49595820Y10249998D01*
X49715518Y10213688D01*
X49840000Y10201428D01*
X50208511Y10201428D01*
X50243271Y10149405D01*
X50236928Y10085000D01*
X50236928Y7695000D01*
X50249188Y7570518D01*
X50285498Y7450820D01*
X50299630Y7424380D01*
X50292000Y7416750D01*
X50292000Y6305000D01*
X50312000Y6305000D01*
X50312000Y6051000D01*
X50292000Y6051000D01*
X50292000Y4939250D01*
X50450750Y4780500D01*
X50490000Y4777428D01*
X50550001Y4783337D01*
X50550000Y4004365D01*
X50366842Y3967932D01*
X50096589Y3855990D01*
X49853368Y3693475D01*
X49646525Y3486632D01*
X49484010Y3243411D01*
X49372068Y2973158D01*
X49315000Y2686260D01*
X49315000Y2393740D01*
X49372068Y2106842D01*
X49484010Y1836589D01*
X49646525Y1593368D01*
X49853368Y1386525D01*
X50096589Y1224010D01*
X50366842Y1112068D01*
X50653740Y1055000D01*
X50946260Y1055000D01*
X51233158Y1112068D01*
X51503411Y1224010D01*
X51746632Y1386525D01*
X51953475Y1593368D01*
X52070000Y1767760D01*
X52186525Y1593368D01*
X52393368Y1386525D01*
X52636589Y1224010D01*
X52906842Y1112068D01*
X53193740Y1055000D01*
X53486260Y1055000D01*
X53773158Y1112068D01*
X54043411Y1224010D01*
X54286632Y1386525D01*
X54493475Y1593368D01*
X54655990Y1836589D01*
X54767932Y2106842D01*
X54825000Y2393740D01*
X54825000Y2686260D01*
X54767932Y2973158D01*
X54655990Y3243411D01*
X54493475Y3486632D01*
X54286632Y3693475D01*
X54043411Y3855990D01*
X53773158Y3967932D01*
X53590000Y4004365D01*
X53590000Y4783337D01*
X53650000Y4777428D01*
X54300000Y4777428D01*
X54424482Y4789688D01*
X54544180Y4825998D01*
X54654494Y4884963D01*
X54751185Y4964315D01*
X54830537Y5061006D01*
X54889502Y5171320D01*
X54925812Y5291018D01*
X54938072Y5415500D01*
X54938072Y6940500D01*
X54925812Y7064982D01*
X54889502Y7184680D01*
X54860000Y7239873D01*
X54860000Y8986546D01*
X54892205Y9034744D01*
X54970226Y9223102D01*
X55010000Y9423061D01*
X55010000Y9626939D01*
X54970226Y9826898D01*
X54892205Y10015256D01*
X54778937Y10184774D01*
X54654634Y10309077D01*
X54751185Y10388315D01*
X54830537Y10485006D01*
X54889502Y10595320D01*
X54925812Y10715018D01*
X54938072Y10839500D01*
X54938072Y10996044D01*
X55028676Y11165553D01*
X55093577Y11379501D01*
X55110000Y11546248D01*
X55110000Y13390752D01*
X55093577Y13557499D01*
X55028676Y13771447D01*
X54923284Y13968623D01*
X54781449Y14141449D01*
X54608623Y14283284D01*
X54518812Y14331288D01*
X54655990Y14536589D01*
X54767932Y14806842D01*
X54825000Y15093740D01*
X54825000Y15386260D01*
X54767932Y15673158D01*
X54655990Y15943411D01*
X54493475Y16186632D01*
X54286632Y16393475D01*
X54043411Y16555990D01*
X53773158Y16667932D01*
X53486260Y16725000D01*
X53193740Y16725000D01*
X52906842Y16667932D01*
X52636589Y16555990D01*
X52393368Y16393475D01*
X52186525Y16186632D01*
X52070000Y16012240D01*
X51953475Y16186632D01*
X51746632Y16393475D01*
X51503411Y16555990D01*
X51233158Y16667932D01*
X50946260Y16725000D01*
X50653740Y16725000D01*
X50366842Y16667932D01*
X50096589Y16555990D01*
X49853368Y16393475D01*
X49646525Y16186632D01*
X49484010Y15943411D01*
X49372068Y15673158D01*
X49365560Y15640442D01*
X49331447Y15658676D01*
X49117499Y15723577D01*
X48895000Y15745491D01*
X48672502Y15723577D01*
X48458554Y15658676D01*
X48433072Y15645056D01*
X48433072Y16140000D01*
X48420812Y16264482D01*
X48384502Y16384180D01*
X48325537Y16494494D01*
X48246185Y16591185D01*
X48149494Y16670537D01*
X48039180Y16729502D01*
X47919482Y16765812D01*
X47795000Y16778072D01*
X46745000Y16778072D01*
X46620518Y16765812D01*
X46500820Y16729502D01*
X46390506Y16670537D01*
X46293815Y16591185D01*
X46214463Y16494494D01*
X46155498Y16384180D01*
X46119188Y16264482D01*
X46112606Y16197653D01*
X46021898Y16235226D01*
X45821939Y16275000D01*
X45618061Y16275000D01*
X45418102Y16235226D01*
X45327394Y16197653D01*
X45320812Y16264482D01*
X45284502Y16384180D01*
X45225537Y16494494D01*
X45146185Y16591185D01*
X45049494Y16670537D01*
X44939180Y16729502D01*
X44819482Y16765812D01*
X44695000Y16778072D01*
X44455750Y16775000D01*
X44297000Y16616250D01*
X44297000Y15367000D01*
X44317000Y15367000D01*
X44317000Y15113000D01*
X44297000Y15113000D01*
X44297000Y15093000D01*
X44043000Y15093000D01*
X44043000Y15113000D01*
X43168750Y15113000D01*
X43010000Y14954250D01*
X43006928Y14340000D01*
X43011590Y14292660D01*
X42894250Y14410000D01*
X42710000Y14413072D01*
X42585518Y14400812D01*
X42465820Y14364502D01*
X42355506Y14305537D01*
X42258815Y14226185D01*
X42179463Y14129494D01*
X42144674Y14064409D01*
X42081449Y14141449D01*
X41908623Y14283284D01*
X41818812Y14331288D01*
X41955990Y14536589D01*
X42067932Y14806842D01*
X42125000Y15093740D01*
X42125000Y15386260D01*
X42067932Y15673158D01*
X41955990Y15943411D01*
X41824634Y16140000D01*
X43006928Y16140000D01*
X43010000Y15525750D01*
X43168750Y15367000D01*
X44043000Y15367000D01*
X44043000Y16616250D01*
X43884250Y16775000D01*
X43645000Y16778072D01*
X43520518Y16765812D01*
X43400820Y16729502D01*
X43290506Y16670537D01*
X43193815Y16591185D01*
X43114463Y16494494D01*
X43055498Y16384180D01*
X43019188Y16264482D01*
X43006928Y16140000D01*
X41824634Y16140000D01*
X41793475Y16186632D01*
X41586632Y16393475D01*
X41343411Y16555990D01*
X41073158Y16667932D01*
X40786260Y16725000D01*
X40493740Y16725000D01*
X40206842Y16667932D01*
X39936589Y16555990D01*
X39693368Y16393475D01*
X39486525Y16186632D01*
X39370000Y16012240D01*
X39253475Y16186632D01*
X39046632Y16393475D01*
X38803411Y16555990D01*
X38533158Y16667932D01*
X38246260Y16725000D01*
X37953740Y16725000D01*
X37666842Y16667932D01*
X37396589Y16555990D01*
X37153368Y16393475D01*
X36946525Y16186632D01*
X36784010Y15943411D01*
X36672068Y15673158D01*
X36665560Y15640442D01*
X36631447Y15658676D01*
X36417499Y15723577D01*
X36195000Y15745491D01*
X35972502Y15723577D01*
X35758554Y15658676D01*
X35733072Y15645056D01*
X35733072Y16140000D01*
X35720812Y16264482D01*
X35684502Y16384180D01*
X35625537Y16494494D01*
X35546185Y16591185D01*
X35449494Y16670537D01*
X35339180Y16729502D01*
X35219482Y16765812D01*
X35095000Y16778072D01*
X34045000Y16778072D01*
X33920518Y16765812D01*
X33800820Y16729502D01*
X33690506Y16670537D01*
X33593815Y16591185D01*
X33514463Y16494494D01*
X33455498Y16384180D01*
X33419188Y16264482D01*
X33412606Y16197653D01*
X33321898Y16235226D01*
X33121939Y16275000D01*
X32918061Y16275000D01*
X32718102Y16235226D01*
X32627394Y16197653D01*
X32620812Y16264482D01*
X32584502Y16384180D01*
X32525537Y16494494D01*
X32446185Y16591185D01*
X32349494Y16670537D01*
X32239180Y16729502D01*
X32119482Y16765812D01*
X31995000Y16778072D01*
X31755750Y16775000D01*
X31597000Y16616250D01*
X31597000Y15367000D01*
X31617000Y15367000D01*
X31617000Y15113000D01*
X31597000Y15113000D01*
X31597000Y15093000D01*
X31343000Y15093000D01*
X31343000Y15113000D01*
X30468750Y15113000D01*
X30310000Y14954250D01*
X30306928Y14340000D01*
X30311590Y14292660D01*
X30194250Y14410000D01*
X30010000Y14413072D01*
X29885518Y14400812D01*
X29765820Y14364502D01*
X29655506Y14305537D01*
X29558815Y14226185D01*
X29479463Y14129494D01*
X29444674Y14064409D01*
X29381449Y14141449D01*
X29208623Y14283284D01*
X29118812Y14331288D01*
X29255990Y14536589D01*
X29367932Y14806842D01*
X29425000Y15093740D01*
X29425000Y15386260D01*
X29367932Y15673158D01*
X29255990Y15943411D01*
X29124634Y16140000D01*
X30306928Y16140000D01*
X30310000Y15525750D01*
X30468750Y15367000D01*
X31343000Y15367000D01*
X31343000Y16616250D01*
X31184250Y16775000D01*
X30945000Y16778072D01*
X30820518Y16765812D01*
X30700820Y16729502D01*
X30590506Y16670537D01*
X30493815Y16591185D01*
X30414463Y16494494D01*
X30355498Y16384180D01*
X30319188Y16264482D01*
X30306928Y16140000D01*
X29124634Y16140000D01*
X29093475Y16186632D01*
X28886632Y16393475D01*
X28643411Y16555990D01*
X28373158Y16667932D01*
X28086260Y16725000D01*
X27793740Y16725000D01*
X27506842Y16667932D01*
X27236589Y16555990D01*
X26993368Y16393475D01*
X26786525Y16186632D01*
X26670000Y16012240D01*
X26553475Y16186632D01*
X26346632Y16393475D01*
X26103411Y16555990D01*
X25833158Y16667932D01*
X25546260Y16725000D01*
X25253740Y16725000D01*
X24966842Y16667932D01*
X24696589Y16555990D01*
X24453368Y16393475D01*
X24246525Y16186632D01*
X24084010Y15943411D01*
X23972068Y15673158D01*
X23965560Y15640442D01*
X23931447Y15658676D01*
X23717499Y15723577D01*
X23495000Y15745491D01*
X23272502Y15723577D01*
X23058554Y15658676D01*
X23033072Y15645056D01*
X23033072Y16140000D01*
X23020812Y16264482D01*
X22984502Y16384180D01*
X22925537Y16494494D01*
X22846185Y16591185D01*
X22749494Y16670537D01*
X22639180Y16729502D01*
X22519482Y16765812D01*
X22395000Y16778072D01*
X21345000Y16778072D01*
X21220518Y16765812D01*
X21100820Y16729502D01*
X20990506Y16670537D01*
X20893815Y16591185D01*
X20814463Y16494494D01*
X20755498Y16384180D01*
X20719188Y16264482D01*
X20712606Y16197653D01*
X20621898Y16235226D01*
X20421939Y16275000D01*
X20218061Y16275000D01*
X20018102Y16235226D01*
X19927394Y16197653D01*
X19920812Y16264482D01*
X19884502Y16384180D01*
X19825537Y16494494D01*
X19746185Y16591185D01*
X19649494Y16670537D01*
X19539180Y16729502D01*
X19419482Y16765812D01*
X19295000Y16778072D01*
X19055750Y16775000D01*
X18897000Y16616250D01*
X18897000Y15367000D01*
X18917000Y15367000D01*
X18917000Y15113000D01*
X18897000Y15113000D01*
X18897000Y15093000D01*
X18643000Y15093000D01*
X18643000Y15113000D01*
X17768750Y15113000D01*
X17610000Y14954250D01*
X17606928Y14340000D01*
X17611590Y14292660D01*
X17494250Y14410000D01*
X17310000Y14413072D01*
X17185518Y14400812D01*
X17065820Y14364502D01*
X16955506Y14305537D01*
X16858815Y14226185D01*
X16779463Y14129494D01*
X16744674Y14064409D01*
X16681449Y14141449D01*
X16508623Y14283284D01*
X16418812Y14331288D01*
X16555990Y14536589D01*
X16667932Y14806842D01*
X16725000Y15093740D01*
X16725000Y15386260D01*
X16667932Y15673158D01*
X16555990Y15943411D01*
X16424634Y16140000D01*
X17606928Y16140000D01*
X17610000Y15525750D01*
X17768750Y15367000D01*
X18643000Y15367000D01*
X18643000Y16616250D01*
X18484250Y16775000D01*
X18245000Y16778072D01*
X18120518Y16765812D01*
X18000820Y16729502D01*
X17890506Y16670537D01*
X17793815Y16591185D01*
X17714463Y16494494D01*
X17655498Y16384180D01*
X17619188Y16264482D01*
X17606928Y16140000D01*
X16424634Y16140000D01*
X16393475Y16186632D01*
X16186632Y16393475D01*
X15943411Y16555990D01*
X15673158Y16667932D01*
X15386260Y16725000D01*
X15093740Y16725000D01*
X14806842Y16667932D01*
X14536589Y16555990D01*
X14293368Y16393475D01*
X14086525Y16186632D01*
X13970000Y16012240D01*
X13853475Y16186632D01*
X13646632Y16393475D01*
X13403411Y16555990D01*
X13133158Y16667932D01*
X12846260Y16725000D01*
X12553740Y16725000D01*
X12266842Y16667932D01*
X11996589Y16555990D01*
X11753368Y16393475D01*
X11546525Y16186632D01*
X11384010Y15943411D01*
X11272068Y15673158D01*
X11265560Y15640442D01*
X11231447Y15658676D01*
X11017499Y15723577D01*
X10795000Y15745491D01*
X10572502Y15723577D01*
X10358554Y15658676D01*
X10333072Y15645056D01*
X10333072Y16140000D01*
X10320812Y16264482D01*
X10284502Y16384180D01*
X10225537Y16494494D01*
X10146185Y16591185D01*
X10049494Y16670537D01*
X9939180Y16729502D01*
X9819482Y16765812D01*
X9695000Y16778072D01*
X8645000Y16778072D01*
X8520518Y16765812D01*
X8400820Y16729502D01*
X8290506Y16670537D01*
X8193815Y16591185D01*
X8114463Y16494494D01*
X8055498Y16384180D01*
X8019188Y16264482D01*
X8012606Y16197653D01*
X7921898Y16235226D01*
X7721939Y16275000D01*
X7518061Y16275000D01*
X7318102Y16235226D01*
X7227394Y16197653D01*
X7220812Y16264482D01*
X7184502Y16384180D01*
X7125537Y16494494D01*
X7046185Y16591185D01*
X6949494Y16670537D01*
X6839180Y16729502D01*
X6719482Y16765812D01*
X6595000Y16778072D01*
X6355750Y16775000D01*
X6197000Y16616250D01*
X6197000Y15367000D01*
X6217000Y15367000D01*
X6217000Y15113000D01*
X6197000Y15113000D01*
X6197000Y15093000D01*
X5943000Y15093000D01*
X5943000Y15113000D01*
X5068750Y15113000D01*
X4910000Y14954250D01*
X4906928Y14340000D01*
X4911590Y14292660D01*
X4794250Y14410000D01*
X4610000Y14413072D01*
X4485518Y14400812D01*
X4365820Y14364502D01*
X4255506Y14305537D01*
X4158815Y14226185D01*
X4079463Y14129494D01*
X4020498Y14019180D01*
X3984188Y13899482D01*
X3971928Y13775000D01*
X3975000Y13685750D01*
X4133750Y13527000D01*
X4953000Y13527000D01*
X4953000Y13547000D01*
X5207000Y13547000D01*
X5207000Y13527000D01*
X5227000Y13527000D01*
X5227000Y13273000D01*
X5207000Y13273000D01*
X5207000Y13253000D01*
X4953000Y13253000D01*
X4953000Y13273000D01*
X4133750Y13273000D01*
X3975000Y13114250D01*
X3974512Y13100077D01*
X3967932Y13133158D01*
X3855990Y13403411D01*
X3693475Y13646632D01*
X3561620Y13778487D01*
X3634180Y13800498D01*
X3744494Y13859463D01*
X3841185Y13938815D01*
X3920537Y14035506D01*
X3979502Y14145820D01*
X4015812Y14265518D01*
X4028072Y14390000D01*
X4025000Y14954250D01*
X3866250Y15113000D01*
X2667000Y15113000D01*
X2667000Y15093000D01*
X2413000Y15093000D01*
X2413000Y15113000D01*
X1213750Y15113000D01*
X1055000Y14954250D01*
X1051928Y14390000D01*
X1064188Y14265518D01*
X1100498Y14145820D01*
X1159463Y14035506D01*
X1238815Y13938815D01*
X1335506Y13859463D01*
X1445820Y13800498D01*
X1518380Y13778487D01*
X1386525Y13646632D01*
X1224010Y13403411D01*
X1112068Y13133158D01*
X1055000Y12846260D01*
X1055000Y12553740D01*
X1112068Y12266842D01*
X1224010Y11996589D01*
X1386525Y11753368D01*
X1593368Y11546525D01*
X1767760Y11430000D01*
X1593368Y11313475D01*
X1386525Y11106632D01*
X1224010Y10863411D01*
X1112068Y10593158D01*
X1055000Y10306260D01*
X1055000Y10013740D01*
X1112068Y9726842D01*
X1224010Y9456589D01*
X1386525Y9213368D01*
X1593368Y9006525D01*
X1836589Y8844010D01*
X2106842Y8732068D01*
X2393740Y8675000D01*
X2686260Y8675000D01*
X2973158Y8732068D01*
X3243411Y8844010D01*
X3486632Y9006525D01*
X3505107Y9025000D01*
X6056928Y9025000D01*
X6056928Y8520000D01*
X6069188Y8395518D01*
X6105498Y8275820D01*
X6164463Y8165506D01*
X6243815Y8068815D01*
X6340506Y7989463D01*
X6450820Y7930498D01*
X6570518Y7894188D01*
X6695000Y7881928D01*
X8545000Y7881928D01*
X8669482Y7894188D01*
X8789180Y7930498D01*
X8899494Y7989463D01*
X8996185Y8068815D01*
X9075537Y8165506D01*
X9134502Y8275820D01*
X9170812Y8395518D01*
X9183072Y8520000D01*
X9183072Y11241738D01*
X9238815Y11173815D01*
X9335506Y11094463D01*
X9445820Y11035498D01*
X9565518Y10999188D01*
X9690000Y10986928D01*
X9874250Y10990000D01*
X10033000Y11148750D01*
X10033000Y11873000D01*
X10013000Y11873000D01*
X10013000Y12127000D01*
X10033000Y12127000D01*
X10033000Y12147000D01*
X10287000Y12147000D01*
X10287000Y12127000D01*
X10307000Y12127000D01*
X10307000Y11873000D01*
X10287000Y11873000D01*
X10287000Y11148750D01*
X10445750Y10990000D01*
X10630000Y10986928D01*
X10754482Y10999188D01*
X10874180Y11035498D01*
X10984494Y11094463D01*
X11029556Y11131445D01*
X11101928Y10996045D01*
X11101928Y10839500D01*
X11114188Y10715018D01*
X11150498Y10595320D01*
X11209463Y10485006D01*
X11288815Y10388315D01*
X11385506Y10308963D01*
X11495820Y10249998D01*
X11615518Y10213688D01*
X11740000Y10201428D01*
X12108511Y10201428D01*
X12143271Y10149405D01*
X12136928Y10085000D01*
X12136928Y7695000D01*
X12149188Y7570518D01*
X12185498Y7450820D01*
X12199630Y7424380D01*
X12192000Y7416750D01*
X12192000Y6305000D01*
X12212000Y6305000D01*
X12212000Y6051000D01*
X12192000Y6051000D01*
X12192000Y4939250D01*
X12350750Y4780500D01*
X12390000Y4777428D01*
X12450000Y4783337D01*
X12450001Y4004365D01*
X12266842Y3967932D01*
X11996589Y3855990D01*
X11753368Y3693475D01*
X11546525Y3486632D01*
X11384010Y3243411D01*
X11272068Y2973158D01*
X11215000Y2686260D01*
X11215000Y2393740D01*
X11272068Y2106842D01*
X11384010Y1836589D01*
X11546525Y1593368D01*
X11753368Y1386525D01*
X11996589Y1224010D01*
X12266842Y1112068D01*
X12553740Y1055000D01*
X12846260Y1055000D01*
X13133158Y1112068D01*
X13403411Y1224010D01*
X13646632Y1386525D01*
X13853475Y1593368D01*
X13970000Y1767760D01*
X14086525Y1593368D01*
X14293368Y1386525D01*
X14536589Y1224010D01*
X14806842Y1112068D01*
X15093740Y1055000D01*
X15386260Y1055000D01*
X15673158Y1112068D01*
X15943411Y1224010D01*
X16186632Y1386525D01*
X16339601Y1539494D01*
X16336928Y1005000D01*
X16349188Y880518D01*
X16385498Y760820D01*
X16439388Y660000D01*
X8960612Y660000D01*
X9014502Y760820D01*
X9050812Y880518D01*
X9053223Y905000D01*
X9350019Y905000D01*
X9405506Y859463D01*
X9515820Y800498D01*
X9635518Y764188D01*
X9760000Y751928D01*
X10560000Y751928D01*
X10684482Y764188D01*
X10804180Y800498D01*
X10914494Y859463D01*
X11011185Y938815D01*
X11090537Y1035506D01*
X11149502Y1145820D01*
X11185812Y1265518D01*
X11198072Y1390000D01*
X11198072Y2190000D01*
X11185812Y2314482D01*
X11149502Y2434180D01*
X11092939Y2540000D01*
X11149502Y2645820D01*
X11185812Y2765518D01*
X11198072Y2890000D01*
X11198072Y3690000D01*
X11185812Y3814482D01*
X11149502Y3934180D01*
X11090537Y4044494D01*
X11045000Y4099981D01*
X11045000Y5415500D01*
X11101928Y5415500D01*
X11114188Y5291018D01*
X11150498Y5171320D01*
X11209463Y5061006D01*
X11288815Y4964315D01*
X11385506Y4884963D01*
X11495820Y4825998D01*
X11615518Y4789688D01*
X11740000Y4777428D01*
X11779250Y4780500D01*
X11938000Y4939250D01*
X11938000Y6051000D01*
X11263750Y6051000D01*
X11105000Y5892250D01*
X11101928Y5415500D01*
X11045000Y5415500D01*
X11045000Y6940500D01*
X11101928Y6940500D01*
X11105000Y6463750D01*
X11263750Y6305000D01*
X11938000Y6305000D01*
X11938000Y7416750D01*
X11779250Y7575500D01*
X11740000Y7578572D01*
X11615518Y7566312D01*
X11495820Y7530002D01*
X11385506Y7471037D01*
X11288815Y7391685D01*
X11209463Y7294994D01*
X11150498Y7184680D01*
X11114188Y7064982D01*
X11101928Y6940500D01*
X11045000Y6940500D01*
X11045000Y7081546D01*
X11077205Y7129744D01*
X11155226Y7318102D01*
X11195000Y7518061D01*
X11195000Y7721939D01*
X11155226Y7921898D01*
X11077205Y8110256D01*
X10963937Y8279774D01*
X10819774Y8423937D01*
X10650256Y8537205D01*
X10461898Y8615226D01*
X10261939Y8655000D01*
X10058061Y8655000D01*
X9858102Y8615226D01*
X9669744Y8537205D01*
X9500226Y8423937D01*
X9356063Y8279774D01*
X9242795Y8110256D01*
X9164774Y7921898D01*
X9125000Y7721939D01*
X9125000Y7518061D01*
X9164774Y7318102D01*
X9242795Y7129744D01*
X9275000Y7081545D01*
X9275001Y4099982D01*
X9229463Y4044494D01*
X9181530Y3954820D01*
X9180000Y4684250D01*
X9021250Y4843000D01*
X7747000Y4843000D01*
X7747000Y4823000D01*
X7493000Y4823000D01*
X7493000Y4843000D01*
X6218750Y4843000D01*
X6060000Y4684250D01*
X6056928Y3220000D01*
X6069188Y3095518D01*
X6105498Y2975820D01*
X6164463Y2865506D01*
X6243815Y2768815D01*
X6340506Y2689463D01*
X6450820Y2630498D01*
X6570518Y2594188D01*
X6695000Y2581928D01*
X6736928Y2582129D01*
X6736928Y1005000D01*
X6749188Y880518D01*
X6785498Y760820D01*
X6839388Y660000D01*
X5860612Y660000D01*
X5914502Y760820D01*
X5950812Y880518D01*
X5963072Y1005000D01*
X5960000Y1619250D01*
X5801250Y1778000D01*
X4927000Y1778000D01*
X4927000Y1758000D01*
X4673000Y1758000D01*
X4673000Y1778000D01*
X3798750Y1778000D01*
X3640000Y1619250D01*
X3636928Y1005000D01*
X3649188Y880518D01*
X3685498Y760820D01*
X3739388Y660000D01*
X660000Y660000D01*
X660000Y2805000D01*
X3636928Y2805000D01*
X3640000Y2190750D01*
X3798750Y2032000D01*
X4673000Y2032000D01*
X4673000Y3281250D01*
X4927000Y3281250D01*
X4927000Y2032000D01*
X5801250Y2032000D01*
X5960000Y2190750D01*
X5963072Y2805000D01*
X5950812Y2929482D01*
X5914502Y3049180D01*
X5855537Y3159494D01*
X5776185Y3256185D01*
X5679494Y3335537D01*
X5569180Y3394502D01*
X5449482Y3430812D01*
X5325000Y3443072D01*
X5085750Y3440000D01*
X4927000Y3281250D01*
X4673000Y3281250D01*
X4514250Y3440000D01*
X4275000Y3443072D01*
X4150518Y3430812D01*
X4030820Y3394502D01*
X3920506Y3335537D01*
X3823815Y3256185D01*
X3744463Y3159494D01*
X3685498Y3049180D01*
X3649188Y2929482D01*
X3636928Y2805000D01*
X660000Y2805000D01*
X660000Y6720000D01*
X6056928Y6720000D01*
X6060000Y5255750D01*
X6218750Y5097000D01*
X7493000Y5097000D01*
X7493000Y7196250D01*
X7747000Y7196250D01*
X7747000Y5097000D01*
X9021250Y5097000D01*
X9180000Y5255750D01*
X9183072Y6720000D01*
X9170812Y6844482D01*
X9134502Y6964180D01*
X9075537Y7074494D01*
X8996185Y7171185D01*
X8899494Y7250537D01*
X8789180Y7309502D01*
X8669482Y7345812D01*
X8545000Y7358072D01*
X7905750Y7355000D01*
X7747000Y7196250D01*
X7493000Y7196250D01*
X7334250Y7355000D01*
X6695000Y7358072D01*
X6570518Y7345812D01*
X6450820Y7309502D01*
X6340506Y7250537D01*
X6243815Y7171185D01*
X6164463Y7074494D01*
X6105498Y6964180D01*
X6069188Y6844482D01*
X6056928Y6720000D01*
X660000Y6720000D01*
X660000Y16090000D01*
X1051928Y16090000D01*
X1055000Y15525750D01*
X1213750Y15367000D01*
X2413000Y15367000D01*
X2413000Y16566250D01*
X2667000Y16566250D01*
X2667000Y15367000D01*
X3866250Y15367000D01*
X4025000Y15525750D01*
X4028072Y16090000D01*
X4023148Y16140000D01*
X4906928Y16140000D01*
X4910000Y15525750D01*
X5068750Y15367000D01*
X5943000Y15367000D01*
X5943000Y16616250D01*
X5784250Y16775000D01*
X5545000Y16778072D01*
X5420518Y16765812D01*
X5300820Y16729502D01*
X5190506Y16670537D01*
X5093815Y16591185D01*
X5014463Y16494494D01*
X4955498Y16384180D01*
X4919188Y16264482D01*
X4906928Y16140000D01*
X4023148Y16140000D01*
X4015812Y16214482D01*
X3979502Y16334180D01*
X3920537Y16444494D01*
X3841185Y16541185D01*
X3744494Y16620537D01*
X3634180Y16679502D01*
X3514482Y16715812D01*
X3390000Y16728072D01*
X2825750Y16725000D01*
X2667000Y16566250D01*
X2413000Y16566250D01*
X2254250Y16725000D01*
X1690000Y16728072D01*
X1565518Y16715812D01*
X1445820Y16679502D01*
X1335506Y16620537D01*
X1238815Y16541185D01*
X1159463Y16444494D01*
X1100498Y16334180D01*
X1064188Y16214482D01*
X1051928Y16090000D01*
X660000Y16090000D01*
X660000Y17120000D01*
X55220000Y17120000D01*
X55220001Y660000D01*
G37*
%TD.AperFunction*%
D22*
X22987000Y12127000D02*
X23007000Y12127000D01*
X23007000Y11873000D01*
X22987000Y11873000D01*
X22987000Y11148750D01*
X23145750Y10990000D01*
X23330000Y10986928D01*
X23454482Y10999188D01*
X23574180Y11035498D01*
X23684494Y11094463D01*
X23729556Y11131445D01*
X23801928Y10996045D01*
X23801928Y10839500D01*
X23814188Y10715018D01*
X23850498Y10595320D01*
X23909463Y10485006D01*
X23988815Y10388315D01*
X24085506Y10308963D01*
X24195820Y10249998D01*
X24315518Y10213688D01*
X24440000Y10201428D01*
X24808511Y10201428D01*
X24843271Y10149405D01*
X24836928Y10085000D01*
X24836928Y7695000D01*
X24849188Y7570518D01*
X24885498Y7450820D01*
X24899630Y7424380D01*
X24892000Y7416750D01*
X24892000Y6305000D01*
X24912000Y6305000D01*
X24912000Y6051000D01*
X24892000Y6051000D01*
X24892000Y4939250D01*
X25050750Y4780500D01*
X25090000Y4777428D01*
X25150001Y4783337D01*
X25150000Y4004365D01*
X24966842Y3967932D01*
X24696589Y3855990D01*
X24453368Y3693475D01*
X24246525Y3486632D01*
X24084010Y3243411D01*
X23972068Y2973158D01*
X23915000Y2686260D01*
X23915000Y2393740D01*
X23972068Y2106842D01*
X24084010Y1836589D01*
X24246525Y1593368D01*
X24453368Y1386525D01*
X24696589Y1224010D01*
X24966842Y1112068D01*
X25253740Y1055000D01*
X25546260Y1055000D01*
X25833158Y1112068D01*
X26103411Y1224010D01*
X26346632Y1386525D01*
X26553475Y1593368D01*
X26670000Y1767760D01*
X26786525Y1593368D01*
X26993368Y1386525D01*
X27236589Y1224010D01*
X27506842Y1112068D01*
X27793740Y1055000D01*
X28086260Y1055000D01*
X28373158Y1112068D01*
X28643411Y1224010D01*
X28886632Y1386525D01*
X29039601Y1539494D01*
X29036928Y1005000D01*
X29049188Y880518D01*
X29085498Y760820D01*
X29139388Y660000D01*
X21660612Y660000D01*
X21714502Y760820D01*
X21750812Y880518D01*
X21753223Y905000D01*
X22050019Y905000D01*
X22105506Y859463D01*
X22215820Y800498D01*
X22335518Y764188D01*
X22460000Y751928D01*
X23260000Y751928D01*
X23384482Y764188D01*
X23504180Y800498D01*
X23614494Y859463D01*
X23711185Y938815D01*
X23790537Y1035506D01*
X23849502Y1145820D01*
X23885812Y1265518D01*
X23898072Y1390000D01*
X23898072Y2190000D01*
X23885812Y2314482D01*
X23849502Y2434180D01*
X23792939Y2540000D01*
X23849502Y2645820D01*
X23885812Y2765518D01*
X23898072Y2890000D01*
X23898072Y3690000D01*
X23885812Y3814482D01*
X23849502Y3934180D01*
X23790537Y4044494D01*
X23745000Y4099981D01*
X23745000Y5415500D01*
X23801928Y5415500D01*
X23814188Y5291018D01*
X23850498Y5171320D01*
X23909463Y5061006D01*
X23988815Y4964315D01*
X24085506Y4884963D01*
X24195820Y4825998D01*
X24315518Y4789688D01*
X24440000Y4777428D01*
X24479250Y4780500D01*
X24638000Y4939250D01*
X24638000Y6051000D01*
X23963750Y6051000D01*
X23805000Y5892250D01*
X23801928Y5415500D01*
X23745000Y5415500D01*
X23745000Y6940500D01*
X23801928Y6940500D01*
X23805000Y6463750D01*
X23963750Y6305000D01*
X24638000Y6305000D01*
X24638000Y7416750D01*
X24479250Y7575500D01*
X24440000Y7578572D01*
X24315518Y7566312D01*
X24195820Y7530002D01*
X24085506Y7471037D01*
X23988815Y7391685D01*
X23909463Y7294994D01*
X23850498Y7184680D01*
X23814188Y7064982D01*
X23801928Y6940500D01*
X23745000Y6940500D01*
X23745000Y7081546D01*
X23777205Y7129744D01*
X23855226Y7318102D01*
X23895000Y7518061D01*
X23895000Y7721939D01*
X23855226Y7921898D01*
X23777205Y8110256D01*
X23663937Y8279774D01*
X23519774Y8423937D01*
X23350256Y8537205D01*
X23161898Y8615226D01*
X22961939Y8655000D01*
X22758061Y8655000D01*
X22558102Y8615226D01*
X22369744Y8537205D01*
X22200226Y8423937D01*
X22056063Y8279774D01*
X21942795Y8110256D01*
X21864774Y7921898D01*
X21825000Y7721939D01*
X21825000Y7518061D01*
X21864774Y7318102D01*
X21942795Y7129744D01*
X21975000Y7081545D01*
X21975001Y4099982D01*
X21929463Y4044494D01*
X21881530Y3954820D01*
X21880000Y4684250D01*
X21721250Y4843000D01*
X20447000Y4843000D01*
X20447000Y4823000D01*
X20193000Y4823000D01*
X20193000Y4843000D01*
X20173000Y4843000D01*
X20173000Y5097000D01*
X20193000Y5097000D01*
X20193000Y7196250D01*
X20447000Y7196250D01*
X20447000Y5097000D01*
X21721250Y5097000D01*
X21880000Y5255750D01*
X21883072Y6720000D01*
X21870812Y6844482D01*
X21834502Y6964180D01*
X21775537Y7074494D01*
X21696185Y7171185D01*
X21599494Y7250537D01*
X21489180Y7309502D01*
X21369482Y7345812D01*
X21245000Y7358072D01*
X20605750Y7355000D01*
X20447000Y7196250D01*
X20193000Y7196250D01*
X20034250Y7355000D01*
X19395000Y7358072D01*
X19270518Y7345812D01*
X19150820Y7309502D01*
X19040506Y7250537D01*
X18943815Y7171185D01*
X18915000Y7136074D01*
X18915000Y7259869D01*
X19537059Y7881928D01*
X21245000Y7881928D01*
X21369482Y7894188D01*
X21489180Y7930498D01*
X21599494Y7989463D01*
X21696185Y8068815D01*
X21775537Y8165506D01*
X21834502Y8275820D01*
X21870812Y8395518D01*
X21883072Y8520000D01*
X21883072Y11241738D01*
X21938815Y11173815D01*
X22035506Y11094463D01*
X22145820Y11035498D01*
X22265518Y10999188D01*
X22390000Y10986928D01*
X22574250Y10990000D01*
X22733000Y11148750D01*
X22733000Y11873000D01*
X22713000Y11873000D01*
X22713000Y12127000D01*
X22733000Y12127000D01*
X22733000Y12147000D01*
X22987000Y12147000D01*
X22987000Y12127000D01*
%TA.AperFunction,Conductor*%
D23*
G36*
X22987000Y12127000D02*
G01*
X23007000Y12127000D01*
X23007000Y11873000D01*
X22987000Y11873000D01*
X22987000Y11148750D01*
X23145750Y10990000D01*
X23330000Y10986928D01*
X23454482Y10999188D01*
X23574180Y11035498D01*
X23684494Y11094463D01*
X23729556Y11131445D01*
X23801928Y10996045D01*
X23801928Y10839500D01*
X23814188Y10715018D01*
X23850498Y10595320D01*
X23909463Y10485006D01*
X23988815Y10388315D01*
X24085506Y10308963D01*
X24195820Y10249998D01*
X24315518Y10213688D01*
X24440000Y10201428D01*
X24808511Y10201428D01*
X24843271Y10149405D01*
X24836928Y10085000D01*
X24836928Y7695000D01*
X24849188Y7570518D01*
X24885498Y7450820D01*
X24899630Y7424380D01*
X24892000Y7416750D01*
X24892000Y6305000D01*
X24912000Y6305000D01*
X24912000Y6051000D01*
X24892000Y6051000D01*
X24892000Y4939250D01*
X25050750Y4780500D01*
X25090000Y4777428D01*
X25150001Y4783337D01*
X25150000Y4004365D01*
X24966842Y3967932D01*
X24696589Y3855990D01*
X24453368Y3693475D01*
X24246525Y3486632D01*
X24084010Y3243411D01*
X23972068Y2973158D01*
X23915000Y2686260D01*
X23915000Y2393740D01*
X23972068Y2106842D01*
X24084010Y1836589D01*
X24246525Y1593368D01*
X24453368Y1386525D01*
X24696589Y1224010D01*
X24966842Y1112068D01*
X25253740Y1055000D01*
X25546260Y1055000D01*
X25833158Y1112068D01*
X26103411Y1224010D01*
X26346632Y1386525D01*
X26553475Y1593368D01*
X26670000Y1767760D01*
X26786525Y1593368D01*
X26993368Y1386525D01*
X27236589Y1224010D01*
X27506842Y1112068D01*
X27793740Y1055000D01*
X28086260Y1055000D01*
X28373158Y1112068D01*
X28643411Y1224010D01*
X28886632Y1386525D01*
X29039601Y1539494D01*
X29036928Y1005000D01*
X29049188Y880518D01*
X29085498Y760820D01*
X29139388Y660000D01*
X21660612Y660000D01*
X21714502Y760820D01*
X21750812Y880518D01*
X21753223Y905000D01*
X22050019Y905000D01*
X22105506Y859463D01*
X22215820Y800498D01*
X22335518Y764188D01*
X22460000Y751928D01*
X23260000Y751928D01*
X23384482Y764188D01*
X23504180Y800498D01*
X23614494Y859463D01*
X23711185Y938815D01*
X23790537Y1035506D01*
X23849502Y1145820D01*
X23885812Y1265518D01*
X23898072Y1390000D01*
X23898072Y2190000D01*
X23885812Y2314482D01*
X23849502Y2434180D01*
X23792939Y2540000D01*
X23849502Y2645820D01*
X23885812Y2765518D01*
X23898072Y2890000D01*
X23898072Y3690000D01*
X23885812Y3814482D01*
X23849502Y3934180D01*
X23790537Y4044494D01*
X23745000Y4099981D01*
X23745000Y5415500D01*
X23801928Y5415500D01*
X23814188Y5291018D01*
X23850498Y5171320D01*
X23909463Y5061006D01*
X23988815Y4964315D01*
X24085506Y4884963D01*
X24195820Y4825998D01*
X24315518Y4789688D01*
X24440000Y4777428D01*
X24479250Y4780500D01*
X24638000Y4939250D01*
X24638000Y6051000D01*
X23963750Y6051000D01*
X23805000Y5892250D01*
X23801928Y5415500D01*
X23745000Y5415500D01*
X23745000Y6940500D01*
X23801928Y6940500D01*
X23805000Y6463750D01*
X23963750Y6305000D01*
X24638000Y6305000D01*
X24638000Y7416750D01*
X24479250Y7575500D01*
X24440000Y7578572D01*
X24315518Y7566312D01*
X24195820Y7530002D01*
X24085506Y7471037D01*
X23988815Y7391685D01*
X23909463Y7294994D01*
X23850498Y7184680D01*
X23814188Y7064982D01*
X23801928Y6940500D01*
X23745000Y6940500D01*
X23745000Y7081546D01*
X23777205Y7129744D01*
X23855226Y7318102D01*
X23895000Y7518061D01*
X23895000Y7721939D01*
X23855226Y7921898D01*
X23777205Y8110256D01*
X23663937Y8279774D01*
X23519774Y8423937D01*
X23350256Y8537205D01*
X23161898Y8615226D01*
X22961939Y8655000D01*
X22758061Y8655000D01*
X22558102Y8615226D01*
X22369744Y8537205D01*
X22200226Y8423937D01*
X22056063Y8279774D01*
X21942795Y8110256D01*
X21864774Y7921898D01*
X21825000Y7721939D01*
X21825000Y7518061D01*
X21864774Y7318102D01*
X21942795Y7129744D01*
X21975000Y7081545D01*
X21975001Y4099982D01*
X21929463Y4044494D01*
X21881530Y3954820D01*
X21880000Y4684250D01*
X21721250Y4843000D01*
X20447000Y4843000D01*
X20447000Y4823000D01*
X20193000Y4823000D01*
X20193000Y4843000D01*
X20173000Y4843000D01*
X20173000Y5097000D01*
X20193000Y5097000D01*
X20193000Y7196250D01*
X20447000Y7196250D01*
X20447000Y5097000D01*
X21721250Y5097000D01*
X21880000Y5255750D01*
X21883072Y6720000D01*
X21870812Y6844482D01*
X21834502Y6964180D01*
X21775537Y7074494D01*
X21696185Y7171185D01*
X21599494Y7250537D01*
X21489180Y7309502D01*
X21369482Y7345812D01*
X21245000Y7358072D01*
X20605750Y7355000D01*
X20447000Y7196250D01*
X20193000Y7196250D01*
X20034250Y7355000D01*
X19395000Y7358072D01*
X19270518Y7345812D01*
X19150820Y7309502D01*
X19040506Y7250537D01*
X18943815Y7171185D01*
X18915000Y7136074D01*
X18915000Y7259869D01*
X19537059Y7881928D01*
X21245000Y7881928D01*
X21369482Y7894188D01*
X21489180Y7930498D01*
X21599494Y7989463D01*
X21696185Y8068815D01*
X21775537Y8165506D01*
X21834502Y8275820D01*
X21870812Y8395518D01*
X21883072Y8520000D01*
X21883072Y11241738D01*
X21938815Y11173815D01*
X22035506Y11094463D01*
X22145820Y11035498D01*
X22265518Y10999188D01*
X22390000Y10986928D01*
X22574250Y10990000D01*
X22733000Y11148750D01*
X22733000Y11873000D01*
X22713000Y11873000D01*
X22713000Y12127000D01*
X22733000Y12127000D01*
X22733000Y12147000D01*
X22987000Y12147000D01*
X22987000Y12127000D01*
G37*
%TD.AperFunction*%
D22*
X16661423Y4857502D02*
X16726324Y4643554D01*
X16831716Y4446377D01*
X16973551Y4273551D01*
X17146377Y4131716D01*
X17343553Y4026324D01*
X17557501Y3961423D01*
X17780000Y3939509D01*
X18002498Y3961423D01*
X18216446Y4026324D01*
X18413623Y4131716D01*
X18586449Y4273551D01*
X18728284Y4446377D01*
X18759624Y4505010D01*
X18756928Y3220000D01*
X18769188Y3095518D01*
X18805498Y2975820D01*
X18864463Y2865506D01*
X18943815Y2768815D01*
X19040506Y2689463D01*
X19150820Y2630498D01*
X19270518Y2594188D01*
X19395000Y2581928D01*
X19436928Y2582129D01*
X19436928Y1005000D01*
X19449188Y880518D01*
X19485498Y760820D01*
X19539388Y660000D01*
X18560612Y660000D01*
X18614502Y760820D01*
X18650812Y880518D01*
X18663072Y1005000D01*
X18660000Y1619250D01*
X18501250Y1778000D01*
X17627000Y1778000D01*
X17627000Y1758000D01*
X17373000Y1758000D01*
X17373000Y1778000D01*
X17353000Y1778000D01*
X17353000Y2032000D01*
X17373000Y2032000D01*
X17373000Y3281250D01*
X17627000Y3281250D01*
X17627000Y2032000D01*
X18501250Y2032000D01*
X18660000Y2190750D01*
X18663072Y2805000D01*
X18650812Y2929482D01*
X18614502Y3049180D01*
X18555537Y3159494D01*
X18476185Y3256185D01*
X18379494Y3335537D01*
X18269180Y3394502D01*
X18149482Y3430812D01*
X18025000Y3443072D01*
X17785750Y3440000D01*
X17627000Y3281250D01*
X17373000Y3281250D01*
X17214250Y3440000D01*
X16975000Y3443072D01*
X16850518Y3430812D01*
X16730820Y3394502D01*
X16620506Y3335537D01*
X16539083Y3268715D01*
X16393475Y3486632D01*
X16186632Y3693475D01*
X15943411Y3855990D01*
X15673158Y3967932D01*
X15490000Y4004365D01*
X15490000Y4783337D01*
X15550000Y4777428D01*
X16200000Y4777428D01*
X16324482Y4789688D01*
X16444180Y4825998D01*
X16554494Y4884963D01*
X16650924Y4964101D01*
X16661423Y4857502D01*
%TA.AperFunction,Conductor*%
D23*
G36*
X16661423Y4857502D02*
G01*
X16726324Y4643554D01*
X16831716Y4446377D01*
X16973551Y4273551D01*
X17146377Y4131716D01*
X17343553Y4026324D01*
X17557501Y3961423D01*
X17780000Y3939509D01*
X18002498Y3961423D01*
X18216446Y4026324D01*
X18413623Y4131716D01*
X18586449Y4273551D01*
X18728284Y4446377D01*
X18759624Y4505010D01*
X18756928Y3220000D01*
X18769188Y3095518D01*
X18805498Y2975820D01*
X18864463Y2865506D01*
X18943815Y2768815D01*
X19040506Y2689463D01*
X19150820Y2630498D01*
X19270518Y2594188D01*
X19395000Y2581928D01*
X19436928Y2582129D01*
X19436928Y1005000D01*
X19449188Y880518D01*
X19485498Y760820D01*
X19539388Y660000D01*
X18560612Y660000D01*
X18614502Y760820D01*
X18650812Y880518D01*
X18663072Y1005000D01*
X18660000Y1619250D01*
X18501250Y1778000D01*
X17627000Y1778000D01*
X17627000Y1758000D01*
X17373000Y1758000D01*
X17373000Y1778000D01*
X17353000Y1778000D01*
X17353000Y2032000D01*
X17373000Y2032000D01*
X17373000Y3281250D01*
X17627000Y3281250D01*
X17627000Y2032000D01*
X18501250Y2032000D01*
X18660000Y2190750D01*
X18663072Y2805000D01*
X18650812Y2929482D01*
X18614502Y3049180D01*
X18555537Y3159494D01*
X18476185Y3256185D01*
X18379494Y3335537D01*
X18269180Y3394502D01*
X18149482Y3430812D01*
X18025000Y3443072D01*
X17785750Y3440000D01*
X17627000Y3281250D01*
X17373000Y3281250D01*
X17214250Y3440000D01*
X16975000Y3443072D01*
X16850518Y3430812D01*
X16730820Y3394502D01*
X16620506Y3335537D01*
X16539083Y3268715D01*
X16393475Y3486632D01*
X16186632Y3693475D01*
X15943411Y3855990D01*
X15673158Y3967932D01*
X15490000Y4004365D01*
X15490000Y4783337D01*
X15550000Y4777428D01*
X16200000Y4777428D01*
X16324482Y4789688D01*
X16444180Y4825998D01*
X16554494Y4884963D01*
X16650924Y4964101D01*
X16661423Y4857502D01*
G37*
%TD.AperFunction*%
D22*
X35687000Y12127000D02*
X35707000Y12127000D01*
X35707000Y11873000D01*
X35687000Y11873000D01*
X35687000Y11148750D01*
X35845750Y10990000D01*
X36030000Y10986928D01*
X36154482Y10999188D01*
X36274180Y11035498D01*
X36384494Y11094463D01*
X36429556Y11131445D01*
X36501928Y10996045D01*
X36501928Y10839500D01*
X36514188Y10715018D01*
X36550498Y10595320D01*
X36609463Y10485006D01*
X36688815Y10388315D01*
X36785506Y10308963D01*
X36895820Y10249998D01*
X37015518Y10213688D01*
X37140000Y10201428D01*
X37508511Y10201428D01*
X37543271Y10149405D01*
X37536928Y10085000D01*
X37536928Y7695000D01*
X37549188Y7570518D01*
X37585498Y7450820D01*
X37599630Y7424380D01*
X37592000Y7416750D01*
X37592000Y6305000D01*
X37612000Y6305000D01*
X37612000Y6051000D01*
X37592000Y6051000D01*
X37592000Y4939250D01*
X37750750Y4780500D01*
X37790000Y4777428D01*
X37850001Y4783337D01*
X37850000Y4004365D01*
X37666842Y3967932D01*
X37396589Y3855990D01*
X37153368Y3693475D01*
X36946525Y3486632D01*
X36784010Y3243411D01*
X36672068Y2973158D01*
X36615000Y2686260D01*
X36615000Y2393740D01*
X36672068Y2106842D01*
X36784010Y1836589D01*
X36946525Y1593368D01*
X37153368Y1386525D01*
X37396589Y1224010D01*
X37666842Y1112068D01*
X37953740Y1055000D01*
X38246260Y1055000D01*
X38533158Y1112068D01*
X38803411Y1224010D01*
X39046632Y1386525D01*
X39178487Y1518380D01*
X39200498Y1445820D01*
X39259463Y1335506D01*
X39338815Y1238815D01*
X39435506Y1159463D01*
X39545820Y1100498D01*
X39665518Y1064188D01*
X39790000Y1051928D01*
X41490000Y1051928D01*
X41614482Y1064188D01*
X41734180Y1100498D01*
X41737414Y1102227D01*
X41736928Y1005000D01*
X41749188Y880518D01*
X41785498Y760820D01*
X41839388Y660000D01*
X34360612Y660000D01*
X34414502Y760820D01*
X34450812Y880518D01*
X34453223Y905000D01*
X34750019Y905000D01*
X34805506Y859463D01*
X34915820Y800498D01*
X35035518Y764188D01*
X35160000Y751928D01*
X35960000Y751928D01*
X36084482Y764188D01*
X36204180Y800498D01*
X36314494Y859463D01*
X36411185Y938815D01*
X36490537Y1035506D01*
X36549502Y1145820D01*
X36585812Y1265518D01*
X36598072Y1390000D01*
X36598072Y2190000D01*
X36585812Y2314482D01*
X36549502Y2434180D01*
X36492939Y2540000D01*
X36549502Y2645820D01*
X36585812Y2765518D01*
X36598072Y2890000D01*
X36598072Y3690000D01*
X36585812Y3814482D01*
X36549502Y3934180D01*
X36490537Y4044494D01*
X36445000Y4099981D01*
X36445000Y5415500D01*
X36501928Y5415500D01*
X36514188Y5291018D01*
X36550498Y5171320D01*
X36609463Y5061006D01*
X36688815Y4964315D01*
X36785506Y4884963D01*
X36895820Y4825998D01*
X37015518Y4789688D01*
X37140000Y4777428D01*
X37179250Y4780500D01*
X37338000Y4939250D01*
X37338000Y6051000D01*
X36663750Y6051000D01*
X36505000Y5892250D01*
X36501928Y5415500D01*
X36445000Y5415500D01*
X36445000Y6940500D01*
X36501928Y6940500D01*
X36505000Y6463750D01*
X36663750Y6305000D01*
X37338000Y6305000D01*
X37338000Y7416750D01*
X37179250Y7575500D01*
X37140000Y7578572D01*
X37015518Y7566312D01*
X36895820Y7530002D01*
X36785506Y7471037D01*
X36688815Y7391685D01*
X36609463Y7294994D01*
X36550498Y7184680D01*
X36514188Y7064982D01*
X36501928Y6940500D01*
X36445000Y6940500D01*
X36445000Y7081546D01*
X36477205Y7129744D01*
X36555226Y7318102D01*
X36595000Y7518061D01*
X36595000Y7721939D01*
X36555226Y7921898D01*
X36477205Y8110256D01*
X36363937Y8279774D01*
X36219774Y8423937D01*
X36050256Y8537205D01*
X35861898Y8615226D01*
X35661939Y8655000D01*
X35458061Y8655000D01*
X35258102Y8615226D01*
X35069744Y8537205D01*
X34900226Y8423937D01*
X34756063Y8279774D01*
X34642795Y8110256D01*
X34564774Y7921898D01*
X34525000Y7721939D01*
X34525000Y7518061D01*
X34564774Y7318102D01*
X34642795Y7129744D01*
X34675000Y7081545D01*
X34675001Y4099982D01*
X34629463Y4044494D01*
X34581530Y3954820D01*
X34580000Y4684250D01*
X34421250Y4843000D01*
X33147000Y4843000D01*
X33147000Y4823000D01*
X32893000Y4823000D01*
X32893000Y4843000D01*
X32873000Y4843000D01*
X32873000Y5097000D01*
X32893000Y5097000D01*
X32893000Y7196250D01*
X33147000Y7196250D01*
X33147000Y5097000D01*
X34421250Y5097000D01*
X34580000Y5255750D01*
X34583072Y6720000D01*
X34570812Y6844482D01*
X34534502Y6964180D01*
X34475537Y7074494D01*
X34396185Y7171185D01*
X34299494Y7250537D01*
X34189180Y7309502D01*
X34069482Y7345812D01*
X33945000Y7358072D01*
X33305750Y7355000D01*
X33147000Y7196250D01*
X32893000Y7196250D01*
X32734250Y7355000D01*
X32095000Y7358072D01*
X31970518Y7345812D01*
X31850820Y7309502D01*
X31740506Y7250537D01*
X31643815Y7171185D01*
X31615000Y7136074D01*
X31615000Y7259869D01*
X32237059Y7881928D01*
X33945000Y7881928D01*
X34069482Y7894188D01*
X34189180Y7930498D01*
X34299494Y7989463D01*
X34396185Y8068815D01*
X34475537Y8165506D01*
X34534502Y8275820D01*
X34570812Y8395518D01*
X34583072Y8520000D01*
X34583072Y11241738D01*
X34638815Y11173815D01*
X34735506Y11094463D01*
X34845820Y11035498D01*
X34965518Y10999188D01*
X35090000Y10986928D01*
X35274250Y10990000D01*
X35433000Y11148750D01*
X35433000Y11873000D01*
X35413000Y11873000D01*
X35413000Y12127000D01*
X35433000Y12127000D01*
X35433000Y12147000D01*
X35687000Y12147000D01*
X35687000Y12127000D01*
%TA.AperFunction,Conductor*%
D23*
G36*
X35687000Y12127000D02*
G01*
X35707000Y12127000D01*
X35707000Y11873000D01*
X35687000Y11873000D01*
X35687000Y11148750D01*
X35845750Y10990000D01*
X36030000Y10986928D01*
X36154482Y10999188D01*
X36274180Y11035498D01*
X36384494Y11094463D01*
X36429556Y11131445D01*
X36501928Y10996045D01*
X36501928Y10839500D01*
X36514188Y10715018D01*
X36550498Y10595320D01*
X36609463Y10485006D01*
X36688815Y10388315D01*
X36785506Y10308963D01*
X36895820Y10249998D01*
X37015518Y10213688D01*
X37140000Y10201428D01*
X37508511Y10201428D01*
X37543271Y10149405D01*
X37536928Y10085000D01*
X37536928Y7695000D01*
X37549188Y7570518D01*
X37585498Y7450820D01*
X37599630Y7424380D01*
X37592000Y7416750D01*
X37592000Y6305000D01*
X37612000Y6305000D01*
X37612000Y6051000D01*
X37592000Y6051000D01*
X37592000Y4939250D01*
X37750750Y4780500D01*
X37790000Y4777428D01*
X37850001Y4783337D01*
X37850000Y4004365D01*
X37666842Y3967932D01*
X37396589Y3855990D01*
X37153368Y3693475D01*
X36946525Y3486632D01*
X36784010Y3243411D01*
X36672068Y2973158D01*
X36615000Y2686260D01*
X36615000Y2393740D01*
X36672068Y2106842D01*
X36784010Y1836589D01*
X36946525Y1593368D01*
X37153368Y1386525D01*
X37396589Y1224010D01*
X37666842Y1112068D01*
X37953740Y1055000D01*
X38246260Y1055000D01*
X38533158Y1112068D01*
X38803411Y1224010D01*
X39046632Y1386525D01*
X39178487Y1518380D01*
X39200498Y1445820D01*
X39259463Y1335506D01*
X39338815Y1238815D01*
X39435506Y1159463D01*
X39545820Y1100498D01*
X39665518Y1064188D01*
X39790000Y1051928D01*
X41490000Y1051928D01*
X41614482Y1064188D01*
X41734180Y1100498D01*
X41737414Y1102227D01*
X41736928Y1005000D01*
X41749188Y880518D01*
X41785498Y760820D01*
X41839388Y660000D01*
X34360612Y660000D01*
X34414502Y760820D01*
X34450812Y880518D01*
X34453223Y905000D01*
X34750019Y905000D01*
X34805506Y859463D01*
X34915820Y800498D01*
X35035518Y764188D01*
X35160000Y751928D01*
X35960000Y751928D01*
X36084482Y764188D01*
X36204180Y800498D01*
X36314494Y859463D01*
X36411185Y938815D01*
X36490537Y1035506D01*
X36549502Y1145820D01*
X36585812Y1265518D01*
X36598072Y1390000D01*
X36598072Y2190000D01*
X36585812Y2314482D01*
X36549502Y2434180D01*
X36492939Y2540000D01*
X36549502Y2645820D01*
X36585812Y2765518D01*
X36598072Y2890000D01*
X36598072Y3690000D01*
X36585812Y3814482D01*
X36549502Y3934180D01*
X36490537Y4044494D01*
X36445000Y4099981D01*
X36445000Y5415500D01*
X36501928Y5415500D01*
X36514188Y5291018D01*
X36550498Y5171320D01*
X36609463Y5061006D01*
X36688815Y4964315D01*
X36785506Y4884963D01*
X36895820Y4825998D01*
X37015518Y4789688D01*
X37140000Y4777428D01*
X37179250Y4780500D01*
X37338000Y4939250D01*
X37338000Y6051000D01*
X36663750Y6051000D01*
X36505000Y5892250D01*
X36501928Y5415500D01*
X36445000Y5415500D01*
X36445000Y6940500D01*
X36501928Y6940500D01*
X36505000Y6463750D01*
X36663750Y6305000D01*
X37338000Y6305000D01*
X37338000Y7416750D01*
X37179250Y7575500D01*
X37140000Y7578572D01*
X37015518Y7566312D01*
X36895820Y7530002D01*
X36785506Y7471037D01*
X36688815Y7391685D01*
X36609463Y7294994D01*
X36550498Y7184680D01*
X36514188Y7064982D01*
X36501928Y6940500D01*
X36445000Y6940500D01*
X36445000Y7081546D01*
X36477205Y7129744D01*
X36555226Y7318102D01*
X36595000Y7518061D01*
X36595000Y7721939D01*
X36555226Y7921898D01*
X36477205Y8110256D01*
X36363937Y8279774D01*
X36219774Y8423937D01*
X36050256Y8537205D01*
X35861898Y8615226D01*
X35661939Y8655000D01*
X35458061Y8655000D01*
X35258102Y8615226D01*
X35069744Y8537205D01*
X34900226Y8423937D01*
X34756063Y8279774D01*
X34642795Y8110256D01*
X34564774Y7921898D01*
X34525000Y7721939D01*
X34525000Y7518061D01*
X34564774Y7318102D01*
X34642795Y7129744D01*
X34675000Y7081545D01*
X34675001Y4099982D01*
X34629463Y4044494D01*
X34581530Y3954820D01*
X34580000Y4684250D01*
X34421250Y4843000D01*
X33147000Y4843000D01*
X33147000Y4823000D01*
X32893000Y4823000D01*
X32893000Y4843000D01*
X32873000Y4843000D01*
X32873000Y5097000D01*
X32893000Y5097000D01*
X32893000Y7196250D01*
X33147000Y7196250D01*
X33147000Y5097000D01*
X34421250Y5097000D01*
X34580000Y5255750D01*
X34583072Y6720000D01*
X34570812Y6844482D01*
X34534502Y6964180D01*
X34475537Y7074494D01*
X34396185Y7171185D01*
X34299494Y7250537D01*
X34189180Y7309502D01*
X34069482Y7345812D01*
X33945000Y7358072D01*
X33305750Y7355000D01*
X33147000Y7196250D01*
X32893000Y7196250D01*
X32734250Y7355000D01*
X32095000Y7358072D01*
X31970518Y7345812D01*
X31850820Y7309502D01*
X31740506Y7250537D01*
X31643815Y7171185D01*
X31615000Y7136074D01*
X31615000Y7259869D01*
X32237059Y7881928D01*
X33945000Y7881928D01*
X34069482Y7894188D01*
X34189180Y7930498D01*
X34299494Y7989463D01*
X34396185Y8068815D01*
X34475537Y8165506D01*
X34534502Y8275820D01*
X34570812Y8395518D01*
X34583072Y8520000D01*
X34583072Y11241738D01*
X34638815Y11173815D01*
X34735506Y11094463D01*
X34845820Y11035498D01*
X34965518Y10999188D01*
X35090000Y10986928D01*
X35274250Y10990000D01*
X35433000Y11148750D01*
X35433000Y11873000D01*
X35413000Y11873000D01*
X35413000Y12127000D01*
X35433000Y12127000D01*
X35433000Y12147000D01*
X35687000Y12147000D01*
X35687000Y12127000D01*
G37*
%TD.AperFunction*%
D22*
X42061423Y4857502D02*
X42126324Y4643554D01*
X42231716Y4446377D01*
X42373551Y4273551D01*
X42546377Y4131716D01*
X42743553Y4026324D01*
X42957501Y3961423D01*
X43180000Y3939509D01*
X43402498Y3961423D01*
X43616446Y4026324D01*
X43813623Y4131716D01*
X43986449Y4273551D01*
X44128284Y4446377D01*
X44159624Y4505010D01*
X44156928Y3220000D01*
X44169188Y3095518D01*
X44205498Y2975820D01*
X44264463Y2865506D01*
X44343815Y2768815D01*
X44440506Y2689463D01*
X44550820Y2630498D01*
X44670518Y2594188D01*
X44795000Y2581928D01*
X44836928Y2582129D01*
X44836928Y1005000D01*
X44849188Y880518D01*
X44885498Y760820D01*
X44939388Y660000D01*
X43960612Y660000D01*
X44014502Y760820D01*
X44050812Y880518D01*
X44063072Y1005000D01*
X44060000Y1619250D01*
X43901250Y1778000D01*
X43027000Y1778000D01*
X43027000Y1758000D01*
X42773000Y1758000D01*
X42773000Y1778000D01*
X42753000Y1778000D01*
X42753000Y2032000D01*
X42773000Y2032000D01*
X42773000Y3281250D01*
X43027000Y3281250D01*
X43027000Y2032000D01*
X43901250Y2032000D01*
X44060000Y2190750D01*
X44063072Y2805000D01*
X44050812Y2929482D01*
X44014502Y3049180D01*
X43955537Y3159494D01*
X43876185Y3256185D01*
X43779494Y3335537D01*
X43669180Y3394502D01*
X43549482Y3430812D01*
X43425000Y3443072D01*
X43185750Y3440000D01*
X43027000Y3281250D01*
X42773000Y3281250D01*
X42614250Y3440000D01*
X42375000Y3443072D01*
X42250518Y3430812D01*
X42130820Y3394502D01*
X42127788Y3392881D01*
X42115812Y3514482D01*
X42079502Y3634180D01*
X42020537Y3744494D01*
X41941185Y3841185D01*
X41844494Y3920537D01*
X41734180Y3979502D01*
X41614482Y4015812D01*
X41490000Y4028072D01*
X40890000Y4028072D01*
X40890000Y4783337D01*
X40950000Y4777428D01*
X41600000Y4777428D01*
X41724482Y4789688D01*
X41844180Y4825998D01*
X41954494Y4884963D01*
X42050924Y4964101D01*
X42061423Y4857502D01*
%TA.AperFunction,Conductor*%
D23*
G36*
X42061423Y4857502D02*
G01*
X42126324Y4643554D01*
X42231716Y4446377D01*
X42373551Y4273551D01*
X42546377Y4131716D01*
X42743553Y4026324D01*
X42957501Y3961423D01*
X43180000Y3939509D01*
X43402498Y3961423D01*
X43616446Y4026324D01*
X43813623Y4131716D01*
X43986449Y4273551D01*
X44128284Y4446377D01*
X44159624Y4505010D01*
X44156928Y3220000D01*
X44169188Y3095518D01*
X44205498Y2975820D01*
X44264463Y2865506D01*
X44343815Y2768815D01*
X44440506Y2689463D01*
X44550820Y2630498D01*
X44670518Y2594188D01*
X44795000Y2581928D01*
X44836928Y2582129D01*
X44836928Y1005000D01*
X44849188Y880518D01*
X44885498Y760820D01*
X44939388Y660000D01*
X43960612Y660000D01*
X44014502Y760820D01*
X44050812Y880518D01*
X44063072Y1005000D01*
X44060000Y1619250D01*
X43901250Y1778000D01*
X43027000Y1778000D01*
X43027000Y1758000D01*
X42773000Y1758000D01*
X42773000Y1778000D01*
X42753000Y1778000D01*
X42753000Y2032000D01*
X42773000Y2032000D01*
X42773000Y3281250D01*
X43027000Y3281250D01*
X43027000Y2032000D01*
X43901250Y2032000D01*
X44060000Y2190750D01*
X44063072Y2805000D01*
X44050812Y2929482D01*
X44014502Y3049180D01*
X43955537Y3159494D01*
X43876185Y3256185D01*
X43779494Y3335537D01*
X43669180Y3394502D01*
X43549482Y3430812D01*
X43425000Y3443072D01*
X43185750Y3440000D01*
X43027000Y3281250D01*
X42773000Y3281250D01*
X42614250Y3440000D01*
X42375000Y3443072D01*
X42250518Y3430812D01*
X42130820Y3394502D01*
X42127788Y3392881D01*
X42115812Y3514482D01*
X42079502Y3634180D01*
X42020537Y3744494D01*
X41941185Y3841185D01*
X41844494Y3920537D01*
X41734180Y3979502D01*
X41614482Y4015812D01*
X41490000Y4028072D01*
X40890000Y4028072D01*
X40890000Y4783337D01*
X40950000Y4777428D01*
X41600000Y4777428D01*
X41724482Y4789688D01*
X41844180Y4825998D01*
X41954494Y4884963D01*
X42050924Y4964101D01*
X42061423Y4857502D01*
G37*
%TD.AperFunction*%
D22*
X29361423Y4857502D02*
X29426324Y4643554D01*
X29531716Y4446377D01*
X29673551Y4273551D01*
X29846377Y4131716D01*
X30043553Y4026324D01*
X30257501Y3961423D01*
X30480000Y3939509D01*
X30702498Y3961423D01*
X30916446Y4026324D01*
X31113623Y4131716D01*
X31286449Y4273551D01*
X31428284Y4446377D01*
X31459624Y4505010D01*
X31456928Y3220000D01*
X31469188Y3095518D01*
X31505498Y2975820D01*
X31564463Y2865506D01*
X31643815Y2768815D01*
X31740506Y2689463D01*
X31850820Y2630498D01*
X31970518Y2594188D01*
X32095000Y2581928D01*
X32136928Y2582129D01*
X32136928Y1005000D01*
X32149188Y880518D01*
X32185498Y760820D01*
X32239388Y660000D01*
X31260612Y660000D01*
X31314502Y760820D01*
X31350812Y880518D01*
X31363072Y1005000D01*
X31360000Y1619250D01*
X31201250Y1778000D01*
X30327000Y1778000D01*
X30327000Y1758000D01*
X30073000Y1758000D01*
X30073000Y1778000D01*
X30053000Y1778000D01*
X30053000Y2032000D01*
X30073000Y2032000D01*
X30073000Y3281250D01*
X30327000Y3281250D01*
X30327000Y2032000D01*
X31201250Y2032000D01*
X31360000Y2190750D01*
X31363072Y2805000D01*
X31350812Y2929482D01*
X31314502Y3049180D01*
X31255537Y3159494D01*
X31176185Y3256185D01*
X31079494Y3335537D01*
X30969180Y3394502D01*
X30849482Y3430812D01*
X30725000Y3443072D01*
X30485750Y3440000D01*
X30327000Y3281250D01*
X30073000Y3281250D01*
X29914250Y3440000D01*
X29675000Y3443072D01*
X29550518Y3430812D01*
X29430820Y3394502D01*
X29320506Y3335537D01*
X29239083Y3268715D01*
X29093475Y3486632D01*
X28886632Y3693475D01*
X28643411Y3855990D01*
X28373158Y3967932D01*
X28190000Y4004365D01*
X28190000Y4783337D01*
X28250000Y4777428D01*
X28900000Y4777428D01*
X29024482Y4789688D01*
X29144180Y4825998D01*
X29254494Y4884963D01*
X29350924Y4964101D01*
X29361423Y4857502D01*
%TA.AperFunction,Conductor*%
D23*
G36*
X29361423Y4857502D02*
G01*
X29426324Y4643554D01*
X29531716Y4446377D01*
X29673551Y4273551D01*
X29846377Y4131716D01*
X30043553Y4026324D01*
X30257501Y3961423D01*
X30480000Y3939509D01*
X30702498Y3961423D01*
X30916446Y4026324D01*
X31113623Y4131716D01*
X31286449Y4273551D01*
X31428284Y4446377D01*
X31459624Y4505010D01*
X31456928Y3220000D01*
X31469188Y3095518D01*
X31505498Y2975820D01*
X31564463Y2865506D01*
X31643815Y2768815D01*
X31740506Y2689463D01*
X31850820Y2630498D01*
X31970518Y2594188D01*
X32095000Y2581928D01*
X32136928Y2582129D01*
X32136928Y1005000D01*
X32149188Y880518D01*
X32185498Y760820D01*
X32239388Y660000D01*
X31260612Y660000D01*
X31314502Y760820D01*
X31350812Y880518D01*
X31363072Y1005000D01*
X31360000Y1619250D01*
X31201250Y1778000D01*
X30327000Y1778000D01*
X30327000Y1758000D01*
X30073000Y1758000D01*
X30073000Y1778000D01*
X30053000Y1778000D01*
X30053000Y2032000D01*
X30073000Y2032000D01*
X30073000Y3281250D01*
X30327000Y3281250D01*
X30327000Y2032000D01*
X31201250Y2032000D01*
X31360000Y2190750D01*
X31363072Y2805000D01*
X31350812Y2929482D01*
X31314502Y3049180D01*
X31255537Y3159494D01*
X31176185Y3256185D01*
X31079494Y3335537D01*
X30969180Y3394502D01*
X30849482Y3430812D01*
X30725000Y3443072D01*
X30485750Y3440000D01*
X30327000Y3281250D01*
X30073000Y3281250D01*
X29914250Y3440000D01*
X29675000Y3443072D01*
X29550518Y3430812D01*
X29430820Y3394502D01*
X29320506Y3335537D01*
X29239083Y3268715D01*
X29093475Y3486632D01*
X28886632Y3693475D01*
X28643411Y3855990D01*
X28373158Y3967932D01*
X28190000Y4004365D01*
X28190000Y4783337D01*
X28250000Y4777428D01*
X28900000Y4777428D01*
X29024482Y4789688D01*
X29144180Y4825998D01*
X29254494Y4884963D01*
X29350924Y4964101D01*
X29361423Y4857502D01*
G37*
%TD.AperFunction*%
D22*
X30607000Y13527000D02*
X30627000Y13527000D01*
X30627000Y13273000D01*
X30607000Y13273000D01*
X30607000Y13253000D01*
X30353000Y13253000D01*
X30353000Y13273000D01*
X30333000Y13273000D01*
X30333000Y13527000D01*
X30353000Y13527000D01*
X30353000Y13547000D01*
X30607000Y13547000D01*
X30607000Y13527000D01*
%TA.AperFunction,Conductor*%
D23*
G36*
X30607000Y13527000D02*
G01*
X30627000Y13527000D01*
X30627000Y13273000D01*
X30607000Y13273000D01*
X30607000Y13253000D01*
X30353000Y13253000D01*
X30353000Y13273000D01*
X30333000Y13273000D01*
X30333000Y13527000D01*
X30353000Y13527000D01*
X30353000Y13547000D01*
X30607000Y13547000D01*
X30607000Y13527000D01*
G37*
%TD.AperFunction*%
D22*
X17907000Y13527000D02*
X17927000Y13527000D01*
X17927000Y13273000D01*
X17907000Y13273000D01*
X17907000Y13253000D01*
X17653000Y13253000D01*
X17653000Y13273000D01*
X17633000Y13273000D01*
X17633000Y13527000D01*
X17653000Y13527000D01*
X17653000Y13547000D01*
X17907000Y13547000D01*
X17907000Y13527000D01*
%TA.AperFunction,Conductor*%
D23*
G36*
X17907000Y13527000D02*
G01*
X17927000Y13527000D01*
X17927000Y13273000D01*
X17907000Y13273000D01*
X17907000Y13253000D01*
X17653000Y13253000D01*
X17653000Y13273000D01*
X17633000Y13273000D01*
X17633000Y13527000D01*
X17653000Y13527000D01*
X17653000Y13547000D01*
X17907000Y13547000D01*
X17907000Y13527000D01*
G37*
%TD.AperFunction*%
D22*
X43307000Y13527000D02*
X43327000Y13527000D01*
X43327000Y13273000D01*
X43307000Y13273000D01*
X43307000Y13253000D01*
X43053000Y13253000D01*
X43053000Y13273000D01*
X43033000Y13273000D01*
X43033000Y13527000D01*
X43053000Y13527000D01*
X43053000Y13547000D01*
X43307000Y13547000D01*
X43307000Y13527000D01*
%TA.AperFunction,Conductor*%
D23*
G36*
X43307000Y13527000D02*
G01*
X43327000Y13527000D01*
X43327000Y13273000D01*
X43307000Y13273000D01*
X43307000Y13253000D01*
X43053000Y13253000D01*
X43053000Y13273000D01*
X43033000Y13273000D01*
X43033000Y13527000D01*
X43053000Y13527000D01*
X43053000Y13547000D01*
X43307000Y13547000D01*
X43307000Y13527000D01*
G37*
%TD.AperFunction*%
%TD*%
M02*
