G04 #@! TF.GenerationSoftware,KiCad,Pcbnew,(5.1.8)-1*
G04 #@! TF.CreationDate,2021-05-15T20:45:06+09:00*
G04 #@! TF.ProjectId,test,74657374-2e6b-4696-9361-645f70636258,rev?*
G04 #@! TF.SameCoordinates,PX4c80f60PY7d04650*
G04 #@! TF.FileFunction,Profile,NP*
%FSLAX46Y46*%
G04 Gerber Fmt 4.6, Leading zero omitted, Abs format (unit mm)*
G04 Created by KiCad (PCBNEW (5.1.8)-1) date 2021-05-15 20:45:06*
%MOMM*%
%LPD*%
G01*
G04 APERTURE LIST*
G04 #@! TA.AperFunction,Profile*
%ADD10C,0.050000*%
G04 #@! TD*
G04 APERTURE END LIST*
D10*
X19780000Y38210000D02*
X19780000Y80090000D01*
X39560000Y38210000D02*
X39560000Y80090000D01*
X59340000Y38210000D02*
X59340000Y80090000D01*
X77120000Y38210000D02*
X77120000Y48090000D01*
X79120000Y24130000D02*
X79120000Y35210000D01*
X17780000Y29210000D02*
X19780000Y29210000D01*
X37560000Y29210000D02*
X39560000Y29210000D01*
X57340000Y29210000D02*
X59340000Y29210000D01*
X45560000Y29210000D02*
X51340000Y29210000D01*
X54340000Y29210000D02*
G75*
G02*
X54340000Y31210000I0J1000000D01*
G01*
X51340000Y31210000D02*
G75*
G02*
X51340000Y29210000I0J-1000000D01*
G01*
X54340000Y29210000D02*
X57340000Y29210000D01*
X51340000Y31210000D02*
X45560000Y31210000D01*
X54340000Y31210000D02*
X57340000Y31210000D01*
X39560000Y29210000D02*
X42560000Y29210000D01*
X45560000Y29210000D02*
G75*
G02*
X45560000Y31210000I0J1000000D01*
G01*
X42560000Y31210000D02*
G75*
G02*
X42560000Y29210000I0J-1000000D01*
G01*
X39560000Y31210000D02*
X42560000Y31210000D01*
X65340000Y29210000D02*
X68580000Y29210000D01*
X77120000Y31210000D02*
X65340000Y31210000D01*
X59340000Y29210000D02*
X62340000Y29210000D01*
X65340000Y29210000D02*
G75*
G02*
X65340000Y31210000I0J1000000D01*
G01*
X62340000Y31210000D02*
G75*
G02*
X62340000Y29210000I0J-1000000D01*
G01*
X59340000Y31210000D02*
X62340000Y31210000D01*
X25780000Y29210000D02*
X31560000Y29210000D01*
X34560000Y29210000D02*
G75*
G02*
X34560000Y31210000I0J1000000D01*
G01*
X31560000Y31210000D02*
G75*
G02*
X31560000Y29210000I0J-1000000D01*
G01*
X34560000Y29210000D02*
X37560000Y29210000D01*
X31560000Y31210000D02*
X25780000Y31210000D01*
X34560000Y31210000D02*
X37560000Y31210000D01*
X19780000Y29210000D02*
X22780000Y29210000D01*
X25780000Y29210000D02*
G75*
G02*
X25780000Y31210000I0J1000000D01*
G01*
X22780000Y31210000D02*
G75*
G02*
X22780000Y29210000I0J-1000000D01*
G01*
X19780000Y31210000D02*
X22780000Y31210000D01*
X14780000Y29210000D02*
X17780000Y29210000D01*
X6000000Y29210000D02*
X11780000Y29210000D01*
X11780000Y31210000D02*
X6000000Y31210000D01*
X14780000Y31210000D02*
X17780000Y31210000D01*
X11780000Y31210000D02*
G75*
G02*
X11780000Y29210000I0J-1000000D01*
G01*
X14780000Y29210000D02*
G75*
G02*
X14780000Y31210000I0J1000000D01*
G01*
X0Y29210000D02*
X3000000Y29210000D01*
X6000000Y29210000D02*
G75*
G02*
X6000000Y31210000I0J1000000D01*
G01*
X3000000Y31210000D02*
G75*
G02*
X3000000Y29210000I0J-1000000D01*
G01*
X0Y31210000D02*
X3000000Y31210000D01*
X79120000Y80090000D02*
X79120000Y63610000D01*
X77120000Y63610000D02*
X77120000Y80090000D01*
X79120000Y63610000D02*
G75*
G02*
X77120000Y63610000I-1000000J0D01*
G01*
X77120000Y51090000D02*
X77120000Y60610000D01*
X77120000Y60610000D02*
G75*
G02*
X79120000Y60610000I1000000J0D01*
G01*
X79120000Y56610000D02*
X79120000Y60610000D01*
X89900000Y56610000D02*
X79120000Y56610000D01*
X79120000Y54610000D02*
X89900000Y54610000D01*
X79120000Y51090000D02*
X79120000Y54610000D01*
X89900000Y56610000D02*
G75*
G02*
X89900000Y54610000I0J-1000000D01*
G01*
X92900000Y56610000D02*
X96900000Y56610000D01*
X92900000Y54610000D02*
G75*
G02*
X92900000Y56610000I0J1000000D01*
G01*
X96900000Y54610000D02*
X92900000Y54610000D01*
X79120000Y38210000D02*
X79120000Y48090000D01*
X77120000Y48090000D02*
G75*
G02*
X79120000Y48090000I1000000J0D01*
G01*
X79120000Y51090000D02*
G75*
G02*
X77120000Y51090000I-1000000J0D01*
G01*
X79120000Y83090000D02*
X79120000Y87090000D01*
X77120000Y31210000D02*
X77120000Y35210000D01*
X77120000Y35210000D02*
G75*
G02*
X79120000Y35210000I1000000J0D01*
G01*
X77120000Y80090000D02*
G75*
G02*
X79120000Y80090000I1000000J0D01*
G01*
X79120000Y38210000D02*
G75*
G02*
X77120000Y38210000I-1000000J0D01*
G01*
X79120000Y83090000D02*
G75*
G02*
X77120000Y83090000I-1000000J0D01*
G01*
X77120000Y87090000D02*
X77120000Y83090000D01*
X59340000Y35210000D02*
X59340000Y31210000D01*
X59340000Y83090000D02*
X59340000Y87090000D01*
X57340000Y31210000D02*
X57340000Y35210000D01*
X57340000Y35210000D02*
G75*
G02*
X59340000Y35210000I1000000J0D01*
G01*
X57340000Y38210000D02*
X57340000Y80090000D01*
X57340000Y80090000D02*
G75*
G02*
X59340000Y80090000I1000000J0D01*
G01*
X59340000Y38210000D02*
G75*
G02*
X57340000Y38210000I-1000000J0D01*
G01*
X59340000Y83090000D02*
G75*
G02*
X57340000Y83090000I-1000000J0D01*
G01*
X57340000Y87090000D02*
X57340000Y83090000D01*
X39560000Y35210000D02*
X39560000Y31210000D01*
X39560000Y83090000D02*
X39560000Y87090000D01*
X37560000Y31210000D02*
X37560000Y35210000D01*
X37560000Y35210000D02*
G75*
G02*
X39560000Y35210000I1000000J0D01*
G01*
X37560000Y38210000D02*
X37560000Y80090000D01*
X37560000Y80090000D02*
G75*
G02*
X39560000Y80090000I1000000J0D01*
G01*
X39560000Y38210000D02*
G75*
G02*
X37560000Y38210000I-1000000J0D01*
G01*
X39560000Y83090000D02*
G75*
G02*
X37560000Y83090000I-1000000J0D01*
G01*
X37560000Y87090000D02*
X37560000Y83090000D01*
X17780000Y38210000D02*
X17780000Y80090000D01*
X17780000Y80090000D02*
G75*
G02*
X19780000Y80090000I1000000J0D01*
G01*
X19780000Y38210000D02*
G75*
G02*
X17780000Y38210000I-1000000J0D01*
G01*
X19780000Y35210000D02*
X19780000Y31210000D01*
X17780000Y35210000D02*
G75*
G02*
X19780000Y35210000I1000000J0D01*
G01*
X17780000Y31210000D02*
X17780000Y35210000D01*
X19780000Y83090000D02*
X19780000Y87090000D01*
X19780000Y83090000D02*
G75*
G02*
X17780000Y83090000I-1000000J0D01*
G01*
X17780000Y87090000D02*
X17780000Y83090000D01*
X0Y29210000D02*
X0Y0D01*
X0Y0D02*
X68580000Y0D01*
X68580000Y0D02*
X68580000Y29210000D01*
X96900000Y54610000D02*
X96900000Y24130000D01*
X96900000Y24130000D02*
X79120000Y24130000D01*
X96900000Y87090000D02*
X79120000Y87090000D01*
X96900000Y87090000D02*
X96900000Y56610000D01*
X59340000Y87090000D02*
X77120000Y87090000D01*
X39560000Y87090000D02*
X57340000Y87090000D01*
X19780000Y87090000D02*
X37560000Y87090000D01*
X0Y87090000D02*
X17780000Y87090000D01*
X0Y31210000D02*
X0Y87090000D01*
M02*
