M48
; DRILL file {KiCad (5.1.8)-1} date 05/15/21 20:45:10
; FORMAT={-:-/ absolute / metric / decimal}
; #@! TF.CreationDate,2021-05-15T20:45:10+09:00
; #@! TF.GenerationSoftware,Kicad,Pcbnew,(5.1.8)-1
FMAT,2
METRIC
T1C0.400
T2C0.690
T3C1.000
%
G90
G05
T1
X1.905Y80.74
X1.905Y68.04
X1.905Y55.34
X1.905Y42.64
X5.08Y69.31
X5.08Y56.61
X5.08Y43.91
X7.62Y82.01
X7.62Y76.93
X7.62Y64.23
X7.62Y51.53
X7.62Y38.83
X8.255Y75.66
X8.255Y62.96
X8.255Y50.26
X9.525Y71.215
X9.525Y69.31
X9.525Y58.515
X9.525Y56.61
X9.525Y45.815
X9.525Y43.91
X9.525Y33.115
X10.754Y74.106
X10.754Y61.406
X10.754Y48.706
X10.754Y36.006
X10.795Y76.93
X10.795Y64.23
X10.795Y51.53
X10.795Y38.83
X12.7Y80.74
X12.7Y68.04
X12.7Y55.34
X12.7Y42.64
X13.335Y71.215
X13.335Y58.515
X13.335Y45.815
X13.335Y33.115
X14.605Y76.295
X14.605Y63.595
X14.605Y50.895
X14.605Y38.195
X15.24Y79.47
X15.24Y66.77
X15.24Y54.07
X15.24Y41.37
X20.31Y15.45
X20.955Y13.97
X21.685Y80.74
X21.685Y68.04
X21.685Y55.34
X21.685Y42.64
X24.86Y69.31
X24.86Y56.61
X24.86Y43.91
X25.546Y23.108
X27.4Y82.01
X27.4Y76.93
X27.4Y64.23
X27.4Y51.53
X27.4Y38.83
X28.035Y75.66
X28.035Y62.96
X28.035Y50.26
X28.708Y23.817
X29.305Y71.215
X29.305Y69.31
X29.305Y58.515
X29.305Y56.61
X29.305Y45.815
X29.305Y43.91
X29.305Y33.115
X30.534Y74.106
X30.534Y61.406
X30.534Y48.706
X30.534Y36.006
X30.575Y76.93
X30.575Y64.23
X30.575Y51.53
X30.575Y38.83
X32.48Y80.74
X32.48Y68.04
X32.48Y55.34
X32.48Y42.64
X32.979Y13.188
X33.115Y71.215
X33.115Y58.515
X33.115Y45.815
X33.115Y33.115
X34.385Y76.295
X34.385Y63.595
X34.385Y50.895
X34.385Y38.195
X35.02Y79.47
X35.02Y66.77
X35.02Y54.07
X35.02Y41.37
X35.734Y12.521
X40.314Y14.386
X40.83Y85.82
X40.83Y67.405
X40.83Y49.625
X40.977Y11.166
X42.735Y84.55
X43.687Y23.268
X45.275Y66.77
X45.275Y48.99
X46.545Y74.39
X46.545Y73.12
X46.545Y71.85
X46.545Y56.61
X46.545Y55.34
X46.545Y54.07
X46.545Y38.83
X46.545Y37.56
X46.545Y36.29
X47.815Y66.77
X48.45Y81.375
X48.45Y78.835
X48.45Y63.595
X48.45Y61.055
X48.45Y45.815
X48.45Y43.275
X49.72Y49.625
X49.72Y32.48
X50.978Y13.21
X53.53Y66.77
X53.53Y48.99
X55.435Y81.375
X55.435Y66.77
X55.435Y63.595
X55.435Y48.99
X55.435Y45.815
X56.07Y32.48
X60.61Y85.82
X60.61Y67.405
X60.61Y49.625
X62.515Y84.55
X65.055Y66.77
X65.055Y48.99
X66.325Y74.39
X66.325Y73.12
X66.325Y71.85
X66.325Y56.61
X66.325Y55.34
X66.325Y54.07
X66.325Y38.83
X66.325Y37.56
X66.325Y36.29
X67.595Y66.77
X68.23Y81.375
X68.23Y78.835
X68.23Y63.595
X68.23Y61.055
X68.23Y45.815
X68.23Y43.275
X69.5Y49.625
X69.5Y32.48
X73.31Y66.77
X73.31Y48.99
X75.215Y81.375
X75.215Y66.77
X75.215Y63.595
X75.215Y48.99
X75.215Y45.815
X75.85Y32.48
X81.66Y84.55
X81.66Y52.07
X83.438Y76.93
X83.438Y44.45
X84.2Y84.55
X84.2Y52.07
X85.47Y57.88
X85.47Y25.4
X86.74Y72.358
X86.74Y39.878
X86.994Y74.136
X86.994Y41.656
X88.01Y57.88
X88.01Y25.4
X90.55Y82.01
X90.55Y49.53
X91.82Y73.12
X91.82Y69.31
X91.82Y40.64
X91.82Y36.83
X92.074Y63.976
X92.074Y31.496
T2
X46.99Y25.045
X49.53Y22.505
X52.07Y25.045
X46.99Y11.71
X49.53Y9.17
X52.07Y11.71
X8.89Y4.09
X11.43Y1.55
X13.97Y4.09
X31.75Y25.045
X34.29Y22.505
X36.83Y25.045
X1.27Y25.045
X3.81Y22.505
X6.35Y25.045
X46.99Y4.09
X49.53Y1.55
X52.07Y4.09
X84.2Y60.648
X86.74Y63.188
X89.28Y60.648
X24.13Y25.045
X26.67Y22.505
X29.21Y25.045
X84.2Y28.168
X86.74Y30.708
X89.28Y28.168
X39.37Y4.09
X41.91Y1.55
X44.45Y4.09
X16.51Y25.045
X19.05Y22.505
X21.59Y25.045
X31.75Y4.09
X34.29Y1.55
X36.83Y4.09
X24.13Y11.71
X26.67Y9.17
X29.21Y11.71
X54.61Y11.71
X57.15Y9.17
X59.69Y11.71
X62.23Y11.71
X64.77Y9.17
X67.31Y11.71
X39.37Y25.045
X41.91Y22.505
X44.45Y25.045
X8.89Y11.71
X11.43Y9.17
X13.97Y11.71
X16.51Y4.09
X19.05Y1.55
X21.59Y4.09
X16.51Y11.71
X19.05Y9.17
X21.59Y11.71
X1.27Y11.71
X3.81Y9.17
X6.35Y11.71
X54.61Y25.045
X57.15Y22.505
X59.69Y25.045
X31.75Y11.71
X34.29Y9.17
X36.83Y11.71
X24.13Y4.09
X26.67Y1.55
X29.21Y4.09
X39.37Y11.71
X41.91Y9.17
X44.45Y11.71
X54.61Y4.09
X57.15Y1.55
X59.69Y4.09
X62.23Y25.045
X64.77Y22.505
X67.31Y25.045
X8.89Y25.045
X11.43Y22.505
X13.97Y25.045
T3
X49.72Y84.55
X52.26Y84.55
X54.8Y84.55
X15.24Y74.39
X15.24Y71.85
X15.24Y48.99
X15.24Y46.45
X29.94Y84.55
X32.48Y84.55
X35.02Y84.55
X74.58Y54.07
X74.58Y51.53
X61.88Y56.61
X61.88Y54.07
X61.88Y51.53
X2.54Y17.145
X5.08Y17.145
X7.62Y17.145
X10.16Y17.145
X12.7Y17.145
X15.24Y17.145
X17.78Y17.145
X20.32Y17.145
X22.86Y17.145
X25.4Y17.145
X27.94Y17.145
X30.48Y17.145
X33.02Y17.145
X35.56Y17.145
X38.1Y17.145
X40.64Y17.145
X43.18Y17.145
X45.72Y17.145
X48.26Y17.145
X50.8Y17.145
X53.34Y17.145
X55.88Y17.145
X58.42Y17.145
X60.96Y17.145
X63.5Y17.145
X35.02Y74.39
X35.02Y71.85
X94.36Y52.07
X94.36Y49.53
X15.24Y36.29
X15.24Y33.75
X22.32Y36.29
X22.32Y33.75
X35.02Y61.69
X35.02Y59.15
X61.88Y74.39
X61.88Y71.85
X61.88Y69.31
X15.24Y61.69
X15.24Y59.15
X61.88Y38.83
X61.88Y36.29
X61.88Y33.75
X35.02Y36.29
X35.02Y33.75
X42.1Y64.23
X42.1Y61.69
X42.1Y59.15
X22.32Y48.99
X22.32Y46.45
X42.1Y38.83
X42.1Y36.29
X42.1Y33.75
X94.36Y84.55
X94.36Y82.01
X66.04Y19.685
X66.04Y17.145
X2.54Y48.99
X2.54Y46.45
X2.54Y36.29
X2.54Y33.75
X22.32Y61.69
X22.32Y59.15
X61.88Y82.01
X61.88Y79.47
X61.88Y76.93
X61.88Y64.23
X61.88Y61.69
X61.88Y59.15
X54.8Y54.07
X54.8Y51.53
X74.58Y71.85
X74.58Y69.31
X42.1Y74.39
X42.1Y71.85
X42.1Y69.31
X2.54Y74.39
X2.54Y71.85
X2.54Y61.69
X2.54Y59.15
X2.54Y19.685
X5.08Y19.685
X7.62Y19.685
X10.16Y19.685
X12.7Y19.685
X15.24Y19.685
X17.78Y19.685
X20.32Y19.685
X22.86Y19.685
X25.4Y19.685
X27.94Y19.685
X30.48Y19.685
X33.02Y19.685
X35.56Y19.685
X38.1Y19.685
X40.64Y19.685
X43.18Y19.685
X45.72Y19.685
X48.26Y19.685
X50.8Y19.685
X53.34Y19.685
X55.88Y19.685
X58.42Y19.685
X60.96Y19.685
X63.5Y19.685
X54.8Y76.93
X54.8Y74.39
X61.88Y46.45
X61.88Y43.91
X61.88Y41.37
X74.58Y76.93
X74.58Y74.39
X81.66Y34.29
X81.66Y31.75
X81.66Y29.21
X81.66Y26.67
X35.02Y48.99
X35.02Y46.45
X42.1Y82.01
X42.1Y79.47
X42.1Y76.93
X83.565Y47.625
X86.105Y47.625
X88.645Y47.625
X42.1Y46.45
X42.1Y43.91
X42.1Y41.37
X54.8Y71.85
X54.8Y69.31
X74.58Y59.15
X74.58Y56.61
X22.32Y74.39
X22.32Y71.85
X69.5Y84.55
X72.04Y84.55
X74.58Y84.55
X81.66Y66.77
X81.66Y64.23
X81.66Y61.69
X81.66Y59.15
X42.1Y56.61
X42.1Y54.07
X42.1Y51.53
X54.8Y59.15
X54.8Y56.61
X54.8Y41.37
X54.8Y38.83
X10.16Y84.55
X12.7Y84.55
X15.24Y84.55
X74.58Y36.29
X74.58Y33.75
X74.58Y41.37
X74.58Y38.83
X83.565Y80.105
X86.105Y80.105
X88.645Y80.105
X54.8Y36.29
X54.8Y33.75
T0
M30
