G04 #@! TF.GenerationSoftware,KiCad,Pcbnew,(5.1.8)-1*
G04 #@! TF.CreationDate,2021-05-15T20:45:05+09:00*
G04 #@! TF.ProjectId,test,74657374-2e6b-4696-9361-645f70636258,rev?*
G04 #@! TF.SameCoordinates,PX4c80f60PY7d04650*
G04 #@! TF.FileFunction,Soldermask,Bot*
G04 #@! TF.FilePolarity,Negative*
%FSLAX46Y46*%
G04 Gerber Fmt 4.6, Leading zero omitted, Abs format (unit mm)*
G04 Created by KiCad (PCBNEW (5.1.8)-1) date 2021-05-15 20:45:05*
%MOMM*%
%LPD*%
G01*
G04 APERTURE LIST*
%ADD10C,1.120000*%
%ADD11R,1.700000X1.700000*%
%ADD12C,1.700000*%
%ADD13O,1.700000X1.700000*%
%ADD14O,1.500000X2.300000*%
%ADD15R,1.500000X2.300000*%
G04 APERTURE END LIST*
D10*
X52070000Y25045000D03*
X49530000Y22505000D03*
X46990000Y25045000D03*
X62230000Y11710000D03*
X64770000Y9170000D03*
X67310000Y11710000D03*
X36830000Y25045000D03*
X34290000Y22505000D03*
X31750000Y25045000D03*
X21590000Y25045000D03*
X19050000Y22505000D03*
X16510000Y25045000D03*
D11*
X66040000Y17145000D03*
X66040000Y19685000D03*
D12*
X63500000Y19685000D03*
D13*
X60960000Y19685000D03*
X58420000Y19685000D03*
X55880000Y19685000D03*
X53340000Y19685000D03*
X50800000Y19685000D03*
X48260000Y19685000D03*
X45720000Y19685000D03*
X43180000Y19685000D03*
X40640000Y19685000D03*
X38100000Y19685000D03*
X35560000Y19685000D03*
X33020000Y19685000D03*
X30480000Y19685000D03*
X27940000Y19685000D03*
X25400000Y19685000D03*
X22860000Y19685000D03*
X20320000Y19685000D03*
X17780000Y19685000D03*
X15240000Y19685000D03*
X12700000Y19685000D03*
X10160000Y19685000D03*
X7620000Y19685000D03*
X5080000Y19685000D03*
X2540000Y19685000D03*
D10*
X1270000Y25045000D03*
X3810000Y22505000D03*
X6350000Y25045000D03*
D13*
X2540000Y17145000D03*
X5080000Y17145000D03*
X7620000Y17145000D03*
X10160000Y17145000D03*
X12700000Y17145000D03*
X15240000Y17145000D03*
X17780000Y17145000D03*
X20320000Y17145000D03*
X22860000Y17145000D03*
X25400000Y17145000D03*
X27940000Y17145000D03*
X30480000Y17145000D03*
X33020000Y17145000D03*
X35560000Y17145000D03*
X38100000Y17145000D03*
X40640000Y17145000D03*
X43180000Y17145000D03*
X45720000Y17145000D03*
X48260000Y17145000D03*
X50800000Y17145000D03*
X53340000Y17145000D03*
X55880000Y17145000D03*
X58420000Y17145000D03*
X60960000Y17145000D03*
D12*
X63500000Y17145000D03*
D10*
X54610000Y25045000D03*
X57150000Y22505000D03*
X59690000Y25045000D03*
X39370000Y25045000D03*
X41910000Y22505000D03*
X44450000Y25045000D03*
X24130000Y25045000D03*
X26670000Y22505000D03*
X29210000Y25045000D03*
X8890000Y25045000D03*
X11430000Y22505000D03*
X13970000Y25045000D03*
X31750000Y4090000D03*
X34290000Y1550000D03*
X36830000Y4090000D03*
X29210000Y4090000D03*
X26670000Y1550000D03*
X24130000Y4090000D03*
X16510000Y11710000D03*
X19050000Y9170000D03*
X21590000Y11710000D03*
X1270000Y11710000D03*
X3810000Y9170000D03*
X6350000Y11710000D03*
X59690000Y4090000D03*
X57150000Y1550000D03*
X54610000Y4090000D03*
X13970000Y4090000D03*
X11430000Y1550000D03*
X8890000Y4090000D03*
X44450000Y11710000D03*
X41910000Y9170000D03*
X39370000Y11710000D03*
X46990000Y11710000D03*
X49530000Y9170000D03*
X52070000Y11710000D03*
X13970000Y11710000D03*
X11430000Y9170000D03*
X8890000Y11710000D03*
X46990000Y4090000D03*
X49530000Y1550000D03*
X52070000Y4090000D03*
X44450000Y4090000D03*
X41910000Y1550000D03*
X39370000Y4090000D03*
X29210000Y11710000D03*
X26670000Y9170000D03*
X24130000Y11710000D03*
X31750000Y11710000D03*
X34290000Y9170000D03*
X36830000Y11710000D03*
X59690000Y11710000D03*
X57150000Y9170000D03*
X54610000Y11710000D03*
X16510000Y4090000D03*
X19050000Y1550000D03*
X21590000Y4090000D03*
X67310000Y25045000D03*
X64770000Y22505000D03*
X62230000Y25045000D03*
D13*
X81660000Y34290000D03*
X81660000Y31750000D03*
X81660000Y29210000D03*
D11*
X81660000Y26670000D03*
D10*
X89280000Y28168000D03*
X86740000Y30708000D03*
X84200000Y28168000D03*
D14*
X88645000Y47625000D03*
X86105000Y47625000D03*
D15*
X83565000Y47625000D03*
D13*
X94360000Y49530000D03*
D11*
X94360000Y52070000D03*
D13*
X81660000Y66770000D03*
X81660000Y64230000D03*
X81660000Y61690000D03*
D11*
X81660000Y59150000D03*
D10*
X89280000Y60648000D03*
X86740000Y63188000D03*
X84200000Y60648000D03*
D14*
X88645000Y80105000D03*
X86105000Y80105000D03*
D15*
X83565000Y80105000D03*
D13*
X94360000Y82010000D03*
D11*
X94360000Y84550000D03*
D13*
X74580000Y33750000D03*
D12*
X74580000Y36290000D03*
D13*
X74580000Y51530000D03*
D12*
X74580000Y54070000D03*
D13*
X61880000Y74390000D03*
X61880000Y71850000D03*
D12*
X61880000Y69310000D03*
D13*
X61880000Y82010000D03*
X61880000Y79470000D03*
D12*
X61880000Y76930000D03*
D13*
X74580000Y74390000D03*
D12*
X74580000Y76930000D03*
D13*
X69500000Y84550000D03*
X72040000Y84550000D03*
D11*
X74580000Y84550000D03*
D12*
X74580000Y41370000D03*
D13*
X74580000Y38830000D03*
X61880000Y46450000D03*
X61880000Y43910000D03*
D12*
X61880000Y41370000D03*
X61880000Y51530000D03*
D13*
X61880000Y54070000D03*
X61880000Y56610000D03*
X74580000Y56610000D03*
D12*
X74580000Y59150000D03*
X61880000Y33750000D03*
D13*
X61880000Y36290000D03*
X61880000Y38830000D03*
D12*
X61880000Y59150000D03*
D13*
X61880000Y61690000D03*
X61880000Y64230000D03*
D12*
X74580000Y71850000D03*
D13*
X74580000Y69310000D03*
X54800000Y33750000D03*
D12*
X54800000Y36290000D03*
D13*
X54800000Y51530000D03*
D12*
X54800000Y54070000D03*
D13*
X42100000Y74390000D03*
X42100000Y71850000D03*
D12*
X42100000Y69310000D03*
D13*
X42100000Y82010000D03*
X42100000Y79470000D03*
D12*
X42100000Y76930000D03*
D13*
X54800000Y74390000D03*
D12*
X54800000Y76930000D03*
D13*
X49720000Y84550000D03*
X52260000Y84550000D03*
D11*
X54800000Y84550000D03*
D12*
X54800000Y41370000D03*
D13*
X54800000Y38830000D03*
X42100000Y46450000D03*
X42100000Y43910000D03*
D12*
X42100000Y41370000D03*
X42100000Y51530000D03*
D13*
X42100000Y54070000D03*
X42100000Y56610000D03*
X54800000Y56610000D03*
D12*
X54800000Y59150000D03*
X42100000Y33750000D03*
D13*
X42100000Y36290000D03*
X42100000Y38830000D03*
D12*
X42100000Y59150000D03*
D13*
X42100000Y61690000D03*
X42100000Y64230000D03*
D12*
X54800000Y71850000D03*
D13*
X54800000Y69310000D03*
D12*
X35020000Y74390000D03*
D13*
X35020000Y71850000D03*
D11*
X35020000Y84550000D03*
D13*
X32480000Y84550000D03*
X29940000Y84550000D03*
D12*
X35020000Y48990000D03*
D13*
X35020000Y46450000D03*
X35020000Y33750000D03*
D12*
X35020000Y36290000D03*
D11*
X22320000Y46450000D03*
D13*
X22320000Y48990000D03*
D12*
X22320000Y71850000D03*
D13*
X22320000Y74390000D03*
X22320000Y36290000D03*
D12*
X22320000Y33750000D03*
D13*
X22320000Y61690000D03*
D12*
X22320000Y59150000D03*
D13*
X35020000Y59150000D03*
D12*
X35020000Y61690000D03*
D13*
X10160000Y84550000D03*
X12700000Y84550000D03*
D11*
X15240000Y84550000D03*
D13*
X15240000Y71850000D03*
D12*
X15240000Y74390000D03*
D13*
X15240000Y46450000D03*
D12*
X15240000Y48990000D03*
X15240000Y36290000D03*
D13*
X15240000Y33750000D03*
D12*
X2540000Y33750000D03*
D13*
X2540000Y36290000D03*
X2540000Y48990000D03*
D11*
X2540000Y46450000D03*
D12*
X2540000Y59150000D03*
D13*
X2540000Y61690000D03*
D12*
X15240000Y61690000D03*
D13*
X15240000Y59150000D03*
X2540000Y74390000D03*
D12*
X2540000Y71850000D03*
M02*
