G04 #@! TF.GenerationSoftware,KiCad,Pcbnew,(5.1.8)-1*
G04 #@! TF.CreationDate,2021-05-15T20:45:05+09:00*
G04 #@! TF.ProjectId,test,74657374-2e6b-4696-9361-645f70636258,rev?*
G04 #@! TF.SameCoordinates,PX4c80f60PY7d04650*
G04 #@! TF.FileFunction,Legend,Bot*
G04 #@! TF.FilePolarity,Positive*
%FSLAX46Y46*%
G04 Gerber Fmt 4.6, Leading zero omitted, Abs format (unit mm)*
G04 Created by KiCad (PCBNEW (5.1.8)-1) date 2021-05-15 20:45:05*
%MOMM*%
%LPD*%
G01*
G04 APERTURE LIST*
%ADD10C,0.120000*%
%ADD11C,0.150000*%
%ADD12C,1.120000*%
%ADD13R,1.700000X1.700000*%
%ADD14C,1.700000*%
%ADD15O,1.700000X1.700000*%
%ADD16O,1.500000X2.300000*%
%ADD17R,1.500000X2.300000*%
G04 APERTURE END LIST*
D10*
X64770000Y20955000D02*
X64770000Y15875000D01*
X1270000Y18415000D02*
X64770000Y18415000D01*
X67310000Y15875000D02*
X67310000Y20955000D01*
X1270000Y15875000D02*
X67310000Y15875000D01*
X67310000Y20955000D02*
X1270000Y20955000D01*
X1270000Y20955000D02*
X1270000Y15875000D01*
D11*
X91946904Y50030000D02*
X92042142Y50077620D01*
X92185000Y50077620D01*
X92327857Y50030000D01*
X92423095Y49934762D01*
X92470714Y49839524D01*
X92518333Y49649048D01*
X92518333Y49506191D01*
X92470714Y49315715D01*
X92423095Y49220477D01*
X92327857Y49125239D01*
X92185000Y49077620D01*
X92089761Y49077620D01*
X91946904Y49125239D01*
X91899285Y49172858D01*
X91899285Y49506191D01*
X92089761Y49506191D01*
X91470714Y49077620D02*
X91470714Y50077620D01*
X90899285Y49077620D01*
X90899285Y50077620D01*
X90423095Y49077620D02*
X90423095Y50077620D01*
X90185000Y50077620D01*
X90042142Y50030000D01*
X89946904Y49934762D01*
X89899285Y49839524D01*
X89851666Y49649048D01*
X89851666Y49506191D01*
X89899285Y49315715D01*
X89946904Y49220477D01*
X90042142Y49125239D01*
X90185000Y49077620D01*
X90423095Y49077620D01*
X85596904Y34790000D02*
X85692142Y34837620D01*
X85835000Y34837620D01*
X85977857Y34790000D01*
X86073095Y34694762D01*
X86120714Y34599524D01*
X86168333Y34409048D01*
X86168333Y34266191D01*
X86120714Y34075715D01*
X86073095Y33980477D01*
X85977857Y33885239D01*
X85835000Y33837620D01*
X85739761Y33837620D01*
X85596904Y33885239D01*
X85549285Y33932858D01*
X85549285Y34266191D01*
X85739761Y34266191D01*
X85120714Y33837620D02*
X85120714Y34837620D01*
X84549285Y33837620D01*
X84549285Y34837620D01*
X84073095Y33837620D02*
X84073095Y34837620D01*
X83835000Y34837620D01*
X83692142Y34790000D01*
X83596904Y34694762D01*
X83549285Y34599524D01*
X83501666Y34409048D01*
X83501666Y34266191D01*
X83549285Y34075715D01*
X83596904Y33980477D01*
X83692142Y33885239D01*
X83835000Y33837620D01*
X84073095Y33837620D01*
X86596904Y27217620D02*
X86263571Y26217620D01*
X85930238Y27217620D01*
X85406428Y27217620D02*
X85215952Y27217620D01*
X85120714Y27170000D01*
X85025476Y27074762D01*
X84977857Y26884286D01*
X84977857Y26550953D01*
X85025476Y26360477D01*
X85120714Y26265239D01*
X85215952Y26217620D01*
X85406428Y26217620D01*
X85501666Y26265239D01*
X85596904Y26360477D01*
X85644523Y26550953D01*
X85644523Y26884286D01*
X85596904Y27074762D01*
X85501666Y27170000D01*
X85406428Y27217620D01*
X84549285Y27217620D02*
X84549285Y26408096D01*
X84501666Y26312858D01*
X84454047Y26265239D01*
X84358809Y26217620D01*
X84168333Y26217620D01*
X84073095Y26265239D01*
X84025476Y26312858D01*
X83977857Y26408096D01*
X83977857Y27217620D01*
X83644523Y27217620D02*
X83073095Y27217620D01*
X83358809Y26217620D02*
X83358809Y27217620D01*
X86311190Y32297620D02*
X85692142Y32297620D01*
X86025476Y31916667D01*
X85882619Y31916667D01*
X85787380Y31869048D01*
X85739761Y31821429D01*
X85692142Y31726191D01*
X85692142Y31488096D01*
X85739761Y31392858D01*
X85787380Y31345239D01*
X85882619Y31297620D01*
X86168333Y31297620D01*
X86263571Y31345239D01*
X86311190Y31392858D01*
X85263571Y31392858D02*
X85215952Y31345239D01*
X85263571Y31297620D01*
X85311190Y31345239D01*
X85263571Y31392858D01*
X85263571Y31297620D01*
X84882619Y32297620D02*
X84263571Y32297620D01*
X84596904Y31916667D01*
X84454047Y31916667D01*
X84358809Y31869048D01*
X84311190Y31821429D01*
X84263571Y31726191D01*
X84263571Y31488096D01*
X84311190Y31392858D01*
X84358809Y31345239D01*
X84454047Y31297620D01*
X84739761Y31297620D01*
X84835000Y31345239D01*
X84882619Y31392858D01*
X83977857Y32297620D02*
X83644523Y31297620D01*
X83311190Y32297620D01*
X92280238Y52617620D02*
X91946904Y51617620D01*
X91613571Y52617620D01*
X91280238Y51617620D02*
X91280238Y52617620D01*
X90804047Y51617620D02*
X90804047Y52617620D01*
X90232619Y51617620D01*
X90232619Y52617620D01*
X84390476Y29757620D02*
X84866666Y29757620D01*
X84914285Y29281429D01*
X84866666Y29329048D01*
X84771428Y29376667D01*
X84533333Y29376667D01*
X84438095Y29329048D01*
X84390476Y29281429D01*
X84342857Y29186191D01*
X84342857Y28948096D01*
X84390476Y28852858D01*
X84438095Y28805239D01*
X84533333Y28757620D01*
X84771428Y28757620D01*
X84866666Y28805239D01*
X84914285Y28852858D01*
X84057142Y29757620D02*
X83723809Y28757620D01*
X83390476Y29757620D01*
D10*
X95630000Y48260000D02*
X95630000Y53340000D01*
X80390000Y35560000D02*
X80390000Y25400000D01*
X95630000Y53340000D02*
X93090000Y53340000D01*
X82930000Y35560000D02*
X80390000Y35560000D01*
X82930000Y25400000D02*
X82930000Y35560000D01*
X93090000Y53340000D02*
X93090000Y48260000D01*
X80390000Y25400000D02*
X82930000Y25400000D01*
X93090000Y48260000D02*
X95630000Y48260000D01*
D11*
X91946904Y82510000D02*
X92042142Y82557620D01*
X92185000Y82557620D01*
X92327857Y82510000D01*
X92423095Y82414762D01*
X92470714Y82319524D01*
X92518333Y82129048D01*
X92518333Y81986191D01*
X92470714Y81795715D01*
X92423095Y81700477D01*
X92327857Y81605239D01*
X92185000Y81557620D01*
X92089761Y81557620D01*
X91946904Y81605239D01*
X91899285Y81652858D01*
X91899285Y81986191D01*
X92089761Y81986191D01*
X91470714Y81557620D02*
X91470714Y82557620D01*
X90899285Y81557620D01*
X90899285Y82557620D01*
X90423095Y81557620D02*
X90423095Y82557620D01*
X90185000Y82557620D01*
X90042142Y82510000D01*
X89946904Y82414762D01*
X89899285Y82319524D01*
X89851666Y82129048D01*
X89851666Y81986191D01*
X89899285Y81795715D01*
X89946904Y81700477D01*
X90042142Y81605239D01*
X90185000Y81557620D01*
X90423095Y81557620D01*
X85596904Y67270000D02*
X85692142Y67317620D01*
X85835000Y67317620D01*
X85977857Y67270000D01*
X86073095Y67174762D01*
X86120714Y67079524D01*
X86168333Y66889048D01*
X86168333Y66746191D01*
X86120714Y66555715D01*
X86073095Y66460477D01*
X85977857Y66365239D01*
X85835000Y66317620D01*
X85739761Y66317620D01*
X85596904Y66365239D01*
X85549285Y66412858D01*
X85549285Y66746191D01*
X85739761Y66746191D01*
X85120714Y66317620D02*
X85120714Y67317620D01*
X84549285Y66317620D01*
X84549285Y67317620D01*
X84073095Y66317620D02*
X84073095Y67317620D01*
X83835000Y67317620D01*
X83692142Y67270000D01*
X83596904Y67174762D01*
X83549285Y67079524D01*
X83501666Y66889048D01*
X83501666Y66746191D01*
X83549285Y66555715D01*
X83596904Y66460477D01*
X83692142Y66365239D01*
X83835000Y66317620D01*
X84073095Y66317620D01*
X86596904Y59697620D02*
X86263571Y58697620D01*
X85930238Y59697620D01*
X85406428Y59697620D02*
X85215952Y59697620D01*
X85120714Y59650000D01*
X85025476Y59554762D01*
X84977857Y59364286D01*
X84977857Y59030953D01*
X85025476Y58840477D01*
X85120714Y58745239D01*
X85215952Y58697620D01*
X85406428Y58697620D01*
X85501666Y58745239D01*
X85596904Y58840477D01*
X85644523Y59030953D01*
X85644523Y59364286D01*
X85596904Y59554762D01*
X85501666Y59650000D01*
X85406428Y59697620D01*
X84549285Y59697620D02*
X84549285Y58888096D01*
X84501666Y58792858D01*
X84454047Y58745239D01*
X84358809Y58697620D01*
X84168333Y58697620D01*
X84073095Y58745239D01*
X84025476Y58792858D01*
X83977857Y58888096D01*
X83977857Y59697620D01*
X83644523Y59697620D02*
X83073095Y59697620D01*
X83358809Y58697620D02*
X83358809Y59697620D01*
X86311190Y64777620D02*
X85692142Y64777620D01*
X86025476Y64396667D01*
X85882619Y64396667D01*
X85787380Y64349048D01*
X85739761Y64301429D01*
X85692142Y64206191D01*
X85692142Y63968096D01*
X85739761Y63872858D01*
X85787380Y63825239D01*
X85882619Y63777620D01*
X86168333Y63777620D01*
X86263571Y63825239D01*
X86311190Y63872858D01*
X85263571Y63872858D02*
X85215952Y63825239D01*
X85263571Y63777620D01*
X85311190Y63825239D01*
X85263571Y63872858D01*
X85263571Y63777620D01*
X84882619Y64777620D02*
X84263571Y64777620D01*
X84596904Y64396667D01*
X84454047Y64396667D01*
X84358809Y64349048D01*
X84311190Y64301429D01*
X84263571Y64206191D01*
X84263571Y63968096D01*
X84311190Y63872858D01*
X84358809Y63825239D01*
X84454047Y63777620D01*
X84739761Y63777620D01*
X84835000Y63825239D01*
X84882619Y63872858D01*
X83977857Y64777620D02*
X83644523Y63777620D01*
X83311190Y64777620D01*
X92280238Y85097620D02*
X91946904Y84097620D01*
X91613571Y85097620D01*
X91280238Y84097620D02*
X91280238Y85097620D01*
X90804047Y84097620D02*
X90804047Y85097620D01*
X90232619Y84097620D01*
X90232619Y85097620D01*
X84390476Y62237620D02*
X84866666Y62237620D01*
X84914285Y61761429D01*
X84866666Y61809048D01*
X84771428Y61856667D01*
X84533333Y61856667D01*
X84438095Y61809048D01*
X84390476Y61761429D01*
X84342857Y61666191D01*
X84342857Y61428096D01*
X84390476Y61332858D01*
X84438095Y61285239D01*
X84533333Y61237620D01*
X84771428Y61237620D01*
X84866666Y61285239D01*
X84914285Y61332858D01*
X84057142Y62237620D02*
X83723809Y61237620D01*
X83390476Y62237620D01*
D10*
X95630000Y80740000D02*
X95630000Y85820000D01*
X80390000Y68040000D02*
X80390000Y57880000D01*
X95630000Y85820000D02*
X93090000Y85820000D01*
X82930000Y68040000D02*
X80390000Y68040000D01*
X82930000Y57880000D02*
X82930000Y68040000D01*
X93090000Y85820000D02*
X93090000Y80740000D01*
X80390000Y57880000D02*
X82930000Y57880000D01*
X93090000Y80740000D02*
X95630000Y80740000D01*
X73310000Y60420000D02*
X73310000Y50260000D01*
X60610000Y50260000D02*
X63150000Y50260000D01*
X75850000Y60420000D02*
X73310000Y60420000D01*
X75850000Y83280000D02*
X75850000Y85820000D01*
X63150000Y32480000D02*
X63150000Y47720000D01*
X75850000Y50260000D02*
X75850000Y60420000D01*
X60610000Y32480000D02*
X63150000Y32480000D01*
X73310000Y68040000D02*
X75850000Y68040000D01*
X63150000Y65500000D02*
X60610000Y65500000D01*
X75850000Y42640000D02*
X73310000Y42640000D01*
X63150000Y47720000D02*
X60610000Y47720000D01*
X60610000Y83280000D02*
X63150000Y83280000D01*
X75850000Y78200000D02*
X73310000Y78200000D01*
X75850000Y32480000D02*
X75850000Y42640000D01*
X75850000Y68040000D02*
X75850000Y78200000D01*
X73310000Y50260000D02*
X75850000Y50260000D01*
X63150000Y83280000D02*
X63150000Y68040000D01*
X73310000Y32480000D02*
X75850000Y32480000D01*
X73310000Y78200000D02*
X73310000Y68040000D01*
X60610000Y47720000D02*
X60610000Y32480000D01*
X60610000Y65500000D02*
X60610000Y50260000D01*
X73310000Y42640000D02*
X73310000Y32480000D01*
X68230000Y85820000D02*
X68230000Y83280000D01*
X75850000Y85820000D02*
X68230000Y85820000D01*
X68230000Y83280000D02*
X75850000Y83280000D01*
X60610000Y68040000D02*
X60610000Y83280000D01*
X63150000Y68040000D02*
X60610000Y68040000D01*
X63150000Y50260000D02*
X63150000Y65500000D01*
X53530000Y60420000D02*
X53530000Y50260000D01*
X40830000Y50260000D02*
X43370000Y50260000D01*
X56070000Y60420000D02*
X53530000Y60420000D01*
X56070000Y83280000D02*
X56070000Y85820000D01*
X43370000Y32480000D02*
X43370000Y47720000D01*
X56070000Y50260000D02*
X56070000Y60420000D01*
X40830000Y32480000D02*
X43370000Y32480000D01*
X53530000Y68040000D02*
X56070000Y68040000D01*
X43370000Y65500000D02*
X40830000Y65500000D01*
X56070000Y42640000D02*
X53530000Y42640000D01*
X43370000Y47720000D02*
X40830000Y47720000D01*
X40830000Y83280000D02*
X43370000Y83280000D01*
X56070000Y78200000D02*
X53530000Y78200000D01*
X56070000Y32480000D02*
X56070000Y42640000D01*
X56070000Y68040000D02*
X56070000Y78200000D01*
X53530000Y50260000D02*
X56070000Y50260000D01*
X43370000Y83280000D02*
X43370000Y68040000D01*
X53530000Y32480000D02*
X56070000Y32480000D01*
X53530000Y78200000D02*
X53530000Y68040000D01*
X40830000Y47720000D02*
X40830000Y32480000D01*
X40830000Y65500000D02*
X40830000Y50260000D01*
X53530000Y42640000D02*
X53530000Y32480000D01*
X48450000Y85820000D02*
X48450000Y83280000D01*
X56070000Y85820000D02*
X48450000Y85820000D01*
X48450000Y83280000D02*
X56070000Y83280000D01*
X40830000Y68040000D02*
X40830000Y83280000D01*
X43370000Y68040000D02*
X40830000Y68040000D01*
X43370000Y50260000D02*
X43370000Y65500000D01*
X21050000Y75660000D02*
X21050000Y70580000D01*
X36290000Y37560000D02*
X33750000Y37560000D01*
X23590000Y32480000D02*
X23590000Y37560000D01*
X21050000Y32480000D02*
X23590000Y32480000D01*
X23590000Y62960000D02*
X21050000Y62960000D01*
X23590000Y57880000D02*
X23590000Y62960000D01*
X23590000Y37560000D02*
X21050000Y37560000D01*
X36290000Y45180000D02*
X36290000Y50260000D01*
X33750000Y70580000D02*
X36290000Y70580000D01*
X21050000Y70580000D02*
X23590000Y70580000D01*
X36290000Y70580000D02*
X36290000Y75660000D01*
X33750000Y32480000D02*
X36290000Y32480000D01*
X28670000Y83280000D02*
X36290000Y83280000D01*
X33750000Y62960000D02*
X33750000Y57880000D01*
X36290000Y83280000D02*
X36290000Y85820000D01*
X36290000Y62960000D02*
X33750000Y62960000D01*
X36290000Y57880000D02*
X36290000Y62960000D01*
X21050000Y57880000D02*
X23590000Y57880000D01*
X33750000Y75660000D02*
X33750000Y70580000D01*
X36290000Y85820000D02*
X28670000Y85820000D01*
X33750000Y57880000D02*
X36290000Y57880000D01*
X23590000Y45180000D02*
X23590000Y50260000D01*
X23590000Y50260000D02*
X21050000Y50260000D01*
X28670000Y85820000D02*
X28670000Y83280000D01*
X36290000Y32480000D02*
X36290000Y37560000D01*
X21050000Y45180000D02*
X23590000Y45180000D01*
X33750000Y37560000D02*
X33750000Y32480000D01*
X21050000Y62960000D02*
X21050000Y57880000D01*
X36290000Y50260000D02*
X33750000Y50260000D01*
X36290000Y75660000D02*
X33750000Y75660000D01*
X23590000Y70580000D02*
X23590000Y75660000D01*
X33750000Y45180000D02*
X36290000Y45180000D01*
X21050000Y37560000D02*
X21050000Y32480000D01*
X33750000Y50260000D02*
X33750000Y45180000D01*
X23590000Y75660000D02*
X21050000Y75660000D01*
X21050000Y50260000D02*
X21050000Y45180000D01*
X1270000Y45180000D02*
X3810000Y45180000D01*
X3810000Y45180000D02*
X3810000Y50260000D01*
X13970000Y37560000D02*
X13970000Y32480000D01*
X8890000Y85820000D02*
X8890000Y83280000D01*
X16510000Y57880000D02*
X16510000Y62960000D01*
X1270000Y62960000D02*
X1270000Y57880000D01*
X13970000Y75660000D02*
X13970000Y70580000D01*
X16510000Y85820000D02*
X8890000Y85820000D01*
X13970000Y57880000D02*
X16510000Y57880000D01*
X16510000Y32480000D02*
X16510000Y37560000D01*
X3810000Y50260000D02*
X1270000Y50260000D01*
X1270000Y57880000D02*
X3810000Y57880000D01*
X1270000Y50260000D02*
X1270000Y45180000D01*
X16510000Y50260000D02*
X13970000Y50260000D01*
X16510000Y75660000D02*
X13970000Y75660000D01*
X13970000Y45180000D02*
X16510000Y45180000D01*
X1270000Y37560000D02*
X1270000Y32480000D01*
X13970000Y50260000D02*
X13970000Y45180000D01*
X3810000Y75660000D02*
X1270000Y75660000D01*
X3810000Y70580000D02*
X3810000Y75660000D01*
X13970000Y32480000D02*
X16510000Y32480000D01*
X8890000Y83280000D02*
X16510000Y83280000D01*
X1270000Y75660000D02*
X1270000Y70580000D01*
X1270000Y70580000D02*
X3810000Y70580000D01*
X3810000Y62960000D02*
X1270000Y62960000D01*
X16510000Y45180000D02*
X16510000Y50260000D01*
X1270000Y32480000D02*
X3810000Y32480000D01*
X13970000Y70580000D02*
X16510000Y70580000D01*
X16510000Y70580000D02*
X16510000Y75660000D01*
X16510000Y37560000D02*
X13970000Y37560000D01*
X3810000Y37560000D02*
X1270000Y37560000D01*
X3810000Y32480000D02*
X3810000Y37560000D01*
X3810000Y57880000D02*
X3810000Y62960000D01*
X16510000Y83280000D02*
X16510000Y85820000D01*
X13970000Y62960000D02*
X13970000Y57880000D01*
X16510000Y62960000D02*
X13970000Y62960000D01*
%LPC*%
D12*
X52070000Y25045000D03*
X49530000Y22505000D03*
X46990000Y25045000D03*
X62230000Y11710000D03*
X64770000Y9170000D03*
X67310000Y11710000D03*
X36830000Y25045000D03*
X34290000Y22505000D03*
X31750000Y25045000D03*
X21590000Y25045000D03*
X19050000Y22505000D03*
X16510000Y25045000D03*
D13*
X66040000Y17145000D03*
X66040000Y19685000D03*
D14*
X63500000Y19685000D03*
D15*
X60960000Y19685000D03*
X58420000Y19685000D03*
X55880000Y19685000D03*
X53340000Y19685000D03*
X50800000Y19685000D03*
X48260000Y19685000D03*
X45720000Y19685000D03*
X43180000Y19685000D03*
X40640000Y19685000D03*
X38100000Y19685000D03*
X35560000Y19685000D03*
X33020000Y19685000D03*
X30480000Y19685000D03*
X27940000Y19685000D03*
X25400000Y19685000D03*
X22860000Y19685000D03*
X20320000Y19685000D03*
X17780000Y19685000D03*
X15240000Y19685000D03*
X12700000Y19685000D03*
X10160000Y19685000D03*
X7620000Y19685000D03*
X5080000Y19685000D03*
X2540000Y19685000D03*
D12*
X1270000Y25045000D03*
X3810000Y22505000D03*
X6350000Y25045000D03*
D15*
X2540000Y17145000D03*
X5080000Y17145000D03*
X7620000Y17145000D03*
X10160000Y17145000D03*
X12700000Y17145000D03*
X15240000Y17145000D03*
X17780000Y17145000D03*
X20320000Y17145000D03*
X22860000Y17145000D03*
X25400000Y17145000D03*
X27940000Y17145000D03*
X30480000Y17145000D03*
X33020000Y17145000D03*
X35560000Y17145000D03*
X38100000Y17145000D03*
X40640000Y17145000D03*
X43180000Y17145000D03*
X45720000Y17145000D03*
X48260000Y17145000D03*
X50800000Y17145000D03*
X53340000Y17145000D03*
X55880000Y17145000D03*
X58420000Y17145000D03*
X60960000Y17145000D03*
D14*
X63500000Y17145000D03*
D12*
X54610000Y25045000D03*
X57150000Y22505000D03*
X59690000Y25045000D03*
X39370000Y25045000D03*
X41910000Y22505000D03*
X44450000Y25045000D03*
X24130000Y25045000D03*
X26670000Y22505000D03*
X29210000Y25045000D03*
X8890000Y25045000D03*
X11430000Y22505000D03*
X13970000Y25045000D03*
X31750000Y4090000D03*
X34290000Y1550000D03*
X36830000Y4090000D03*
X29210000Y4090000D03*
X26670000Y1550000D03*
X24130000Y4090000D03*
X16510000Y11710000D03*
X19050000Y9170000D03*
X21590000Y11710000D03*
X1270000Y11710000D03*
X3810000Y9170000D03*
X6350000Y11710000D03*
X59690000Y4090000D03*
X57150000Y1550000D03*
X54610000Y4090000D03*
X13970000Y4090000D03*
X11430000Y1550000D03*
X8890000Y4090000D03*
X44450000Y11710000D03*
X41910000Y9170000D03*
X39370000Y11710000D03*
X46990000Y11710000D03*
X49530000Y9170000D03*
X52070000Y11710000D03*
X13970000Y11710000D03*
X11430000Y9170000D03*
X8890000Y11710000D03*
X46990000Y4090000D03*
X49530000Y1550000D03*
X52070000Y4090000D03*
X44450000Y4090000D03*
X41910000Y1550000D03*
X39370000Y4090000D03*
X29210000Y11710000D03*
X26670000Y9170000D03*
X24130000Y11710000D03*
X31750000Y11710000D03*
X34290000Y9170000D03*
X36830000Y11710000D03*
X59690000Y11710000D03*
X57150000Y9170000D03*
X54610000Y11710000D03*
X16510000Y4090000D03*
X19050000Y1550000D03*
X21590000Y4090000D03*
X67310000Y25045000D03*
X64770000Y22505000D03*
X62230000Y25045000D03*
D15*
X81660000Y34290000D03*
X81660000Y31750000D03*
X81660000Y29210000D03*
D13*
X81660000Y26670000D03*
D12*
X89280000Y28168000D03*
X86740000Y30708000D03*
X84200000Y28168000D03*
D16*
X88645000Y47625000D03*
X86105000Y47625000D03*
D17*
X83565000Y47625000D03*
D15*
X94360000Y49530000D03*
D13*
X94360000Y52070000D03*
D15*
X81660000Y66770000D03*
X81660000Y64230000D03*
X81660000Y61690000D03*
D13*
X81660000Y59150000D03*
D12*
X89280000Y60648000D03*
X86740000Y63188000D03*
X84200000Y60648000D03*
D16*
X88645000Y80105000D03*
X86105000Y80105000D03*
D17*
X83565000Y80105000D03*
D15*
X94360000Y82010000D03*
D13*
X94360000Y84550000D03*
D15*
X74580000Y33750000D03*
D14*
X74580000Y36290000D03*
D15*
X74580000Y51530000D03*
D14*
X74580000Y54070000D03*
D15*
X61880000Y74390000D03*
X61880000Y71850000D03*
D14*
X61880000Y69310000D03*
D15*
X61880000Y82010000D03*
X61880000Y79470000D03*
D14*
X61880000Y76930000D03*
D15*
X74580000Y74390000D03*
D14*
X74580000Y76930000D03*
D15*
X69500000Y84550000D03*
X72040000Y84550000D03*
D13*
X74580000Y84550000D03*
D14*
X74580000Y41370000D03*
D15*
X74580000Y38830000D03*
X61880000Y46450000D03*
X61880000Y43910000D03*
D14*
X61880000Y41370000D03*
X61880000Y51530000D03*
D15*
X61880000Y54070000D03*
X61880000Y56610000D03*
X74580000Y56610000D03*
D14*
X74580000Y59150000D03*
X61880000Y33750000D03*
D15*
X61880000Y36290000D03*
X61880000Y38830000D03*
D14*
X61880000Y59150000D03*
D15*
X61880000Y61690000D03*
X61880000Y64230000D03*
D14*
X74580000Y71850000D03*
D15*
X74580000Y69310000D03*
X54800000Y33750000D03*
D14*
X54800000Y36290000D03*
D15*
X54800000Y51530000D03*
D14*
X54800000Y54070000D03*
D15*
X42100000Y74390000D03*
X42100000Y71850000D03*
D14*
X42100000Y69310000D03*
D15*
X42100000Y82010000D03*
X42100000Y79470000D03*
D14*
X42100000Y76930000D03*
D15*
X54800000Y74390000D03*
D14*
X54800000Y76930000D03*
D15*
X49720000Y84550000D03*
X52260000Y84550000D03*
D13*
X54800000Y84550000D03*
D14*
X54800000Y41370000D03*
D15*
X54800000Y38830000D03*
X42100000Y46450000D03*
X42100000Y43910000D03*
D14*
X42100000Y41370000D03*
X42100000Y51530000D03*
D15*
X42100000Y54070000D03*
X42100000Y56610000D03*
X54800000Y56610000D03*
D14*
X54800000Y59150000D03*
X42100000Y33750000D03*
D15*
X42100000Y36290000D03*
X42100000Y38830000D03*
D14*
X42100000Y59150000D03*
D15*
X42100000Y61690000D03*
X42100000Y64230000D03*
D14*
X54800000Y71850000D03*
D15*
X54800000Y69310000D03*
D14*
X35020000Y74390000D03*
D15*
X35020000Y71850000D03*
D13*
X35020000Y84550000D03*
D15*
X32480000Y84550000D03*
X29940000Y84550000D03*
D14*
X35020000Y48990000D03*
D15*
X35020000Y46450000D03*
X35020000Y33750000D03*
D14*
X35020000Y36290000D03*
D13*
X22320000Y46450000D03*
D15*
X22320000Y48990000D03*
D14*
X22320000Y71850000D03*
D15*
X22320000Y74390000D03*
X22320000Y36290000D03*
D14*
X22320000Y33750000D03*
D15*
X22320000Y61690000D03*
D14*
X22320000Y59150000D03*
D15*
X35020000Y59150000D03*
D14*
X35020000Y61690000D03*
D15*
X10160000Y84550000D03*
X12700000Y84550000D03*
D13*
X15240000Y84550000D03*
D15*
X15240000Y71850000D03*
D14*
X15240000Y74390000D03*
D15*
X15240000Y46450000D03*
D14*
X15240000Y48990000D03*
X15240000Y36290000D03*
D15*
X15240000Y33750000D03*
D14*
X2540000Y33750000D03*
D15*
X2540000Y36290000D03*
X2540000Y48990000D03*
D13*
X2540000Y46450000D03*
D14*
X2540000Y59150000D03*
D15*
X2540000Y61690000D03*
D14*
X15240000Y61690000D03*
D15*
X15240000Y59150000D03*
X2540000Y74390000D03*
D14*
X2540000Y71850000D03*
M02*
