%TF.GenerationSoftware,KiCad,Pcbnew,(5.1.8)-1*%
%TF.CreationDate,2021-03-06T21:19:43+09:00*%
%TF.ProjectId,motor_driver_2,6d6f746f-725f-4647-9269-7665725f322e,rev?*%
%TF.SameCoordinates,PX60e4b00PY7b89fa0*%
%TF.FileFunction,Copper,L1,Top*%
%TF.FilePolarity,Positive*%
%FSLAX46Y46*%
G04 Gerber Fmt 4.6, Leading zero omitted, Abs format (unit mm)*
G04 Created by KiCad (PCBNEW (5.1.8)-1) date 2021-03-06 21:19:43*
%MOMM*%
%LPD*%
G01*
G04 APERTURE LIST*
%TA.AperFunction,ComponentPad*%
%ADD10R,1.700000X1.700000*%
%TD*%
%TA.AperFunction,ComponentPad*%
%ADD11O,1.700000X1.700000*%
%TD*%
%TA.AperFunction,ComponentPad*%
%ADD12C,1.700000*%
%TD*%
%TA.AperFunction,SMDPad,CuDef*%
%ADD13R,2.900000X1.850000*%
%TD*%
%TA.AperFunction,SMDPad,CuDef*%
%ADD14R,0.940000X0.750000*%
%TD*%
%TA.AperFunction,SMDPad,CuDef*%
%ADD15R,0.800000X0.800000*%
%TD*%
%TA.AperFunction,SMDPad,CuDef*%
%ADD16R,0.450000X1.525000*%
%TD*%
%TA.AperFunction,SMDPad,CuDef*%
%ADD17R,1.050000X1.800000*%
%TD*%
%TA.AperFunction,ViaPad*%
%ADD18C,0.800000*%
%TD*%
%TA.AperFunction,Conductor*%
%ADD19C,0.250000*%
%TD*%
%TA.AperFunction,Conductor*%
%ADD20C,0.500000*%
%TD*%
%TA.AperFunction,Conductor*%
%ADD21C,1.000000*%
%TD*%
%TA.AperFunction,Conductor*%
%ADD22C,0.254000*%
%TD*%
%TA.AperFunction,Conductor*%
%ADD23C,0.100000*%
%TD*%
G04 APERTURE END LIST*
D10*
%TO.P,J1,1*%
%TO.N,Net-(C1-Pad2)*%
X2540000Y15240000D03*
D11*
%TO.P,J1,2*%
%TO.N,Net-(C10-Pad1)*%
X2540000Y12700000D03*
%TO.P,J1,3*%
%TO.N,Net-(C1-Pad1)*%
X2540000Y10160000D03*
%TD*%
D12*
%TO.P,J2,1*%
%TO.N,Net-(IC1-Pad17)*%
X10160000Y2540000D03*
D11*
%TO.P,J2,2*%
%TO.N,Net-(IC1-Pad16)*%
X7620000Y2540000D03*
%TO.P,J2,3*%
%TO.N,Net-(IC1-Pad15)*%
X5080000Y2540000D03*
%TD*%
D12*
%TO.P,J3,1*%
%TO.N,Net-(IC1-Pad23)*%
X17780000Y2540000D03*
D11*
%TO.P,J3,2*%
%TO.N,Net-(IC1-Pad22)*%
X15240000Y2540000D03*
%TO.P,J3,3*%
%TO.N,Net-(IC1-Pad21)*%
X12700000Y2540000D03*
%TD*%
%TO.P,J4,3*%
%TO.N,Net-(IC2-Pad15)*%
X22860000Y2540000D03*
%TO.P,J4,2*%
%TO.N,Net-(IC2-Pad16)*%
X25400000Y2540000D03*
D12*
%TO.P,J4,1*%
%TO.N,Net-(IC2-Pad17)*%
X27940000Y2540000D03*
%TD*%
D11*
%TO.P,J5,3*%
%TO.N,Net-(IC2-Pad21)*%
X30480000Y2540000D03*
%TO.P,J5,2*%
%TO.N,Net-(IC2-Pad22)*%
X33020000Y2540000D03*
D12*
%TO.P,J5,1*%
%TO.N,Net-(IC2-Pad23)*%
X35560000Y2540000D03*
%TD*%
%TO.P,J6,1*%
%TO.N,Net-(IC3-Pad17)*%
X45720000Y2540000D03*
D11*
%TO.P,J6,2*%
%TO.N,Net-(IC3-Pad16)*%
X43180000Y2540000D03*
%TO.P,J6,3*%
%TO.N,Net-(IC3-Pad15)*%
X40640000Y2540000D03*
%TD*%
%TO.P,J7,3*%
%TO.N,Net-(IC3-Pad21)*%
X48260000Y2540000D03*
%TO.P,J7,2*%
%TO.N,Net-(IC3-Pad22)*%
X50800000Y2540000D03*
D12*
%TO.P,J7,1*%
%TO.N,Net-(IC3-Pad23)*%
X53340000Y2540000D03*
%TD*%
%TO.P,J13,1*%
%TO.N,Net-(IC3-Pad5)*%
X50800000Y15240000D03*
D11*
%TO.P,J13,2*%
%TO.N,Net-(IC3-Pad1)*%
X53340000Y15240000D03*
%TD*%
%TO.P,J12,2*%
%TO.N,Net-(IC3-Pad7)*%
X48260000Y15240000D03*
D12*
%TO.P,J12,1*%
%TO.N,Net-(IC3-Pad11)*%
X45720000Y15240000D03*
%TD*%
%TO.P,J11,1*%
%TO.N,Net-(IC2-Pad5)*%
X33020000Y15240000D03*
D11*
%TO.P,J11,2*%
%TO.N,Net-(IC2-Pad1)*%
X35560000Y15240000D03*
%TD*%
D12*
%TO.P,J10,1*%
%TO.N,Net-(IC2-Pad11)*%
X27940000Y15240000D03*
D11*
%TO.P,J10,2*%
%TO.N,Net-(IC2-Pad7)*%
X30480000Y15240000D03*
%TD*%
D12*
%TO.P,J8,1*%
%TO.N,Net-(IC1-Pad11)*%
X10160000Y15240000D03*
D11*
%TO.P,J8,2*%
%TO.N,Net-(IC1-Pad7)*%
X12700000Y15240000D03*
%TD*%
%TO.P,J9,2*%
%TO.N,Net-(IC1-Pad1)*%
X17780000Y15240000D03*
D12*
%TO.P,J9,1*%
%TO.N,Net-(IC1-Pad5)*%
X15240000Y15240000D03*
%TD*%
D13*
%TO.P,C1,2*%
%TO.N,Net-(C1-Pad2)*%
X8735000Y5715000D03*
%TO.P,C1,1*%
%TO.N,Net-(C1-Pad1)*%
X5235000Y5715000D03*
%TD*%
D14*
%TO.P,C2,1*%
%TO.N,Net-(C10-Pad1)*%
X4445000Y14035000D03*
%TO.P,C2,2*%
%TO.N,Net-(C1-Pad2)*%
X4445000Y12635000D03*
%TD*%
D13*
%TO.P,C3,1*%
%TO.N,Net-(C1-Pad1)*%
X23015000Y5715000D03*
%TO.P,C3,2*%
%TO.N,Net-(C1-Pad2)*%
X26515000Y5715000D03*
%TD*%
D14*
%TO.P,C4,1*%
%TO.N,Net-(C10-Pad1)*%
X22225000Y14035000D03*
%TO.P,C4,2*%
%TO.N,Net-(C1-Pad2)*%
X22225000Y12635000D03*
%TD*%
D13*
%TO.P,C5,2*%
%TO.N,Net-(C1-Pad2)*%
X44295000Y5715000D03*
%TO.P,C5,1*%
%TO.N,Net-(C1-Pad1)*%
X40795000Y5715000D03*
%TD*%
D14*
%TO.P,C6,1*%
%TO.N,Net-(C10-Pad1)*%
X40005000Y14035000D03*
%TO.P,C6,2*%
%TO.N,Net-(C1-Pad2)*%
X40005000Y12635000D03*
%TD*%
%TO.P,C7,2*%
%TO.N,Net-(C1-Pad2)*%
X4445000Y8955000D03*
%TO.P,C7,1*%
%TO.N,Net-(C1-Pad1)*%
X4445000Y7555000D03*
%TD*%
D13*
%TO.P,C8,2*%
%TO.N,Net-(C1-Pad2)*%
X8735000Y10795000D03*
%TO.P,C8,1*%
%TO.N,Net-(C10-Pad1)*%
X5235000Y10795000D03*
%TD*%
D14*
%TO.P,C9,2*%
%TO.N,Net-(C1-Pad2)*%
X22225000Y8955000D03*
%TO.P,C9,1*%
%TO.N,Net-(C1-Pad1)*%
X22225000Y7555000D03*
%TD*%
D13*
%TO.P,C10,1*%
%TO.N,Net-(C10-Pad1)*%
X23015000Y10795000D03*
%TO.P,C10,2*%
%TO.N,Net-(C1-Pad2)*%
X26515000Y10795000D03*
%TD*%
D14*
%TO.P,C11,2*%
%TO.N,Net-(C1-Pad2)*%
X40005000Y8955000D03*
%TO.P,C11,1*%
%TO.N,Net-(C1-Pad1)*%
X40005000Y7555000D03*
%TD*%
D13*
%TO.P,C12,1*%
%TO.N,Net-(C10-Pad1)*%
X40795000Y10795000D03*
%TO.P,C12,2*%
%TO.N,Net-(C1-Pad2)*%
X44295000Y10795000D03*
%TD*%
D15*
%TO.P,D1,2*%
%TO.N,Net-(C10-Pad1)*%
X6870000Y13970000D03*
%TO.P,D1,1*%
%TO.N,Net-(D1-Pad1)*%
X8370000Y13970000D03*
%TD*%
%TO.P,D2,1*%
%TO.N,Net-(D2-Pad1)*%
X26150000Y13970000D03*
%TO.P,D2,2*%
%TO.N,Net-(C10-Pad1)*%
X24650000Y13970000D03*
%TD*%
%TO.P,D3,1*%
%TO.N,Net-(D3-Pad1)*%
X43930000Y13970000D03*
%TO.P,D3,2*%
%TO.N,Net-(C10-Pad1)*%
X42430000Y13970000D03*
%TD*%
D16*
%TO.P,IC2,24*%
%TO.N,Net-(C1-Pad1)*%
X35960000Y5328000D03*
%TO.P,IC2,23*%
%TO.N,Net-(IC2-Pad23)*%
X35310000Y5328000D03*
%TO.P,IC2,22*%
%TO.N,Net-(IC2-Pad22)*%
X34660000Y5328000D03*
%TO.P,IC2,21*%
%TO.N,Net-(IC2-Pad21)*%
X34010000Y5328000D03*
%TO.P,IC2,20*%
%TO.N,Net-(C10-Pad1)*%
X33360000Y5328000D03*
%TO.P,IC2,19*%
X32710000Y5328000D03*
%TO.P,IC2,18*%
%TO.N,Net-(C1-Pad2)*%
X32060000Y5328000D03*
%TO.P,IC2,17*%
%TO.N,Net-(IC2-Pad17)*%
X31410000Y5328000D03*
%TO.P,IC2,16*%
%TO.N,Net-(IC2-Pad16)*%
X30760000Y5328000D03*
%TO.P,IC2,15*%
%TO.N,Net-(IC2-Pad15)*%
X30110000Y5328000D03*
%TO.P,IC2,14*%
%TO.N,Net-(C1-Pad1)*%
X29460000Y5328000D03*
%TO.P,IC2,13*%
X28810000Y5328000D03*
%TO.P,IC2,12*%
%TO.N,Net-(IC2-Pad11)*%
X28810000Y12452000D03*
%TO.P,IC2,11*%
X29460000Y12452000D03*
%TO.P,IC2,10*%
%TO.N,Net-(C1-Pad2)*%
X30110000Y12452000D03*
%TO.P,IC2,9*%
X30760000Y12452000D03*
%TO.P,IC2,8*%
%TO.N,Net-(IC2-Pad7)*%
X31410000Y12452000D03*
%TO.P,IC2,7*%
X32060000Y12452000D03*
%TO.P,IC2,6*%
%TO.N,Net-(IC2-Pad5)*%
X32710000Y12452000D03*
%TO.P,IC2,5*%
X33360000Y12452000D03*
%TO.P,IC2,4*%
%TO.N,Net-(C1-Pad2)*%
X34010000Y12452000D03*
%TO.P,IC2,3*%
X34660000Y12452000D03*
%TO.P,IC2,2*%
%TO.N,Net-(IC2-Pad1)*%
X35310000Y12452000D03*
%TO.P,IC2,1*%
X35960000Y12452000D03*
%TD*%
%TO.P,IC3,1*%
%TO.N,Net-(IC3-Pad1)*%
X53740000Y12452000D03*
%TO.P,IC3,2*%
X53090000Y12452000D03*
%TO.P,IC3,3*%
%TO.N,Net-(C1-Pad2)*%
X52440000Y12452000D03*
%TO.P,IC3,4*%
X51790000Y12452000D03*
%TO.P,IC3,5*%
%TO.N,Net-(IC3-Pad5)*%
X51140000Y12452000D03*
%TO.P,IC3,6*%
X50490000Y12452000D03*
%TO.P,IC3,7*%
%TO.N,Net-(IC3-Pad7)*%
X49840000Y12452000D03*
%TO.P,IC3,8*%
X49190000Y12452000D03*
%TO.P,IC3,9*%
%TO.N,Net-(C1-Pad2)*%
X48540000Y12452000D03*
%TO.P,IC3,10*%
X47890000Y12452000D03*
%TO.P,IC3,11*%
%TO.N,Net-(IC3-Pad11)*%
X47240000Y12452000D03*
%TO.P,IC3,12*%
X46590000Y12452000D03*
%TO.P,IC3,13*%
%TO.N,Net-(C1-Pad1)*%
X46590000Y5328000D03*
%TO.P,IC3,14*%
X47240000Y5328000D03*
%TO.P,IC3,15*%
%TO.N,Net-(IC3-Pad15)*%
X47890000Y5328000D03*
%TO.P,IC3,16*%
%TO.N,Net-(IC3-Pad16)*%
X48540000Y5328000D03*
%TO.P,IC3,17*%
%TO.N,Net-(IC3-Pad17)*%
X49190000Y5328000D03*
%TO.P,IC3,18*%
%TO.N,Net-(C1-Pad2)*%
X49840000Y5328000D03*
%TO.P,IC3,19*%
%TO.N,Net-(C10-Pad1)*%
X50490000Y5328000D03*
%TO.P,IC3,20*%
X51140000Y5328000D03*
%TO.P,IC3,21*%
%TO.N,Net-(IC3-Pad21)*%
X51790000Y5328000D03*
%TO.P,IC3,22*%
%TO.N,Net-(IC3-Pad22)*%
X52440000Y5328000D03*
%TO.P,IC3,23*%
%TO.N,Net-(IC3-Pad23)*%
X53090000Y5328000D03*
%TO.P,IC3,24*%
%TO.N,Net-(C1-Pad1)*%
X53740000Y5328000D03*
%TD*%
D17*
%TO.P,R1,2*%
%TO.N,Net-(C1-Pad2)*%
X4165000Y15875000D03*
%TO.P,R1,1*%
%TO.N,Net-(D1-Pad1)*%
X7265000Y15875000D03*
%TD*%
%TO.P,R2,1*%
%TO.N,Net-(D2-Pad1)*%
X25045000Y15875000D03*
%TO.P,R2,2*%
%TO.N,Net-(C1-Pad2)*%
X21945000Y15875000D03*
%TD*%
%TO.P,R3,1*%
%TO.N,Net-(D3-Pad1)*%
X42825000Y15875000D03*
%TO.P,R3,2*%
%TO.N,Net-(C1-Pad2)*%
X39725000Y15875000D03*
%TD*%
D16*
%TO.P,IC1,1*%
%TO.N,Net-(IC1-Pad1)*%
X18180000Y12452000D03*
%TO.P,IC1,2*%
X17530000Y12452000D03*
%TO.P,IC1,3*%
%TO.N,Net-(C1-Pad2)*%
X16880000Y12452000D03*
%TO.P,IC1,4*%
X16230000Y12452000D03*
%TO.P,IC1,5*%
%TO.N,Net-(IC1-Pad5)*%
X15580000Y12452000D03*
%TO.P,IC1,6*%
X14930000Y12452000D03*
%TO.P,IC1,7*%
%TO.N,Net-(IC1-Pad7)*%
X14280000Y12452000D03*
%TO.P,IC1,8*%
X13630000Y12452000D03*
%TO.P,IC1,9*%
%TO.N,Net-(C1-Pad2)*%
X12980000Y12452000D03*
%TO.P,IC1,10*%
X12330000Y12452000D03*
%TO.P,IC1,11*%
%TO.N,Net-(IC1-Pad11)*%
X11680000Y12452000D03*
%TO.P,IC1,12*%
X11030000Y12452000D03*
%TO.P,IC1,13*%
%TO.N,Net-(C1-Pad1)*%
X11030000Y5328000D03*
%TO.P,IC1,14*%
X11680000Y5328000D03*
%TO.P,IC1,15*%
%TO.N,Net-(IC1-Pad15)*%
X12330000Y5328000D03*
%TO.P,IC1,16*%
%TO.N,Net-(IC1-Pad16)*%
X12980000Y5328000D03*
%TO.P,IC1,17*%
%TO.N,Net-(IC1-Pad17)*%
X13630000Y5328000D03*
%TO.P,IC1,18*%
%TO.N,Net-(C1-Pad2)*%
X14280000Y5328000D03*
%TO.P,IC1,19*%
%TO.N,Net-(C10-Pad1)*%
X14930000Y5328000D03*
%TO.P,IC1,20*%
X15580000Y5328000D03*
%TO.P,IC1,21*%
%TO.N,Net-(IC1-Pad21)*%
X16230000Y5328000D03*
%TO.P,IC1,22*%
%TO.N,Net-(IC1-Pad22)*%
X16880000Y5328000D03*
%TO.P,IC1,23*%
%TO.N,Net-(IC1-Pad23)*%
X17530000Y5328000D03*
%TO.P,IC1,24*%
%TO.N,Net-(C1-Pad1)*%
X18180000Y5328000D03*
%TD*%
D18*
%TO.N,Net-(C1-Pad2)*%
X13970000Y6985000D03*
X31750000Y6985000D03*
X49530000Y6985000D03*
X5715000Y8890000D03*
X23495000Y8890000D03*
X41275000Y8890000D03*
X23495000Y15875000D03*
X5715000Y15875000D03*
X41275000Y15875000D03*
X38100000Y15875000D03*
X20320000Y15875000D03*
X54610000Y16510000D03*
X1270000Y1270000D03*
X2540000Y3175000D03*
X19685000Y1270000D03*
X37465000Y1270000D03*
X54610000Y10160000D03*
X37465000Y10160000D03*
X20320000Y8255000D03*
%TO.N,Net-(C1-Pad1)*%
X20320000Y5715000D03*
X38100000Y5715000D03*
%TO.N,Net-(C10-Pad1)*%
X8255000Y8890000D03*
X15240000Y6985000D03*
X20320000Y13970000D03*
X26035000Y8890000D03*
X33020000Y6985000D03*
X38100000Y13970000D03*
X43815000Y8890000D03*
X50800000Y6985000D03*
%TO.N,Net-(IC1-Pad15)*%
X12700000Y6985000D03*
%TO.N,Net-(IC2-Pad15)*%
X30480000Y6985000D03*
%TO.N,Net-(IC3-Pad15)*%
X48260000Y6985000D03*
%TD*%
D19*
%TO.N,Net-(C1-Pad2)*%
X14280000Y6675000D02*
X13970000Y6985000D01*
X14280000Y5328000D02*
X14280000Y6675000D01*
X32060000Y6675000D02*
X31750000Y6985000D01*
X32060000Y5328000D02*
X32060000Y6675000D01*
X49840000Y6675000D02*
X49530000Y6985000D01*
X49840000Y5328000D02*
X49840000Y6675000D01*
X4214002Y12635000D02*
X3009002Y11430000D01*
X4445000Y12635000D02*
X4214002Y12635000D01*
X3009002Y11430000D02*
X1270000Y11430000D01*
D20*
X7650001Y3840001D02*
X6380001Y3840001D01*
X8735000Y4925000D02*
X7650001Y3840001D01*
X8735000Y5715000D02*
X8735000Y4925000D01*
X25430001Y3840001D02*
X24160001Y3840001D01*
X26515000Y4925000D02*
X25430001Y3840001D01*
X26515000Y5715000D02*
X26515000Y4925000D01*
X43210001Y3840001D02*
X41940001Y3840001D01*
X44295000Y4925000D02*
X43210001Y3840001D01*
X44295000Y5715000D02*
X44295000Y4925000D01*
D19*
X47890000Y12452000D02*
X47890000Y11060000D01*
X47890000Y11060000D02*
X47625000Y10795000D01*
X48540000Y12452000D02*
X48540000Y11075000D01*
X48540000Y11075000D02*
X48260000Y10795000D01*
X51790000Y12452000D02*
X51790000Y11150000D01*
X51790000Y11150000D02*
X51435000Y10795000D01*
X52440000Y12452000D02*
X52440000Y11165000D01*
X52440000Y11165000D02*
X52070000Y10795000D01*
X30110000Y12452000D02*
X30110000Y11060000D01*
X30760000Y12452000D02*
X30760000Y11075000D01*
X30760000Y11075000D02*
X30480000Y10795000D01*
X34010000Y12452000D02*
X34010000Y11150000D01*
X34010000Y11150000D02*
X33655000Y10795000D01*
X34660000Y12452000D02*
X34660000Y11165000D01*
X34660000Y11165000D02*
X34290000Y10795000D01*
X12330000Y12452000D02*
X12330000Y11060000D01*
X12330000Y11060000D02*
X12065000Y10795000D01*
X12980000Y12452000D02*
X12980000Y11075000D01*
X12980000Y11075000D02*
X12700000Y10795000D01*
X16230000Y12452000D02*
X16230000Y10515000D01*
X16880000Y12452000D02*
X16880000Y10425000D01*
D21*
%TO.N,Net-(C1-Pad1)*%
X4445000Y6505000D02*
X5235000Y5715000D01*
X4445000Y7555000D02*
X4445000Y6505000D01*
X5235000Y5715000D02*
X3175000Y5715000D01*
X2540000Y6350000D02*
X2540000Y10160000D01*
X3175000Y5715000D02*
X2540000Y6350000D01*
X11419750Y6665252D02*
X11404999Y6650501D01*
X11404999Y6650501D02*
X11404999Y5328000D01*
X10530002Y7555000D02*
X11419750Y6665252D01*
X4445000Y7555000D02*
X10530002Y7555000D01*
X18455001Y6650501D02*
X18455001Y5328000D01*
X17020501Y8085001D02*
X18455001Y6650501D01*
X11060003Y8085001D02*
X17020501Y8085001D01*
X10530002Y7555000D02*
X11060003Y8085001D01*
X22225000Y6505000D02*
X23015000Y5715000D01*
X22225000Y7555000D02*
X22225000Y6505000D01*
X29184999Y6650501D02*
X29184999Y5328000D01*
X28310002Y7555000D02*
X29199750Y6665252D01*
X29199750Y6665252D02*
X29184999Y6650501D01*
X22225000Y7555000D02*
X28310002Y7555000D01*
X36235001Y6650501D02*
X36235001Y5328000D01*
X34800501Y8085001D02*
X36235001Y6650501D01*
X28840003Y8085001D02*
X34800501Y8085001D01*
X28310002Y7555000D02*
X28840003Y8085001D01*
X20320000Y5715000D02*
X23015000Y5715000D01*
X38100000Y5715000D02*
X40795000Y5715000D01*
X40005000Y6505000D02*
X40795000Y5715000D01*
X40005000Y7555000D02*
X40005000Y6505000D01*
X46964999Y6650501D02*
X46964999Y5328000D01*
X46979750Y6665252D02*
X46964999Y6650501D01*
X46090002Y7555000D02*
X46979750Y6665252D01*
X40005000Y7555000D02*
X46090002Y7555000D01*
X54015001Y6650501D02*
X54015001Y5328000D01*
X52580501Y8085001D02*
X54015001Y6650501D01*
X46620003Y8085001D02*
X52580501Y8085001D01*
X46090002Y7555000D02*
X46620003Y8085001D01*
D20*
%TO.N,Net-(C10-Pad1)*%
X3875000Y14035000D02*
X4445000Y14035000D01*
X2540000Y12700000D02*
X3875000Y14035000D01*
X7140000Y8890000D02*
X8255000Y8890000D01*
X5235000Y10795000D02*
X7140000Y8890000D01*
X15240000Y5612999D02*
X14955001Y5328000D01*
X15240000Y6985000D02*
X15240000Y5612999D01*
X15240000Y5642999D02*
X15554999Y5328000D01*
X15240000Y6985000D02*
X15240000Y5642999D01*
X6870000Y12430000D02*
X5235000Y10795000D01*
X6870000Y13970000D02*
X6870000Y12430000D01*
X22160000Y13970000D02*
X22225000Y14035000D01*
X20320000Y13970000D02*
X22160000Y13970000D01*
X33020000Y5612999D02*
X32735001Y5328000D01*
X33020000Y6985000D02*
X33020000Y5612999D01*
X33020000Y5642999D02*
X33334999Y5328000D01*
X33020000Y6985000D02*
X33020000Y5642999D01*
X24920000Y8890000D02*
X26035000Y8890000D01*
X23015000Y10795000D02*
X24920000Y8890000D01*
X39940000Y13970000D02*
X40005000Y14035000D01*
X38100000Y13970000D02*
X39940000Y13970000D01*
X40925001Y13370001D02*
X40260002Y14035000D01*
X40260002Y14035000D02*
X40005000Y14035000D01*
X40925001Y10925001D02*
X40925001Y13370001D01*
X40795000Y10795000D02*
X40925001Y10925001D01*
X42430000Y12430000D02*
X42430000Y13970000D01*
X40795000Y10795000D02*
X42430000Y12430000D01*
X22480002Y14035000D02*
X22225000Y14035000D01*
X23145001Y13370001D02*
X22480002Y14035000D01*
X23145001Y10925001D02*
X23145001Y13370001D01*
X23015000Y10795000D02*
X23145001Y10925001D01*
X24650000Y12430000D02*
X24650000Y13970000D01*
X23015000Y10795000D02*
X24650000Y12430000D01*
X5365001Y13370001D02*
X4700002Y14035000D01*
X4700002Y14035000D02*
X4445000Y14035000D01*
X5365001Y10925001D02*
X5365001Y13370001D01*
X5235000Y10795000D02*
X5365001Y10925001D01*
X42700000Y8890000D02*
X43815000Y8890000D01*
X40795000Y10795000D02*
X42700000Y8890000D01*
X50800000Y5612999D02*
X50515001Y5328000D01*
X50800000Y6985000D02*
X50800000Y5612999D01*
X50800000Y5642999D02*
X51114999Y5328000D01*
X50800000Y6985000D02*
X50800000Y5642999D01*
%TO.N,Net-(D1-Pad1)*%
X8370000Y14770000D02*
X7265000Y15875000D01*
X8370000Y13970000D02*
X8370000Y14770000D01*
%TO.N,Net-(D2-Pad1)*%
X26150000Y14770000D02*
X25045000Y15875000D01*
X26150000Y13970000D02*
X26150000Y14770000D01*
%TO.N,Net-(D3-Pad1)*%
X43930000Y14770000D02*
X42825000Y15875000D01*
X43930000Y13970000D02*
X43930000Y14770000D01*
D21*
%TO.N,Net-(IC1-Pad1)*%
X18167000Y12452000D02*
X17805001Y12452000D01*
X18629999Y12914999D02*
X18167000Y12452000D01*
X18629999Y14390001D02*
X18629999Y12914999D01*
X17780000Y15240000D02*
X18629999Y14390001D01*
%TO.N,Net-(IC1-Pad5)*%
X15240000Y12486999D02*
X15205001Y12452000D01*
X15240000Y15240000D02*
X15240000Y12486999D01*
%TO.N,Net-(IC1-Pad7)*%
X12700000Y14979502D02*
X13905001Y13774501D01*
X13905001Y13774501D02*
X13905001Y12452000D01*
X12700000Y15240000D02*
X12700000Y14979502D01*
%TO.N,Net-(IC1-Pad11)*%
X11098000Y12452000D02*
X11404999Y12452000D01*
X10160000Y13390000D02*
X11098000Y12452000D01*
X10160000Y15240000D02*
X10160000Y13390000D01*
D19*
%TO.N,Net-(IC1-Pad15)*%
X12330000Y6615000D02*
X12330000Y5328000D01*
X12700000Y6985000D02*
X12330000Y6615000D01*
%TO.N,Net-(IC1-Pad16)*%
X12980000Y4405498D02*
X12980000Y5328000D01*
X12815001Y4240499D02*
X12980000Y4405498D01*
X9320499Y4240499D02*
X12815001Y4240499D01*
X7620000Y2540000D02*
X9320499Y4240499D01*
%TO.N,Net-(IC1-Pad17)*%
X13630000Y4405498D02*
X13630000Y5328000D01*
X12939503Y3715001D02*
X13630000Y4405498D01*
X11335001Y3715001D02*
X12939503Y3715001D01*
X10160000Y2540000D02*
X11335001Y3715001D01*
%TO.N,Net-(IC1-Pad21)*%
X16230000Y4405498D02*
X16230000Y5328000D01*
X15539503Y3715001D02*
X16230000Y4405498D01*
X13875001Y3715001D02*
X15539503Y3715001D01*
X12700000Y2540000D02*
X13875001Y3715001D01*
%TO.N,Net-(IC1-Pad22)*%
X16880000Y4180000D02*
X16880000Y5328000D01*
X15240000Y2540000D02*
X16880000Y4180000D01*
%TO.N,Net-(IC1-Pad23)*%
X17530000Y2790000D02*
X17530000Y5328000D01*
X17780000Y2540000D02*
X17530000Y2790000D01*
%TO.N,Net-(IC2-Pad23)*%
X35310000Y2790000D02*
X35310000Y5328000D01*
X35560000Y2540000D02*
X35310000Y2790000D01*
%TO.N,Net-(IC2-Pad22)*%
X34660000Y4180000D02*
X34660000Y5328000D01*
X33020000Y2540000D02*
X34660000Y4180000D01*
%TO.N,Net-(IC2-Pad21)*%
X34010000Y4315500D02*
X34010000Y5328000D01*
X33409501Y3715001D02*
X34010000Y4315500D01*
X31655001Y3715001D02*
X33409501Y3715001D01*
X30480000Y2540000D02*
X31655001Y3715001D01*
%TO.N,Net-(IC2-Pad17)*%
X29115001Y3715001D02*
X27940000Y2540000D01*
X30809501Y3715001D02*
X29115001Y3715001D01*
X31410000Y4315500D02*
X30809501Y3715001D01*
X31410000Y5328000D02*
X31410000Y4315500D01*
%TO.N,Net-(IC2-Pad16)*%
X30595001Y4240499D02*
X30760000Y4405498D01*
X30760000Y4405498D02*
X30760000Y5328000D01*
X27100499Y4240499D02*
X30595001Y4240499D01*
X25400000Y2540000D02*
X27100499Y4240499D01*
%TO.N,Net-(IC2-Pad15)*%
X30110000Y6615000D02*
X30110000Y5328000D01*
X30480000Y6985000D02*
X30110000Y6615000D01*
D21*
%TO.N,Net-(IC2-Pad11)*%
X28878000Y12452000D02*
X29184999Y12452000D01*
X27940000Y13390000D02*
X28878000Y12452000D01*
X27940000Y15240000D02*
X27940000Y13390000D01*
%TO.N,Net-(IC2-Pad7)*%
X31685001Y13774501D02*
X31685001Y12452000D01*
X30480000Y14979502D02*
X31685001Y13774501D01*
X30480000Y15240000D02*
X30480000Y14979502D01*
%TO.N,Net-(IC2-Pad5)*%
X33020000Y12486999D02*
X32985001Y12452000D01*
X33020000Y15240000D02*
X33020000Y12486999D01*
%TO.N,Net-(IC2-Pad1)*%
X35947000Y12452000D02*
X35585001Y12452000D01*
X36409999Y12914999D02*
X35947000Y12452000D01*
X36409999Y14390001D02*
X36409999Y12914999D01*
X35560000Y15240000D02*
X36409999Y14390001D01*
%TO.N,Net-(IC3-Pad1)*%
X53727000Y12452000D02*
X53365001Y12452000D01*
X54189999Y12914999D02*
X53727000Y12452000D01*
X54189999Y14390001D02*
X54189999Y12914999D01*
X53340000Y15240000D02*
X54189999Y14390001D01*
%TO.N,Net-(IC3-Pad5)*%
X50800000Y12486999D02*
X50765001Y12452000D01*
X50800000Y15240000D02*
X50800000Y12486999D01*
%TO.N,Net-(IC3-Pad7)*%
X49465001Y13774501D02*
X49465001Y12452000D01*
X48260000Y14979502D02*
X49465001Y13774501D01*
X48260000Y15240000D02*
X48260000Y14979502D01*
%TO.N,Net-(IC3-Pad11)*%
X46658000Y12452000D02*
X46964999Y12452000D01*
X45720000Y13390000D02*
X46658000Y12452000D01*
X45720000Y15240000D02*
X45720000Y13390000D01*
D19*
%TO.N,Net-(IC3-Pad15)*%
X47890000Y6615000D02*
X47890000Y5328000D01*
X48260000Y6985000D02*
X47890000Y6615000D01*
%TO.N,Net-(IC3-Pad16)*%
X48540000Y4405498D02*
X48540000Y5328000D01*
X48375001Y4240499D02*
X48540000Y4405498D01*
X44880499Y4240499D02*
X48375001Y4240499D01*
X43180000Y2540000D02*
X44880499Y4240499D01*
%TO.N,Net-(IC3-Pad17)*%
X49190000Y4405498D02*
X49190000Y5328000D01*
X48574992Y3790490D02*
X49190000Y4405498D01*
X46970490Y3790490D02*
X48574992Y3790490D01*
X45720000Y2540000D02*
X46970490Y3790490D01*
%TO.N,Net-(IC3-Pad21)*%
X51790000Y4315500D02*
X51790000Y5328000D01*
X51189501Y3715001D02*
X51790000Y4315500D01*
X49435001Y3715001D02*
X51189501Y3715001D01*
X48260000Y2540000D02*
X49435001Y3715001D01*
%TO.N,Net-(IC3-Pad22)*%
X52440000Y4180000D02*
X52440000Y5328000D01*
X50800000Y2540000D02*
X52440000Y4180000D01*
%TO.N,Net-(IC3-Pad23)*%
X53090000Y2790000D02*
X53090000Y5328000D01*
X53340000Y2540000D02*
X53090000Y2790000D01*
%TD*%
D22*
%TO.N,Net-(C1-Pad2)*%
X3050498Y17019180D02*
X3014188Y16899482D01*
X3001928Y16775000D01*
X3002173Y16725961D01*
X2825750Y16725000D01*
X2667000Y16566250D01*
X2667000Y15367000D01*
X2687000Y15367000D01*
X2687000Y15113000D01*
X2667000Y15113000D01*
X2667000Y15093000D01*
X2413000Y15093000D01*
X2413000Y15113000D01*
X1213750Y15113000D01*
X1055000Y14954250D01*
X1051928Y14390000D01*
X1064188Y14265518D01*
X1100498Y14145820D01*
X1159463Y14035506D01*
X1238815Y13938815D01*
X1335506Y13859463D01*
X1445820Y13800498D01*
X1518380Y13778487D01*
X1386525Y13646632D01*
X1224010Y13403411D01*
X1112068Y13133158D01*
X1055000Y12846260D01*
X1055000Y12553740D01*
X1112068Y12266842D01*
X1224010Y11996589D01*
X1386525Y11753368D01*
X1593368Y11546525D01*
X1767760Y11430000D01*
X1593368Y11313475D01*
X1386525Y11106632D01*
X1224010Y10863411D01*
X1112068Y10593158D01*
X1055000Y10306260D01*
X1055000Y10013740D01*
X1112068Y9726842D01*
X1224010Y9456589D01*
X1386525Y9213368D01*
X1405001Y9194892D01*
X1405000Y6405752D01*
X1399509Y6350000D01*
X1411446Y6228805D01*
X1421423Y6127502D01*
X1486324Y5913554D01*
X1591716Y5716377D01*
X1733551Y5543551D01*
X1776864Y5508005D01*
X2333008Y4951860D01*
X2368551Y4908551D01*
X2541377Y4766716D01*
X2738553Y4661324D01*
X2952501Y4596423D01*
X3032032Y4588590D01*
X3175000Y4574509D01*
X3186453Y4575637D01*
X3195498Y4545820D01*
X3254463Y4435506D01*
X3333815Y4338815D01*
X3430506Y4259463D01*
X3540820Y4200498D01*
X3660518Y4164188D01*
X3785000Y4151928D01*
X6685000Y4151928D01*
X6809482Y4164188D01*
X6929180Y4200498D01*
X6985000Y4230335D01*
X7040820Y4200498D01*
X7160518Y4164188D01*
X7285000Y4151928D01*
X8159434Y4154235D01*
X7986408Y3981210D01*
X7766260Y4025000D01*
X7473740Y4025000D01*
X7186842Y3967932D01*
X6916589Y3855990D01*
X6673368Y3693475D01*
X6466525Y3486632D01*
X6350000Y3312240D01*
X6233475Y3486632D01*
X6026632Y3693475D01*
X5783411Y3855990D01*
X5513158Y3967932D01*
X5226260Y4025000D01*
X4933740Y4025000D01*
X4646842Y3967932D01*
X4376589Y3855990D01*
X4133368Y3693475D01*
X3926525Y3486632D01*
X3764010Y3243411D01*
X3652068Y2973158D01*
X3595000Y2686260D01*
X3595000Y2393740D01*
X3652068Y2106842D01*
X3764010Y1836589D01*
X3926525Y1593368D01*
X4133368Y1386525D01*
X4376589Y1224010D01*
X4646842Y1112068D01*
X4933740Y1055000D01*
X5226260Y1055000D01*
X5513158Y1112068D01*
X5783411Y1224010D01*
X6026632Y1386525D01*
X6233475Y1593368D01*
X6350000Y1767760D01*
X6466525Y1593368D01*
X6673368Y1386525D01*
X6916589Y1224010D01*
X7186842Y1112068D01*
X7473740Y1055000D01*
X7766260Y1055000D01*
X8053158Y1112068D01*
X8323411Y1224010D01*
X8566632Y1386525D01*
X8773475Y1593368D01*
X8890000Y1767760D01*
X9006525Y1593368D01*
X9213368Y1386525D01*
X9456589Y1224010D01*
X9726842Y1112068D01*
X10013740Y1055000D01*
X10306260Y1055000D01*
X10593158Y1112068D01*
X10863411Y1224010D01*
X11106632Y1386525D01*
X11313475Y1593368D01*
X11430000Y1767760D01*
X11546525Y1593368D01*
X11753368Y1386525D01*
X11996589Y1224010D01*
X12266842Y1112068D01*
X12553740Y1055000D01*
X12846260Y1055000D01*
X13133158Y1112068D01*
X13403411Y1224010D01*
X13646632Y1386525D01*
X13853475Y1593368D01*
X13970000Y1767760D01*
X14086525Y1593368D01*
X14293368Y1386525D01*
X14536589Y1224010D01*
X14806842Y1112068D01*
X15093740Y1055000D01*
X15386260Y1055000D01*
X15673158Y1112068D01*
X15943411Y1224010D01*
X16186632Y1386525D01*
X16393475Y1593368D01*
X16510000Y1767760D01*
X16626525Y1593368D01*
X16833368Y1386525D01*
X17076589Y1224010D01*
X17346842Y1112068D01*
X17633740Y1055000D01*
X17926260Y1055000D01*
X18213158Y1112068D01*
X18483411Y1224010D01*
X18726632Y1386525D01*
X18933475Y1593368D01*
X19095990Y1836589D01*
X19207932Y2106842D01*
X19265000Y2393740D01*
X19265000Y2686260D01*
X19207932Y2973158D01*
X19095990Y3243411D01*
X18933475Y3486632D01*
X18726632Y3693475D01*
X18483411Y3855990D01*
X18310944Y3927428D01*
X18405000Y3927428D01*
X18529482Y3939688D01*
X18649180Y3975998D01*
X18759494Y4034963D01*
X18856185Y4114315D01*
X18935537Y4211006D01*
X18994502Y4321320D01*
X18997430Y4330972D01*
X19088624Y4379716D01*
X19261450Y4521551D01*
X19403285Y4694377D01*
X19508677Y4891553D01*
X19513777Y4908365D01*
X19686377Y4766716D01*
X19883553Y4661324D01*
X20097501Y4596423D01*
X20264248Y4580000D01*
X20965130Y4580000D01*
X20975498Y4545820D01*
X21034463Y4435506D01*
X21113815Y4338815D01*
X21210506Y4259463D01*
X21320820Y4200498D01*
X21440518Y4164188D01*
X21565000Y4151928D01*
X24465000Y4151928D01*
X24589482Y4164188D01*
X24709180Y4200498D01*
X24765000Y4230335D01*
X24820820Y4200498D01*
X24940518Y4164188D01*
X25065000Y4151928D01*
X25939434Y4154235D01*
X25766408Y3981210D01*
X25546260Y4025000D01*
X25253740Y4025000D01*
X24966842Y3967932D01*
X24696589Y3855990D01*
X24453368Y3693475D01*
X24246525Y3486632D01*
X24130000Y3312240D01*
X24013475Y3486632D01*
X23806632Y3693475D01*
X23563411Y3855990D01*
X23293158Y3967932D01*
X23006260Y4025000D01*
X22713740Y4025000D01*
X22426842Y3967932D01*
X22156589Y3855990D01*
X21913368Y3693475D01*
X21706525Y3486632D01*
X21544010Y3243411D01*
X21432068Y2973158D01*
X21375000Y2686260D01*
X21375000Y2393740D01*
X21432068Y2106842D01*
X21544010Y1836589D01*
X21706525Y1593368D01*
X21913368Y1386525D01*
X22156589Y1224010D01*
X22426842Y1112068D01*
X22713740Y1055000D01*
X23006260Y1055000D01*
X23293158Y1112068D01*
X23563411Y1224010D01*
X23806632Y1386525D01*
X24013475Y1593368D01*
X24130000Y1767760D01*
X24246525Y1593368D01*
X24453368Y1386525D01*
X24696589Y1224010D01*
X24966842Y1112068D01*
X25253740Y1055000D01*
X25546260Y1055000D01*
X25833158Y1112068D01*
X26103411Y1224010D01*
X26346632Y1386525D01*
X26553475Y1593368D01*
X26670000Y1767760D01*
X26786525Y1593368D01*
X26993368Y1386525D01*
X27236589Y1224010D01*
X27506842Y1112068D01*
X27793740Y1055000D01*
X28086260Y1055000D01*
X28373158Y1112068D01*
X28643411Y1224010D01*
X28886632Y1386525D01*
X29093475Y1593368D01*
X29210000Y1767760D01*
X29326525Y1593368D01*
X29533368Y1386525D01*
X29776589Y1224010D01*
X30046842Y1112068D01*
X30333740Y1055000D01*
X30626260Y1055000D01*
X30913158Y1112068D01*
X31183411Y1224010D01*
X31426632Y1386525D01*
X31633475Y1593368D01*
X31750000Y1767760D01*
X31866525Y1593368D01*
X32073368Y1386525D01*
X32316589Y1224010D01*
X32586842Y1112068D01*
X32873740Y1055000D01*
X33166260Y1055000D01*
X33453158Y1112068D01*
X33723411Y1224010D01*
X33966632Y1386525D01*
X34173475Y1593368D01*
X34290000Y1767760D01*
X34406525Y1593368D01*
X34613368Y1386525D01*
X34856589Y1224010D01*
X35126842Y1112068D01*
X35413740Y1055000D01*
X35706260Y1055000D01*
X35993158Y1112068D01*
X36263411Y1224010D01*
X36506632Y1386525D01*
X36713475Y1593368D01*
X36875990Y1836589D01*
X36987932Y2106842D01*
X37045000Y2393740D01*
X37045000Y2686260D01*
X36987932Y2973158D01*
X36875990Y3243411D01*
X36713475Y3486632D01*
X36506632Y3693475D01*
X36263411Y3855990D01*
X36090944Y3927428D01*
X36185000Y3927428D01*
X36309482Y3939688D01*
X36429180Y3975998D01*
X36539494Y4034963D01*
X36636185Y4114315D01*
X36715537Y4211006D01*
X36774502Y4321320D01*
X36777430Y4330972D01*
X36868624Y4379716D01*
X37041450Y4521551D01*
X37183285Y4694377D01*
X37288677Y4891553D01*
X37293777Y4908365D01*
X37466377Y4766716D01*
X37663553Y4661324D01*
X37877501Y4596423D01*
X38044248Y4580000D01*
X38745130Y4580000D01*
X38755498Y4545820D01*
X38814463Y4435506D01*
X38893815Y4338815D01*
X38990506Y4259463D01*
X39100820Y4200498D01*
X39220518Y4164188D01*
X39345000Y4151928D01*
X42245000Y4151928D01*
X42369482Y4164188D01*
X42489180Y4200498D01*
X42545000Y4230335D01*
X42600820Y4200498D01*
X42720518Y4164188D01*
X42845000Y4151928D01*
X43719434Y4154235D01*
X43546408Y3981210D01*
X43326260Y4025000D01*
X43033740Y4025000D01*
X42746842Y3967932D01*
X42476589Y3855990D01*
X42233368Y3693475D01*
X42026525Y3486632D01*
X41910000Y3312240D01*
X41793475Y3486632D01*
X41586632Y3693475D01*
X41343411Y3855990D01*
X41073158Y3967932D01*
X40786260Y4025000D01*
X40493740Y4025000D01*
X40206842Y3967932D01*
X39936589Y3855990D01*
X39693368Y3693475D01*
X39486525Y3486632D01*
X39324010Y3243411D01*
X39212068Y2973158D01*
X39155000Y2686260D01*
X39155000Y2393740D01*
X39212068Y2106842D01*
X39324010Y1836589D01*
X39486525Y1593368D01*
X39693368Y1386525D01*
X39936589Y1224010D01*
X40206842Y1112068D01*
X40493740Y1055000D01*
X40786260Y1055000D01*
X41073158Y1112068D01*
X41343411Y1224010D01*
X41586632Y1386525D01*
X41793475Y1593368D01*
X41910000Y1767760D01*
X42026525Y1593368D01*
X42233368Y1386525D01*
X42476589Y1224010D01*
X42746842Y1112068D01*
X43033740Y1055000D01*
X43326260Y1055000D01*
X43613158Y1112068D01*
X43883411Y1224010D01*
X44126632Y1386525D01*
X44333475Y1593368D01*
X44450000Y1767760D01*
X44566525Y1593368D01*
X44773368Y1386525D01*
X45016589Y1224010D01*
X45286842Y1112068D01*
X45573740Y1055000D01*
X45866260Y1055000D01*
X46153158Y1112068D01*
X46423411Y1224010D01*
X46666632Y1386525D01*
X46873475Y1593368D01*
X46990000Y1767760D01*
X47106525Y1593368D01*
X47313368Y1386525D01*
X47556589Y1224010D01*
X47826842Y1112068D01*
X48113740Y1055000D01*
X48406260Y1055000D01*
X48693158Y1112068D01*
X48963411Y1224010D01*
X49206632Y1386525D01*
X49413475Y1593368D01*
X49530000Y1767760D01*
X49646525Y1593368D01*
X49853368Y1386525D01*
X50096589Y1224010D01*
X50366842Y1112068D01*
X50653740Y1055000D01*
X50946260Y1055000D01*
X51233158Y1112068D01*
X51503411Y1224010D01*
X51746632Y1386525D01*
X51953475Y1593368D01*
X52070000Y1767760D01*
X52186525Y1593368D01*
X52393368Y1386525D01*
X52636589Y1224010D01*
X52906842Y1112068D01*
X53193740Y1055000D01*
X53486260Y1055000D01*
X53773158Y1112068D01*
X54043411Y1224010D01*
X54286632Y1386525D01*
X54493475Y1593368D01*
X54655990Y1836589D01*
X54767932Y2106842D01*
X54825000Y2393740D01*
X54825000Y2686260D01*
X54767932Y2973158D01*
X54655990Y3243411D01*
X54493475Y3486632D01*
X54286632Y3693475D01*
X54043411Y3855990D01*
X53870944Y3927428D01*
X53965000Y3927428D01*
X54089482Y3939688D01*
X54209180Y3975998D01*
X54319494Y4034963D01*
X54416185Y4114315D01*
X54495537Y4211006D01*
X54554502Y4321320D01*
X54557430Y4330972D01*
X54648624Y4379716D01*
X54821450Y4521551D01*
X54963285Y4694377D01*
X55068677Y4891553D01*
X55133578Y5105501D01*
X55150001Y5272248D01*
X55150001Y6594760D01*
X55155491Y6650502D01*
X55150001Y6706244D01*
X55150001Y6706253D01*
X55133578Y6873000D01*
X55068677Y7086948D01*
X54963285Y7284124D01*
X54821450Y7456950D01*
X54778141Y7492493D01*
X53422497Y8848136D01*
X53386950Y8891450D01*
X53214124Y9033285D01*
X53016948Y9138677D01*
X52803000Y9203578D01*
X52636253Y9220001D01*
X52636252Y9220001D01*
X52580501Y9225492D01*
X52524750Y9220001D01*
X46675755Y9220001D01*
X46620003Y9225492D01*
X46564251Y9220001D01*
X46397504Y9203578D01*
X46183556Y9138677D01*
X45986380Y9033285D01*
X45813554Y8891450D01*
X45778011Y8848141D01*
X45619870Y8690000D01*
X44830495Y8690000D01*
X44850000Y8788061D01*
X44850000Y8991939D01*
X44810226Y9191898D01*
X44792604Y9234441D01*
X45745000Y9231928D01*
X45869482Y9244188D01*
X45989180Y9280498D01*
X46099494Y9339463D01*
X46196185Y9418815D01*
X46275537Y9515506D01*
X46334502Y9625820D01*
X46370812Y9745518D01*
X46383072Y9870000D01*
X46380000Y10509250D01*
X46221250Y10668000D01*
X44422000Y10668000D01*
X44422000Y10648000D01*
X44168000Y10648000D01*
X44168000Y10668000D01*
X44148000Y10668000D01*
X44148000Y10922000D01*
X44168000Y10922000D01*
X44168000Y12196250D01*
X44009250Y12355000D01*
X43312076Y12356840D01*
X43315000Y12386523D01*
X43315000Y12386533D01*
X43319281Y12429999D01*
X43315000Y12473465D01*
X43315000Y12971646D01*
X43405518Y12944188D01*
X43530000Y12931928D01*
X44330000Y12931928D01*
X44454482Y12944188D01*
X44574180Y12980498D01*
X44646435Y13019120D01*
X44666324Y12953554D01*
X44701125Y12888446D01*
X44771717Y12756377D01*
X44913552Y12583551D01*
X44956860Y12548009D01*
X45148371Y12356498D01*
X44580750Y12355000D01*
X44422000Y12196250D01*
X44422000Y10922000D01*
X46221250Y10922000D01*
X46351962Y11052712D01*
X46365000Y11051428D01*
X46815000Y11051428D01*
X46915000Y11061277D01*
X47015000Y11051428D01*
X47465000Y11051428D01*
X47568122Y11061584D01*
X47633250Y11054500D01*
X47665497Y11086747D01*
X47709180Y11099998D01*
X47819494Y11158963D01*
X47890277Y11217053D01*
X47952747Y11164230D01*
X48062183Y11103651D01*
X48114225Y11087025D01*
X48146750Y11054500D01*
X48215000Y11061924D01*
X48283250Y11054500D01*
X48315775Y11087025D01*
X48367817Y11103651D01*
X48477253Y11164230D01*
X48539723Y11217053D01*
X48610506Y11158963D01*
X48720820Y11099998D01*
X48764503Y11086747D01*
X48796750Y11054500D01*
X48861878Y11061584D01*
X48965000Y11051428D01*
X49415000Y11051428D01*
X49515000Y11061277D01*
X49615000Y11051428D01*
X50065000Y11051428D01*
X50165000Y11061277D01*
X50265000Y11051428D01*
X50715000Y11051428D01*
X50815000Y11061277D01*
X50915000Y11051428D01*
X51365000Y11051428D01*
X51468122Y11061584D01*
X51533250Y11054500D01*
X51565497Y11086747D01*
X51609180Y11099998D01*
X51719494Y11158963D01*
X51790277Y11217053D01*
X51852747Y11164230D01*
X51962183Y11103651D01*
X52014225Y11087025D01*
X52046750Y11054500D01*
X52115000Y11061924D01*
X52183250Y11054500D01*
X52215775Y11087025D01*
X52267817Y11103651D01*
X52377253Y11164230D01*
X52439723Y11217053D01*
X52510506Y11158963D01*
X52620820Y11099998D01*
X52664503Y11086747D01*
X52696750Y11054500D01*
X52761878Y11061584D01*
X52865000Y11051428D01*
X53315000Y11051428D01*
X53415000Y11061277D01*
X53515000Y11051428D01*
X53965000Y11051428D01*
X54089482Y11063688D01*
X54209180Y11099998D01*
X54319494Y11158963D01*
X54416185Y11238315D01*
X54495537Y11335006D01*
X54554502Y11445320D01*
X54590812Y11565018D01*
X54603072Y11689500D01*
X54603072Y11722941D01*
X54953134Y12073003D01*
X54996448Y12108550D01*
X55138283Y12281376D01*
X55220000Y12434259D01*
X55220001Y660000D01*
X660000Y660000D01*
X660000Y16090000D01*
X1051928Y16090000D01*
X1055000Y15525750D01*
X1213750Y15367000D01*
X2413000Y15367000D01*
X2413000Y16566250D01*
X2254250Y16725000D01*
X1690000Y16728072D01*
X1565518Y16715812D01*
X1445820Y16679502D01*
X1335506Y16620537D01*
X1238815Y16541185D01*
X1159463Y16444494D01*
X1100498Y16334180D01*
X1064188Y16214482D01*
X1051928Y16090000D01*
X660000Y16090000D01*
X660000Y17120000D01*
X3104388Y17120000D01*
X3050498Y17019180D01*
%TA.AperFunction,Conductor*%
D23*
G36*
X3050498Y17019180D02*
G01*
X3014188Y16899482D01*
X3001928Y16775000D01*
X3002173Y16725961D01*
X2825750Y16725000D01*
X2667000Y16566250D01*
X2667000Y15367000D01*
X2687000Y15367000D01*
X2687000Y15113000D01*
X2667000Y15113000D01*
X2667000Y15093000D01*
X2413000Y15093000D01*
X2413000Y15113000D01*
X1213750Y15113000D01*
X1055000Y14954250D01*
X1051928Y14390000D01*
X1064188Y14265518D01*
X1100498Y14145820D01*
X1159463Y14035506D01*
X1238815Y13938815D01*
X1335506Y13859463D01*
X1445820Y13800498D01*
X1518380Y13778487D01*
X1386525Y13646632D01*
X1224010Y13403411D01*
X1112068Y13133158D01*
X1055000Y12846260D01*
X1055000Y12553740D01*
X1112068Y12266842D01*
X1224010Y11996589D01*
X1386525Y11753368D01*
X1593368Y11546525D01*
X1767760Y11430000D01*
X1593368Y11313475D01*
X1386525Y11106632D01*
X1224010Y10863411D01*
X1112068Y10593158D01*
X1055000Y10306260D01*
X1055000Y10013740D01*
X1112068Y9726842D01*
X1224010Y9456589D01*
X1386525Y9213368D01*
X1405001Y9194892D01*
X1405000Y6405752D01*
X1399509Y6350000D01*
X1411446Y6228805D01*
X1421423Y6127502D01*
X1486324Y5913554D01*
X1591716Y5716377D01*
X1733551Y5543551D01*
X1776864Y5508005D01*
X2333008Y4951860D01*
X2368551Y4908551D01*
X2541377Y4766716D01*
X2738553Y4661324D01*
X2952501Y4596423D01*
X3032032Y4588590D01*
X3175000Y4574509D01*
X3186453Y4575637D01*
X3195498Y4545820D01*
X3254463Y4435506D01*
X3333815Y4338815D01*
X3430506Y4259463D01*
X3540820Y4200498D01*
X3660518Y4164188D01*
X3785000Y4151928D01*
X6685000Y4151928D01*
X6809482Y4164188D01*
X6929180Y4200498D01*
X6985000Y4230335D01*
X7040820Y4200498D01*
X7160518Y4164188D01*
X7285000Y4151928D01*
X8159434Y4154235D01*
X7986408Y3981210D01*
X7766260Y4025000D01*
X7473740Y4025000D01*
X7186842Y3967932D01*
X6916589Y3855990D01*
X6673368Y3693475D01*
X6466525Y3486632D01*
X6350000Y3312240D01*
X6233475Y3486632D01*
X6026632Y3693475D01*
X5783411Y3855990D01*
X5513158Y3967932D01*
X5226260Y4025000D01*
X4933740Y4025000D01*
X4646842Y3967932D01*
X4376589Y3855990D01*
X4133368Y3693475D01*
X3926525Y3486632D01*
X3764010Y3243411D01*
X3652068Y2973158D01*
X3595000Y2686260D01*
X3595000Y2393740D01*
X3652068Y2106842D01*
X3764010Y1836589D01*
X3926525Y1593368D01*
X4133368Y1386525D01*
X4376589Y1224010D01*
X4646842Y1112068D01*
X4933740Y1055000D01*
X5226260Y1055000D01*
X5513158Y1112068D01*
X5783411Y1224010D01*
X6026632Y1386525D01*
X6233475Y1593368D01*
X6350000Y1767760D01*
X6466525Y1593368D01*
X6673368Y1386525D01*
X6916589Y1224010D01*
X7186842Y1112068D01*
X7473740Y1055000D01*
X7766260Y1055000D01*
X8053158Y1112068D01*
X8323411Y1224010D01*
X8566632Y1386525D01*
X8773475Y1593368D01*
X8890000Y1767760D01*
X9006525Y1593368D01*
X9213368Y1386525D01*
X9456589Y1224010D01*
X9726842Y1112068D01*
X10013740Y1055000D01*
X10306260Y1055000D01*
X10593158Y1112068D01*
X10863411Y1224010D01*
X11106632Y1386525D01*
X11313475Y1593368D01*
X11430000Y1767760D01*
X11546525Y1593368D01*
X11753368Y1386525D01*
X11996589Y1224010D01*
X12266842Y1112068D01*
X12553740Y1055000D01*
X12846260Y1055000D01*
X13133158Y1112068D01*
X13403411Y1224010D01*
X13646632Y1386525D01*
X13853475Y1593368D01*
X13970000Y1767760D01*
X14086525Y1593368D01*
X14293368Y1386525D01*
X14536589Y1224010D01*
X14806842Y1112068D01*
X15093740Y1055000D01*
X15386260Y1055000D01*
X15673158Y1112068D01*
X15943411Y1224010D01*
X16186632Y1386525D01*
X16393475Y1593368D01*
X16510000Y1767760D01*
X16626525Y1593368D01*
X16833368Y1386525D01*
X17076589Y1224010D01*
X17346842Y1112068D01*
X17633740Y1055000D01*
X17926260Y1055000D01*
X18213158Y1112068D01*
X18483411Y1224010D01*
X18726632Y1386525D01*
X18933475Y1593368D01*
X19095990Y1836589D01*
X19207932Y2106842D01*
X19265000Y2393740D01*
X19265000Y2686260D01*
X19207932Y2973158D01*
X19095990Y3243411D01*
X18933475Y3486632D01*
X18726632Y3693475D01*
X18483411Y3855990D01*
X18310944Y3927428D01*
X18405000Y3927428D01*
X18529482Y3939688D01*
X18649180Y3975998D01*
X18759494Y4034963D01*
X18856185Y4114315D01*
X18935537Y4211006D01*
X18994502Y4321320D01*
X18997430Y4330972D01*
X19088624Y4379716D01*
X19261450Y4521551D01*
X19403285Y4694377D01*
X19508677Y4891553D01*
X19513777Y4908365D01*
X19686377Y4766716D01*
X19883553Y4661324D01*
X20097501Y4596423D01*
X20264248Y4580000D01*
X20965130Y4580000D01*
X20975498Y4545820D01*
X21034463Y4435506D01*
X21113815Y4338815D01*
X21210506Y4259463D01*
X21320820Y4200498D01*
X21440518Y4164188D01*
X21565000Y4151928D01*
X24465000Y4151928D01*
X24589482Y4164188D01*
X24709180Y4200498D01*
X24765000Y4230335D01*
X24820820Y4200498D01*
X24940518Y4164188D01*
X25065000Y4151928D01*
X25939434Y4154235D01*
X25766408Y3981210D01*
X25546260Y4025000D01*
X25253740Y4025000D01*
X24966842Y3967932D01*
X24696589Y3855990D01*
X24453368Y3693475D01*
X24246525Y3486632D01*
X24130000Y3312240D01*
X24013475Y3486632D01*
X23806632Y3693475D01*
X23563411Y3855990D01*
X23293158Y3967932D01*
X23006260Y4025000D01*
X22713740Y4025000D01*
X22426842Y3967932D01*
X22156589Y3855990D01*
X21913368Y3693475D01*
X21706525Y3486632D01*
X21544010Y3243411D01*
X21432068Y2973158D01*
X21375000Y2686260D01*
X21375000Y2393740D01*
X21432068Y2106842D01*
X21544010Y1836589D01*
X21706525Y1593368D01*
X21913368Y1386525D01*
X22156589Y1224010D01*
X22426842Y1112068D01*
X22713740Y1055000D01*
X23006260Y1055000D01*
X23293158Y1112068D01*
X23563411Y1224010D01*
X23806632Y1386525D01*
X24013475Y1593368D01*
X24130000Y1767760D01*
X24246525Y1593368D01*
X24453368Y1386525D01*
X24696589Y1224010D01*
X24966842Y1112068D01*
X25253740Y1055000D01*
X25546260Y1055000D01*
X25833158Y1112068D01*
X26103411Y1224010D01*
X26346632Y1386525D01*
X26553475Y1593368D01*
X26670000Y1767760D01*
X26786525Y1593368D01*
X26993368Y1386525D01*
X27236589Y1224010D01*
X27506842Y1112068D01*
X27793740Y1055000D01*
X28086260Y1055000D01*
X28373158Y1112068D01*
X28643411Y1224010D01*
X28886632Y1386525D01*
X29093475Y1593368D01*
X29210000Y1767760D01*
X29326525Y1593368D01*
X29533368Y1386525D01*
X29776589Y1224010D01*
X30046842Y1112068D01*
X30333740Y1055000D01*
X30626260Y1055000D01*
X30913158Y1112068D01*
X31183411Y1224010D01*
X31426632Y1386525D01*
X31633475Y1593368D01*
X31750000Y1767760D01*
X31866525Y1593368D01*
X32073368Y1386525D01*
X32316589Y1224010D01*
X32586842Y1112068D01*
X32873740Y1055000D01*
X33166260Y1055000D01*
X33453158Y1112068D01*
X33723411Y1224010D01*
X33966632Y1386525D01*
X34173475Y1593368D01*
X34290000Y1767760D01*
X34406525Y1593368D01*
X34613368Y1386525D01*
X34856589Y1224010D01*
X35126842Y1112068D01*
X35413740Y1055000D01*
X35706260Y1055000D01*
X35993158Y1112068D01*
X36263411Y1224010D01*
X36506632Y1386525D01*
X36713475Y1593368D01*
X36875990Y1836589D01*
X36987932Y2106842D01*
X37045000Y2393740D01*
X37045000Y2686260D01*
X36987932Y2973158D01*
X36875990Y3243411D01*
X36713475Y3486632D01*
X36506632Y3693475D01*
X36263411Y3855990D01*
X36090944Y3927428D01*
X36185000Y3927428D01*
X36309482Y3939688D01*
X36429180Y3975998D01*
X36539494Y4034963D01*
X36636185Y4114315D01*
X36715537Y4211006D01*
X36774502Y4321320D01*
X36777430Y4330972D01*
X36868624Y4379716D01*
X37041450Y4521551D01*
X37183285Y4694377D01*
X37288677Y4891553D01*
X37293777Y4908365D01*
X37466377Y4766716D01*
X37663553Y4661324D01*
X37877501Y4596423D01*
X38044248Y4580000D01*
X38745130Y4580000D01*
X38755498Y4545820D01*
X38814463Y4435506D01*
X38893815Y4338815D01*
X38990506Y4259463D01*
X39100820Y4200498D01*
X39220518Y4164188D01*
X39345000Y4151928D01*
X42245000Y4151928D01*
X42369482Y4164188D01*
X42489180Y4200498D01*
X42545000Y4230335D01*
X42600820Y4200498D01*
X42720518Y4164188D01*
X42845000Y4151928D01*
X43719434Y4154235D01*
X43546408Y3981210D01*
X43326260Y4025000D01*
X43033740Y4025000D01*
X42746842Y3967932D01*
X42476589Y3855990D01*
X42233368Y3693475D01*
X42026525Y3486632D01*
X41910000Y3312240D01*
X41793475Y3486632D01*
X41586632Y3693475D01*
X41343411Y3855990D01*
X41073158Y3967932D01*
X40786260Y4025000D01*
X40493740Y4025000D01*
X40206842Y3967932D01*
X39936589Y3855990D01*
X39693368Y3693475D01*
X39486525Y3486632D01*
X39324010Y3243411D01*
X39212068Y2973158D01*
X39155000Y2686260D01*
X39155000Y2393740D01*
X39212068Y2106842D01*
X39324010Y1836589D01*
X39486525Y1593368D01*
X39693368Y1386525D01*
X39936589Y1224010D01*
X40206842Y1112068D01*
X40493740Y1055000D01*
X40786260Y1055000D01*
X41073158Y1112068D01*
X41343411Y1224010D01*
X41586632Y1386525D01*
X41793475Y1593368D01*
X41910000Y1767760D01*
X42026525Y1593368D01*
X42233368Y1386525D01*
X42476589Y1224010D01*
X42746842Y1112068D01*
X43033740Y1055000D01*
X43326260Y1055000D01*
X43613158Y1112068D01*
X43883411Y1224010D01*
X44126632Y1386525D01*
X44333475Y1593368D01*
X44450000Y1767760D01*
X44566525Y1593368D01*
X44773368Y1386525D01*
X45016589Y1224010D01*
X45286842Y1112068D01*
X45573740Y1055000D01*
X45866260Y1055000D01*
X46153158Y1112068D01*
X46423411Y1224010D01*
X46666632Y1386525D01*
X46873475Y1593368D01*
X46990000Y1767760D01*
X47106525Y1593368D01*
X47313368Y1386525D01*
X47556589Y1224010D01*
X47826842Y1112068D01*
X48113740Y1055000D01*
X48406260Y1055000D01*
X48693158Y1112068D01*
X48963411Y1224010D01*
X49206632Y1386525D01*
X49413475Y1593368D01*
X49530000Y1767760D01*
X49646525Y1593368D01*
X49853368Y1386525D01*
X50096589Y1224010D01*
X50366842Y1112068D01*
X50653740Y1055000D01*
X50946260Y1055000D01*
X51233158Y1112068D01*
X51503411Y1224010D01*
X51746632Y1386525D01*
X51953475Y1593368D01*
X52070000Y1767760D01*
X52186525Y1593368D01*
X52393368Y1386525D01*
X52636589Y1224010D01*
X52906842Y1112068D01*
X53193740Y1055000D01*
X53486260Y1055000D01*
X53773158Y1112068D01*
X54043411Y1224010D01*
X54286632Y1386525D01*
X54493475Y1593368D01*
X54655990Y1836589D01*
X54767932Y2106842D01*
X54825000Y2393740D01*
X54825000Y2686260D01*
X54767932Y2973158D01*
X54655990Y3243411D01*
X54493475Y3486632D01*
X54286632Y3693475D01*
X54043411Y3855990D01*
X53870944Y3927428D01*
X53965000Y3927428D01*
X54089482Y3939688D01*
X54209180Y3975998D01*
X54319494Y4034963D01*
X54416185Y4114315D01*
X54495537Y4211006D01*
X54554502Y4321320D01*
X54557430Y4330972D01*
X54648624Y4379716D01*
X54821450Y4521551D01*
X54963285Y4694377D01*
X55068677Y4891553D01*
X55133578Y5105501D01*
X55150001Y5272248D01*
X55150001Y6594760D01*
X55155491Y6650502D01*
X55150001Y6706244D01*
X55150001Y6706253D01*
X55133578Y6873000D01*
X55068677Y7086948D01*
X54963285Y7284124D01*
X54821450Y7456950D01*
X54778141Y7492493D01*
X53422497Y8848136D01*
X53386950Y8891450D01*
X53214124Y9033285D01*
X53016948Y9138677D01*
X52803000Y9203578D01*
X52636253Y9220001D01*
X52636252Y9220001D01*
X52580501Y9225492D01*
X52524750Y9220001D01*
X46675755Y9220001D01*
X46620003Y9225492D01*
X46564251Y9220001D01*
X46397504Y9203578D01*
X46183556Y9138677D01*
X45986380Y9033285D01*
X45813554Y8891450D01*
X45778011Y8848141D01*
X45619870Y8690000D01*
X44830495Y8690000D01*
X44850000Y8788061D01*
X44850000Y8991939D01*
X44810226Y9191898D01*
X44792604Y9234441D01*
X45745000Y9231928D01*
X45869482Y9244188D01*
X45989180Y9280498D01*
X46099494Y9339463D01*
X46196185Y9418815D01*
X46275537Y9515506D01*
X46334502Y9625820D01*
X46370812Y9745518D01*
X46383072Y9870000D01*
X46380000Y10509250D01*
X46221250Y10668000D01*
X44422000Y10668000D01*
X44422000Y10648000D01*
X44168000Y10648000D01*
X44168000Y10668000D01*
X44148000Y10668000D01*
X44148000Y10922000D01*
X44168000Y10922000D01*
X44168000Y12196250D01*
X44009250Y12355000D01*
X43312076Y12356840D01*
X43315000Y12386523D01*
X43315000Y12386533D01*
X43319281Y12429999D01*
X43315000Y12473465D01*
X43315000Y12971646D01*
X43405518Y12944188D01*
X43530000Y12931928D01*
X44330000Y12931928D01*
X44454482Y12944188D01*
X44574180Y12980498D01*
X44646435Y13019120D01*
X44666324Y12953554D01*
X44701125Y12888446D01*
X44771717Y12756377D01*
X44913552Y12583551D01*
X44956860Y12548009D01*
X45148371Y12356498D01*
X44580750Y12355000D01*
X44422000Y12196250D01*
X44422000Y10922000D01*
X46221250Y10922000D01*
X46351962Y11052712D01*
X46365000Y11051428D01*
X46815000Y11051428D01*
X46915000Y11061277D01*
X47015000Y11051428D01*
X47465000Y11051428D01*
X47568122Y11061584D01*
X47633250Y11054500D01*
X47665497Y11086747D01*
X47709180Y11099998D01*
X47819494Y11158963D01*
X47890277Y11217053D01*
X47952747Y11164230D01*
X48062183Y11103651D01*
X48114225Y11087025D01*
X48146750Y11054500D01*
X48215000Y11061924D01*
X48283250Y11054500D01*
X48315775Y11087025D01*
X48367817Y11103651D01*
X48477253Y11164230D01*
X48539723Y11217053D01*
X48610506Y11158963D01*
X48720820Y11099998D01*
X48764503Y11086747D01*
X48796750Y11054500D01*
X48861878Y11061584D01*
X48965000Y11051428D01*
X49415000Y11051428D01*
X49515000Y11061277D01*
X49615000Y11051428D01*
X50065000Y11051428D01*
X50165000Y11061277D01*
X50265000Y11051428D01*
X50715000Y11051428D01*
X50815000Y11061277D01*
X50915000Y11051428D01*
X51365000Y11051428D01*
X51468122Y11061584D01*
X51533250Y11054500D01*
X51565497Y11086747D01*
X51609180Y11099998D01*
X51719494Y11158963D01*
X51790277Y11217053D01*
X51852747Y11164230D01*
X51962183Y11103651D01*
X52014225Y11087025D01*
X52046750Y11054500D01*
X52115000Y11061924D01*
X52183250Y11054500D01*
X52215775Y11087025D01*
X52267817Y11103651D01*
X52377253Y11164230D01*
X52439723Y11217053D01*
X52510506Y11158963D01*
X52620820Y11099998D01*
X52664503Y11086747D01*
X52696750Y11054500D01*
X52761878Y11061584D01*
X52865000Y11051428D01*
X53315000Y11051428D01*
X53415000Y11061277D01*
X53515000Y11051428D01*
X53965000Y11051428D01*
X54089482Y11063688D01*
X54209180Y11099998D01*
X54319494Y11158963D01*
X54416185Y11238315D01*
X54495537Y11335006D01*
X54554502Y11445320D01*
X54590812Y11565018D01*
X54603072Y11689500D01*
X54603072Y11722941D01*
X54953134Y12073003D01*
X54996448Y12108550D01*
X55138283Y12281376D01*
X55220000Y12434259D01*
X55220001Y660000D01*
X660000Y660000D01*
X660000Y16090000D01*
X1051928Y16090000D01*
X1055000Y15525750D01*
X1213750Y15367000D01*
X2413000Y15367000D01*
X2413000Y16566250D01*
X2254250Y16725000D01*
X1690000Y16728072D01*
X1565518Y16715812D01*
X1445820Y16679502D01*
X1335506Y16620537D01*
X1238815Y16541185D01*
X1159463Y16444494D01*
X1100498Y16334180D01*
X1064188Y16214482D01*
X1051928Y16090000D01*
X660000Y16090000D01*
X660000Y17120000D01*
X3104388Y17120000D01*
X3050498Y17019180D01*
G37*
%TD.AperFunction*%
D22*
X8862000Y5842000D02*
X8882000Y5842000D01*
X8882000Y5588000D01*
X8862000Y5588000D01*
X8862000Y5568000D01*
X8608000Y5568000D01*
X8608000Y5588000D01*
X8588000Y5588000D01*
X8588000Y5842000D01*
X8608000Y5842000D01*
X8608000Y5862000D01*
X8862000Y5862000D01*
X8862000Y5842000D01*
%TA.AperFunction,Conductor*%
D23*
G36*
X8862000Y5842000D02*
G01*
X8882000Y5842000D01*
X8882000Y5588000D01*
X8862000Y5588000D01*
X8862000Y5568000D01*
X8608000Y5568000D01*
X8608000Y5588000D01*
X8588000Y5588000D01*
X8588000Y5842000D01*
X8608000Y5842000D01*
X8608000Y5862000D01*
X8862000Y5862000D01*
X8862000Y5842000D01*
G37*
%TD.AperFunction*%
D22*
X26642000Y5842000D02*
X26662000Y5842000D01*
X26662000Y5588000D01*
X26642000Y5588000D01*
X26642000Y5568000D01*
X26388000Y5568000D01*
X26388000Y5588000D01*
X26368000Y5588000D01*
X26368000Y5842000D01*
X26388000Y5842000D01*
X26388000Y5862000D01*
X26642000Y5862000D01*
X26642000Y5842000D01*
%TA.AperFunction,Conductor*%
D23*
G36*
X26642000Y5842000D02*
G01*
X26662000Y5842000D01*
X26662000Y5588000D01*
X26642000Y5588000D01*
X26642000Y5568000D01*
X26388000Y5568000D01*
X26388000Y5588000D01*
X26368000Y5588000D01*
X26368000Y5842000D01*
X26388000Y5842000D01*
X26388000Y5862000D01*
X26642000Y5862000D01*
X26642000Y5842000D01*
G37*
%TD.AperFunction*%
D22*
X44422000Y5842000D02*
X44442000Y5842000D01*
X44442000Y5588000D01*
X44422000Y5588000D01*
X44422000Y5568000D01*
X44168000Y5568000D01*
X44168000Y5588000D01*
X44148000Y5588000D01*
X44148000Y5842000D01*
X44168000Y5842000D01*
X44168000Y5862000D01*
X44422000Y5862000D01*
X44422000Y5842000D01*
%TA.AperFunction,Conductor*%
D23*
G36*
X44422000Y5842000D02*
G01*
X44442000Y5842000D01*
X44442000Y5588000D01*
X44422000Y5588000D01*
X44422000Y5568000D01*
X44168000Y5568000D01*
X44168000Y5588000D01*
X44148000Y5588000D01*
X44148000Y5842000D01*
X44168000Y5842000D01*
X44168000Y5862000D01*
X44422000Y5862000D01*
X44422000Y5842000D01*
G37*
%TD.AperFunction*%
D22*
X37609744Y13052795D02*
X37798102Y12974774D01*
X37998061Y12935000D01*
X38201939Y12935000D01*
X38401898Y12974774D01*
X38590256Y13052795D01*
X38638454Y13085000D01*
X38904315Y13085000D01*
X38896928Y13010000D01*
X38900000Y12920750D01*
X39058750Y12762000D01*
X39878000Y12762000D01*
X39878000Y12782000D01*
X40040002Y12782000D01*
X40040002Y12488000D01*
X39878000Y12488000D01*
X39878000Y12508000D01*
X39058750Y12508000D01*
X38900000Y12349250D01*
X38896928Y12260000D01*
X38904788Y12180191D01*
X38893815Y12171185D01*
X38814463Y12074494D01*
X38755498Y11964180D01*
X38719188Y11844482D01*
X38706928Y11720000D01*
X38706928Y9870000D01*
X38719188Y9745518D01*
X38755498Y9625820D01*
X38814463Y9515506D01*
X38893815Y9418815D01*
X38904788Y9409809D01*
X38896928Y9330000D01*
X38900000Y9240750D01*
X39058750Y9082000D01*
X39878000Y9082000D01*
X39878000Y9102000D01*
X40132000Y9102000D01*
X40132000Y9082000D01*
X40951250Y9082000D01*
X41101178Y9231928D01*
X41106494Y9231928D01*
X41648421Y8690000D01*
X41089250Y8690000D01*
X40951250Y8828000D01*
X40132000Y8828000D01*
X40132000Y8808000D01*
X39878000Y8808000D01*
X39878000Y8828000D01*
X39058750Y8828000D01*
X38900000Y8669250D01*
X38896928Y8580000D01*
X38909188Y8455518D01*
X38945498Y8335820D01*
X38988698Y8255000D01*
X38945498Y8174180D01*
X38909188Y8054482D01*
X38896928Y7930000D01*
X38896928Y7812129D01*
X38886423Y7777499D01*
X38864509Y7555000D01*
X38870000Y7499248D01*
X38870000Y7062166D01*
X38814463Y6994494D01*
X38755498Y6884180D01*
X38745130Y6850000D01*
X38044248Y6850000D01*
X37877501Y6833577D01*
X37663553Y6768676D01*
X37466377Y6663284D01*
X37370001Y6584190D01*
X37370001Y6594760D01*
X37375491Y6650502D01*
X37370001Y6706244D01*
X37370001Y6706253D01*
X37353578Y6873000D01*
X37288677Y7086948D01*
X37183285Y7284124D01*
X37041450Y7456950D01*
X36998141Y7492493D01*
X35642497Y8848136D01*
X35606950Y8891450D01*
X35434124Y9033285D01*
X35236948Y9138677D01*
X35023000Y9203578D01*
X34856253Y9220001D01*
X34856252Y9220001D01*
X34800501Y9225492D01*
X34744750Y9220001D01*
X28895755Y9220001D01*
X28840003Y9225492D01*
X28784251Y9220001D01*
X28617504Y9203578D01*
X28403556Y9138677D01*
X28206380Y9033285D01*
X28033554Y8891450D01*
X27998011Y8848141D01*
X27839870Y8690000D01*
X27050495Y8690000D01*
X27070000Y8788061D01*
X27070000Y8991939D01*
X27030226Y9191898D01*
X27012604Y9234441D01*
X27965000Y9231928D01*
X28089482Y9244188D01*
X28209180Y9280498D01*
X28319494Y9339463D01*
X28416185Y9418815D01*
X28495537Y9515506D01*
X28554502Y9625820D01*
X28590812Y9745518D01*
X28603072Y9870000D01*
X28600000Y10509250D01*
X28441250Y10668000D01*
X26642000Y10668000D01*
X26642000Y10648000D01*
X26388000Y10648000D01*
X26388000Y10668000D01*
X26368000Y10668000D01*
X26368000Y10922000D01*
X26388000Y10922000D01*
X26388000Y12196250D01*
X26229250Y12355000D01*
X25532076Y12356840D01*
X25535000Y12386523D01*
X25535000Y12386533D01*
X25539281Y12429999D01*
X25535000Y12473465D01*
X25535000Y12971646D01*
X25625518Y12944188D01*
X25750000Y12931928D01*
X26550000Y12931928D01*
X26674482Y12944188D01*
X26794180Y12980498D01*
X26866435Y13019120D01*
X26886324Y12953554D01*
X26921125Y12888446D01*
X26991717Y12756377D01*
X27133552Y12583551D01*
X27176860Y12548009D01*
X27368371Y12356498D01*
X26800750Y12355000D01*
X26642000Y12196250D01*
X26642000Y10922000D01*
X28441250Y10922000D01*
X28571962Y11052712D01*
X28585000Y11051428D01*
X29035000Y11051428D01*
X29135000Y11061277D01*
X29235000Y11051428D01*
X29685000Y11051428D01*
X29788122Y11061584D01*
X29853250Y11054500D01*
X29885497Y11086747D01*
X29929180Y11099998D01*
X30039494Y11158963D01*
X30110277Y11217053D01*
X30172747Y11164230D01*
X30282183Y11103651D01*
X30334225Y11087025D01*
X30366750Y11054500D01*
X30435000Y11061924D01*
X30503250Y11054500D01*
X30535775Y11087025D01*
X30587817Y11103651D01*
X30697253Y11164230D01*
X30759723Y11217053D01*
X30830506Y11158963D01*
X30940820Y11099998D01*
X30984503Y11086747D01*
X31016750Y11054500D01*
X31081878Y11061584D01*
X31185000Y11051428D01*
X31635000Y11051428D01*
X31735000Y11061277D01*
X31835000Y11051428D01*
X32285000Y11051428D01*
X32385000Y11061277D01*
X32485000Y11051428D01*
X32935000Y11051428D01*
X33035000Y11061277D01*
X33135000Y11051428D01*
X33585000Y11051428D01*
X33688122Y11061584D01*
X33753250Y11054500D01*
X33785497Y11086747D01*
X33829180Y11099998D01*
X33939494Y11158963D01*
X34010277Y11217053D01*
X34072747Y11164230D01*
X34182183Y11103651D01*
X34234225Y11087025D01*
X34266750Y11054500D01*
X34335000Y11061924D01*
X34403250Y11054500D01*
X34435775Y11087025D01*
X34487817Y11103651D01*
X34597253Y11164230D01*
X34659723Y11217053D01*
X34730506Y11158963D01*
X34840820Y11099998D01*
X34884503Y11086747D01*
X34916750Y11054500D01*
X34981878Y11061584D01*
X35085000Y11051428D01*
X35535000Y11051428D01*
X35635000Y11061277D01*
X35735000Y11051428D01*
X36185000Y11051428D01*
X36309482Y11063688D01*
X36429180Y11099998D01*
X36539494Y11158963D01*
X36636185Y11238315D01*
X36715537Y11335006D01*
X36774502Y11445320D01*
X36810812Y11565018D01*
X36823072Y11689500D01*
X36823072Y11722941D01*
X37173134Y12073003D01*
X37216448Y12108550D01*
X37358283Y12281376D01*
X37463675Y12478552D01*
X37528576Y12692500D01*
X37544999Y12859247D01*
X37544999Y12859256D01*
X37550489Y12914998D01*
X37544999Y12970740D01*
X37544999Y13096056D01*
X37609744Y13052795D01*
%TA.AperFunction,Conductor*%
D23*
G36*
X37609744Y13052795D02*
G01*
X37798102Y12974774D01*
X37998061Y12935000D01*
X38201939Y12935000D01*
X38401898Y12974774D01*
X38590256Y13052795D01*
X38638454Y13085000D01*
X38904315Y13085000D01*
X38896928Y13010000D01*
X38900000Y12920750D01*
X39058750Y12762000D01*
X39878000Y12762000D01*
X39878000Y12782000D01*
X40040002Y12782000D01*
X40040002Y12488000D01*
X39878000Y12488000D01*
X39878000Y12508000D01*
X39058750Y12508000D01*
X38900000Y12349250D01*
X38896928Y12260000D01*
X38904788Y12180191D01*
X38893815Y12171185D01*
X38814463Y12074494D01*
X38755498Y11964180D01*
X38719188Y11844482D01*
X38706928Y11720000D01*
X38706928Y9870000D01*
X38719188Y9745518D01*
X38755498Y9625820D01*
X38814463Y9515506D01*
X38893815Y9418815D01*
X38904788Y9409809D01*
X38896928Y9330000D01*
X38900000Y9240750D01*
X39058750Y9082000D01*
X39878000Y9082000D01*
X39878000Y9102000D01*
X40132000Y9102000D01*
X40132000Y9082000D01*
X40951250Y9082000D01*
X41101178Y9231928D01*
X41106494Y9231928D01*
X41648421Y8690000D01*
X41089250Y8690000D01*
X40951250Y8828000D01*
X40132000Y8828000D01*
X40132000Y8808000D01*
X39878000Y8808000D01*
X39878000Y8828000D01*
X39058750Y8828000D01*
X38900000Y8669250D01*
X38896928Y8580000D01*
X38909188Y8455518D01*
X38945498Y8335820D01*
X38988698Y8255000D01*
X38945498Y8174180D01*
X38909188Y8054482D01*
X38896928Y7930000D01*
X38896928Y7812129D01*
X38886423Y7777499D01*
X38864509Y7555000D01*
X38870000Y7499248D01*
X38870000Y7062166D01*
X38814463Y6994494D01*
X38755498Y6884180D01*
X38745130Y6850000D01*
X38044248Y6850000D01*
X37877501Y6833577D01*
X37663553Y6768676D01*
X37466377Y6663284D01*
X37370001Y6584190D01*
X37370001Y6594760D01*
X37375491Y6650502D01*
X37370001Y6706244D01*
X37370001Y6706253D01*
X37353578Y6873000D01*
X37288677Y7086948D01*
X37183285Y7284124D01*
X37041450Y7456950D01*
X36998141Y7492493D01*
X35642497Y8848136D01*
X35606950Y8891450D01*
X35434124Y9033285D01*
X35236948Y9138677D01*
X35023000Y9203578D01*
X34856253Y9220001D01*
X34856252Y9220001D01*
X34800501Y9225492D01*
X34744750Y9220001D01*
X28895755Y9220001D01*
X28840003Y9225492D01*
X28784251Y9220001D01*
X28617504Y9203578D01*
X28403556Y9138677D01*
X28206380Y9033285D01*
X28033554Y8891450D01*
X27998011Y8848141D01*
X27839870Y8690000D01*
X27050495Y8690000D01*
X27070000Y8788061D01*
X27070000Y8991939D01*
X27030226Y9191898D01*
X27012604Y9234441D01*
X27965000Y9231928D01*
X28089482Y9244188D01*
X28209180Y9280498D01*
X28319494Y9339463D01*
X28416185Y9418815D01*
X28495537Y9515506D01*
X28554502Y9625820D01*
X28590812Y9745518D01*
X28603072Y9870000D01*
X28600000Y10509250D01*
X28441250Y10668000D01*
X26642000Y10668000D01*
X26642000Y10648000D01*
X26388000Y10648000D01*
X26388000Y10668000D01*
X26368000Y10668000D01*
X26368000Y10922000D01*
X26388000Y10922000D01*
X26388000Y12196250D01*
X26229250Y12355000D01*
X25532076Y12356840D01*
X25535000Y12386523D01*
X25535000Y12386533D01*
X25539281Y12429999D01*
X25535000Y12473465D01*
X25535000Y12971646D01*
X25625518Y12944188D01*
X25750000Y12931928D01*
X26550000Y12931928D01*
X26674482Y12944188D01*
X26794180Y12980498D01*
X26866435Y13019120D01*
X26886324Y12953554D01*
X26921125Y12888446D01*
X26991717Y12756377D01*
X27133552Y12583551D01*
X27176860Y12548009D01*
X27368371Y12356498D01*
X26800750Y12355000D01*
X26642000Y12196250D01*
X26642000Y10922000D01*
X28441250Y10922000D01*
X28571962Y11052712D01*
X28585000Y11051428D01*
X29035000Y11051428D01*
X29135000Y11061277D01*
X29235000Y11051428D01*
X29685000Y11051428D01*
X29788122Y11061584D01*
X29853250Y11054500D01*
X29885497Y11086747D01*
X29929180Y11099998D01*
X30039494Y11158963D01*
X30110277Y11217053D01*
X30172747Y11164230D01*
X30282183Y11103651D01*
X30334225Y11087025D01*
X30366750Y11054500D01*
X30435000Y11061924D01*
X30503250Y11054500D01*
X30535775Y11087025D01*
X30587817Y11103651D01*
X30697253Y11164230D01*
X30759723Y11217053D01*
X30830506Y11158963D01*
X30940820Y11099998D01*
X30984503Y11086747D01*
X31016750Y11054500D01*
X31081878Y11061584D01*
X31185000Y11051428D01*
X31635000Y11051428D01*
X31735000Y11061277D01*
X31835000Y11051428D01*
X32285000Y11051428D01*
X32385000Y11061277D01*
X32485000Y11051428D01*
X32935000Y11051428D01*
X33035000Y11061277D01*
X33135000Y11051428D01*
X33585000Y11051428D01*
X33688122Y11061584D01*
X33753250Y11054500D01*
X33785497Y11086747D01*
X33829180Y11099998D01*
X33939494Y11158963D01*
X34010277Y11217053D01*
X34072747Y11164230D01*
X34182183Y11103651D01*
X34234225Y11087025D01*
X34266750Y11054500D01*
X34335000Y11061924D01*
X34403250Y11054500D01*
X34435775Y11087025D01*
X34487817Y11103651D01*
X34597253Y11164230D01*
X34659723Y11217053D01*
X34730506Y11158963D01*
X34840820Y11099998D01*
X34884503Y11086747D01*
X34916750Y11054500D01*
X34981878Y11061584D01*
X35085000Y11051428D01*
X35535000Y11051428D01*
X35635000Y11061277D01*
X35735000Y11051428D01*
X36185000Y11051428D01*
X36309482Y11063688D01*
X36429180Y11099998D01*
X36539494Y11158963D01*
X36636185Y11238315D01*
X36715537Y11335006D01*
X36774502Y11445320D01*
X36810812Y11565018D01*
X36823072Y11689500D01*
X36823072Y11722941D01*
X37173134Y12073003D01*
X37216448Y12108550D01*
X37358283Y12281376D01*
X37463675Y12478552D01*
X37528576Y12692500D01*
X37544999Y12859247D01*
X37544999Y12859256D01*
X37550489Y12914998D01*
X37544999Y12970740D01*
X37544999Y13096056D01*
X37609744Y13052795D01*
G37*
%TD.AperFunction*%
D22*
X19829744Y13052795D02*
X20018102Y12974774D01*
X20218061Y12935000D01*
X20421939Y12935000D01*
X20621898Y12974774D01*
X20810256Y13052795D01*
X20858454Y13085000D01*
X21124315Y13085000D01*
X21116928Y13010000D01*
X21120000Y12920750D01*
X21278750Y12762000D01*
X22098000Y12762000D01*
X22098000Y12782000D01*
X22260002Y12782000D01*
X22260002Y12488000D01*
X22098000Y12488000D01*
X22098000Y12508000D01*
X21278750Y12508000D01*
X21120000Y12349250D01*
X21116928Y12260000D01*
X21124788Y12180191D01*
X21113815Y12171185D01*
X21034463Y12074494D01*
X20975498Y11964180D01*
X20939188Y11844482D01*
X20926928Y11720000D01*
X20926928Y9870000D01*
X20939188Y9745518D01*
X20975498Y9625820D01*
X21034463Y9515506D01*
X21113815Y9418815D01*
X21124788Y9409809D01*
X21116928Y9330000D01*
X21120000Y9240750D01*
X21278750Y9082000D01*
X22098000Y9082000D01*
X22098000Y9102000D01*
X22352000Y9102000D01*
X22352000Y9082000D01*
X23171250Y9082000D01*
X23321178Y9231928D01*
X23326494Y9231928D01*
X23868421Y8690000D01*
X23309250Y8690000D01*
X23171250Y8828000D01*
X22352000Y8828000D01*
X22352000Y8808000D01*
X22098000Y8808000D01*
X22098000Y8828000D01*
X21278750Y8828000D01*
X21120000Y8669250D01*
X21116928Y8580000D01*
X21129188Y8455518D01*
X21165498Y8335820D01*
X21208698Y8255000D01*
X21165498Y8174180D01*
X21129188Y8054482D01*
X21116928Y7930000D01*
X21116928Y7812129D01*
X21106423Y7777499D01*
X21084509Y7555000D01*
X21090000Y7499248D01*
X21090000Y7062166D01*
X21034463Y6994494D01*
X20975498Y6884180D01*
X20965130Y6850000D01*
X20264248Y6850000D01*
X20097501Y6833577D01*
X19883553Y6768676D01*
X19686377Y6663284D01*
X19590001Y6584190D01*
X19590001Y6594760D01*
X19595491Y6650502D01*
X19590001Y6706244D01*
X19590001Y6706253D01*
X19573578Y6873000D01*
X19508677Y7086948D01*
X19403285Y7284124D01*
X19261450Y7456950D01*
X19218141Y7492493D01*
X17862497Y8848136D01*
X17826950Y8891450D01*
X17654124Y9033285D01*
X17456948Y9138677D01*
X17243000Y9203578D01*
X17076253Y9220001D01*
X17076252Y9220001D01*
X17020501Y9225492D01*
X16964750Y9220001D01*
X11115755Y9220001D01*
X11060003Y9225492D01*
X11004251Y9220001D01*
X10837504Y9203578D01*
X10623556Y9138677D01*
X10426380Y9033285D01*
X10253554Y8891450D01*
X10218011Y8848141D01*
X10059870Y8690000D01*
X9270495Y8690000D01*
X9290000Y8788061D01*
X9290000Y8991939D01*
X9250226Y9191898D01*
X9232604Y9234441D01*
X10185000Y9231928D01*
X10309482Y9244188D01*
X10429180Y9280498D01*
X10539494Y9339463D01*
X10636185Y9418815D01*
X10715537Y9515506D01*
X10774502Y9625820D01*
X10810812Y9745518D01*
X10823072Y9870000D01*
X10820000Y10509250D01*
X10661250Y10668000D01*
X8862000Y10668000D01*
X8862000Y10648000D01*
X8608000Y10648000D01*
X8608000Y10668000D01*
X8588000Y10668000D01*
X8588000Y10922000D01*
X8608000Y10922000D01*
X8608000Y12196250D01*
X8449250Y12355000D01*
X7752076Y12356840D01*
X7755000Y12386523D01*
X7755000Y12386533D01*
X7759281Y12429999D01*
X7755000Y12473465D01*
X7755000Y12971646D01*
X7845518Y12944188D01*
X7970000Y12931928D01*
X8770000Y12931928D01*
X8894482Y12944188D01*
X9014180Y12980498D01*
X9086435Y13019120D01*
X9106324Y12953554D01*
X9141125Y12888446D01*
X9211717Y12756377D01*
X9353552Y12583551D01*
X9396860Y12548009D01*
X9588371Y12356498D01*
X9020750Y12355000D01*
X8862000Y12196250D01*
X8862000Y10922000D01*
X10661250Y10922000D01*
X10791962Y11052712D01*
X10805000Y11051428D01*
X11255000Y11051428D01*
X11355000Y11061277D01*
X11455000Y11051428D01*
X11905000Y11051428D01*
X12008122Y11061584D01*
X12073250Y11054500D01*
X12105497Y11086747D01*
X12149180Y11099998D01*
X12259494Y11158963D01*
X12330277Y11217053D01*
X12392747Y11164230D01*
X12502183Y11103651D01*
X12554225Y11087025D01*
X12586750Y11054500D01*
X12655000Y11061924D01*
X12723250Y11054500D01*
X12755775Y11087025D01*
X12807817Y11103651D01*
X12917253Y11164230D01*
X12979723Y11217053D01*
X13050506Y11158963D01*
X13160820Y11099998D01*
X13204503Y11086747D01*
X13236750Y11054500D01*
X13301878Y11061584D01*
X13405000Y11051428D01*
X13855000Y11051428D01*
X13955000Y11061277D01*
X14055000Y11051428D01*
X14505000Y11051428D01*
X14605000Y11061277D01*
X14705000Y11051428D01*
X15155000Y11051428D01*
X15255000Y11061277D01*
X15355000Y11051428D01*
X15805000Y11051428D01*
X15908122Y11061584D01*
X15973250Y11054500D01*
X16005497Y11086747D01*
X16049180Y11099998D01*
X16159494Y11158963D01*
X16230277Y11217053D01*
X16292747Y11164230D01*
X16402183Y11103651D01*
X16454225Y11087025D01*
X16486750Y11054500D01*
X16555000Y11061924D01*
X16623250Y11054500D01*
X16655775Y11087025D01*
X16707817Y11103651D01*
X16817253Y11164230D01*
X16879723Y11217053D01*
X16950506Y11158963D01*
X17060820Y11099998D01*
X17104503Y11086747D01*
X17136750Y11054500D01*
X17201878Y11061584D01*
X17305000Y11051428D01*
X17755000Y11051428D01*
X17855000Y11061277D01*
X17955000Y11051428D01*
X18405000Y11051428D01*
X18529482Y11063688D01*
X18649180Y11099998D01*
X18759494Y11158963D01*
X18856185Y11238315D01*
X18935537Y11335006D01*
X18994502Y11445320D01*
X19030812Y11565018D01*
X19043072Y11689500D01*
X19043072Y11722941D01*
X19393134Y12073003D01*
X19436448Y12108550D01*
X19578283Y12281376D01*
X19683675Y12478552D01*
X19748576Y12692500D01*
X19764999Y12859247D01*
X19764999Y12859256D01*
X19770489Y12914998D01*
X19764999Y12970740D01*
X19764999Y13096056D01*
X19829744Y13052795D01*
%TA.AperFunction,Conductor*%
D23*
G36*
X19829744Y13052795D02*
G01*
X20018102Y12974774D01*
X20218061Y12935000D01*
X20421939Y12935000D01*
X20621898Y12974774D01*
X20810256Y13052795D01*
X20858454Y13085000D01*
X21124315Y13085000D01*
X21116928Y13010000D01*
X21120000Y12920750D01*
X21278750Y12762000D01*
X22098000Y12762000D01*
X22098000Y12782000D01*
X22260002Y12782000D01*
X22260002Y12488000D01*
X22098000Y12488000D01*
X22098000Y12508000D01*
X21278750Y12508000D01*
X21120000Y12349250D01*
X21116928Y12260000D01*
X21124788Y12180191D01*
X21113815Y12171185D01*
X21034463Y12074494D01*
X20975498Y11964180D01*
X20939188Y11844482D01*
X20926928Y11720000D01*
X20926928Y9870000D01*
X20939188Y9745518D01*
X20975498Y9625820D01*
X21034463Y9515506D01*
X21113815Y9418815D01*
X21124788Y9409809D01*
X21116928Y9330000D01*
X21120000Y9240750D01*
X21278750Y9082000D01*
X22098000Y9082000D01*
X22098000Y9102000D01*
X22352000Y9102000D01*
X22352000Y9082000D01*
X23171250Y9082000D01*
X23321178Y9231928D01*
X23326494Y9231928D01*
X23868421Y8690000D01*
X23309250Y8690000D01*
X23171250Y8828000D01*
X22352000Y8828000D01*
X22352000Y8808000D01*
X22098000Y8808000D01*
X22098000Y8828000D01*
X21278750Y8828000D01*
X21120000Y8669250D01*
X21116928Y8580000D01*
X21129188Y8455518D01*
X21165498Y8335820D01*
X21208698Y8255000D01*
X21165498Y8174180D01*
X21129188Y8054482D01*
X21116928Y7930000D01*
X21116928Y7812129D01*
X21106423Y7777499D01*
X21084509Y7555000D01*
X21090000Y7499248D01*
X21090000Y7062166D01*
X21034463Y6994494D01*
X20975498Y6884180D01*
X20965130Y6850000D01*
X20264248Y6850000D01*
X20097501Y6833577D01*
X19883553Y6768676D01*
X19686377Y6663284D01*
X19590001Y6584190D01*
X19590001Y6594760D01*
X19595491Y6650502D01*
X19590001Y6706244D01*
X19590001Y6706253D01*
X19573578Y6873000D01*
X19508677Y7086948D01*
X19403285Y7284124D01*
X19261450Y7456950D01*
X19218141Y7492493D01*
X17862497Y8848136D01*
X17826950Y8891450D01*
X17654124Y9033285D01*
X17456948Y9138677D01*
X17243000Y9203578D01*
X17076253Y9220001D01*
X17076252Y9220001D01*
X17020501Y9225492D01*
X16964750Y9220001D01*
X11115755Y9220001D01*
X11060003Y9225492D01*
X11004251Y9220001D01*
X10837504Y9203578D01*
X10623556Y9138677D01*
X10426380Y9033285D01*
X10253554Y8891450D01*
X10218011Y8848141D01*
X10059870Y8690000D01*
X9270495Y8690000D01*
X9290000Y8788061D01*
X9290000Y8991939D01*
X9250226Y9191898D01*
X9232604Y9234441D01*
X10185000Y9231928D01*
X10309482Y9244188D01*
X10429180Y9280498D01*
X10539494Y9339463D01*
X10636185Y9418815D01*
X10715537Y9515506D01*
X10774502Y9625820D01*
X10810812Y9745518D01*
X10823072Y9870000D01*
X10820000Y10509250D01*
X10661250Y10668000D01*
X8862000Y10668000D01*
X8862000Y10648000D01*
X8608000Y10648000D01*
X8608000Y10668000D01*
X8588000Y10668000D01*
X8588000Y10922000D01*
X8608000Y10922000D01*
X8608000Y12196250D01*
X8449250Y12355000D01*
X7752076Y12356840D01*
X7755000Y12386523D01*
X7755000Y12386533D01*
X7759281Y12429999D01*
X7755000Y12473465D01*
X7755000Y12971646D01*
X7845518Y12944188D01*
X7970000Y12931928D01*
X8770000Y12931928D01*
X8894482Y12944188D01*
X9014180Y12980498D01*
X9086435Y13019120D01*
X9106324Y12953554D01*
X9141125Y12888446D01*
X9211717Y12756377D01*
X9353552Y12583551D01*
X9396860Y12548009D01*
X9588371Y12356498D01*
X9020750Y12355000D01*
X8862000Y12196250D01*
X8862000Y10922000D01*
X10661250Y10922000D01*
X10791962Y11052712D01*
X10805000Y11051428D01*
X11255000Y11051428D01*
X11355000Y11061277D01*
X11455000Y11051428D01*
X11905000Y11051428D01*
X12008122Y11061584D01*
X12073250Y11054500D01*
X12105497Y11086747D01*
X12149180Y11099998D01*
X12259494Y11158963D01*
X12330277Y11217053D01*
X12392747Y11164230D01*
X12502183Y11103651D01*
X12554225Y11087025D01*
X12586750Y11054500D01*
X12655000Y11061924D01*
X12723250Y11054500D01*
X12755775Y11087025D01*
X12807817Y11103651D01*
X12917253Y11164230D01*
X12979723Y11217053D01*
X13050506Y11158963D01*
X13160820Y11099998D01*
X13204503Y11086747D01*
X13236750Y11054500D01*
X13301878Y11061584D01*
X13405000Y11051428D01*
X13855000Y11051428D01*
X13955000Y11061277D01*
X14055000Y11051428D01*
X14505000Y11051428D01*
X14605000Y11061277D01*
X14705000Y11051428D01*
X15155000Y11051428D01*
X15255000Y11061277D01*
X15355000Y11051428D01*
X15805000Y11051428D01*
X15908122Y11061584D01*
X15973250Y11054500D01*
X16005497Y11086747D01*
X16049180Y11099998D01*
X16159494Y11158963D01*
X16230277Y11217053D01*
X16292747Y11164230D01*
X16402183Y11103651D01*
X16454225Y11087025D01*
X16486750Y11054500D01*
X16555000Y11061924D01*
X16623250Y11054500D01*
X16655775Y11087025D01*
X16707817Y11103651D01*
X16817253Y11164230D01*
X16879723Y11217053D01*
X16950506Y11158963D01*
X17060820Y11099998D01*
X17104503Y11086747D01*
X17136750Y11054500D01*
X17201878Y11061584D01*
X17305000Y11051428D01*
X17755000Y11051428D01*
X17855000Y11061277D01*
X17955000Y11051428D01*
X18405000Y11051428D01*
X18529482Y11063688D01*
X18649180Y11099998D01*
X18759494Y11158963D01*
X18856185Y11238315D01*
X18935537Y11335006D01*
X18994502Y11445320D01*
X19030812Y11565018D01*
X19043072Y11689500D01*
X19043072Y11722941D01*
X19393134Y12073003D01*
X19436448Y12108550D01*
X19578283Y12281376D01*
X19683675Y12478552D01*
X19748576Y12692500D01*
X19764999Y12859247D01*
X19764999Y12859256D01*
X19770489Y12914998D01*
X19764999Y12970740D01*
X19764999Y13096056D01*
X19829744Y13052795D01*
G37*
%TD.AperFunction*%
D22*
X49765000Y6883061D02*
X49796341Y6725500D01*
X49712998Y6725500D01*
X49712998Y6651235D01*
X49659180Y6680002D01*
X49615497Y6693253D01*
X49583250Y6725500D01*
X49518122Y6718416D01*
X49415000Y6728572D01*
X49264270Y6728572D01*
X49295000Y6883061D01*
X49295000Y6950001D01*
X49765000Y6950001D01*
X49765000Y6883061D01*
%TA.AperFunction,Conductor*%
D23*
G36*
X49765000Y6883061D02*
G01*
X49796341Y6725500D01*
X49712998Y6725500D01*
X49712998Y6651235D01*
X49659180Y6680002D01*
X49615497Y6693253D01*
X49583250Y6725500D01*
X49518122Y6718416D01*
X49415000Y6728572D01*
X49264270Y6728572D01*
X49295000Y6883061D01*
X49295000Y6950001D01*
X49765000Y6950001D01*
X49765000Y6883061D01*
G37*
%TD.AperFunction*%
D22*
X31985000Y6883061D02*
X32016341Y6725500D01*
X31932998Y6725500D01*
X31932998Y6651235D01*
X31879180Y6680002D01*
X31835497Y6693253D01*
X31803250Y6725500D01*
X31738122Y6718416D01*
X31635000Y6728572D01*
X31484270Y6728572D01*
X31515000Y6883061D01*
X31515000Y6950001D01*
X31985000Y6950001D01*
X31985000Y6883061D01*
%TA.AperFunction,Conductor*%
D23*
G36*
X31985000Y6883061D02*
G01*
X32016341Y6725500D01*
X31932998Y6725500D01*
X31932998Y6651235D01*
X31879180Y6680002D01*
X31835497Y6693253D01*
X31803250Y6725500D01*
X31738122Y6718416D01*
X31635000Y6728572D01*
X31484270Y6728572D01*
X31515000Y6883061D01*
X31515000Y6950001D01*
X31985000Y6950001D01*
X31985000Y6883061D01*
G37*
%TD.AperFunction*%
D22*
X14205000Y6883061D02*
X14236341Y6725500D01*
X14152998Y6725500D01*
X14152998Y6651235D01*
X14099180Y6680002D01*
X14055497Y6693253D01*
X14023250Y6725500D01*
X13958122Y6718416D01*
X13855000Y6728572D01*
X13704270Y6728572D01*
X13735000Y6883061D01*
X13735000Y6950001D01*
X14205000Y6950001D01*
X14205000Y6883061D01*
%TA.AperFunction,Conductor*%
D23*
G36*
X14205000Y6883061D02*
G01*
X14236341Y6725500D01*
X14152998Y6725500D01*
X14152998Y6651235D01*
X14099180Y6680002D01*
X14055497Y6693253D01*
X14023250Y6725500D01*
X13958122Y6718416D01*
X13855000Y6728572D01*
X13704270Y6728572D01*
X13735000Y6883061D01*
X13735000Y6950001D01*
X14205000Y6950001D01*
X14205000Y6883061D01*
G37*
%TD.AperFunction*%
D22*
X6088421Y8690000D02*
X5529250Y8690000D01*
X5391250Y8828000D01*
X4572000Y8828000D01*
X4572000Y8808000D01*
X4318000Y8808000D01*
X4318000Y8828000D01*
X4298000Y8828000D01*
X4298000Y9082000D01*
X4318000Y9082000D01*
X4318000Y9102000D01*
X4572000Y9102000D01*
X4572000Y9082000D01*
X5391250Y9082000D01*
X5541178Y9231928D01*
X5546494Y9231928D01*
X6088421Y8690000D01*
%TA.AperFunction,Conductor*%
D23*
G36*
X6088421Y8690000D02*
G01*
X5529250Y8690000D01*
X5391250Y8828000D01*
X4572000Y8828000D01*
X4572000Y8808000D01*
X4318000Y8808000D01*
X4318000Y8828000D01*
X4298000Y8828000D01*
X4298000Y9082000D01*
X4318000Y9082000D01*
X4318000Y9102000D01*
X4572000Y9102000D01*
X4572000Y9082000D01*
X5391250Y9082000D01*
X5541178Y9231928D01*
X5546494Y9231928D01*
X6088421Y8690000D01*
G37*
%TD.AperFunction*%
D22*
X4480002Y12488000D02*
X4318000Y12488000D01*
X4318000Y12508000D01*
X4298000Y12508000D01*
X4298000Y12762000D01*
X4318000Y12762000D01*
X4318000Y12782000D01*
X4480002Y12782000D01*
X4480002Y12488000D01*
%TA.AperFunction,Conductor*%
D23*
G36*
X4480002Y12488000D02*
G01*
X4318000Y12488000D01*
X4318000Y12508000D01*
X4298000Y12508000D01*
X4298000Y12762000D01*
X4318000Y12762000D01*
X4318000Y12782000D01*
X4480002Y12782000D01*
X4480002Y12488000D01*
G37*
%TD.AperFunction*%
D22*
X38610498Y17019180D02*
X38574188Y16899482D01*
X38561928Y16775000D01*
X38565000Y16160750D01*
X38723750Y16002000D01*
X39598000Y16002000D01*
X39598000Y16022000D01*
X39852000Y16022000D01*
X39852000Y16002000D01*
X40726250Y16002000D01*
X40885000Y16160750D01*
X40888072Y16775000D01*
X40875812Y16899482D01*
X40839502Y17019180D01*
X40785612Y17120000D01*
X41764388Y17120000D01*
X41710498Y17019180D01*
X41674188Y16899482D01*
X41661928Y16775000D01*
X41661928Y14975000D01*
X41669729Y14895796D01*
X41578815Y14821185D01*
X41499463Y14724494D01*
X41440498Y14614180D01*
X41404188Y14494482D01*
X41391928Y14370000D01*
X41391928Y14154653D01*
X41110504Y14436077D01*
X41100812Y14534482D01*
X41064502Y14654180D01*
X41005537Y14764494D01*
X40926185Y14861185D01*
X40880551Y14898636D01*
X40888072Y14975000D01*
X40885000Y15589250D01*
X40726250Y15748000D01*
X39852000Y15748000D01*
X39852000Y15728000D01*
X39598000Y15728000D01*
X39598000Y15748000D01*
X38723750Y15748000D01*
X38565000Y15589250D01*
X38561928Y14975000D01*
X38569738Y14895704D01*
X38401898Y14965226D01*
X38201939Y15005000D01*
X37998061Y15005000D01*
X37798102Y14965226D01*
X37609744Y14887205D01*
X37472968Y14795814D01*
X37463675Y14826448D01*
X37358283Y15023624D01*
X37216448Y15196450D01*
X37173139Y15231993D01*
X37045000Y15360132D01*
X37045000Y15386260D01*
X36987932Y15673158D01*
X36875990Y15943411D01*
X36713475Y16186632D01*
X36506632Y16393475D01*
X36263411Y16555990D01*
X35993158Y16667932D01*
X35706260Y16725000D01*
X35413740Y16725000D01*
X35126842Y16667932D01*
X34856589Y16555990D01*
X34613368Y16393475D01*
X34406525Y16186632D01*
X34290000Y16012240D01*
X34173475Y16186632D01*
X33966632Y16393475D01*
X33723411Y16555990D01*
X33453158Y16667932D01*
X33166260Y16725000D01*
X32873740Y16725000D01*
X32586842Y16667932D01*
X32316589Y16555990D01*
X32073368Y16393475D01*
X31866525Y16186632D01*
X31750000Y16012240D01*
X31633475Y16186632D01*
X31426632Y16393475D01*
X31183411Y16555990D01*
X30913158Y16667932D01*
X30626260Y16725000D01*
X30333740Y16725000D01*
X30046842Y16667932D01*
X29776589Y16555990D01*
X29533368Y16393475D01*
X29326525Y16186632D01*
X29210000Y16012240D01*
X29093475Y16186632D01*
X28886632Y16393475D01*
X28643411Y16555990D01*
X28373158Y16667932D01*
X28086260Y16725000D01*
X27793740Y16725000D01*
X27506842Y16667932D01*
X27236589Y16555990D01*
X26993368Y16393475D01*
X26786525Y16186632D01*
X26624010Y15943411D01*
X26512068Y15673158D01*
X26509804Y15661775D01*
X26208072Y15963506D01*
X26208072Y16775000D01*
X26195812Y16899482D01*
X26159502Y17019180D01*
X26105612Y17120000D01*
X38664388Y17120000D01*
X38610498Y17019180D01*
%TA.AperFunction,Conductor*%
D23*
G36*
X38610498Y17019180D02*
G01*
X38574188Y16899482D01*
X38561928Y16775000D01*
X38565000Y16160750D01*
X38723750Y16002000D01*
X39598000Y16002000D01*
X39598000Y16022000D01*
X39852000Y16022000D01*
X39852000Y16002000D01*
X40726250Y16002000D01*
X40885000Y16160750D01*
X40888072Y16775000D01*
X40875812Y16899482D01*
X40839502Y17019180D01*
X40785612Y17120000D01*
X41764388Y17120000D01*
X41710498Y17019180D01*
X41674188Y16899482D01*
X41661928Y16775000D01*
X41661928Y14975000D01*
X41669729Y14895796D01*
X41578815Y14821185D01*
X41499463Y14724494D01*
X41440498Y14614180D01*
X41404188Y14494482D01*
X41391928Y14370000D01*
X41391928Y14154653D01*
X41110504Y14436077D01*
X41100812Y14534482D01*
X41064502Y14654180D01*
X41005537Y14764494D01*
X40926185Y14861185D01*
X40880551Y14898636D01*
X40888072Y14975000D01*
X40885000Y15589250D01*
X40726250Y15748000D01*
X39852000Y15748000D01*
X39852000Y15728000D01*
X39598000Y15728000D01*
X39598000Y15748000D01*
X38723750Y15748000D01*
X38565000Y15589250D01*
X38561928Y14975000D01*
X38569738Y14895704D01*
X38401898Y14965226D01*
X38201939Y15005000D01*
X37998061Y15005000D01*
X37798102Y14965226D01*
X37609744Y14887205D01*
X37472968Y14795814D01*
X37463675Y14826448D01*
X37358283Y15023624D01*
X37216448Y15196450D01*
X37173139Y15231993D01*
X37045000Y15360132D01*
X37045000Y15386260D01*
X36987932Y15673158D01*
X36875990Y15943411D01*
X36713475Y16186632D01*
X36506632Y16393475D01*
X36263411Y16555990D01*
X35993158Y16667932D01*
X35706260Y16725000D01*
X35413740Y16725000D01*
X35126842Y16667932D01*
X34856589Y16555990D01*
X34613368Y16393475D01*
X34406525Y16186632D01*
X34290000Y16012240D01*
X34173475Y16186632D01*
X33966632Y16393475D01*
X33723411Y16555990D01*
X33453158Y16667932D01*
X33166260Y16725000D01*
X32873740Y16725000D01*
X32586842Y16667932D01*
X32316589Y16555990D01*
X32073368Y16393475D01*
X31866525Y16186632D01*
X31750000Y16012240D01*
X31633475Y16186632D01*
X31426632Y16393475D01*
X31183411Y16555990D01*
X30913158Y16667932D01*
X30626260Y16725000D01*
X30333740Y16725000D01*
X30046842Y16667932D01*
X29776589Y16555990D01*
X29533368Y16393475D01*
X29326525Y16186632D01*
X29210000Y16012240D01*
X29093475Y16186632D01*
X28886632Y16393475D01*
X28643411Y16555990D01*
X28373158Y16667932D01*
X28086260Y16725000D01*
X27793740Y16725000D01*
X27506842Y16667932D01*
X27236589Y16555990D01*
X26993368Y16393475D01*
X26786525Y16186632D01*
X26624010Y15943411D01*
X26512068Y15673158D01*
X26509804Y15661775D01*
X26208072Y15963506D01*
X26208072Y16775000D01*
X26195812Y16899482D01*
X26159502Y17019180D01*
X26105612Y17120000D01*
X38664388Y17120000D01*
X38610498Y17019180D01*
G37*
%TD.AperFunction*%
D22*
X6150498Y17019180D02*
X6114188Y16899482D01*
X6101928Y16775000D01*
X6101928Y14975000D01*
X6109729Y14895796D01*
X6018815Y14821185D01*
X5939463Y14724494D01*
X5880498Y14614180D01*
X5844188Y14494482D01*
X5831928Y14370000D01*
X5831928Y14154653D01*
X5550504Y14436077D01*
X5540812Y14534482D01*
X5504502Y14654180D01*
X5445537Y14764494D01*
X5366185Y14861185D01*
X5320551Y14898636D01*
X5328072Y14975000D01*
X5325000Y15589250D01*
X5166250Y15748000D01*
X4292000Y15748000D01*
X4292000Y15728000D01*
X4038000Y15728000D01*
X4038000Y15748000D01*
X4026210Y15748000D01*
X4027593Y16002000D01*
X4038000Y16002000D01*
X4038000Y16022000D01*
X4292000Y16022000D01*
X4292000Y16002000D01*
X5166250Y16002000D01*
X5325000Y16160750D01*
X5328072Y16775000D01*
X5315812Y16899482D01*
X5279502Y17019180D01*
X5225612Y17120000D01*
X6204388Y17120000D01*
X6150498Y17019180D01*
%TA.AperFunction,Conductor*%
D23*
G36*
X6150498Y17019180D02*
G01*
X6114188Y16899482D01*
X6101928Y16775000D01*
X6101928Y14975000D01*
X6109729Y14895796D01*
X6018815Y14821185D01*
X5939463Y14724494D01*
X5880498Y14614180D01*
X5844188Y14494482D01*
X5831928Y14370000D01*
X5831928Y14154653D01*
X5550504Y14436077D01*
X5540812Y14534482D01*
X5504502Y14654180D01*
X5445537Y14764494D01*
X5366185Y14861185D01*
X5320551Y14898636D01*
X5328072Y14975000D01*
X5325000Y15589250D01*
X5166250Y15748000D01*
X4292000Y15748000D01*
X4292000Y15728000D01*
X4038000Y15728000D01*
X4038000Y15748000D01*
X4026210Y15748000D01*
X4027593Y16002000D01*
X4038000Y16002000D01*
X4038000Y16022000D01*
X4292000Y16022000D01*
X4292000Y16002000D01*
X5166250Y16002000D01*
X5325000Y16160750D01*
X5328072Y16775000D01*
X5315812Y16899482D01*
X5279502Y17019180D01*
X5225612Y17120000D01*
X6204388Y17120000D01*
X6150498Y17019180D01*
G37*
%TD.AperFunction*%
D22*
X20830498Y17019180D02*
X20794188Y16899482D01*
X20781928Y16775000D01*
X20785000Y16160750D01*
X20943750Y16002000D01*
X21818000Y16002000D01*
X21818000Y16022000D01*
X22072000Y16022000D01*
X22072000Y16002000D01*
X22946250Y16002000D01*
X23105000Y16160750D01*
X23108072Y16775000D01*
X23095812Y16899482D01*
X23059502Y17019180D01*
X23005612Y17120000D01*
X23984388Y17120000D01*
X23930498Y17019180D01*
X23894188Y16899482D01*
X23881928Y16775000D01*
X23881928Y14975000D01*
X23889729Y14895796D01*
X23798815Y14821185D01*
X23719463Y14724494D01*
X23660498Y14614180D01*
X23624188Y14494482D01*
X23611928Y14370000D01*
X23611928Y14154653D01*
X23330504Y14436077D01*
X23320812Y14534482D01*
X23284502Y14654180D01*
X23225537Y14764494D01*
X23146185Y14861185D01*
X23100551Y14898636D01*
X23108072Y14975000D01*
X23105000Y15589250D01*
X22946250Y15748000D01*
X22072000Y15748000D01*
X22072000Y15728000D01*
X21818000Y15728000D01*
X21818000Y15748000D01*
X20943750Y15748000D01*
X20785000Y15589250D01*
X20781928Y14975000D01*
X20789738Y14895704D01*
X20621898Y14965226D01*
X20421939Y15005000D01*
X20218061Y15005000D01*
X20018102Y14965226D01*
X19829744Y14887205D01*
X19692968Y14795814D01*
X19683675Y14826448D01*
X19578283Y15023624D01*
X19436448Y15196450D01*
X19393139Y15231993D01*
X19265000Y15360132D01*
X19265000Y15386260D01*
X19207932Y15673158D01*
X19095990Y15943411D01*
X18933475Y16186632D01*
X18726632Y16393475D01*
X18483411Y16555990D01*
X18213158Y16667932D01*
X17926260Y16725000D01*
X17633740Y16725000D01*
X17346842Y16667932D01*
X17076589Y16555990D01*
X16833368Y16393475D01*
X16626525Y16186632D01*
X16510000Y16012240D01*
X16393475Y16186632D01*
X16186632Y16393475D01*
X15943411Y16555990D01*
X15673158Y16667932D01*
X15386260Y16725000D01*
X15093740Y16725000D01*
X14806842Y16667932D01*
X14536589Y16555990D01*
X14293368Y16393475D01*
X14086525Y16186632D01*
X13970000Y16012240D01*
X13853475Y16186632D01*
X13646632Y16393475D01*
X13403411Y16555990D01*
X13133158Y16667932D01*
X12846260Y16725000D01*
X12553740Y16725000D01*
X12266842Y16667932D01*
X11996589Y16555990D01*
X11753368Y16393475D01*
X11546525Y16186632D01*
X11430000Y16012240D01*
X11313475Y16186632D01*
X11106632Y16393475D01*
X10863411Y16555990D01*
X10593158Y16667932D01*
X10306260Y16725000D01*
X10013740Y16725000D01*
X9726842Y16667932D01*
X9456589Y16555990D01*
X9213368Y16393475D01*
X9006525Y16186632D01*
X8844010Y15943411D01*
X8732068Y15673158D01*
X8729804Y15661775D01*
X8428072Y15963506D01*
X8428072Y16775000D01*
X8415812Y16899482D01*
X8379502Y17019180D01*
X8325612Y17120000D01*
X20884388Y17120000D01*
X20830498Y17019180D01*
%TA.AperFunction,Conductor*%
D23*
G36*
X20830498Y17019180D02*
G01*
X20794188Y16899482D01*
X20781928Y16775000D01*
X20785000Y16160750D01*
X20943750Y16002000D01*
X21818000Y16002000D01*
X21818000Y16022000D01*
X22072000Y16022000D01*
X22072000Y16002000D01*
X22946250Y16002000D01*
X23105000Y16160750D01*
X23108072Y16775000D01*
X23095812Y16899482D01*
X23059502Y17019180D01*
X23005612Y17120000D01*
X23984388Y17120000D01*
X23930498Y17019180D01*
X23894188Y16899482D01*
X23881928Y16775000D01*
X23881928Y14975000D01*
X23889729Y14895796D01*
X23798815Y14821185D01*
X23719463Y14724494D01*
X23660498Y14614180D01*
X23624188Y14494482D01*
X23611928Y14370000D01*
X23611928Y14154653D01*
X23330504Y14436077D01*
X23320812Y14534482D01*
X23284502Y14654180D01*
X23225537Y14764494D01*
X23146185Y14861185D01*
X23100551Y14898636D01*
X23108072Y14975000D01*
X23105000Y15589250D01*
X22946250Y15748000D01*
X22072000Y15748000D01*
X22072000Y15728000D01*
X21818000Y15728000D01*
X21818000Y15748000D01*
X20943750Y15748000D01*
X20785000Y15589250D01*
X20781928Y14975000D01*
X20789738Y14895704D01*
X20621898Y14965226D01*
X20421939Y15005000D01*
X20218061Y15005000D01*
X20018102Y14965226D01*
X19829744Y14887205D01*
X19692968Y14795814D01*
X19683675Y14826448D01*
X19578283Y15023624D01*
X19436448Y15196450D01*
X19393139Y15231993D01*
X19265000Y15360132D01*
X19265000Y15386260D01*
X19207932Y15673158D01*
X19095990Y15943411D01*
X18933475Y16186632D01*
X18726632Y16393475D01*
X18483411Y16555990D01*
X18213158Y16667932D01*
X17926260Y16725000D01*
X17633740Y16725000D01*
X17346842Y16667932D01*
X17076589Y16555990D01*
X16833368Y16393475D01*
X16626525Y16186632D01*
X16510000Y16012240D01*
X16393475Y16186632D01*
X16186632Y16393475D01*
X15943411Y16555990D01*
X15673158Y16667932D01*
X15386260Y16725000D01*
X15093740Y16725000D01*
X14806842Y16667932D01*
X14536589Y16555990D01*
X14293368Y16393475D01*
X14086525Y16186632D01*
X13970000Y16012240D01*
X13853475Y16186632D01*
X13646632Y16393475D01*
X13403411Y16555990D01*
X13133158Y16667932D01*
X12846260Y16725000D01*
X12553740Y16725000D01*
X12266842Y16667932D01*
X11996589Y16555990D01*
X11753368Y16393475D01*
X11546525Y16186632D01*
X11430000Y16012240D01*
X11313475Y16186632D01*
X11106632Y16393475D01*
X10863411Y16555990D01*
X10593158Y16667932D01*
X10306260Y16725000D01*
X10013740Y16725000D01*
X9726842Y16667932D01*
X9456589Y16555990D01*
X9213368Y16393475D01*
X9006525Y16186632D01*
X8844010Y15943411D01*
X8732068Y15673158D01*
X8729804Y15661775D01*
X8428072Y15963506D01*
X8428072Y16775000D01*
X8415812Y16899482D01*
X8379502Y17019180D01*
X8325612Y17120000D01*
X20884388Y17120000D01*
X20830498Y17019180D01*
G37*
%TD.AperFunction*%
D22*
X55220000Y14870741D02*
X55138283Y15023624D01*
X54996448Y15196450D01*
X54953139Y15231993D01*
X54825000Y15360132D01*
X54825000Y15386260D01*
X54767932Y15673158D01*
X54655990Y15943411D01*
X54493475Y16186632D01*
X54286632Y16393475D01*
X54043411Y16555990D01*
X53773158Y16667932D01*
X53486260Y16725000D01*
X53193740Y16725000D01*
X52906842Y16667932D01*
X52636589Y16555990D01*
X52393368Y16393475D01*
X52186525Y16186632D01*
X52070000Y16012240D01*
X51953475Y16186632D01*
X51746632Y16393475D01*
X51503411Y16555990D01*
X51233158Y16667932D01*
X50946260Y16725000D01*
X50653740Y16725000D01*
X50366842Y16667932D01*
X50096589Y16555990D01*
X49853368Y16393475D01*
X49646525Y16186632D01*
X49530000Y16012240D01*
X49413475Y16186632D01*
X49206632Y16393475D01*
X48963411Y16555990D01*
X48693158Y16667932D01*
X48406260Y16725000D01*
X48113740Y16725000D01*
X47826842Y16667932D01*
X47556589Y16555990D01*
X47313368Y16393475D01*
X47106525Y16186632D01*
X46990000Y16012240D01*
X46873475Y16186632D01*
X46666632Y16393475D01*
X46423411Y16555990D01*
X46153158Y16667932D01*
X45866260Y16725000D01*
X45573740Y16725000D01*
X45286842Y16667932D01*
X45016589Y16555990D01*
X44773368Y16393475D01*
X44566525Y16186632D01*
X44404010Y15943411D01*
X44292068Y15673158D01*
X44289804Y15661775D01*
X43988072Y15963506D01*
X43988072Y16775000D01*
X43975812Y16899482D01*
X43939502Y17019180D01*
X43885612Y17120000D01*
X55220000Y17120000D01*
X55220000Y14870741D01*
%TA.AperFunction,Conductor*%
D23*
G36*
X55220000Y14870741D02*
G01*
X55138283Y15023624D01*
X54996448Y15196450D01*
X54953139Y15231993D01*
X54825000Y15360132D01*
X54825000Y15386260D01*
X54767932Y15673158D01*
X54655990Y15943411D01*
X54493475Y16186632D01*
X54286632Y16393475D01*
X54043411Y16555990D01*
X53773158Y16667932D01*
X53486260Y16725000D01*
X53193740Y16725000D01*
X52906842Y16667932D01*
X52636589Y16555990D01*
X52393368Y16393475D01*
X52186525Y16186632D01*
X52070000Y16012240D01*
X51953475Y16186632D01*
X51746632Y16393475D01*
X51503411Y16555990D01*
X51233158Y16667932D01*
X50946260Y16725000D01*
X50653740Y16725000D01*
X50366842Y16667932D01*
X50096589Y16555990D01*
X49853368Y16393475D01*
X49646525Y16186632D01*
X49530000Y16012240D01*
X49413475Y16186632D01*
X49206632Y16393475D01*
X48963411Y16555990D01*
X48693158Y16667932D01*
X48406260Y16725000D01*
X48113740Y16725000D01*
X47826842Y16667932D01*
X47556589Y16555990D01*
X47313368Y16393475D01*
X47106525Y16186632D01*
X46990000Y16012240D01*
X46873475Y16186632D01*
X46666632Y16393475D01*
X46423411Y16555990D01*
X46153158Y16667932D01*
X45866260Y16725000D01*
X45573740Y16725000D01*
X45286842Y16667932D01*
X45016589Y16555990D01*
X44773368Y16393475D01*
X44566525Y16186632D01*
X44404010Y15943411D01*
X44292068Y15673158D01*
X44289804Y15661775D01*
X43988072Y15963506D01*
X43988072Y16775000D01*
X43975812Y16899482D01*
X43939502Y17019180D01*
X43885612Y17120000D01*
X55220000Y17120000D01*
X55220000Y14870741D01*
G37*
%TD.AperFunction*%
%TD*%
M02*
