M48
; DRILL file {KiCad (5.1.8)-1} date 03/06/21 21:19:46
; FORMAT={-:-/ absolute / metric / decimal}
; #@! TF.CreationDate,2021-03-06T21:19:46+09:00
; #@! TF.GenerationSoftware,Kicad,Pcbnew,(5.1.8)-1
FMAT,2
METRIC
T1C0.400
T2C1.000
%
G90
G05
T1
X1.27Y1.27
X2.54Y3.175
X5.715Y15.875
X5.715Y8.89
X8.255Y8.89
X12.7Y6.985
X13.97Y6.985
X15.24Y6.985
X19.685Y1.27
X20.32Y15.875
X20.32Y13.97
X20.32Y8.255
X20.32Y5.715
X23.495Y15.875
X23.495Y8.89
X26.035Y8.89
X30.48Y6.985
X31.75Y6.985
X33.02Y6.985
X37.465Y10.16
X37.465Y1.27
X38.1Y15.875
X38.1Y13.97
X38.1Y5.715
X41.275Y15.875
X41.275Y8.89
X43.815Y8.89
X48.26Y6.985
X49.53Y6.985
X50.8Y6.985
X54.61Y16.51
X54.61Y10.16
T2
X30.48Y2.54
X33.02Y2.54
X35.56Y2.54
X12.7Y2.54
X15.24Y2.54
X17.78Y2.54
X40.64Y2.54
X43.18Y2.54
X45.72Y2.54
X5.08Y2.54
X7.62Y2.54
X10.16Y2.54
X33.02Y15.24
X35.56Y15.24
X15.24Y15.24
X17.78Y15.24
X45.72Y15.24
X48.26Y15.24
X10.16Y15.24
X12.7Y15.24
X50.8Y15.24
X53.34Y15.24
X27.94Y15.24
X30.48Y15.24
X2.54Y15.24
X2.54Y12.7
X2.54Y10.16
X22.86Y2.54
X25.4Y2.54
X27.94Y2.54
X48.26Y2.54
X50.8Y2.54
X53.34Y2.54
T0
M30
