%TF.GenerationSoftware,KiCad,Pcbnew,(5.1.8)-1*%
%TF.CreationDate,2021-03-06T21:19:43+09:00*%
%TF.ProjectId,motor_driver_2,6d6f746f-725f-4647-9269-7665725f322e,rev?*%
%TF.SameCoordinates,PX60e4b00PY7b89fa0*%
%TF.FileFunction,Legend,Top*%
%TF.FilePolarity,Positive*%
%FSLAX46Y46*%
G04 Gerber Fmt 4.6, Leading zero omitted, Abs format (unit mm)*
G04 Created by KiCad (PCBNEW (5.1.8)-1) date 2021-03-06 21:19:43*
%MOMM*%
%LPD*%
G01*
G04 APERTURE LIST*
%ADD10C,0.120000*%
%ADD11C,0.200000*%
%ADD12C,0.100000*%
%ADD13R,1.700000X1.700000*%
%ADD14O,1.700000X1.700000*%
%ADD15C,1.700000*%
%ADD16R,2.900000X1.850000*%
%ADD17R,0.940000X0.750000*%
%ADD18R,0.800000X0.800000*%
%ADD19R,0.450000X1.525000*%
%ADD20R,1.050000X1.800000*%
G04 APERTURE END LIST*
D10*
X44704000Y13208000D02*
X43434000Y13208000D01*
X44704000Y14732000D02*
X44704000Y13208000D01*
X43434000Y14732000D02*
X44704000Y14732000D01*
X26924000Y13208000D02*
X25654000Y13208000D01*
X26924000Y14732000D02*
X26924000Y13208000D01*
X25654000Y14732000D02*
X26924000Y14732000D01*
X9144000Y13208000D02*
X7874000Y13208000D01*
X9144000Y14732000D02*
X9144000Y13208000D01*
X7874000Y14732000D02*
X9144000Y14732000D01*
D11*
%TO.C,C1*%
X5910000Y3565000D02*
X9135000Y3565000D01*
X3785000Y7865000D02*
X9135000Y7865000D01*
%TO.C,C3*%
X21565000Y7865000D02*
X26915000Y7865000D01*
X23690000Y3565000D02*
X26915000Y3565000D01*
%TO.C,C5*%
X41470000Y3565000D02*
X44695000Y3565000D01*
X39345000Y7865000D02*
X44695000Y7865000D01*
%TO.C,C8*%
X5910000Y8645000D02*
X9135000Y8645000D01*
X3785000Y12945000D02*
X9135000Y12945000D01*
%TO.C,C10*%
X21565000Y12945000D02*
X26915000Y12945000D01*
X23690000Y8645000D02*
X26915000Y8645000D01*
%TO.C,C12*%
X39345000Y12945000D02*
X44695000Y12945000D01*
X41470000Y8645000D02*
X44695000Y8645000D01*
D12*
%TO.C,D1*%
X7820000Y13570000D02*
X7420000Y13570000D01*
X7820000Y14370000D02*
X7420000Y14370000D01*
%TO.C,D2*%
X25600000Y14370000D02*
X25200000Y14370000D01*
X25600000Y13570000D02*
X25200000Y13570000D01*
%TO.C,D3*%
X43380000Y14370000D02*
X42980000Y14370000D01*
X43380000Y13570000D02*
X42980000Y13570000D01*
D11*
%TO.C,IC2*%
X36535000Y13215000D02*
X36535000Y11690000D01*
X28235000Y11340000D02*
X36535000Y11340000D01*
X28235000Y6440000D02*
X28235000Y11340000D01*
X36535000Y6440000D02*
X28235000Y6440000D01*
X36535000Y11340000D02*
X36535000Y6440000D01*
%TO.C,IC3*%
X54315000Y11340000D02*
X54315000Y6440000D01*
X54315000Y6440000D02*
X46015000Y6440000D01*
X46015000Y6440000D02*
X46015000Y11340000D01*
X46015000Y11340000D02*
X54315000Y11340000D01*
X54315000Y13215000D02*
X54315000Y11690000D01*
%TO.C,R1*%
X5715000Y15175000D02*
X5715000Y16575000D01*
%TO.C,R2*%
X23495000Y15175000D02*
X23495000Y16575000D01*
%TO.C,R3*%
X41275000Y15175000D02*
X41275000Y16575000D01*
%TO.C,IC1*%
X18755000Y11340000D02*
X18755000Y6440000D01*
X18755000Y6440000D02*
X10455000Y6440000D01*
X10455000Y6440000D02*
X10455000Y11340000D01*
X10455000Y11340000D02*
X18755000Y11340000D01*
X18755000Y13215000D02*
X18755000Y11690000D01*
%TD*%
%LPC*%
D13*
%TO.C,J1*%
X2540000Y15240000D03*
D14*
X2540000Y12700000D03*
X2540000Y10160000D03*
%TD*%
D15*
%TO.C,J2*%
X10160000Y2540000D03*
D14*
X7620000Y2540000D03*
X5080000Y2540000D03*
%TD*%
D15*
%TO.C,J3*%
X17780000Y2540000D03*
D14*
X15240000Y2540000D03*
X12700000Y2540000D03*
%TD*%
%TO.C,J4*%
X22860000Y2540000D03*
X25400000Y2540000D03*
D15*
X27940000Y2540000D03*
%TD*%
D14*
%TO.C,J5*%
X30480000Y2540000D03*
X33020000Y2540000D03*
D15*
X35560000Y2540000D03*
%TD*%
%TO.C,J6*%
X45720000Y2540000D03*
D14*
X43180000Y2540000D03*
X40640000Y2540000D03*
%TD*%
%TO.C,J7*%
X48260000Y2540000D03*
X50800000Y2540000D03*
D15*
X53340000Y2540000D03*
%TD*%
%TO.C,J13*%
X50800000Y15240000D03*
D14*
X53340000Y15240000D03*
%TD*%
%TO.C,J12*%
X48260000Y15240000D03*
D15*
X45720000Y15240000D03*
%TD*%
%TO.C,J11*%
X33020000Y15240000D03*
D14*
X35560000Y15240000D03*
%TD*%
D15*
%TO.C,J10*%
X27940000Y15240000D03*
D14*
X30480000Y15240000D03*
%TD*%
D15*
%TO.C,J8*%
X10160000Y15240000D03*
D14*
X12700000Y15240000D03*
%TD*%
%TO.C,J9*%
X17780000Y15240000D03*
D15*
X15240000Y15240000D03*
%TD*%
D16*
%TO.C,C1*%
X8735000Y5715000D03*
X5235000Y5715000D03*
%TD*%
D17*
%TO.C,C2*%
X4445000Y14035000D03*
X4445000Y12635000D03*
%TD*%
D16*
%TO.C,C3*%
X23015000Y5715000D03*
X26515000Y5715000D03*
%TD*%
D17*
%TO.C,C4*%
X22225000Y14035000D03*
X22225000Y12635000D03*
%TD*%
D16*
%TO.C,C5*%
X44295000Y5715000D03*
X40795000Y5715000D03*
%TD*%
D17*
%TO.C,C6*%
X40005000Y14035000D03*
X40005000Y12635000D03*
%TD*%
%TO.C,C7*%
X4445000Y8955000D03*
X4445000Y7555000D03*
%TD*%
D16*
%TO.C,C8*%
X8735000Y10795000D03*
X5235000Y10795000D03*
%TD*%
D17*
%TO.C,C9*%
X22225000Y8955000D03*
X22225000Y7555000D03*
%TD*%
D16*
%TO.C,C10*%
X23015000Y10795000D03*
X26515000Y10795000D03*
%TD*%
D17*
%TO.C,C11*%
X40005000Y8955000D03*
X40005000Y7555000D03*
%TD*%
D16*
%TO.C,C12*%
X40795000Y10795000D03*
X44295000Y10795000D03*
%TD*%
D18*
%TO.C,D1*%
X6870000Y13970000D03*
X8370000Y13970000D03*
%TD*%
%TO.C,D2*%
X26150000Y13970000D03*
X24650000Y13970000D03*
%TD*%
%TO.C,D3*%
X43930000Y13970000D03*
X42430000Y13970000D03*
%TD*%
D19*
%TO.C,IC2*%
X35960000Y5328000D03*
X35310000Y5328000D03*
X34660000Y5328000D03*
X34010000Y5328000D03*
X33360000Y5328000D03*
X32710000Y5328000D03*
X32060000Y5328000D03*
X31410000Y5328000D03*
X30760000Y5328000D03*
X30110000Y5328000D03*
X29460000Y5328000D03*
X28810000Y5328000D03*
X28810000Y12452000D03*
X29460000Y12452000D03*
X30110000Y12452000D03*
X30760000Y12452000D03*
X31410000Y12452000D03*
X32060000Y12452000D03*
X32710000Y12452000D03*
X33360000Y12452000D03*
X34010000Y12452000D03*
X34660000Y12452000D03*
X35310000Y12452000D03*
X35960000Y12452000D03*
%TD*%
%TO.C,IC3*%
X53740000Y12452000D03*
X53090000Y12452000D03*
X52440000Y12452000D03*
X51790000Y12452000D03*
X51140000Y12452000D03*
X50490000Y12452000D03*
X49840000Y12452000D03*
X49190000Y12452000D03*
X48540000Y12452000D03*
X47890000Y12452000D03*
X47240000Y12452000D03*
X46590000Y12452000D03*
X46590000Y5328000D03*
X47240000Y5328000D03*
X47890000Y5328000D03*
X48540000Y5328000D03*
X49190000Y5328000D03*
X49840000Y5328000D03*
X50490000Y5328000D03*
X51140000Y5328000D03*
X51790000Y5328000D03*
X52440000Y5328000D03*
X53090000Y5328000D03*
X53740000Y5328000D03*
%TD*%
D20*
%TO.C,R1*%
X4165000Y15875000D03*
X7265000Y15875000D03*
%TD*%
%TO.C,R2*%
X25045000Y15875000D03*
X21945000Y15875000D03*
%TD*%
%TO.C,R3*%
X42825000Y15875000D03*
X39725000Y15875000D03*
%TD*%
D19*
%TO.C,IC1*%
X18180000Y12452000D03*
X17530000Y12452000D03*
X16880000Y12452000D03*
X16230000Y12452000D03*
X15580000Y12452000D03*
X14930000Y12452000D03*
X14280000Y12452000D03*
X13630000Y12452000D03*
X12980000Y12452000D03*
X12330000Y12452000D03*
X11680000Y12452000D03*
X11030000Y12452000D03*
X11030000Y5328000D03*
X11680000Y5328000D03*
X12330000Y5328000D03*
X12980000Y5328000D03*
X13630000Y5328000D03*
X14280000Y5328000D03*
X14930000Y5328000D03*
X15580000Y5328000D03*
X16230000Y5328000D03*
X16880000Y5328000D03*
X17530000Y5328000D03*
X18180000Y5328000D03*
%TD*%
M02*
