%TF.GenerationSoftware,KiCad,Pcbnew,(5.1.8)-1*%
%TF.CreationDate,2021-03-06T21:19:43+09:00*%
%TF.ProjectId,motor_driver_2,6d6f746f-725f-4647-9269-7665725f322e,rev?*%
%TF.SameCoordinates,PX60e4b00PY7b89fa0*%
%TF.FileFunction,Copper,L2,Bot*%
%TF.FilePolarity,Positive*%
%FSLAX46Y46*%
G04 Gerber Fmt 4.6, Leading zero omitted, Abs format (unit mm)*
G04 Created by KiCad (PCBNEW (5.1.8)-1) date 2021-03-06 21:19:43*
%MOMM*%
%LPD*%
G01*
G04 APERTURE LIST*
%TA.AperFunction,ComponentPad*%
%ADD10R,1.700000X1.700000*%
%TD*%
%TA.AperFunction,ComponentPad*%
%ADD11O,1.700000X1.700000*%
%TD*%
%TA.AperFunction,ComponentPad*%
%ADD12C,1.700000*%
%TD*%
%TA.AperFunction,ViaPad*%
%ADD13C,0.800000*%
%TD*%
%TA.AperFunction,Conductor*%
%ADD14C,1.000000*%
%TD*%
%TA.AperFunction,Conductor*%
%ADD15C,0.500000*%
%TD*%
%TA.AperFunction,Conductor*%
%ADD16C,0.250000*%
%TD*%
%TA.AperFunction,Conductor*%
%ADD17C,0.254000*%
%TD*%
%TA.AperFunction,Conductor*%
%ADD18C,0.100000*%
%TD*%
G04 APERTURE END LIST*
D10*
%TO.P,J1,1*%
%TO.N,Net-(C1-Pad2)*%
X2540000Y15240000D03*
D11*
%TO.P,J1,2*%
%TO.N,Net-(C10-Pad1)*%
X2540000Y12700000D03*
%TO.P,J1,3*%
%TO.N,Net-(C1-Pad1)*%
X2540000Y10160000D03*
%TD*%
D12*
%TO.P,J2,1*%
%TO.N,Net-(IC1-Pad17)*%
X10160000Y2540000D03*
D11*
%TO.P,J2,2*%
%TO.N,Net-(IC1-Pad16)*%
X7620000Y2540000D03*
%TO.P,J2,3*%
%TO.N,Net-(IC1-Pad15)*%
X5080000Y2540000D03*
%TD*%
D12*
%TO.P,J3,1*%
%TO.N,Net-(IC1-Pad23)*%
X17780000Y2540000D03*
D11*
%TO.P,J3,2*%
%TO.N,Net-(IC1-Pad22)*%
X15240000Y2540000D03*
%TO.P,J3,3*%
%TO.N,Net-(IC1-Pad21)*%
X12700000Y2540000D03*
%TD*%
%TO.P,J4,3*%
%TO.N,Net-(IC2-Pad15)*%
X22860000Y2540000D03*
%TO.P,J4,2*%
%TO.N,Net-(IC2-Pad16)*%
X25400000Y2540000D03*
D12*
%TO.P,J4,1*%
%TO.N,Net-(IC2-Pad17)*%
X27940000Y2540000D03*
%TD*%
D11*
%TO.P,J5,3*%
%TO.N,Net-(IC2-Pad21)*%
X30480000Y2540000D03*
%TO.P,J5,2*%
%TO.N,Net-(IC2-Pad22)*%
X33020000Y2540000D03*
D12*
%TO.P,J5,1*%
%TO.N,Net-(IC2-Pad23)*%
X35560000Y2540000D03*
%TD*%
%TO.P,J6,1*%
%TO.N,Net-(IC3-Pad17)*%
X45720000Y2540000D03*
D11*
%TO.P,J6,2*%
%TO.N,Net-(IC3-Pad16)*%
X43180000Y2540000D03*
%TO.P,J6,3*%
%TO.N,Net-(IC3-Pad15)*%
X40640000Y2540000D03*
%TD*%
%TO.P,J7,3*%
%TO.N,Net-(IC3-Pad21)*%
X48260000Y2540000D03*
%TO.P,J7,2*%
%TO.N,Net-(IC3-Pad22)*%
X50800000Y2540000D03*
D12*
%TO.P,J7,1*%
%TO.N,Net-(IC3-Pad23)*%
X53340000Y2540000D03*
%TD*%
%TO.P,J13,1*%
%TO.N,Net-(IC3-Pad5)*%
X50800000Y15240000D03*
D11*
%TO.P,J13,2*%
%TO.N,Net-(IC3-Pad1)*%
X53340000Y15240000D03*
%TD*%
%TO.P,J12,2*%
%TO.N,Net-(IC3-Pad7)*%
X48260000Y15240000D03*
D12*
%TO.P,J12,1*%
%TO.N,Net-(IC3-Pad11)*%
X45720000Y15240000D03*
%TD*%
%TO.P,J11,1*%
%TO.N,Net-(IC2-Pad5)*%
X33020000Y15240000D03*
D11*
%TO.P,J11,2*%
%TO.N,Net-(IC2-Pad1)*%
X35560000Y15240000D03*
%TD*%
D12*
%TO.P,J10,1*%
%TO.N,Net-(IC2-Pad11)*%
X27940000Y15240000D03*
D11*
%TO.P,J10,2*%
%TO.N,Net-(IC2-Pad7)*%
X30480000Y15240000D03*
%TD*%
D12*
%TO.P,J8,1*%
%TO.N,Net-(IC1-Pad11)*%
X10160000Y15240000D03*
D11*
%TO.P,J8,2*%
%TO.N,Net-(IC1-Pad7)*%
X12700000Y15240000D03*
%TD*%
%TO.P,J9,2*%
%TO.N,Net-(IC1-Pad1)*%
X17780000Y15240000D03*
D12*
%TO.P,J9,1*%
%TO.N,Net-(IC1-Pad5)*%
X15240000Y15240000D03*
%TD*%
D13*
%TO.N,Net-(C1-Pad2)*%
X13970000Y6985000D03*
X31750000Y6985000D03*
X49530000Y6985000D03*
X5715000Y8890000D03*
X23495000Y8890000D03*
X41275000Y8890000D03*
X23495000Y15875000D03*
X5715000Y15875000D03*
X41275000Y15875000D03*
X38100000Y15875000D03*
X20320000Y15875000D03*
X54610000Y16510000D03*
X1270000Y1270000D03*
X2540000Y3175000D03*
X19685000Y1270000D03*
X37465000Y1270000D03*
X54610000Y10160000D03*
X37465000Y10160000D03*
X20320000Y8255000D03*
%TO.N,Net-(C1-Pad1)*%
X20320000Y5715000D03*
X38100000Y5715000D03*
%TO.N,Net-(C10-Pad1)*%
X8255000Y8890000D03*
X15240000Y6985000D03*
X20320000Y13970000D03*
X26035000Y8890000D03*
X33020000Y6985000D03*
X38100000Y13970000D03*
X43815000Y8890000D03*
X50800000Y6985000D03*
%TO.N,Net-(IC1-Pad15)*%
X12700000Y6985000D03*
%TO.N,Net-(IC2-Pad15)*%
X30480000Y6985000D03*
%TO.N,Net-(IC3-Pad15)*%
X48260000Y6985000D03*
%TD*%
D14*
%TO.N,Net-(C1-Pad1)*%
X15875000Y10160000D02*
X20320000Y5715000D01*
X2540000Y10160000D02*
X15875000Y10160000D01*
X33655000Y10160000D02*
X38100000Y5715000D01*
X15875000Y10160000D02*
X33655000Y10160000D01*
D15*
%TO.N,Net-(C10-Pad1)*%
X13335000Y8890000D02*
X15240000Y6985000D01*
X8255000Y8890000D02*
X13335000Y8890000D01*
X19050000Y12700000D02*
X20320000Y13970000D01*
X2540000Y12700000D02*
X19050000Y12700000D01*
X31115000Y8890000D02*
X33020000Y6985000D01*
X26035000Y8890000D02*
X31115000Y8890000D01*
X36830000Y12700000D02*
X38100000Y13970000D01*
X19050000Y12700000D02*
X36830000Y12700000D01*
X48895000Y8890000D02*
X50800000Y6985000D01*
X43815000Y8890000D02*
X48895000Y8890000D01*
D16*
%TO.N,Net-(IC1-Pad15)*%
X9525000Y6985000D02*
X12700000Y6985000D01*
X5080000Y2540000D02*
X9525000Y6985000D01*
%TO.N,Net-(IC2-Pad15)*%
X27305000Y6985000D02*
X30480000Y6985000D01*
X22860000Y2540000D02*
X27305000Y6985000D01*
%TO.N,Net-(IC3-Pad15)*%
X45085000Y6985000D02*
X48260000Y6985000D01*
X40640000Y2540000D02*
X45085000Y6985000D01*
%TD*%
D17*
%TO.N,Net-(C1-Pad2)*%
X55220001Y660000D02*
X660000Y660000D01*
X660000Y14390000D01*
X1051928Y14390000D01*
X1064188Y14265518D01*
X1100498Y14145820D01*
X1159463Y14035506D01*
X1238815Y13938815D01*
X1335506Y13859463D01*
X1445820Y13800498D01*
X1518380Y13778487D01*
X1386525Y13646632D01*
X1224010Y13403411D01*
X1112068Y13133158D01*
X1055000Y12846260D01*
X1055000Y12553740D01*
X1112068Y12266842D01*
X1224010Y11996589D01*
X1386525Y11753368D01*
X1593368Y11546525D01*
X1767760Y11430000D01*
X1593368Y11313475D01*
X1386525Y11106632D01*
X1224010Y10863411D01*
X1112068Y10593158D01*
X1055000Y10306260D01*
X1055000Y10013740D01*
X1112068Y9726842D01*
X1224010Y9456589D01*
X1386525Y9213368D01*
X1593368Y9006525D01*
X1836589Y8844010D01*
X2106842Y8732068D01*
X2393740Y8675000D01*
X2686260Y8675000D01*
X2973158Y8732068D01*
X3243411Y8844010D01*
X3486632Y9006525D01*
X3505107Y9025000D01*
X7226576Y9025000D01*
X7220000Y8991939D01*
X7220000Y8788061D01*
X7259774Y8588102D01*
X7337795Y8399744D01*
X7451063Y8230226D01*
X7595226Y8086063D01*
X7764744Y7972795D01*
X7953102Y7894774D01*
X8153061Y7855000D01*
X8356939Y7855000D01*
X8556898Y7894774D01*
X8745256Y7972795D01*
X8793454Y8005000D01*
X12522650Y8005000D01*
X12398102Y7980226D01*
X12209744Y7902205D01*
X12040226Y7788937D01*
X11996289Y7745000D01*
X9562322Y7745000D01*
X9524999Y7748676D01*
X9487676Y7745000D01*
X9487667Y7745000D01*
X9376014Y7734003D01*
X9232753Y7690546D01*
X9100724Y7619974D01*
X8984999Y7525001D01*
X8961201Y7496003D01*
X5446408Y3981209D01*
X5226260Y4025000D01*
X4933740Y4025000D01*
X4646842Y3967932D01*
X4376589Y3855990D01*
X4133368Y3693475D01*
X3926525Y3486632D01*
X3764010Y3243411D01*
X3652068Y2973158D01*
X3595000Y2686260D01*
X3595000Y2393740D01*
X3652068Y2106842D01*
X3764010Y1836589D01*
X3926525Y1593368D01*
X4133368Y1386525D01*
X4376589Y1224010D01*
X4646842Y1112068D01*
X4933740Y1055000D01*
X5226260Y1055000D01*
X5513158Y1112068D01*
X5783411Y1224010D01*
X6026632Y1386525D01*
X6233475Y1593368D01*
X6350000Y1767760D01*
X6466525Y1593368D01*
X6673368Y1386525D01*
X6916589Y1224010D01*
X7186842Y1112068D01*
X7473740Y1055000D01*
X7766260Y1055000D01*
X8053158Y1112068D01*
X8323411Y1224010D01*
X8566632Y1386525D01*
X8773475Y1593368D01*
X8890000Y1767760D01*
X9006525Y1593368D01*
X9213368Y1386525D01*
X9456589Y1224010D01*
X9726842Y1112068D01*
X10013740Y1055000D01*
X10306260Y1055000D01*
X10593158Y1112068D01*
X10863411Y1224010D01*
X11106632Y1386525D01*
X11313475Y1593368D01*
X11430000Y1767760D01*
X11546525Y1593368D01*
X11753368Y1386525D01*
X11996589Y1224010D01*
X12266842Y1112068D01*
X12553740Y1055000D01*
X12846260Y1055000D01*
X13133158Y1112068D01*
X13403411Y1224010D01*
X13646632Y1386525D01*
X13853475Y1593368D01*
X13970000Y1767760D01*
X14086525Y1593368D01*
X14293368Y1386525D01*
X14536589Y1224010D01*
X14806842Y1112068D01*
X15093740Y1055000D01*
X15386260Y1055000D01*
X15673158Y1112068D01*
X15943411Y1224010D01*
X16186632Y1386525D01*
X16393475Y1593368D01*
X16510000Y1767760D01*
X16626525Y1593368D01*
X16833368Y1386525D01*
X17076589Y1224010D01*
X17346842Y1112068D01*
X17633740Y1055000D01*
X17926260Y1055000D01*
X18213158Y1112068D01*
X18483411Y1224010D01*
X18726632Y1386525D01*
X18933475Y1593368D01*
X19095990Y1836589D01*
X19207932Y2106842D01*
X19265000Y2393740D01*
X19265000Y2686260D01*
X19207932Y2973158D01*
X19095990Y3243411D01*
X18933475Y3486632D01*
X18726632Y3693475D01*
X18483411Y3855990D01*
X18213158Y3967932D01*
X17926260Y4025000D01*
X17633740Y4025000D01*
X17346842Y3967932D01*
X17076589Y3855990D01*
X16833368Y3693475D01*
X16626525Y3486632D01*
X16510000Y3312240D01*
X16393475Y3486632D01*
X16186632Y3693475D01*
X15943411Y3855990D01*
X15673158Y3967932D01*
X15386260Y4025000D01*
X15093740Y4025000D01*
X14806842Y3967932D01*
X14536589Y3855990D01*
X14293368Y3693475D01*
X14086525Y3486632D01*
X13970000Y3312240D01*
X13853475Y3486632D01*
X13646632Y3693475D01*
X13403411Y3855990D01*
X13133158Y3967932D01*
X12846260Y4025000D01*
X12553740Y4025000D01*
X12266842Y3967932D01*
X11996589Y3855990D01*
X11753368Y3693475D01*
X11546525Y3486632D01*
X11430000Y3312240D01*
X11313475Y3486632D01*
X11106632Y3693475D01*
X10863411Y3855990D01*
X10593158Y3967932D01*
X10306260Y4025000D01*
X10013740Y4025000D01*
X9726842Y3967932D01*
X9456589Y3855990D01*
X9213368Y3693475D01*
X9006525Y3486632D01*
X8890000Y3312240D01*
X8773475Y3486632D01*
X8566632Y3693475D01*
X8323411Y3855990D01*
X8053158Y3967932D01*
X7766260Y4025000D01*
X7639801Y4025000D01*
X9839802Y6225000D01*
X11996289Y6225000D01*
X12040226Y6181063D01*
X12209744Y6067795D01*
X12398102Y5989774D01*
X12598061Y5950000D01*
X12801939Y5950000D01*
X13001898Y5989774D01*
X13190256Y6067795D01*
X13359774Y6181063D01*
X13503937Y6325226D01*
X13617205Y6494744D01*
X13695226Y6683102D01*
X13735000Y6883061D01*
X13735000Y7086939D01*
X13697387Y7276035D01*
X14233465Y6739956D01*
X14244774Y6683102D01*
X14322795Y6494744D01*
X14436063Y6325226D01*
X14580226Y6181063D01*
X14749744Y6067795D01*
X14938102Y5989774D01*
X15138061Y5950000D01*
X15341939Y5950000D01*
X15541898Y5989774D01*
X15730256Y6067795D01*
X15899774Y6181063D01*
X16043937Y6325226D01*
X16157205Y6494744D01*
X16235226Y6683102D01*
X16275000Y6883061D01*
X16275000Y7086939D01*
X16235226Y7286898D01*
X16157205Y7475256D01*
X16043937Y7644774D01*
X15899774Y7788937D01*
X15730256Y7902205D01*
X15541898Y7980226D01*
X15485044Y7991535D01*
X14451578Y9025000D01*
X15404869Y9025000D01*
X19556856Y4873012D01*
X19686376Y4766717D01*
X19883552Y4661325D01*
X20097500Y4596424D01*
X20319999Y4574510D01*
X20542498Y4596424D01*
X20756446Y4661325D01*
X20953622Y4766717D01*
X21126448Y4908552D01*
X21268283Y5081378D01*
X21373675Y5278554D01*
X21438576Y5492502D01*
X21460490Y5715001D01*
X21438576Y5937500D01*
X21373675Y6151448D01*
X21268283Y6348624D01*
X21161988Y6478144D01*
X18615131Y9025000D01*
X25006576Y9025000D01*
X25000000Y8991939D01*
X25000000Y8788061D01*
X25039774Y8588102D01*
X25117795Y8399744D01*
X25231063Y8230226D01*
X25375226Y8086063D01*
X25544744Y7972795D01*
X25733102Y7894774D01*
X25933061Y7855000D01*
X26136939Y7855000D01*
X26336898Y7894774D01*
X26525256Y7972795D01*
X26573454Y8005000D01*
X30302650Y8005000D01*
X30178102Y7980226D01*
X29989744Y7902205D01*
X29820226Y7788937D01*
X29776289Y7745000D01*
X27342322Y7745000D01*
X27304999Y7748676D01*
X27267676Y7745000D01*
X27267667Y7745000D01*
X27156014Y7734003D01*
X27012753Y7690546D01*
X26880724Y7619974D01*
X26764999Y7525001D01*
X26741201Y7496003D01*
X23226408Y3981209D01*
X23006260Y4025000D01*
X22713740Y4025000D01*
X22426842Y3967932D01*
X22156589Y3855990D01*
X21913368Y3693475D01*
X21706525Y3486632D01*
X21544010Y3243411D01*
X21432068Y2973158D01*
X21375000Y2686260D01*
X21375000Y2393740D01*
X21432068Y2106842D01*
X21544010Y1836589D01*
X21706525Y1593368D01*
X21913368Y1386525D01*
X22156589Y1224010D01*
X22426842Y1112068D01*
X22713740Y1055000D01*
X23006260Y1055000D01*
X23293158Y1112068D01*
X23563411Y1224010D01*
X23806632Y1386525D01*
X24013475Y1593368D01*
X24130000Y1767760D01*
X24246525Y1593368D01*
X24453368Y1386525D01*
X24696589Y1224010D01*
X24966842Y1112068D01*
X25253740Y1055000D01*
X25546260Y1055000D01*
X25833158Y1112068D01*
X26103411Y1224010D01*
X26346632Y1386525D01*
X26553475Y1593368D01*
X26670000Y1767760D01*
X26786525Y1593368D01*
X26993368Y1386525D01*
X27236589Y1224010D01*
X27506842Y1112068D01*
X27793740Y1055000D01*
X28086260Y1055000D01*
X28373158Y1112068D01*
X28643411Y1224010D01*
X28886632Y1386525D01*
X29093475Y1593368D01*
X29210000Y1767760D01*
X29326525Y1593368D01*
X29533368Y1386525D01*
X29776589Y1224010D01*
X30046842Y1112068D01*
X30333740Y1055000D01*
X30626260Y1055000D01*
X30913158Y1112068D01*
X31183411Y1224010D01*
X31426632Y1386525D01*
X31633475Y1593368D01*
X31750000Y1767760D01*
X31866525Y1593368D01*
X32073368Y1386525D01*
X32316589Y1224010D01*
X32586842Y1112068D01*
X32873740Y1055000D01*
X33166260Y1055000D01*
X33453158Y1112068D01*
X33723411Y1224010D01*
X33966632Y1386525D01*
X34173475Y1593368D01*
X34290000Y1767760D01*
X34406525Y1593368D01*
X34613368Y1386525D01*
X34856589Y1224010D01*
X35126842Y1112068D01*
X35413740Y1055000D01*
X35706260Y1055000D01*
X35993158Y1112068D01*
X36263411Y1224010D01*
X36506632Y1386525D01*
X36713475Y1593368D01*
X36875990Y1836589D01*
X36987932Y2106842D01*
X37045000Y2393740D01*
X37045000Y2686260D01*
X39155000Y2686260D01*
X39155000Y2393740D01*
X39212068Y2106842D01*
X39324010Y1836589D01*
X39486525Y1593368D01*
X39693368Y1386525D01*
X39936589Y1224010D01*
X40206842Y1112068D01*
X40493740Y1055000D01*
X40786260Y1055000D01*
X41073158Y1112068D01*
X41343411Y1224010D01*
X41586632Y1386525D01*
X41793475Y1593368D01*
X41910000Y1767760D01*
X42026525Y1593368D01*
X42233368Y1386525D01*
X42476589Y1224010D01*
X42746842Y1112068D01*
X43033740Y1055000D01*
X43326260Y1055000D01*
X43613158Y1112068D01*
X43883411Y1224010D01*
X44126632Y1386525D01*
X44333475Y1593368D01*
X44450000Y1767760D01*
X44566525Y1593368D01*
X44773368Y1386525D01*
X45016589Y1224010D01*
X45286842Y1112068D01*
X45573740Y1055000D01*
X45866260Y1055000D01*
X46153158Y1112068D01*
X46423411Y1224010D01*
X46666632Y1386525D01*
X46873475Y1593368D01*
X46990000Y1767760D01*
X47106525Y1593368D01*
X47313368Y1386525D01*
X47556589Y1224010D01*
X47826842Y1112068D01*
X48113740Y1055000D01*
X48406260Y1055000D01*
X48693158Y1112068D01*
X48963411Y1224010D01*
X49206632Y1386525D01*
X49413475Y1593368D01*
X49530000Y1767760D01*
X49646525Y1593368D01*
X49853368Y1386525D01*
X50096589Y1224010D01*
X50366842Y1112068D01*
X50653740Y1055000D01*
X50946260Y1055000D01*
X51233158Y1112068D01*
X51503411Y1224010D01*
X51746632Y1386525D01*
X51953475Y1593368D01*
X52070000Y1767760D01*
X52186525Y1593368D01*
X52393368Y1386525D01*
X52636589Y1224010D01*
X52906842Y1112068D01*
X53193740Y1055000D01*
X53486260Y1055000D01*
X53773158Y1112068D01*
X54043411Y1224010D01*
X54286632Y1386525D01*
X54493475Y1593368D01*
X54655990Y1836589D01*
X54767932Y2106842D01*
X54825000Y2393740D01*
X54825000Y2686260D01*
X54767932Y2973158D01*
X54655990Y3243411D01*
X54493475Y3486632D01*
X54286632Y3693475D01*
X54043411Y3855990D01*
X53773158Y3967932D01*
X53486260Y4025000D01*
X53193740Y4025000D01*
X52906842Y3967932D01*
X52636589Y3855990D01*
X52393368Y3693475D01*
X52186525Y3486632D01*
X52070000Y3312240D01*
X51953475Y3486632D01*
X51746632Y3693475D01*
X51503411Y3855990D01*
X51233158Y3967932D01*
X50946260Y4025000D01*
X50653740Y4025000D01*
X50366842Y3967932D01*
X50096589Y3855990D01*
X49853368Y3693475D01*
X49646525Y3486632D01*
X49530000Y3312240D01*
X49413475Y3486632D01*
X49206632Y3693475D01*
X48963411Y3855990D01*
X48693158Y3967932D01*
X48406260Y4025000D01*
X48113740Y4025000D01*
X47826842Y3967932D01*
X47556589Y3855990D01*
X47313368Y3693475D01*
X47106525Y3486632D01*
X46990000Y3312240D01*
X46873475Y3486632D01*
X46666632Y3693475D01*
X46423411Y3855990D01*
X46153158Y3967932D01*
X45866260Y4025000D01*
X45573740Y4025000D01*
X45286842Y3967932D01*
X45016589Y3855990D01*
X44773368Y3693475D01*
X44566525Y3486632D01*
X44450000Y3312240D01*
X44333475Y3486632D01*
X44126632Y3693475D01*
X43883411Y3855990D01*
X43613158Y3967932D01*
X43326260Y4025000D01*
X43199801Y4025000D01*
X45399802Y6225000D01*
X47556289Y6225000D01*
X47600226Y6181063D01*
X47769744Y6067795D01*
X47958102Y5989774D01*
X48158061Y5950000D01*
X48361939Y5950000D01*
X48561898Y5989774D01*
X48750256Y6067795D01*
X48919774Y6181063D01*
X49063937Y6325226D01*
X49177205Y6494744D01*
X49255226Y6683102D01*
X49295000Y6883061D01*
X49295000Y7086939D01*
X49257387Y7276035D01*
X49793465Y6739956D01*
X49804774Y6683102D01*
X49882795Y6494744D01*
X49996063Y6325226D01*
X50140226Y6181063D01*
X50309744Y6067795D01*
X50498102Y5989774D01*
X50698061Y5950000D01*
X50901939Y5950000D01*
X51101898Y5989774D01*
X51290256Y6067795D01*
X51459774Y6181063D01*
X51603937Y6325226D01*
X51717205Y6494744D01*
X51795226Y6683102D01*
X51835000Y6883061D01*
X51835000Y7086939D01*
X51795226Y7286898D01*
X51717205Y7475256D01*
X51603937Y7644774D01*
X51459774Y7788937D01*
X51290256Y7902205D01*
X51101898Y7980226D01*
X51045044Y7991535D01*
X49551534Y9485044D01*
X49523817Y9518817D01*
X49389059Y9629411D01*
X49235313Y9711589D01*
X49068490Y9762195D01*
X48938477Y9775000D01*
X48938469Y9775000D01*
X48895000Y9779281D01*
X48851531Y9775000D01*
X44353454Y9775000D01*
X44305256Y9807205D01*
X44116898Y9885226D01*
X43916939Y9925000D01*
X43713061Y9925000D01*
X43513102Y9885226D01*
X43324744Y9807205D01*
X43155226Y9693937D01*
X43011063Y9549774D01*
X42897795Y9380256D01*
X42819774Y9191898D01*
X42780000Y8991939D01*
X42780000Y8788061D01*
X42819774Y8588102D01*
X42897795Y8399744D01*
X43011063Y8230226D01*
X43155226Y8086063D01*
X43324744Y7972795D01*
X43513102Y7894774D01*
X43713061Y7855000D01*
X43916939Y7855000D01*
X44116898Y7894774D01*
X44305256Y7972795D01*
X44353454Y8005000D01*
X48082650Y8005000D01*
X47958102Y7980226D01*
X47769744Y7902205D01*
X47600226Y7788937D01*
X47556289Y7745000D01*
X45122322Y7745000D01*
X45084999Y7748676D01*
X45047676Y7745000D01*
X45047667Y7745000D01*
X44936014Y7734003D01*
X44792753Y7690546D01*
X44660724Y7619974D01*
X44544999Y7525001D01*
X44521201Y7496003D01*
X41006408Y3981209D01*
X40786260Y4025000D01*
X40493740Y4025000D01*
X40206842Y3967932D01*
X39936589Y3855990D01*
X39693368Y3693475D01*
X39486525Y3486632D01*
X39324010Y3243411D01*
X39212068Y2973158D01*
X39155000Y2686260D01*
X37045000Y2686260D01*
X36987932Y2973158D01*
X36875990Y3243411D01*
X36713475Y3486632D01*
X36506632Y3693475D01*
X36263411Y3855990D01*
X35993158Y3967932D01*
X35706260Y4025000D01*
X35413740Y4025000D01*
X35126842Y3967932D01*
X34856589Y3855990D01*
X34613368Y3693475D01*
X34406525Y3486632D01*
X34290000Y3312240D01*
X34173475Y3486632D01*
X33966632Y3693475D01*
X33723411Y3855990D01*
X33453158Y3967932D01*
X33166260Y4025000D01*
X32873740Y4025000D01*
X32586842Y3967932D01*
X32316589Y3855990D01*
X32073368Y3693475D01*
X31866525Y3486632D01*
X31750000Y3312240D01*
X31633475Y3486632D01*
X31426632Y3693475D01*
X31183411Y3855990D01*
X30913158Y3967932D01*
X30626260Y4025000D01*
X30333740Y4025000D01*
X30046842Y3967932D01*
X29776589Y3855990D01*
X29533368Y3693475D01*
X29326525Y3486632D01*
X29210000Y3312240D01*
X29093475Y3486632D01*
X28886632Y3693475D01*
X28643411Y3855990D01*
X28373158Y3967932D01*
X28086260Y4025000D01*
X27793740Y4025000D01*
X27506842Y3967932D01*
X27236589Y3855990D01*
X26993368Y3693475D01*
X26786525Y3486632D01*
X26670000Y3312240D01*
X26553475Y3486632D01*
X26346632Y3693475D01*
X26103411Y3855990D01*
X25833158Y3967932D01*
X25546260Y4025000D01*
X25419801Y4025000D01*
X27619802Y6225000D01*
X29776289Y6225000D01*
X29820226Y6181063D01*
X29989744Y6067795D01*
X30178102Y5989774D01*
X30378061Y5950000D01*
X30581939Y5950000D01*
X30781898Y5989774D01*
X30970256Y6067795D01*
X31139774Y6181063D01*
X31283937Y6325226D01*
X31397205Y6494744D01*
X31475226Y6683102D01*
X31515000Y6883061D01*
X31515000Y7086939D01*
X31477387Y7276035D01*
X32013465Y6739956D01*
X32024774Y6683102D01*
X32102795Y6494744D01*
X32216063Y6325226D01*
X32360226Y6181063D01*
X32529744Y6067795D01*
X32718102Y5989774D01*
X32918061Y5950000D01*
X33121939Y5950000D01*
X33321898Y5989774D01*
X33510256Y6067795D01*
X33679774Y6181063D01*
X33823937Y6325226D01*
X33937205Y6494744D01*
X34015226Y6683102D01*
X34055000Y6883061D01*
X34055000Y7086939D01*
X34015226Y7286898D01*
X33937205Y7475256D01*
X33823937Y7644774D01*
X33679774Y7788937D01*
X33510256Y7902205D01*
X33321898Y7980226D01*
X33265044Y7991535D01*
X32231578Y9025000D01*
X33184869Y9025000D01*
X37336856Y4873012D01*
X37466376Y4766717D01*
X37663552Y4661325D01*
X37877500Y4596424D01*
X38099999Y4574510D01*
X38322498Y4596424D01*
X38536446Y4661325D01*
X38733622Y4766717D01*
X38906448Y4908552D01*
X39048283Y5081378D01*
X39153675Y5278554D01*
X39218576Y5492502D01*
X39240490Y5715001D01*
X39218576Y5937500D01*
X39153675Y6151448D01*
X39048283Y6348624D01*
X38941988Y6478144D01*
X34496996Y10923135D01*
X34461449Y10966449D01*
X34288623Y11108284D01*
X34091447Y11213676D01*
X33877499Y11278577D01*
X33710752Y11295000D01*
X33710751Y11295000D01*
X33655000Y11300491D01*
X33599249Y11295000D01*
X15930751Y11295000D01*
X15875000Y11300491D01*
X15819249Y11295000D01*
X3505107Y11295000D01*
X3486632Y11313475D01*
X3312240Y11430000D01*
X3486632Y11546525D01*
X3693475Y11753368D01*
X3734656Y11815000D01*
X19006531Y11815000D01*
X19050000Y11810719D01*
X19093469Y11815000D01*
X36786531Y11815000D01*
X36830000Y11810719D01*
X36873469Y11815000D01*
X36873477Y11815000D01*
X37003490Y11827805D01*
X37170313Y11878411D01*
X37324059Y11960589D01*
X37458817Y12071183D01*
X37486534Y12104956D01*
X38345044Y12963465D01*
X38401898Y12974774D01*
X38590256Y13052795D01*
X38759774Y13166063D01*
X38903937Y13310226D01*
X39017205Y13479744D01*
X39095226Y13668102D01*
X39135000Y13868061D01*
X39135000Y14071939D01*
X39095226Y14271898D01*
X39017205Y14460256D01*
X38903937Y14629774D01*
X38759774Y14773937D01*
X38590256Y14887205D01*
X38401898Y14965226D01*
X38201939Y15005000D01*
X37998061Y15005000D01*
X37798102Y14965226D01*
X37609744Y14887205D01*
X37440226Y14773937D01*
X37296063Y14629774D01*
X37182795Y14460256D01*
X37104774Y14271898D01*
X37093465Y14215044D01*
X36463422Y13585000D01*
X21280804Y13585000D01*
X21315226Y13668102D01*
X21355000Y13868061D01*
X21355000Y14071939D01*
X21315226Y14271898D01*
X21237205Y14460256D01*
X21123937Y14629774D01*
X20979774Y14773937D01*
X20810256Y14887205D01*
X20621898Y14965226D01*
X20421939Y15005000D01*
X20218061Y15005000D01*
X20018102Y14965226D01*
X19829744Y14887205D01*
X19660226Y14773937D01*
X19516063Y14629774D01*
X19402795Y14460256D01*
X19324774Y14271898D01*
X19313465Y14215044D01*
X18683422Y13585000D01*
X3734656Y13585000D01*
X3693475Y13646632D01*
X3561620Y13778487D01*
X3634180Y13800498D01*
X3744494Y13859463D01*
X3841185Y13938815D01*
X3920537Y14035506D01*
X3979502Y14145820D01*
X4015812Y14265518D01*
X4028072Y14390000D01*
X4025000Y14954250D01*
X3866250Y15113000D01*
X2667000Y15113000D01*
X2667000Y15093000D01*
X2413000Y15093000D01*
X2413000Y15113000D01*
X1213750Y15113000D01*
X1055000Y14954250D01*
X1051928Y14390000D01*
X660000Y14390000D01*
X660000Y16090000D01*
X1051928Y16090000D01*
X1055000Y15525750D01*
X1213750Y15367000D01*
X2413000Y15367000D01*
X2413000Y16566250D01*
X2667000Y16566250D01*
X2667000Y15367000D01*
X3866250Y15367000D01*
X3885510Y15386260D01*
X8675000Y15386260D01*
X8675000Y15093740D01*
X8732068Y14806842D01*
X8844010Y14536589D01*
X9006525Y14293368D01*
X9213368Y14086525D01*
X9456589Y13924010D01*
X9726842Y13812068D01*
X10013740Y13755000D01*
X10306260Y13755000D01*
X10593158Y13812068D01*
X10863411Y13924010D01*
X11106632Y14086525D01*
X11313475Y14293368D01*
X11430000Y14467760D01*
X11546525Y14293368D01*
X11753368Y14086525D01*
X11996589Y13924010D01*
X12266842Y13812068D01*
X12553740Y13755000D01*
X12846260Y13755000D01*
X13133158Y13812068D01*
X13403411Y13924010D01*
X13646632Y14086525D01*
X13853475Y14293368D01*
X13970000Y14467760D01*
X14086525Y14293368D01*
X14293368Y14086525D01*
X14536589Y13924010D01*
X14806842Y13812068D01*
X15093740Y13755000D01*
X15386260Y13755000D01*
X15673158Y13812068D01*
X15943411Y13924010D01*
X16186632Y14086525D01*
X16393475Y14293368D01*
X16510000Y14467760D01*
X16626525Y14293368D01*
X16833368Y14086525D01*
X17076589Y13924010D01*
X17346842Y13812068D01*
X17633740Y13755000D01*
X17926260Y13755000D01*
X18213158Y13812068D01*
X18483411Y13924010D01*
X18726632Y14086525D01*
X18933475Y14293368D01*
X19095990Y14536589D01*
X19207932Y14806842D01*
X19265000Y15093740D01*
X19265000Y15386260D01*
X26455000Y15386260D01*
X26455000Y15093740D01*
X26512068Y14806842D01*
X26624010Y14536589D01*
X26786525Y14293368D01*
X26993368Y14086525D01*
X27236589Y13924010D01*
X27506842Y13812068D01*
X27793740Y13755000D01*
X28086260Y13755000D01*
X28373158Y13812068D01*
X28643411Y13924010D01*
X28886632Y14086525D01*
X29093475Y14293368D01*
X29210000Y14467760D01*
X29326525Y14293368D01*
X29533368Y14086525D01*
X29776589Y13924010D01*
X30046842Y13812068D01*
X30333740Y13755000D01*
X30626260Y13755000D01*
X30913158Y13812068D01*
X31183411Y13924010D01*
X31426632Y14086525D01*
X31633475Y14293368D01*
X31750000Y14467760D01*
X31866525Y14293368D01*
X32073368Y14086525D01*
X32316589Y13924010D01*
X32586842Y13812068D01*
X32873740Y13755000D01*
X33166260Y13755000D01*
X33453158Y13812068D01*
X33723411Y13924010D01*
X33966632Y14086525D01*
X34173475Y14293368D01*
X34290000Y14467760D01*
X34406525Y14293368D01*
X34613368Y14086525D01*
X34856589Y13924010D01*
X35126842Y13812068D01*
X35413740Y13755000D01*
X35706260Y13755000D01*
X35993158Y13812068D01*
X36263411Y13924010D01*
X36506632Y14086525D01*
X36713475Y14293368D01*
X36875990Y14536589D01*
X36987932Y14806842D01*
X37045000Y15093740D01*
X37045000Y15386260D01*
X44235000Y15386260D01*
X44235000Y15093740D01*
X44292068Y14806842D01*
X44404010Y14536589D01*
X44566525Y14293368D01*
X44773368Y14086525D01*
X45016589Y13924010D01*
X45286842Y13812068D01*
X45573740Y13755000D01*
X45866260Y13755000D01*
X46153158Y13812068D01*
X46423411Y13924010D01*
X46666632Y14086525D01*
X46873475Y14293368D01*
X46990000Y14467760D01*
X47106525Y14293368D01*
X47313368Y14086525D01*
X47556589Y13924010D01*
X47826842Y13812068D01*
X48113740Y13755000D01*
X48406260Y13755000D01*
X48693158Y13812068D01*
X48963411Y13924010D01*
X49206632Y14086525D01*
X49413475Y14293368D01*
X49530000Y14467760D01*
X49646525Y14293368D01*
X49853368Y14086525D01*
X50096589Y13924010D01*
X50366842Y13812068D01*
X50653740Y13755000D01*
X50946260Y13755000D01*
X51233158Y13812068D01*
X51503411Y13924010D01*
X51746632Y14086525D01*
X51953475Y14293368D01*
X52070000Y14467760D01*
X52186525Y14293368D01*
X52393368Y14086525D01*
X52636589Y13924010D01*
X52906842Y13812068D01*
X53193740Y13755000D01*
X53486260Y13755000D01*
X53773158Y13812068D01*
X54043411Y13924010D01*
X54286632Y14086525D01*
X54493475Y14293368D01*
X54655990Y14536589D01*
X54767932Y14806842D01*
X54825000Y15093740D01*
X54825000Y15386260D01*
X54767932Y15673158D01*
X54655990Y15943411D01*
X54493475Y16186632D01*
X54286632Y16393475D01*
X54043411Y16555990D01*
X53773158Y16667932D01*
X53486260Y16725000D01*
X53193740Y16725000D01*
X52906842Y16667932D01*
X52636589Y16555990D01*
X52393368Y16393475D01*
X52186525Y16186632D01*
X52070000Y16012240D01*
X51953475Y16186632D01*
X51746632Y16393475D01*
X51503411Y16555990D01*
X51233158Y16667932D01*
X50946260Y16725000D01*
X50653740Y16725000D01*
X50366842Y16667932D01*
X50096589Y16555990D01*
X49853368Y16393475D01*
X49646525Y16186632D01*
X49530000Y16012240D01*
X49413475Y16186632D01*
X49206632Y16393475D01*
X48963411Y16555990D01*
X48693158Y16667932D01*
X48406260Y16725000D01*
X48113740Y16725000D01*
X47826842Y16667932D01*
X47556589Y16555990D01*
X47313368Y16393475D01*
X47106525Y16186632D01*
X46990000Y16012240D01*
X46873475Y16186632D01*
X46666632Y16393475D01*
X46423411Y16555990D01*
X46153158Y16667932D01*
X45866260Y16725000D01*
X45573740Y16725000D01*
X45286842Y16667932D01*
X45016589Y16555990D01*
X44773368Y16393475D01*
X44566525Y16186632D01*
X44404010Y15943411D01*
X44292068Y15673158D01*
X44235000Y15386260D01*
X37045000Y15386260D01*
X36987932Y15673158D01*
X36875990Y15943411D01*
X36713475Y16186632D01*
X36506632Y16393475D01*
X36263411Y16555990D01*
X35993158Y16667932D01*
X35706260Y16725000D01*
X35413740Y16725000D01*
X35126842Y16667932D01*
X34856589Y16555990D01*
X34613368Y16393475D01*
X34406525Y16186632D01*
X34290000Y16012240D01*
X34173475Y16186632D01*
X33966632Y16393475D01*
X33723411Y16555990D01*
X33453158Y16667932D01*
X33166260Y16725000D01*
X32873740Y16725000D01*
X32586842Y16667932D01*
X32316589Y16555990D01*
X32073368Y16393475D01*
X31866525Y16186632D01*
X31750000Y16012240D01*
X31633475Y16186632D01*
X31426632Y16393475D01*
X31183411Y16555990D01*
X30913158Y16667932D01*
X30626260Y16725000D01*
X30333740Y16725000D01*
X30046842Y16667932D01*
X29776589Y16555990D01*
X29533368Y16393475D01*
X29326525Y16186632D01*
X29210000Y16012240D01*
X29093475Y16186632D01*
X28886632Y16393475D01*
X28643411Y16555990D01*
X28373158Y16667932D01*
X28086260Y16725000D01*
X27793740Y16725000D01*
X27506842Y16667932D01*
X27236589Y16555990D01*
X26993368Y16393475D01*
X26786525Y16186632D01*
X26624010Y15943411D01*
X26512068Y15673158D01*
X26455000Y15386260D01*
X19265000Y15386260D01*
X19207932Y15673158D01*
X19095990Y15943411D01*
X18933475Y16186632D01*
X18726632Y16393475D01*
X18483411Y16555990D01*
X18213158Y16667932D01*
X17926260Y16725000D01*
X17633740Y16725000D01*
X17346842Y16667932D01*
X17076589Y16555990D01*
X16833368Y16393475D01*
X16626525Y16186632D01*
X16510000Y16012240D01*
X16393475Y16186632D01*
X16186632Y16393475D01*
X15943411Y16555990D01*
X15673158Y16667932D01*
X15386260Y16725000D01*
X15093740Y16725000D01*
X14806842Y16667932D01*
X14536589Y16555990D01*
X14293368Y16393475D01*
X14086525Y16186632D01*
X13970000Y16012240D01*
X13853475Y16186632D01*
X13646632Y16393475D01*
X13403411Y16555990D01*
X13133158Y16667932D01*
X12846260Y16725000D01*
X12553740Y16725000D01*
X12266842Y16667932D01*
X11996589Y16555990D01*
X11753368Y16393475D01*
X11546525Y16186632D01*
X11430000Y16012240D01*
X11313475Y16186632D01*
X11106632Y16393475D01*
X10863411Y16555990D01*
X10593158Y16667932D01*
X10306260Y16725000D01*
X10013740Y16725000D01*
X9726842Y16667932D01*
X9456589Y16555990D01*
X9213368Y16393475D01*
X9006525Y16186632D01*
X8844010Y15943411D01*
X8732068Y15673158D01*
X8675000Y15386260D01*
X3885510Y15386260D01*
X4025000Y15525750D01*
X4028072Y16090000D01*
X4015812Y16214482D01*
X3979502Y16334180D01*
X3920537Y16444494D01*
X3841185Y16541185D01*
X3744494Y16620537D01*
X3634180Y16679502D01*
X3514482Y16715812D01*
X3390000Y16728072D01*
X2825750Y16725000D01*
X2667000Y16566250D01*
X2413000Y16566250D01*
X2254250Y16725000D01*
X1690000Y16728072D01*
X1565518Y16715812D01*
X1445820Y16679502D01*
X1335506Y16620537D01*
X1238815Y16541185D01*
X1159463Y16444494D01*
X1100498Y16334180D01*
X1064188Y16214482D01*
X1051928Y16090000D01*
X660000Y16090000D01*
X660000Y17120000D01*
X55220000Y17120000D01*
X55220001Y660000D01*
%TA.AperFunction,Conductor*%
D18*
G36*
X55220001Y660000D02*
G01*
X660000Y660000D01*
X660000Y14390000D01*
X1051928Y14390000D01*
X1064188Y14265518D01*
X1100498Y14145820D01*
X1159463Y14035506D01*
X1238815Y13938815D01*
X1335506Y13859463D01*
X1445820Y13800498D01*
X1518380Y13778487D01*
X1386525Y13646632D01*
X1224010Y13403411D01*
X1112068Y13133158D01*
X1055000Y12846260D01*
X1055000Y12553740D01*
X1112068Y12266842D01*
X1224010Y11996589D01*
X1386525Y11753368D01*
X1593368Y11546525D01*
X1767760Y11430000D01*
X1593368Y11313475D01*
X1386525Y11106632D01*
X1224010Y10863411D01*
X1112068Y10593158D01*
X1055000Y10306260D01*
X1055000Y10013740D01*
X1112068Y9726842D01*
X1224010Y9456589D01*
X1386525Y9213368D01*
X1593368Y9006525D01*
X1836589Y8844010D01*
X2106842Y8732068D01*
X2393740Y8675000D01*
X2686260Y8675000D01*
X2973158Y8732068D01*
X3243411Y8844010D01*
X3486632Y9006525D01*
X3505107Y9025000D01*
X7226576Y9025000D01*
X7220000Y8991939D01*
X7220000Y8788061D01*
X7259774Y8588102D01*
X7337795Y8399744D01*
X7451063Y8230226D01*
X7595226Y8086063D01*
X7764744Y7972795D01*
X7953102Y7894774D01*
X8153061Y7855000D01*
X8356939Y7855000D01*
X8556898Y7894774D01*
X8745256Y7972795D01*
X8793454Y8005000D01*
X12522650Y8005000D01*
X12398102Y7980226D01*
X12209744Y7902205D01*
X12040226Y7788937D01*
X11996289Y7745000D01*
X9562322Y7745000D01*
X9524999Y7748676D01*
X9487676Y7745000D01*
X9487667Y7745000D01*
X9376014Y7734003D01*
X9232753Y7690546D01*
X9100724Y7619974D01*
X8984999Y7525001D01*
X8961201Y7496003D01*
X5446408Y3981209D01*
X5226260Y4025000D01*
X4933740Y4025000D01*
X4646842Y3967932D01*
X4376589Y3855990D01*
X4133368Y3693475D01*
X3926525Y3486632D01*
X3764010Y3243411D01*
X3652068Y2973158D01*
X3595000Y2686260D01*
X3595000Y2393740D01*
X3652068Y2106842D01*
X3764010Y1836589D01*
X3926525Y1593368D01*
X4133368Y1386525D01*
X4376589Y1224010D01*
X4646842Y1112068D01*
X4933740Y1055000D01*
X5226260Y1055000D01*
X5513158Y1112068D01*
X5783411Y1224010D01*
X6026632Y1386525D01*
X6233475Y1593368D01*
X6350000Y1767760D01*
X6466525Y1593368D01*
X6673368Y1386525D01*
X6916589Y1224010D01*
X7186842Y1112068D01*
X7473740Y1055000D01*
X7766260Y1055000D01*
X8053158Y1112068D01*
X8323411Y1224010D01*
X8566632Y1386525D01*
X8773475Y1593368D01*
X8890000Y1767760D01*
X9006525Y1593368D01*
X9213368Y1386525D01*
X9456589Y1224010D01*
X9726842Y1112068D01*
X10013740Y1055000D01*
X10306260Y1055000D01*
X10593158Y1112068D01*
X10863411Y1224010D01*
X11106632Y1386525D01*
X11313475Y1593368D01*
X11430000Y1767760D01*
X11546525Y1593368D01*
X11753368Y1386525D01*
X11996589Y1224010D01*
X12266842Y1112068D01*
X12553740Y1055000D01*
X12846260Y1055000D01*
X13133158Y1112068D01*
X13403411Y1224010D01*
X13646632Y1386525D01*
X13853475Y1593368D01*
X13970000Y1767760D01*
X14086525Y1593368D01*
X14293368Y1386525D01*
X14536589Y1224010D01*
X14806842Y1112068D01*
X15093740Y1055000D01*
X15386260Y1055000D01*
X15673158Y1112068D01*
X15943411Y1224010D01*
X16186632Y1386525D01*
X16393475Y1593368D01*
X16510000Y1767760D01*
X16626525Y1593368D01*
X16833368Y1386525D01*
X17076589Y1224010D01*
X17346842Y1112068D01*
X17633740Y1055000D01*
X17926260Y1055000D01*
X18213158Y1112068D01*
X18483411Y1224010D01*
X18726632Y1386525D01*
X18933475Y1593368D01*
X19095990Y1836589D01*
X19207932Y2106842D01*
X19265000Y2393740D01*
X19265000Y2686260D01*
X19207932Y2973158D01*
X19095990Y3243411D01*
X18933475Y3486632D01*
X18726632Y3693475D01*
X18483411Y3855990D01*
X18213158Y3967932D01*
X17926260Y4025000D01*
X17633740Y4025000D01*
X17346842Y3967932D01*
X17076589Y3855990D01*
X16833368Y3693475D01*
X16626525Y3486632D01*
X16510000Y3312240D01*
X16393475Y3486632D01*
X16186632Y3693475D01*
X15943411Y3855990D01*
X15673158Y3967932D01*
X15386260Y4025000D01*
X15093740Y4025000D01*
X14806842Y3967932D01*
X14536589Y3855990D01*
X14293368Y3693475D01*
X14086525Y3486632D01*
X13970000Y3312240D01*
X13853475Y3486632D01*
X13646632Y3693475D01*
X13403411Y3855990D01*
X13133158Y3967932D01*
X12846260Y4025000D01*
X12553740Y4025000D01*
X12266842Y3967932D01*
X11996589Y3855990D01*
X11753368Y3693475D01*
X11546525Y3486632D01*
X11430000Y3312240D01*
X11313475Y3486632D01*
X11106632Y3693475D01*
X10863411Y3855990D01*
X10593158Y3967932D01*
X10306260Y4025000D01*
X10013740Y4025000D01*
X9726842Y3967932D01*
X9456589Y3855990D01*
X9213368Y3693475D01*
X9006525Y3486632D01*
X8890000Y3312240D01*
X8773475Y3486632D01*
X8566632Y3693475D01*
X8323411Y3855990D01*
X8053158Y3967932D01*
X7766260Y4025000D01*
X7639801Y4025000D01*
X9839802Y6225000D01*
X11996289Y6225000D01*
X12040226Y6181063D01*
X12209744Y6067795D01*
X12398102Y5989774D01*
X12598061Y5950000D01*
X12801939Y5950000D01*
X13001898Y5989774D01*
X13190256Y6067795D01*
X13359774Y6181063D01*
X13503937Y6325226D01*
X13617205Y6494744D01*
X13695226Y6683102D01*
X13735000Y6883061D01*
X13735000Y7086939D01*
X13697387Y7276035D01*
X14233465Y6739956D01*
X14244774Y6683102D01*
X14322795Y6494744D01*
X14436063Y6325226D01*
X14580226Y6181063D01*
X14749744Y6067795D01*
X14938102Y5989774D01*
X15138061Y5950000D01*
X15341939Y5950000D01*
X15541898Y5989774D01*
X15730256Y6067795D01*
X15899774Y6181063D01*
X16043937Y6325226D01*
X16157205Y6494744D01*
X16235226Y6683102D01*
X16275000Y6883061D01*
X16275000Y7086939D01*
X16235226Y7286898D01*
X16157205Y7475256D01*
X16043937Y7644774D01*
X15899774Y7788937D01*
X15730256Y7902205D01*
X15541898Y7980226D01*
X15485044Y7991535D01*
X14451578Y9025000D01*
X15404869Y9025000D01*
X19556856Y4873012D01*
X19686376Y4766717D01*
X19883552Y4661325D01*
X20097500Y4596424D01*
X20319999Y4574510D01*
X20542498Y4596424D01*
X20756446Y4661325D01*
X20953622Y4766717D01*
X21126448Y4908552D01*
X21268283Y5081378D01*
X21373675Y5278554D01*
X21438576Y5492502D01*
X21460490Y5715001D01*
X21438576Y5937500D01*
X21373675Y6151448D01*
X21268283Y6348624D01*
X21161988Y6478144D01*
X18615131Y9025000D01*
X25006576Y9025000D01*
X25000000Y8991939D01*
X25000000Y8788061D01*
X25039774Y8588102D01*
X25117795Y8399744D01*
X25231063Y8230226D01*
X25375226Y8086063D01*
X25544744Y7972795D01*
X25733102Y7894774D01*
X25933061Y7855000D01*
X26136939Y7855000D01*
X26336898Y7894774D01*
X26525256Y7972795D01*
X26573454Y8005000D01*
X30302650Y8005000D01*
X30178102Y7980226D01*
X29989744Y7902205D01*
X29820226Y7788937D01*
X29776289Y7745000D01*
X27342322Y7745000D01*
X27304999Y7748676D01*
X27267676Y7745000D01*
X27267667Y7745000D01*
X27156014Y7734003D01*
X27012753Y7690546D01*
X26880724Y7619974D01*
X26764999Y7525001D01*
X26741201Y7496003D01*
X23226408Y3981209D01*
X23006260Y4025000D01*
X22713740Y4025000D01*
X22426842Y3967932D01*
X22156589Y3855990D01*
X21913368Y3693475D01*
X21706525Y3486632D01*
X21544010Y3243411D01*
X21432068Y2973158D01*
X21375000Y2686260D01*
X21375000Y2393740D01*
X21432068Y2106842D01*
X21544010Y1836589D01*
X21706525Y1593368D01*
X21913368Y1386525D01*
X22156589Y1224010D01*
X22426842Y1112068D01*
X22713740Y1055000D01*
X23006260Y1055000D01*
X23293158Y1112068D01*
X23563411Y1224010D01*
X23806632Y1386525D01*
X24013475Y1593368D01*
X24130000Y1767760D01*
X24246525Y1593368D01*
X24453368Y1386525D01*
X24696589Y1224010D01*
X24966842Y1112068D01*
X25253740Y1055000D01*
X25546260Y1055000D01*
X25833158Y1112068D01*
X26103411Y1224010D01*
X26346632Y1386525D01*
X26553475Y1593368D01*
X26670000Y1767760D01*
X26786525Y1593368D01*
X26993368Y1386525D01*
X27236589Y1224010D01*
X27506842Y1112068D01*
X27793740Y1055000D01*
X28086260Y1055000D01*
X28373158Y1112068D01*
X28643411Y1224010D01*
X28886632Y1386525D01*
X29093475Y1593368D01*
X29210000Y1767760D01*
X29326525Y1593368D01*
X29533368Y1386525D01*
X29776589Y1224010D01*
X30046842Y1112068D01*
X30333740Y1055000D01*
X30626260Y1055000D01*
X30913158Y1112068D01*
X31183411Y1224010D01*
X31426632Y1386525D01*
X31633475Y1593368D01*
X31750000Y1767760D01*
X31866525Y1593368D01*
X32073368Y1386525D01*
X32316589Y1224010D01*
X32586842Y1112068D01*
X32873740Y1055000D01*
X33166260Y1055000D01*
X33453158Y1112068D01*
X33723411Y1224010D01*
X33966632Y1386525D01*
X34173475Y1593368D01*
X34290000Y1767760D01*
X34406525Y1593368D01*
X34613368Y1386525D01*
X34856589Y1224010D01*
X35126842Y1112068D01*
X35413740Y1055000D01*
X35706260Y1055000D01*
X35993158Y1112068D01*
X36263411Y1224010D01*
X36506632Y1386525D01*
X36713475Y1593368D01*
X36875990Y1836589D01*
X36987932Y2106842D01*
X37045000Y2393740D01*
X37045000Y2686260D01*
X39155000Y2686260D01*
X39155000Y2393740D01*
X39212068Y2106842D01*
X39324010Y1836589D01*
X39486525Y1593368D01*
X39693368Y1386525D01*
X39936589Y1224010D01*
X40206842Y1112068D01*
X40493740Y1055000D01*
X40786260Y1055000D01*
X41073158Y1112068D01*
X41343411Y1224010D01*
X41586632Y1386525D01*
X41793475Y1593368D01*
X41910000Y1767760D01*
X42026525Y1593368D01*
X42233368Y1386525D01*
X42476589Y1224010D01*
X42746842Y1112068D01*
X43033740Y1055000D01*
X43326260Y1055000D01*
X43613158Y1112068D01*
X43883411Y1224010D01*
X44126632Y1386525D01*
X44333475Y1593368D01*
X44450000Y1767760D01*
X44566525Y1593368D01*
X44773368Y1386525D01*
X45016589Y1224010D01*
X45286842Y1112068D01*
X45573740Y1055000D01*
X45866260Y1055000D01*
X46153158Y1112068D01*
X46423411Y1224010D01*
X46666632Y1386525D01*
X46873475Y1593368D01*
X46990000Y1767760D01*
X47106525Y1593368D01*
X47313368Y1386525D01*
X47556589Y1224010D01*
X47826842Y1112068D01*
X48113740Y1055000D01*
X48406260Y1055000D01*
X48693158Y1112068D01*
X48963411Y1224010D01*
X49206632Y1386525D01*
X49413475Y1593368D01*
X49530000Y1767760D01*
X49646525Y1593368D01*
X49853368Y1386525D01*
X50096589Y1224010D01*
X50366842Y1112068D01*
X50653740Y1055000D01*
X50946260Y1055000D01*
X51233158Y1112068D01*
X51503411Y1224010D01*
X51746632Y1386525D01*
X51953475Y1593368D01*
X52070000Y1767760D01*
X52186525Y1593368D01*
X52393368Y1386525D01*
X52636589Y1224010D01*
X52906842Y1112068D01*
X53193740Y1055000D01*
X53486260Y1055000D01*
X53773158Y1112068D01*
X54043411Y1224010D01*
X54286632Y1386525D01*
X54493475Y1593368D01*
X54655990Y1836589D01*
X54767932Y2106842D01*
X54825000Y2393740D01*
X54825000Y2686260D01*
X54767932Y2973158D01*
X54655990Y3243411D01*
X54493475Y3486632D01*
X54286632Y3693475D01*
X54043411Y3855990D01*
X53773158Y3967932D01*
X53486260Y4025000D01*
X53193740Y4025000D01*
X52906842Y3967932D01*
X52636589Y3855990D01*
X52393368Y3693475D01*
X52186525Y3486632D01*
X52070000Y3312240D01*
X51953475Y3486632D01*
X51746632Y3693475D01*
X51503411Y3855990D01*
X51233158Y3967932D01*
X50946260Y4025000D01*
X50653740Y4025000D01*
X50366842Y3967932D01*
X50096589Y3855990D01*
X49853368Y3693475D01*
X49646525Y3486632D01*
X49530000Y3312240D01*
X49413475Y3486632D01*
X49206632Y3693475D01*
X48963411Y3855990D01*
X48693158Y3967932D01*
X48406260Y4025000D01*
X48113740Y4025000D01*
X47826842Y3967932D01*
X47556589Y3855990D01*
X47313368Y3693475D01*
X47106525Y3486632D01*
X46990000Y3312240D01*
X46873475Y3486632D01*
X46666632Y3693475D01*
X46423411Y3855990D01*
X46153158Y3967932D01*
X45866260Y4025000D01*
X45573740Y4025000D01*
X45286842Y3967932D01*
X45016589Y3855990D01*
X44773368Y3693475D01*
X44566525Y3486632D01*
X44450000Y3312240D01*
X44333475Y3486632D01*
X44126632Y3693475D01*
X43883411Y3855990D01*
X43613158Y3967932D01*
X43326260Y4025000D01*
X43199801Y4025000D01*
X45399802Y6225000D01*
X47556289Y6225000D01*
X47600226Y6181063D01*
X47769744Y6067795D01*
X47958102Y5989774D01*
X48158061Y5950000D01*
X48361939Y5950000D01*
X48561898Y5989774D01*
X48750256Y6067795D01*
X48919774Y6181063D01*
X49063937Y6325226D01*
X49177205Y6494744D01*
X49255226Y6683102D01*
X49295000Y6883061D01*
X49295000Y7086939D01*
X49257387Y7276035D01*
X49793465Y6739956D01*
X49804774Y6683102D01*
X49882795Y6494744D01*
X49996063Y6325226D01*
X50140226Y6181063D01*
X50309744Y6067795D01*
X50498102Y5989774D01*
X50698061Y5950000D01*
X50901939Y5950000D01*
X51101898Y5989774D01*
X51290256Y6067795D01*
X51459774Y6181063D01*
X51603937Y6325226D01*
X51717205Y6494744D01*
X51795226Y6683102D01*
X51835000Y6883061D01*
X51835000Y7086939D01*
X51795226Y7286898D01*
X51717205Y7475256D01*
X51603937Y7644774D01*
X51459774Y7788937D01*
X51290256Y7902205D01*
X51101898Y7980226D01*
X51045044Y7991535D01*
X49551534Y9485044D01*
X49523817Y9518817D01*
X49389059Y9629411D01*
X49235313Y9711589D01*
X49068490Y9762195D01*
X48938477Y9775000D01*
X48938469Y9775000D01*
X48895000Y9779281D01*
X48851531Y9775000D01*
X44353454Y9775000D01*
X44305256Y9807205D01*
X44116898Y9885226D01*
X43916939Y9925000D01*
X43713061Y9925000D01*
X43513102Y9885226D01*
X43324744Y9807205D01*
X43155226Y9693937D01*
X43011063Y9549774D01*
X42897795Y9380256D01*
X42819774Y9191898D01*
X42780000Y8991939D01*
X42780000Y8788061D01*
X42819774Y8588102D01*
X42897795Y8399744D01*
X43011063Y8230226D01*
X43155226Y8086063D01*
X43324744Y7972795D01*
X43513102Y7894774D01*
X43713061Y7855000D01*
X43916939Y7855000D01*
X44116898Y7894774D01*
X44305256Y7972795D01*
X44353454Y8005000D01*
X48082650Y8005000D01*
X47958102Y7980226D01*
X47769744Y7902205D01*
X47600226Y7788937D01*
X47556289Y7745000D01*
X45122322Y7745000D01*
X45084999Y7748676D01*
X45047676Y7745000D01*
X45047667Y7745000D01*
X44936014Y7734003D01*
X44792753Y7690546D01*
X44660724Y7619974D01*
X44544999Y7525001D01*
X44521201Y7496003D01*
X41006408Y3981209D01*
X40786260Y4025000D01*
X40493740Y4025000D01*
X40206842Y3967932D01*
X39936589Y3855990D01*
X39693368Y3693475D01*
X39486525Y3486632D01*
X39324010Y3243411D01*
X39212068Y2973158D01*
X39155000Y2686260D01*
X37045000Y2686260D01*
X36987932Y2973158D01*
X36875990Y3243411D01*
X36713475Y3486632D01*
X36506632Y3693475D01*
X36263411Y3855990D01*
X35993158Y3967932D01*
X35706260Y4025000D01*
X35413740Y4025000D01*
X35126842Y3967932D01*
X34856589Y3855990D01*
X34613368Y3693475D01*
X34406525Y3486632D01*
X34290000Y3312240D01*
X34173475Y3486632D01*
X33966632Y3693475D01*
X33723411Y3855990D01*
X33453158Y3967932D01*
X33166260Y4025000D01*
X32873740Y4025000D01*
X32586842Y3967932D01*
X32316589Y3855990D01*
X32073368Y3693475D01*
X31866525Y3486632D01*
X31750000Y3312240D01*
X31633475Y3486632D01*
X31426632Y3693475D01*
X31183411Y3855990D01*
X30913158Y3967932D01*
X30626260Y4025000D01*
X30333740Y4025000D01*
X30046842Y3967932D01*
X29776589Y3855990D01*
X29533368Y3693475D01*
X29326525Y3486632D01*
X29210000Y3312240D01*
X29093475Y3486632D01*
X28886632Y3693475D01*
X28643411Y3855990D01*
X28373158Y3967932D01*
X28086260Y4025000D01*
X27793740Y4025000D01*
X27506842Y3967932D01*
X27236589Y3855990D01*
X26993368Y3693475D01*
X26786525Y3486632D01*
X26670000Y3312240D01*
X26553475Y3486632D01*
X26346632Y3693475D01*
X26103411Y3855990D01*
X25833158Y3967932D01*
X25546260Y4025000D01*
X25419801Y4025000D01*
X27619802Y6225000D01*
X29776289Y6225000D01*
X29820226Y6181063D01*
X29989744Y6067795D01*
X30178102Y5989774D01*
X30378061Y5950000D01*
X30581939Y5950000D01*
X30781898Y5989774D01*
X30970256Y6067795D01*
X31139774Y6181063D01*
X31283937Y6325226D01*
X31397205Y6494744D01*
X31475226Y6683102D01*
X31515000Y6883061D01*
X31515000Y7086939D01*
X31477387Y7276035D01*
X32013465Y6739956D01*
X32024774Y6683102D01*
X32102795Y6494744D01*
X32216063Y6325226D01*
X32360226Y6181063D01*
X32529744Y6067795D01*
X32718102Y5989774D01*
X32918061Y5950000D01*
X33121939Y5950000D01*
X33321898Y5989774D01*
X33510256Y6067795D01*
X33679774Y6181063D01*
X33823937Y6325226D01*
X33937205Y6494744D01*
X34015226Y6683102D01*
X34055000Y6883061D01*
X34055000Y7086939D01*
X34015226Y7286898D01*
X33937205Y7475256D01*
X33823937Y7644774D01*
X33679774Y7788937D01*
X33510256Y7902205D01*
X33321898Y7980226D01*
X33265044Y7991535D01*
X32231578Y9025000D01*
X33184869Y9025000D01*
X37336856Y4873012D01*
X37466376Y4766717D01*
X37663552Y4661325D01*
X37877500Y4596424D01*
X38099999Y4574510D01*
X38322498Y4596424D01*
X38536446Y4661325D01*
X38733622Y4766717D01*
X38906448Y4908552D01*
X39048283Y5081378D01*
X39153675Y5278554D01*
X39218576Y5492502D01*
X39240490Y5715001D01*
X39218576Y5937500D01*
X39153675Y6151448D01*
X39048283Y6348624D01*
X38941988Y6478144D01*
X34496996Y10923135D01*
X34461449Y10966449D01*
X34288623Y11108284D01*
X34091447Y11213676D01*
X33877499Y11278577D01*
X33710752Y11295000D01*
X33710751Y11295000D01*
X33655000Y11300491D01*
X33599249Y11295000D01*
X15930751Y11295000D01*
X15875000Y11300491D01*
X15819249Y11295000D01*
X3505107Y11295000D01*
X3486632Y11313475D01*
X3312240Y11430000D01*
X3486632Y11546525D01*
X3693475Y11753368D01*
X3734656Y11815000D01*
X19006531Y11815000D01*
X19050000Y11810719D01*
X19093469Y11815000D01*
X36786531Y11815000D01*
X36830000Y11810719D01*
X36873469Y11815000D01*
X36873477Y11815000D01*
X37003490Y11827805D01*
X37170313Y11878411D01*
X37324059Y11960589D01*
X37458817Y12071183D01*
X37486534Y12104956D01*
X38345044Y12963465D01*
X38401898Y12974774D01*
X38590256Y13052795D01*
X38759774Y13166063D01*
X38903937Y13310226D01*
X39017205Y13479744D01*
X39095226Y13668102D01*
X39135000Y13868061D01*
X39135000Y14071939D01*
X39095226Y14271898D01*
X39017205Y14460256D01*
X38903937Y14629774D01*
X38759774Y14773937D01*
X38590256Y14887205D01*
X38401898Y14965226D01*
X38201939Y15005000D01*
X37998061Y15005000D01*
X37798102Y14965226D01*
X37609744Y14887205D01*
X37440226Y14773937D01*
X37296063Y14629774D01*
X37182795Y14460256D01*
X37104774Y14271898D01*
X37093465Y14215044D01*
X36463422Y13585000D01*
X21280804Y13585000D01*
X21315226Y13668102D01*
X21355000Y13868061D01*
X21355000Y14071939D01*
X21315226Y14271898D01*
X21237205Y14460256D01*
X21123937Y14629774D01*
X20979774Y14773937D01*
X20810256Y14887205D01*
X20621898Y14965226D01*
X20421939Y15005000D01*
X20218061Y15005000D01*
X20018102Y14965226D01*
X19829744Y14887205D01*
X19660226Y14773937D01*
X19516063Y14629774D01*
X19402795Y14460256D01*
X19324774Y14271898D01*
X19313465Y14215044D01*
X18683422Y13585000D01*
X3734656Y13585000D01*
X3693475Y13646632D01*
X3561620Y13778487D01*
X3634180Y13800498D01*
X3744494Y13859463D01*
X3841185Y13938815D01*
X3920537Y14035506D01*
X3979502Y14145820D01*
X4015812Y14265518D01*
X4028072Y14390000D01*
X4025000Y14954250D01*
X3866250Y15113000D01*
X2667000Y15113000D01*
X2667000Y15093000D01*
X2413000Y15093000D01*
X2413000Y15113000D01*
X1213750Y15113000D01*
X1055000Y14954250D01*
X1051928Y14390000D01*
X660000Y14390000D01*
X660000Y16090000D01*
X1051928Y16090000D01*
X1055000Y15525750D01*
X1213750Y15367000D01*
X2413000Y15367000D01*
X2413000Y16566250D01*
X2667000Y16566250D01*
X2667000Y15367000D01*
X3866250Y15367000D01*
X3885510Y15386260D01*
X8675000Y15386260D01*
X8675000Y15093740D01*
X8732068Y14806842D01*
X8844010Y14536589D01*
X9006525Y14293368D01*
X9213368Y14086525D01*
X9456589Y13924010D01*
X9726842Y13812068D01*
X10013740Y13755000D01*
X10306260Y13755000D01*
X10593158Y13812068D01*
X10863411Y13924010D01*
X11106632Y14086525D01*
X11313475Y14293368D01*
X11430000Y14467760D01*
X11546525Y14293368D01*
X11753368Y14086525D01*
X11996589Y13924010D01*
X12266842Y13812068D01*
X12553740Y13755000D01*
X12846260Y13755000D01*
X13133158Y13812068D01*
X13403411Y13924010D01*
X13646632Y14086525D01*
X13853475Y14293368D01*
X13970000Y14467760D01*
X14086525Y14293368D01*
X14293368Y14086525D01*
X14536589Y13924010D01*
X14806842Y13812068D01*
X15093740Y13755000D01*
X15386260Y13755000D01*
X15673158Y13812068D01*
X15943411Y13924010D01*
X16186632Y14086525D01*
X16393475Y14293368D01*
X16510000Y14467760D01*
X16626525Y14293368D01*
X16833368Y14086525D01*
X17076589Y13924010D01*
X17346842Y13812068D01*
X17633740Y13755000D01*
X17926260Y13755000D01*
X18213158Y13812068D01*
X18483411Y13924010D01*
X18726632Y14086525D01*
X18933475Y14293368D01*
X19095990Y14536589D01*
X19207932Y14806842D01*
X19265000Y15093740D01*
X19265000Y15386260D01*
X26455000Y15386260D01*
X26455000Y15093740D01*
X26512068Y14806842D01*
X26624010Y14536589D01*
X26786525Y14293368D01*
X26993368Y14086525D01*
X27236589Y13924010D01*
X27506842Y13812068D01*
X27793740Y13755000D01*
X28086260Y13755000D01*
X28373158Y13812068D01*
X28643411Y13924010D01*
X28886632Y14086525D01*
X29093475Y14293368D01*
X29210000Y14467760D01*
X29326525Y14293368D01*
X29533368Y14086525D01*
X29776589Y13924010D01*
X30046842Y13812068D01*
X30333740Y13755000D01*
X30626260Y13755000D01*
X30913158Y13812068D01*
X31183411Y13924010D01*
X31426632Y14086525D01*
X31633475Y14293368D01*
X31750000Y14467760D01*
X31866525Y14293368D01*
X32073368Y14086525D01*
X32316589Y13924010D01*
X32586842Y13812068D01*
X32873740Y13755000D01*
X33166260Y13755000D01*
X33453158Y13812068D01*
X33723411Y13924010D01*
X33966632Y14086525D01*
X34173475Y14293368D01*
X34290000Y14467760D01*
X34406525Y14293368D01*
X34613368Y14086525D01*
X34856589Y13924010D01*
X35126842Y13812068D01*
X35413740Y13755000D01*
X35706260Y13755000D01*
X35993158Y13812068D01*
X36263411Y13924010D01*
X36506632Y14086525D01*
X36713475Y14293368D01*
X36875990Y14536589D01*
X36987932Y14806842D01*
X37045000Y15093740D01*
X37045000Y15386260D01*
X44235000Y15386260D01*
X44235000Y15093740D01*
X44292068Y14806842D01*
X44404010Y14536589D01*
X44566525Y14293368D01*
X44773368Y14086525D01*
X45016589Y13924010D01*
X45286842Y13812068D01*
X45573740Y13755000D01*
X45866260Y13755000D01*
X46153158Y13812068D01*
X46423411Y13924010D01*
X46666632Y14086525D01*
X46873475Y14293368D01*
X46990000Y14467760D01*
X47106525Y14293368D01*
X47313368Y14086525D01*
X47556589Y13924010D01*
X47826842Y13812068D01*
X48113740Y13755000D01*
X48406260Y13755000D01*
X48693158Y13812068D01*
X48963411Y13924010D01*
X49206632Y14086525D01*
X49413475Y14293368D01*
X49530000Y14467760D01*
X49646525Y14293368D01*
X49853368Y14086525D01*
X50096589Y13924010D01*
X50366842Y13812068D01*
X50653740Y13755000D01*
X50946260Y13755000D01*
X51233158Y13812068D01*
X51503411Y13924010D01*
X51746632Y14086525D01*
X51953475Y14293368D01*
X52070000Y14467760D01*
X52186525Y14293368D01*
X52393368Y14086525D01*
X52636589Y13924010D01*
X52906842Y13812068D01*
X53193740Y13755000D01*
X53486260Y13755000D01*
X53773158Y13812068D01*
X54043411Y13924010D01*
X54286632Y14086525D01*
X54493475Y14293368D01*
X54655990Y14536589D01*
X54767932Y14806842D01*
X54825000Y15093740D01*
X54825000Y15386260D01*
X54767932Y15673158D01*
X54655990Y15943411D01*
X54493475Y16186632D01*
X54286632Y16393475D01*
X54043411Y16555990D01*
X53773158Y16667932D01*
X53486260Y16725000D01*
X53193740Y16725000D01*
X52906842Y16667932D01*
X52636589Y16555990D01*
X52393368Y16393475D01*
X52186525Y16186632D01*
X52070000Y16012240D01*
X51953475Y16186632D01*
X51746632Y16393475D01*
X51503411Y16555990D01*
X51233158Y16667932D01*
X50946260Y16725000D01*
X50653740Y16725000D01*
X50366842Y16667932D01*
X50096589Y16555990D01*
X49853368Y16393475D01*
X49646525Y16186632D01*
X49530000Y16012240D01*
X49413475Y16186632D01*
X49206632Y16393475D01*
X48963411Y16555990D01*
X48693158Y16667932D01*
X48406260Y16725000D01*
X48113740Y16725000D01*
X47826842Y16667932D01*
X47556589Y16555990D01*
X47313368Y16393475D01*
X47106525Y16186632D01*
X46990000Y16012240D01*
X46873475Y16186632D01*
X46666632Y16393475D01*
X46423411Y16555990D01*
X46153158Y16667932D01*
X45866260Y16725000D01*
X45573740Y16725000D01*
X45286842Y16667932D01*
X45016589Y16555990D01*
X44773368Y16393475D01*
X44566525Y16186632D01*
X44404010Y15943411D01*
X44292068Y15673158D01*
X44235000Y15386260D01*
X37045000Y15386260D01*
X36987932Y15673158D01*
X36875990Y15943411D01*
X36713475Y16186632D01*
X36506632Y16393475D01*
X36263411Y16555990D01*
X35993158Y16667932D01*
X35706260Y16725000D01*
X35413740Y16725000D01*
X35126842Y16667932D01*
X34856589Y16555990D01*
X34613368Y16393475D01*
X34406525Y16186632D01*
X34290000Y16012240D01*
X34173475Y16186632D01*
X33966632Y16393475D01*
X33723411Y16555990D01*
X33453158Y16667932D01*
X33166260Y16725000D01*
X32873740Y16725000D01*
X32586842Y16667932D01*
X32316589Y16555990D01*
X32073368Y16393475D01*
X31866525Y16186632D01*
X31750000Y16012240D01*
X31633475Y16186632D01*
X31426632Y16393475D01*
X31183411Y16555990D01*
X30913158Y16667932D01*
X30626260Y16725000D01*
X30333740Y16725000D01*
X30046842Y16667932D01*
X29776589Y16555990D01*
X29533368Y16393475D01*
X29326525Y16186632D01*
X29210000Y16012240D01*
X29093475Y16186632D01*
X28886632Y16393475D01*
X28643411Y16555990D01*
X28373158Y16667932D01*
X28086260Y16725000D01*
X27793740Y16725000D01*
X27506842Y16667932D01*
X27236589Y16555990D01*
X26993368Y16393475D01*
X26786525Y16186632D01*
X26624010Y15943411D01*
X26512068Y15673158D01*
X26455000Y15386260D01*
X19265000Y15386260D01*
X19207932Y15673158D01*
X19095990Y15943411D01*
X18933475Y16186632D01*
X18726632Y16393475D01*
X18483411Y16555990D01*
X18213158Y16667932D01*
X17926260Y16725000D01*
X17633740Y16725000D01*
X17346842Y16667932D01*
X17076589Y16555990D01*
X16833368Y16393475D01*
X16626525Y16186632D01*
X16510000Y16012240D01*
X16393475Y16186632D01*
X16186632Y16393475D01*
X15943411Y16555990D01*
X15673158Y16667932D01*
X15386260Y16725000D01*
X15093740Y16725000D01*
X14806842Y16667932D01*
X14536589Y16555990D01*
X14293368Y16393475D01*
X14086525Y16186632D01*
X13970000Y16012240D01*
X13853475Y16186632D01*
X13646632Y16393475D01*
X13403411Y16555990D01*
X13133158Y16667932D01*
X12846260Y16725000D01*
X12553740Y16725000D01*
X12266842Y16667932D01*
X11996589Y16555990D01*
X11753368Y16393475D01*
X11546525Y16186632D01*
X11430000Y16012240D01*
X11313475Y16186632D01*
X11106632Y16393475D01*
X10863411Y16555990D01*
X10593158Y16667932D01*
X10306260Y16725000D01*
X10013740Y16725000D01*
X9726842Y16667932D01*
X9456589Y16555990D01*
X9213368Y16393475D01*
X9006525Y16186632D01*
X8844010Y15943411D01*
X8732068Y15673158D01*
X8675000Y15386260D01*
X3885510Y15386260D01*
X4025000Y15525750D01*
X4028072Y16090000D01*
X4015812Y16214482D01*
X3979502Y16334180D01*
X3920537Y16444494D01*
X3841185Y16541185D01*
X3744494Y16620537D01*
X3634180Y16679502D01*
X3514482Y16715812D01*
X3390000Y16728072D01*
X2825750Y16725000D01*
X2667000Y16566250D01*
X2413000Y16566250D01*
X2254250Y16725000D01*
X1690000Y16728072D01*
X1565518Y16715812D01*
X1445820Y16679502D01*
X1335506Y16620537D01*
X1238815Y16541185D01*
X1159463Y16444494D01*
X1100498Y16334180D01*
X1064188Y16214482D01*
X1051928Y16090000D01*
X660000Y16090000D01*
X660000Y17120000D01*
X55220000Y17120000D01*
X55220001Y660000D01*
G37*
%TD.AperFunction*%
%TD*%
M02*
