%TF.GenerationSoftware,KiCad,Pcbnew,(5.1.8)-1*%
%TF.CreationDate,2021-03-06T21:19:43+09:00*%
%TF.ProjectId,motor_driver_2,6d6f746f-725f-4647-9269-7665725f322e,rev?*%
%TF.SameCoordinates,PX60e4b00PY7b89fa0*%
%TF.FileFunction,Legend,Bot*%
%TF.FilePolarity,Positive*%
%FSLAX46Y46*%
G04 Gerber Fmt 4.6, Leading zero omitted, Abs format (unit mm)*
G04 Created by KiCad (PCBNEW (5.1.8)-1) date 2021-03-06 21:19:43*
%MOMM*%
%LPD*%
G01*
G04 APERTURE LIST*
%ADD10C,0.120000*%
%ADD11R,1.700000X1.700000*%
%ADD12O,1.700000X1.700000*%
%ADD13C,1.700000*%
G04 APERTURE END LIST*
D10*
X3810000Y16510000D02*
X1270000Y16510000D01*
X3810000Y8890000D02*
X3810000Y16510000D01*
X1270000Y8890000D02*
X3810000Y8890000D01*
X1270000Y16510000D02*
X1270000Y8890000D01*
X54610000Y3810000D02*
X39370000Y3810000D01*
X54610000Y1270000D02*
X54610000Y3810000D01*
X39370000Y1270000D02*
X54610000Y1270000D01*
X39370000Y3810000D02*
X39370000Y1270000D01*
X36830000Y3810000D02*
X21590000Y3810000D01*
X36830000Y1270000D02*
X36830000Y3810000D01*
X21590000Y1270000D02*
X36830000Y1270000D01*
X21590000Y3810000D02*
X21590000Y1270000D01*
X3810000Y1270000D02*
X3810000Y3810000D01*
X19050000Y1270000D02*
X3810000Y1270000D01*
X19050000Y3810000D02*
X19050000Y1270000D01*
X3810000Y3810000D02*
X19050000Y3810000D01*
X54610000Y16510000D02*
X44450000Y16510000D01*
X54610000Y13970000D02*
X54610000Y16510000D01*
X44450000Y13970000D02*
X54610000Y13970000D01*
X44450000Y16510000D02*
X44450000Y13970000D01*
X36830000Y16510000D02*
X26670000Y16510000D01*
X36830000Y13970000D02*
X36830000Y16510000D01*
X26670000Y13970000D02*
X36830000Y13970000D01*
X26670000Y16510000D02*
X26670000Y13970000D01*
X19050000Y16510000D02*
X8890000Y16510000D01*
X19050000Y13970000D02*
X19050000Y16510000D01*
X8890000Y13970000D02*
X19050000Y13970000D01*
X8890000Y16510000D02*
X8890000Y13970000D01*
%LPC*%
D11*
%TO.C,J1*%
X2540000Y15240000D03*
D12*
X2540000Y12700000D03*
X2540000Y10160000D03*
%TD*%
D13*
%TO.C,J2*%
X10160000Y2540000D03*
D12*
X7620000Y2540000D03*
X5080000Y2540000D03*
%TD*%
D13*
%TO.C,J3*%
X17780000Y2540000D03*
D12*
X15240000Y2540000D03*
X12700000Y2540000D03*
%TD*%
%TO.C,J4*%
X22860000Y2540000D03*
X25400000Y2540000D03*
D13*
X27940000Y2540000D03*
%TD*%
D12*
%TO.C,J5*%
X30480000Y2540000D03*
X33020000Y2540000D03*
D13*
X35560000Y2540000D03*
%TD*%
%TO.C,J6*%
X45720000Y2540000D03*
D12*
X43180000Y2540000D03*
X40640000Y2540000D03*
%TD*%
%TO.C,J7*%
X48260000Y2540000D03*
X50800000Y2540000D03*
D13*
X53340000Y2540000D03*
%TD*%
%TO.C,J13*%
X50800000Y15240000D03*
D12*
X53340000Y15240000D03*
%TD*%
%TO.C,J12*%
X48260000Y15240000D03*
D13*
X45720000Y15240000D03*
%TD*%
%TO.C,J11*%
X33020000Y15240000D03*
D12*
X35560000Y15240000D03*
%TD*%
D13*
%TO.C,J10*%
X27940000Y15240000D03*
D12*
X30480000Y15240000D03*
%TD*%
D13*
%TO.C,J8*%
X10160000Y15240000D03*
D12*
X12700000Y15240000D03*
%TD*%
%TO.C,J9*%
X17780000Y15240000D03*
D13*
X15240000Y15240000D03*
%TD*%
M02*
