%TF.GenerationSoftware,KiCad,Pcbnew,(5.1.8)-1*%
%TF.CreationDate,2021-03-06T21:19:43+09:00*%
%TF.ProjectId,motor_driver_2,6d6f746f-725f-4647-9269-7665725f322e,rev?*%
%TF.SameCoordinates,PX60e4b00PY7b89fa0*%
%TF.FileFunction,Soldermask,Top*%
%TF.FilePolarity,Negative*%
%FSLAX46Y46*%
G04 Gerber Fmt 4.6, Leading zero omitted, Abs format (unit mm)*
G04 Created by KiCad (PCBNEW (5.1.8)-1) date 2021-03-06 21:19:43*
%MOMM*%
%LPD*%
G01*
G04 APERTURE LIST*
%ADD10R,1.700000X1.700000*%
%ADD11O,1.700000X1.700000*%
%ADD12C,1.700000*%
%ADD13R,2.900000X1.850000*%
%ADD14R,0.940000X0.750000*%
%ADD15R,0.800000X0.800000*%
%ADD16R,0.450000X1.525000*%
%ADD17R,1.050000X1.800000*%
G04 APERTURE END LIST*
D10*
%TO.C,J1*%
X2540000Y15240000D03*
D11*
X2540000Y12700000D03*
X2540000Y10160000D03*
%TD*%
D12*
%TO.C,J2*%
X10160000Y2540000D03*
D11*
X7620000Y2540000D03*
X5080000Y2540000D03*
%TD*%
D12*
%TO.C,J3*%
X17780000Y2540000D03*
D11*
X15240000Y2540000D03*
X12700000Y2540000D03*
%TD*%
%TO.C,J4*%
X22860000Y2540000D03*
X25400000Y2540000D03*
D12*
X27940000Y2540000D03*
%TD*%
D11*
%TO.C,J5*%
X30480000Y2540000D03*
X33020000Y2540000D03*
D12*
X35560000Y2540000D03*
%TD*%
%TO.C,J6*%
X45720000Y2540000D03*
D11*
X43180000Y2540000D03*
X40640000Y2540000D03*
%TD*%
%TO.C,J7*%
X48260000Y2540000D03*
X50800000Y2540000D03*
D12*
X53340000Y2540000D03*
%TD*%
%TO.C,J13*%
X50800000Y15240000D03*
D11*
X53340000Y15240000D03*
%TD*%
%TO.C,J12*%
X48260000Y15240000D03*
D12*
X45720000Y15240000D03*
%TD*%
%TO.C,J11*%
X33020000Y15240000D03*
D11*
X35560000Y15240000D03*
%TD*%
D12*
%TO.C,J10*%
X27940000Y15240000D03*
D11*
X30480000Y15240000D03*
%TD*%
D12*
%TO.C,J8*%
X10160000Y15240000D03*
D11*
X12700000Y15240000D03*
%TD*%
%TO.C,J9*%
X17780000Y15240000D03*
D12*
X15240000Y15240000D03*
%TD*%
D13*
%TO.C,C1*%
X8735000Y5715000D03*
X5235000Y5715000D03*
%TD*%
D14*
%TO.C,C2*%
X4445000Y14035000D03*
X4445000Y12635000D03*
%TD*%
D13*
%TO.C,C3*%
X23015000Y5715000D03*
X26515000Y5715000D03*
%TD*%
D14*
%TO.C,C4*%
X22225000Y14035000D03*
X22225000Y12635000D03*
%TD*%
D13*
%TO.C,C5*%
X44295000Y5715000D03*
X40795000Y5715000D03*
%TD*%
D14*
%TO.C,C6*%
X40005000Y14035000D03*
X40005000Y12635000D03*
%TD*%
%TO.C,C7*%
X4445000Y8955000D03*
X4445000Y7555000D03*
%TD*%
D13*
%TO.C,C8*%
X8735000Y10795000D03*
X5235000Y10795000D03*
%TD*%
D14*
%TO.C,C9*%
X22225000Y8955000D03*
X22225000Y7555000D03*
%TD*%
D13*
%TO.C,C10*%
X23015000Y10795000D03*
X26515000Y10795000D03*
%TD*%
D14*
%TO.C,C11*%
X40005000Y8955000D03*
X40005000Y7555000D03*
%TD*%
D13*
%TO.C,C12*%
X40795000Y10795000D03*
X44295000Y10795000D03*
%TD*%
D15*
%TO.C,D1*%
X6870000Y13970000D03*
X8370000Y13970000D03*
%TD*%
%TO.C,D2*%
X26150000Y13970000D03*
X24650000Y13970000D03*
%TD*%
%TO.C,D3*%
X43930000Y13970000D03*
X42430000Y13970000D03*
%TD*%
D16*
%TO.C,IC2*%
X35960000Y5328000D03*
X35310000Y5328000D03*
X34660000Y5328000D03*
X34010000Y5328000D03*
X33360000Y5328000D03*
X32710000Y5328000D03*
X32060000Y5328000D03*
X31410000Y5328000D03*
X30760000Y5328000D03*
X30110000Y5328000D03*
X29460000Y5328000D03*
X28810000Y5328000D03*
X28810000Y12452000D03*
X29460000Y12452000D03*
X30110000Y12452000D03*
X30760000Y12452000D03*
X31410000Y12452000D03*
X32060000Y12452000D03*
X32710000Y12452000D03*
X33360000Y12452000D03*
X34010000Y12452000D03*
X34660000Y12452000D03*
X35310000Y12452000D03*
X35960000Y12452000D03*
%TD*%
%TO.C,IC3*%
X53740000Y12452000D03*
X53090000Y12452000D03*
X52440000Y12452000D03*
X51790000Y12452000D03*
X51140000Y12452000D03*
X50490000Y12452000D03*
X49840000Y12452000D03*
X49190000Y12452000D03*
X48540000Y12452000D03*
X47890000Y12452000D03*
X47240000Y12452000D03*
X46590000Y12452000D03*
X46590000Y5328000D03*
X47240000Y5328000D03*
X47890000Y5328000D03*
X48540000Y5328000D03*
X49190000Y5328000D03*
X49840000Y5328000D03*
X50490000Y5328000D03*
X51140000Y5328000D03*
X51790000Y5328000D03*
X52440000Y5328000D03*
X53090000Y5328000D03*
X53740000Y5328000D03*
%TD*%
D17*
%TO.C,R1*%
X4165000Y15875000D03*
X7265000Y15875000D03*
%TD*%
%TO.C,R2*%
X25045000Y15875000D03*
X21945000Y15875000D03*
%TD*%
%TO.C,R3*%
X42825000Y15875000D03*
X39725000Y15875000D03*
%TD*%
D16*
%TO.C,IC1*%
X18180000Y12452000D03*
X17530000Y12452000D03*
X16880000Y12452000D03*
X16230000Y12452000D03*
X15580000Y12452000D03*
X14930000Y12452000D03*
X14280000Y12452000D03*
X13630000Y12452000D03*
X12980000Y12452000D03*
X12330000Y12452000D03*
X11680000Y12452000D03*
X11030000Y12452000D03*
X11030000Y5328000D03*
X11680000Y5328000D03*
X12330000Y5328000D03*
X12980000Y5328000D03*
X13630000Y5328000D03*
X14280000Y5328000D03*
X14930000Y5328000D03*
X15580000Y5328000D03*
X16230000Y5328000D03*
X16880000Y5328000D03*
X17530000Y5328000D03*
X18180000Y5328000D03*
%TD*%
M02*
