G04 #@! TF.GenerationSoftware,KiCad,Pcbnew,(5.1.8)-1*
G04 #@! TF.CreationDate,2021-05-15T21:03:04+09:00*
G04 #@! TF.ProjectId,TJ3B,544a3342-2e6b-4696-9361-645f70636258,rev?*
G04 #@! TF.SameCoordinates,PX68e7780PY660b0c0*
G04 #@! TF.FileFunction,Soldermask,Bot*
G04 #@! TF.FilePolarity,Negative*
%FSLAX46Y46*%
G04 Gerber Fmt 4.6, Leading zero omitted, Abs format (unit mm)*
G04 Created by KiCad (PCBNEW (5.1.8)-1) date 2021-05-15 21:03:04*
%MOMM*%
%LPD*%
G01*
G04 APERTURE LIST*
%ADD10C,2.000000*%
%ADD11C,2.200000*%
%ADD12O,1.900000X1.900000*%
%ADD13O,2.350000X2.100000*%
%ADD14O,2.100000X2.400000*%
%ADD15O,2.100000X2.350000*%
%ADD16O,2.000000X2.000000*%
%ADD17O,2.100000X2.100000*%
%ADD18C,1.924000*%
%ADD19C,1.900000*%
%ADD20C,2.400000*%
G04 APERTURE END LIST*
D10*
X38500000Y31750000D03*
X43500000Y31750000D03*
G36*
G01*
X14400000Y18100000D02*
X14400000Y19900000D01*
G75*
G02*
X14600000Y20100000I200000J0D01*
G01*
X16400000Y20100000D01*
G75*
G02*
X16600000Y19900000I0J-200000D01*
G01*
X16600000Y18100000D01*
G75*
G02*
X16400000Y17900000I-200000J0D01*
G01*
X14600000Y17900000D01*
G75*
G02*
X14400000Y18100000I0J200000D01*
G01*
G37*
D11*
X18040000Y19000000D03*
X24540000Y19000000D03*
G36*
G01*
X20900000Y18100000D02*
X20900000Y19900000D01*
G75*
G02*
X21100000Y20100000I200000J0D01*
G01*
X22900000Y20100000D01*
G75*
G02*
X23100000Y19900000I0J-200000D01*
G01*
X23100000Y18100000D01*
G75*
G02*
X22900000Y17900000I-200000J0D01*
G01*
X21100000Y17900000D01*
G75*
G02*
X20900000Y18100000I0J200000D01*
G01*
G37*
G36*
G01*
X52550000Y9250000D02*
X52550000Y10750000D01*
G75*
G02*
X52750000Y10950000I200000J0D01*
G01*
X54250000Y10950000D01*
G75*
G02*
X54450000Y10750000I0J-200000D01*
G01*
X54450000Y9250000D01*
G75*
G02*
X54250000Y9050000I-200000J0D01*
G01*
X52750000Y9050000D01*
G75*
G02*
X52550000Y9250000I0J200000D01*
G01*
G37*
D12*
X61120000Y10000000D03*
G36*
G01*
X36200000Y3250000D02*
X36200000Y4750000D01*
G75*
G02*
X36850000Y5400000I650000J0D01*
G01*
X38150000Y5400000D01*
G75*
G02*
X38800000Y4750000I0J-650000D01*
G01*
X38800000Y3250000D01*
G75*
G02*
X38150000Y2600000I-650000J0D01*
G01*
X36850000Y2600000D01*
G75*
G02*
X36200000Y3250000I0J650000D01*
G01*
G37*
G36*
G01*
X43400000Y3250000D02*
X43400000Y4750000D01*
G75*
G02*
X44050000Y5400000I650000J0D01*
G01*
X45350000Y5400000D01*
G75*
G02*
X46000000Y4750000I0J-650000D01*
G01*
X46000000Y3250000D01*
G75*
G02*
X45350000Y2600000I-650000J0D01*
G01*
X44050000Y2600000D01*
G75*
G02*
X43400000Y3250000I0J650000D01*
G01*
G37*
G36*
G01*
X59200000Y3250000D02*
X59200000Y4750000D01*
G75*
G02*
X59850000Y5400000I650000J0D01*
G01*
X61150000Y5400000D01*
G75*
G02*
X61800000Y4750000I0J-650000D01*
G01*
X61800000Y3250000D01*
G75*
G02*
X61150000Y2600000I-650000J0D01*
G01*
X59850000Y2600000D01*
G75*
G02*
X59200000Y3250000I0J650000D01*
G01*
G37*
G36*
G01*
X52000000Y3250000D02*
X52000000Y4750000D01*
G75*
G02*
X52650000Y5400000I650000J0D01*
G01*
X53950000Y5400000D01*
G75*
G02*
X54600000Y4750000I0J-650000D01*
G01*
X54600000Y3250000D01*
G75*
G02*
X53950000Y2600000I-650000J0D01*
G01*
X52650000Y2600000D01*
G75*
G02*
X52000000Y3250000I0J650000D01*
G01*
G37*
D13*
X31500000Y3500000D03*
X31500000Y6000000D03*
X31500000Y8500000D03*
G36*
G01*
X30525000Y12050000D02*
X32475000Y12050000D01*
G75*
G02*
X32675000Y11850000I0J-200000D01*
G01*
X32675000Y10150000D01*
G75*
G02*
X32475000Y9950000I-200000J0D01*
G01*
X30525000Y9950000D01*
G75*
G02*
X30325000Y10150000I0J200000D01*
G01*
X30325000Y11850000D01*
G75*
G02*
X30525000Y12050000I200000J0D01*
G01*
G37*
G36*
G01*
X23525000Y12050000D02*
X25475000Y12050000D01*
G75*
G02*
X25675000Y11850000I0J-200000D01*
G01*
X25675000Y10150000D01*
G75*
G02*
X25475000Y9950000I-200000J0D01*
G01*
X23525000Y9950000D01*
G75*
G02*
X23325000Y10150000I0J200000D01*
G01*
X23325000Y11850000D01*
G75*
G02*
X23525000Y12050000I200000J0D01*
G01*
G37*
X24500000Y8500000D03*
X24500000Y6000000D03*
X24500000Y3500000D03*
G36*
G01*
X16525000Y12050000D02*
X18475000Y12050000D01*
G75*
G02*
X18675000Y11850000I0J-200000D01*
G01*
X18675000Y10150000D01*
G75*
G02*
X18475000Y9950000I-200000J0D01*
G01*
X16525000Y9950000D01*
G75*
G02*
X16325000Y10150000I0J200000D01*
G01*
X16325000Y11850000D01*
G75*
G02*
X16525000Y12050000I200000J0D01*
G01*
G37*
X17500000Y8500000D03*
X17500000Y6000000D03*
X17500000Y3500000D03*
G36*
G01*
X64950000Y3000000D02*
X64950000Y5000000D01*
G75*
G02*
X65150000Y5200000I200000J0D01*
G01*
X66850000Y5200000D01*
G75*
G02*
X67050000Y5000000I0J-200000D01*
G01*
X67050000Y3000000D01*
G75*
G02*
X66850000Y2800000I-200000J0D01*
G01*
X65150000Y2800000D01*
G75*
G02*
X64950000Y3000000I0J200000D01*
G01*
G37*
D14*
X68500000Y4000000D03*
G36*
G01*
X28800000Y42475000D02*
X28800000Y40525000D01*
G75*
G02*
X28600000Y40325000I-200000J0D01*
G01*
X26900000Y40325000D01*
G75*
G02*
X26700000Y40525000I0J200000D01*
G01*
X26700000Y42475000D01*
G75*
G02*
X26900000Y42675000I200000J0D01*
G01*
X28600000Y42675000D01*
G75*
G02*
X28800000Y42475000I0J-200000D01*
G01*
G37*
D15*
X25250000Y41500000D03*
X22750000Y41500000D03*
X20250000Y41500000D03*
X17750000Y41500000D03*
D10*
X18000000Y24500000D03*
D16*
X18000000Y32120000D03*
X24500000Y24380000D03*
D10*
X24500000Y32000000D03*
G36*
G01*
X63750000Y40300000D02*
X63750000Y38700000D01*
G75*
G02*
X63550000Y38500000I-200000J0D01*
G01*
X61950000Y38500000D01*
G75*
G02*
X61750000Y38700000I0J200000D01*
G01*
X61750000Y40300000D01*
G75*
G02*
X61950000Y40500000I200000J0D01*
G01*
X63550000Y40500000D01*
G75*
G02*
X63750000Y40300000I0J-200000D01*
G01*
G37*
D16*
X60210000Y39500000D03*
X57670000Y39500000D03*
X55130000Y39500000D03*
X52590000Y39500000D03*
X50050000Y39500000D03*
X47510000Y39500000D03*
X44970000Y39500000D03*
X42430000Y39500000D03*
X42430000Y44250000D03*
X44970000Y44250000D03*
X47510000Y44250000D03*
X50050000Y44250000D03*
X52590000Y44250000D03*
X55130000Y44250000D03*
X57670000Y44250000D03*
X60210000Y44250000D03*
G36*
G01*
X63750000Y45050000D02*
X63750000Y43450000D01*
G75*
G02*
X63550000Y43250000I-200000J0D01*
G01*
X61950000Y43250000D01*
G75*
G02*
X61750000Y43450000I0J200000D01*
G01*
X61750000Y45050000D01*
G75*
G02*
X61950000Y45250000I200000J0D01*
G01*
X63550000Y45250000D01*
G75*
G02*
X63750000Y45050000I0J-200000D01*
G01*
G37*
X33340000Y22250000D03*
X35880000Y22250000D03*
X38420000Y22250000D03*
X40960000Y22250000D03*
G36*
G01*
X44500000Y23050000D02*
X44500000Y21450000D01*
G75*
G02*
X44300000Y21250000I-200000J0D01*
G01*
X42700000Y21250000D01*
G75*
G02*
X42500000Y21450000I0J200000D01*
G01*
X42500000Y23050000D01*
G75*
G02*
X42700000Y23250000I200000J0D01*
G01*
X44300000Y23250000D01*
G75*
G02*
X44500000Y23050000I0J-200000D01*
G01*
G37*
G36*
G01*
X38350000Y13950000D02*
X36650000Y13950000D01*
G75*
G02*
X36450000Y14150000I0J200000D01*
G01*
X36450000Y15850000D01*
G75*
G02*
X36650000Y16050000I200000J0D01*
G01*
X38350000Y16050000D01*
G75*
G02*
X38550000Y15850000I0J-200000D01*
G01*
X38550000Y14150000D01*
G75*
G02*
X38350000Y13950000I-200000J0D01*
G01*
G37*
D17*
X40040000Y15000000D03*
X42580000Y15000000D03*
D18*
X47620000Y35620000D03*
X47620000Y28000000D03*
X50160000Y28000000D03*
X52700000Y28000000D03*
X55240000Y28000000D03*
X57780000Y28000000D03*
X60320000Y28000000D03*
X60320000Y35620000D03*
X57780000Y35620000D03*
X55240000Y35620000D03*
X52700000Y35620000D03*
X50160000Y35620000D03*
X45080000Y28000000D03*
X42540000Y28000000D03*
X40000000Y28000000D03*
X37460000Y28000000D03*
X34920000Y28000000D03*
X32380000Y28000000D03*
X32380000Y35620000D03*
X34920000Y35620000D03*
X37460000Y35620000D03*
X40000000Y35620000D03*
X42540000Y35620000D03*
X45080000Y35620000D03*
X62860000Y28000000D03*
X62860000Y35620000D03*
X29840000Y28000000D03*
X29840000Y35620000D03*
D19*
X53500000Y18500000D03*
X47500000Y18500000D03*
D20*
X48250000Y22100000D03*
X52750000Y22100000D03*
X48250000Y14900000D03*
X52750000Y14900000D03*
X62250000Y14900000D03*
X57750000Y14900000D03*
X62250000Y22100000D03*
X57750000Y22100000D03*
D19*
X57000000Y18500000D03*
X63000000Y18500000D03*
D15*
X3500000Y37000000D03*
X6000000Y37000000D03*
G36*
G01*
X9550000Y37975000D02*
X9550000Y36025000D01*
G75*
G02*
X9350000Y35825000I-200000J0D01*
G01*
X7650000Y35825000D01*
G75*
G02*
X7450000Y36025000I0J200000D01*
G01*
X7450000Y37975000D01*
G75*
G02*
X7650000Y38175000I200000J0D01*
G01*
X9350000Y38175000D01*
G75*
G02*
X9550000Y37975000I0J-200000D01*
G01*
G37*
G36*
G01*
X9550000Y30975000D02*
X9550000Y29025000D01*
G75*
G02*
X9350000Y28825000I-200000J0D01*
G01*
X7650000Y28825000D01*
G75*
G02*
X7450000Y29025000I0J200000D01*
G01*
X7450000Y30975000D01*
G75*
G02*
X7650000Y31175000I200000J0D01*
G01*
X9350000Y31175000D01*
G75*
G02*
X9550000Y30975000I0J-200000D01*
G01*
G37*
X6000000Y30000000D03*
X3500000Y30000000D03*
X3500000Y23000000D03*
X6000000Y23000000D03*
G36*
G01*
X9550000Y23975000D02*
X9550000Y22025000D01*
G75*
G02*
X9350000Y21825000I-200000J0D01*
G01*
X7650000Y21825000D01*
G75*
G02*
X7450000Y22025000I0J200000D01*
G01*
X7450000Y23975000D01*
G75*
G02*
X7650000Y24175000I200000J0D01*
G01*
X9350000Y24175000D01*
G75*
G02*
X9550000Y23975000I0J-200000D01*
G01*
G37*
G36*
G01*
X9550000Y16975000D02*
X9550000Y15025000D01*
G75*
G02*
X9350000Y14825000I-200000J0D01*
G01*
X7650000Y14825000D01*
G75*
G02*
X7450000Y15025000I0J200000D01*
G01*
X7450000Y16975000D01*
G75*
G02*
X7650000Y17175000I200000J0D01*
G01*
X9350000Y17175000D01*
G75*
G02*
X9550000Y16975000I0J-200000D01*
G01*
G37*
X6000000Y16000000D03*
X3500000Y16000000D03*
X3500000Y9000000D03*
X6000000Y9000000D03*
G36*
G01*
X9550000Y9975000D02*
X9550000Y8025000D01*
G75*
G02*
X9350000Y7825000I-200000J0D01*
G01*
X7650000Y7825000D01*
G75*
G02*
X7450000Y8025000I0J200000D01*
G01*
X7450000Y9975000D01*
G75*
G02*
X7650000Y10175000I200000J0D01*
G01*
X9350000Y10175000D01*
G75*
G02*
X9550000Y9975000I0J-200000D01*
G01*
G37*
X75500000Y39000000D03*
X73000000Y39000000D03*
G36*
G01*
X69450000Y38025000D02*
X69450000Y39975000D01*
G75*
G02*
X69650000Y40175000I200000J0D01*
G01*
X71350000Y40175000D01*
G75*
G02*
X71550000Y39975000I0J-200000D01*
G01*
X71550000Y38025000D01*
G75*
G02*
X71350000Y37825000I-200000J0D01*
G01*
X69650000Y37825000D01*
G75*
G02*
X69450000Y38025000I0J200000D01*
G01*
G37*
G36*
G01*
X69450000Y31025000D02*
X69450000Y32975000D01*
G75*
G02*
X69650000Y33175000I200000J0D01*
G01*
X71350000Y33175000D01*
G75*
G02*
X71550000Y32975000I0J-200000D01*
G01*
X71550000Y31025000D01*
G75*
G02*
X71350000Y30825000I-200000J0D01*
G01*
X69650000Y30825000D01*
G75*
G02*
X69450000Y31025000I0J200000D01*
G01*
G37*
X73000000Y32000000D03*
X75500000Y32000000D03*
X75500000Y25000000D03*
X73000000Y25000000D03*
G36*
G01*
X69450000Y24025000D02*
X69450000Y25975000D01*
G75*
G02*
X69650000Y26175000I200000J0D01*
G01*
X71350000Y26175000D01*
G75*
G02*
X71550000Y25975000I0J-200000D01*
G01*
X71550000Y24025000D01*
G75*
G02*
X71350000Y23825000I-200000J0D01*
G01*
X69650000Y23825000D01*
G75*
G02*
X69450000Y24025000I0J200000D01*
G01*
G37*
G36*
G01*
X69450000Y17025000D02*
X69450000Y18975000D01*
G75*
G02*
X69650000Y19175000I200000J0D01*
G01*
X71350000Y19175000D01*
G75*
G02*
X71550000Y18975000I0J-200000D01*
G01*
X71550000Y17025000D01*
G75*
G02*
X71350000Y16825000I-200000J0D01*
G01*
X69650000Y16825000D01*
G75*
G02*
X69450000Y17025000I0J200000D01*
G01*
G37*
X73000000Y18000000D03*
X75500000Y18000000D03*
G36*
G01*
X69450000Y10025000D02*
X69450000Y11975000D01*
G75*
G02*
X69650000Y12175000I200000J0D01*
G01*
X71350000Y12175000D01*
G75*
G02*
X71550000Y11975000I0J-200000D01*
G01*
X71550000Y10025000D01*
G75*
G02*
X71350000Y9825000I-200000J0D01*
G01*
X69650000Y9825000D01*
G75*
G02*
X69450000Y10025000I0J200000D01*
G01*
G37*
X73000000Y11000000D03*
X75500000Y11000000D03*
M02*
