M48
; DRILL file {KiCad (5.1.8)-1} date 05/15/21 21:03:15
; FORMAT={-:-/ absolute / metric / decimal}
; #@! TF.CreationDate,2021-05-15T21:03:15+09:00
; #@! TF.GenerationSoftware,Kicad,Pcbnew,(5.1.8)-1
FMAT,2
METRIC
T1C0.400
T2C0.750
T3C0.762
T4C0.800
T5C0.900
T6C0.950
T7C1.000
T8C1.600
%
G90
G05
T1
X1.25Y39.25
X1.25Y33.0
X1.25Y25.75
X1.25Y19.25
X1.25Y11.5
X6.5Y45.5
X9.25Y1.25
X10.5Y45.5
X13.5Y27.75
X13.5Y22.25
X14.75Y1.25
X15.5Y45.5
X17.5Y35.5
X20.5Y1.25
X20.75Y9.75
X20.75Y7.0
X21.5Y27.75
X22.75Y44.25
X25.0Y44.25
X28.0Y9.75
X28.0Y7.0
X28.25Y1.25
X29.75Y38.75
X30.737Y40.763
X30.75Y38.332
X34.25Y31.75
X34.75Y38.75
X35.25Y40.75
X36.75Y1.25
X37.0Y43.5
X39.75Y39.0
X40.0Y43.5
X44.25Y18.75
X45.0Y1.25
X48.75Y6.5
X50.75Y31.5
X53.5Y1.25
X54.5Y41.75
X57.5Y10.25
X59.5Y30.5
X61.0Y41.75
X61.0Y1.25
X61.25Y30.5
X65.5Y45.5
X66.75Y26.25
X66.75Y13.5
X67.25Y1.25
X67.5Y37.5
X69.25Y45.5
X69.25Y42.0
X72.0Y1.25
X72.25Y45.5
X77.75Y40.25
X77.75Y35.75
X77.75Y28.75
X77.75Y22.5
X77.75Y17.25
X77.75Y12.0
X77.75Y6.5
T2
X57.0Y18.5
X63.0Y18.5
X53.5Y10.0
X61.12Y10.0
X47.5Y18.5
X53.5Y18.5
T3
X29.84Y35.62
X29.84Y28.0
X32.38Y35.62
X32.38Y28.0
X34.92Y35.62
X34.92Y28.0
X37.46Y35.62
X37.46Y28.0
X40.0Y35.62
X40.0Y28.0
X42.54Y35.62
X42.54Y28.0
X45.08Y35.62
X45.08Y28.0
X47.62Y35.62
X47.62Y28.0
X50.16Y35.62
X50.16Y28.0
X52.7Y35.62
X52.7Y28.0
X55.24Y35.62
X55.24Y28.0
X57.78Y35.62
X57.78Y28.0
X60.32Y35.62
X60.32Y28.0
X62.86Y35.62
X62.86Y28.0
T4
X42.43Y44.25
X44.97Y44.25
X47.51Y44.25
X50.05Y44.25
X52.59Y44.25
X55.13Y44.25
X57.67Y44.25
X60.21Y44.25
X62.75Y44.25
X18.0Y32.12
X18.0Y24.5
X33.34Y22.25
X35.88Y22.25
X38.42Y22.25
X40.96Y22.25
X43.5Y22.25
X24.5Y32.0
X24.5Y24.38
X42.43Y39.5
X44.97Y39.5
X47.51Y39.5
X50.05Y39.5
X52.59Y39.5
X55.13Y39.5
X57.67Y39.5
X60.21Y39.5
X62.75Y39.5
X38.5Y31.75
X43.5Y31.75
T5
X22.0Y19.0
X24.54Y19.0
X15.5Y19.0
X18.04Y19.0
T6
X31.5Y11.0
X31.5Y8.5
X31.5Y6.0
X31.5Y3.5
X17.75Y41.5
X20.25Y41.5
X22.75Y41.5
X25.25Y41.5
X27.75Y41.5
X70.5Y11.0
X73.0Y11.0
X75.5Y11.0
X70.5Y39.0
X73.0Y39.0
X75.5Y39.0
X3.5Y37.0
X6.0Y37.0
X8.5Y37.0
X3.5Y9.0
X6.0Y9.0
X8.5Y9.0
X70.5Y25.0
X73.0Y25.0
X75.5Y25.0
X17.5Y11.0
X17.5Y8.5
X17.5Y6.0
X17.5Y3.5
X3.5Y16.0
X6.0Y16.0
X8.5Y16.0
X70.5Y32.0
X73.0Y32.0
X75.5Y32.0
X3.5Y23.0
X6.0Y23.0
X8.5Y23.0
X70.5Y18.0
X73.0Y18.0
X75.5Y18.0
X24.5Y11.0
X24.5Y8.5
X24.5Y6.0
X24.5Y3.5
X3.5Y30.0
X6.0Y30.0
X8.5Y30.0
T7
X48.25Y22.1
X48.25Y14.9
X52.75Y22.1
X52.75Y14.9
X66.0Y4.0
X68.5Y4.0
X37.5Y15.0
X40.04Y15.0
X42.58Y15.0
X57.75Y22.1
X57.75Y14.9
X62.25Y22.1
X62.25Y14.9
T8
G00X37.5Y4.1
M15
G01X37.5Y3.9
M16
G05
G00X44.7Y4.1
M15
G01X44.7Y3.9
M16
G05
G00X53.3Y4.1
M15
G01X53.3Y3.9
M16
G05
G00X60.5Y4.1
M15
G01X60.5Y3.9
M16
G05
T0
M30
